<?xml version="1.0" encoding="UTF-8"?>
<svg xmlns="http://www.w3.org/2000/svg" version="1.1" viewBox="232.12 30.50 140.38 147.32" width="140.38" height="147.32" style="fill-rule:nonzero;clip-rule:evenodd;stroke-linecap:round;stroke-linejoin:round;" xml:space="preserve">
<g opacity="1">
<path d="M285.5 36.5C288.272 36.5952 290.272 37.9285 291.5 40.5C297.661 36.9901 299.661 38.6567 297.5 45.5C307.478 48.3027 314.978 54.3027 320 63.5C326.546 61.6056 331.546 63.6056 335 69.5C337.404 83.2681 331.571 90.2681 317.5 90.5C316.221 93.1117 314.555 95.4451 312.5 97.5C330.565 111.93 336.899 130.263 331.5 152.5C341.077 151.879 345.744 146.712 345.5 137C345.047 131.354 343.88 125.854 342 120.5C340.813 109.849 345.313 103.182 355.5 100.5C361.001 100.096 364.667 102.429 366.5 107.5C366.471 109.029 365.804 110.196 364.5 111C361.435 111.653 358.601 111.153 356 109.5C353.812 109.354 352.479 110.354 352 112.5C352.012 120.894 352.845 129.227 354.5 137.5C352.912 155.657 342.912 163.991 324.5 162.5C324.439 165.73 322.772 167.563 319.5 168C312.112 168.393 304.779 169.227 297.5 170.5C293.488 170.826 290.155 169.493 287.5 166.5C279.576 171.817 271.743 171.817 264 166.5C259.747 168.494 255.247 168.994 250.5 168C244.254 164.178 243.921 159.845 249.5 155C251.715 153.956 254.048 153.29 256.5 153C252.716 148.139 251.549 142.639 253 136.5C254.695 133.305 257.195 130.972 260.5 129.5C260.417 119.852 262.417 110.685 266.5 102C263.591 98.1888 260.925 94.1888 258.5 90C243.286 89.4026 238.119 81.9026 243 67.5C246.875 62.8076 251.709 61.3076 257.5 63C261.766 53.2265 269.099 47.3932 279.5 45.5C279.302 43.4247 279.135 41.4247 279 39.5C280.458 38.2532 281.958 38.2532 283.5 39.5C284.425 38.6431 285.092 37.6431 285.5 36.5Z" fill="#191919" fill-rule="evenodd" opacity="1" stroke="none" />
<path d="M353.5 102.5C358.311 101.74 361.978 103.407 364.5 107.5C362.443 110.116 360.443 109.949 358.5 107C350.127 107.528 346.96 112.028 349 120.5C354.336 131.994 353.669 142.994 347 153.5C340.689 158.702 333.522 160.702 325.5 159.5C326.951 158.094 328.284 156.594 329.5 155C341.571 154.763 347.904 148.596 348.5 136.5C347.962 131.68 346.795 127.013 345 122.5C342.692 113.465 345.526 106.799 353.5 102.5Z" fill="#e7e7e8" fill-rule="evenodd" opacity="1" stroke="none" />
<path d="M259.5 132.5C260.693 132.97 261.36 133.97 261.5 135.5C262.636 141.454 263.303 147.454 263.5 153.5C258.642 153.146 255.808 150.479 255 145.5C253.721 140.085 255.221 135.751 259.5 132.5Z" fill="#ededed" fill-rule="evenodd" opacity="1" stroke="none" />
<path d="M274.5 137.5C275.045 143.463 274.379 149.13 272.5 154.5C270.847 154.66 269.514 155.326 268.5 156.5C267.833 155.833 267.167 155.167 266.5 154.5C263.91 141.618 263.077 128.618 264 115.5C264.739 111.615 266.073 107.948 268 104.5C268.561 103.978 269.228 103.645 270 103.5C280.591 108.26 291.424 108.76 302.5 105C305.603 103.561 308.436 101.727 311 99.5C325.313 110.786 331.979 125.452 331 143.5C330.313 149.211 327.813 153.878 323.5 157.5C322.786 160.027 322.12 162.527 321.5 165C313.92 166.601 306.253 167.435 298.5 167.5C298.297 165.61 298.963 164.11 300.5 163C297.698 162.976 296.364 164.476 296.5 167.5C295.5 167.5 294.5 167.5 293.5 167.5C293.247 165.173 293.914 163.173 295.5 161.5C295.167 161.167 294.833 160.833 294.5 160.5C293.239 162.453 292.073 164.453 291 166.5C289.233 163.134 290.066 160.301 293.5 158C299.12 157.178 304.62 157.678 310 159.5C310.5 159.167 311 158.833 311.5 158.5C301.442 151.689 298.942 142.689 304 131.5C305.909 128.586 308.575 126.919 312 126.5C315.574 127.893 319.074 129.06 322.5 130C319.096 125.964 314.763 124.131 309.5 124.5C309.719 123.325 309.386 122.325 308.5 121.5C305.21 125.379 302.377 129.712 300 134.5C299.291 138.868 299.458 143.201 300.5 147.5C299.964 149.942 299.131 152.275 298 154.5C294.725 154.919 291.891 156.253 289.5 158.5C289.167 157.333 288.833 156.167 288.5 155C290.113 144.819 291.78 134.653 293.5 124.5C293.167 122.833 292.833 121.167 292.5 119.5C290.761 129.589 288.761 139.589 286.5 149.5C284.671 150.282 283.171 149.616 282 147.5C277.008 138.876 274.175 129.543 273.5 119.5C272.265 125.584 272.598 131.584 274.5 137.5Z" fill="#f2f2f2" fill-rule="evenodd" opacity="1" stroke="none" />
<path d="M277.5 145.5C280.116 148.455 282.782 151.455 285.5 154.5C283.013 154.782 280.347 154.782 277.5 154.5C277.5 151.5 277.5 148.5 277.5 145.5Z" fill="#dedfdf" fill-rule="evenodd" opacity="1" stroke="none" />
<path d="M274.5 137.5C275.489 142.975 275.822 148.642 275.5 154.5C274.5 154.5 273.5 154.5 272.5 154.5C274.379 149.13 275.045 143.463 274.5 137.5Z" fill="#7c7e7b" fill-rule="evenodd" opacity="1" stroke="none" />
<path d="M274.5 59.5C279.819 59.1046 284.319 60.7712 288 64.5C294.681 57.9406 301.347 57.9406 308 64.5C311.556 70.8346 311.056 76.8346 306.5 82.5C313.772 91.2058 312.105 98.0391 301.5 103C290.814 106.927 280.481 106.26 270.5 101C263.353 95.313 262.687 88.9797 268.5 82C266.542 77.006 266.042 71.8393 267 66.5C269.015 63.5883 271.515 61.255 274.5 59.5Z" fill="#f1f1f1" fill-rule="evenodd" opacity="1" stroke="none" />
<path d="M275.5 91.5C283.221 99.4792 291.054 99.4792 299 91.5C299.63 93.9034 298.797 95.7367 296.5 97C289.895 100.634 283.562 100.3 277.5 96C276.418 94.6703 275.751 93.1703 275.5 91.5Z" fill="#181818" fill-rule="evenodd" opacity="1" stroke="none" />
<path d="M249.5 64.5C254.542 63.5049 256.875 65.5049 256.5 70.5C253.03 69.8748 250.196 70.8748 248 73.5C247.219 74.9437 247.386 76.277 248.5 77.5C248.878 73.1498 251.211 71.4832 255.5 72.5C255.22 77.3134 255.886 81.9801 257.5 86.5C250.255 88.455 245.422 85.7883 243 78.5C242.209 72.417 244.376 67.7503 249.5 64.5Z" fill="#e8e8e8" fill-rule="evenodd" opacity="1" stroke="none" />
<path d="M320.5 65.5C331.797 65.3109 335.63 70.6443 332 81.5C329.115 86.025 324.948 88.025 319.5 87.5C320.065 82.8507 320.565 78.184 321 73.5C325.381 71.8458 327.714 73.5124 328 78.5C329.35 72.1916 326.85 69.5249 320.5 70.5C320.5 68.8333 320.5 67.1667 320.5 65.5Z" fill="#eaeaea" fill-rule="evenodd" opacity="1" stroke="none" />
<path d="M286.5 39.5C288.257 40.292 289.591 41.6253 290.5 43.5C295.553 40.5497 296.886 41.883 294.5 47.5C306.444 49.2739 314.278 55.9406 318 67.5C319.57 76.063 318.236 84.063 314 91.5C313.559 87.9522 312.059 84.9522 309.5 82.5C314.235 74.1484 313.235 66.6484 306.5 60C299.908 56.2643 293.741 56.7643 288 61.5C274.55 54.1423 266.383 57.9756 263.5 73C263.704 76.2796 264.704 79.2796 266.5 82C263.648 84.5206 262.148 87.6873 262 91.5C253.237 72.4551 258.071 57.9551 276.5 48C278.134 47.5065 279.801 47.3398 281.5 47.5C281.338 45.4727 281.505 43.4727 282 41.5C285.221 44.7282 286.721 44.0615 286.5 39.5Z" fill="#eeeeee" fill-rule="evenodd" opacity="1" stroke="none" />
<path d="M283.5 82.5C285.094 82.9195 286.594 83.5862 288 84.5C289 83.8333 290 83.1667 291 82.5C291.5 82.8333 292 83.1667 292.5 83.5C289.988 86.7092 286.988 87.2092 283.5 85C282.402 84.2303 282.402 83.397 283.5 82.5Z" fill="#161617" fill-rule="evenodd" opacity="1" stroke="none" />
<path d="M297.5 72.5C302.341 74.5439 302.675 77.2105 298.5 80.5C294.933 78.2347 294.6 75.568 297.5 72.5Z" fill="#1f1f20" fill-rule="evenodd" opacity="1" stroke="none" />
<path d="M275.5 72.5C276.822 72.33 277.989 72.6634 279 73.5C279.495 75.4727 279.662 77.4727 279.5 79.5C274.59 79.4236 273.257 77.0902 275.5 72.5Z" fill="#121112" fill-rule="evenodd" opacity="1" stroke="none" />
<path d="M301.5 152.5C303.625 153.368 303.791 154.368 302 155.5C300.317 154.824 300.15 153.824 301.5 152.5Z" fill="#abaaab" fill-rule="evenodd" opacity="1" stroke="none" />
<path d="M266.5 154.5C267.167 155.167 267.833 155.833 268.5 156.5C267.206 158.296 266.206 160.296 265.5 162.5C264.749 161.624 264.249 160.624 264 159.5C263.492 164.519 260.658 166.853 255.5 166.5C255.383 164.516 256.05 162.85 257.5 161.5C256.132 160.406 254.965 160.74 254 162.5C253.558 167.559 252.725 167.726 251.5 163C251.844 161.635 252.511 160.468 253.5 159.5C252.998 158.479 252.332 158.312 251.5 159C250.228 160.307 249.228 161.807 248.5 163.5C247.257 159.853 248.59 157.353 252.5 156C257.098 154.976 261.432 155.476 265.5 157.5C266.386 156.675 266.719 155.675 266.5 154.5Z" fill="#dbdbdc" fill-rule="evenodd" opacity="1" stroke="none" />
<path d="M271.5 156.5C275.182 156.335 278.848 156.501 282.5 157C287.637 158.238 288.637 160.905 285.5 165C283.091 166.707 280.425 167.54 277.5 167.5C277.807 165.554 277.807 163.887 277.5 162.5C275.783 163.668 275.116 165.335 275.5 167.5C274.5 167.5 273.5 167.5 272.5 167.5C272.104 164.956 272.771 162.789 274.5 161C273.365 160.251 272.365 160.417 271.5 161.5C270.985 163.225 270.318 164.892 269.5 166.5C268.119 166 267.453 165 267.5 163.5C268.071 160.687 269.404 158.354 271.5 156.5Z" fill="#e7e7e7" fill-rule="evenodd" opacity="1" stroke="none" />
</g>

</svg>