<?xml version="1.0" encoding="UTF-8"?>
<svg xmlns="http://www.w3.org/2000/svg" version="1.1" viewBox="157 503 158 245" width="158" height="245" style="fill-rule:nonzero;clip-rule:evenodd;stroke-linecap:round;stroke-linejoin:round;" xml:space="preserve">
<g transform="translate(141,487)"><ns0:path xmlns:ns0="http://www.w3.org/2000/svg" d="M0 0 C8.433 -1.15 15.392 3.402 22.043 8.191 C26.916 12.078 31.277 15.993 35 21 C35.949 20.175 36.897 19.35 37.875 18.5 C38.52 17.953 39.164 17.407 39.828 16.844 C41.309 15.587 42.777 14.315 44.234 13.031 C52.519 5.992 61.926 0.434 73 0 C73.878 2.93 74.265 4.425 72.961 7.254 C72.438 8.016 71.914 8.778 71.375 9.562 C67.804 15.095 65.378 20.877 63 27 C65.799 27 67.988 25.942 70.625 25 C76.062 23.291 80.914 22.615 86.562 22.625 C87.241 22.624 87.919 22.622 88.618 22.621 C92.221 22.701 94.933 23.049 98 25 C97.789 26.82 97.789 26.82 97 29 C94.961 30.492 94.961 30.492 92.375 31.875 C83.996 36.661 79.013 41.736 74 50 C74.369 49.983 74.369 49.983 76.238 49.895 C83.554 49.699 90.135 50.318 97 53 C97.66 53.66 98.32 54.32 99 55 C98.867 57.039 98.867 57.039 98 59 C96.32 59.836 96.32 59.836 94.125 60.375 C84.063 63.383 76.08 68.29 70 77 C70 77.66 70 78.32 70 79 C71.441 80.173 72.93 81.288 74.438 82.375 C90.753 95.183 97.136 114.789 100.621 134.516 C103.018 156.56 100.003 179.805 85.984 197.645 C85.33 198.422 84.675 199.199 84 200 C83.734 200.322 83.734 200.322 82.391 201.949 C72.748 212.571 57.779 219.237 43.511 220.161 C20.714 220.528 20.714 220.528 11 217 C10.16 216.733 9.319 216.466 8.453 216.191 C-6.587 210.937 -18.074 199.073 -25 185 C-30.029 173.179 -32.384 161.178 -32.312 148.375 C-32.308 147.325 -32.303 146.274 -32.298 145.192 C-31.965 122.886 -25.063 101.928 -9 86 C-6.914 84.074 -4.802 82.202 -2.629 80.375 C-1 79 -1 79 1 77 C-5.509 68.608 -12.573 63.762 -22.625 60.375 C-23.739 59.921 -24.852 59.468 -26 59 C-26.711 56.914 -26.711 56.914 -27 55 C-19.457 49.647 -10.923 49.7 -2 50 C-5.583 41.265 -12.172 35.007 -20.215 30.289 C-22 29 -22 29 -23 26 C-22 24 -22 24 -19 23 C-8.745 22.007 0.911 24.15 10 29 C7.5 20.703 5.07 13.226 0.039 6.051 C-1 4 -1 4 -0.664 1.73 C-0.445 1.159 -0.226 0.588 0 0 Z M9 8 C9.986 10.97 10.978 13.937 12 16.895 C13.607 21.584 15.089 26.111 15.938 31 C16.61 34.381 16.902 34.907 19.562 37.438 C20.367 37.953 21.171 38.469 22 39 C22.33 39.66 22.66 40.32 23 41 C23.66 41 24.32 41 25 41 C26.406 39.05 27.73 37.04 29 35 C29.598 34.154 30.196 33.309 30.812 32.438 C32.319 29.344 32.002 28.256 31 25 C25.864 17.57 18.985 12.122 11 8 C10.34 8 9.68 8 9 8 Z M44 20 C42.122 22.233 40.381 24.501 38.703 26.887 C37 29 37 29 34.5 30.711 C30.966 33.947 30.098 37.428 28.75 41.938 C28.495 42.736 28.24 43.535 27.977 44.357 C26.137 50.202 24.858 55.523 24.875 61.688 C24.872 62.64 24.87 63.593 24.867 64.574 C25 67 25 67 26 69 C31.94 69 37.88 69 44 69 C46.173 64.653 45.291 58.754 45 54 C44.234 51.715 44.234 51.715 43.438 49.812 C43 46 43 46 44.73 43.398 C47.653 40.09 50.515 36.975 54.219 34.543 C56.65 32.437 56.795 30.758 57.375 27.625 C58.917 20.577 61.794 14.432 65 8 C57.616 8 49.141 15.185 44 20 Z M-11 29 C-10.34 29.619 -9.68 30.237 -9 30.875 C-3.635 36.27 1.185 42.135 4.625 48.938 C6.7 52.947 8.722 54.347 13 56 C13.33 56.66 13.66 57.32 14 58 C15.979 58.727 17.98 59.398 20 60 C22.737 50.106 22.737 50.106 21.184 45.668 C15.143 36.943 4.066 31.524 -6 29 C-8.82 28.902 -8.82 28.902 -11 29 Z M55 40 C54.385 40.44 53.77 40.879 53.137 41.332 C51.298 42.798 50.134 43.934 49 46 C48.831 48.719 49.147 51.141 49.566 53.832 C50.347 59.532 50.057 65.256 50 71 C54.62 72.65 59.24 74.3 64 76 C64.969 74.659 65.939 73.319 66.938 71.938 C72.382 64.953 78.665 60.015 87 57 C87 56.67 87 56.34 87 56 C84.125 55.973 81.25 55.953 78.375 55.938 C77.567 55.929 76.759 55.921 75.926 55.912 C71.497 55.894 67.361 56.104 63 57 C62.67 55.68 62.34 54.36 62 53 C62.758 52.774 63.516 52.549 64.297 52.316 C67.649 50.684 68.451 49.167 70.25 45.938 C73.772 40.059 78.008 35.643 83 31 C84.004 30.004 85.006 29.006 86 28 C74.352 28 63.742 32.6 55 40 Z M-15 56 C-12.84 57.648 -10.66 59.232 -8.414 60.762 C-2.442 64.886 2.117 68.84 6 75 C10.847 74.218 15.377 72.602 20 71 C20 69.68 20 68.36 20 67 C17.562 64.875 17.562 64.875 15 63 C14.67 62.34 14.34 61.68 14 61 C4.259 56.231 -4.291 55.325 -15 56 Z M9 80 C10.54 83.987 13.055 85.901 16.375 88.5 C19.786 91.185 22.993 93.865 26 97 C29.802 95.426 32.243 93.024 35.125 90.125 C35.559 89.693 35.559 89.693 37.758 87.508 C39.685 85.352 40.905 83.645 42 81 C36.756 76.744 32.581 74.106 25.699 74.527 C19.943 75.535 14.232 77.384 9 80 Z M43 75 C43.33 75.66 43.66 76.32 44 77 C45.32 76.67 46.64 76.34 48 76 C46.35 75.67 44.7 75.34 43 75 Z M53 78 C52.34 79.32 51.68 80.64 51 82 C53.226 83.774 55.456 85.545 57.688 87.312 C58.313 87.812 58.939 88.312 59.584 88.826 C62.938 91.478 66.258 93.904 70 96 C74 91.25 74 91.25 74 89 C68.157 84.023 61.018 78 53 78 Z M-3 91.75 C-3.327 92.067 -3.327 92.067 -4.984 93.672 C-5.608 94.291 -6.232 94.909 -6.875 95.547 C-7.162 95.83 -7.162 95.83 -8.617 97.261 C-10.139 99.175 -10.592 100.611 -11 103 C-5.746 107.766 -0.498 112.515 5 117 C12.044 113.807 17.786 107.605 23 102 C23 101.34 23 100.68 23 100 C21.366 98.522 19.665 97.117 17.938 95.75 C14.533 93.03 11.155 90.307 7.875 87.438 C2.763 83.103 1.11 87.673 -3 91.75 Z M46 85 C41.05 89.95 36.1 94.9 31 100 C36.625 105.625 36.625 105.625 39.332 107.895 C39.617 108.135 39.617 108.135 41.061 109.35 C41.639 109.832 42.217 110.315 42.812 110.812 C43.41 111.315 44.007 111.817 44.623 112.334 C46.08 113.558 47.54 114.779 49 116 C54.661 111.302 59.852 106.253 65 101 C63.457 96.691 60.166 94.503 56.625 91.875 C56.047 91.433 55.47 90.991 54.875 90.535 C51.981 88.348 49.261 86.631 46 85 Z M77 95 C76.01 95.99 75.02 96.98 74 98 C75.521 101.88 77.861 103.739 81.125 106.25 C82.035 106.956 82.945 107.663 83.883 108.391 C84.581 108.922 85.28 109.453 86 110 C86.33 109.34 86.66 108.68 87 108 C85.926 105.469 85.926 105.469 84.312 102.5 C83.793 101.52 83.274 100.541 82.738 99.531 C80.964 96.948 79.895 96.06 77 95 Z M67.51 104.469 C66.886 105.139 66.263 105.809 65.621 106.5 C64.948 107.222 64.274 107.944 63.58 108.688 C62.873 109.451 62.166 110.214 61.438 111 C60.727 111.763 60.016 112.526 59.283 113.312 C57.52 115.206 55.759 117.102 54 119 C57.246 123.077 60.485 126.461 64.562 129.75 C65.492 130.508 66.421 131.266 67.379 132.047 C69.569 133.679 71.557 134.832 74 136 C76.321 133.737 78.63 131.464 80.938 129.188 C81.597 128.545 82.256 127.902 82.936 127.24 C83.564 126.618 84.192 125.996 84.84 125.355 C85.421 124.785 86.002 124.214 86.601 123.626 C88 122 88 122 89 119 C69.971 102.043 69.971 102.043 67.51 104.469 Z M27 104 C21.72 109.28 16.44 114.56 11 120 C12.753 123.506 13.723 124.933 16.477 127.453 C17.147 128.072 17.817 128.691 18.508 129.328 C19.206 129.962 19.905 130.597 20.625 131.25 C21.331 131.9 22.038 132.549 22.766 133.219 C24.506 134.818 26.251 136.411 28 138 C32.516 134.224 36.813 130.324 40.938 126.125 C41.431 125.627 41.924 125.13 42.432 124.617 C43.623 123.414 44.812 122.207 46 121 C43.172 117.225 40.18 114.317 36.5 111.375 C35.562 110.62 34.623 109.864 33.656 109.086 C31.46 107.361 29.234 105.675 27 104 Z M-16 106 C-19.252 109.661 -20.87 112.813 -22.25 117.5 C-22.585 118.603 -22.92 119.707 -23.266 120.844 C-24.479 126.061 -24.479 126.061 -24 129 C-22.031 131.457 -22.031 131.457 -19.5 133.812 C-19.082 134.208 -19.082 134.208 -16.969 136.207 C-16.319 136.799 -15.669 137.39 -15 138 C-12.068 136.679 -10.013 135.254 -7.766 132.961 C-7.192 132.381 -6.618 131.801 -6.027 131.203 C-5.734 130.901 -5.734 130.901 -4.25 129.375 C-3.648 128.764 -3.046 128.153 -2.426 127.523 C-0.946 126.02 0.528 124.511 2 123 C0.424 119.029 -2.166 116.76 -5.312 113.938 C-6.257 113.08 -7.202 112.223 -8.176 111.34 C-10.692 109.255 -13.15 107.583 -16 106 Z M47.52 125.329 C47.238 125.634 47.238 125.634 45.812 127.176 C45.196 127.839 44.58 128.502 43.945 129.186 C43.303 129.887 42.661 130.589 42 131.312 C41.358 132.003 40.716 132.693 40.055 133.404 C37.474 136.198 35.115 138.827 33 142 C38.957 147.383 44.939 152.734 51 158 C54.755 156.476 56.808 154.227 59.438 151.188 C61.906 148.364 64.345 145.585 67.062 143 C69 141 69 141 69 139 C67.366 137.522 65.665 136.117 63.938 134.75 C60.541 132.041 57.187 129.322 53.938 126.438 C49.961 123.137 49.961 123.137 47.52 125.329 Z M89.58 126.285 C89.313 126.578 89.313 126.578 87.961 128.062 C87.381 128.694 86.801 129.326 86.203 129.977 C85.6 130.644 84.997 131.312 84.375 132 C83.764 132.668 83.153 133.335 82.523 134.023 C81.011 135.678 79.503 137.337 78 139 C81.293 143.146 84.598 146.542 88.75 149.875 C89.714 150.656 90.678 151.437 91.672 152.242 C94 154 94 154 95 154 C95.211 144.104 95.101 134.735 93 125 C91 125 91 125 89.58 126.285 Z M3.282 127.377 C2.976 127.691 2.976 127.691 1.426 129.281 C1.092 129.62 1.092 129.62 -0.596 131.332 C-0.941 131.69 -0.941 131.69 -2.688 133.5 C-3.389 134.215 -4.091 134.931 -4.814 135.668 C-6.55 137.439 -8.278 139.216 -10 141 C-6.573 145.059 -3.117 149.038 0.625 152.812 C1.36 153.561 2.095 154.31 2.852 155.082 C5 157 5 157 9 159 C13.95 153.72 18.9 148.44 24 143 C21.665 138.33 18.851 135.736 15.062 132.25 C14.429 131.648 13.795 131.046 13.143 130.426 C12.53 129.857 11.917 129.289 11.285 128.703 C10.727 128.184 10.169 127.665 9.594 127.13 C7.136 125.387 5.603 125.516 3.282 127.377 Z M-26 135 C-26.33 140.28 -26.66 145.56 -27 151 C-25.886 150.072 -24.773 149.144 -23.625 148.188 C-23.312 147.926 -23.312 147.926 -21.727 146.605 C-20 145 -20 145 -18 142 C-19.143 140.83 -20.289 139.664 -21.438 138.5 C-22.076 137.85 -22.714 137.201 -23.371 136.531 C-25 135 -25 135 -26 135 Z M71.212 145.561 C70.511 146.273 69.809 146.985 69.086 147.719 C68.325 148.486 67.565 149.253 66.781 150.043 C65.987 150.854 65.193 151.665 64.375 152.5 C63.573 153.311 62.771 154.122 61.945 154.957 C59.959 156.967 57.978 158.981 56 161 C59.246 165.077 62.485 168.461 66.562 171.75 C67.492 172.508 68.421 173.266 69.379 174.047 C72 176 72 176 76 178 C81.61 172.39 87.22 166.78 93 161 C91.778 157.334 90.411 156.513 87.375 154.188 C84.168 151.702 81.034 149.195 78 146.5 C73.977 143.147 73.977 143.147 71.212 145.561 Z M28 146 C25.459 148.396 22.946 150.82 20.438 153.25 C20.076 153.591 20.076 153.591 18.244 155.316 C17.904 155.648 17.904 155.648 16.184 157.328 C15.55 157.936 14.916 158.543 14.263 159.169 C13 161 13 161 13.203 163.125 C14.232 165.547 15.531 166.647 17.562 168.312 C17.919 168.61 17.919 168.61 19.723 170.117 C20.474 170.739 21.226 171.36 22 172 C23.504 173.308 25.004 174.62 26.5 175.938 C27.17 176.524 27.841 177.111 28.531 177.715 C29.016 178.139 29.501 178.563 30 179 C37.17 175.791 42.061 168.903 47 163 C45.404 158.868 42.397 156.278 39.188 153.375 C38.666 152.885 38.145 152.395 37.607 151.891 C34.584 149.128 31.918 147.231 28 146 Z M-16.125 148.062 C-16.563 148.521 -17.002 148.98 -17.453 149.453 C-19 151 -19 151 -20.922 152.609 C-21.566 153.171 -22.211 153.733 -22.875 154.312 C-23.491 154.824 -24.107 155.336 -24.742 155.863 C-26.367 158.623 -26.277 160.79 -25.743 163.907 C-24.352 167.824 -21.461 170.267 -18.438 173 C-18.13 173.292 -18.13 173.292 -16.572 174.77 C-15.064 176.196 -13.534 177.601 -12 179 C-6.339 174.302 -1.148 169.253 4 164 C2.623 160.869 1.063 158.863 -1.441 156.547 C-2.107 155.928 -2.773 155.309 -3.459 154.672 C-4.153 154.038 -4.847 153.403 -5.562 152.75 C-6.261 152.1 -6.959 151.451 -7.678 150.781 C-13.442 145.459 -13.442 145.459 -16.125 148.062 Z M49.304 167.469 C48.644 168.139 47.985 168.809 47.305 169.5 C46.947 169.861 46.947 169.861 45.137 171.688 C44.764 172.069 44.764 172.069 42.875 174 C42.121 174.763 41.367 175.526 40.59 176.312 C38.722 178.204 36.859 180.1 35 182 C37.402 185.103 39.797 187.913 42.75 190.5 C43.057 190.773 43.057 190.773 44.609 192.156 C47.893 194.689 51.483 196.802 55 199 C60.28 193.72 65.56 188.44 71 183 C69.723 179.169 67.962 178.116 64.812 175.625 C63.82 174.835 62.827 174.045 61.805 173.23 C60.879 172.494 59.954 171.758 59 171 C57.809 169.984 56.62 168.964 55.438 167.938 C51.957 165.171 51.957 165.171 49.304 167.469 Z M5.482 168.146 C4.959 168.671 4.437 169.197 3.898 169.738 C3.326 170.311 2.754 170.884 2.164 171.475 C1.574 172.081 0.983 172.688 0.375 173.312 C-0.223 173.907 -0.821 174.502 -1.438 175.115 C-5.866 179.599 -5.866 179.599 -7 183 C-2.996 187.1 1.058 191.154 5.25 195.062 C5.874 195.652 6.498 196.241 7.141 196.848 C9 198 9 198 10.922 197.949 C13.759 196.653 15.708 194.861 18 192.75 C18.846 191.982 19.691 191.213 20.562 190.422 C22.924 188.075 24.977 185.641 27 183 C22.637 178.546 18.245 174.128 13.625 169.938 C12.999 169.369 12.372 168.801 11.727 168.215 C9.386 166.568 7.815 166.385 5.482 168.146 Z M88.496 172.406 C87.474 173.435 86.455 174.466 85.438 175.5 C84.917 176.025 84.397 176.549 83.861 177.09 C82.572 178.391 81.286 179.695 80 181 C81.049 183.622 81.649 184.794 84.125 186.25 C84.744 186.498 85.363 186.745 86 187 C89.089 181.335 91.577 176.491 92 170 C91 170 91 170 88.496 172.406 Z M-20 179 C-19.67 180.65 -19.34 182.3 -19 184 C-18.01 184 -17.02 184 -16 184 C-16.312 182.062 -16.312 182.062 -17 180 C-17.99 179.67 -18.98 179.34 -20 179 Z M72.926 188.012 C72.063 188.895 71.201 189.778 70.312 190.688 C66.683 194.359 63.05 197.803 59 201 C60.37 204.161 60.989 204.993 64 207 C68.978 206.915 71.791 203.9 75.188 200.625 C75.721 200.13 76.254 199.635 76.803 199.125 C79.207 196.863 81.162 194.757 83 192 C81.857 190.997 80.71 189.998 79.562 189 C78.924 188.443 78.286 187.886 77.629 187.312 C75.125 185.295 75.368 185.643 72.926 188.012 Z M-12 187 C-12.495 187.66 -12.495 187.66 -15 191 C-5.15 202.503 -5.15 202.503 1 206 C3.074 205.801 3.074 205.801 5 205 C5.66 204.01 6.32 203.02 7 202 C4.589 199.868 2.17 197.746 -0.25 195.625 C-0.932 195.022 -1.614 194.418 -2.316 193.797 C-2.98 193.217 -3.644 192.637 -4.328 192.039 C-4.936 191.505 -5.543 190.971 -6.169 190.42 C-8.029 188.977 -9.864 187.977 -12 187 Z M30 187 C25.05 191.95 20.1 196.9 15 202 C16.65 203.65 18.3 205.3 20 207 C20.611 207.666 21.222 208.333 21.852 209.02 C25.362 212.568 28.274 214.586 33.312 215.125 C39.503 214.796 42.663 211.241 46.648 206.915 C47.785 205.627 48.896 204.316 50 203 C46.729 199.7 43.419 196.459 40 193.312 C39.588 192.929 39.588 192.929 37.5 190.988 C35 189 35 189 30 187 Z M11 206 C10.505 206.66 10.505 206.66 8 210 C12.431 212.092 12.431 212.092 15.312 211.625 C15.869 211.419 16.426 211.213 17 211 C15.02 209.35 13.04 207.7 11 206 Z M51.613 208.312 C51.184 208.869 50.755 209.426 50.312 210 C49.549 210.99 48.786 211.98 48 213 C52.056 212.532 55.466 212.12 59 210 C57.688 208.5 57.688 208.5 56 207 C53 207 53 207 51.613 208.312 Z " fill="#000000" transform="translate(61,29)" />
  </g>
</svg>
