<?xml version="1.0" encoding="UTF-8" standalone="no"?>
<svg xmlns="http://www.w3.org/2000/svg" fill-rule="nonzero" clip-rule="evenodd" stroke-miterlimit="10" style="fill-rule:nonzero;clip-rule:evenodd;stroke-linecap:round;stroke-linejoin:round;"
     viewBox="38.9 19.3 189.3 205.6" xml:space="preserve">
<g opacity="1">
<path d="M165 31.5C171.675 31.3337 178.342 31.5004 185 32C186.38 48.5786 180.38 61.9119 167 72C190.879 74.8744 205.712 88.041 211.5 111.5C216.265 149.111 204.431 180.278 176 205C167.833 210.612 158.833 212.946 149 212C143.491 210.039 137.824 208.872 132 208.5C124.462 209.593 116.962 210.926 109.5 212.5C98.1312 210.314 88.4646 204.981 80.5 196.5C59.9709 173.399 50.9709 146.399 53.5 115.5C57.2972 96.0343 68.1305 82.201 86 74C93.6016 72.4772 101.268 72.1439 109 73C114.885 75.0185 120.885 76.5185 127 77.5C124.091 66.017 117.925 56.6836 108.5 49.5C108.645 45.3291 110.811 42.4957 115 41C120.438 40.0675 124.272 42.2342 126.5 47.5C129.694 52.5545 132.361 57.8878 134.5 63.5C138.379 46.7891 148.545 36.1225 165 31.5Z" fill="#181818" fill-rule="evenodd" opacity="1" stroke="none"/>
<path d="M89 75.5C95.3421 75.3338 101.675 75.5005 108 76C114.612 77.8702 121.278 79.5369 128 81C128.923 83.0408 129.256 85.2075 129 87.5C123.814 87.4942 118.98 86.1609 114.5 83.5C112.892 83.9739 112.726 84.6406 114 85.5C127.12 92.2885 140.12 92.1218 153 85C154.206 83.9823 153.873 83.4823 152 83.5C147.205 85.6549 142.205 86.9883 137 87.5C136.744 85.2075 137.077 83.0408 138 81C144.377 79.4892 150.71 77.8226 157 76C183.496 73.4861 200.663 84.9861 208.5 110.5C212.866 140.706 205.532 167.706 186.5 191.5C178.066 202.217 167.066 208.217 153.5 209.5C146.242 207.747 138.908 206.414 131.5 205.5C125.821 205.838 120.321 207.005 115 209C105.488 210.08 97.1547 207.414 90 201C60.7643 173.961 50.9309 141.127 60.5 102.5C66.3326 89.4975 75.8326 80.4975 89 75.5Z" fill="#f8f8f8" fill-rule="evenodd" opacity="1" stroke="none"/>
<path d="M119 44.5C120.517 44.5106 121.684 45.1772 122.5 46.5C131.614 59.0114 135.781 73.0114 135 88.5C133.678 88.67 132.511 88.3366 131.5 87.5C131.036 72.0736 124.87 59.5736 113 50C115.685 48.839 117.685 47.0056 119 44.5Z" fill="#e7e7e7" fill-rule="evenodd" opacity="1" stroke="none"/>
<path d="M116 42.5C118.427 43.2789 118.427 44.4455 116 46C114.456 47.1871 112.789 47.5205 111 47C112.74 45.483 114.406 43.983 116 42.5Z" fill="#bfc1c1" fill-rule="evenodd" opacity="1" stroke="none"/>
<path d="M170 33.5C174.333 33.5 178.667 33.5 183 33.5C181.844 61.3286 167.511 74.9953 140 74.5C146.44 65.2251 154.107 57.0584 163 50C152.731 55.59 144.231 63.4233 137.5 73.5C135.77 59.1273 140.937 47.9607 153 40C158.52 37.11 164.186 34.9433 170 33.5Z" fill="#f1f1f1" fill-rule="evenodd" opacity="1" stroke="none"/>
</g>
</svg>