<?xml version="1.0" encoding="UTF-8"?>
<svg xmlns="http://www.w3.org/2000/svg" version="1.1" viewBox="417.90 38.33 135.77 127.84" width="135.77" height="127.84" style="fill-rule:nonzero;clip-rule:evenodd;stroke-linecap:round;stroke-linejoin:round;" xml:space="preserve">
<g opacity="1">
<path d="M428.5 130.5C432.226 130.823 435.893 130.489 439.5 129.5C439.376 128.893 439.043 128.56 438.5 128.5C437.68 124.802 439.013 122.469 442.5 121.5C448.394 124.558 453.894 128.225 459 132.5C470.09 130.013 481.256 128.013 492.5 126.5C492.35 118.401 493.183 110.401 495 102.5C498.214 90.53 501.214 78.53 504 66.5C510.671 50.1666 522.504 44.3332 539.5 49C541.286 49.7845 542.786 50.9512 544 52.5C545.408 56.0569 546.408 59.7235 547 63.5C547.667 72.8333 547.667 82.1667 547 91.5C546.542 102.146 541.209 108.48 531 110.5C528.607 120.014 525.607 129.347 522 138.5C516.663 149.431 507.829 155.264 495.5 156C483.3 156.804 471.133 156.637 459 155.5C450.125 159.003 440.959 160.169 431.5 159C430.069 158.535 428.903 157.701 428 156.5C427.664 153.462 426.831 150.628 425.5 148C425.585 146.893 425.919 145.893 426.5 145C423.9 142.541 423.9 140.041 426.5 137.5C424.846 134.442 425.513 132.108 428.5 130.5Z" fill="#1b1b1b" fill-rule="evenodd" opacity="1" stroke="none" />
<path d="M523.5 49.5C529.94 48.7904 535.94 49.957 541.5 53C546.278 67.9631 546.778 83.1298 543 98.5C541.171 103.498 537.671 106.498 532.5 107.5C532.763 102.947 533.429 98.4472 534.5 94C534.167 92.8333 533.833 91.6667 533.5 90.5C530.07 107.213 525.237 123.546 519 139.5C516.341 145.492 511.841 149.325 505.5 151C490.649 154.433 475.649 155.266 460.5 153.5C450.676 156.213 440.676 157.046 430.5 156C429.167 155 429.167 154 430.5 153C443.51 151.834 443.176 150.834 429.5 150C427.993 149.163 427.493 147.996 428 146.5C443.312 144.948 443.145 143.782 427.5 143C426.549 142.282 426.383 141.449 427 140.5C431.066 139.536 435.233 139.203 439.5 139.5C439.5 138.5 439.5 137.5 439.5 136.5C435.818 136.665 432.152 136.499 428.5 136C427.167 135 427.167 134 428.5 133C434.196 132.83 439.862 132.33 445.5 131.5C442.44 129.981 440.94 127.648 441 124.5C441.414 124.043 441.914 123.709 442.5 123.5C447.591 126.423 452.258 129.923 456.5 134C457.667 134.167 458.833 134.333 460 134.5C471.721 131.789 483.554 129.789 495.5 128.5C495.298 111.641 498.131 95.3079 504 79.5C504.356 65.3442 510.856 55.3442 523.5 49.5Z" fill="#f5f5f5" fill-rule="evenodd" opacity="1" stroke="none" />
<path d="M438.5 128.5C439.043 128.56 439.376 128.893 439.5 129.5C435.893 130.489 432.226 130.823 428.5 130.5C431.833 129.833 435.167 129.167 438.5 128.5Z" fill="#646665" fill-rule="evenodd" opacity="1" stroke="none" />
</g>

</svg>