<?xml version="1.0" encoding="UTF-8"?>
<svg xmlns="http://www.w3.org/2000/svg" version="1.1" viewBox="28.82 51.19 166.98 113.26" width="166.98" height="113.26" style="fill-rule:nonzero;clip-rule:evenodd;stroke-linecap:round;stroke-linejoin:round;" xml:space="preserve">
<g opacity="1">
<path d="M102.5 57.5C114.539 57.1918 126.539 57.6918 138.5 59C146.451 61.2854 152.285 66.1187 156 73.5C159.275 80.3839 162.275 87.3839 165 94.5C182.3 100.909 189.8 113.409 187.5 132C187.902 136.2 186.235 139.2 182.5 141C178.176 141.87 173.842 142.703 169.5 143.5C165.103 153.697 157.437 157.53 146.5 155C140.132 153.136 136.465 148.97 135.5 142.5C122.15 142.167 108.817 142.501 95.5 143.5C89.653 155.284 80.653 158.451 68.5 153C65.2017 150.536 62.8684 147.37 61.5 143.5C55.5275 142.67 49.5275 142.17 43.5 142C38.964 140.276 36.6306 136.943 36.5 132C34.816 116.66 40.816 105.66 54.5 99C60.4336 97.1788 66.4336 95.6788 72.5 94.5C75.3896 81.5405 81.7229 70.7072 91.5 62C95.1574 60.1776 98.8241 58.6776 102.5 57.5Z" fill="#1d1d1d" fill-rule="evenodd" opacity="1" stroke="none" />
<path d="M145.5 122.5C162.843 121.003 169.676 128.669 166 145.5C159.991 153.504 152.491 155.337 143.5 151C136.086 144.705 134.586 137.205 139 128.5C141.063 126.266 143.229 124.266 145.5 122.5Z" fill="#ececec" fill-rule="evenodd" opacity="1" stroke="none" />
<path d="M180.5 113.5C182.124 113.36 183.29 114.027 184 115.5C184.498 118.817 184.665 122.15 184.5 125.5C182.278 125.822 180.444 125.155 179 123.5C178.037 119.851 178.537 116.518 180.5 113.5Z" fill="#e5e6e5" fill-rule="evenodd" opacity="1" stroke="none" />
<path d="M41.5 114.5C43.5273 114.338 45.5273 114.505 47.5 115C50.5994 122.359 48.2661 125.859 40.5 125.5C40.244 121.731 40.5773 118.064 41.5 114.5Z" fill="#eeefef" fill-rule="evenodd" opacity="1" stroke="none" />
<path d="M123.5 65.5C122.883 65.6107 122.383 65.944 122 66.5C121.333 76.5 121.333 86.5 122 96.5C122.5 97 123 97.5 123.5 98C133.91 98.8075 144.243 98.6408 154.5 97.5C159.073 97.12 163.073 98.4533 166.5 101.5C167.182 100.757 167.849 100.091 168.5 99.5C174.674 101.669 179.341 105.669 182.5 111.5C180.433 112.134 178.6 113.134 177 114.5C176.333 117.833 176.333 121.167 177 124.5C178.812 127.821 181.645 129.155 185.5 128.5C185.893 131.93 185.227 135.096 183.5 138C179.3 139.367 174.967 139.867 170.5 139.5C169.583 124.424 161.583 117.924 146.5 120C140.082 122.911 136.082 127.744 134.5 134.5C133.549 135.919 133.216 137.585 133.5 139.5C121.167 139.5 108.833 139.5 96.5 139.5C96.5042 127.501 90.5042 120.835 78.5 119.5C66.5753 120.761 60.5753 127.428 60.5 139.5C54.4908 139.666 48.4908 139.499 42.5 139C39.1295 136.303 37.7962 132.803 38.5 128.5C48.7119 129.119 52.5452 124.452 50 114.5C48.2002 112.683 46.0336 111.516 43.5 111C47.3282 105.853 52.3282 102.186 58.5 100C63.4468 98.4161 68.4468 97.2495 73.5 96.5C74.5832 96.5394 75.5832 96.8728 76.5 97.5C77.5237 96.1468 78.857 95.4802 80.5 95.5C81.0577 96.7899 82.0577 97.6232 83.5 98C94.2653 98.9522 104.932 98.6188 115.5 97C116.486 87.2496 116.819 77.4163 116.5 67.5C117.171 66.1529 117.171 64.9862 116.5 64C120.833 63.3333 125.167 63.3333 129.5 64C127.292 64.1909 125.292 64.6909 123.5 65.5Z" fill="#f5f5f5" fill-rule="evenodd" opacity="1" stroke="none" />
<path d="M104.5 103.5C107.833 103.5 111.167 103.5 114.5 103.5C114.5 104.833 114.5 106.167 114.5 107.5C111.15 107.665 107.817 107.498 104.5 107C103.316 105.855 103.316 104.688 104.5 103.5Z" fill="#212121" fill-rule="evenodd" opacity="1" stroke="none" />
<path d="M116.5 67.5C116.819 77.4163 116.486 87.2496 115.5 97C104.932 98.6188 94.2653 98.9522 83.5 98C82.0577 97.6232 81.0577 96.7899 80.5 95.5C82.3524 83.9538 87.6857 74.4538 96.5 67C103.366 64.9011 110.033 65.0677 116.5 67.5Z" fill="#232323" fill-rule="evenodd" opacity="1" stroke="none" />
<path d="M123.5 65.5C132.06 63.9613 139.56 65.9613 146 71.5C149.803 77.4392 152.803 83.7726 155 90.5C155.703 92.9291 155.537 95.2625 154.5 97.5C144.243 98.6408 133.91 98.8075 123.5 98C123 97.5 122.5 97 122 96.5C121.333 86.5 121.333 76.5 122 66.5C122.383 65.944 122.883 65.6107 123.5 65.5Z" fill="#151515" fill-rule="evenodd" opacity="1" stroke="none" />
<path d="M168.5 99.5C167.849 100.091 167.182 100.757 166.5 101.5C163.073 98.4533 159.073 97.12 154.5 97.5C155.537 95.2625 155.703 92.9291 155 90.5C152.803 83.7726 149.803 77.4392 146 71.5C139.56 65.9613 132.06 63.9613 123.5 65.5C125.292 64.6909 127.292 64.1909 129.5 64C125.167 63.3333 120.833 63.3333 116.5 64C117.171 64.9862 117.171 66.1529 116.5 67.5C110.033 65.0677 103.366 64.9011 96.5 67C87.6857 74.4538 82.3524 83.9538 80.5 95.5C78.857 95.4802 77.5237 96.1468 76.5 97.5C75.5832 96.8728 74.5832 96.5394 73.5 96.5C75.9784 88.9078 79.145 81.5744 83 74.5C87.2301 67.2597 93.3968 62.7597 101.5 61C113.167 60.3333 124.833 60.3333 136.5 61C142.412 62.538 147.245 65.7047 151 70.5C155.802 78.4371 159.802 86.7705 163 95.5C164.812 96.9771 166.645 98.3104 168.5 99.5Z" fill="#e6e6e6" fill-rule="evenodd" opacity="1" stroke="none" />
<path d="M99.5 67.5C104.167 67.5 108.833 67.5 113.5 67.5C113.5 77.1667 113.5 86.8333 113.5 96.5C103.828 96.6665 94.1609 96.4998 84.5 96C83.6433 95.3109 82.9767 94.4776 82.5 93.5C85.2239 82.6696 90.8906 74.0029 99.5 67.5Z" fill="#f2f2f2" fill-rule="evenodd" opacity="1" stroke="none" />
<path d="M123.5 67.5C129.732 66.9386 135.732 67.772 141.5 70C147.948 77.3901 151.781 85.8901 153 95.5C143.578 96.6509 134.078 96.8176 124.5 96C123.515 86.5834 123.182 77.0834 123.5 67.5Z" fill="#f2f2f2" fill-rule="evenodd" opacity="1" stroke="none" />
<path d="M72.5 122.5C82.8839 120.273 90.0506 123.94 94 133.5C94.3155 149.185 86.8155 155.352 71.5 152C59.2869 141.767 59.6202 131.934 72.5 122.5Z" fill="#ececec" fill-rule="evenodd" opacity="1" stroke="none" />
<path d="M75.5 128.5C84.006 128.17 87.8393 132.17 87 140.5C82.47 147.588 77.1367 148.255 71 142.5C69.7496 139.923 69.4163 137.257 70 134.5C71.3597 131.977 73.193 129.977 75.5 128.5Z" fill="#212222" fill-rule="evenodd" opacity="1" stroke="none" />
<path d="M75.5 131.5C83.5633 130.396 86.3967 133.73 84 141.5C80.3333 145.5 76.6667 145.5 73 141.5C71.8613 137.579 72.6946 134.246 75.5 131.5Z" fill="#f0f0f0" fill-rule="evenodd" opacity="1" stroke="none" />
<path d="M134.5 134.5C134.5 136.5 134.5 138.5 134.5 140.5C121.656 140.829 108.989 140.495 96.5 139.5C108.833 139.5 121.167 139.5 133.5 139.5C133.216 137.585 133.549 135.919 134.5 134.5Z" fill="#525252" fill-rule="evenodd" opacity="1" stroke="none" />
<path d="M149.5 128.5C158.015 128.844 161.515 133.177 160 141.5C157.459 146.069 153.625 147.569 148.5 146C144.061 143.024 142.561 138.857 144 133.5C145.73 131.598 147.563 129.931 149.5 128.5Z" fill="#191919" fill-rule="evenodd" opacity="1" stroke="none" />
<path d="M148.5 131.5C157.745 130.899 160.411 134.732 156.5 143C149.388 145.554 145.888 143.054 146 135.5C146.662 134.016 147.496 132.683 148.5 131.5Z" fill="#efefef" fill-rule="evenodd" opacity="1" stroke="none" />
</g>

</svg>