<?xml version="1.0" encoding="UTF-8" standalone="no"?>
<svg xmlns="http://www.w3.org/2000/svg" fill-rule="nonzero" clip-rule="evenodd" stroke-miterlimit="10" style="fill-rule:nonzero;clip-rule:evenodd;stroke-linecap:round;stroke-linejoin:round;"
     viewBox="263.5 31.2 211.6 190.4" xml:space="preserve">
<g opacity="1">
<path d="M435.5 43.5C440.58 43.2497 445.58 43.7497 450.5 45C451.333 45.8333 452.167 46.6667 453 47.5C452.991 51.5537 452.324 55.5537 451 59.5C450.333 64.1667 450.333 68.8333 451 73.5C453.953 79.8072 456.953 86.1406 460 92.5C463.075 108.796 461.075 124.463 454 139.5C431.26 183.813 394.76 206.813 344.5 208.5C316.563 209.609 294.063 199.276 277 177.5C275.491 171.716 276.991 166.883 281.5 163C304.096 158.675 326.763 154.675 349.5 151C373.386 144.432 392.22 130.932 406 110.5C410.333 102.5 414.667 94.5 419 86.5C421.964 82.5342 425.297 78.8675 429 75.5C431.504 66.2831 432.171 56.9498 431 47.5C432.25 45.8065 433.75 44.4732 435.5 43.5Z" fill="#181818" fill-rule="evenodd" opacity="1" stroke="none"/>
<path d="M435.5 52.5C434.833 57.8333 434.167 63.1667 433.5 68.5C433.171 62.7945 433.505 57.1278 434.5 51.5C435.107 51.6236 435.44 51.9569 435.5 52.5Z" fill="#777577" fill-rule="evenodd" opacity="1" stroke="none"/>
<path d="M435.5 52.5C440.167 52.5 444.833 52.5 449.5 52.5C447.305 61.1391 447.138 69.8058 449 78.5C457.313 89.0834 460.313 101.083 458 114.5C451.49 148.68 432.99 174.18 402.5 191C372.984 206.479 342.318 209.479 310.5 200C300.048 195.447 291.048 188.947 283.5 180.5C287.187 176.015 288.187 171.015 286.5 165.5C308.763 160.941 331.097 156.774 353.5 153C375.207 146.278 392.707 133.778 406 115.5C411.254 106.661 416.254 97.6611 421 88.5C423.964 84.5342 427.297 80.8675 431 77.5C432.43 74.6473 433.263 71.6473 433.5 68.5C434.167 63.1667 434.833 57.8333 435.5 52.5Z" fill="#f6f6f6" fill-rule="evenodd" opacity="1" stroke="none"/>
<path d="M434.5 46.5C438.846 46.3343 443.179 46.501 447.5 47C448.672 47.4186 449.672 48.0853 450.5 49C444.74 51.1545 439.074 50.9878 433.5 48.5C433.863 47.8165 434.196 47.1499 434.5 46.5Z" fill="#e3e4e3" fill-rule="evenodd" opacity="1" stroke="none"/>
<path d="M341.5 178.5C339.901 178.768 338.568 178.434 337.5 177.5C392.402 170.763 425.902 140.429 438 86.5C432.157 127.001 410.324 155.168 372.5 171C362.581 175.23 352.247 177.73 341.5 178.5Z" fill="#232323" fill-rule="evenodd" opacity="1" stroke="none"/>
<path d="M282.5 165.5C283.117 165.611 283.617 165.944 284 166.5C284.804 170.204 284.304 173.704 282.5 177C281.552 177.483 280.552 177.649 279.5 177.5C278.885 173.009 279.885 169.009 282.5 165.5Z" fill="#dddede" fill-rule="evenodd" opacity="1" stroke="none"/>
<path d="M291.5 174.5C291.735 173.903 292.235 173.57 293 173.5C296.301 174.445 299.467 175.611 302.5 177C298.737 176.797 295.07 175.964 291.5 174.5Z" fill="#414143" fill-rule="evenodd" opacity="1" stroke="none"/>
<path d="M337.5 177.5C338.568 178.434 339.901 178.768 341.5 178.5C331.992 179.823 322.325 179.823 312.5 178.5C320.807 177.502 329.14 177.169 337.5 177.5Z" fill="#464646" fill-rule="evenodd" opacity="1" stroke="none"/>
</g>
</svg>