<?xml version="1.0" encoding="UTF-8"?>
<svg xmlns="http://www.w3.org/2000/svg" version="1.1" viewBox="582.00 21.11 134.35 153.72" width="134.35" height="153.72" style="fill-rule:nonzero;clip-rule:evenodd;stroke-linecap:round;stroke-linejoin:round;" xml:space="preserve">
<g opacity="1">
<path d="M633.5 28.5C640.387 27.5922 646.72 28.9256 652.5 32.5C654.606 31.5705 656.606 30.4038 658.5 29C666.136 27.1055 672.636 28.9388 678 34.5C679.707 36.9088 680.54 39.5755 680.5 42.5C691.002 42.6686 696.002 48.002 695.5 58.5C704.092 61.3304 707.925 67.3304 707 76.5C706.027 79.7789 704.527 82.7789 702.5 85.5C709.517 92.8253 710.351 100.825 705 109.5C701.805 113.51 697.638 115.51 692.5 115.5C691.087 124.577 685.754 129.577 676.5 130.5C673.116 130.227 669.95 129.227 667 127.5C662.454 141.067 664.287 154.067 672.5 166.5C672.291 167.086 671.957 167.586 671.5 168C658.924 168.821 646.424 168.655 634 167.5C635.332 164.52 636.999 161.52 639 158.5C642.849 148.254 643.349 137.921 640.5 127.5C631.736 132.624 624.402 131.124 618.5 123C602.683 121.538 596.683 113.205 600.5 98C588.004 86.1476 588.67 75.1476 602.5 65C600.457 49.2054 607.457 41.3721 623.5 41.5C624.599 35.4064 627.932 31.073 633.5 28.5Z" fill="#1c1c1c" fill-rule="evenodd" opacity="1" stroke="none" />
<path d="M635.5 30.5C642.291 29.3987 647.957 31.3987 652.5 36.5C659.335 29.2788 666.835 28.6121 675 34.5C677.584 37.3356 678.751 40.6689 678.5 44.5C689.713 44.3677 694.379 49.701 692.5 60.5C704.593 63.7014 707.759 71.0347 702 82.5C700.833 83.6667 699.667 84.8333 698.5 86C707.818 92.8963 708.818 100.896 701.5 110C698.386 112.854 694.719 114.021 690.5 113.5C689.239 124.818 682.906 129.318 671.5 127C665.876 125.585 665.043 122.751 669 118.5C670.745 117.044 672.578 115.711 674.5 114.5C674.167 114.167 673.833 113.833 673.5 113.5C663.389 117.362 657.222 114.029 655 103.5C647.333 114.167 639.667 114.167 632 103.5C631.5 104 631 104.5 630.5 105C635.985 110.799 639.151 117.632 640 125.5C630.949 131.015 624.449 129.015 620.5 119.5C603.642 119.915 598.309 112.415 604.5 97C595.179 92.0439 592.345 84.5439 596 74.5C598.866 70.7755 602.366 68.1088 606.5 66.5C602.278 56.7771 604.944 49.6105 614.5 45C618.203 44.4213 621.869 44.588 625.5 45.5C625.649 38.355 628.983 33.355 635.5 30.5Z" fill="#f7f7f7" fill-rule="evenodd" opacity="1" stroke="none" />
<path d="M657.5 114.5C659.332 115.14 659.665 116.14 658.5 117.5C657.614 116.675 657.281 115.675 657.5 114.5Z" fill="#cdcdcd" fill-rule="evenodd" opacity="1" stroke="none" />
<path d="M668.5 164.5C658.347 165.494 648.014 165.828 637.5 165.5C642.991 157.398 645.325 148.398 644.5 138.5C645.05 130.033 643.383 122.033 639.5 114.5C641.074 113.369 642.741 113.202 644.5 114C647.581 120.133 649.414 119.633 650 112.5C651.019 111.313 652.186 110.313 653.5 109.5C655.741 112.793 657.074 116.46 657.5 120.5C659.991 117.584 662.991 116.918 666.5 118.5C661.19 129.348 660.023 140.682 663 152.5C664.363 156.775 666.197 160.775 668.5 164.5Z" fill="#f1f1f1" fill-rule="evenodd" opacity="1" stroke="none" />
<path d="M668.5 164.5C669.043 164.56 669.376 164.893 669.5 165.5C658.674 166.823 648.007 166.823 637.5 165.5C648.014 165.828 658.347 165.494 668.5 164.5Z" fill="#3c3d3c" fill-rule="evenodd" opacity="1" stroke="none" />
</g>

</svg>