<?xml version="1.0" encoding="UTF-8"?>
<svg xmlns="http://www.w3.org/2000/svg" version="1.1" viewBox="752.33 39.87 166.33 139.94" width="166.33" height="139.94" style="fill-rule:nonzero;clip-rule:evenodd;stroke-linecap:round;stroke-linejoin:round;" xml:space="preserve">
<g opacity="1">
<path d="M823.5 46.5C826.97 45.8748 829.804 46.8748 832 49.5C832.224 62.1988 832.724 74.8654 833.5 87.5C839.432 88.6389 845.432 89.4723 851.5 90C864.418 94.1943 877.418 98.1943 890.5 102C893.855 103.118 897.022 104.618 900 106.5C903.132 100.756 907.132 100.089 912 104.5C912.667 121.167 912.667 137.833 912 154.5C911.5 155.667 910.667 156.5 909.5 157C907.167 157.667 904.833 157.667 902.5 157C900.737 153.757 900.071 150.257 900.5 146.5C884.29 151.302 867.957 155.636 851.5 159.5C851.665 163.182 851.499 166.848 851 170.5C849.704 172.815 847.704 173.815 845 173.5C842.966 173.646 841.299 172.98 840 171.5C839.501 167.514 839.334 163.514 839.5 159.5C823.175 153.78 806.842 147.946 790.5 142C788.833 141 787.5 139.667 786.5 138C781.538 136.068 776.538 134.235 771.5 132.5C770.673 136.459 770.173 140.459 770 144.5C766.333 147.167 762.667 147.167 759 144.5C758.333 115.5 758.333 86.5 759 57.5C761.559 54.6508 764.726 53.8175 768.5 55C770.002 57.5741 771.002 60.4074 771.5 63.5C786.78 54.1092 803.113 51.4425 820.5 55.5C819.925 51.8453 820.925 48.8453 823.5 46.5Z" fill="#1f1f1f" fill-rule="evenodd" opacity="1" stroke="none" />
<path d="M841.5 91.5C859.368 95.0704 877.035 99.9037 894.5 106C896.332 106.748 897.999 107.748 899.5 109C880.874 107.577 864.707 113.077 851 125.5C847.254 121.607 843.588 121.607 840 125.5C839.5 135.828 839.334 146.161 839.5 156.5C822.999 151.255 806.665 145.421 790.5 139C789.352 130.912 789.185 122.746 790 114.5C790.883 111.898 792.383 109.731 794.5 108C798.4 104.917 802.734 102.584 807.5 101C818.79 97.1812 830.124 94.0145 841.5 91.5Z" fill="#f6f6f6" fill-rule="evenodd" opacity="1" stroke="none" />
<path d="M833.5 89.5C838.021 89.3262 838.355 89.9929 834.5 91.5C833.702 91.0431 833.369 90.3764 833.5 89.5Z" fill="#cdcccc" fill-rule="evenodd" opacity="1" stroke="none" />
<path d="M771.5 66.5C771.172 78.3453 771.505 90.012 772.5 101.5C772.44 102.043 772.107 102.376 771.5 102.5C770.175 90.3398 770.175 78.3398 771.5 66.5Z" fill="#bdbbbd" fill-rule="evenodd" opacity="1" stroke="none" />
<path d="M818.5 69.5C819.833 69.5 821.167 69.5 822.5 69.5C822.343 70.8734 822.51 72.2068 823 73.5C828.557 78.6148 831.391 84.9481 831.5 92.5C818.1 94.8006 805.267 98.8006 793 104.5C788.529 103.042 784.863 100.376 782 96.5C779.723 90.9086 777.889 85.2419 776.5 79.5C778.199 79.6602 779.866 79.4935 781.5 79C793.13 72.5807 805.463 69.414 818.5 69.5Z" fill="#f4f4f4" fill-rule="evenodd" opacity="1" stroke="none" />
<path d="M829.5 50.5C830.658 59.6575 830.824 68.9908 830 78.5C829.283 77.9558 828.783 77.2891 828.5 76.5C829.493 68.0161 829.826 59.3494 829.5 50.5Z" fill="#9ea09f" fill-rule="evenodd" opacity="1" stroke="none" />
<path d="M829.5 50.5C829.826 59.3494 829.493 68.0161 828.5 76.5C827.542 75.0384 826.376 73.7051 825 72.5C824.724 66.9513 822.224 65.4513 817.5 68C804.434 66.9331 792.434 69.9331 781.5 77C775.92 76.0629 773.754 78.2296 775 83.5C775.796 88.8006 777.63 93.8006 780.5 98.5C777.974 99.8972 775.308 100.897 772.5 101.5C771.505 90.012 771.172 78.3453 771.5 66.5C786.948 56.4334 803.614 53.7668 821.5 58.5C822.318 55.8929 822.818 53.2263 823 50.5C825.293 47.8661 827.46 47.8661 829.5 50.5Z" fill="#f1f1f1" fill-rule="evenodd" opacity="1" stroke="none" />
<path d="M762.5 56.5C764.467 56.2606 766.301 56.5939 768 57.5C768.085 84.0115 768.251 110.511 768.5 137C768.167 139.167 767.833 141.333 767.5 143.5C765.629 144.767 763.796 144.767 762 143.5C761.176 114.428 761.342 85.4281 762.5 56.5Z" fill="#ececec" fill-rule="evenodd" opacity="1" stroke="none" />
<path d="M778.5 101.5C781.862 101.07 784.695 102.07 787 104.5C787.483 105.448 787.649 106.448 787.5 107.5C788.873 107.343 790.207 107.51 791.5 108C790.044 109.745 788.711 111.578 787.5 113.5C781.957 112.062 776.624 110.062 771.5 107.5C770.167 106.833 770.167 106.167 771.5 105.5C773.765 103.873 776.099 102.539 778.5 101.5Z" fill="#e9e9ea" fill-rule="evenodd" opacity="1" stroke="none" />
<path d="M904.5 103.5C906.144 103.286 907.644 103.62 909 104.5C909.667 121.167 909.667 137.833 909 154.5C907.333 155.833 905.667 155.833 904 154.5C903.182 137.426 903.349 120.426 904.5 103.5Z" fill="#f6f6f6" fill-rule="evenodd" opacity="1" stroke="none" />
<path d="M883.5 111.5C889.203 111.375 894.87 111.708 900.5 112.5C900.5 123.167 900.5 133.833 900.5 144.5C884.216 148.958 867.882 153.291 851.5 157.5C851.334 147.828 851.5 138.161 852 128.5C860.781 119.528 871.281 113.861 883.5 111.5Z" fill="#f6f6f6" fill-rule="evenodd" opacity="1" stroke="none" />
<path d="M769.5 109.5C775.312 112.073 781.312 114.073 787.5 115.5C786.89 121.815 786.557 128.149 786.5 134.5C780.763 133.032 775.097 131.365 769.5 129.5C769.5 122.833 769.5 116.167 769.5 109.5Z" fill="#ededee" fill-rule="evenodd" opacity="1" stroke="none" />
<path d="M843.5 125.5C845.722 125.178 847.556 125.845 849 127.5C849.667 141.5 849.667 155.5 849 169.5C846.667 172.167 844.333 172.167 842 169.5C841.333 155.5 841.333 141.5 842 127.5C842.717 126.956 843.217 126.289 843.5 125.5Z" fill="#dadada" fill-rule="evenodd" opacity="1" stroke="none" />
</g>

</svg>