<?xml version="1.0" encoding="UTF-8"?>
<svg xmlns="http://www.w3.org/2000/svg" version="1.1" viewBox="960.11 37.29 123.10 122.38" width="123.10" height="122.38" style="fill-rule:nonzero;clip-rule:evenodd;stroke-linecap:round;stroke-linejoin:round;" xml:space="preserve">
<g opacity="1">
<path d="M1023.5 105.5C1025.38 106.341 1027.38 106.675 1029.5 106.5C1029.03 123.147 1021.03 134.147 1005.5 139.5C1003.69 136.556 1001.86 133.556 1000 130.5C999.047 127.568 998.547 124.568 998.5 121.5C1003.55 121.236 1008.22 119.736 1012.5 117C1016.45 113.224 1020.11 109.391 1023.5 105.5Z" fill="#f1f1f1" fill-rule="evenodd" opacity="1" stroke="none" />
<path d="M1052.5 120.5C1050.9 119.713 1050.23 118.38 1050.5 116.5C1057.61 116.52 1063.78 114.187 1069 109.5C1072.87 103.559 1072.04 98.3927 1066.5 94C1062.96 92.4961 1059.29 92.1628 1055.5 93C1051.06 98.9542 1045.39 103.121 1038.5 105.5C1038.16 104.662 1037.49 104.328 1036.5 104.5C1046.51 100.659 1053.34 93.6586 1057 83.5C1057.97 68.145 1051.14 62.9783 1036.5 68C1025.44 77.1891 1021.1 89.0225 1023.5 103.5C1025.1 103.232 1026.43 103.566 1027.5 104.5C1025.9 104.232 1024.57 104.566 1023.5 105.5C1020.11 109.391 1016.45 113.224 1012.5 117C1008.22 119.736 1003.55 121.236 998.5 121.5C998.547 124.568 999.047 127.568 1000 130.5C1001.86 133.556 1003.69 136.556 1005.5 139.5C1005.5 140.167 1005.5 140.833 1005.5 141.5C999.828 136.493 996.495 130.16 995.5 122.5C975.61 119.783 966.11 108.449 967 88.5C969.152 79.3514 974.319 72.5181 982.5 68C983.804 67.196 984.471 66.0293 984.5 64.5C983.266 59.6973 980.766 55.6973 977 52.5C974 55.1667 971 55.1667 968 52.5C967.407 45.755 970.24 43.5883 976.5 46C977.227 47.3988 977.727 48.8988 978 50.5C983.419 54.0025 986.253 59.0025 986.5 65.5C992.167 64.1667 997.833 64.1667 1003.5 65.5C1004.27 59.2952 1007.1 54.2952 1012 50.5C1013.25 44.6227 1016.42 43.2894 1021.5 46.5C1023.03 54.4596 1020.2 56.4596 1013 52.5C1007.98 56.2529 1006.14 61.0862 1007.5 67C1014.67 70.1667 1019.83 75.3333 1023 82.5C1027.06 69.2395 1035.89 63.0728 1049.5 64C1059.62 69.5598 1062.29 77.7265 1057.5 88.5C1073.55 91.5802 1077.21 99.9135 1068.5 113.5C1063.29 116.661 1057.96 118.994 1052.5 120.5Z" fill="#191919" fill-rule="evenodd" opacity="1" stroke="none" />
<path d="M1050.5 116.5C1046.26 112.772 1041.6 109.606 1036.5 107C1037.04 106.283 1037.71 105.783 1038.5 105.5C1045.39 103.121 1051.06 98.9542 1055.5 93C1059.29 92.1628 1062.96 92.4961 1066.5 94C1072.04 98.3927 1072.87 103.559 1069 109.5C1063.78 114.187 1057.61 116.52 1050.5 116.5Z" fill="#f1f1f2" fill-rule="evenodd" opacity="1" stroke="none" />
<path d="M1036.5 104.5C1033.55 105.424 1030.55 105.424 1027.5 104.5C1026.43 103.566 1025.1 103.232 1023.5 103.5C1021.1 89.0225 1025.44 77.1891 1036.5 68C1051.14 62.9783 1057.97 68.145 1057 83.5C1053.34 93.6586 1046.51 100.659 1036.5 104.5Z" fill="#f4f4f4" fill-rule="evenodd" opacity="1" stroke="none" />
<path d="M991.5 66.5C1006.7 66.1848 1016.87 73.1848 1022 87.5C1023.71 103.114 1017.21 113.614 1002.5 119C979.502 121.001 968.669 110.501 970 87.5C973.124 76.2081 980.29 69.2081 991.5 66.5Z" fill="#f3f3f4" fill-rule="evenodd" opacity="1" stroke="none" />
<path d="M984.5 102.5C990.002 107.786 995.502 107.786 1001 102.5C1001.5 103 1002 103.5 1002.5 104C998.581 109.463 993.581 110.796 987.5 108C985.393 106.736 984.393 104.903 984.5 102.5Z" fill="#1e1e1f" fill-rule="evenodd" opacity="1" stroke="none" />
<path d="M1002.5 87.5C1003.82 87.33 1004.99 87.6634 1006 88.5C1006.67 90.5 1006.67 92.5 1006 94.5C1004.67 95.8333 1003.33 95.8333 1002 94.5C1001.3 92.0709 1001.46 89.7375 1002.5 87.5Z" fill="#151515" fill-rule="evenodd" opacity="1" stroke="none" />
<path d="M981.5 86.5C983.89 86.6848 984.89 88.0182 984.5 90.5C983.182 95.7055 981.515 95.7055 979.5 90.5C979.752 88.9271 980.418 87.5938 981.5 86.5Z" fill="#161617" fill-rule="evenodd" opacity="1" stroke="none" />
<path d="M1015.5 47.5C1019.14 46.7366 1020.64 48.0699 1020 51.5C1015.42 53.4126 1013.92 52.0793 1015.5 47.5Z" fill="#e2e3e4" fill-rule="evenodd" opacity="1" stroke="none" />
<path d="M970.5 47.5C974.138 46.7366 975.638 48.0699 975 51.5C970.8 52.9975 969.3 51.6642 970.5 47.5Z" fill="#e1e1e2" fill-rule="evenodd" opacity="1" stroke="none" />
<path d="M1023.5 105.5C1024.57 104.566 1025.9 104.232 1027.5 104.5C1030.55 105.424 1033.55 105.424 1036.5 104.5C1037.49 104.328 1038.16 104.662 1038.5 105.5C1037.71 105.783 1037.04 106.283 1036.5 107C1041.6 109.606 1046.26 112.772 1050.5 116.5C1050.23 118.38 1050.9 119.713 1052.5 120.5C1054.07 122.635 1055.4 124.968 1056.5 127.5C1055.66 127.842 1055.33 128.508 1055.5 129.5C1054.85 128.909 1054.18 128.243 1053.5 127.5C1051.08 136.698 1046.41 144.364 1039.5 150.5C1038.96 150.56 1038.62 150.893 1038.5 151.5C1039.38 152.251 1040.38 152.751 1041.5 153C1037.85 153.499 1034.18 153.665 1030.5 153.5C1020.41 152.953 1012.08 148.953 1005.5 141.5C1005.5 140.833 1005.5 140.167 1005.5 139.5C1021.03 134.147 1029.03 123.147 1029.5 106.5C1027.38 106.675 1025.38 106.341 1023.5 105.5Z" fill="#0c0c0c" fill-rule="evenodd" opacity="1" stroke="none" />
<path d="M1038.5 111.5C1043.23 112.397 1045.57 115.231 1045.5 120C1043.95 133.113 1037.62 143.113 1026.5 150C1022.39 150.072 1018.72 148.739 1015.5 146C1029.33 138.657 1037 127.157 1038.5 111.5Z" fill="#ededed" fill-rule="evenodd" opacity="1" stroke="none" />
<path d="M1055.5 129.5C1055.78 134.233 1055.44 138.9 1054.5 143.5C1055.83 145.833 1057.17 148.167 1058.5 150.5C1052.06 149.234 1045.73 149.234 1039.5 150.5C1046.41 144.364 1051.08 136.698 1053.5 127.5C1054.18 128.243 1054.85 128.909 1055.5 129.5Z" fill="#e8e8e8" fill-rule="evenodd" opacity="1" stroke="none" />
<path d="M1056.5 127.5C1058.65 132.516 1058.98 137.682 1057.5 143C1059.22 146.584 1060.72 150.084 1062 153.5C1051.42 152.692 1040.92 152.692 1030.5 153.5C1034.18 153.665 1037.85 153.499 1041.5 153C1040.38 152.751 1039.38 152.251 1038.5 151.5C1038.62 150.893 1038.96 150.56 1039.5 150.5C1045.73 149.234 1052.06 149.234 1058.5 150.5C1057.17 148.167 1055.83 145.833 1054.5 143.5C1055.44 138.9 1055.78 134.233 1055.5 129.5C1055.33 128.508 1055.66 127.842 1056.5 127.5Z" fill="#212020" fill-rule="evenodd" opacity="1" stroke="none" />
</g>

</svg>