<?xml version="1.0" encoding="UTF-8"?>
<svg xmlns="http://www.w3.org/2000/svg" version="1.1" viewBox="1121.88 57.33 173.75 105.66" width="173.75" height="105.66" style="fill-rule:nonzero;clip-rule:evenodd;stroke-linecap:round;stroke-linejoin:round;" xml:space="preserve">
<g opacity="1">
<path d="M1150.5 63.5C1192.83 63.3333 1235.17 63.5 1277.5 64C1282.39 64.5561 1285.89 67.0561 1288 71.5C1288.22 92.3457 1288.72 113.179 1289.5 134C1289.63 139.368 1286.96 141.868 1281.5 141.5C1275.82 141.666 1270.16 141.499 1264.5 141C1269.02 140.825 1273.35 140.325 1277.5 139.5C1284.67 140.661 1288 137.661 1287.5 130.5C1281.18 132.167 1278.18 129.834 1278.5 123.5C1278.54 121.571 1278.87 119.738 1279.5 118C1281.81 117.503 1284.14 117.337 1286.5 117.5C1286.67 102.496 1286.5 87.4963 1286 72.5C1283.83 68.9897 1280.66 66.823 1276.5 66C1235.17 65.5 1193.83 65.3333 1152.5 65.5C1151.83 64.8333 1151.17 64.1667 1150.5 63.5Z" fill="#0d0c0c" fill-rule="evenodd" opacity="1" stroke="none" />
<path d="M1152.5 65.5C1193.83 65.3333 1235.17 65.5 1276.5 66C1280.66 66.823 1283.83 68.9897 1286 72.5C1286.5 87.4963 1286.67 102.496 1286.5 117.5C1284.14 117.337 1281.81 117.503 1279.5 118C1278.87 119.738 1278.54 121.571 1278.5 123.5C1278.18 129.834 1281.18 132.167 1287.5 130.5C1288 137.661 1284.67 140.661 1277.5 139.5C1273.5 139.5 1269.5 139.5 1265.5 139.5C1263.86 126.507 1256.53 121.007 1243.5 123C1236.46 126.236 1232.8 131.736 1232.5 139.5C1216.5 139.5 1200.5 139.5 1184.5 139.5C1183.09 126.269 1175.76 120.769 1162.5 123C1155.47 126.215 1151.8 131.715 1151.5 139.5C1145.82 139.666 1140.16 139.499 1134.5 139C1131.96 138.072 1130.96 136.238 1131.5 133.5C1139.04 134.262 1141.38 131.095 1138.5 124C1136.32 122.798 1133.99 122.298 1131.5 122.5C1131.5 117.5 1131.5 112.5 1131.5 107.5C1134.97 108.125 1137.8 107.125 1140 104.5C1140.69 95.75 1141.69 87.0833 1143 78.5C1143.5 78 1144 77.5 1144.5 77C1148.15 76.5014 1151.82 76.3347 1155.5 76.5C1155.5 85.8333 1155.5 95.1667 1155.5 104.5C1150.9 104.8 1146.4 104.467 1142 103.5C1141.38 104.449 1141.55 105.282 1142.5 106C1154.17 106.667 1165.83 106.667 1177.5 106C1178.93 105.535 1180.1 104.701 1181 103.5C1181.67 94.8333 1181.67 86.1667 1181 77.5C1180.72 76.5842 1180.22 75.9175 1179.5 75.5C1179.16 74.6618 1178.49 74.3284 1177.5 74.5C1167.01 73.3412 1156.34 73.1745 1145.5 74C1143.67 74.5 1142.5 75.6667 1142 77.5C1140.91 75.2482 1139.08 73.9149 1136.5 73.5C1140.13 67.686 1145.46 65.0193 1152.5 65.5Z" fill="#f3f3f3" fill-rule="evenodd" opacity="1" stroke="none" />
<path d="M1190.5 73.5C1196.84 73.3338 1203.18 73.5005 1209.5 74C1210.03 74.6924 1210.69 75.1924 1211.5 75.5C1219.65 72.8505 1227.82 72.8505 1236 75.5C1243.94 72.8637 1251.94 72.8637 1260 75.5C1266.27 73.4427 1272.77 72.9427 1279.5 74C1280.93 74.4652 1282.1 75.2986 1283 76.5C1283.67 85.5 1283.67 94.5 1283 103.5C1282.1 104.701 1280.93 105.535 1279.5 106C1273.5 106.667 1267.5 106.667 1261.5 106C1259.94 104.244 1258.27 104.244 1256.5 106C1250.17 106.667 1243.83 106.667 1237.5 106C1236.17 104 1234.83 104 1233.5 106C1226.83 106.667 1220.17 106.667 1213.5 106C1212.17 104 1210.83 104 1209.5 106C1203.17 106.667 1196.83 106.667 1190.5 106C1189.07 105.535 1187.9 104.701 1187 103.5C1186.33 94.8333 1186.33 86.1667 1187 77.5C1188.38 76.2949 1189.54 74.9616 1190.5 73.5Z" fill="#212121" fill-rule="evenodd" opacity="1" stroke="none" />
<path d="M1238.5 76.5C1244.87 76.1703 1251.2 76.5037 1257.5 77.5C1258.64 85.7845 1258.8 94.1178 1258 102.5C1257.5 103 1257 103.5 1256.5 104C1250.83 104.667 1245.17 104.667 1239.5 104C1238.58 103.626 1237.75 103.126 1237 102.5C1236.33 94.5 1236.33 86.5 1237 78.5C1237.72 77.9558 1238.22 77.2891 1238.5 76.5Z" fill="#eeeeee" fill-rule="evenodd" opacity="1" stroke="none" />
<path d="M1261.5 76.5C1267.51 76.3338 1273.51 76.5005 1279.5 77C1280 77.5 1280.5 78 1281 78.5C1281.67 86.5 1281.67 94.5 1281 102.5C1280.5 103 1280 103.5 1279.5 104C1273.83 104.667 1268.17 104.667 1262.5 104C1262 103.5 1261.5 103 1261 102.5C1260.22 93.7855 1260.39 85.1188 1261.5 76.5Z" fill="#efefef" fill-rule="evenodd" opacity="1" stroke="none" />
<path d="M1213.5 76.5C1220.42 76.1878 1227.26 76.5212 1234 77.5C1234.67 85.8333 1234.67 94.1667 1234 102.5C1233.5 103 1233 103.5 1232.5 104C1226.5 104.667 1220.5 104.667 1214.5 104C1214 103.5 1213.5 103 1213 102.5C1212.2 93.7551 1212.36 85.0884 1213.5 76.5Z" fill="#ededed" fill-rule="evenodd" opacity="1" stroke="none" />
<path d="M1190.5 76.5C1197.09 76.189 1203.59 76.5223 1210 77.5C1210.67 85.8333 1210.67 94.1667 1210 102.5C1209.5 103 1209 103.5 1208.5 104C1202.83 104.667 1197.17 104.667 1191.5 104C1191 103.5 1190.5 103 1190 102.5C1189.2 93.7551 1189.36 85.0884 1190.5 76.5Z" fill="#f2f2f2" fill-rule="evenodd" opacity="1" stroke="none" />
<path d="M1177.5 74.5C1178.49 74.3284 1179.16 74.6618 1179.5 75.5C1178.66 75.8417 1178.33 76.5084 1178.5 77.5C1171.92 76.5399 1165.26 76.2066 1158.5 76.5C1164.83 75.8333 1171.17 75.1667 1177.5 74.5Z" fill="#454545" fill-rule="evenodd" opacity="1" stroke="none" />
<path d="M1153.5 109.5C1154.46 111.265 1154.79 113.265 1154.5 115.5C1151.81 115.664 1149.15 115.497 1146.5 115C1145.25 113.506 1145.25 112.006 1146.5 110.5C1147.3 110.957 1147.63 111.624 1147.5 112.5C1149.26 113.461 1151.26 113.795 1153.5 113.5C1153.5 112.167 1153.5 110.833 1153.5 109.5Z" fill="#111111" fill-rule="evenodd" opacity="1" stroke="none" />
<path d="M1153.5 109.5C1153.5 110.833 1153.5 112.167 1153.5 113.5C1151.26 113.795 1149.26 113.461 1147.5 112.5C1149.17 112.5 1150.83 112.5 1152.5 112.5C1152.26 111.209 1152.6 110.209 1153.5 109.5Z" fill="#8e8e8e" fill-rule="evenodd" opacity="1" stroke="none" />
<path d="M1280.5 119.5C1282.5 119.5 1284.5 119.5 1286.5 119.5C1286.5 122.5 1286.5 125.5 1286.5 128.5C1284.53 128.739 1282.7 128.406 1281 127.5C1280.5 124.854 1280.34 122.187 1280.5 119.5Z" fill="#e3e2e2" fill-rule="evenodd" opacity="1" stroke="none" />
<path d="M1150.5 63.5C1151.17 64.1667 1151.83 64.8333 1152.5 65.5C1145.46 65.0193 1140.13 67.686 1136.5 73.5C1139.08 73.9149 1140.91 75.2482 1142 77.5C1142.5 75.6667 1143.67 74.5 1145.5 74C1156.34 73.1745 1167.01 73.3412 1177.5 74.5C1171.17 75.1667 1164.83 75.8333 1158.5 76.5C1158.33 85.5062 1158.5 94.5062 1159 103.5C1165.33 104.833 1171.67 104.833 1178 103.5C1178.5 94.8397 1178.67 86.1731 1178.5 77.5C1178.33 76.5084 1178.66 75.8417 1179.5 75.5C1180.22 75.9175 1180.72 76.5842 1181 77.5C1181.67 86.1667 1181.67 94.8333 1181 103.5C1180.1 104.701 1178.93 105.535 1177.5 106C1165.83 106.667 1154.17 106.667 1142.5 106C1141.55 105.282 1141.38 104.449 1142 103.5C1146.4 104.467 1150.9 104.8 1155.5 104.5C1155.5 95.1667 1155.5 85.8333 1155.5 76.5C1151.82 76.3347 1148.15 76.5014 1144.5 77C1144 77.5 1143.5 78 1143 78.5C1141.69 87.0833 1140.69 95.75 1140 104.5C1137.8 107.125 1134.97 108.125 1131.5 107.5C1131.5 112.5 1131.5 117.5 1131.5 122.5C1133.99 122.298 1136.32 122.798 1138.5 124C1141.38 131.095 1139.04 134.262 1131.5 133.5C1130.96 136.238 1131.96 138.072 1134.5 139C1140.16 139.499 1145.82 139.666 1151.5 139.5C1151.8 131.715 1155.47 126.215 1162.5 123C1175.76 120.769 1183.09 126.269 1184.5 139.5C1200.5 139.5 1216.5 139.5 1232.5 139.5C1232.8 131.736 1236.46 126.236 1243.5 123C1256.53 121.007 1263.86 126.507 1265.5 139.5C1269.5 139.5 1273.5 139.5 1277.5 139.5C1273.35 140.325 1269.02 140.825 1264.5 141C1270.16 141.499 1275.82 141.666 1281.5 141.5C1275.69 142.49 1269.69 142.823 1263.5 142.5C1261.7 150.668 1256.53 154.668 1248 154.5C1240.91 153.866 1236.08 150.199 1233.5 143.5C1216.83 142.167 1200.17 142.167 1183.5 143.5C1178.35 154.161 1170.35 156.995 1159.5 152C1156.02 149.703 1154.02 146.536 1153.5 142.5C1147.49 142.666 1141.49 142.499 1135.5 142C1132.8 141.31 1130.64 139.81 1129 137.5C1127.88 117.392 1128.88 97.3919 1132 77.5C1134.57 68.1258 1140.74 63.4591 1150.5 63.5Z" fill="#242424" fill-rule="evenodd" opacity="1" stroke="none" />
<path d="M1165.5 124.5C1178.25 124.746 1183.42 131.079 1181 143.5C1174.12 153.981 1166.12 154.981 1157 146.5C1152.32 136.205 1155.15 128.872 1165.5 124.5Z" fill="#eaeaea" fill-rule="evenodd" opacity="1" stroke="none" />
<path d="M1165.5 130.5C1170.28 129.641 1173.78 131.308 1176 135.5C1176.83 143.333 1173.33 146.833 1165.5 146C1160.93 143.459 1159.43 139.625 1161 134.5C1162.4 132.93 1163.9 131.596 1165.5 130.5Z" fill="#1d1e1e" fill-rule="evenodd" opacity="1" stroke="none" />
<path d="M1165.5 132.5C1171.82 132.32 1174.32 135.32 1173 141.5C1169.67 145.5 1166.33 145.5 1163 141.5C1161.93 137.9 1162.76 134.9 1165.5 132.5Z" fill="#ececec" fill-rule="evenodd" opacity="1" stroke="none" />
<path d="M1244.5 124.5C1259.83 124.967 1265 132.301 1260 146.5C1250.88 155.15 1242.88 154.15 1236 143.5C1234 134.85 1236.83 128.517 1244.5 124.5Z" fill="#e9e9e9" fill-rule="evenodd" opacity="1" stroke="none" />
<path d="M1245.5 130.5C1254.21 130.037 1257.71 134.037 1256 142.5C1250.09 148.348 1245.09 147.681 1241 140.5C1240.33 139.167 1240.33 137.833 1241 136.5C1242.33 134.34 1243.83 132.34 1245.5 130.5Z" fill="#171817" fill-rule="evenodd" opacity="1" stroke="none" />
<path d="M1246.5 132.5C1252.82 132.32 1255.32 135.32 1254 141.5C1250.67 145.5 1247.33 145.5 1244 141.5C1242.93 137.9 1243.76 134.9 1246.5 132.5Z" fill="#e7e8e8" fill-rule="evenodd" opacity="1" stroke="none" />
<path d="M1131.5 124.5C1136.91 123.735 1138.91 126.069 1137.5 131.5C1135.5 131.5 1133.5 131.5 1131.5 131.5C1131.5 129.167 1131.5 126.833 1131.5 124.5Z" fill="#e6e6e6" fill-rule="evenodd" opacity="1" stroke="none" />
<path d="M1134.5 76.5C1136.17 76.5 1137.83 76.5 1139.5 76.5C1139.12 85.5031 1138.62 94.5031 1138 103.5C1136.21 105.229 1134.04 105.896 1131.5 105.5C1132.22 95.8025 1133.22 86.1358 1134.5 76.5Z" fill="#e7e7e7" fill-rule="evenodd" opacity="1" stroke="none" />
<path d="M1158.5 76.5C1165.26 76.2066 1171.92 76.5399 1178.5 77.5C1178.67 86.1731 1178.5 94.8397 1178 103.5C1171.67 104.833 1165.33 104.833 1159 103.5C1158.5 94.5062 1158.33 85.5062 1158.5 76.5Z" fill="#f3f3f4" fill-rule="evenodd" opacity="1" stroke="none" />
</g>

</svg>