<?xml version="1.0" encoding="UTF-8"?>
<svg xmlns="http://www.w3.org/2000/svg" version="1.1" viewBox="1345.24 24.41 136.49 158.16" width="136.49" height="158.16" style="fill-rule:nonzero;clip-rule:evenodd;stroke-linecap:round;stroke-linejoin:round;" xml:space="preserve">
<g opacity="1">
<path d="M1443.5 147.5C1443.74 148.791 1443.4 149.791 1442.5 150.5C1442.49 148.983 1441.82 147.816 1440.5 147C1432.7 145.38 1425.7 147.047 1419.5 152C1418.66 153.011 1418.33 154.178 1418.5 155.5C1418.44 156.043 1418.11 156.376 1417.5 156.5C1416.82 155.398 1416.16 154.398 1415.5 153.5C1415.59 152.504 1415.25 151.671 1414.5 151C1412.19 150.503 1409.86 150.337 1407.5 150.5C1407.17 149.833 1406.83 149.167 1406.5 148.5C1425.5 149.16 1438.83 140.827 1446.5 123.5C1452.47 126.772 1456.64 125.105 1459 118.5C1461.32 111.185 1458.82 107.685 1451.5 108C1450.97 108.692 1450.31 109.192 1449.5 109.5C1448.78 98.3597 1445.61 88.0263 1440 78.5C1438.5 77 1437 75.5 1435.5 74C1422.05 70.3167 1408.39 68.9834 1394.5 70C1383.98 77.8593 1377.65 88.3593 1375.5 101.5C1371.12 97.1351 1367.62 97.8018 1365 103.5C1363.62 110.912 1366.45 115.579 1373.5 117.5C1373.5 116.5 1373.5 115.5 1373.5 114.5C1374.5 114.5 1375.5 114.5 1376.5 114.5C1378.23 132.223 1387.57 143.556 1404.5 148.5C1403.45 148.351 1402.45 148.517 1401.5 149C1402.29 150.313 1401.95 151.48 1400.5 152.5C1400.59 151.504 1400.25 150.671 1399.5 150C1393.81 145.641 1387.47 143.308 1380.5 143C1378.86 144.129 1377.86 145.629 1377.5 147.5C1376.83 147.167 1376.17 146.833 1375.5 146.5C1376.64 141.223 1379.97 139.057 1385.5 140C1379.34 134.519 1375.68 127.685 1374.5 119.5C1370.57 119.953 1367.41 118.62 1365 115.5C1363.24 112.036 1362.07 108.37 1361.5 104.5C1352.74 99.4636 1351.24 92.797 1357 84.5C1355.72 74.7934 1359.88 69.6267 1369.5 69C1373.75 61.5162 1379.42 60.0162 1386.5 64.5C1387.96 58.7015 1391.62 56.0348 1397.5 56.5C1397.48 44.6737 1402.82 36.5071 1413.5 32C1424.81 30.4076 1432.65 34.9076 1437 45.5C1437.5 50.8229 1437.67 56.1563 1437.5 61.5C1443.11 61.9222 1445.44 64.7555 1444.5 70C1450.58 68.374 1455.75 69.874 1460 74.5C1460.49 76.1341 1460.66 77.8008 1460.5 79.5C1470.9 79.7737 1474.56 84.9404 1471.5 95C1475.73 101.188 1475.4 107.188 1470.5 113C1467.79 114.908 1464.79 115.741 1461.5 115.5C1460.66 124.495 1455.66 128.662 1446.5 128C1443.64 133.865 1439.64 138.865 1434.5 143C1438.38 142.938 1441.38 144.438 1443.5 147.5Z" fill="#181818" fill-rule="evenodd" opacity="1" stroke="none" />
<path d="M1389.5 67.5C1391.98 67.73 1392.48 68.3966 1391 69.5C1389.97 69.1639 1389.47 68.4972 1389.5 67.5Z" fill="#c0c1c3" fill-rule="evenodd" opacity="1" stroke="none" />
<path d="M1393.5 58.5C1408.67 58.2717 1423.67 59.7717 1438.5 63C1442.1 64.3339 1443.27 66.8339 1442 70.5C1440.6 71.1159 1439.1 71.4493 1437.5 71.5C1423.36 68.2021 1409.03 66.7021 1394.5 67C1391.81 66.9734 1390.47 65.64 1390.5 63C1390.56 60.7911 1391.56 59.2911 1393.5 58.5Z" fill="#ededed" fill-rule="evenodd" opacity="1" stroke="none" />
<path d="M1400.5 53.5C1403.2 55.11 1406.2 56.11 1409.5 56.5C1406.17 56.5 1402.83 56.5 1399.5 56.5C1399.26 55.209 1399.6 54.209 1400.5 53.5Z" fill="#919191" fill-rule="evenodd" opacity="1" stroke="none" />
<path d="M1409.5 56.5C1406.2 56.11 1403.2 55.11 1400.5 53.5C1403.13 36.3585 1412.46 30.8585 1428.5 37C1430.38 38.5429 1431.88 40.3762 1433 42.5C1434.7 48.0371 1435.53 53.7037 1435.5 59.5C1426.92 57.7513 1418.26 56.7513 1409.5 56.5Z" fill="#f2f3f3" fill-rule="evenodd" opacity="1" stroke="none" />
<path d="M1406.5 148.5C1405.83 148.5 1405.17 148.5 1404.5 148.5C1387.57 143.556 1378.23 132.223 1376.5 114.5C1375.5 114.5 1374.5 114.5 1373.5 114.5C1373.5 115.5 1373.5 116.5 1373.5 117.5C1366.45 115.579 1363.62 110.912 1365 103.5C1367.62 97.8018 1371.12 97.1351 1375.5 101.5C1377.65 88.3593 1383.98 77.8593 1394.5 70C1408.39 68.9834 1422.05 70.3167 1435.5 74C1437 75.5 1438.5 77 1440 78.5C1445.61 88.0263 1448.78 98.3597 1449.5 109.5C1450.31 109.192 1450.97 108.692 1451.5 108C1458.82 107.685 1461.32 111.185 1459 118.5C1456.64 125.105 1452.47 126.772 1446.5 123.5C1438.83 140.827 1425.5 149.16 1406.5 148.5Z" fill="#f3f3f3" fill-rule="evenodd" opacity="1" stroke="none" />
<path d="M1439.5 73.5C1441.34 73.6395 1441.67 74.3061 1440.5 75.5C1439.7 75.0431 1439.37 74.3764 1439.5 73.5Z" fill="#878787" fill-rule="evenodd" opacity="1" stroke="none" />
<path d="M1448.5 71.5C1455.41 71.2825 1458.74 74.6159 1458.5 81.5C1466.83 80.6631 1470.66 84.3297 1470 92.5C1469.36 93.646 1468.52 94.646 1467.5 95.5C1474.87 103.143 1473.7 109.143 1464 113.5C1463.23 113.355 1462.56 113.022 1462 112.5C1460.54 106.511 1456.71 104.178 1450.5 105.5C1450.48 95.4333 1447.81 86.1 1442.5 77.5C1443.67 74.5971 1445.67 72.5971 1448.5 71.5Z" fill="#f1f1f1" fill-rule="evenodd" opacity="1" stroke="none" />
<path d="M1376.5 64.5C1382.53 63.5521 1386.53 65.8854 1388.5 71.5C1380.96 78.5813 1376.63 87.248 1375.5 97.5C1372.86 96.7369 1370.19 96.5702 1367.5 97C1361.59 103.232 1357.59 102.066 1355.5 93.5C1355.88 89.446 1357.88 86.446 1361.5 84.5C1358.13 79.2292 1359.13 75.0625 1364.5 72C1366.57 71.3131 1368.57 71.4798 1370.5 72.5C1372.04 69.3784 1374.04 66.7117 1376.5 64.5Z" fill="#f1f1f1" fill-rule="evenodd" opacity="1" stroke="none" />
<path d="M1393.5 82.5C1395.92 82.1924 1398.26 82.5258 1400.5 83.5C1398.98 83.8797 1397.31 84.0464 1395.5 84C1391.61 87.2747 1390.94 86.7747 1393.5 82.5Z" fill="#2a2a29" fill-rule="evenodd" opacity="1" stroke="none" />
<path d="M1425.5 85.5C1427.53 85.3379 1429.53 85.5045 1431.5 86C1433.21 87.1332 1433.71 88.6332 1433 90.5C1430.51 88.5574 1428.01 86.8907 1425.5 85.5Z" fill="#232222" fill-rule="evenodd" opacity="1" stroke="none" />
<path d="M1394.5 95.5C1398.97 95.7483 1400.47 98.0817 1399 102.5C1397.6 104.527 1395.94 104.86 1394 103.5C1393.28 100.739 1393.44 98.0728 1394.5 95.5Z" fill="#0e0d0e" fill-rule="evenodd" opacity="1" stroke="none" />
<path d="M1424.5 98.5C1429.21 98.4676 1430.71 100.801 1429 105.5C1427.6 107.527 1425.94 107.86 1424 106.5C1423.28 103.739 1423.44 101.073 1424.5 98.5Z" fill="#0e0d0d" fill-rule="evenodd" opacity="1" stroke="none" />
<path d="M1404.5 103.5C1408.64 103.146 1412.64 103.646 1416.5 105C1420.35 108.308 1421.35 112.308 1419.5 117C1431.36 115.837 1435.2 121.003 1431 132.5C1424.06 141.707 1414.89 144.874 1403.5 142C1390.36 137.687 1385.36 129.021 1388.5 116C1391.69 114.684 1395.02 114.184 1398.5 114.5C1398.7 109.757 1400.7 106.091 1404.5 103.5Z" fill="#1b1b1b" fill-rule="evenodd" opacity="1" stroke="none" />
<path d="M1405.5 105.5C1409.84 104.846 1413.67 105.846 1417 108.5C1419.57 117.608 1416.07 121.441 1406.5 120C1401.86 117.928 1400.36 114.428 1402 109.5C1403.38 108.295 1404.54 106.962 1405.5 105.5Z" fill="#f0f0f0" fill-rule="evenodd" opacity="1" stroke="none" />
<path d="M1391.5 116.5C1396.08 115.793 1399.75 117.293 1402.5 121C1408.6 124.214 1414.6 123.881 1420.5 120C1428.67 118.167 1431.83 121.333 1430 129.5C1423.67 139.058 1414.84 142.558 1403.5 140C1394.73 137.399 1389.73 131.565 1388.5 122.5C1388.63 120.045 1389.63 118.045 1391.5 116.5Z" fill="#ebebeb" fill-rule="evenodd" opacity="1" stroke="none" />
<path d="M1394.5 121.5C1403.44 128.193 1413.11 129.193 1423.5 124.5C1424.26 129.109 1422.26 132.275 1417.5 134C1406.48 137.824 1398.48 134.491 1393.5 124C1393.74 123.098 1394.08 122.265 1394.5 121.5Z" fill="#242424" fill-rule="evenodd" opacity="1" stroke="none" />
<path d="M1396.5 126.5C1396.56 125.957 1396.89 125.624 1397.5 125.5C1404.86 129.836 1412.53 130.503 1420.5 127.5C1420.83 127.833 1421.17 128.167 1421.5 128.5C1415.2 134.108 1408.2 134.941 1400.5 131C1398.93 129.603 1397.6 128.103 1396.5 126.5Z" fill="#e7e8e7" fill-rule="evenodd" opacity="1" stroke="none" />
<path d="M1400.5 152.5C1400.13 153.695 1399.3 154.361 1398 154.5C1396.21 153.591 1394.38 153.424 1392.5 154C1401.73 155.766 1401.73 157.266 1392.5 158.5C1394.74 159.474 1397.08 159.808 1399.5 159.5C1399.67 160.822 1399.34 161.989 1398.5 163C1392.38 167.071 1385.72 168.405 1378.5 167C1376.97 165.352 1376.3 163.352 1376.5 161C1377.16 156.521 1377.5 152.021 1377.5 147.5C1377.86 145.629 1378.86 144.129 1380.5 143C1387.47 143.308 1393.81 145.641 1399.5 150C1400.25 150.671 1400.59 151.504 1400.5 152.5Z" fill="#f1f1f2" fill-rule="evenodd" opacity="1" stroke="none" />
<path d="M1375.5 146.5C1376.17 146.833 1376.83 147.167 1377.5 147.5C1377.5 152.021 1377.16 156.521 1376.5 161C1376.3 163.352 1376.97 165.352 1378.5 167C1385.72 168.405 1392.38 167.071 1398.5 163C1399.34 161.989 1399.67 160.822 1399.5 159.5C1397.08 159.808 1394.74 159.474 1392.5 158.5C1401.73 157.266 1401.73 155.766 1392.5 154C1394.38 153.424 1396.21 153.591 1398 154.5C1399.3 154.361 1400.13 153.695 1400.5 152.5C1401.95 151.48 1402.29 150.313 1401.5 149C1402.45 148.517 1403.45 148.351 1404.5 148.5C1405.17 148.5 1405.83 148.5 1406.5 148.5C1406.83 149.167 1407.17 149.833 1407.5 150.5C1405.61 150.297 1404.11 150.963 1403 152.5C1400.48 163.987 1404.48 167.32 1415 162.5C1415.5 159.518 1415.66 156.518 1415.5 153.5C1416.16 154.398 1416.82 155.398 1417.5 156.5C1418.11 156.376 1418.44 156.043 1418.5 155.5C1430.36 155.388 1430.36 156.222 1418.5 158C1419.62 159.044 1420.96 159.71 1422.5 160C1421.21 160.49 1419.87 160.657 1418.5 160.5C1418.8 163.642 1420.47 165.809 1423.5 167C1428 170.428 1433 171.762 1438.5 171C1439.67 170.5 1440.5 169.667 1441 168.5C1441.5 162.493 1442 156.493 1442.5 150.5C1443.4 149.791 1443.74 148.791 1443.5 147.5C1444.9 148.777 1445.56 150.443 1445.5 152.5C1444.83 157.481 1444.33 162.481 1444 167.5C1442.88 172.286 1439.88 174.286 1435 173.5C1428.59 173.043 1423.09 170.543 1418.5 166C1415.13 165.946 1411.8 166.446 1408.5 167.5C1405.63 167.069 1402.97 166.069 1400.5 164.5C1378.28 176.571 1369.95 170.571 1375.5 146.5Z" fill="#222222" fill-rule="evenodd" opacity="1" stroke="none" />
<path d="M1442.5 150.5C1442 156.493 1441.5 162.493 1441 168.5C1440.5 169.667 1439.67 170.5 1438.5 171C1433 171.762 1428 170.428 1423.5 167C1420.47 165.809 1418.8 163.642 1418.5 160.5C1419.87 160.657 1421.21 160.49 1422.5 160C1420.96 159.71 1419.62 159.044 1418.5 158C1430.36 156.222 1430.36 155.388 1418.5 155.5C1418.33 154.178 1418.66 153.011 1419.5 152C1425.7 147.047 1432.7 145.38 1440.5 147C1441.82 147.816 1442.49 148.983 1442.5 150.5Z" fill="#f1f1f1" fill-rule="evenodd" opacity="1" stroke="none" />
<path d="M1407.5 150.5C1409.86 150.337 1412.19 150.503 1414.5 151C1415.25 151.671 1415.59 152.504 1415.5 153.5C1415.66 156.518 1415.5 159.518 1415 162.5C1404.48 167.32 1400.48 163.987 1403 152.5C1404.11 150.963 1405.61 150.297 1407.5 150.5Z" fill="#f0f0f0" fill-rule="evenodd" opacity="1" stroke="none" />
</g>

</svg>