<?xml version="1.0" encoding="UTF-8" standalone="no"?>
<svg xmlns="http://www.w3.org/2000/svg" fill-rule="nonzero" clip-rule="evenodd" stroke-miterlimit="10" style="fill-rule:nonzero;clip-rule:evenodd;stroke-linecap:round;stroke-linejoin:round;"
     viewBox="523.8 19.0 216.8 207.7" xml:space="preserve">
<g opacity="1">
<path d="M692.5 151.5C674.167 151.5 655.833 151.5 637.5 151.5C637.216 153.415 637.549 155.081 638.5 156.5C638.5 158.5 638.5 160.5 638.5 162.5C638.869 164.993 638.203 165.66 636.5 164.5C636.116 160.253 635.449 156.086 634.5 152C623.505 151.5 612.505 151.333 601.5 151.5C600.833 156.167 600.167 160.833 599.5 165.5C616.325 166.497 633.325 166.83 650.5 166.5C652.888 167.219 654.388 168.885 655 171.5C655.825 173.701 655.325 175.534 653.5 177C629.833 177.667 606.167 177.667 582.5 177C580.567 172.533 581.567 168.867 585.5 166C589.152 165.501 592.818 165.335 596.5 165.5C597.275 161.186 597.941 156.853 598.5 152.5C580.164 152.667 561.83 152.5 543.5 152C540.667 150.5 538.5 148.333 537 145.5C536.333 109.833 536.333 74.1667 537 38.5C537.786 35.4173 539.619 33.2506 542.5 32C593.583 31.0094 644.583 31.3427 695.5 33C697.049 34.214 698.215 35.714 699 37.5C699.667 73.5 699.667 109.5 699 145.5C698.246 149.089 696.079 151.089 692.5 151.5Z" fill="#191919" fill-rule="evenodd" opacity="1" stroke="none"/>
<path d="M543.5 34.5C593.501 34.3333 643.501 34.5 693.5 35C694.333 35.8333 695.167 36.6667 696 37.5C696.827 73.8749 696.66 110.208 695.5 146.5C694.5 147.333 693.5 148.167 692.5 149C642.833 149.667 593.167 149.667 543.5 149C542.333 147.833 541.167 146.667 540 145.5C539.333 109.833 539.333 74.1667 540 38.5C540.69 36.6498 541.856 35.3164 543.5 34.5Z" fill="#f2f2f2" fill-rule="evenodd" opacity="1" stroke="none"/>
<path d="M548.5 40.5C595.585 40.0099 642.585 40.5099 689.5 42C690.662 71.4281 690.828 100.928 690 130.5C689.5 131 689 131.5 688.5 132C641.5 132.667 594.5 132.667 547.5 132C546.338 102.238 546.172 72.4052 547 42.5C547.717 41.9558 548.217 41.2891 548.5 40.5Z" fill="#1c1c1c" fill-rule="evenodd" opacity="1" stroke="none"/>
<path d="M687.5 44.5C641.5 44.5 595.5 44.5 549.5 44.5C549.5 72.8333 549.5 101.167 549.5 129.5C548.502 101.005 548.169 72.3382 548.5 43.5C595.003 43.1679 641.336 43.5012 687.5 44.5Z" fill="#a09fa2" fill-rule="evenodd" opacity="1" stroke="none"/>
<path d="M687.5 44.5C687.5 72.8333 687.5 101.167 687.5 129.5C641.5 129.5 595.5 129.5 549.5 129.5C549.5 101.167 549.5 72.8333 549.5 44.5C595.5 44.5 641.5 44.5 687.5 44.5Z" fill="#f9f9f9" fill-rule="evenodd" opacity="1" stroke="none"/>
<path d="M616.5 135.5C621.989 135.504 623.822 138.171 622 143.5C616 147.167 613.333 145.5 614 138.5C614.698 137.309 615.531 136.309 616.5 135.5Z" fill="#191919" fill-rule="evenodd" opacity="1" stroke="none"/>
<path d="M616.5 137.5C620.35 137.701 621.35 139.534 619.5 143C615.537 143.118 614.537 141.284 616.5 137.5Z" fill="#e4e3e4" fill-rule="evenodd" opacity="1" stroke="none"/>
<path d="M692.5 151.5C674.674 152.497 656.674 152.83 638.5 152.5C638.5 153.833 638.5 155.167 638.5 156.5C637.549 155.081 637.216 153.415 637.5 151.5C655.833 151.5 674.167 151.5 692.5 151.5Z" fill="#818181" fill-rule="evenodd" opacity="1" stroke="none"/>
<path d="M636.5 164.5C624.345 165.495 612.011 165.829 599.5 165.5C600.167 160.833 600.833 156.167 601.5 151.5C612.505 151.333 623.505 151.5 634.5 152C635.449 156.086 636.116 160.253 636.5 164.5Z" fill="#edeeed" fill-rule="evenodd" opacity="1" stroke="none"/>
<path d="M638.5 162.5C639.404 163.209 639.737 164.209 639.5 165.5C643.371 165.185 647.038 165.518 650.5 166.5C633.325 166.83 616.325 166.497 599.5 165.5C612.011 165.829 624.345 165.495 636.5 164.5C638.203 165.66 638.869 164.993 638.5 162.5Z" fill="#2c2e2c" fill-rule="evenodd" opacity="1" stroke="none"/>
<path d="M585.5 168.5C607.169 168.333 628.836 168.5 650.5 169C652.016 170.897 652.683 173.064 652.5 175.5C629.5 175.5 606.5 175.5 583.5 175.5C583.394 172.921 584.061 170.588 585.5 168.5Z" fill="#e3e4e4" fill-rule="evenodd" opacity="1" stroke="none"/>
<path d="M679.5 175.5C681.857 175.337 684.19 175.503 686.5 176C688.723 177.733 691.056 179.233 693.5 180.5C708.404 177.296 719.57 182.296 727 195.5C728.6 206.239 723.933 211.906 713 212.5C708.338 212.295 704.171 210.795 700.5 208C695.254 203.425 690.754 198.258 687 192.5C685.798 188.207 686.965 184.707 690.5 182C686.96 179.245 683.294 177.078 679.5 175.5Z" fill="#191919" fill-rule="evenodd" opacity="1" stroke="none"/>
<path d="M699.5 183.5C704.376 181.897 709.043 182.563 713.5 185.5C705.765 186.864 699.431 190.53 694.5 196.5C686.496 191.477 686.662 187.143 695 183.5C697.248 184.229 699.415 185.229 701.5 186.5C702.312 184.917 701.645 183.917 699.5 183.5Z" fill="#e9eaea" fill-rule="evenodd" opacity="1" stroke="none"/>
<path d="M713.5 187.5C723.905 190.479 726.905 196.979 722.5 207C711.061 211.945 702.395 208.945 696.5 198C700.626 191.94 706.293 188.44 713.5 187.5Z" fill="#f2f2f2" fill-rule="evenodd" opacity="1" stroke="none"/>
<path d="M551.5 182.5C591.168 182.333 630.835 182.5 670.5 183C675 189.5 679.5 196 684 202.5C686.529 207.186 685.696 211.019 681.5 214C634.167 214.667 586.833 214.667 539.5 214C536.651 211.441 535.817 208.274 537 204.5C542.092 197.31 546.926 189.976 551.5 182.5Z" fill="#171717" fill-rule="evenodd" opacity="1" stroke="none"/>
<path d="M553.5 184.5C591.835 184.333 630.168 184.5 668.5 185C673.757 191.762 678.424 198.929 682.5 206.5C634.833 207.833 587.167 207.833 539.5 206.5C544.177 199.138 548.844 191.805 553.5 184.5Z" fill="#e3e3e3" fill-rule="evenodd" opacity="1" stroke="none"/>
<path d="M581.5 202.5C599.326 203.497 617.326 203.83 635.5 203.5C617.005 204.662 598.338 204.829 579.5 204C579.167 203.667 578.833 203.333 578.5 203C579.448 202.517 580.448 202.351 581.5 202.5Z" fill="#a2a1a1" fill-rule="evenodd" opacity="1" stroke="none"/>
<path d="M667.5 194.5C665.167 195.167 662.833 195.833 660.5 196.5C659.957 196.44 659.624 196.107 659.5 195.5C662.086 194.52 664.753 194.187 667.5 194.5Z" fill="#7e817f" fill-rule="evenodd" opacity="1" stroke="none"/>
<path d="M566.5 190.5C565.596 191.209 565.263 192.209 565.5 193.5C568.713 193.81 571.713 193.477 574.5 192.5C573.322 191.001 571.655 190.001 569.5 189.5C573.795 188.339 578.129 188.172 582.5 189C582.833 189.333 583.167 189.667 583.5 190C581.527 190.495 579.527 190.662 577.5 190.5C576.596 191.209 576.263 192.209 576.5 193.5C579.713 193.81 582.713 193.477 585.5 192.5C585.736 191.284 585.736 190.117 585.5 189C591.528 188.17 597.528 188.336 603.5 189.5C598.833 190.167 594.167 190.833 589.5 191.5C594.792 192.495 600.125 192.828 605.5 192.5C605.5 191.167 605.5 189.833 605.5 188.5C608.572 188.183 611.572 188.516 614.5 189.5C612.167 190.167 609.833 190.833 607.5 191.5C610.428 192.484 613.428 192.817 616.5 192.5C616.5 191.167 616.5 189.833 616.5 188.5C624.84 188.334 633.173 188.5 641.5 189C641.833 189.333 642.167 189.667 642.5 190C640.833 190.333 639.167 190.667 637.5 191C639.653 193.165 642.319 193.998 645.5 193.5C645.52 191.857 644.853 190.524 643.5 189.5C646.5 188.167 649.5 188.167 652.5 189.5C650.833 190.167 649.167 190.833 647.5 191.5C647.624 192.107 647.957 192.44 648.5 192.5C651.024 193.8 653.691 193.8 656.5 192.5C656.376 191.893 656.043 191.56 655.5 191.5C655.196 190.85 654.863 190.183 654.5 189.5C658.167 188.167 661.833 188.167 665.5 189.5C662.893 190.318 660.226 190.818 657.5 191C660.638 192.244 663.972 192.911 667.5 193C668.738 193.69 668.738 194.19 667.5 194.5C664.753 194.187 662.086 194.52 659.5 195.5C659.624 196.107 659.957 196.44 660.5 196.5C663.641 197.321 666.975 197.821 670.5 198C671.376 199.586 672.376 201.086 673.5 202.5C669.541 203.66 665.541 203.827 661.5 203C660.368 200.075 658.201 198.908 655 199.5C653.5 199.833 652 200.167 650.5 200.5C658.299 202.37 657.965 203.37 649.5 203.5C649.427 200.05 647.594 198.717 644 199.5C638.887 199.5 638.387 200.667 642.5 203C641.207 203.49 639.873 203.657 638.5 203.5C638.5 202.167 638.5 200.833 638.5 199.5C620.833 199.5 603.167 199.5 585.5 199.5C585.5 200.5 585.5 201.5 585.5 202.5C602.342 202.17 619.008 202.503 635.5 203.5C617.326 203.83 599.326 203.497 581.5 202.5C582.478 202.189 583.145 201.522 583.5 200.5C579.833 199.167 576.167 199.167 572.5 200.5C572.833 201.167 573.167 201.833 573.5 202.5C571.235 203.647 568.902 203.814 566.5 203C567.793 202.51 569.127 202.343 570.5 202.5C570.5 201.5 570.5 200.5 570.5 199.5C567.428 199.183 564.428 199.516 561.5 200.5C561.167 201.167 560.833 201.833 560.5 202.5C556.5 203.833 552.5 203.833 548.5 202.5C552.167 201.833 555.833 201.167 559.5 200.5C556.553 199.679 553.553 199.179 550.5 199C554.167 198 557.833 197 561.5 196C558.774 195.818 556.107 195.318 553.5 194.5C553.709 193.914 554.043 193.414 554.5 193C558.028 192.911 561.362 192.244 564.5 191C562.1 190.814 559.766 190.314 557.5 189.5C559 189.167 560.5 188.833 562 188.5C563.986 188.569 565.486 189.235 566.5 190.5Z" fill="#1a1a1a" fill-rule="evenodd" opacity="1" stroke="none"/>
<path d="M661.5 200.5C664.287 199.523 667.287 199.19 670.5 199.5C670.5 200.5 670.5 201.5 670.5 202.5C667.145 202.909 664.145 202.242 661.5 200.5Z" fill="#d9dad9" fill-rule="evenodd" opacity="1" stroke="none"/>
<path d="M639.5 195.5C642.247 195.187 644.914 195.52 647.5 196.5C646.167 196.833 644.833 197.167 643.5 197.5C641.667 197.415 640.334 196.748 639.5 195.5Z" fill="#d0d4d2" fill-rule="evenodd" opacity="1" stroke="none"/>
<path d="M619.5 195.5C622.247 195.187 624.914 195.52 627.5 196.5C626.167 196.833 624.833 197.167 623.5 197.5C621.667 197.415 620.334 196.748 619.5 195.5Z" fill="#e8e8e8" fill-rule="evenodd" opacity="1" stroke="none"/>
<path d="M607.5 195.5C610.898 195.18 614.232 195.513 617.5 196.5C615.833 196.833 614.167 197.167 612.5 197.5C610.36 197.444 608.694 196.777 607.5 195.5Z" fill="#dddede" fill-rule="evenodd" opacity="1" stroke="none"/>
<path d="M588.5 194.5C611.102 196.154 611.102 197.154 588.5 197.5C588.5 196.5 588.5 195.5 588.5 194.5Z" fill="#dadbdb" fill-rule="evenodd" opacity="1" stroke="none"/>
<path d="M575.5 195.5C578.898 195.18 582.232 195.513 585.5 196.5C583.833 196.833 582.167 197.167 580.5 197.5C578.36 197.444 576.694 196.777 575.5 195.5Z" fill="#e8e9e9" fill-rule="evenodd" opacity="1" stroke="none"/>
<path d="M649.5 195.5C652.247 195.187 654.914 195.52 657.5 196.5C656.167 196.833 654.833 197.167 653.5 197.5C651.667 197.415 650.334 196.748 649.5 195.5Z" fill="#e8e9e9" fill-rule="evenodd" opacity="1" stroke="none"/>
<path d="M630.5 194.5C632.833 194.5 635.167 194.5 637.5 194.5C637.5 195.5 637.5 196.5 637.5 197.5C635.167 197.5 632.833 197.5 630.5 197.5C630.5 196.5 630.5 195.5 630.5 194.5Z" fill="#c7c8c8" fill-rule="evenodd" opacity="1" stroke="none"/>
<path d="M563.5 195.5C566.572 195.183 569.572 195.516 572.5 196.5C571 196.833 569.5 197.167 568 197.5C566.014 197.431 564.514 196.765 563.5 195.5Z" fill="#eff0f0" fill-rule="evenodd" opacity="1" stroke="none"/>
<path d="M655.5 191.5C656.043 191.56 656.376 191.893 656.5 192.5C653.691 193.8 651.024 193.8 648.5 192.5C651.059 192.802 653.393 192.468 655.5 191.5Z" fill="#626464" fill-rule="evenodd" opacity="1" stroke="none"/>
<path d="M626.5 191.5C627.043 191.56 627.376 191.893 627.5 192.5C624.691 193.8 622.024 193.8 619.5 192.5C622.059 192.802 624.393 192.468 626.5 191.5Z" fill="#868a88" fill-rule="evenodd" opacity="1" stroke="none"/>
<path d="M577.5 190.5C579.635 192.369 582.302 193.036 585.5 192.5C582.713 193.477 579.713 193.81 576.5 193.5C576.263 192.209 576.596 191.209 577.5 190.5Z" fill="#606462" fill-rule="evenodd" opacity="1" stroke="none"/>
<path d="M566.5 190.5C568.635 192.369 571.302 193.036 574.5 192.5C571.713 193.477 568.713 193.81 565.5 193.5C565.263 192.209 565.596 191.209 566.5 190.5Z" fill="#7e8180" fill-rule="evenodd" opacity="1" stroke="none"/>
<path d="M628.5 190.5C631.247 190.187 633.914 190.52 636.5 191.5C635.167 191.833 633.833 192.167 632.5 192.5C630.667 192.415 629.334 191.748 628.5 190.5Z" fill="#e7e8e8" fill-rule="evenodd" opacity="1" stroke="none"/>
<path d="M626.5 191.5C624.393 192.468 622.059 192.802 619.5 192.5C620.152 191.275 621.319 190.608 623 190.5C624.385 190.514 625.551 190.848 626.5 191.5Z" fill="#f7f7f7" fill-rule="evenodd" opacity="1" stroke="none"/>
<path d="M539.5 209.5C587.168 209.333 634.834 209.5 682.5 210C658.645 211.163 634.645 211.663 610.5 211.5C586.49 211.5 562.824 210.833 539.5 209.5Z" fill="#a3a4a4" fill-rule="evenodd" opacity="1" stroke="none"/>
</g>
</svg>