<?xml version="1.0" encoding="UTF-8"?>
<svg xmlns="http://www.w3.org/2000/svg" version="1.1" viewBox="205.34 203.92 175.41 94.47" width="175.41" height="94.47" style="fill-rule:nonzero;clip-rule:evenodd;stroke-linecap:round;stroke-linejoin:round;" xml:space="preserve">
<g opacity="1">
<path d="M365.5 269.5C364.833 269.5 364.5 269.833 364.5 270.5C362.167 266.5 359.833 262.5 357.5 258.5C357.167 257.833 356.833 257.167 356.5 256.5C354.497 251.829 352.497 247.162 350.5 242.5C347.833 241.833 345.167 241.167 342.5 240.5C344.604 240.799 346.604 240.466 348.5 239.5C346.262 235.697 344.596 231.697 343.5 227.5C340.167 227.5 336.833 227.5 333.5 227.5C332.778 227.918 332.278 228.584 332 229.5C331.819 226.305 331.319 223.305 330.5 220.5C326.167 220.5 321.833 220.5 317.5 220.5C317.5 222.167 317.5 223.833 317.5 225.5C317.194 228.385 317.527 231.052 318.5 233.5C319.791 233.263 320.791 233.596 321.5 234.5C320.167 234.5 318.833 234.5 317.5 234.5C317.5 238.833 317.5 243.167 317.5 247.5C317.782 248.778 318.449 249.778 319.5 250.5C318.127 250.657 316.793 250.49 315.5 250C313.583 247.502 311.916 244.835 310.5 242C307.11 241.754 303.777 241.254 300.5 240.5C299.479 241.002 299.312 241.668 300 242.5C303.424 247.022 306.591 251.689 309.5 256.5C308.5 256.5 307.5 256.5 306.5 256.5C304.529 251.671 301.862 247.171 298.5 243C292.091 242.583 285.758 242.25 279.5 242C282.749 246.497 285.749 251.163 288.5 256C291.726 257.199 295.059 257.699 298.5 257.5C301.385 257.194 304.052 257.527 306.5 258.5C305.022 258.238 303.689 258.571 302.5 259.5C305.039 264.608 308.039 269.275 311.5 273.5C308.413 275.017 305.079 275.684 301.5 275.5C301.491 277.308 301.991 278.975 303 280.5C304.699 283.921 306.865 286.921 309.5 289.5C312.984 290.165 316.651 290.499 320.5 290.5C324.756 290.428 328.756 289.761 332.5 288.5C335.817 289.165 339.317 289.499 343 289.5C346.902 289.488 350.402 288.821 353.5 287.5C353.833 287.5 354.167 287.5 354.5 287.5C360.319 288.653 366.319 288.819 372.5 288C371.748 287.329 371.414 286.496 371.5 285.5C372.167 285.5 372.833 285.5 373.5 285.5C374.752 287.339 374.752 289.172 373.5 291C343.505 292.057 313.505 292.39 283.5 292C273.299 273.96 263.299 255.794 253.5 237.5C243.003 253.51 232.67 269.677 222.5 286C218.848 286.499 215.182 286.665 211.5 286.5C211.34 284.801 211.506 283.134 212 281.5C223.792 262.08 235.959 242.913 248.5 224C268.834 223.696 289.168 223.863 309.5 224.5C307.841 220.715 307.341 216.715 308 212.5C316.651 209.92 325.318 209.92 334 212.5C334.565 217.029 334.065 221.363 332.5 225.5C336.767 225.203 340.934 225.536 345 226.5C352.39 240.612 359.224 254.946 365.5 269.5Z" fill="#1a1a1a" fill-rule="evenodd" opacity="1" stroke="none" />
<path d="M350.5 242.5C352.497 247.162 354.497 251.829 356.5 256.5C353.15 256.665 349.817 256.498 346.5 256C343.007 252.015 340.007 247.682 337.5 243C341.821 242.501 346.154 242.334 350.5 242.5Z" fill="#efefef" fill-rule="evenodd" opacity="1" stroke="none" />
<path d="M306.5 256.5C303.615 256.194 300.948 256.527 298.5 257.5C295.059 257.699 291.726 257.199 288.5 256C285.749 251.163 282.749 246.497 279.5 242C285.758 242.25 292.091 242.583 298.5 243C301.862 247.171 304.529 251.671 306.5 256.5Z" fill="#f1f1f2" fill-rule="evenodd" opacity="1" stroke="none" />
<path d="M340.5 256.5C336.486 256.666 332.486 256.499 328.5 256C327.295 254.624 325.962 253.458 324.5 252.5C326.658 250.78 329.325 249.947 332.5 250C333.12 247.527 333.786 245.027 334.5 242.5C337.783 246.223 340.45 250.389 342.5 255C342.164 256.03 341.497 256.53 340.5 256.5Z" fill="#eeeeee" fill-rule="evenodd" opacity="1" stroke="none" />
<path d="M319.5 250.5C321.43 250.771 322.764 251.771 323.5 253.5C323.804 254.15 324.137 254.817 324.5 255.5C319.544 256.494 314.544 256.827 309.5 256.5C306.591 251.689 303.424 247.022 300 242.5C299.312 241.668 299.479 241.002 300.5 240.5C303.777 241.254 307.11 241.754 310.5 242C311.916 244.835 313.583 247.502 315.5 250C316.793 250.49 318.127 250.657 319.5 250.5Z" fill="#eaeaea" fill-rule="evenodd" opacity="1" stroke="none" />
<path d="M259.5 241.5C265.436 241.771 271.436 241.937 277.5 242C280.928 246.886 283.595 252.052 285.5 257.5C279.491 257.666 273.491 257.499 267.5 257C264.169 252.172 261.503 247.005 259.5 241.5Z" fill="#ededee" fill-rule="evenodd" opacity="1" stroke="none" />
<path d="M321.5 234.5C320.791 235.404 319.791 235.737 318.5 235.5C318.5 237.167 318.5 238.833 318.5 240.5C320.833 240.5 323.167 240.5 325.5 240.5C325.719 241.675 325.386 242.675 324.5 243.5C322.591 242.652 320.591 242.318 318.5 242.5C318.5 244.167 318.5 245.833 318.5 247.5C318.167 247.5 317.833 247.5 317.5 247.5C317.5 243.167 317.5 238.833 317.5 234.5C318.833 234.5 320.167 234.5 321.5 234.5Z" fill="#6f6e70" fill-rule="evenodd" opacity="1" stroke="none" />
<path d="M311.5 234.5C312.833 234.5 314.167 234.5 315.5 234.5C315.734 247.435 314.401 247.435 311.5 234.5Z" fill="#f0f0f1" fill-rule="evenodd" opacity="1" stroke="none" />
<path d="M333.5 227.5C336.833 227.5 340.167 227.5 343.5 227.5C344.596 231.697 346.262 235.697 348.5 239.5C346.604 240.466 344.604 240.799 342.5 240.5C339.552 240.777 336.719 240.444 334 239.5C333.501 235.514 333.334 231.514 333.5 227.5Z" fill="#efefef" fill-rule="evenodd" opacity="1" stroke="none" />
<path d="M272.5 226.5C278.842 226.334 285.175 226.5 291.5 227C294.737 230.972 296.737 235.472 297.5 240.5C291.379 240.91 285.379 240.41 279.5 239C276.51 235.182 274.176 231.016 272.5 226.5Z" fill="#f0f0f0" fill-rule="evenodd" opacity="1" stroke="none" />
<path d="M330.5 220.5C330.5 224.833 330.5 229.167 330.5 233.5C325.167 233.833 325.167 234.167 330.5 234.5C330.5 239.167 330.5 243.833 330.5 248.5C326.298 248.817 322.298 248.483 318.5 247.5C318.5 245.833 318.5 244.167 318.5 242.5C320.591 242.318 322.591 242.652 324.5 243.5C325.386 242.675 325.719 241.675 325.5 240.5C323.167 240.5 320.833 240.5 318.5 240.5C318.5 238.833 318.5 237.167 318.5 235.5C319.791 235.737 320.791 235.404 321.5 234.5C320.791 233.596 319.791 233.263 318.5 233.5C318.5 231.5 318.5 229.5 318.5 227.5C320.167 227.5 321.833 227.5 323.5 227.5C323.56 228.043 323.893 228.376 324.5 228.5C329.515 227.193 329.181 226.193 323.5 225.5C321.5 225.5 319.5 225.5 317.5 225.5C317.5 223.833 317.5 222.167 317.5 220.5C321.833 220.5 326.167 220.5 330.5 220.5Z" fill="#e8e8e8" fill-rule="evenodd" opacity="1" stroke="none" />
<path d="M311.5 227.5C312.833 227.5 314.167 227.5 315.5 227.5C315.5 229.5 315.5 231.5 315.5 233.5C314.167 233.5 312.833 233.5 311.5 233.5C311.5 231.5 311.5 229.5 311.5 227.5Z" fill="#ebecec" fill-rule="evenodd" opacity="1" stroke="none" />
<path d="M293.5 227.5C298.316 226.35 303.316 226.184 308.5 227C309.467 231.401 309.8 235.901 309.5 240.5C306.351 240.789 303.351 240.289 300.5 239C298.016 235.186 295.682 231.353 293.5 227.5Z" fill="#e2e3e2" fill-rule="evenodd" opacity="1" stroke="none" />
<path d="M323.5 225.5C329.181 226.193 329.515 227.193 324.5 228.5C323.893 228.376 323.56 228.043 323.5 227.5C323.5 226.833 323.5 226.167 323.5 225.5Z" fill="#2c2c2d" fill-rule="evenodd" opacity="1" stroke="none" />
<path d="M317.5 225.5C319.5 225.5 321.5 225.5 323.5 225.5C323.5 226.167 323.5 226.833 323.5 227.5C321.833 227.5 320.167 227.5 318.5 227.5C318.5 229.5 318.5 231.5 318.5 233.5C317.527 231.052 317.194 228.385 317.5 225.5Z" fill="#7b7a7b" fill-rule="evenodd" opacity="1" stroke="none" />
<path d="M250.5 225.5C257.2 225.17 263.866 225.503 270.5 226.5C272.95 230.714 274.783 235.048 276 239.5C269.83 240.89 263.663 240.723 257.5 239C255.013 234.525 252.68 230.025 250.5 225.5Z" fill="#ededee" fill-rule="evenodd" opacity="1" stroke="none" />
<path d="M311.5 220.5C312.833 220.5 314.167 220.5 315.5 220.5C315.5 222.167 315.5 223.833 315.5 225.5C314.178 225.33 313.011 225.663 312 226.5C311.505 224.527 311.338 222.527 311.5 220.5Z" fill="#eaebeb" fill-rule="evenodd" opacity="1" stroke="none" />
<path d="M317.5 213.5C322.5 213.5 327.5 213.5 332.5 213.5C332.5 215.167 332.5 216.833 332.5 218.5C327.5 218.5 322.5 218.5 317.5 218.5C317.5 216.833 317.5 215.167 317.5 213.5Z" fill="#e9e9e9" fill-rule="evenodd" opacity="1" stroke="none" />
<path d="M309.5 213.5C311.5 213.5 313.5 213.5 315.5 213.5C315.5 215.167 315.5 216.833 315.5 218.5C313.5 218.5 311.5 218.5 309.5 218.5C309.5 216.833 309.5 215.167 309.5 213.5Z" fill="#dbdcdc" fill-rule="evenodd" opacity="1" stroke="none" />
<path d="M247.5 228.5C252.074 231.446 252.574 235.113 249 239.5C239.635 254.034 230.469 268.7 221.5 283.5C218.833 284.833 216.167 284.833 213.5 283.5C225.095 265.306 236.428 246.973 247.5 228.5Z" fill="#eaeaea" fill-rule="evenodd" opacity="1" stroke="none" />
<path d="M324.5 252.5C325.962 253.458 327.295 254.624 328.5 256C332.486 256.499 336.486 256.666 340.5 256.5C337.5 257.167 334.5 257.833 331.5 258.5C329.126 257.314 326.792 257.314 324.5 258.5C320.066 257.206 315.733 257.206 311.5 258.5C309.833 257.167 308.167 257.167 306.5 258.5C304.052 257.527 301.385 257.194 298.5 257.5C300.948 256.527 303.615 256.194 306.5 256.5C307.5 256.5 308.5 256.5 309.5 256.5C314.544 256.827 319.544 256.494 324.5 255.5C324.137 254.817 323.804 254.15 323.5 253.5C323.5 252.833 323.833 252.5 324.5 252.5Z" fill="#3b3c3c" fill-rule="evenodd" opacity="1" stroke="none" />
<path d="M286.5 257.5C291.016 258.949 295.683 259.782 300.5 260C303.518 264.203 305.851 268.703 307.5 273.5C302.961 273.322 298.461 273.655 294 274.5C292.112 274.204 290.278 273.704 288.5 273C285.833 268.667 283.167 264.333 280.5 260C282.974 259.963 284.974 259.13 286.5 257.5Z" fill="#f2f2f2" fill-rule="evenodd" opacity="1" stroke="none" />
<path d="M311.5 258.5C315.081 259.26 318.748 259.76 322.5 260C325.946 263.94 328.279 268.44 329.5 273.5C323.5 273.5 317.5 273.5 311.5 273.5C308.039 269.275 305.039 264.608 302.5 259.5C303.689 258.571 305.022 258.238 306.5 258.5C308.167 257.167 309.833 257.167 311.5 258.5Z" fill="#f1f1f2" fill-rule="evenodd" opacity="1" stroke="none" />
<path d="M357.5 258.5C359.833 262.5 362.167 266.5 364.5 270.5C363.306 271.777 361.64 272.444 359.5 272.5C357.833 272.333 356.167 272.167 354.5 272C351.074 267.152 347.408 262.485 343.5 258C348.107 258.31 352.773 258.476 357.5 258.5Z" fill="#eceded" fill-rule="evenodd" opacity="1" stroke="none" />
<path d="M268.5 260.5C272.019 259.192 275.685 259.192 279.5 260.5C281.453 264.909 283.787 269.076 286.5 273C283.367 274.57 280.033 274.903 276.5 274C273.681 269.519 271.014 265.019 268.5 260.5Z" fill="#ebebeb" fill-rule="evenodd" opacity="1" stroke="none" />
<path d="M330.5 220.5C331.319 223.305 331.819 226.305 332 229.5C332.278 228.584 332.778 227.918 333.5 227.5C333.334 231.514 333.501 235.514 334 239.5C336.719 240.444 339.552 240.777 342.5 240.5C345.167 241.167 347.833 241.833 350.5 242.5C346.154 242.334 341.821 242.501 337.5 243C340.007 247.682 343.007 252.015 346.5 256C349.817 256.498 353.15 256.665 356.5 256.5C356.833 257.167 357.167 257.833 357.5 258.5C352.773 258.476 348.107 258.31 343.5 258C347.408 262.485 351.074 267.152 354.5 272C356.167 272.167 357.833 272.333 359.5 272.5C361.64 272.444 363.306 271.777 364.5 270.5C364.5 269.833 364.833 269.5 365.5 269.5C368.674 274.516 371.341 279.849 373.5 285.5C372.833 285.5 372.167 285.5 371.5 285.5C369.337 282.507 367.67 279.173 366.5 275.5C361.821 275.007 357.321 274.007 353 272.5C351.4 273.866 349.567 274.866 347.5 275.5C349.845 279.528 352.178 283.528 354.5 287.5C354.167 287.5 353.833 287.5 353.5 287.5C350.696 283.846 348.03 280.013 345.5 276C340.647 275.971 335.98 275.138 331.5 273.5C329.672 274.795 327.672 275.795 325.5 276.5C327.845 280.528 330.178 284.528 332.5 288.5C328.756 289.761 324.756 290.428 320.5 290.5C316.651 290.499 312.984 290.165 309.5 289.5C316.532 289.83 323.532 289.497 330.5 288.5C328.167 284.5 325.833 280.5 323.5 276.5C319.878 275.675 316.211 275.175 312.5 275C311.944 274.617 311.611 274.117 311.5 273.5C317.5 273.5 323.5 273.5 329.5 273.5C328.279 268.44 325.946 263.94 322.5 260C318.748 259.76 315.081 259.26 311.5 258.5C315.733 257.206 320.066 257.206 324.5 258.5C326.514 263.357 329.181 267.857 332.5 272C351.49 277.856 354.823 273.522 342.5 259C338.848 258.501 335.182 258.335 331.5 258.5C334.5 257.833 337.5 257.167 340.5 256.5C341.497 256.53 342.164 256.03 342.5 255C340.45 250.389 337.783 246.223 334.5 242.5C333.786 245.027 333.12 247.527 332.5 250C329.325 249.947 326.658 250.78 324.5 252.5C323.833 252.5 323.5 252.833 323.5 253.5C322.764 251.771 321.43 250.771 319.5 250.5C318.449 249.778 317.782 248.778 317.5 247.5C317.833 247.5 318.167 247.5 318.5 247.5C322.298 248.483 326.298 248.817 330.5 248.5C330.5 243.833 330.5 239.167 330.5 234.5C325.167 234.167 325.167 233.833 330.5 233.5C330.5 229.167 330.5 224.833 330.5 220.5Z" fill="#242524" fill-rule="evenodd" opacity="1" stroke="none" />
<path d="M331.5 258.5C335.182 258.335 338.848 258.501 342.5 259C354.823 273.522 351.49 277.856 332.5 272C329.181 267.857 326.514 263.357 324.5 258.5C326.792 257.314 329.126 257.314 331.5 258.5Z" fill="#eeefef" fill-rule="evenodd" opacity="1" stroke="none" />
<path d="M371.5 285.5C371.414 286.496 371.748 287.329 372.5 288C366.319 288.819 360.319 288.653 354.5 287.5C352.178 283.528 349.845 279.528 347.5 275.5C349.567 274.866 351.4 273.866 353 272.5C357.321 274.007 361.821 275.007 366.5 275.5C367.67 279.173 369.337 282.507 371.5 285.5Z" fill="#f1f1f1" fill-rule="evenodd" opacity="1" stroke="none" />
<path d="M311.5 273.5C311.611 274.117 311.944 274.617 312.5 275C316.211 275.175 319.878 275.675 323.5 276.5C325.833 280.5 328.167 284.5 330.5 288.5C323.532 289.497 316.532 289.83 309.5 289.5C306.865 286.921 304.699 283.921 303 280.5C301.991 278.975 301.491 277.308 301.5 275.5C305.079 275.684 308.413 275.017 311.5 273.5Z" fill="#f3f3f3" fill-rule="evenodd" opacity="1" stroke="none" />
<path d="M353.5 287.5C350.402 288.821 346.902 289.488 343 289.5C339.317 289.499 335.817 289.165 332.5 288.5C330.178 284.528 327.845 280.528 325.5 276.5C327.672 275.795 329.672 274.795 331.5 273.5C335.98 275.138 340.647 275.971 345.5 276C348.03 280.013 350.696 283.846 353.5 287.5Z" fill="#f1f1f2" fill-rule="evenodd" opacity="1" stroke="none" />
<path d="M286.5 274.5C290.472 275.108 294.472 275.608 298.5 276C301.293 280.418 303.959 284.918 306.5 289.5C299.167 290.833 291.833 290.833 284.5 289.5C282.04 285.414 279.707 281.247 277.5 277C280.851 276.943 283.851 276.109 286.5 274.5Z" fill="#f0f0f0" fill-rule="evenodd" opacity="1" stroke="none" />
</g>

</svg>