<?xml version="1.0" encoding="UTF-8"?>
<svg xmlns="http://www.w3.org/2000/svg" version="1.1" viewBox="422.80 188.50 109.31 124.09" width="109.31" height="124.09" style="fill-rule:nonzero;clip-rule:evenodd;stroke-linecap:round;stroke-linejoin:round;" xml:space="preserve">
<g opacity="1">
<path d="M471.5 194.5C478.769 194.891 483.603 198.558 486 205.5C487.859 214.739 487.359 223.905 484.5 233C484.833 233.833 485.167 234.667 485.5 235.5C496.654 232.578 507.654 233.078 518.5 237C523.381 241.896 523.715 247.063 519.5 252.5C525.778 258.087 526.111 264.087 520.5 270.5C524.811 276.545 524.311 282.212 519 287.5C518.87 291.951 518.204 296.284 517 300.5C509.042 305.124 500.542 306.457 491.5 304.5C482.886 306.092 474.219 306.592 465.5 306C460.777 304.804 456.443 302.804 452.5 300C445.919 299.813 439.419 299.313 433 298.5C429.462 285.286 428.796 271.952 431 258.5C431.5 258 432 257.5 432.5 257C436.5 256.667 440.5 256.333 444.5 256C446.286 255.215 447.786 254.049 449 252.5C456.278 241.277 461.944 229.277 466 216.5C466.333 210.5 466.667 204.5 467 198.5C468.397 196.93 469.897 195.596 471.5 194.5Z" fill="#1c1c1c" fill-rule="evenodd" opacity="1" stroke="none" />
<path d="M470.5 197.5C477.668 197.161 482.168 200.495 484 207.5C484.667 212.833 484.667 218.167 484 223.5C482.781 227.93 481.947 232.43 481.5 237C481.329 240.129 482.162 242.963 484 245.5C486.467 254.427 485.8 263.093 482 271.5C479.994 274.672 477.494 277.338 474.5 279.5C474.667 279.833 474.833 280.167 475 280.5C479.592 278.32 483.092 274.987 485.5 270.5C486.478 270.977 487.311 271.643 488 272.5C486.97 274.947 486.137 277.614 485.5 280.5C485.768 283.703 487.102 286.37 489.5 288.5C485.567 293.002 485.567 297.502 489.5 302C480.896 303.542 472.23 303.876 463.5 303C459.221 301.527 455.221 299.527 451.5 297C445.843 296.501 440.176 296.334 434.5 296.5C431.321 284.605 430.821 272.605 433 260.5C437.074 259.403 441.24 258.57 445.5 258C447.96 256.542 450.127 254.709 452 252.5C458.94 241.953 464.273 230.62 468 218.5C468.333 212.5 468.667 206.5 469 200.5C469.513 199.473 470.013 198.473 470.5 197.5Z" fill="#f5f5f5" fill-rule="evenodd" opacity="1" stroke="none" />
<path d="M485.5 236.5C495.58 236.077 505.58 236.577 515.5 238C520.446 242.3 520.779 246.967 516.5 252C507.915 256.273 498.915 257.44 489.5 255.5C486.373 250.645 487.373 246.812 492.5 244C496.533 243.305 500.533 242.472 504.5 241.5C497.874 240.159 491.874 241.492 486.5 245.5C484.675 242.577 484.341 239.577 485.5 236.5Z" fill="#f2f2f2" fill-rule="evenodd" opacity="1" stroke="none" />
<path d="M516.5 254.5C518.371 254.859 519.871 255.859 521 257.5C522.262 261.909 521.428 265.743 518.5 269C509.786 272.259 500.786 273.259 491.5 272C485.864 268.797 485.198 264.797 489.5 260C499 260.001 508 258.167 516.5 254.5Z" fill="#f1f1f2" fill-rule="evenodd" opacity="1" stroke="none" />
<path d="M514.5 272.5C519.282 271.614 521.616 273.614 521.5 278.5C520.942 282.775 518.609 285.608 514.5 287C507.89 288.441 501.224 288.774 494.5 288C488.259 285.67 486.926 281.67 490.5 276C498.878 276.218 506.878 275.052 514.5 272.5Z" fill="#eff0f0" fill-rule="evenodd" opacity="1" stroke="none" />
<path d="M491.5 289.5C499.489 290.533 507.489 290.7 515.5 290C517.589 296.481 515.256 300.481 508.5 302C503.5 302.667 498.5 302.667 493.5 302C487.842 298.551 487.175 294.385 491.5 289.5Z" fill="#eeeeef" fill-rule="evenodd" opacity="1" stroke="none" />
</g>

</svg>