<?xml version="1.0" encoding="UTF-8" standalone="no"?>
<svg xmlns="http://www.w3.org/2000/svg" fill-rule="nonzero" clip-rule="evenodd" stroke-miterlimit="10" style="fill-rule:nonzero;clip-rule:evenodd;stroke-linecap:round;stroke-linejoin:round;"
     viewBox="777.5 23.5 211.5 198.7" xml:space="preserve">
<g opacity="1">
<path d="M818.5 35.5C841.801 35.633 853.801 47.4664 854.5 71C853.13 83.1627 851.797 95.3294 850.5 107.5C850.676 112.215 851.676 116.715 853.5 121C854.167 121.667 854.833 121.667 855.5 121C869.731 104.442 887.064 100.109 907.5 108C922.263 115.772 932.43 127.605 938 143.5C947.938 159.348 959.438 160.515 972.5 147C974.112 146.28 975.612 146.446 977 147.5C976.119 165.718 966.953 177.551 949.5 183C942.888 184.21 936.222 184.71 929.5 184.5C929.929 191.947 929.429 199.281 928 206.5C920.372 209.745 912.539 210.245 904.5 208C903.643 207.311 902.977 206.478 902.5 205.5C897.423 204.895 892.423 204.062 887.5 203C886.892 201.769 886.559 200.436 886.5 199C887.276 195.511 887.942 192.011 888.5 188.5C883.13 188.608 877.797 188.275 872.5 187.5C872.666 192.511 872.499 197.511 872 202.5C871.705 204.931 870.538 206.764 868.5 208C861.5 210 854.5 210 847.5 208C842.734 205.047 837.401 203.714 831.5 204C827.335 202.517 825.835 199.684 827 195.5C828.252 193.999 829.252 192.332 830 190.5C830.667 182.5 830.667 174.5 830 166.5C822.615 155.721 819.115 143.721 819.5 130.5C820.575 118.385 822.408 106.385 825 94.5C825.667 91.1667 825.667 87.8333 825 84.5C818.897 86.7331 812.73 86.8998 806.5 85C801.737 82.2024 797.237 79.0357 793 75.5C789.483 68.6637 789.816 61.9971 794 55.5C798.509 48.957 804.009 43.457 810.5 39C813.309 37.9066 815.976 36.7399 818.5 35.5Z" fill="#1a1a1a" fill-rule="evenodd" opacity="1" stroke="none"/>
<path d="M855.5 125.5C855.369 126.376 855.702 127.043 856.5 127.5C859.412 126.459 862.078 125.125 864.5 123.5C865.491 130.326 869.158 132.493 875.5 130C876.636 128.855 877.636 127.688 878.5 126.5C879.268 125.737 879.768 124.737 880 123.5C880.202 125.256 880.702 126.922 881.5 128.5C882.474 126.257 882.808 123.924 882.5 121.5C885.518 121.335 888.518 121.502 891.5 122C892.833 124.667 892.833 127.333 891.5 130C893.342 129.932 895.009 130.099 896.5 130.5C901.943 133.917 905.943 132.75 908.5 127C907.876 124.915 906.876 123.082 905.5 121.5C906.5 120.5 907.5 119.5 908.5 118.5C911.355 126.598 916.188 128.264 923 123.5C924.667 125.5 926.333 127.5 928 129.5C931.412 136.658 935.078 143.658 939 150.5C946.707 159.002 955.874 160.836 966.5 156C969.28 154.188 971.78 152.021 974 149.5C972.68 165.627 964.18 175.793 948.5 180C942.231 181.257 935.898 181.757 929.5 181.5C930.205 178.756 930.205 176.089 929.5 173.5C928.376 175.369 927.543 177.369 927 179.5C926.667 187.833 926.333 196.167 926 204.5C922.636 205.739 919.136 206.406 915.5 206.5C914.833 199.833 914.167 199.833 913.5 206.5C912.167 206.5 910.833 206.5 909.5 206.5C909.799 204.396 909.466 202.396 908.5 200.5C907.548 202.045 907.215 203.712 907.5 205.5C906.5 205.5 905.5 205.5 904.5 205.5C906.06 199.956 906.56 194.289 906 188.5C901.999 182.838 899.999 176.505 900 169.5C898.153 174.13 898.32 178.797 900.5 183.5C892.217 185.595 883.884 185.929 875.5 184.5C874.775 180.468 873.942 176.468 873 172.5C871.011 182.732 869.678 193.065 869 203.5C868.5 204.667 867.667 205.5 866.5 206C863.854 206.497 861.187 206.664 858.5 206.5C857.833 199.833 857.167 199.833 856.5 206.5C854.833 206.5 853.167 206.5 851.5 206.5C851.357 204.738 851.691 203.071 852.5 201.5C851.635 200.417 850.635 200.251 849.5 201C850.196 202.488 849.862 203.988 848.5 205.5C847.054 204.829 846.388 203.662 846.5 202C850.331 191.124 850.164 180.29 846 169.5C845.814 171.9 845.314 174.234 844.5 176.5C831.849 167.965 824.682 155.965 823 140.5C822.355 131.801 822.688 123.135 824 114.5C826.531 103.952 828.364 93.2853 829.5 82.5C831.354 81.8244 831.687 80.8244 830.5 79.5C822.966 83.3777 815.299 84.0444 807.5 81.5C815.228 80.8078 821.228 77.3078 825.5 71C824.975 70.3076 824.308 69.8076 823.5 69.5C817.745 77.3727 810.079 80.206 800.5 78C795.481 75.7934 793.147 71.96 793.5 66.5C793.295 63.2054 794.128 60.2054 796 57.5C800.189 52.3133 804.689 47.48 809.5 43C823.356 35.6722 835.522 37.8388 846 49.5C849.858 56.308 851.692 63.6414 851.5 71.5C850.913 79.1922 850.08 86.8589 849 94.5C848.333 101.833 848.333 109.167 849 116.5C849.242 121.013 851.408 124.013 855.5 125.5Z" fill="#f6f6f6" fill-rule="evenodd" opacity="1" stroke="none"/>
<path d="M804.5 65.5C805.797 66.8488 805.63 68.1821 804 69.5C803.421 68.0715 803.588 66.7382 804.5 65.5Z" fill="#161515" fill-rule="evenodd" opacity="1" stroke="none"/>
<path d="M795.5 65.5C797.465 65.9483 797.798 66.9483 796.5 68.5C795.614 67.675 795.281 66.675 795.5 65.5Z" fill="#353536" fill-rule="evenodd" opacity="1" stroke="none"/>
<path d="M821.5 48.5C827.095 49.5601 828.929 52.8935 827 58.5C821.893 63.176 819.06 62.0093 818.5 55C818.391 52.2884 819.391 50.1217 821.5 48.5Z" fill="#121112" fill-rule="evenodd" opacity="1" stroke="none"/>
<path d="M822.5 51.5C824.337 51.6395 824.67 52.3061 823.5 53.5C822.702 53.0431 822.369 52.3764 822.5 51.5Z" fill="#b7b9b4" fill-rule="evenodd" opacity="1" stroke="none"/>
<path d="M880.5 107.5C885.511 107.334 890.511 107.501 895.5 108C896.885 112.326 895.218 114.992 890.5 116C883.065 117.38 879.732 114.546 880.5 107.5Z" fill="#efefef" fill-rule="evenodd" opacity="1" stroke="none"/>
<path d="M908.5 118.5C907.5 119.5 906.5 120.5 905.5 121.5C896.833 118.833 893.833 121.833 896.5 130.5C895.009 130.099 893.342 129.932 891.5 130C892.833 127.333 892.833 124.667 891.5 122C888.518 121.502 885.518 121.335 882.5 121.5C882.808 123.924 882.474 126.257 881.5 128.5C880.702 126.922 880.202 125.256 880 123.5C879.768 124.737 879.268 125.737 878.5 126.5C878.003 120.404 874.669 117.904 868.5 119C866.93 120.397 865.596 121.897 864.5 123.5C862.078 125.125 859.412 126.459 856.5 127.5C855.702 127.043 855.369 126.376 855.5 125.5C860.898 117.426 868.231 112.093 877.5 109.5C878.293 115.292 881.626 118.292 887.5 118.5C894.455 118.538 898.122 115.205 898.5 108.5C902.863 108.835 906.53 110.501 909.5 113.5C908.691 115.071 908.357 116.738 908.5 118.5Z" fill="#ebebeb" fill-rule="evenodd" opacity="1" stroke="none"/>
<path d="M911.5 114.5C914.989 115.477 917.823 117.477 920 120.5C920.611 124.088 919.111 125.254 915.5 124C912.038 121.761 910.705 118.594 911.5 114.5Z" fill="#efefef" fill-rule="evenodd" opacity="1" stroke="none"/>
<path d="M878.5 126.5C877.636 127.688 876.636 128.855 875.5 130C869.158 132.493 865.491 130.326 864.5 123.5C865.596 121.897 866.93 120.397 868.5 119C874.669 117.904 878.003 120.404 878.5 126.5Z" fill="#202021" fill-rule="evenodd" opacity="1" stroke="none"/>
<path d="M870.5 120.5C874.791 120.93 876.458 123.097 875.5 127C869.782 130.106 867.282 128.606 868 122.5C868.995 121.934 869.828 121.267 870.5 120.5Z" fill="#e2e2e2" fill-rule="evenodd" opacity="1" stroke="none"/>
<path d="M905.5 121.5C906.876 123.082 907.876 124.915 908.5 127C905.943 132.75 901.943 133.917 896.5 130.5C893.833 121.833 896.833 118.833 905.5 121.5Z" fill="#1b1b1b" fill-rule="evenodd" opacity="1" stroke="none"/>
<path d="M898.5 122.5C901.967 122.446 904.634 123.946 906.5 127C903.872 131.326 901.039 131.492 898 127.5C897.36 125.735 897.527 124.068 898.5 122.5Z" fill="#e8e8e8" fill-rule="evenodd" opacity="1" stroke="none"/>
<path d="M919.5 132.5C925.02 131.684 928.353 134.017 929.5 139.5C928.148 143.254 925.482 144.421 921.5 143C917.095 140.214 916.429 136.714 919.5 132.5Z" fill="#1f2020" fill-rule="evenodd" opacity="1" stroke="none"/>
<path d="M920.5 134.5C925.323 134.327 927.323 136.661 926.5 141.5C921.677 141.673 919.677 139.339 920.5 134.5Z" fill="#eceded" fill-rule="evenodd" opacity="1" stroke="none"/>
<path d="M833.5 171.5C836.916 175.245 840.916 178.245 845.5 180.5C847.447 184.626 847.947 188.96 847 193.5C845.803 196.089 844.803 198.756 844 201.5C842.301 202.406 840.467 202.739 838.5 202.5C838.785 200.712 838.452 199.045 837.5 197.5C836.571 198.689 836.238 200.022 836.5 201.5C835.5 201.5 834.5 201.5 833.5 201.5C834.766 194.255 833.933 193.922 831 200.5C830.13 199.892 829.63 199.059 829.5 198C833.109 189.564 834.442 180.731 833.5 171.5Z" fill="#eaebeb" fill-rule="evenodd" opacity="1" stroke="none"/>
<path d="M901.5 201.5C900.5 201.5 899.5 201.5 898.5 201.5C898.768 199.901 898.434 198.568 897.5 197.5C896.549 198.919 896.216 200.585 896.5 202.5C895.178 202.67 894.011 202.337 893 201.5C893.046 199.687 892.88 198.021 892.5 196.5C891.571 197.689 891.238 199.022 891.5 200.5C890.5 200.5 889.5 200.5 888.5 200.5C890.386 196.387 891.386 192.054 891.5 187.5C895.296 187.218 898.963 187.218 902.5 187.5C903.447 189.059 904.113 190.726 904.5 192.5C903.692 195.592 902.692 198.592 901.5 201.5Z" fill="#e4e5e5" fill-rule="evenodd" opacity="1" stroke="none"/>
<path d="M897.5 197.5C898.434 198.568 898.768 199.901 898.5 201.5C899.5 201.5 900.5 201.5 901.5 201.5C900.432 202.434 899.099 202.768 897.5 202.5C897.5 200.833 897.5 199.167 897.5 197.5Z" fill="#747373" fill-rule="evenodd" opacity="1" stroke="none"/>
</g>
</svg>