<?xml version="1.0" encoding="UTF-8"?>
<svg xmlns="http://www.w3.org/2000/svg" version="1.1" viewBox="61.00 191.89 87.00 135.31" width="87.00" height="135.31" style="fill-rule:nonzero;clip-rule:evenodd;stroke-linecap:round;stroke-linejoin:round;" xml:space="preserve">
<g opacity="1">
<path d="M119.5 199.5C131.377 197.886 136.877 202.886 136 214.5C134.682 217.801 132.848 220.801 130.5 223.5C133.673 225.587 137.006 227.421 140.5 229C141.126 229.75 141.626 230.584 142 231.5C141.344 257.836 141.344 284.17 142 310.5C137.811 314.178 132.977 316.678 127.5 318C113.233 320.858 98.8994 321.192 84.5 319C77.5732 317.788 71.7399 314.621 67 309.5C68.1051 297.016 68.6051 284.35 68.5 271.5C68.5945 258.323 68.0945 245.323 67 232.5C72.5481 225.977 79.7148 222.477 88.5 222C94.4908 221.501 100.491 221.334 106.5 221.5C108.294 212.566 112.627 205.232 119.5 199.5Z" fill="#141414" fill-rule="evenodd" opacity="1" stroke="none" />
<path d="M72.5 243.5C94.1631 251.472 115.83 251.472 137.5 243.5C138.497 263.66 138.83 283.993 138.5 304.5C127.729 310.665 116.063 313.332 103.5 312.5C91.8226 313.238 81.156 310.572 71.5 304.5C71.1695 283.993 71.5028 263.66 72.5 243.5Z" fill="#f8f8f8" fill-rule="evenodd" opacity="1" stroke="none" />
<path d="M69.5 234.5C73.0252 237.431 77.0252 239.598 81.5 241C100.126 245.031 118.459 244.031 136.5 238C137.713 235.674 139.046 235.341 140.5 237C139.899 238.605 138.899 239.938 137.5 241C117.718 248.586 97.7184 249.252 77.5 243C74.7513 241.877 72.2513 240.377 70 238.5C69.51 237.207 69.3433 235.873 69.5 234.5Z" fill="#dcdddd" fill-rule="evenodd" opacity="1" stroke="none" />
<path d="M89.5 228.5C94.544 228.173 99.544 228.506 104.5 229.5C106.057 233.728 109.057 236.061 113.5 236.5C118.073 235.547 122.073 233.547 125.5 230.5C129.274 231.142 132.608 232.642 135.5 235C131.503 237.445 127.169 239.112 122.5 240C108.002 242.468 93.6686 241.802 79.5 238C77.4453 237.313 75.7786 236.146 74.5 234.5C79.275 231.692 84.275 229.692 89.5 228.5Z" fill="#efefef" fill-rule="evenodd" opacity="1" stroke="none" />
<path d="M126.5 226.5C131.52 226.676 135.854 228.509 139.5 232C138.975 232.692 138.308 233.192 137.5 233.5C134.543 231.188 131.209 229.688 127.5 229C126.748 228.329 126.414 227.496 126.5 226.5Z" fill="#e2e2e2" fill-rule="evenodd" opacity="1" stroke="none" />
<path d="M89.5 223.5C94.8746 223.172 100.208 223.505 105.5 224.5C105.291 225.086 104.957 225.586 104.5 226C95.6646 226.25 86.9979 227.584 78.5 230C76.3359 230.914 74.3359 232.081 72.5 233.5C71.246 231.741 71.5794 230.241 73.5 229C78.7578 226.597 84.0911 224.764 89.5 223.5Z" fill="#dfdfe0" fill-rule="evenodd" opacity="1" stroke="none" />
<path d="M120.5 201.5C134.846 202.193 138.013 208.526 130 220.5C125.5 225 121 229.5 116.5 234C108.115 234.591 105.282 230.758 108 222.5C110.168 214.141 114.335 207.141 120.5 201.5Z" fill="#ebebeb" fill-rule="evenodd" opacity="1" stroke="none" />
<path d="M112.5 220.5C117.083 219.343 119.75 221.01 120.5 225.5C119.481 228.684 117.314 230.684 114 231.5C108.534 228.615 108.034 224.948 112.5 220.5Z" fill="#252525" fill-rule="evenodd" opacity="1" stroke="none" />
<path d="M114.5 222.5C117.244 223.072 118.077 224.738 117 227.5C115.301 228.406 113.467 228.739 111.5 228.5C111.615 226.053 112.615 224.053 114.5 222.5Z" fill="#d5d5d5" fill-rule="evenodd" opacity="1" stroke="none" />
<path d="M121.5 204.5C128.825 203.992 131.658 207.326 130 214.5C125.246 219.951 120.913 219.617 117 213.5C116.333 212.167 116.333 210.833 117 209.5C118.707 207.963 120.207 206.296 121.5 204.5Z" fill="#222323" fill-rule="evenodd" opacity="1" stroke="none" />
<path d="M122.5 206.5C128.643 207.026 129.976 209.86 126.5 215C120.906 216.913 118.739 215.08 120 209.5C121.045 208.627 121.878 207.627 122.5 206.5Z" fill="#e8e9e8" fill-rule="evenodd" opacity="1" stroke="none" />
<path d="M72.5 243.5C71.5028 263.66 71.1695 283.993 71.5 304.5C70.1719 283.996 70.1719 263.329 71.5 242.5C72.1067 242.624 72.44 242.957 72.5 243.5Z" fill="#bdbbbd" fill-rule="evenodd" opacity="1" stroke="none" />
<path d="M137.5 243.5C137.56 242.957 137.893 242.624 138.5 242.5C139.828 263.329 139.828 283.996 138.5 304.5C138.83 283.993 138.497 263.66 137.5 243.5Z" fill="#858885" fill-rule="evenodd" opacity="1" stroke="none" />
<path d="M69.5 305.5C76.2287 310.609 83.8954 313.442 92.5 314C109.004 316.249 124.671 313.749 139.5 306.5C140.754 308.259 140.421 309.759 138.5 311C119.339 319.275 99.6723 320.609 79.5 315C76.8333 313.667 74.1667 312.333 71.5 311C69.8446 309.556 69.178 307.722 69.5 305.5Z" fill="#e4e4e4" fill-rule="evenodd" opacity="1" stroke="none" />
</g>

</svg>