<?xml version="1.0" encoding="UTF-8"?>
<svg xmlns="http://www.w3.org/2000/svg" version="1.1" viewBox="754.33 195.52 176.20 132.11" width="176.20" height="132.11" style="fill-rule:nonzero;clip-rule:evenodd;stroke-linecap:round;stroke-linejoin:round;" xml:space="preserve">
<g opacity="1">
<path d="M915.5 266.5C915.44 265.957 915.107 265.624 914.5 265.5C913.52 268.086 913.187 270.753 913.5 273.5C912.436 280.191 910.269 286.524 907 292.5C905.865 299.782 905.199 307.115 905 314.5C903.891 316.815 902.057 318.315 899.5 319C896.5 319.167 893.5 319.333 890.5 319.5C883.408 317.688 876.075 316.521 868.5 316C866.643 314.818 865.643 313.151 865.5 311C866.256 307.875 866.589 304.709 866.5 301.5C861.833 301.5 857.167 301.5 852.5 301.5C852.691 306.899 852.191 312.233 851 317.5C850.097 318.701 848.931 319.535 847.5 320C841.881 321.299 836.214 321.632 830.5 321C824.935 318.103 818.935 316.77 812.5 317C810.714 316.215 809.214 315.049 808 313.5C808.39 305.52 808.39 297.52 808 289.5C796.122 301.595 782.622 303.762 767.5 296C765.643 294.818 764.643 293.151 764.5 291C765.914 288.049 766.747 284.882 767 281.5C771.246 278.486 774.746 279.319 777.5 284C785.747 284.433 790.414 280.433 791.5 272C791.507 270.188 790.84 268.688 789.5 267.5C777.163 268.494 770.829 262.828 770.5 250.5C765.263 249.765 762.096 246.765 761 241.5C760.333 238.833 760.333 236.167 761 233.5C763.726 224.215 767.893 215.715 773.5 208C783.719 201.523 793.386 202.356 802.5 210.5C812.084 204.787 822.418 202.954 833.5 205C839.574 206.353 845.074 208.853 850 212.5C871.272 202.635 884.772 208.968 890.5 231.5C903.391 237.229 911.891 246.895 916 260.5C917.317 265.1 918.317 269.766 919 274.5C920.333 276.5 921.667 278.5 923 280.5C924.53 288.357 922.863 289.691 918 284.5C917.851 278.521 917.018 272.521 915.5 266.5Z" fill="#1a1a1a" fill-rule="evenodd" opacity="1" stroke="none" />
<path d="M779.5 206.5C784.58 206.25 789.58 206.75 794.5 208C796.717 209.268 798.717 210.768 800.5 212.5C786.375 227.238 782.042 244.571 787.5 264.5C777.974 264.809 773.141 260.142 773 250.5C764.391 246.945 761.391 240.612 764 231.5C766.278 225.333 768.945 219.333 772 213.5C774.396 210.933 776.896 208.6 779.5 206.5Z" fill="#f3f3f3" fill-rule="evenodd" opacity="1" stroke="none" />
<path d="M816.5 206.5C827.879 204.866 838.212 207.366 847.5 214C845.74 214.965 845.406 216.132 846.5 217.5C855.926 210.11 866.259 208.61 877.5 213C887.631 222.407 890.131 233.574 885 246.5C882 249.167 879 251.833 876 254.5C874.967 269.762 867.134 275.262 852.5 271C849.37 268.872 846.537 266.372 844 263.5C842.228 269.272 838.394 273.106 832.5 275C827.272 277.147 821.939 277.647 816.5 276.5C818.279 273.885 818.945 271.218 818.5 268.5C814.598 277.248 809.265 285.081 802.5 292C796.981 295.951 790.815 298.118 784 298.5C778.22 297.514 772.72 295.847 767.5 293.5C767.321 291.046 767.987 288.879 769.5 287C768.852 285.56 768.519 284.06 768.5 282.5C772.756 284.769 777.422 286.269 782.5 287C784.422 290.346 785.089 290.346 784.5 287C786.349 285.907 788.016 284.574 789.5 283C791.464 282.376 793.131 282.876 794.5 284.5C794.833 284.167 795.167 283.833 795.5 283.5C794.167 282.167 792.833 280.833 791.5 279.5C792.074 277.941 792.74 276.441 793.5 275C796.2 274.747 798.867 274.747 801.5 275C799.35 273.589 797.016 272.755 794.5 272.5C794.508 269.455 794.841 266.455 795.5 263.5C798.889 263.632 802.223 263.799 805.5 264C802.722 262.608 799.722 262.108 796.5 262.5C797.231 260.401 797.231 258.401 796.5 256.5C794.402 259.545 792.902 262.878 792 266.5C783.783 246.06 787.616 228.227 803.5 213C807.657 210.255 811.99 208.088 816.5 206.5Z" fill="#f5f5f5" fill-rule="evenodd" opacity="1" stroke="none" />
<path d="M881.5 310.5C881.828 305.125 881.495 299.792 880.5 294.5C879.893 294.624 879.56 294.957 879.5 295.5C878.596 296.209 878.263 297.209 878.5 298.5C872.841 298.87 867.174 299.203 861.5 299.5C857.972 299.411 854.638 298.744 851.5 297.5C850.808 298.025 850.308 298.692 850 299.5C849.667 305.167 849.333 310.833 849 316.5C846.096 318.227 842.93 318.893 839.5 318.5C839.88 316.302 839.213 314.635 837.5 313.5C834.403 314.072 831.403 313.406 828.5 311.5C828.666 305.491 828.499 299.491 828 293.5C826.887 292.289 825.72 292.289 824.5 293.5C822.668 292.752 821.001 291.752 819.5 290.5C818.479 291.002 818.312 291.668 819 292.5C820.828 294.081 822.828 295.415 825 296.5C825.819 302.681 825.653 308.681 824.5 314.5C823.167 314.5 821.833 314.5 820.5 314.5C820.737 313.209 820.404 312.209 819.5 311.5C818.745 308.872 817.245 308.205 815 309.5C813.915 308.707 812.748 308.04 811.5 307.5C810.336 300.524 810.169 293.524 811 286.5C812.366 284.63 813.533 282.63 814.5 280.5C826.481 280.899 836.647 276.899 845 268.5C852.158 275.664 860.325 277.164 869.5 273C875.377 268.683 878.211 262.849 878 255.5C886.422 251.103 890.256 244.103 889.5 234.5C903.992 239.85 911.325 250.35 911.5 266C911.258 276.138 908.758 285.638 904 294.5C903.333 301.167 902.667 307.833 902 314.5C899.2 316.495 896.033 317.495 892.5 317.5C892.739 315.533 892.406 313.699 891.5 312C888.146 311.545 884.813 311.045 881.5 310.5Z" fill="#f5f5f5" fill-rule="evenodd" opacity="1" stroke="none" />
<path d="M795.5 240.5C796.822 240.33 797.989 240.663 799 241.5C799.667 243.5 799.667 245.5 799 247.5C796.2 249.118 794.7 248.285 794.5 245C794.773 243.467 795.106 241.967 795.5 240.5Z" fill="#131313" fill-rule="evenodd" opacity="1" stroke="none" />
<path d="M823.5 243.5C824.822 243.33 825.989 243.663 827 244.5C827.497 246.81 827.663 249.143 827.5 251.5C825.833 251.5 824.167 251.5 822.5 251.5C822.279 248.721 822.612 246.054 823.5 243.5Z" fill="#0e0e0f" fill-rule="evenodd" opacity="1" stroke="none" />
<path d="M915.5 266.5C914.833 268.833 914.167 271.167 913.5 273.5C913.187 270.753 913.52 268.086 914.5 265.5C915.107 265.624 915.44 265.957 915.5 266.5Z" fill="#6d6b70" fill-rule="evenodd" opacity="1" stroke="none" />
<path d="M918.5 279.5C920.832 280.162 921.499 281.495 920.5 283.5C919.295 282.423 918.628 281.09 918.5 279.5Z" fill="#cdcecc" fill-rule="evenodd" opacity="1" stroke="none" />
<path d="M875.5 300.5C876.5 300.5 877.5 300.5 878.5 300.5C878.5 305.167 878.5 309.833 878.5 314.5C876.833 314.5 875.167 314.5 873.5 314.5C873.5 312.5 873.5 310.5 873.5 308.5C871.833 308.5 870.167 308.5 868.5 308.5C868.5 306.167 868.5 303.833 868.5 301.5C871.059 301.802 873.393 301.468 875.5 300.5Z" fill="#eaeaea" fill-rule="evenodd" opacity="1" stroke="none" />
<path d="M879.5 295.5C879.56 294.957 879.893 294.624 880.5 294.5C881.495 299.792 881.828 305.125 881.5 310.5C880.833 305.5 880.167 300.5 879.5 295.5Z" fill="#898588" fill-rule="evenodd" opacity="1" stroke="none" />
<path d="M810.5 309.5C812.912 309.694 813.912 311.027 813.5 313.5C812.5 313.5 811.5 313.5 810.5 313.5C810.5 312.167 810.5 310.833 810.5 309.5Z" fill="#ebebea" fill-rule="evenodd" opacity="1" stroke="none" />
<path d="M868.5 309.5C871.5 309.167 872.833 310.5 872.5 313.5C871.167 313.5 869.833 313.5 868.5 313.5C868.5 312.167 868.5 310.833 868.5 309.5Z" fill="#e2e3e2" fill-rule="evenodd" opacity="1" stroke="none" />
<path d="M815.5 310.5C817.912 310.694 818.912 312.027 818.5 314.5C817.5 314.5 816.5 314.5 815.5 314.5C815.5 313.167 815.5 311.833 815.5 310.5Z" fill="#efefef" fill-rule="evenodd" opacity="1" stroke="none" />
<path d="M827.5 313.5C828.833 313.5 830.167 313.5 831.5 313.5C831.5 314.833 831.5 316.167 831.5 317.5C828.5 317.833 827.167 316.5 827.5 313.5Z" fill="#edeeee" fill-rule="evenodd" opacity="1" stroke="none" />
<path d="M881.5 312.5C882.5 312.5 883.5 312.5 884.5 312.5C884.5 313.833 884.5 315.167 884.5 316.5C883.5 316.5 882.5 316.5 881.5 316.5C881.5 315.167 881.5 313.833 881.5 312.5Z" fill="#efefef" fill-rule="evenodd" opacity="1" stroke="none" />
<path d="M819.5 311.5C820.404 312.209 820.737 313.209 820.5 314.5C821.833 314.5 823.167 314.5 824.5 314.5C823.081 315.451 821.415 315.784 819.5 315.5C819.5 314.167 819.5 312.833 819.5 311.5Z" fill="#787879" fill-rule="evenodd" opacity="1" stroke="none" />
<path d="M837.5 313.5C838.038 315.117 838.371 316.784 838.5 318.5C836.833 318.5 835.167 318.5 833.5 318.5C832.756 315.05 834.09 313.384 837.5 313.5Z" fill="#dededd" fill-rule="evenodd" opacity="1" stroke="none" />
<path d="M887.5 312.5C890.47 312.746 891.803 314.412 891.5 317.5C889.833 317.5 888.167 317.5 886.5 317.5C886.366 315.708 886.699 314.042 887.5 312.5Z" fill="#dfe0df" fill-rule="evenodd" opacity="1" stroke="none" />
</g>

</svg>