<?xml version="1.0" encoding="UTF-8" standalone="no"?>
<svg xmlns="http://www.w3.org/2000/svg" fill-rule="nonzero" clip-rule="evenodd" stroke-miterlimit="10" style="fill-rule:nonzero;clip-rule:evenodd;stroke-linecap:round;stroke-linejoin:round;"
     viewBox="1031.1 18.5 193.1 212.0" xml:space="preserve">
<g opacity="1">
<path d="M1103.5 30.5C1106.48 32.4451 1109.82 33.4451 1113.5 33.5C1113.58 34.9305 1113.25 36.2638 1112.5 37.5C1137.18 47.8775 1143.68 65.2109 1132 89.5C1128.67 93.5 1125.33 97.5 1122 101.5C1120.56 109.154 1123.39 111.32 1130.5 108C1142.52 106.516 1154.18 107.849 1165.5 112C1171.89 113.209 1177.89 112.209 1183.5 109C1186.73 105.855 1189.73 102.522 1192.5 99C1202.4 96.0514 1206.73 99.8847 1205.5 110.5C1210.17 110.615 1212.17 113.115 1211.5 118C1208.52 126.902 1206.69 136.068 1206 145.5C1197.61 171.212 1179.94 186.212 1153 190.5C1152.17 194.211 1152.34 197.878 1153.5 201.5C1156.45 202.625 1158.45 204.625 1159.5 207.5C1159.47 209.029 1158.8 210.196 1157.5 211C1150.67 214 1143.67 216.5 1136.5 218.5C1131.75 215.313 1126.42 213.98 1120.5 214.5C1120.36 212.738 1120.69 211.071 1121.5 209.5C1121.11 208.28 1120.28 207.613 1119 207.5C1113.33 209.168 1107.66 210.834 1102 212.5C1099.42 211.578 1097.08 210.245 1095 208.5C1092.24 208.082 1089.57 207.416 1087 206.5C1088.16 203.536 1088.66 200.37 1088.5 197C1096.04 195.287 1103.7 194.287 1111.5 194C1112.76 192.186 1112.76 190.353 1111.5 188.5C1096.88 184.952 1085.05 177.285 1076 165.5C1067.33 149.5 1067.33 133.5 1076 117.5C1079.25 113.341 1082.25 109.008 1085 104.5C1085.67 102.5 1085.67 100.5 1085 98.5C1084.11 97.9186 1083.11 97.5852 1082 97.5C1074.92 99.3032 1067.76 99.8032 1060.5 99C1056.05 97.8908 1054.38 95.0575 1055.5 90.5C1050.65 89.8245 1046.81 87.4911 1044 83.5C1043.08 80.6917 1043.91 78.5251 1046.5 77C1055.88 77.5433 1063.71 74.3767 1070 67.5C1070.72 57.2205 1075.22 49.0539 1083.5 43C1086.73 40.4246 1090.39 38.9246 1094.5 38.5C1093.55 33.1057 1095.55 31.4391 1100.5 33.5C1101.85 32.8118 1102.85 31.8118 1103.5 30.5Z" fill="#171717" fill-rule="evenodd" opacity="1" stroke="none"/>
<path d="M1071.5 69.5C1073.53 69.3379 1075.53 69.5045 1077.5 70C1079.87 72.5702 1081.87 75.4036 1083.5 78.5C1094.64 85.6583 1093.64 91.1583 1080.5 95C1073.87 96.3047 1067.21 96.6381 1060.5 96C1057.18 94.9148 1056.85 93.4148 1059.5 91.5C1069.34 93.6447 1078.67 92.3113 1087.5 87.5C1087 87.1667 1086.5 86.8333 1086 86.5C1072.4 92.6298 1059.4 91.6298 1047 83.5C1046.22 82.0563 1046.39 80.723 1047.5 79.5C1057.15 79.8465 1065.15 76.5131 1071.5 69.5Z" fill="#ededed" fill-rule="evenodd" opacity="1" stroke="none"/>
<path d="M1073.5 74.5C1075 74.4148 1076 75.0815 1076.5 76.5C1074.6 77.6394 1073.6 76.9728 1073.5 74.5Z" fill="#181918" fill-rule="evenodd" opacity="1" stroke="none"/>
<path d="M1103.5 33.5C1104.5 33.5 1105.5 33.5 1106.5 33.5C1106.24 34.9778 1106.57 36.3112 1107.5 37.5C1110.17 36.1667 1110.83 36.8333 1109.5 39.5C1130.66 46.167 1138.5 60.167 1133 81.5C1129.11 88.7198 1124.45 95.3864 1119 101.5C1118.17 105.673 1119.34 109.173 1122.5 112C1137.06 108.196 1151.39 109.196 1165.5 115C1172.77 116.405 1179.43 115.072 1185.5 111C1188.73 107.855 1191.73 104.522 1194.5 101C1196.9 98.8549 1199.06 99.0216 1201 101.5C1202.79 105.583 1202.95 109.75 1201.5 114C1201.83 114.5 1202.17 115 1202.5 115.5C1206.5 111.368 1208.5 112.368 1208.5 118.5C1206.23 128.459 1204.06 138.459 1202 148.5C1194.56 168.269 1180.56 180.602 1160 185.5C1157.33 183.752 1155.16 184.252 1153.5 187C1149.9 188.277 1146.24 188.61 1142.5 188C1141.67 187.167 1140.83 186.333 1140 185.5C1139.38 186.449 1139.55 187.282 1140.5 188C1121.18 189.421 1103.52 184.755 1087.5 174C1067.1 153.633 1066.27 132.466 1085 110.5C1087.23 106.739 1088.23 102.739 1088 98.5C1087.31 97.9747 1086.81 97.3081 1086.5 96.5C1090.94 93.8934 1093.61 90.06 1094.5 85C1093.89 81.718 1091.89 79.718 1088.5 79C1085.02 75.7008 1082.02 72.0341 1079.5 68C1077.65 66.872 1075.65 66.372 1073.5 66.5C1074.93 51.8938 1082.93 43.0605 1097.5 40C1097.59 38.5778 1097.93 37.0778 1098.5 35.5C1099.83 36.5 1101.17 37.5 1102.5 38.5C1103.45 36.9547 1103.79 35.288 1103.5 33.5Z" fill="#f5f5f5" fill-rule="evenodd" opacity="1" stroke="none"/>
<path d="M1153.5 126.5C1153.56 125.957 1153.89 125.624 1154.5 125.5C1164.67 130.839 1175.17 135.172 1186 138.5C1187.09 143.412 1185.42 147.079 1181 149.5C1179.7 155.597 1175.86 159.097 1169.5 160C1167.48 163.518 1164.48 165.851 1160.5 167C1142.92 172.067 1128.09 167.9 1116 154.5C1111.64 147.929 1110.64 140.929 1113 133.5C1113.69 131.445 1114.85 129.779 1116.5 128.5C1110.07 146.792 1116.4 158.958 1135.5 165C1144.99 166.104 1154.32 165.438 1163.5 163C1164.36 162.311 1165.02 161.478 1165.5 160.5C1162.25 159.35 1158.92 158.517 1155.5 158C1153.73 157.465 1153.4 156.631 1154.5 155.5C1161.57 158.272 1168.57 158.105 1175.5 155C1177.53 153.604 1177.86 151.938 1176.5 150C1171.78 150.043 1167.45 148.876 1163.5 146.5C1163.83 146.167 1164.17 145.833 1164.5 145.5C1171.49 148.741 1177.99 148.075 1184 143.5C1184.67 142.5 1184.67 141.5 1184 140.5C1173.04 137.604 1162.87 132.937 1153.5 126.5Z" fill="#1b1b1b" fill-rule="evenodd" opacity="1" stroke="none"/>
<path d="M1096.5 60.5C1102.74 60.2939 1105.24 63.2939 1104 69.5C1100.67 74.8333 1097.33 74.8333 1094 69.5C1093.33 67.8333 1093.33 66.1667 1094 64.5C1095.09 63.3066 1095.93 61.9733 1096.5 60.5Z" fill="#141414" fill-rule="evenodd" opacity="1" stroke="none"/>
<path d="M1098.5 63.5C1100.46 63.9483 1100.8 64.9483 1099.5 66.5C1098.61 65.675 1098.28 64.675 1098.5 63.5Z" fill="#b3b3b4" fill-rule="evenodd" opacity="1" stroke="none"/>
<path d="M1126.5 190.5C1132.17 190.5 1137.83 190.5 1143.5 190.5C1143.81 193.713 1143.48 196.713 1142.5 199.5C1142.5 196.833 1142.5 194.167 1142.5 191.5C1136.97 191.821 1131.64 191.488 1126.5 190.5Z" fill="#6e706f" fill-rule="evenodd" opacity="1" stroke="none"/>
<path d="M1126.5 190.5C1131.64 191.488 1136.97 191.821 1142.5 191.5C1142.5 194.167 1142.5 196.833 1142.5 199.5C1136.97 200.468 1131.3 200.968 1125.5 201C1121.95 198.409 1120.62 194.909 1121.5 190.5C1123.17 190.5 1124.83 190.5 1126.5 190.5Z" fill="#f1f1f1" fill-rule="evenodd" opacity="1" stroke="none"/>
<path d="M1114.5 189.5C1116.29 189.215 1117.95 189.548 1119.5 190.5C1117.48 195.095 1118.48 198.761 1122.5 201.5C1116.51 205.505 1109.84 208.171 1102.5 209.5C1098.64 206.714 1094.31 205.214 1089.5 205C1092.73 203.276 1093.06 201.276 1090.5 199C1097.77 197.818 1105.1 197.151 1112.5 197C1114.11 194.772 1114.78 192.272 1114.5 189.5Z" fill="#f0f0f0" fill-rule="evenodd" opacity="1" stroke="none"/>
<path d="M1145.5 190.5C1147.17 190.5 1148.83 190.5 1150.5 190.5C1150.17 194.884 1150.51 199.217 1151.5 203.5C1153.39 204.604 1155.06 205.937 1156.5 207.5C1150.36 210.55 1144.02 213.216 1137.5 215.5C1133.12 213.361 1128.45 212.028 1123.5 211.5C1124.31 210.784 1124.98 209.95 1125.5 209C1124.49 207.832 1123.49 206.665 1122.5 205.5C1129.69 203.544 1137.02 202.377 1144.5 202C1145.46 198.27 1145.79 194.437 1145.5 190.5Z" fill="#edeeee" fill-rule="evenodd" opacity="1" stroke="none"/>
</g>
</svg>