<?xml version="1.0" encoding="UTF-8"?>
<svg xmlns="http://www.w3.org/2000/svg" version="1.1" viewBox="348.24 24.90 229.01 309.38" width="229.01" height="309.38" style="overflow:visible;" xml:space="preserve">
<g>
<path d="M446.5 34.5C464.023 32.8959 481.023 35.0626 497.5 41C502.197 44.3768 502.53 48.0434 498.5 52C486.219 57.2314 473.386 59.3981 460 58.5C448.338 59.5 437.172 57.6667 426.5 53C421.603 46.6619 422.937 41.9952 430.5 39C435.874 37.1604 441.207 35.6604 446.5 34.5Z" fill="#191919" fill-rule="evenodd" opacity="1" stroke="none" />
<path d="M447.5 37.5C458.549 37.1499 469.549 37.6499 480.5 39C486.043 40.0515 491.376 41.7181 496.5 44C497.576 45.7261 497.743 47.5594 497 49.5C490.963 52.8434 484.463 54.6768 477.5 55C464.462 55.8529 451.462 55.5196 438.5 54C434.615 53.2606 430.948 51.9272 427.5 50C426.424 48.2739 426.257 46.4406 427 44.5C433.45 40.6889 440.283 38.3555 447.5 37.5Z" fill="#f1f1f1" fill-rule="evenodd" opacity="1" stroke="none" />
<path d="M434.5 46.5C437.898 46.1796 441.232 46.513 444.5 47.5C442.833 47.8333 441.167 48.1667 439.5 48.5C437.36 48.4439 435.694 47.7773 434.5 46.5Z" fill="#191819" fill-rule="evenodd" opacity="1" stroke="none" />
<path d="M484.5 45.5C485.873 45.3433 487.207 45.51 488.5 46C489.833 46.6667 489.833 47.3333 488.5 48C485.446 48.8214 482.446 48.6548 479.5 47.5C481.291 46.8302 482.958 46.1635 484.5 45.5Z" fill="#343433" fill-rule="evenodd" opacity="1" stroke="none" />
<path d="M444.5 71.5C450.509 71.0107 456.342 71.6774 462 73.5C485.615 69.3682 500.948 79.0349 508 102.5C508.333 108.833 508.667 115.167 509 121.5C514.738 127.516 514.905 133.849 509.5 140.5C510.095 144.932 511.095 149.265 512.5 153.5C520.446 150.194 528.112 146.361 535.5 142C541.833 137 548.167 132 554.5 127C564.113 124.947 568.279 128.78 567 138.5C565.54 145.285 562.374 151.118 557.5 156C566.081 155.983 569.248 160.15 567 168.5C563.712 173.908 559.212 178.074 553.5 181C561.171 185.737 561.505 191.07 554.5 197C550.312 199.062 545.979 200.729 541.5 202C545.923 208.534 544.256 213.201 536.5 216C532.848 216.499 529.182 216.665 525.5 216.5C525.201 219.642 523.534 221.809 520.5 223C516.051 223.408 511.717 223.075 507.5 222C506.667 223.5 505.5 224.667 504 225.5C503.833 226.667 503.667 227.833 503.5 229C508.539 249.937 512.372 271.104 515 292.5C517.474 300.38 514.974 305.88 507.5 309C503.494 310.168 499.494 311.335 495.5 312.5C495.877 318.613 493.21 322.446 487.5 324C479.789 326.274 473.789 324.107 469.5 317.5C465.167 316.167 460.833 316.167 456.5 317.5C451.763 324.054 445.429 326.221 437.5 324C432.26 322.026 430.26 318.192 431.5 312.5C426.363 312.506 421.363 311.673 416.5 310C413.789 308.739 411.622 306.906 410 304.5C409.333 299.833 409.333 295.167 410 290.5C413.371 269.04 417.037 247.707 421 226.5C419.235 224.226 417.068 222.559 414.5 221.5C408.719 224.784 403.552 224.117 399 219.5C398.517 218.552 398.351 217.552 398.5 216.5C393.703 216.879 389.036 216.379 384.5 215C378.781 211.408 378.114 207.074 382.5 202C375.126 200.903 369.293 197.403 365 191.5C363.981 186.04 366.147 182.54 371.5 181C364.667 178.167 359.833 173.333 357 166.5C356.373 159.126 359.873 155.626 367.5 156C359.403 149.311 356.236 140.811 358 130.5C360.955 126.723 364.788 125.557 369.5 127C377.5 133 385.5 139 393.5 145C399.376 148.901 405.709 151.735 412.5 153.5C413.295 148.851 413.461 144.184 413 139.5C408.028 133.117 408.361 127.117 414 121.5C412.78 97.5628 422.947 80.8961 444.5 71.5Z" fill="#181819" fill-rule="evenodd" opacity="1" stroke="none" />
<path d="M445.5 74.5C451.148 74.095 456.648 74.7617 462 76.5C482.598 71.8035 496.598 79.4701 504 99.5C505.339 106.426 505.839 113.426 505.5 120.5C503.425 120.698 501.425 120.865 499.5 121C497.833 118 496.167 115 494.5 112C479.353 110.526 468.52 103.026 462 89.5C454.812 102.839 443.645 110.506 428.5 112.5C426.735 115.709 424.735 118.709 422.5 121.5C420.929 120.691 419.262 120.357 417.5 120.5C415.862 98.2019 425.196 82.8686 445.5 74.5Z" fill="#f4f4f4" fill-rule="evenodd" opacity="1" stroke="none" />
<path d="M461.5 95.5C468.876 106.531 479.21 113.031 492.5 115C494.963 118.759 497.296 122.593 499.5 126.5C505.504 121.629 509.171 122.963 510.5 130.5C509.511 138.976 505.178 141.809 497.5 139C488.252 158.226 472.918 165.893 451.5 162C438.895 159.063 430.562 151.563 426.5 139.5C418.01 142.083 413.343 138.916 412.5 130C412.939 124.884 415.605 122.884 420.5 124C421.618 125.074 422.618 126.24 423.5 127.5C425.56 122.614 428.227 118.114 431.5 114C444.272 112.761 454.272 106.594 461.5 95.5Z" fill="#f3f3f3" fill-rule="evenodd" opacity="1" stroke="none" />
<path d="M442.5 121.5C444.144 121.286 445.644 121.62 447 122.5C447.777 125.429 447.61 128.263 446.5 131C444.888 131.72 443.388 131.554 442 130.5C441.264 127.408 441.431 124.408 442.5 121.5Z" fill="#0c0c0c" fill-rule="evenodd" opacity="1" stroke="none" />
<path d="M476.5 121.5C478.144 121.286 479.644 121.62 481 122.5C481.777 125.429 481.61 128.263 480.5 131C475.008 131.486 473.175 128.986 475 123.5C475.717 122.956 476.217 122.289 476.5 121.5Z" fill="#111111" fill-rule="evenodd" opacity="1" stroke="none" />
<path d="M417.5 127.5C419.911 127.137 421.411 128.137 422 130.5C422.774 132.403 422.44 134.07 421 135.5C419.555 132.945 418.389 130.278 417.5 127.5Z" fill="#1e1e1e" fill-rule="evenodd" opacity="1" stroke="none" />
<path d="M503.5 127.5C504.675 127.281 505.675 127.614 506.5 128.5C504.823 130.54 503.156 132.54 501.5 134.5C500.633 131.857 501.3 129.523 503.5 127.5Z" fill="#1b1b1b" fill-rule="evenodd" opacity="1" stroke="none" />
<path d="M362.5 129.5C366.131 129.16 369.464 129.994 372.5 132C383.94 143.042 396.94 151.542 411.5 157.5C408.356 162.423 409.356 166.257 414.5 169C417.2 169.253 419.867 169.253 422.5 169C423.333 170.5 424.5 171.667 426 172.5C422.747 178.319 419.414 184.319 416 190.5C412.082 199.342 411.582 208.342 414.5 217.5C411.234 220.045 407.568 220.878 403.5 220C400.9 217.541 400.9 215.041 403.5 212.5C402.833 212.167 402.167 211.833 401.5 211.5C396.217 213.863 390.884 214.029 385.5 212C382.913 210.475 382.08 208.308 383 205.5C386.288 203.107 389.788 201.107 393.5 199.5C384.461 199.952 376.294 197.619 369 192.5C366.709 189.165 367.209 186.332 370.5 184C374.871 183.828 379.204 183.328 383.5 182.5C373.421 180.229 365.588 174.896 360 166.5C359.007 160.498 361.507 158.332 367.5 160C370.505 161.17 373.505 162.336 376.5 163.5C377.167 163.167 377.833 162.833 378.5 162.5C375.172 159.342 371.672 156.342 368 153.5C363.823 148.516 361.323 142.849 360.5 136.5C360.319 133.837 360.985 131.503 362.5 129.5Z" fill="#f4f4f4" fill-rule="evenodd" opacity="1" stroke="none" />
<path d="M555.5 129.5C562.849 128.188 565.683 131.188 564 138.5C562.721 143.725 560.388 148.391 557 152.5C552.994 155.676 549.16 159.009 545.5 162.5C546.167 162.833 546.833 163.167 547.5 163.5C551.198 161.732 555.031 160.399 559 159.5C565.799 160.556 567.132 163.889 563 169.5C561.167 171.333 559.333 173.167 557.5 175C552.016 177.426 546.683 179.926 541.5 182.5C545.907 183.125 550.241 183.958 554.5 185C557.448 188.927 556.782 192.261 552.5 195C549.911 196.197 547.244 197.197 544.5 198C539.467 198.171 534.467 198.671 529.5 199.5C532.94 201.26 536.44 202.926 540 204.5C542.222 207.51 541.722 210.01 538.5 212C532.78 214.013 527.113 213.847 521.5 211.5C521.899 213.898 521.899 216.398 521.5 219C517.085 221.206 513.085 220.706 509.5 217.5C513.816 200.589 509.816 185.756 497.5 173C499.35 170.982 501.35 169.149 503.5 167.5C512.755 169.394 515.755 165.727 512.5 156.5C528.692 150.279 543.025 141.279 555.5 129.5Z" fill="#f4f4f4" fill-rule="evenodd" opacity="1" stroke="none" />
<path d="M456.5 135.5C459.2 136.516 461.866 136.516 464.5 135.5C465.529 138.308 464.362 139.642 461 139.5C458.384 139.383 456.884 138.05 456.5 135.5Z" fill="#161616" fill-rule="evenodd" opacity="1" stroke="none" />
<path d="M450.5 144.5C457.434 149.82 464.434 149.82 471.5 144.5C472.644 147.248 471.644 149.081 468.5 150C462.985 152.238 457.651 151.905 452.5 149C450.963 147.89 450.297 146.39 450.5 144.5Z" fill="#171717" fill-rule="evenodd" opacity="1" stroke="none" />
<path d="M416.5 142.5C419.127 143.105 421.793 143.605 424.5 144C428.369 152.036 434.369 157.869 442.5 161.5C437.58 163.876 433.08 166.876 429 170.5C425.964 168.964 423.797 166.631 422.5 163.5C420.571 164.38 418.737 165.38 417 166.5C414.501 166.184 413.001 164.851 412.5 162.5C414.221 155.895 415.554 149.228 416.5 142.5Z" fill="#eeeeef" fill-rule="evenodd" opacity="1" stroke="none" />
<path d="M504.5 142.5C505.5 142.5 506.5 142.5 507.5 142.5C508.616 149.902 509.783 157.236 511 164.5C508.199 165.795 505.366 165.795 502.5 164.5C499.681 167.075 496.681 169.408 493.5 171.5C499.904 179.64 504.737 188.64 508 198.5C510.471 223.517 499.638 232.183 475.5 224.5C474.831 220.791 475.331 217.125 477 213.5C477.333 208.167 477.667 202.833 478 197.5C483.02 199.674 488.186 200.34 493.5 199.5C492.758 198.713 491.925 198.047 491 197.5C489.628 189.206 488.461 188.873 487.5 196.5C483.447 195.987 479.447 195.154 475.5 194C474.538 190.784 473.372 187.618 472 184.5C470.608 181.606 468.441 179.606 465.5 178.5C462.083 178.626 458.75 179.126 455.5 180C451.423 183.985 449.423 188.819 449.5 194.5C445.175 194.379 441.009 195.046 437 196.5C436.808 194.423 436.308 192.423 435.5 190.5C434.373 193.824 432.706 196.824 430.5 199.5C431.167 199.833 431.833 200.167 432.5 200.5C437.477 199.168 442.477 198.334 447.5 198C445.963 206.305 446.629 214.472 449.5 222.5C449.167 223.167 448.833 223.833 448.5 224.5C423.118 231.894 412.618 222.56 417 196.5C421.141 184.709 427.975 174.876 437.5 167C440.327 165.377 443.327 164.21 446.5 163.5C448.686 174.441 455.353 178.608 466.5 176C473.058 174.287 476.391 170.121 476.5 163.5C480.829 164.11 484.829 165.61 488.5 168C489.833 168.667 491.167 168.667 492.5 168C489.516 165.174 486.183 162.841 482.5 161C489.552 156.948 494.886 151.281 498.5 144C500.708 143.809 502.708 143.309 504.5 142.5Z" fill="#f3f3f3" fill-rule="evenodd" opacity="1" stroke="none" />
<path d="M450.5 164.5C458.13 167.107 465.797 167.107 473.5 164.5C473.919 167.325 472.919 169.491 470.5 171C464.455 174.177 458.455 174.177 452.5 171C450.771 169.211 450.104 167.044 450.5 164.5Z" fill="#eaebeb" fill-rule="evenodd" opacity="1" stroke="none" />
<path d="M464.5 181.5C466.017 181.511 467.184 182.177 468 183.5C472.151 191.78 474.151 200.447 474 209.5C473.612 210.428 472.945 211.095 472 211.5C467.32 210.82 464.653 208.153 464 203.5C463.333 197.5 463.333 191.5 464 185.5C465.185 187.377 466.185 189.377 467 191.5C467.973 187.641 467.14 184.308 464.5 181.5Z" fill="#e9e9e9" fill-rule="evenodd" opacity="1" stroke="none" />
<path d="M457.5 181.5C459.657 182.053 459.49 183.053 457 184.5C456.399 186.137 455.899 187.803 455.5 189.5C455.733 190.932 456.4 191.432 457.5 191C458.11 189.053 458.943 187.219 460 185.5C460.884 192.582 460.551 199.582 459 206.5C449.752 215.017 446.752 212.684 450 199.5C450.84 192.814 453.34 186.814 457.5 181.5Z" fill="#eceded" fill-rule="evenodd" opacity="1" stroke="none" />
<path d="M450.5 214.5C451.5 214.5 452.5 214.5 453.5 214.5C452.61 223.721 451.61 223.721 450.5 214.5Z" fill="#dbdcdc" fill-rule="evenodd" opacity="1" stroke="none" />
<path d="M470.5 214.5C471.5 214.5 472.5 214.5 473.5 214.5C471.918 223.691 470.918 223.691 470.5 214.5Z" fill="#d4d5d4" fill-rule="evenodd" opacity="1" stroke="none" />
<path d="M461.5 207.5C462.891 209.571 464.724 211.238 467 212.5C466.696 217.69 468.196 222.19 471.5 226C480.514 230.613 489.847 231.446 499.5 228.5C499.833 229 500.167 229.5 500.5 230C506.667 253.506 510.5 277.339 512 301.5C509.296 304.778 505.796 306.944 501.5 308C491.659 308.679 481.992 310.345 472.5 313C461.278 314.276 450.278 313.276 439.5 310C432.77 309.83 426.103 309.163 419.5 308C415.67 306.668 413.003 304.168 411.5 300.5C414.785 276.67 418.952 253.003 424 229.5C425.77 228.724 427.603 228.89 429.5 230C437.51 230.749 445.176 229.416 452.5 226C455.802 222.152 457.302 217.652 457 212.5C459.415 211.589 460.915 209.922 461.5 207.5Z" fill="#f7f7f7" fill-rule="evenodd" opacity="1" stroke="none" />
<path d="M433.5 313.5C440.307 313.535 446.973 314.535 453.5 316.5C452.687 317.814 451.687 318.981 450.5 320C444.612 322.492 439.112 321.992 434 318.5C433.506 316.866 433.34 315.199 433.5 313.5Z" fill="#e9eaea" fill-rule="evenodd" opacity="1" stroke="none" />
<path d="M482.5 312.5C485.5 312.5 488.5 312.5 491.5 312.5C491.663 314.857 491.497 317.19 491 319.5C486.696 321.414 482.196 321.914 477.5 321C475.36 320.027 473.693 318.527 472.5 316.5C476.007 315.337 479.341 314.004 482.5 312.5Z" fill="#ebebeb" fill-rule="evenodd" opacity="1" stroke="none" />
</g>

</svg>