<?xml version="1.0" encoding="UTF-8"?>
<svg xmlns="http://www.w3.org/2000/svg" version="1.1" viewBox="455 19 200 246" width="200" height="246" style="fill-rule:nonzero;clip-rule:evenodd;stroke-linecap:round;stroke-linejoin:round;" xml:space="preserve">
<g transform="translate(440,3)"><ns0:path xmlns:ns0="http://www.w3.org/2000/svg" d="M0 0 C2.726 2.097 3.768 3.709 4.379 7.109 C4.734 14.488 2.996 21.572 1.336 28.713 C0.854 30.801 0.422 32.9 0 35 C0.33 35.33 0.66 35.66 1 36 C1.762 35.662 2.524 35.325 3.309 34.977 C16.819 29.141 30.536 26.277 45 31 C45.715 32.641 45.715 32.641 46 35 C44.566 37.797 44.566 37.797 42.562 40.75 C41.904 41.735 41.245 42.72 40.566 43.734 C40.308 44.108 40.308 44.108 39 46 C39.565 46.191 40.13 46.382 40.712 46.579 C43.272 47.454 45.823 48.352 48.375 49.25 C49.264 49.55 50.154 49.851 51.07 50.16 C51.921 50.463 52.772 50.766 53.648 51.078 C54.434 51.35 55.219 51.623 56.029 51.903 C58.436 53.242 59.021 54.472 60 57 C55.7 61.873 50.628 64.82 45 68 C45.641 68.534 46.281 69.067 46.941 69.617 C58.369 79.461 66.083 90.79 67.238 106.172 C67.583 122.81 63.201 136.621 55 151 C54.443 151.986 53.886 152.972 53.312 153.988 C36.085 182.604 4.165 210.162 -28.5 218.938 C-38.29 221.039 -46.781 219.84 -55.375 214.562 C-66.755 206.374 -74.857 195.9 -82 184 C-82.42 183.306 -82.84 182.613 -83.273 181.898 C-99.225 155.269 -112.248 121.032 -106.277 89.527 C-104.445 82.233 -101.888 75.446 -98 69 C-97.594 68.317 -97.188 67.634 -96.77 66.93 C-89.957 56.74 -78.758 49.93 -66.934 47.324 C-64.294 46.829 -61.658 46.384 -59 46 C-59.41 45.371 -59.82 44.742 -60.242 44.094 C-64.269 37.696 -67.326 32.402 -66.75 24.625 C-66 22 -66 22 -64 20 C-52.106 19.005 -38.486 24.952 -29.039 31.645 C-27 33 -27 33 -25 33 C-24.853 32.129 -24.706 31.257 -24.555 30.359 C-22.441 19.136 -18.916 7.607 -9.688 0.125 C-5.981 -1.427 -3.833 -1.115 0 0 Z M-8.445 6.629 C-19.281 16.686 -19.363 32.33 -20 46 C-20.66 46.165 -20.66 46.165 -24 47 C-24.249 46.257 -24.498 45.515 -24.754 44.75 C-28.12 37.32 -35.905 33.048 -43.152 30.031 C-49.049 27.896 -54.698 26 -61 26 C-60.626 34.599 -56.101 41.315 -50 47.188 C-41.741 54.044 -32.027 58.283 -21.523 60.297 C-19 61 -19 61 -17.129 62.582 C-14.021 64.652 -11.134 64.242 -7.562 63.938 C-6.855 63.882 -6.147 63.827 -5.417 63.77 C11.327 62.203 24.093 54.668 35 42 C36.585 39.699 37.791 37.527 39 35 C24.748 33.159 11.744 35.26 0 44 C-1.681 45.315 -3.352 46.643 -5 48 C-5.33 47.835 -5.33 47.835 -7 47 C-4.324 26.779 -4.324 26.779 -2.25 18.625 C-1.082 13.969 -0.81 10.65 -2 6 C-4.957 4.686 -5.69 4.794 -8.445 6.629 Z M-92.062 70.688 C-102.828 85.411 -102.908 105.77 -100.348 123.121 C-94.982 153.054 -78.946 188.486 -55 208 C-45.816 213.644 -38.648 214.782 -28 213 C4.582 203.52 36.003 173.998 52.125 144.938 C60 130.057 64.21 113.188 59.875 96.5 C56.814 88.19 51.975 80.536 45 75 C44.471 74.566 43.941 74.131 43.396 73.683 C37.493 69.359 32.596 69.54 25.5 70.188 C24.487 70.258 23.474 70.328 22.43 70.4 C19.95 70.576 17.475 70.776 15 71 C15.361 71.531 15.722 72.062 16.094 72.609 C16.326 72.963 16.326 72.963 17.5 74.75 C17.732 75.098 17.732 75.098 18.906 76.859 C20 79 20 79 20 83 C16.29 82.454 15.085 81.204 12.875 78.25 C8.912 73.592 4.931 70.677 -1 69 C-4.642 68.835 -8.21 68.936 -11.852 69.086 C-16.211 68.967 -17.776 67.8 -21 65 C-28.612 62.552 -35.196 64.08 -42.422 67.027 C-44.945 67.979 -47.346 68.547 -50 69 C-49.349 66.072 -48.651 64.416 -46.086 62.777 C-44.079 61.788 -42.066 60.86 -40 60 C-41.307 58.965 -42.651 57.978 -44 57 C-44.274 56.783 -44.274 56.783 -45.66 55.688 C-61.48 44.253 -81.774 57.916 -92.062 70.688 Z M27.188 55.75 C22.735 59.56 18.483 61.987 13 64 C21.345 68.644 32.306 65.358 41 63 C44.488 61.564 47.76 59.929 51 58 C48.651 55.269 46.626 54.311 43.188 53.312 C42.356 53.061 41.525 52.81 40.668 52.551 C34.694 51.318 31.758 51.596 27.188 55.75 Z " fill="#000000" transform="translate(136,30)" />
<ns0:path xmlns:ns0="http://www.w3.org/2000/svg" d="M0 0 C1.32 0.66 2.64 1.32 4 2 C2.697 10.024 2.697 10.024 0.125 13.625 C-2 15 -2 15 -4.25 14.75 C-4.539 14.626 -4.539 14.626 -6 14 C-7.082 10.655 -7.083 9.218 -5.812 5.875 C-4.08 3.126 -2.73 1.694 0 0 Z " fill="#000000" transform="translate(62,107)" />
<ns0:path xmlns:ns0="http://www.w3.org/2000/svg" d="M0 0 C2.062 0.438 2.062 0.438 4 1 C4.63 9.035 4.63 9.035 2 13.062 C1.34 13.702 0.68 14.341 0 15 C-3.875 14.125 -3.875 14.125 -5 13 C-5.614 7.722 -4.185 5.151 -1 1 C-0.67 0.67 -0.34 0.34 0 0 Z " fill="#000000" transform="translate(91,119)" />
<ns0:path xmlns:ns0="http://www.w3.org/2000/svg" d="M0 0 C2.438 0.375 2.438 0.375 5 1 C6.532 4.064 6.229 6.617 6 10 C4.5 12.938 4.5 12.938 3 15 C-0.875 14.125 -0.875 14.125 -2 13 C-2.125 11.379 -2.176 9.751 -2.188 8.125 C-2.202 7.241 -2.216 6.356 -2.23 5.445 C-2 3 -2 3 0 0 Z " fill="#000000" transform="translate(172,130)" />
<ns0:path xmlns:ns0="http://www.w3.org/2000/svg" d="M0 0 C1.65 0.33 3.3 0.66 5 1 C5.473 9.193 5.473 9.193 3.5 12.562 C3.005 13.037 2.51 13.511 2 14 C0.35 13.67 -1.3 13.34 -3 13 C-3.274 7.606 -3.361 4.481 0 0 Z " fill="#000000" transform="translate(134,132)" />
<ns0:path xmlns:ns0="http://www.w3.org/2000/svg" d="M0 0 C3.875 0.875 3.875 0.875 5 2 C5.433 10.799 5.433 10.799 3 14 C2.01 14.33 1.02 14.66 0 15 C-0.99 14.34 -1.98 13.68 -3 13 C-3.815 8.862 -3.632 5.08 -1.5 1.438 C-1.252 1.2 -1.252 1.2 0 0 Z " fill="#000000" transform="translate(58,147)" />
<ns0:path xmlns:ns0="http://www.w3.org/2000/svg" d="M0 0 C1.32 0.33 2.64 0.66 4 1 C5.37 5.52 4.575 8.605 3 13 C2.34 13.66 1.68 14.32 1 15 C-2.536 14.464 -2.536 14.464 -4 13 C-4.559 7.297 -3.506 4.492 0 0 Z " fill="#000000" transform="translate(103,157)" />
<ns0:path xmlns:ns0="http://www.w3.org/2000/svg" d="M0 0 C2.125 0.938 2.125 0.938 4 2 C3.405 11.595 3.405 11.595 0 15 C-1.65 14.67 -3.3 14.34 -5 14 C-5.991 11.358 -6.215 9.594 -5.246 6.922 C-2.476 1.238 -2.476 1.238 0 0 Z " fill="#000000" transform="translate(160,168)" />
<ns0:path xmlns:ns0="http://www.w3.org/2000/svg" d="M0 0 C2.125 0.938 2.125 0.938 4 2 C3.913 3.439 3.804 4.876 3.688 6.312 C3.629 7.113 3.571 7.914 3.512 8.738 C2.909 11.401 2.191 12.399 0 14 C-2.688 13.688 -2.688 13.688 -5 13 C-5.294 8.008 -5.078 5.026 -2 1 C-1.34 0.67 -0.68 0.34 0 0 Z " fill="#000000" transform="translate(128,183)" />
<ns0:path xmlns:ns0="http://www.w3.org/2000/svg" d="M0 0 C0.598 0.227 1.196 0.454 1.812 0.688 C2.036 2.269 2.241 3.853 2.438 5.438 C2.554 6.319 2.67 7.201 2.789 8.109 C2.815 10.916 2.261 12.321 0.812 14.688 C-0.838 14.688 -2.487 14.688 -4.188 14.688 C-5.414 12.234 -5.389 10.488 -5.438 7.75 C-5.463 6.875 -5.489 5.999 -5.516 5.098 C-5.188 2.688 -5.188 2.688 -3.922 0.809 C-2.188 -0.312 -2.188 -0.312 0 0 Z " fill="#000000" transform="translate(77.1875,185.3125)" />
<ns0:path xmlns:ns0="http://www.w3.org/2000/svg" d="M0 0 C2.125 0.938 2.125 0.938 4 2 C4.304 11.12 4.304 11.12 2 14 C0 14.812 0 14.812 -2 15 C-4 14 -4 14 -4.707 12.23 C-5.062 9.532 -4.581 7.873 -3.688 5.312 C-3.423 4.525 -3.159 3.737 -2.887 2.926 C-2 1 -2 1 0 0 Z " fill="#000000" transform="translate(97,213)" />
  </g>
</svg>
