<?xml version="1.0" encoding="UTF-8"?>
<svg xmlns="http://www.w3.org/2000/svg" version="1.1" viewBox="69.10 24.37 257.49 304.71" width="257.49" height="304.71" style="overflow:visible;" xml:space="preserve">
<g>
<path d="M89.5 35.5C101.543 42.0744 110.71 52.0744 117 65.5C118.412 69.728 119.246 74.0613 119.5 78.5C117.418 78.472 115.584 79.1387 114 80.5C112.436 67.0359 106.436 56.0359 96 47.5C92.7676 59.2801 94.601 70.2801 101.5 80.5C101.833 80 102.167 79.5 102.5 79C97.907 70.6676 96.2404 61.8343 97.5 52.5C106.672 61.8628 111.172 73.1962 111 86.5C111.692 87.0253 112.192 87.6919 112.5 88.5C111.396 90.3885 110.063 92.0552 108.5 93.5C99.6545 86.4815 93.8212 77.4815 91 66.5C90.3827 57.8039 89.216 49.4706 87.5 41.5C88.0482 39.3736 88.7148 37.3736 89.5 35.5Z" fill="#eaeaea" fill-rule="evenodd" opacity="1" stroke="none" />
<path d="M299.5 263.5C295.58 255.605 295.58 247.772 299.5 240C298.121 230.527 296.954 221.027 296 211.5C295.399 208.363 294.399 205.363 293 202.5C293.276 216.12 290.609 229.12 285 241.5C284.333 246.5 284.333 251.5 285 256.5C286.722 259.611 287.555 262.944 287.5 266.5C287.038 270.546 286.372 274.546 285.5 278.5C284 290.811 282.5 303.144 281 315.5C277.778 318.931 273.778 320.265 269 319.5C261.248 321.082 258.248 318.082 260 310.5C265.102 297.65 267.102 284.317 266 270.5C265.252 268.668 264.252 267.001 263 265.5C258.774 280.315 255.441 295.315 253 310.5C246.874 314.011 240.54 314.344 234 311.5C233.833 310.167 233.667 308.833 233.5 307.5C236.139 301.418 238.306 295.085 240 288.5C240.67 282.473 241.503 276.473 242.5 270.5C240.209 265.05 237.709 259.717 235 254.5C225.25 253.514 215.416 253.181 205.5 253.5C203.611 274.8 201.778 296.133 200 317.5C196.615 319.933 192.782 320.933 188.5 320.5C184.501 320.978 181.001 319.978 178 317.5C177.335 312.819 178.335 308.486 181 304.5C183.717 290.258 184.05 275.925 182 261.5C181.86 258.957 181.194 256.623 180 254.5C177.002 273.436 174.335 292.436 172 311.5C165.106 315.419 158.273 315.419 151.5 311.5C150.67 306.462 151.837 301.795 155 297.5C156.652 291.087 157.819 284.587 158.5 278C157.96 261.456 156.793 244.956 155 228.5C152.726 224.286 150.726 219.953 149 215.5C148.053 203.194 145.72 191.194 142 179.5C141.667 179.167 141.333 178.833 141 178.5C136.49 182.684 133.157 187.684 131 193.5C122.088 203.631 110.922 207.131 97.5 204C83.268 198.385 77.1014 187.885 79 172.5C83.2025 163.42 86.8692 154.087 90 144.5C88.4712 125.925 93.6379 109.592 105.5 95.5C89.9746 80.7519 83.9746 62.7519 87.5 41.5C89.216 49.4706 90.3827 57.8039 91 66.5C93.8212 77.4815 99.6545 86.4815 108.5 93.5C110.063 92.0552 111.396 90.3885 112.5 88.5C112.192 87.6919 111.692 87.0253 111 86.5C111.172 73.1962 106.672 61.8628 97.5 52.5C96.2404 61.8343 97.907 70.6676 102.5 79C102.167 79.5 101.833 80 101.5 80.5C94.601 70.2801 92.7676 59.2801 96 47.5C106.436 56.0359 112.436 67.0359 114 80.5C115.584 79.1387 117.418 78.472 119.5 78.5C119.246 74.0613 118.412 69.728 117 65.5C110.71 52.0744 101.543 42.0744 89.5 35.5C91.0106 33.5589 93.0106 33.0589 95.5 34C108.613 44.5935 117.947 57.7601 123.5 73.5C127.948 72.7601 132.281 72.7601 136.5 73.5C139.872 74.2686 142.705 75.9352 145 78.5C146.763 69.3086 150.43 60.9753 156 53.5C162.901 45.9284 170.401 39.0951 178.5 33C180.903 32.3698 182.737 33.2031 184 35.5C188.778 51.7198 186.778 67.0531 178 81.5C174.5 86.5 171 91.5 167.5 96.5C170.609 98.475 173.443 100.808 176 103.5C177.655 105.747 177.988 108.08 177 110.5C180.333 112.5 183 115.167 185 118.5C185.624 120.464 185.124 122.131 183.5 123.5C186.521 126.686 189.354 130.02 192 133.5C192.155 135.856 192.155 138.189 192 140.5C194 143.167 196 145.833 198 148.5C198.756 150.809 198.256 152.809 196.5 154.5C197.897 156.982 198.731 159.648 199 162.5C202.661 164.413 206.494 165.913 210.5 167C223.005 167.538 235.505 167.372 248 166.5C257.364 165.906 266.197 167.739 274.5 172C279.597 177.1 285.264 181.433 291.5 185C297.587 191.002 301.754 198.168 304 206.5C305.248 216.459 306.248 226.459 307 236.5C308.86 239.272 311.194 241.605 314 243.5C318.09 249.718 318.59 256.218 315.5 263C316.203 266.936 317.203 270.77 318.5 274.5C313.914 274.26 310.247 272.26 307.5 268.5C306.549 269.326 305.549 269.492 304.5 269C302.598 267.27 300.931 265.437 299.5 263.5Z" fill="#181818" fill-rule="evenodd" opacity="1" stroke="none" />
<path d="M90.5 158.5C107.278 156.913 120.445 162.913 130 176.5C133.083 185.52 130.583 192.686 122.5 198C111.77 203.321 110.936 202.154 120 194.5C121.707 192.091 122.54 189.425 122.5 186.5C121.5 186.5 120.5 186.5 119.5 186.5C117.231 195.756 111.231 200.756 101.5 201.5C88.6959 198.69 82.0292 190.69 81.5 177.5C82.0254 171.424 83.8587 165.757 87 160.5C88.3024 159.915 89.469 159.249 90.5 158.5Z" fill="#f3f3f3" fill-rule="evenodd" opacity="1" stroke="none" />
<path d="M193.5 159.5C190.858 157.571 189.191 154.905 188.5 151.5C186.855 150.304 185.189 149.304 183.5 148.5C185.225 148.157 185.725 147.157 185 145.5C178.14 131.252 171.473 116.918 165 102.5C164.333 101.167 164.333 99.8333 165 98.5C168.151 100.651 170.984 103.151 173.5 106C172.373 107.057 171.873 108.223 172 109.5C175 112.5 178 115.5 181 118.5C181.309 120.513 180.642 120.846 179 119.5C178.333 120.5 178.333 121.5 179 122.5C182.357 126.356 185.524 130.356 188.5 134.5C187.167 134.833 185.833 135.167 184.5 135.5C187.833 140.167 191.167 144.833 194.5 149.5C193.336 149.165 192.003 149.165 190.5 149.5C191.97 152.273 193.303 155.106 194.5 158C194.43 158.765 194.097 159.265 193.5 159.5Z" fill="#e4e5e5" fill-rule="evenodd" opacity="1" stroke="none" />
<path d="M151.5 97.5C152.137 99.1396 153.304 100.806 155 102.5C155.77 101.402 156.603 101.402 157.5 102.5C159.201 102.034 160.701 102.034 162 102.5C168.924 118.011 176.09 133.344 183.5 148.5C185.189 149.304 186.855 150.304 188.5 151.5C189.191 154.905 190.858 157.571 193.5 159.5C194.228 161.735 195.561 163.568 197.5 165C201.531 167.455 205.864 169.121 210.5 170C223.004 170.5 235.504 170.333 248 169.5C274.389 168.892 288.223 181.725 289.5 208C289.489 212.889 288.989 217.723 288 222.5C285.994 229.182 283.994 235.849 282 242.5C280.569 250.811 281.736 258.644 285.5 266C281.421 278.151 279.421 290.651 279.5 303.5C275.233 303.797 271.066 303.464 267 302.5C267.007 297.787 267.673 293.12 269 288.5C269.667 282.5 269.667 276.5 269 270.5C266.135 264.96 262.468 259.96 258 255.5C251.748 246.494 248.581 236.494 248.5 225.5C247.5 225.5 246.5 225.5 245.5 225.5C245.37 232.449 246.704 239.115 249.5 245.5C243.407 247.952 237.074 249.452 230.5 250C222.507 250.5 214.507 250.666 206.5 250.5C207.372 244.809 207.372 239.142 206.5 233.5C204.842 241.134 203.342 248.801 202 256.5C200.335 272.451 199.168 288.451 198.5 304.5C194.818 304.665 191.152 304.499 187.5 304C186.584 303.626 185.75 303.126 185 302.5C187.291 279.581 185.457 256.914 179.5 234.5C179.167 234.167 178.833 233.833 178.5 233.5C178.167 234.667 177.833 235.833 177.5 237C178.153 239.286 178.153 241.453 177.5 243.5C162.935 237.102 154.102 226.102 151 210.5C150.916 199.069 148.749 188.069 144.5 177.5C144.608 176.558 144.941 175.725 145.5 175C159.264 167.973 164.93 156.807 162.5 141.5C161.96 153.08 157.293 162.58 148.5 170C143.367 172.654 138.867 176.154 135 180.5C127.972 164.886 115.805 156.553 98.5 155.5C95.4825 155.768 92.4825 156.102 89.5 156.5C90.5578 152.156 91.7245 147.823 93 143.5C90.9783 125.23 96.3117 109.563 109 96.5C110.793 98.8056 112.96 99.1389 115.5 97.5C115.582 100.333 115.748 103.333 116 106.5C116.414 106.957 116.914 107.291 117.5 107.5C121.106 105.397 124.273 102.731 127 99.5C127.233 101.78 128.066 103.78 129.5 105.5C132.513 102.651 135.18 99.4847 137.5 96C140.207 93.4186 142.874 93.252 145.5 95.5C146.386 94.675 146.719 93.675 146.5 92.5C147.15 92.1961 147.817 91.8627 148.5 91.5C149.801 93.444 150.801 95.444 151.5 97.5Z" fill="#f7f7f7" fill-rule="evenodd" opacity="1" stroke="none" />
<path d="M133.5 132.5C136.766 133.114 138.099 135.114 137.5 138.5C137.517 144.028 135.35 145.361 131 142.5C129.861 138.579 130.695 135.246 133.5 132.5Z" fill="#111111" fill-rule="evenodd" opacity="1" stroke="none" />
<path d="M98.5 129.5C101.85 129.651 103.516 131.485 103.5 135C103.488 139.537 101.488 141.037 97.5 139.5C95.9685 135.905 96.3018 132.572 98.5 129.5Z" fill="#151616" fill-rule="evenodd" opacity="1" stroke="none" />
<path d="M126.5 76.5C127.601 75.4017 128.934 75.235 130.5 76C133.086 78.879 135.753 79.379 138.5 77.5C139.7 78.5312 141.034 79.3645 142.5 80C143.46 83.73 143.793 87.5633 143.5 91.5C137.89 92.2477 133.723 95.2477 131 100.5C130.814 98.0995 130.314 95.7662 129.5 93.5C125.558 95.9383 122.058 98.9383 119 102.5C118.62 99.2323 119.454 96.2323 121.5 93.5C118.38 92.4512 115.547 93.1179 113 95.5C112.833 95 112.667 94.5 112.5 94C114.633 90.6997 117.299 87.8663 120.5 85.5C119.482 84.1476 118.149 83.1476 116.5 82.5C117.025 81.8076 117.692 81.3076 118.5 81C121.817 80.5017 125.15 80.335 128.5 80.5C128.771 78.6203 128.104 77.287 126.5 76.5Z" fill="#eeefef" fill-rule="evenodd" opacity="1" stroke="none" />
<path d="M157.5 102.5C156.603 101.402 155.77 101.402 155 102.5C153.304 100.806 152.137 99.1396 151.5 97.5C150.801 95.444 149.801 93.444 148.5 91.5C147.817 91.8627 147.15 92.1961 146.5 92.5C146.365 78.358 150.531 65.6913 159 54.5C165.622 47.699 172.622 41.3657 180 35.5C181.751 37.4899 182.751 39.8232 183 42.5C185.225 57.0481 182.225 70.3814 174 82.5C169.421 89.914 163.921 96.5806 157.5 102.5Z" fill="#efefef" fill-rule="evenodd" opacity="1" stroke="none" />
<path d="M155.5 84.5C154.2 87.0241 154.2 89.6908 155.5 92.5C156.107 92.3764 156.44 92.0431 156.5 91.5C162.178 86.9859 167.011 81.6525 171 75.5C170.824 79.2016 169.49 82.5349 167 85.5C162.586 90.6064 157.419 94.6064 151.5 97.5C150.345 78.316 157.012 62.4826 171.5 50C172.759 49.0181 174.092 48.6848 175.5 49C170.312 53.5243 165.812 58.691 162 64.5C158.526 70.7552 156.359 77.4219 155.5 84.5Z" fill="#1a1a1a" fill-rule="evenodd" opacity="1" stroke="none" />
<path d="M155.5 84.5C155.198 87.0593 155.532 89.3926 156.5 91.5C156.44 92.0431 156.107 92.3764 155.5 92.5C154.2 89.6908 154.2 87.0241 155.5 84.5Z" fill="#8c8b8e" fill-rule="evenodd" opacity="1" stroke="none" />
<path d="M86.5 175.5C87.4959 175.414 88.3292 175.748 89 176.5C89.8077 178.579 89.641 180.579 88.5 182.5C85.7813 180.684 85.1146 178.351 86.5 175.5Z" fill="#222122" fill-rule="evenodd" opacity="1" stroke="none" />
<path d="M108.5 177.5C110.484 177.484 111.484 178.484 111.5 180.5C110.929 182.741 109.596 184.408 107.5 185.5C106.447 184.562 105.78 183.395 105.5 182C106.315 180.357 107.315 178.857 108.5 177.5Z" fill="#171717" fill-rule="evenodd" opacity="1" stroke="none" />
<path d="M287.5 185.5C296.944 193.949 302.111 204.616 303 217.5C303.242 224.196 303.742 230.862 304.5 237.5C304.167 238.167 303.833 238.833 303.5 239.5C301.931 238.286 301.098 236.619 301 234.5C300.709 225.418 299.709 216.418 298 207.5C294.761 200.023 291.261 192.69 287.5 185.5Z" fill="#e2e3e3" fill-rule="evenodd" opacity="1" stroke="none" />
<path d="M299.5 263.5C298.527 264.791 297.527 264.791 296.5 263.5C292.904 265.116 290.57 267.783 289.5 271.5C291.987 274.091 291.987 276.758 289.5 279.5C288.029 278.619 287.196 277.286 287 275.5C286.768 276.737 286.268 277.737 285.5 278.5C286.372 274.546 287.038 270.546 287.5 266.5C287.555 262.944 286.722 259.611 285 256.5C284.333 251.5 284.333 246.5 285 241.5C290.609 229.12 293.276 216.12 293 202.5C294.399 205.363 295.399 208.363 296 211.5C296.954 221.027 298.121 230.527 299.5 240C295.58 247.772 295.58 255.605 299.5 263.5Z" fill="#ececec" fill-rule="evenodd" opacity="1" stroke="none" />
<path d="M302.5 241.5C307.919 240.959 311.419 243.293 313 248.5C314.25 251.077 314.584 253.743 314 256.5C313.107 255.289 312.274 255.289 311.5 256.5C315.216 272.147 313.216 273.147 305.5 259.5C304.702 261.078 304.202 262.744 304 264.5C298.82 257.07 298.32 249.404 302.5 241.5Z" fill="#ededed" fill-rule="evenodd" opacity="1" stroke="none" />
<path d="M158.5 233.5C163.445 239.305 169.445 243.638 176.5 246.5C176.833 247.5 177.167 248.5 177.5 249.5C175.816 265.219 173.982 280.885 172 296.5C171.242 298.91 169.575 299.91 167 299.5C164.119 298.972 161.285 298.306 158.5 297.5C161.101 276.183 161.101 254.85 158.5 233.5Z" fill="#f1f1f1" fill-rule="evenodd" opacity="1" stroke="none" />
<path d="M240.5 251.5C241.919 250.549 243.585 250.216 245.5 250.5C245.833 251.167 246.167 251.833 246.5 252.5C245.662 252.842 245.328 253.508 245.5 254.5C244.596 253.791 244.263 252.791 244.5 251.5C243.167 251.5 241.833 251.5 240.5 251.5Z" fill="#767779" fill-rule="evenodd" opacity="1" stroke="none" />
<path d="M240.5 251.5C241.833 251.5 243.167 251.5 244.5 251.5C244.263 252.791 244.596 253.791 245.5 254.5C246.738 258.544 249.071 261.377 252.5 263C250.079 259.649 248.079 256.149 246.5 252.5C246.167 251.833 245.833 251.167 245.5 250.5C247.795 248.227 249.962 248.227 252 250.5C254.084 254.336 256.417 258.003 259 261.5C259.167 262.833 259.333 264.167 259.5 265.5C256.629 275.687 254.463 286.02 253 296.5C251.475 297.72 249.641 298.387 247.5 298.5C245.833 298.333 244.167 298.167 242.5 298C241.572 297.612 240.905 296.945 240.5 296C242.596 287.756 244.263 279.423 245.5 271C242.694 264.554 240.027 258.054 237.5 251.5C238.5 251.5 239.5 251.5 240.5 251.5Z" fill="#eeeeee" fill-rule="evenodd" opacity="1" stroke="none" />
<path d="M246.5 252.5C248.079 256.149 250.079 259.649 252.5 263C249.071 261.377 246.738 258.544 245.5 254.5C245.328 253.508 245.662 252.842 246.5 252.5Z" fill="#292a2a" fill-rule="evenodd" opacity="1" stroke="none" />
<path d="M254.5 261.5C255.993 262.312 256.66 263.645 256.5 265.5C256.167 266.5 255.833 267.5 255.5 268.5C254.526 266.257 254.192 263.924 254.5 261.5Z" fill="#4d4e4e" fill-rule="evenodd" opacity="1" stroke="none" />
<path d="M156.5 300.5C161.13 301.229 165.797 301.563 170.5 301.5C171.721 308.612 168.721 311.946 161.5 311.5C158.747 311.647 156.247 310.98 154 309.5C154.206 306.394 155.039 303.394 156.5 300.5Z" fill="#e7e7e7" fill-rule="evenodd" opacity="1" stroke="none" />
<path d="M238.5 300.5C242.798 301.2 247.131 301.533 251.5 301.5C251.425 304.206 251.092 306.873 250.5 309.5C246.14 310.59 241.807 310.59 237.5 309.5C237.167 308.667 236.833 307.833 236.5 307C237.033 304.774 237.7 302.607 238.5 300.5Z" fill="#eaeaeb" fill-rule="evenodd" opacity="1" stroke="none" />
<path d="M183.5 305.5C188.031 307.596 192.698 307.929 197.5 306.5C198.748 309.506 198.748 312.506 197.5 315.5C192.7 317.484 187.7 317.984 182.5 317C181.426 316.261 180.759 315.261 180.5 314C181.409 311.105 182.409 308.272 183.5 305.5Z" fill="#eaeaea" fill-rule="evenodd" opacity="1" stroke="none" />
<path d="M264.5 305.5C269.119 306.314 273.786 306.647 278.5 306.5C278.664 309.187 278.497 311.854 278 314.5C273.11 316.642 268.11 316.975 263 315.5C262.566 312.032 263.066 308.698 264.5 305.5Z" fill="#f0f0ef" fill-rule="evenodd" opacity="1" stroke="none" />
</g>

</svg>