<?xml version="1.0" encoding="UTF-8"?>
<svg xmlns="http://www.w3.org/2000/svg" version="1.1" viewBox="988.21 184.62 84.59 148.64" width="84.59" height="148.64" style="fill-rule:nonzero;clip-rule:evenodd;stroke-linecap:round;stroke-linejoin:round;" xml:space="preserve">
<g opacity="1">
<path d="M1025.5 192.5C1045.1 190.621 1057.93 198.954 1064 217.5C1064.88 224.052 1064.04 230.385 1061.5 236.5C1066.8 242.298 1066.8 248.131 1061.5 254C1059.24 254.236 1057.07 254.736 1055 255.5C1046.22 278.395 1036.89 301.062 1027 323.5C1024.63 326.932 1021.97 327.265 1019 324.5C1013.25 300.362 1008.25 276.028 1004 251.5C996.544 248.92 994.21 243.92 997 236.5C998.333 235.167 999.667 233.833 1001 232.5C998.303 212.39 1006.47 199.056 1025.5 192.5Z" fill="#1a1a1a" fill-rule="evenodd" opacity="1" stroke="none" />
<path d="M1009.5 249.5C1012.8 250.595 1015.8 252.428 1018.5 255C1016.02 258.647 1013.02 261.813 1009.5 264.5C1008.1 260.265 1007.1 255.932 1006.5 251.5C1007.6 250.824 1008.6 250.158 1009.5 249.5Z" fill="#e6e6e6" fill-rule="evenodd" opacity="1" stroke="none" />
<path d="M1026.5 194.5C1051.17 194.005 1062.67 206.005 1061 230.5C1060.36 232.762 1059.52 234.929 1058.5 237C1063.84 240.74 1064.84 245.406 1061.5 251C1056.64 253.441 1052.47 252.608 1049 248.5C1042.46 255.399 1036.29 255.066 1030.5 247.5C1023.59 254.681 1017.59 254.014 1012.5 245.5C1007.89 249.384 1003.39 249.384 999 245.5C997.452 239.768 999.285 235.602 1004.5 233C1000.81 213.882 1008.14 201.048 1026.5 194.5Z" fill="#f5f5f5" fill-rule="evenodd" opacity="1" stroke="none" />
<path d="M1031.5 232.5C1032.68 232.281 1033.68 232.614 1034.5 233.5C1032.95 234.798 1031.95 234.465 1031.5 232.5Z" fill="#0a0a09" fill-rule="evenodd" opacity="1" stroke="none" />
<path d="M1050.5 225.5C1052.46 225.948 1052.8 226.948 1051.5 228.5C1049.48 227.867 1049.15 226.867 1050.5 225.5Z" fill="#1a1c1b" fill-rule="evenodd" opacity="1" stroke="none" />
<path d="M1011.5 223.5C1012.68 223.281 1013.68 223.614 1014.5 224.5C1012.95 225.798 1011.95 225.465 1011.5 223.5Z" fill="#2a292a" fill-rule="evenodd" opacity="1" stroke="none" />
<path d="M1029.5 217.5C1032.96 217.667 1033.29 218.667 1030.5 220.5C1029.61 219.675 1029.28 218.675 1029.5 217.5Z" fill="#1a1b1c" fill-rule="evenodd" opacity="1" stroke="none" />
<path d="M1043.5 208.5C1044.5 208.5 1045.5 208.5 1046.5 208.5C1045.75 212.31 1044.75 212.31 1043.5 208.5Z" fill="#1a1a1b" fill-rule="evenodd" opacity="1" stroke="none" />
<path d="M1021.5 205.5C1024.01 206.216 1024.01 207.216 1021.5 208.5C1020.44 207.575 1020.44 206.575 1021.5 205.5Z" fill="#343434" fill-rule="evenodd" opacity="1" stroke="none" />
<path d="M1029.5 251.5C1032.29 253.4 1035.29 255.067 1038.5 256.5C1036.21 260.456 1033.21 263.789 1029.5 266.5C1026.12 263.124 1023.12 259.457 1020.5 255.5C1023.95 254.901 1026.95 253.568 1029.5 251.5Z" fill="#edeeee" fill-rule="evenodd" opacity="1" stroke="none" />
<path d="M1048.5 251.5C1050.02 252.431 1051.36 253.598 1052.5 255C1051.58 258.348 1050.24 261.515 1048.5 264.5C1045.45 262.451 1043.12 259.784 1041.5 256.5C1044.29 255.367 1046.62 253.7 1048.5 251.5Z" fill="#ebecec" fill-rule="evenodd" opacity="1" stroke="none" />
<path d="M1018.5 257.5C1022.47 260.476 1025.8 264.143 1028.5 268.5C1025.47 271.859 1022.47 275.192 1019.5 278.5C1015.36 275.703 1012.36 272.036 1010.5 267.5C1012.78 263.885 1015.44 260.552 1018.5 257.5Z" fill="#efeeef" fill-rule="evenodd" opacity="1" stroke="none" />
<path d="M1039.5 257.5C1042.7 260.542 1045.37 264.042 1047.5 268C1046.16 272.508 1043.49 276.008 1039.5 278.5C1036.27 275.44 1033.61 271.94 1031.5 268C1034.37 264.634 1037.04 261.134 1039.5 257.5Z" fill="#ececec" fill-rule="evenodd" opacity="1" stroke="none" />
<path d="M1010.5 272.5C1013.3 274.467 1015.63 276.967 1017.5 280C1016.53 282.12 1015.19 283.953 1013.5 285.5C1011.4 281.435 1010.4 277.101 1010.5 272.5Z" fill="#e0e0e1" fill-rule="evenodd" opacity="1" stroke="none" />
<path d="M1028.5 270.5C1029.24 270.369 1029.91 270.536 1030.5 271C1032.8 274.297 1035.46 277.297 1038.5 280C1035.93 283.983 1032.6 287.15 1028.5 289.5C1025.14 287.105 1022.47 284.105 1020.5 280.5C1023.57 277.436 1026.24 274.103 1028.5 270.5Z" fill="#ececec" fill-rule="evenodd" opacity="1" stroke="none" />
<path d="M1042.5 277.5C1043.46 278.721 1043.3 280.054 1042 281.5C1040.41 280.154 1040.58 278.821 1042.5 277.5Z" fill="#cececf" fill-rule="evenodd" opacity="1" stroke="none" />
<path d="M1017.5 300.5C1015.17 297.089 1013.84 293.256 1013.5 289C1014.96 286.369 1016.96 284.202 1019.5 282.5C1022.22 285.215 1024.55 288.215 1026.5 291.5C1024.51 295.492 1021.51 298.492 1017.5 300.5Z" fill="#eeeeef" fill-rule="evenodd" opacity="1" stroke="none" />
<path d="M1038.5 281.5C1039.64 281.908 1040.64 282.575 1041.5 283.5C1039.77 287.962 1037.77 292.295 1035.5 296.5C1033.5 295.167 1031.83 293.5 1030.5 291.5C1033.57 288.436 1036.24 285.103 1038.5 281.5Z" fill="#eaeaeb" fill-rule="evenodd" opacity="1" stroke="none" />
<path d="M1028.5 292.5C1030.65 294.823 1032.65 297.323 1034.5 300C1032.78 304.331 1030.78 308.497 1028.5 312.5C1024.91 309.487 1021.91 305.987 1019.5 302C1022.68 298.985 1025.68 295.819 1028.5 292.5Z" fill="#ececed" fill-rule="evenodd" opacity="1" stroke="none" />
<path d="M1017.5 300.5C1018.47 303.661 1020.14 306.494 1022.5 309C1021.31 310.353 1019.98 311.52 1018.5 312.5C1017.18 308.922 1016.18 305.256 1015.5 301.5C1015.96 300.702 1016.62 300.369 1017.5 300.5Z" fill="#dcdcdd" fill-rule="evenodd" opacity="1" stroke="none" />
<path d="M1022.5 310.5C1028.17 312.847 1029 316.514 1025 321.5C1024.31 322.357 1023.48 323.023 1022.5 323.5C1017.91 318.957 1017.91 314.623 1022.5 310.5Z" fill="#e9e8e9" fill-rule="evenodd" opacity="1" stroke="none" />
</g>

</svg>