<?xml version="1.0" encoding="UTF-8"?>
<svg xmlns="http://www.w3.org/2000/svg" version="1.1" viewBox="330.95 630.98 119.01 210.29" width="119.01" height="210.29" style="overflow:visible;" xml:space="preserve">
<g>
<path d="M384.5 639.5C400.618 638.975 412.784 645.642 421 659.5C431.278 677.356 436.445 696.689 436.5 717.5C440.294 719.299 441.961 722.299 441.5 726.5C440.175 741.982 435.008 755.982 426 768.5C422.554 772.548 418.554 775.882 414 778.5C408.557 787.862 410.057 796.029 418.5 803C423.939 805.116 428.106 808.616 431 813.5C432.26 818.814 430.426 822.647 425.5 825C404.841 832.27 383.841 833.27 362.5 828C357.165 826.759 352.998 823.926 350 819.5C348.703 814.883 349.87 811.05 353.5 808C362.967 804.706 368.634 798.206 370.5 788.5C370.406 786.077 369.906 783.744 369 781.5C350.27 768.045 340.437 749.712 339.5 726.5C338.952 721.591 340.952 718.258 345.5 716.5C345.219 689.827 353.886 666.66 371.5 647C375.602 643.954 379.935 641.454 384.5 639.5Z" fill="#191919" fill-rule="evenodd" opacity="1" stroke="none" />
<path d="M408.5 820.5C409.043 820.44 409.376 820.107 409.5 819.5C406.355 818.197 403.355 818.197 400.5 819.5C386.507 820.563 372.841 819.063 359.5 815C357.203 813.737 356.37 811.903 357 809.5C366.946 805.786 372.446 798.619 373.5 788C373.518 785.621 372.851 783.454 371.5 781.5C372.833 781.167 374.167 780.833 375.5 780.5C352.744 767.672 341.91 748.006 343 721.5C344.11 719.963 345.61 719.297 347.5 719.5C347.421 720.93 347.754 722.264 348.5 723.5C347.609 724.59 346.609 724.59 345.5 723.5C344.479 724.002 344.312 724.668 345 725.5C352.655 730.831 361.155 733.998 370.5 735C392.711 738.628 414.045 735.961 434.5 727C433.968 724.671 433.968 722.171 434.5 719.5C435.748 720.04 436.915 720.707 438 721.5C438.691 744.145 430.191 762.311 412.5 776C406.373 778.875 400.04 781.042 393.5 782.5C398.777 784.024 403.777 783.358 408.5 780.5C406.292 789.167 408.292 797 414.5 804C418.04 805.931 421.374 808.098 424.5 810.5C422.973 812.939 420.973 814.939 418.5 816.5C422.525 817.51 425.025 815.843 426 811.5C429.895 816.634 428.729 820.467 422.5 823C400.811 830.305 379.145 830.305 357.5 823C352.487 820.729 351.321 817.229 354 812.5C360.845 818.787 369.012 821.953 378.5 822C388.575 822.777 398.575 822.277 408.5 820.5Z" fill="#f5f5f5" fill-rule="evenodd" opacity="1" stroke="none" />
<path d="M402.5 732.5C394.01 733.657 385.343 733.824 376.5 733C371.242 732.386 366.242 731.219 361.5 729.5C364.028 728.989 366.528 728.322 369 727.5C372.424 728.479 375.591 729.979 378.5 732C386.493 732.5 394.493 732.666 402.5 732.5Z" fill="#d3d4d3" fill-rule="evenodd" opacity="1" stroke="none" />
<path d="M402.5 732.5C394.493 732.666 386.493 732.5 378.5 732C375.591 729.979 372.424 728.479 369 727.5C366.528 728.322 364.028 728.989 361.5 729.5C358.353 729.263 355.353 728.43 352.5 727C345.541 695.874 353.541 669.207 376.5 647C386.662 640.903 396.662 641.237 406.5 648C428.816 669.946 436.316 696.113 429 726.5C420.493 729.835 411.659 731.835 402.5 732.5Z" fill="#f7f7f7" fill-rule="evenodd" opacity="1" stroke="none" />
<path d="M400.5 819.5C403.355 818.197 406.355 818.197 409.5 819.5C409.376 820.107 409.043 820.44 408.5 820.5C406.052 819.527 403.385 819.194 400.5 819.5Z" fill="#8b8d8e" fill-rule="evenodd" opacity="1" stroke="none" />
</g>

</svg>