<?xml version="1.0" encoding="UTF-8"?>
<svg xmlns="http://www.w3.org/2000/svg" version="1.1" viewBox="589.37 194.31 113.63 125.60" width="113.63" height="125.60" style="fill-rule:nonzero;clip-rule:evenodd;stroke-linecap:round;stroke-linejoin:round;" xml:space="preserve">
<g opacity="1">
<path d="M631.5 202.5C651.616 200.31 670.95 203.143 689.5 211C695.668 215.354 697.001 220.854 693.5 227.5C694.48 228.981 695.647 230.315 697 231.5C696.251 241.408 692.918 250.408 687 258.5C685.156 273.26 682.822 287.926 680 302.5C678.199 305.163 675.699 306.997 672.5 308C655.931 313.576 639.264 313.909 622.5 309C618.726 307.698 615.559 305.531 613 302.5C611.538 291.788 609.871 281.121 608 270.5C599.373 258.951 595.373 245.951 596 231.5C596.637 229.697 597.803 228.364 599.5 227.5C597.461 221.654 598.461 216.488 602.5 212C611.814 207.429 621.481 204.262 631.5 202.5Z" fill="#191919" fill-rule="evenodd" opacity="1" stroke="none" />
<path d="M682.5 264.5C683.147 265.274 683.48 266.274 683.5 267.5C681.435 278.791 679.601 290.124 678 301.5C674.094 304.807 669.594 306.974 664.5 308C648.341 312.178 632.675 310.845 617.5 304C616.667 303.167 615.833 302.333 615 301.5C613.664 292.496 612.664 283.496 612 274.5C623.929 285.274 637.762 288.774 653.5 285C665.699 281.582 675.366 274.749 682.5 264.5Z" fill="#f5f5f5" fill-rule="evenodd" opacity="1" stroke="none" />
<path d="M599.5 230.5C600.497 230.47 601.164 230.97 601.5 232C600.879 248.795 606.879 262.795 619.5 274C644.65 285.336 665.483 279.836 682 257.5C686.393 250.881 689.559 243.714 691.5 236C689.524 232.635 690.524 231.135 694.5 231.5C692.844 246.646 686.51 259.479 675.5 270C657.177 285.591 637.51 287.591 616.5 276C602.824 263.802 597.157 248.635 599.5 230.5Z" fill="#e3e3e4" fill-rule="evenodd" opacity="1" stroke="none" />
<path d="M604.5 231.5C621.354 238.973 639.02 241.473 657.5 239C667.533 238.329 677.2 236.163 686.5 232.5C687.849 239.257 686.683 245.59 683 251.5C673.967 267.518 660.301 276.518 642 278.5C626.799 277.943 615.799 270.943 609 257.5C606.959 248.919 605.459 240.252 604.5 231.5Z" fill="#f5f5f5" fill-rule="evenodd" opacity="1" stroke="none" />
<path d="M613.5 257.5C616.084 258.048 617.084 259.715 616.5 262.5C615.5 262.5 614.5 262.5 613.5 262.5C613.5 260.833 613.5 259.167 613.5 257.5Z" fill="#242224" fill-rule="evenodd" opacity="1" stroke="none" />
<path d="M604.5 222.5C603.438 221.425 603.438 220.425 604.5 219.5C610.232 223.467 616.566 225.967 623.5 227C642.402 229.757 661.069 228.757 679.5 224C682.684 223.246 685.351 221.746 687.5 219.5C688.117 219.389 688.617 219.056 689 218.5C689.781 219.944 689.614 221.277 688.5 222.5C679.721 226.862 670.388 229.362 660.5 230C649.5 230.667 638.5 230.667 627.5 230C619.347 228.881 611.68 226.381 604.5 222.5Z" fill="#121212" fill-rule="evenodd" opacity="1" stroke="none" />
<path d="M689.5 214.5C691.959 215.874 692.959 218.04 692.5 221C692.961 224.545 691.628 227.212 688.5 229C662.869 238.915 636.869 239.915 610.5 232C606.724 230.791 603.724 228.624 601.5 225.5C602.268 224.737 602.768 223.737 603 222.5C603.69 223.738 604.19 223.738 604.5 222.5C611.68 226.381 619.347 228.881 627.5 230C638.5 230.667 649.5 230.667 660.5 230C670.388 229.362 679.721 226.862 688.5 222.5C689.614 221.277 689.781 219.944 689 218.5C688.617 219.056 688.117 219.389 687.5 219.5C687.392 217.486 688.058 215.82 689.5 214.5Z" fill="#e6e6e6" fill-rule="evenodd" opacity="1" stroke="none" />
<path d="M689.5 214.5C688.058 215.82 687.392 217.486 687.5 219.5C685.351 221.746 682.684 223.246 679.5 224C661.069 228.757 642.402 229.757 623.5 227C616.566 225.967 610.232 223.467 604.5 219.5C603.438 220.425 603.438 221.425 604.5 222.5C604.19 223.738 603.69 223.738 603 222.5C602.768 223.737 602.268 224.737 601.5 225.5C599.326 220.242 600.66 216.076 605.5 213C614.589 208.311 624.256 205.644 634.5 205C650.576 203.267 666.242 204.933 681.5 210C684.391 211.274 687.058 212.774 689.5 214.5Z" fill="#f2f2f2" fill-rule="evenodd" opacity="1" stroke="none" />
</g>

</svg>