<svg xmlns="http://www.w3.org/2000/svg" viewBox="225.9 231.9 394.6 474.5" width="394.6" height="474.5" style="fill-rule:nonzero;clip-rule:evenodd;stroke-linecap:round;stroke-linejoin:round;">
<g opacity="1"><path d="M278.5 240.5C281.941 240.301 285.274 240.801 288.5 242C309.981 252.569 330.648 264.402 350.5 277.5C401.294 257.664 452.127 257.664 503 277.5C523.585 264.787 544.752 252.953 566.5 242C570.547 239.927 574.38 240.093 578 242.5C579.111 256.387 576.277 269.387 569.5 281.5C573.995 281.48 578.662 281.646 583.5 282C584.718 283.438 585.385 285.105 585.5 287C584.565 294.377 582.065 301.211 578 307.5C573.865 313.302 569.365 318.802 564.5 324C583.431 355.577 587.431 388.911 576.5 424C600.121 449.005 612.121 478.838 612.5 513.5C612.31 536.26 606.81 557.594 596 577.5C592.233 582.966 587.067 585.633 580.5 585.5C578.371 599.435 571.871 610.768 561 619.5C551 636.833 537.333 650.5 520 660.5C521.423 668.038 521.756 675.705 521 683.5C517.387 695.201 510.221 698.201 499.5 692.5C493.167 697.833 486.833 697.833 480.5 692.5C476.267 695.362 471.6 696.195 466.5 695C461.239 690.396 458.572 684.563 458.5 677.5C437.488 680.059 416.488 680.059 395.5 677.5C395.643 684.709 392.976 690.543 387.5 695C382.506 696.226 378.006 695.393 374 692.5C367.786 697.702 361.619 697.702 355.5 692.5C342.888 698.442 335.388 694.442 333 680.5C331.911 673.889 332.744 667.556 335.5 661.5C318.594 651.094 305.26 637.261 295.5 620C289.553 619.776 284.72 617.276 281 612.5C275.691 604.546 272.024 595.88 270 586.5C262.737 585.365 257.07 581.698 253 575.5C235.582 540.643 233.915 504.976 248 468.5C253.774 452.076 262.774 437.743 275 425.5C274.197 417.476 272.864 409.476 271 401.5C268.861 373.889 274.694 348.055 288.5 324C283.303 318.47 278.47 312.636 274 306.5C270.737 300.543 268.57 294.21 267.5 287.5C267.406 285.088 268.406 283.255 270.5 282C274.954 281.729 279.287 281.563 283.5 281.5C276.368 268.408 274.701 254.742 278.5 240.5Z" fill="#0e0e0e" fill-rule="evenodd" opacity="1" stroke="none"/><path d="M278.5 430.5C286.47 441.319 294.304 452.319 302 463.5C311.739 485.469 315.739 508.469 314 532.5C311.824 559.687 305.157 585.687 294 610.5C293.261 611.574 292.261 612.241 291 612.5C285.867 608.683 282.201 603.683 280 597.5C275.184 584.604 272.517 571.271 272 557.5C270.667 556.167 269.333 556.167 268 557.5C267.203 564.55 267.37 571.55 268.5 578.5C268.167 578.833 267.833 579.167 267.5 579.5C260.915 576.038 256.415 570.705 254 563.5C237.052 514.413 245.219 470.079 278.5 430.5Z" fill="#f7f7f7" fill-rule="evenodd" opacity="1" stroke="none"/><path d="M573.5 430.5C586.563 444.111 595.729 460.111 601 478.5C607.268 503.583 606.935 528.583 600 553.5C597.962 560.62 594.962 567.287 591 573.5C588.933 576.07 586.433 578.07 583.5 579.5C583.506 572.262 583.339 564.928 583 557.5C581.667 556.167 580.333 556.167 579 557.5C578.3 574.059 574.3 589.725 567 604.5C564.705 607.797 562.038 610.797 559 613.5C553.966 605.595 550.133 597.095 547.5 588C537.304 556.756 534.804 524.922 540 492.5C543.047 479.354 548.047 467.02 555 455.5C562.152 447.849 568.318 439.516 573.5 430.5Z" fill="#f7f7f7" fill-rule="evenodd" opacity="1" stroke="none"/><path d="M282.5 246.5C305.658 257.996 328.158 270.662 350 284.5C384.159 270.099 419.659 265.599 456.5 271C472.731 273.577 488.397 278.077 503.5 284.5C516.013 276.838 528.679 269.338 541.5 262C551.625 256.603 561.958 251.769 572.5 247.5C572.093 255.369 570.593 263.036 568 270.5C564.991 277.192 561.491 283.526 557.5 289.5C557.434 291.266 558.268 292.266 560 292.5C565.885 289.704 572.052 288.037 578.5 287.5C577.769 293.192 575.936 298.525 573 303.5C567.862 310.305 562.362 316.805 556.5 323C577.599 355.825 581.766 390.658 569 427.5C557.713 439.795 548.379 453.462 541 468.5C532.685 489.728 529.351 511.728 531 534.5C532.773 556.033 537.107 577.033 544 597.5C546.446 605.058 549.946 612.058 554.5 618.5C544.265 633.902 531.265 646.402 515.5 656C512.733 654.919 509.733 654.086 506.5 653.5C503.634 653.931 500.968 654.931 498.5 656.5C491.968 652.175 485.801 652.508 480 657.5C466.381 651.581 459.215 656.247 458.5 671.5C437.491 674.048 416.491 674.048 395.5 671.5C396.117 659.958 390.784 654.125 379.5 654C377.714 654.785 376.214 655.951 375 657.5C368.904 652.6 362.571 652.267 356 656.5C350.586 652.67 345.252 652.67 340 656.5C321.995 646.163 308.495 631.663 299.5 613C319.567 570.2 324.734 525.7 315 479.5C311.865 468.75 307.198 458.75 301 449.5C294.951 442.452 289.284 435.119 284 427.5C271.4 390.695 275.567 355.861 296.5 323C290.661 317.824 285.494 311.99 281 305.5C277.418 300.005 275.252 294.005 274.5 287.5C280.932 287.608 286.932 289.275 292.5 292.5C294.5 292.5 295.5 291.5 295.5 289.5C286.677 276.545 282.344 262.212 282.5 246.5Z" fill="#f7f7f7" fill-rule="evenodd" opacity="1" stroke="none"/><path d="M355.5 314.5C386.073 312.704 409.906 324.371 427 349.5C452.306 314.84 484.473 306.34 523.5 324C556.263 348.213 564.429 379.046 548 416.5C527.217 446.985 499.05 456.819 463.5 446C457.086 443.38 451.253 439.88 446 435.5C441.581 444.01 436.414 452.01 430.5 459.5C427.386 461.062 424.553 460.729 422 458.5C416.667 451.171 411.833 443.504 407.5 435.5C391.232 447.75 372.898 452.583 352.5 450C324.629 443.795 306.796 426.962 299 399.5C293.368 354.736 312.201 326.403 355.5 314.5Z" fill="#0e0e0e" fill-rule="evenodd" opacity="1" stroke="none"/><path d="M422.5 405.5C436.905 404.74 443.739 411.407 443 425.5C439.185 435.807 433.852 445.14 427 453.5C418.424 443.852 412.591 432.685 409.5 420C411.598 413.074 415.931 408.24 422.5 405.5Z" fill="#f4f4f4" fill-rule="evenodd" opacity="1" stroke="none"/><path d="M353.5 321.5C384.676 318.921 408.343 330.921 424.5 357.5C426.353 358.76 428.186 358.76 430 357.5C448.486 326.113 475.319 315.28 510.5 325C539.902 338.97 552.735 362.136 549 394.5C539.161 429.518 515.994 446.018 479.5 444C467.319 441.742 456.652 436.575 447.5 428.5C451.606 410.432 444.273 400.765 425.5 399.5C408.444 402.474 401.777 412.307 405.5 429C384.312 445.586 361.312 448.586 336.5 438C312.588 423.679 301.755 402.512 304 374.5C310.051 346.953 326.551 329.286 353.5 321.5Z" fill="#f7f7f7" fill-rule="evenodd" opacity="1" stroke="none"/><path d="M361.5 355.5C377.813 352.906 389.646 358.906 397 373.5C400.999 400.169 389.499 413.003 362.5 412C346.86 406.21 339.693 395.043 341 378.5C342.408 372.514 345.242 367.348 349.5 363C353.396 360.225 357.396 357.725 361.5 355.5Z" fill="#0d0d0d" fill-rule="evenodd" opacity="1" stroke="none"/><path d="M365.5 360.5C383.015 360.518 392.182 369.185 393 386.5C389.119 401.865 379.286 408.365 363.5 406C350.906 401.076 345.406 391.909 347 378.5C350.441 369.557 356.608 363.557 365.5 360.5Z" fill="#ededed" fill-rule="evenodd" opacity="1" stroke="none"/><path d="M367.5 370.5C382.335 369.834 389.169 376.834 388 391.5C383.512 401.334 376.012 404.834 365.5 402C356.17 395.819 354.004 387.652 359 377.5C361.628 374.79 364.461 372.456 367.5 370.5Z" fill="#080808" fill-rule="evenodd" opacity="1" stroke="none"/><path d="M377.5 377.5C382.328 377.385 383.661 379.552 381.5 384C375.738 384.418 374.404 382.251 377.5 377.5Z" fill="#e3e3e3" fill-rule="evenodd" opacity="1" stroke="none"/><path d="M475.5 355.5C503.437 354.11 515.271 367.11 511 394.5C502.33 410.839 489.164 416.005 471.5 410C456.365 400.546 451.865 387.379 458 370.5C462.504 363.821 468.337 358.821 475.5 355.5Z" fill="#0e0e0e" fill-rule="evenodd" opacity="1" stroke="none"/><path d="M479.5 360.5C495.728 360.235 505.062 368.068 507.5 384C503.39 403.762 491.723 410.429 472.5 404C460.872 395.451 458.038 384.618 464 371.5C468.127 366.202 473.294 362.535 479.5 360.5Z" fill="#ececec" fill-rule="evenodd" opacity="1" stroke="none"/><path d="M478.5 370.5C495.321 370.779 501.488 379.113 497 395.5C488.819 404.732 479.819 405.732 470 398.5C463.066 386.02 465.899 376.686 478.5 370.5Z" fill="#070707" fill-rule="evenodd" opacity="1" stroke="none"/><path d="M473.5 378.5C478.159 378.015 479.492 379.848 477.5 384C475.866 384.494 474.199 384.66 472.5 384.5C472.325 382.379 472.659 380.379 473.5 378.5Z" fill="#b4b4b3" fill-rule="evenodd" opacity="1" stroke="none"/><path d="M490.5 377.5C494.35 377.701 495.35 379.534 493.5 383C489.537 383.118 488.537 381.284 490.5 377.5Z" fill="#b5b5b5" fill-rule="evenodd" opacity="1" stroke="none"/><path d="M363.5 514.5C364.496 514.414 365.329 514.748 366 515.5C366.648 520.802 368.815 525.302 372.5 529C376.898 530.378 380.398 529.212 383 525.5C384.308 522.27 385.308 518.936 386 515.5C387.011 514.663 388.178 514.33 389.5 514.5C390.034 520.424 388.534 525.757 385 530.5C373.741 537.632 366.408 534.632 363 521.5C362.297 519.071 362.463 516.738 363.5 514.5Z" fill="#141414" fill-rule="evenodd" opacity="1" stroke="none"/><path d="M415.5 514.5C416.496 514.414 417.329 514.748 418 515.5C418.418 519.854 419.752 523.854 422 527.5C425.667 530.167 429.333 530.167 433 527.5C435.248 523.854 436.582 519.854 437 515.5C438.011 514.663 439.178 514.33 440.5 514.5C441.182 521.289 439.182 527.122 434.5 532C423.715 536.854 417.215 533.354 415 521.5C414.297 519.071 414.463 516.738 415.5 514.5Z" fill="#121213" fill-rule="evenodd" opacity="1" stroke="none"/><path d="M466.5 514.5C467.496 514.414 468.329 514.748 469 515.5C469.311 520.944 471.477 525.444 475.5 529C479.898 530.378 483.398 529.212 486 525.5C486.941 522.185 487.774 518.852 488.5 515.5C489.365 514.417 490.365 514.251 491.5 515C492.602 517.401 492.769 519.901 492 522.5C489.326 532.416 483.159 535.916 473.5 533C467.344 528.202 465.01 522.035 466.5 514.5Z" fill="#131313" fill-rule="evenodd" opacity="1" stroke="none"/><path d="M487.5 562.5C488.833 562.5 490.167 562.5 491.5 562.5C491.671 567.859 493.671 572.359 497.5 576C501.18 577.027 504.347 576.194 507 573.5C508.605 570.352 509.605 567.019 510 563.5C511.011 562.663 512.178 562.33 513.5 562.5C513.97 568.926 511.97 574.426 507.5 579C500.884 583.037 495.384 581.87 491 575.5C488.885 571.429 487.719 567.095 487.5 562.5Z" fill="#101010" fill-rule="evenodd" opacity="1" stroke="none"/><path d="M413.5 561.5C415.484 561.484 416.484 562.484 416.5 564.5C416.108 573.877 411.441 579.544 402.5 581.5C393.514 578.571 389.18 572.238 389.5 562.5C390.833 562.5 392.167 562.5 393.5 562.5C393.671 567.859 395.671 572.359 399.5 576C403.18 577.027 406.347 576.194 409 573.5C410.8 569.574 412.3 565.574 413.5 561.5Z" fill="#111112" fill-rule="evenodd" opacity="1" stroke="none"/><path d="M463.5 561.5C465.722 561.559 466.722 562.725 466.5 565C465.89 574.1 461.223 579.6 452.5 581.5C443.502 578.541 439.169 572.208 439.5 562.5C440.833 562.5 442.167 562.5 443.5 562.5C443.731 567.794 445.731 572.294 449.5 576C453.274 577.183 456.441 576.349 459 573.5C461.003 569.654 462.503 565.654 463.5 561.5Z" fill="#111111" fill-rule="evenodd" opacity="1" stroke="none"/><path d="M341.5 561.5C342.458 561.953 343.292 562.619 344 563.5C344.576 567.488 345.909 571.155 348 574.5C351.667 577.167 355.333 577.167 359 574.5C361.099 570.769 362.266 566.769 362.5 562.5C363.833 562.5 365.167 562.5 366.5 562.5C367.376 573.129 362.709 579.462 352.5 581.5C346.174 580.005 342.341 576.005 341 569.5C340.278 566.739 340.445 564.073 341.5 561.5Z" fill="#121212" fill-rule="evenodd" opacity="1" stroke="none"/><path d="M414.5 608.5C415.833 608.5 417.167 608.5 418.5 608.5C418.439 612.049 419.273 615.382 421 618.5C425.415 623.726 429.749 623.726 434 618.5C435.399 615.637 436.399 612.637 437 609.5C438.011 608.663 439.178 608.33 440.5 608.5C441.114 621.388 435.114 627.222 422.5 626C416.974 621.45 414.308 615.617 414.5 608.5Z" fill="#0c0c0c" fill-rule="evenodd" opacity="1" stroke="none"/><path d="M366.5 607.5C368.017 607.511 369.184 608.177 370 609.5C369.93 616.077 372.93 620.411 379 622.5C381.406 622.297 383.406 621.297 385 619.5C387.076 616.107 388.242 612.44 388.5 608.5C389.833 608.5 391.167 608.5 392.5 608.5C392.726 621.111 386.726 626.945 374.5 626C368.265 621.487 365.599 615.32 366.5 607.5Z" fill="#100f10" fill-rule="evenodd" opacity="1" stroke="none"/><path d="M485.5 607.5C487.89 607.685 488.89 609.018 488.5 611.5C487.296 622.555 481.296 627.388 470.5 626C464.488 621.804 461.822 615.971 462.5 608.5C463.822 608.33 464.989 608.663 466 609.5C466.328 615.861 469.328 620.195 475 622.5C478.009 621.825 480.343 620.158 482 617.5C483.469 614.238 484.636 610.905 485.5 607.5Z" fill="#121212" fill-rule="evenodd" opacity="1" stroke="none"/><path d="M361.5 659.5C365.631 658.715 368.964 659.881 371.5 663C369.987 666.656 369.32 670.489 369.5 674.5C369.877 678.859 370.044 683.192 370 687.5C366.94 690.936 363.607 691.269 360 688.5C355.071 678.484 355.571 668.817 361.5 659.5Z" fill="#efefef" fill-rule="evenodd" opacity="1" stroke="none"/><path d="M379.5 660.5C384.624 659.464 387.79 661.464 389 666.5C390.334 674.2 389.334 681.533 386 688.5C381.361 690.682 378.361 689.349 377 684.5C376.333 678.167 376.333 671.833 377 665.5C377.847 663.807 378.68 662.14 379.5 660.5Z" fill="#f0efef" fill-rule="evenodd" opacity="1" stroke="none"/><path d="M504.5 659.5C510.231 659.721 513.731 662.721 515 668.5C515.984 674.693 515.318 680.693 513 686.5C510.79 689.29 507.956 690.123 504.5 689C503.196 688.196 502.529 687.029 502.5 685.5C504.121 677.693 503.788 670.026 501.5 662.5C502.34 661.265 503.34 660.265 504.5 659.5Z" fill="#ebebeb" fill-rule="evenodd" opacity="1" stroke="none"/><path d="M485.5 659.5C491.912 658.407 495.745 661.073 497 667.5C498.098 674.385 497.431 681.051 495 687.5C489.762 692.065 485.929 691.065 483.5 684.5C484.833 677.5 484.833 670.5 483.5 663.5C483.752 661.927 484.418 660.594 485.5 659.5Z" fill="#edeeee" fill-rule="evenodd" opacity="1" stroke="none"/><path d="M344.5 659.5C348.07 658.893 350.737 660.06 352.5 663C351.057 666.688 350.39 670.522 350.5 674.5C350.955 678.85 351.121 683.184 351 687.5C348 690.167 345 690.167 342 687.5C336.75 677.524 337.583 668.191 344.5 659.5Z" fill="#f1f1f1" fill-rule="evenodd" opacity="1" stroke="none"/><path d="M469.5 659.5C473.923 659.744 476.756 662.078 478 666.5C478.667 672.167 478.667 677.833 478 683.5C476.789 688.71 473.623 690.544 468.5 689C464.36 680.862 463.527 672.362 466 663.5C467.376 662.295 468.542 660.962 469.5 659.5Z" fill="#f0f0f0" fill-rule="evenodd" opacity="1" stroke="none"/></g>
</svg>