<svg xmlns="http://www.w3.org/2000/svg" viewBox="833.3 257.1 506.8 459.2" width="506.8" height="459.2" style="fill-rule:nonzero;clip-rule:evenodd;stroke-linecap:round;stroke-linejoin:round;">
<g opacity="1"><path d="M1195.5 268.5C1191.67 269.025 1188.67 270.191 1186.5 272C1183.85 272.497 1181.19 272.664 1178.5 272.5C1152.84 271.84 1127.17 271.507 1101.5 271.5C1097.82 271.665 1094.15 271.499 1090.5 271C1091.17 270.667 1091.83 270.333 1092.5 270C1088.6 269.894 1084.93 269.061 1081.5 267.5C1073.19 268.274 1064.86 268.774 1056.5 269C1058.83 269.333 1061.17 269.667 1063.5 270C1060.17 270.333 1056.83 270.667 1053.5 271C1055.5 271.333 1057.5 271.667 1059.5 272C1057.94 272.21 1056.61 272.71 1055.5 273.5C995.833 273.5 936.167 273.5 876.5 273.5C876.101 277.116 875.101 280.45 873.5 283.5C872.784 283.217 871.951 282.884 871 282.5C871.095 279.356 870.928 276.356 870.5 273.5C870.393 271.097 871.393 269.264 873.5 268C959.676 267.917 1045.84 267.083 1132 265.5C1153.27 265.08 1174.44 266.08 1195.5 268.5Z" fill="#040404" fill-rule="evenodd" opacity="1" stroke="none"/><path d="M1101.5 271.5C1091.76 272.178 1081.93 272.845 1072 273.5C1067.44 285.845 1064.11 298.512 1062 311.5C1058.75 338.2 1069.92 355.367 1095.5 363C1104.26 363.809 1112.93 365.142 1121.5 367C1131.76 370.932 1139.93 377.432 1146 386.5C1150.59 396.598 1154.59 406.931 1158 417.5C1167.04 434.441 1181.21 442.774 1200.5 442.5C1212.34 442.249 1223.67 439.749 1234.5 435C1237.12 434.205 1239.12 432.705 1240.5 430.5C1248.16 399.268 1250.99 367.601 1249 335.5C1247.1 315.212 1238.94 298.045 1224.5 284C1219.62 280.703 1214.28 278.369 1208.5 277C1198.35 275.448 1188.35 273.948 1178.5 272.5C1181.19 272.664 1183.85 272.497 1186.5 272C1188.67 270.191 1191.67 269.025 1195.5 268.5C1217.31 270.533 1237.65 277.033 1256.5 288C1275.62 304.048 1287.12 324.548 1291 349.5C1292.75 359.102 1294.09 368.769 1295 378.5C1296.57 416.166 1298.24 453.833 1300 491.5C1305.67 497.833 1311.33 504.167 1317 510.5C1330.77 532.441 1332.1 555.108 1321 578.5C1319.54 580.96 1317.71 583.127 1315.5 585C1313.89 585.72 1312.39 585.554 1311 584.5C1310.67 582.5 1310.33 580.5 1310 578.5C1306.17 585 1301 590.167 1294.5 594C1291.87 594.995 1289.21 595.328 1286.5 595C1285.2 594.196 1284.53 593.029 1284.5 591.5C1285.6 584.197 1285.76 576.864 1285 569.5C1282.17 569.042 1279.84 567.708 1278 565.5C1265.43 547.79 1262.77 528.79 1270 508.5C1272.61 503.565 1275.61 498.898 1279 494.5C1277.81 457.374 1274.81 420.374 1270 383.5C1268 374.172 1266 364.838 1264 355.5C1262.11 348.481 1259.44 341.814 1256 335.5C1257.12 358.273 1255.79 380.94 1252 403.5C1247.22 428.873 1242.22 454.206 1237 479.5C1231.65 503.788 1231.32 528.121 1236 552.5C1239.55 561.301 1242.38 570.301 1244.5 579.5C1240.49 597.194 1236.33 614.861 1232 632.5C1228.47 653.685 1226.47 675.019 1226 696.5C1225.17 701.333 1222.33 704.167 1217.5 705C1197.84 708.293 1178.18 708.293 1158.5 705C1156.71 704.215 1155.21 703.049 1154 701.5C1153.26 697.739 1153.6 694.072 1155 690.5C1159.49 680.849 1164.49 671.515 1170 662.5C1174.48 640.704 1176.48 618.704 1176 596.5C1172.76 577.694 1165.43 560.694 1154 545.5C1146.36 567.47 1133.03 585.137 1114 598.5C1115.88 611.104 1117.72 623.771 1119.5 636.5C1120.01 651.154 1113.01 658.32 1098.5 658C1090.04 656.203 1084.87 651.036 1083 642.5C1081.26 632.703 1079.09 623.037 1076.5 613.5C1068.34 615.04 1060.18 616.373 1052 617.5C1051.67 628.167 1051.33 638.833 1051 649.5C1047.29 667.27 1037.12 672.77 1020.5 666C1017.12 662.731 1014.62 658.897 1013 654.5C1012.67 642.167 1012.33 629.833 1012 617.5C1004.03 616.539 996.198 614.873 988.5 612.5C985.012 624.441 981.512 636.441 978 648.5C972.537 656.473 965.037 659.307 955.5 657C949.03 654.203 945.197 649.37 944 642.5C944.621 627.322 946.787 612.322 950.5 597.5C933.429 584.031 921.263 567.031 914 546.5C896.619 553.958 878.453 556.791 859.5 555C858.667 554.167 857.833 553.333 857 552.5C841.272 458.404 845.772 365.404 870.5 273.5C870.928 276.356 871.095 279.356 871 282.5C871.951 282.884 872.784 283.217 873.5 283.5C871.04 295.133 868.707 306.8 866.5 318.5C890.341 316.508 911.674 322.675 930.5 337C940.031 347.58 944.864 360.08 945 374.5C946 376.5 947 378.5 948 380.5C955 386.833 962 393.167 969 399.5C980.612 424.213 975.112 444.379 952.5 460C942.896 463.803 933.562 468.136 924.5 473C916.833 480.667 909.167 488.333 901.5 496C887.275 503.298 872.275 505.464 856.5 502.5C857.989 517.903 859.989 533.236 862.5 548.5C885.159 550.603 906.159 545.77 925.5 534C948.313 516.921 972.98 502.921 999.5 492C1031.21 480.654 1063.21 479.654 1095.5 489C1123.8 500.631 1145.96 519.464 1162 545.5C1171.68 559.868 1178.35 575.534 1182 592.5C1183.46 615.451 1181.63 638.118 1176.5 660.5C1191.4 664.162 1206.4 664.495 1221.5 661.5C1222.95 648.06 1225.12 634.727 1228 621.5C1231.41 607.697 1234.58 593.863 1237.5 580C1237.33 577.833 1237.17 575.667 1237 573.5C1226.6 548.421 1223.6 522.421 1228 495.5C1231.53 476.665 1234.69 457.998 1237.5 439.5C1217.75 449.59 1197.42 451.09 1176.5 444C1165.28 438.443 1157.11 429.943 1152 418.5C1148.98 407.785 1144.98 397.452 1140 387.5C1134.07 379.452 1126.24 374.285 1116.5 372C1067.19 369.037 1048.03 343.537 1059 295.5C1061.01 288.448 1063.18 281.448 1065.5 274.5C1062.23 273.513 1058.9 273.18 1055.5 273.5C1056.61 272.71 1057.94 272.21 1059.5 272C1057.5 271.667 1055.5 271.333 1053.5 271C1056.83 270.667 1060.17 270.333 1063.5 270C1061.17 269.667 1058.83 269.333 1056.5 269C1064.86 268.774 1073.19 268.274 1081.5 267.5C1084.93 269.061 1088.6 269.894 1092.5 270C1091.83 270.333 1091.17 270.667 1090.5 271C1094.15 271.499 1097.82 271.665 1101.5 271.5Z" fill="#0e0e0e" fill-rule="evenodd" opacity="1" stroke="none"/><path d="M1291.5 573.5C1292.17 578.167 1292.83 582.833 1293.5 587.5C1293.44 588.043 1293.11 588.376 1292.5 588.5C1291.51 583.544 1291.17 578.544 1291.5 573.5Z" fill="#3f3d40" fill-rule="evenodd" opacity="1" stroke="none"/><path d="M1293.5 587.5C1292.83 582.833 1292.17 578.167 1291.5 573.5C1291.14 567.392 1290.14 561.392 1288.5 555.5C1284.62 554.874 1282.79 556.541 1283 560.5C1271.51 544.266 1269.51 526.933 1277 508.5C1279.67 504.5 1282.33 500.5 1285 496.5C1284.73 449.715 1280.06 403.381 1271 357.5C1267.57 342.16 1260.9 328.494 1251 316.5C1248.43 303.858 1242.6 293.025 1233.5 284C1258.2 292.714 1274.04 309.88 1281 335.5C1285.16 351.252 1287.82 367.252 1289 383.5C1290.64 420.503 1292.3 457.503 1294 494.5C1300.71 501.538 1307.04 508.872 1313 516.5C1324.4 535.366 1325.4 554.699 1316 574.5C1315.48 568.684 1314.31 563.018 1312.5 557.5C1311.28 556.386 1309.94 556.219 1308.5 557C1308.44 569.627 1303.44 579.794 1293.5 587.5Z" fill="#f4f4f4" fill-rule="evenodd" opacity="1" stroke="none"/><path d="M1040.5 488.5C1086.49 485.332 1122.82 502.332 1149.5 539.5C1141.99 562.846 1128.15 581.513 1108 595.5C1107.33 599.167 1107.33 602.833 1108 606.5C1111.45 618.622 1113.12 630.955 1113 643.5C1108.28 653.177 1101.61 654.843 1093 648.5C1091.41 646.33 1090.08 643.996 1089 641.5C1087.39 634.554 1086.06 627.554 1085 620.5C1084.19 615.743 1082.69 611.243 1080.5 607C1070.26 608.572 1059.92 609.906 1049.5 611C1047.67 611.5 1046.5 612.667 1046 614.5C1045.67 616.5 1045.33 618.5 1045 620.5C1044.93 631.572 1044.27 642.572 1043 653.5C1037.92 663.395 1030.92 665.062 1022 658.5C1020.8 655.911 1019.8 653.244 1019 650.5C1018.67 638.167 1018.33 625.833 1018 613.5C1017.17 612.667 1016.33 611.833 1015.5 611C1005.66 610.583 995.997 609.083 986.5 606.5C985.228 606.57 984.062 606.903 983 607.5C979.241 617.537 976.574 627.87 975 638.5C972.331 649.215 965.831 653.048 955.5 650C951.247 646.348 949.247 641.682 949.5 636C951.409 624.453 953.576 612.953 956 601.5C956.667 598.5 956.667 595.5 956 592.5C938.832 580.664 926.998 564.83 920.5 545C942.641 528.417 966.308 514.084 991.5 502C1007.39 495.446 1023.73 490.946 1040.5 488.5Z" fill="#f8f8f8" fill-rule="evenodd" opacity="1" stroke="none"/><path d="M865.5 324.5C886 323.022 905 327.522 922.5 338C928.203 342.365 932.37 347.865 935 354.5C936.525 364.043 938.859 373.376 942 382.5C943.812 385.28 945.979 387.78 948.5 390C971.716 403.725 975.883 421.892 961 444.5C957.088 449.083 952.588 452.917 947.5 456C938.629 459.621 929.963 463.621 921.5 468C914.167 475.333 906.833 482.667 899.5 490C894.34 493.499 888.674 495.833 882.5 497C873.477 497.681 864.477 497.514 855.5 496.5C851.418 438.703 854.751 381.37 865.5 324.5Z" fill="#f8f8f8" fill-rule="evenodd" opacity="1" stroke="none"/><path d="M1055.5 273.5C1058.9 273.18 1062.23 273.513 1065.5 274.5C1063.18 281.448 1061.01 288.448 1059 295.5C1048.03 343.537 1067.19 369.037 1116.5 372C1126.24 374.285 1134.07 379.452 1140 387.5C1144.98 397.452 1148.98 407.785 1152 418.5C1157.11 429.943 1165.28 438.443 1176.5 444C1197.42 451.09 1217.75 449.59 1237.5 439.5C1234.69 457.998 1231.53 476.665 1228 495.5C1223.6 522.421 1226.6 548.421 1237 573.5C1237.17 575.667 1237.33 577.833 1237.5 580C1234.58 593.863 1231.41 607.697 1228 621.5C1225.12 634.727 1222.95 648.06 1221.5 661.5C1206.4 664.495 1191.4 664.162 1176.5 660.5C1181.63 638.118 1183.46 615.451 1182 592.5C1178.35 575.534 1171.68 559.868 1162 545.5C1145.96 519.464 1123.8 500.631 1095.5 489C1063.21 479.654 1031.21 480.654 999.5 492C972.98 502.921 948.313 516.921 925.5 534C906.159 545.77 885.159 550.603 862.5 548.5C859.989 533.236 857.989 517.903 856.5 502.5C872.275 505.464 887.275 503.298 901.5 496C909.167 488.333 916.833 480.667 924.5 473C933.562 468.136 942.896 463.803 952.5 460C975.112 444.379 980.612 424.213 969 399.5C962 393.167 955 386.833 948 380.5C947 378.5 946 376.5 945 374.5C944.864 360.08 940.031 347.58 930.5 337C911.674 322.675 890.341 316.508 866.5 318.5C868.707 306.8 871.04 295.133 873.5 283.5C875.101 280.45 876.101 277.116 876.5 273.5C936.167 273.5 995.833 273.5 1055.5 273.5Z" fill="#f8f8f8" fill-rule="evenodd" opacity="1" stroke="none"/><path d="M1101.5 271.5C1127.17 271.507 1152.84 271.84 1178.5 272.5C1188.35 273.948 1198.35 275.448 1208.5 277C1214.28 278.369 1219.62 280.703 1224.5 284C1238.94 298.045 1247.1 315.212 1249 335.5C1250.99 367.601 1248.16 399.268 1240.5 430.5C1239.12 432.705 1237.12 434.205 1234.5 435C1223.67 439.749 1212.34 442.249 1200.5 442.5C1181.21 442.774 1167.04 434.441 1158 417.5C1154.59 406.931 1150.59 396.598 1146 386.5C1139.93 377.432 1131.76 370.932 1121.5 367C1112.93 365.142 1104.26 363.809 1095.5 363C1069.92 355.367 1058.75 338.2 1062 311.5C1064.11 298.512 1067.44 285.845 1072 273.5C1081.93 272.845 1091.76 272.178 1101.5 271.5Z" fill="#f8f8f8" fill-rule="evenodd" opacity="1" stroke="none"/><path d="M1218.5 668.5C1220.42 672.029 1221.09 676.029 1220.5 680.5C1220.67 684.846 1220.5 689.179 1220 693.5C1219.73 695.329 1218.89 696.829 1217.5 698C1203.36 701.137 1189.02 702.304 1174.5 701.5C1176.24 694.667 1178.58 688.001 1181.5 681.5C1180.38 679.404 1178.88 679.07 1177 680.5C1173.36 686.433 1170.86 692.766 1169.5 699.5C1166.48 699.665 1163.48 699.498 1160.5 699C1159.98 698.439 1159.64 697.772 1159.5 697C1163.37 686.143 1168.54 675.976 1175 666.5C1182.13 668.688 1189.47 669.688 1197 669.5C1204.17 669.136 1211.34 668.803 1218.5 668.5Z" fill="#f3f3f3" fill-rule="evenodd" opacity="1" stroke="none"/><path d="M1218.5 668.5C1219.21 667.596 1220.21 667.263 1221.5 667.5C1221.82 672.032 1221.48 676.366 1220.5 680.5C1221.09 676.029 1220.42 672.029 1218.5 668.5Z" fill="#8d908e" fill-rule="evenodd" opacity="1" stroke="none"/></g>
</svg>