<?xml version="1.0" encoding="UTF-8"?>
<svg xmlns="http://www.w3.org/2000/svg" version="1.1" viewBox="18.08 351.33 186.64 121.17" width="186.64" height="121.17" style="fill-rule:nonzero;clip-rule:evenodd;stroke-linecap:round;stroke-linejoin:round;" xml:space="preserve">
<g opacity="1">
<path d="M69.5 357.5C78.1731 357.334 86.8397 357.5 95.5 358C98.1667 360.333 98.1667 362.667 95.5 365C91.1667 365.333 86.8333 365.667 82.5 366C83.1078 367.231 83.4411 368.564 83.5 370C82.7324 374.569 81.7324 379.069 80.5 383.5C97.1667 383.5 113.833 383.5 130.5 383.5C130.5 382.5 130.5 381.5 130.5 380.5C127.138 380.93 124.305 379.93 122 377.5C121.313 375.08 121.813 372.913 123.5 371C131.493 370.103 139.493 369.769 147.5 370C151.758 374.721 151.091 378.721 145.5 382C137.431 380.4 134.931 383.233 138 390.5C140.937 394.721 144.104 398.721 147.5 402.5C163.963 395.802 178.13 399.135 190 412.5C198.723 429.218 196.223 444.051 182.5 457C165.237 466.502 150.07 464.002 137 449.5C134.646 445.797 133.146 441.797 132.5 437.5C126.972 437.206 121.639 438.039 116.5 440C115.565 442.381 115.232 444.881 115.5 447.5C111.894 447.789 108.394 447.456 105 446.5C104.333 445.5 104.333 444.5 105 443.5C107.654 442.428 109.821 440.761 111.5 438.5C108.083 435.029 107.083 431.029 108.5 426.5C97.8474 416.348 87.3474 406.014 77 395.5C75.627 397.695 75.2937 400.029 76 402.5C93.633 414.76 97.2996 430.426 87 449.5C74.6206 463.22 60.1206 466.053 43.5 458C26.9115 445.076 24.0782 429.576 35 411.5C43.649 401.467 54.4824 397.467 67.5 399.5C70.5714 390.055 73.5714 380.555 76.5 371C74.8881 369.518 73.8881 367.685 73.5 365.5C68.7803 364.719 67.447 362.052 69.5 357.5Z" fill="#191919" fill-rule="evenodd" opacity="1" stroke="none" />
<path d="M83.5 392.5C90.3134 391.509 97.3134 391.175 104.5 391.5C111.833 391.5 119.167 391.5 126.5 391.5C123.98 400.562 121.146 409.562 118 418.5C116.23 420.418 114.063 420.918 111.5 420C102.298 410.631 92.965 401.464 83.5 392.5Z" fill="#f6f6f6" fill-rule="evenodd" opacity="1" stroke="none" />
<path d="M104.5 391.5C97.3134 391.175 90.3134 391.509 83.5 392.5C82.9569 392.44 82.6236 392.107 82.5 391.5C89.9898 390.181 97.3231 390.181 104.5 391.5Z" fill="#767a79" fill-rule="evenodd" opacity="1" stroke="none" />
<path d="M96.5 388.5C107.833 388.5 119.167 388.5 130.5 388.5C130.737 389.791 130.404 390.791 129.5 391.5C118.705 389.841 107.705 388.841 96.5 388.5Z" fill="#929393" fill-rule="evenodd" opacity="1" stroke="none" />
<path d="M74.5 387.5C75.209 388.404 76.209 388.737 77.5 388.5C77.369 389.239 77.5357 389.906 78 390.5C89.318 400.651 100.151 411.318 110.5 422.5C110.167 422.833 109.833 423.167 109.5 423.5C98.1983 413.533 87.1983 403.2 76.5 392.5C75.914 392.709 75.414 393.043 75 393.5C72.2023 403.56 69.2023 413.56 66 423.5C64.6541 426.87 62.8208 429.87 60.5 432.5C60.1667 432 59.8333 431.5 59.5 431C61.3788 428.039 62.8788 424.873 64 421.5C67.5229 410.048 71.0229 398.715 74.5 387.5Z" fill="#d7d8d8" fill-rule="evenodd" opacity="1" stroke="none" />
<path d="M129.5 391.5C130.404 390.791 130.737 389.791 130.5 388.5C119.167 388.5 107.833 388.5 96.5 388.5C90.1667 388.5 83.8333 388.5 77.5 388.5C76.209 388.737 75.209 388.404 74.5 387.5C75.0604 385.199 75.5604 382.866 76 380.5C76.414 380.043 76.914 379.709 77.5 379.5C78.6808 381.135 78.6808 382.802 77.5 384.5C95.4989 385.924 113.499 386.258 131.5 385.5C132.246 384.264 132.579 382.93 132.5 381.5C133.675 381.281 134.675 381.614 135.5 382.5C134.071 384.331 133.571 386.331 134 388.5C143.36 401.027 152.527 413.694 161.5 426.5C160.726 427.711 159.893 427.711 159 426.5C150.641 414.436 141.808 402.769 132.5 391.5C129.137 401.624 125.47 411.624 121.5 421.5C120.369 419.926 120.202 418.259 121 416.5C123.993 408.18 126.827 399.847 129.5 391.5Z" fill="#e3e4e4" fill-rule="evenodd" opacity="1" stroke="none" />
<path d="M137.5 371.5C140.579 371.26 143.579 371.593 146.5 372.5C147.91 374.949 147.576 377.116 145.5 379C140.833 379.667 136.167 379.667 131.5 379C129.112 378.697 126.945 377.863 125 376.5C124.316 375.216 124.483 374.049 125.5 373C129.688 372.824 133.688 372.324 137.5 371.5Z" fill="#ebebeb" fill-rule="evenodd" opacity="1" stroke="none" />
<path d="M70.5 359.5C74.226 359.177 77.8927 359.511 81.5 360.5C80.0878 361.806 78.4211 362.64 76.5 363C82.2035 367.211 83.0368 372.377 79 378.5C78.0093 377.57 77.5093 376.404 77.5 375C79.3975 371.089 78.5642 367.922 75 365.5C74.5172 364.552 74.3505 363.552 74.5 362.5C73.1667 362.5 71.8333 362.5 70.5 362.5C70.5 361.5 70.5 360.5 70.5 359.5Z" fill="#e2e3e4" fill-rule="evenodd" opacity="1" stroke="none" />
<path d="M82.5 359.5C86.5 359.5 90.5 359.5 94.5 359.5C94.5 360.833 94.5 362.167 94.5 363.5C90.5 363.5 86.5 363.5 82.5 363.5C82.5 362.167 82.5 360.833 82.5 359.5Z" fill="#e4e4e4" fill-rule="evenodd" opacity="1" stroke="none" />
<path d="M132.5 395.5C135.772 398.788 138.772 402.455 141.5 406.5C136.894 411.713 133.894 417.713 132.5 424.5C130.143 424.663 127.81 424.497 125.5 424C124.941 423.275 124.608 422.442 124.5 421.5C127.375 412.875 130.042 404.209 132.5 395.5Z" fill="#e9e9e9" fill-rule="evenodd" opacity="1" stroke="none" />
<path d="M156.5 407.5C170.462 405.395 180.295 410.728 186 423.5C188.492 443.667 179.659 453.834 159.5 454C149.803 451.803 143.47 445.97 140.5 436.5C148.772 435.115 157.105 434.282 165.5 434C168.503 430.19 167.67 427.356 163 425.5C159.992 420.15 156.492 415.15 152.5 410.5C153.624 409.141 154.958 408.141 156.5 407.5Z" fill="#f4f4f4" fill-rule="evenodd" opacity="1" stroke="none" />
<path d="M142.5 409.5C143.995 409.415 144.995 410.081 145.5 411.5C141.926 415.235 139.426 419.568 138 424.5C136.989 425.337 135.822 425.67 134.5 425.5C135.574 419.352 138.24 414.019 142.5 409.5Z" fill="#dfdfdf" fill-rule="evenodd" opacity="1" stroke="none" />
<path d="M145.5 414.5C147.017 414.511 148.184 415.177 149 416.5C151.167 419.5 153.333 422.5 155.5 425.5C150.544 426.494 145.544 426.827 140.5 426.5C140.523 421.791 142.19 417.791 145.5 414.5Z" fill="#e5e5e5" fill-rule="evenodd" opacity="1" stroke="none" />
<path d="M113.5 423.5C123.173 421.667 126.673 425.334 124 434.5C121.656 436.774 118.822 437.941 115.5 438C112.744 444.052 112.077 443.719 113.5 437C109.535 432.45 109.535 427.95 113.5 423.5Z" fill="#d9d9da" fill-rule="evenodd" opacity="1" stroke="none" />
<path d="M129.5 427.5C141.49 428.57 153.49 429.57 165.5 430.5C164.252 432.69 162.586 433.023 160.5 431.5C150.533 432.644 140.533 433.644 130.5 434.5C129.5 434.5 128.5 434.5 127.5 434.5C126.99 431.612 127.656 429.279 129.5 427.5Z" fill="#e9eae9" fill-rule="evenodd" opacity="1" stroke="none" />
<path d="M129.5 427.5C127.656 429.279 126.99 431.612 127.5 434.5C128.5 434.5 129.5 434.5 130.5 434.5C129.432 435.434 128.099 435.768 126.5 435.5C126.5 432.5 126.5 429.5 126.5 426.5C127.791 426.263 128.791 426.596 129.5 427.5Z" fill="#646465" fill-rule="evenodd" opacity="1" stroke="none" />
<path d="M114.5 427.5C120.555 426.942 121.888 429.109 118.5 434C113.791 434.082 112.458 431.915 114.5 427.5Z" fill="#1c1c1d" fill-rule="evenodd" opacity="1" stroke="none" />
<path d="M115.5 429.5C116.675 429.281 117.675 429.614 118.5 430.5C116.948 431.798 115.948 431.465 115.5 429.5Z" fill="#e5e2e4" fill-rule="evenodd" opacity="1" stroke="none" />
<path d="M155.5 401.5C185.388 401.213 196.888 415.546 190 444.5C179.098 460.348 164.931 464.181 147.5 456C140.56 451.229 136.227 444.729 134.5 436.5C135.833 436.5 137.167 436.5 138.5 436.5C139.105 441.877 141.439 446.377 145.5 450C159.927 459.693 173.094 458.193 185 445.5C192.852 431.113 190.352 418.946 177.5 409C169.035 405.038 160.368 404.538 151.5 407.5C149.899 406.965 149.399 405.965 150 404.5C151.876 403.391 153.709 402.391 155.5 401.5Z" fill="#e5e5e5" fill-rule="evenodd" opacity="1" stroke="none" />
<path d="M107.5 443.5C109.75 443.181 111.75 443.681 113.5 445C112.5 445.167 111.5 445.333 110.5 445.5C108.97 445.36 107.97 444.693 107.5 443.5Z" fill="#d4d6d6" fill-rule="evenodd" opacity="1" stroke="none" />
<path d="M53.5 401.5C58.1667 401.5 62.8333 401.5 67.5 401.5C67.67 402.822 67.3366 403.989 66.5 405C50.8073 403.926 40.3073 410.759 35 425.5C33.316 440.977 39.816 451.144 54.5 456C77.507 457.326 88.007 446.493 86 423.5C83.8387 417.008 79.8387 412.008 74 408.5C73.3013 406.926 73.6346 405.593 75 404.5C92.3459 417.341 95.0125 432.675 83 450.5C66.3657 464.685 50.699 463.685 36 447.5C26.484 426.214 32.3173 410.881 53.5 401.5Z" fill="#e3e3e3" fill-rule="evenodd" opacity="1" stroke="none" />
<path d="M55.5 407.5C58.8333 407.5 62.1667 407.5 65.5 407.5C64.5099 415.316 61.6766 422.316 57 428.5C56.6667 434.5 59 435.833 64 432.5C67.5981 425.363 70.5981 418.03 73 410.5C84.0824 418.42 87.0824 428.753 82 441.5C72.1111 455.349 59.9445 457.849 45.5 449C37.1948 440.428 35.3615 430.594 40 419.5C43.7074 413.42 48.8741 409.42 55.5 407.5Z" fill="#f4f4f4" fill-rule="evenodd" opacity="1" stroke="none" />
</g>

</svg>