<?xml version="1.0" encoding="UTF-8" standalone="no"?>
<svg xmlns="http://www.w3.org/2000/svg" fill-rule="nonzero" clip-rule="evenodd" stroke-miterlimit="10" style="fill-rule:nonzero;clip-rule:evenodd;stroke-linecap:round;stroke-linejoin:round;"
     viewBox="1268.5 19.3 194.0 202.3" xml:space="preserve">
<g opacity="1">
<path d="M1280.5 31.5C1336.83 31.3333 1393.17 31.5 1449.5 32C1450.16 61.4291 1450.5 90.9291 1450.5 120.5C1450.5 150.071 1450.16 179.571 1449.5 209C1393.17 209.5 1336.83 209.667 1280.5 209.5C1280.5 150.167 1280.5 90.8333 1280.5 31.5Z" fill="#131313" fill-rule="evenodd" opacity="1" stroke="none"/>
<path d="M1283.5 34.5C1283.5 91.5 1283.5 148.5 1283.5 205.5C1338.17 205.5 1392.83 205.5 1447.5 205.5C1447.5 148.5 1447.5 91.5 1447.5 34.5C1448.5 91.6642 1448.83 148.998 1448.5 206.5C1393.17 206.5 1337.83 206.5 1282.5 206.5C1282.17 148.998 1282.5 91.6642 1283.5 34.5Z" fill="#a9a9a8" fill-rule="evenodd" opacity="1" stroke="none"/>
<path d="M1283.5 34.5C1338.17 34.5 1392.83 34.5 1447.5 34.5C1447.5 91.5 1447.5 148.5 1447.5 205.5C1392.83 205.5 1338.17 205.5 1283.5 205.5C1283.5 148.5 1283.5 91.5 1283.5 34.5Z" fill="#f5f5f5" fill-rule="evenodd" opacity="1" stroke="none"/>
<path d="M1291.5 43.5C1340.83 43.5 1390.17 43.5 1439.5 43.5C1439.5 94.5 1439.5 145.5 1439.5 196.5C1390.17 196.5 1340.83 196.5 1291.5 196.5C1291.5 145.5 1291.5 94.5 1291.5 43.5Z" fill="#171717" fill-rule="evenodd" opacity="1" stroke="none"/>
<path d="M1363.5 46.5C1364.5 95.6638 1364.83 144.997 1364.5 194.5C1340.99 194.831 1317.66 194.498 1294.5 193.5C1317.5 193.5 1340.5 193.5 1363.5 193.5C1363.83 172.66 1363.5 151.993 1362.5 131.5C1362.5 125.167 1362.5 118.833 1362.5 112.5C1363.5 90.673 1363.83 68.673 1363.5 46.5Z" fill="#999a98" fill-rule="evenodd" opacity="1" stroke="none"/>
<path d="M1362.5 112.5C1362.5 118.833 1362.5 125.167 1362.5 131.5C1362.17 132.5 1361.5 133.167 1360.5 133.5C1359.5 133.5 1358.5 133.5 1357.5 133.5C1357.5 150.167 1357.5 166.833 1357.5 183.5C1339.17 183.5 1320.83 183.5 1302.5 183.5C1302.5 141.167 1302.5 98.8333 1302.5 56.5C1321.17 56.5 1339.83 56.5 1358.5 56.5C1358.5 74.5 1358.5 92.5 1358.5 110.5C1360.38 110.229 1361.71 110.896 1362.5 112.5Z" fill="#191919" fill-rule="evenodd" opacity="1" stroke="none"/>
<path d="M1354.5 120.5C1338.5 120.5 1322.5 120.5 1306.5 120.5C1306.5 140.5 1306.5 160.5 1306.5 180.5C1322.5 180.5 1338.5 180.5 1354.5 180.5C1354.5 164.167 1354.5 147.833 1354.5 131.5C1355.5 147.992 1355.83 164.658 1355.5 181.5C1338.83 181.5 1322.17 181.5 1305.5 181.5C1305.5 160.833 1305.5 140.167 1305.5 119.5C1322.01 119.17 1338.34 119.504 1354.5 120.5Z" fill="#aaaaaa" fill-rule="evenodd" opacity="1" stroke="none"/>
<path d="M1354.5 120.5C1354.5 124.167 1354.5 127.833 1354.5 131.5C1354.5 147.833 1354.5 164.167 1354.5 180.5C1338.5 180.5 1322.5 180.5 1306.5 180.5C1306.5 160.5 1306.5 140.5 1306.5 120.5C1322.5 120.5 1338.5 120.5 1354.5 120.5Z" fill="#f9f9f9" fill-rule="evenodd" opacity="1" stroke="none"/>
<path d="M1357.5 112.5C1358.5 112.5 1359.5 112.5 1360.5 112.5C1360.5 118.833 1360.5 125.167 1360.5 131.5C1359.5 131.5 1358.5 131.5 1357.5 131.5C1357.5 125.167 1357.5 118.833 1357.5 112.5Z" fill="#e6e7e7" fill-rule="evenodd" opacity="1" stroke="none"/>
<path d="M1354.5 111.5C1354.5 94.1667 1354.5 76.8333 1354.5 59.5C1338.5 59.5 1322.5 59.5 1306.5 59.5C1306.5 78.5 1306.5 97.5 1306.5 116.5C1305.5 97.3405 1305.17 78.0072 1305.5 58.5C1322.17 58.5 1338.83 58.5 1355.5 58.5C1355.83 76.3412 1355.5 94.0079 1354.5 111.5Z" fill="#adadad" fill-rule="evenodd" opacity="1" stroke="none"/>
<path d="M1354.5 111.5C1354.5 113.167 1354.5 114.833 1354.5 116.5C1338.5 116.5 1322.5 116.5 1306.5 116.5C1306.5 97.5 1306.5 78.5 1306.5 59.5C1322.5 59.5 1338.5 59.5 1354.5 59.5C1354.5 76.8333 1354.5 94.1667 1354.5 111.5Z" fill="#f9f9f9" fill-rule="evenodd" opacity="1" stroke="none"/>
<path d="M1366.5 46.5C1389.83 46.5 1413.17 46.5 1436.5 46.5C1436.5 95.5 1436.5 144.5 1436.5 193.5C1413.17 193.5 1389.83 193.5 1366.5 193.5C1366.5 144.5 1366.5 95.5 1366.5 46.5Z" fill="#ececec" fill-rule="evenodd" opacity="1" stroke="none"/>
<path d="M1373.5 56.5C1391.5 56.5 1409.5 56.5 1427.5 56.5C1427.5 98.8333 1427.5 141.167 1427.5 183.5C1409.5 183.5 1391.5 183.5 1373.5 183.5C1373.5 166.833 1373.5 150.167 1373.5 133.5C1371.86 133.714 1370.36 133.38 1369 132.5C1368.33 125.5 1368.33 118.5 1369 111.5C1370.36 110.62 1371.86 110.286 1373.5 110.5C1373.5 92.5 1373.5 74.5 1373.5 56.5Z" fill="#080808" fill-rule="evenodd" opacity="1" stroke="none"/>
<path d="M1376.5 132.5C1376.5 148.5 1376.5 164.5 1376.5 180.5C1392.5 180.5 1408.5 180.5 1424.5 180.5C1424.5 180.833 1424.5 181.167 1424.5 181.5C1408.17 181.5 1391.83 181.5 1375.5 181.5C1375.17 164.991 1375.5 148.658 1376.5 132.5Z" fill="#929393" fill-rule="evenodd" opacity="1" stroke="none"/>
<path d="M1370.5 112.5C1371.83 112.5 1373.17 112.5 1374.5 112.5C1374.5 118.833 1374.5 125.167 1374.5 131.5C1373.17 131.5 1371.83 131.5 1370.5 131.5C1370.5 125.167 1370.5 118.833 1370.5 112.5Z" fill="#d2d2d3" fill-rule="evenodd" opacity="1" stroke="none"/>
<path d="M1424.5 180.5C1408.5 180.5 1392.5 180.5 1376.5 180.5C1376.5 164.5 1376.5 148.5 1376.5 132.5C1376.5 131.833 1376.5 131.167 1376.5 130.5C1377.48 127.375 1377.81 124.042 1377.5 120.5C1393.17 120.5 1408.83 120.5 1424.5 120.5C1424.5 140.5 1424.5 160.5 1424.5 180.5Z" fill="#f8f8f8" fill-rule="evenodd" opacity="1" stroke="none"/>
<path d="M1424.5 181.5C1424.5 181.167 1424.5 180.833 1424.5 180.5C1424.5 160.5 1424.5 140.5 1424.5 120.5C1408.83 120.5 1393.17 120.5 1377.5 120.5C1377.81 124.042 1377.48 127.375 1376.5 130.5C1376.5 126.833 1376.5 123.167 1376.5 119.5C1392.83 119.5 1409.17 119.5 1425.5 119.5C1425.83 140.34 1425.5 161.007 1424.5 181.5Z" fill="#929393" fill-rule="evenodd" opacity="1" stroke="none"/>
<path d="M1424.5 116.5C1424.5 97.5 1424.5 78.5 1424.5 59.5C1408.5 59.5 1392.5 59.5 1376.5 59.5C1376.5 76.8333 1376.5 94.1667 1376.5 111.5C1375.5 94.0079 1375.17 76.3412 1375.5 58.5C1392.17 58.5 1408.83 58.5 1425.5 58.5C1425.83 78.0072 1425.5 97.3405 1424.5 116.5Z" fill="#7f8080" fill-rule="evenodd" opacity="1" stroke="none"/>
<path d="M1424.5 116.5C1408.5 116.5 1392.5 116.5 1376.5 116.5C1376.5 114.833 1376.5 113.167 1376.5 111.5C1376.5 94.1667 1376.5 76.8333 1376.5 59.5C1392.5 59.5 1408.5 59.5 1424.5 59.5C1424.5 78.5 1424.5 97.5 1424.5 116.5Z" fill="#f8f8f8" fill-rule="evenodd" opacity="1" stroke="none"/>
<path d="M1363.5 46.5C1363.83 68.673 1363.5 90.673 1362.5 112.5C1361.71 110.896 1360.38 110.229 1358.5 110.5C1358.5 92.5 1358.5 74.5 1358.5 56.5C1339.83 56.5 1321.17 56.5 1302.5 56.5C1302.5 98.8333 1302.5 141.167 1302.5 183.5C1320.83 183.5 1339.17 183.5 1357.5 183.5C1357.86 166.77 1358.86 150.103 1360.5 133.5C1361.5 133.167 1362.17 132.5 1362.5 131.5C1363.5 151.993 1363.83 172.66 1363.5 193.5C1340.5 193.5 1317.5 193.5 1294.5 193.5C1294.5 144.5 1294.5 95.5 1294.5 46.5C1317.5 46.5 1340.5 46.5 1363.5 46.5Z" fill="#f2f2f2" fill-rule="evenodd" opacity="1" stroke="none"/>
<path d="M1360.5 133.5C1358.86 150.103 1357.86 166.77 1357.5 183.5C1357.5 166.833 1357.5 150.167 1357.5 133.5C1358.5 133.5 1359.5 133.5 1360.5 133.5Z" fill="#656266" fill-rule="evenodd" opacity="1" stroke="none"/>
</g>
</svg>