<?xml version="1.0" encoding="UTF-8"?>
<svg xmlns="http://www.w3.org/2000/svg" version="1.1" viewBox="1356.07 196.15 129.19 137.43" width="129.19" height="137.43" style="fill-rule:nonzero;clip-rule:evenodd;stroke-linecap:round;stroke-linejoin:round;" xml:space="preserve">
<g opacity="1">
<path d="M1456.5 202.5C1462.26 202.149 1467.93 202.649 1473.5 204C1477.59 205.35 1479.26 208.183 1478.5 212.5C1477.36 224.605 1473.03 235.439 1465.5 245C1461.76 247.732 1457.76 250.066 1453.5 252C1455.47 252.495 1457.47 252.662 1459.5 252.5C1451.37 267.122 1439.37 277.289 1423.5 283C1425.13 283.494 1426.8 283.66 1428.5 283.5C1428.61 285.903 1427.61 287.736 1425.5 289C1412.55 297.805 1398.21 302.639 1382.5 303.5C1378.03 311.133 1373.36 318.633 1368.5 326C1363.9 327.583 1362.07 326.083 1363 321.5C1367.25 312.669 1372.25 304.336 1378 296.5C1375.78 275.967 1381.78 258.301 1396 243.5C1396.95 243.905 1397.61 244.572 1398 245.5C1403.17 234.664 1410.83 225.997 1421 219.5C1421.5 219.833 1422 220.167 1422.5 220.5C1421.57 221.768 1421.41 223.101 1422 224.5C1424.06 219.112 1427.56 214.946 1432.5 212C1440.35 208.113 1448.35 204.946 1456.5 202.5Z" fill="#1b1b1b" fill-rule="evenodd" opacity="1" stroke="none" />
<path d="M1454.5 205.5C1460.51 205.334 1466.51 205.501 1472.5 206C1475.44 206.94 1476.78 208.94 1476.5 212C1475.17 222.32 1471.67 231.82 1466 240.5C1463.41 243.762 1460.24 246.262 1456.5 248C1451.7 249.531 1447.03 251.365 1442.5 253.5C1447.13 254.328 1451.8 254.828 1456.5 255C1449.8 262.032 1442.8 268.698 1435.5 275C1428.96 278.791 1421.96 281.291 1414.5 282.5C1414.71 283.086 1415.04 283.586 1415.5 284C1418.62 284.206 1421.62 284.873 1424.5 286C1413.1 295.134 1400.1 299.468 1385.5 299C1404.48 273.179 1425.81 249.345 1449.5 227.5C1447.48 226.959 1445.48 227.459 1443.5 229C1418.96 246.542 1398.12 267.708 1381 292.5C1380.16 285.433 1380.49 278.433 1382 271.5C1385.3 262.893 1389.64 254.893 1395 247.5C1395.94 250.121 1396.77 252.788 1397.5 255.5C1400.49 242.014 1407.65 231.348 1419 223.5C1419.18 226.553 1419.68 229.553 1420.5 232.5C1422.95 226.427 1426.28 220.927 1430.5 216C1438.25 211.618 1446.25 208.118 1454.5 205.5Z" fill="#f4f4f4" fill-rule="evenodd" opacity="1" stroke="none" />
<path d="M1433.5 240.5C1433.5 240.167 1433.5 239.833 1433.5 239.5C1434.56 237.243 1436.23 236.077 1438.5 236C1436.96 237.707 1435.3 239.207 1433.5 240.5Z" fill="#707071" fill-rule="evenodd" opacity="1" stroke="none" />
<path d="M1433.5 239.5C1433.5 239.833 1433.5 240.167 1433.5 240.5C1407.69 264.15 1386.19 291.15 1369 321.5C1368 322.5 1367 323.5 1366 324.5C1365.83 323.833 1365.67 323.167 1365.5 322.5C1382.28 290.048 1404.95 262.381 1433.5 239.5Z" fill="#e1e1e2" fill-rule="evenodd" opacity="1" stroke="none" />
</g>

</svg>