<?xml version="1.0" encoding="UTF-8"?>
<svg xmlns="http://www.w3.org/2000/svg" version="1.1" viewBox="1136.50 203.34 160.50 113.98" width="160.50" height="113.98" style="fill-rule:nonzero;clip-rule:evenodd;stroke-linecap:round;stroke-linejoin:round;" xml:space="preserve">
<g opacity="1">
<path d="M1208.5 209.5C1212.18 209.335 1215.85 209.501 1219.5 210C1221.02 211.351 1222.35 212.851 1223.5 214.5C1223.02 215.478 1222.36 216.311 1221.5 217C1225.43 217.084 1229.1 218.084 1232.5 220C1236.31 223.806 1240.14 227.64 1244 231.5C1244.17 232.333 1244.33 233.167 1244.5 234C1243.24 235.787 1242.41 237.621 1242 239.5C1247.8 244.3 1253.3 249.467 1258.5 255C1259.5 255.667 1260.5 255.667 1261.5 255C1266.7 248.14 1273.37 243.14 1281.5 240C1284.76 239.216 1287.93 239.383 1291 240.5C1289.37 249.499 1286.87 258.332 1283.5 267C1286.57 275.425 1288.57 283.925 1289.5 292.5C1283.73 293.753 1278.4 292.586 1273.5 289C1268.08 285.581 1263.24 281.415 1259 276.5C1251.98 282.357 1244.81 288.024 1237.5 293.5C1239.04 295.204 1240.37 297.037 1241.5 299C1232.81 309.644 1222.48 311.311 1210.5 304C1187.45 304.766 1167.62 297.266 1151 281.5C1148.43 278.597 1146.26 275.431 1144.5 272C1145.23 270.235 1146.57 269.068 1148.5 268.5C1145.02 267.362 1143.02 265.029 1142.5 261.5C1150.22 240.284 1165.22 227.45 1187.5 223C1193.62 217.029 1200.62 212.529 1208.5 209.5Z" fill="#1b1b1b" fill-rule="evenodd" opacity="1" stroke="none" />
<path d="M1283.5 241.5C1285.17 241.5 1286.83 241.5 1288.5 241.5C1286.57 250.199 1283.91 258.699 1280.5 267C1283.34 274.692 1285.68 282.525 1287.5 290.5C1282.82 290.662 1278.48 289.495 1274.5 287C1269.68 283.352 1265.35 279.185 1261.5 274.5C1263.49 271.86 1264.49 268.86 1264.5 265.5C1263.94 262.43 1263.44 259.43 1263 256.5C1268.92 250.062 1275.75 245.062 1283.5 241.5Z" fill="#f0f0f0" fill-rule="evenodd" opacity="1" stroke="none" />
<path d="M1271.5 277.5C1273.62 276.848 1275.62 277.515 1277.5 279.5C1277.33 279.833 1277.17 280.167 1277 280.5C1275.22 279.361 1273.39 278.361 1271.5 277.5Z" fill="#818181" fill-rule="evenodd" opacity="1" stroke="none" />
<path d="M1191.5 224.5C1208.59 223.883 1223.92 228.716 1237.5 239C1245.33 246.167 1253.17 253.333 1261 260.5C1263 264.167 1263 267.833 1261 271.5C1252.74 279.098 1243.9 285.932 1234.5 292C1208.25 304.869 1183.25 302.869 1159.5 286C1154.94 281.946 1150.94 277.446 1147.5 272.5C1151.08 271.225 1154.75 270.225 1158.5 269.5C1153.5 268.559 1149 266.559 1145 263.5C1148.96 247.857 1158.46 236.69 1173.5 230C1179.43 227.523 1185.43 225.69 1191.5 224.5Z" fill="#f4f4f4" fill-rule="evenodd" opacity="1" stroke="none" />
<path d="M1200.5 277.5C1203.22 276.667 1205.88 277.167 1208.5 279C1205.67 279.446 1203 278.946 1200.5 277.5Z" fill="#414142" fill-rule="evenodd" opacity="1" stroke="none" />
<path d="M1203.5 271.5C1206.57 271.183 1209.57 271.516 1212.5 272.5C1208.88 273.659 1205.21 273.825 1201.5 273C1202.42 272.722 1203.08 272.222 1203.5 271.5Z" fill="#454646" fill-rule="evenodd" opacity="1" stroke="none" />
<path d="M1187.5 237.5C1193.32 243.774 1196.32 251.274 1196.5 260C1197.02 271.461 1193.35 281.295 1185.5 289.5C1185.17 289.167 1184.83 288.833 1184.5 288.5C1196.67 272.183 1197.67 255.183 1187.5 237.5Z" fill="#161717" fill-rule="evenodd" opacity="1" stroke="none" />
<path d="M1168.5 250.5C1175.25 250.834 1176.92 254 1173.5 260C1167.5 260.993 1165.33 258.493 1167 252.5C1167.72 251.956 1168.22 251.289 1168.5 250.5Z" fill="#0f0f0f" fill-rule="evenodd" opacity="1" stroke="none" />
<path d="M1169.5 252.5C1171.34 252.639 1171.67 253.306 1170.5 254.5C1169.7 254.043 1169.37 253.376 1169.5 252.5Z" fill="#989999" fill-rule="evenodd" opacity="1" stroke="none" />
<path d="M1219.5 219.5C1222.94 219.301 1226.27 219.801 1229.5 221C1234.5 224.667 1238.83 229 1242.5 234C1241.6 235.236 1240.43 236.07 1239 236.5C1235 233.182 1230.5 230.682 1225.5 229C1225.17 228.667 1224.83 228.333 1224.5 228C1226.83 227 1229.17 226 1231.5 225C1228.03 224.6 1224.86 225.434 1222 227.5C1219.17 226.333 1216.33 225.167 1213.5 224C1215.39 222.236 1217.39 220.736 1219.5 219.5Z" fill="#e2e2e3" fill-rule="evenodd" opacity="1" stroke="none" />
<path d="M1207.5 223.5C1205.26 223.795 1203.26 223.461 1201.5 222.5C1204.56 219.117 1208.23 216.45 1212.5 214.5C1213.7 214.846 1213.7 215.346 1212.5 216C1209.23 217.608 1206.23 219.608 1203.5 222C1205.06 222.21 1206.39 222.71 1207.5 223.5Z" fill="#3f403f" fill-rule="evenodd" opacity="1" stroke="none" />
<path d="M1207.5 223.5C1206.39 222.71 1205.06 222.21 1203.5 222C1206.23 219.608 1209.23 217.608 1212.5 216C1213.7 215.346 1213.7 214.846 1212.5 214.5C1208.23 216.45 1204.56 219.117 1201.5 222.5C1191.31 223.871 1190.31 222.038 1198.5 217C1204.23 212.864 1210.57 211.197 1217.5 212C1220.79 213.077 1221.29 214.91 1219 217.5C1215.95 221.067 1212.11 223.067 1207.5 223.5Z" fill="#e6e6e6" fill-rule="evenodd" opacity="1" stroke="none" />
<path d="M1207.5 264.5C1218.88 261.708 1222.71 265.708 1219 276.5C1216.94 278.901 1215.27 281.567 1214 284.5C1210.12 288.235 1205.95 288.402 1201.5 285C1199.94 284.059 1198.61 282.892 1197.5 281.5C1197.83 281.167 1198.17 280.833 1198.5 280.5C1205.93 288.046 1211.76 287.046 1216 277.5C1218.21 274.15 1218.71 270.65 1217.5 267C1211.31 265.814 1205.64 266.981 1200.5 270.5C1199.41 269.132 1199.74 267.965 1201.5 267C1203.72 266.434 1205.72 265.6 1207.5 264.5Z" fill="#171717" fill-rule="evenodd" opacity="1" stroke="none" />
<path d="M1236.5 301.5C1234.14 301.663 1231.81 301.497 1229.5 301C1227.88 300.764 1226.88 299.931 1226.5 298.5C1231.06 294.431 1235.39 294.598 1239.5 299C1238.63 300.045 1237.63 300.878 1236.5 301.5Z" fill="#e9eaea" fill-rule="evenodd" opacity="1" stroke="none" />
<path d="M1221.5 300.5C1224.88 300.959 1228.21 301.626 1231.5 302.5C1231.42 303.75 1230.76 304.583 1229.5 305C1223.9 306.091 1218.57 305.424 1213.5 303C1216.08 301.856 1218.75 301.022 1221.5 300.5Z" fill="#ebebeb" fill-rule="evenodd" opacity="1" stroke="none" />
<path d="M1226.5 298.5C1226.88 299.931 1227.88 300.764 1229.5 301C1231.81 301.497 1234.14 301.663 1236.5 301.5C1235.08 302.451 1233.41 302.784 1231.5 302.5C1228.21 301.626 1224.88 300.959 1221.5 300.5C1223.03 299.691 1224.69 299.024 1226.5 298.5Z" fill="#6c6d6e" fill-rule="evenodd" opacity="1" stroke="none" />
</g>

</svg>