<?xml version="1.0" encoding="UTF-8"?>
<svg xmlns="http://www.w3.org/2000/svg" version="1.1" viewBox="1171 301 216 190" width="216" height="190" style="fill-rule:nonzero;clip-rule:evenodd;stroke-linecap:round;stroke-linejoin:round;" xml:space="preserve">
<g transform="translate(1153,283)"><ns0:path xmlns:ns0="http://www.w3.org/2000/svg" d="M0 0 C7.776 7.776 7.557 17.627 7.565 27.923 C7.12 61.938 -10.752 94.851 -34.75 118.25 C-53.129 135.615 -74.439 146.661 -98.75 153.25 C-99.984 153.592 -101.217 153.933 -102.488 154.285 C-125.341 159.563 -155.482 158.778 -176.258 146.805 C-182.116 142.676 -185.499 138.279 -187 131.188 C-191.443 101.057 -178.107 69.14 -160.575 45.117 C-156.036 39.122 -150.962 33.659 -145.75 28.25 C-145.096 27.533 -144.443 26.817 -143.77 26.078 C-124.949 6.014 -94.821 -7.707 -67.75 -10.75 C-66.877 -10.86 -66.005 -10.969 -65.105 -11.082 C-43.321 -13.474 -18.907 -12.031 0 0 Z M-65.75 -4.75 C-65.06 -4.067 -64.371 -3.384 -63.66 -2.68 C-44.023 16.978 -28.098 38.24 -14.582 62.522 C-14.109 63.371 -13.636 64.219 -13.148 65.094 C-12.733 65.848 -12.317 66.603 -11.888 67.381 C-10.75 69.25 -10.75 69.25 -8.75 71.25 C-2.001 59.224 -2.001 59.224 -3.156 53.098 C-5.168 47.672 -8.461 42.971 -11.75 38.25 C-12.754 36.75 -13.758 35.25 -14.762 33.75 C-17.652 29.502 -20.672 25.363 -23.75 21.25 C-24.415 20.35 -25.08 19.45 -25.766 18.523 C-31.214 11.441 -37.428 4.99 -43.555 -1.504 C-44.122 -2.105 -44.689 -2.707 -45.273 -3.326 C-48.2 -6.147 -50.626 -5.885 -54.562 -5.875 C-55.6 -5.878 -56.638 -5.88 -57.707 -5.883 C-60.503 -5.761 -63.029 -5.384 -65.75 -4.75 Z M-39.75 -5.75 C-38.904 -4.557 -38.047 -3.371 -37.188 -2.188 C-36.712 -1.526 -36.236 -0.865 -35.746 -0.184 C-34.053 1.881 -32.332 3.679 -30.426 5.539 C-26.774 9.144 -23.603 12.981 -20.5 17.062 C-19.948 17.784 -19.396 18.506 -18.827 19.25 C-13.238 26.698 -8.44 34.587 -3.781 42.64 C-2.75 44.25 -2.75 44.25 -0.75 46.25 C2.661 33.289 4.452 19.529 -1.25 6.938 C-10.153 -2.633 -27.275 -5.15 -39.75 -5.75 Z M-142.75 33.25 C-143.313 33.784 -143.877 34.317 -144.457 34.867 C-148.733 39.003 -152.296 43.369 -155.688 48.25 C-155.942 48.616 -155.942 48.616 -157.233 50.466 C-160.594 55.37 -163.743 60.361 -166.625 65.562 C-166.977 66.178 -167.329 66.794 -167.691 67.428 C-168.617 69.176 -168.617 69.176 -169.75 72.25 C-168.645 75.215 -167.076 77.15 -164.809 79.316 C-164.519 79.598 -164.519 79.598 -163.053 81.02 C-162.438 81.612 -161.822 82.203 -161.188 82.812 C-156.046 87.851 -151.266 92.982 -146.805 98.645 C-145.47 100.337 -144.101 102.003 -142.695 103.637 C-130.856 117.449 -121.307 133.245 -112.75 149.25 C-104.797 148.861 -97.773 147.386 -90.25 144.812 C-89.731 144.636 -89.731 144.636 -87.104 143.744 C-57.439 133.292 -33.551 113.392 -16.81 86.9 C-15.885 85.46 -14.895 84.061 -13.895 82.672 C-12.326 79.354 -12.731 77.757 -13.75 74.25 C-14.902 71.641 -16.086 69.188 -17.438 66.688 C-17.827 65.961 -18.216 65.234 -18.617 64.485 C-28.28 46.898 -40.163 30.159 -53.773 15.418 C-55.49 13.536 -57.101 11.616 -58.688 9.625 C-59.368 8.841 -60.049 8.057 -60.75 7.25 C-61.41 7.25 -62.07 7.25 -62.75 7.25 C-62.75 6.59 -62.75 5.93 -62.75 5.25 C-64.43 3.594 -64.43 3.594 -66.625 1.75 C-68.74 -0.039 -70.79 -1.79 -72.75 -3.75 C-98.367 -3.75 -125.387 16.505 -142.75 33.25 Z M-172.75 79.25 C-173.451 80.827 -174.136 82.412 -174.812 84 C-175.195 84.882 -175.578 85.763 -175.973 86.672 C-176.836 89.535 -176.992 90.556 -175.75 93.25 C-173.781 95.441 -173.781 95.441 -171.25 97.812 C-165.943 102.969 -161.319 108.439 -156.75 114.25 C-155.97 115.213 -155.19 116.176 -154.387 117.168 C-145.866 127.891 -138.788 139.519 -131.75 151.25 C-129.605 151.085 -129.605 151.085 -118.75 150.25 C-120.56 144.819 -122.544 140.846 -125.5 136.062 C-125.981 135.282 -126.462 134.502 -126.958 133.698 C-139.479 113.725 -154.503 95.331 -171.75 79.25 C-172.08 79.25 -172.41 79.25 -172.75 79.25 Z M-178.75 98.25 C-182.107 109.919 -184.9 124.979 -178.75 136.25 C-171.765 145.854 -157.738 147.87 -146.755 149.956 C-144.072 150.349 -141.455 150.366 -138.75 150.25 C-147.146 133.529 -158.599 118.88 -171.188 105.125 C-171.708 104.556 -172.229 103.986 -172.765 103.4 C-176.503 99.373 -176.503 99.373 -178.75 98.25 Z " fill="#000000" transform="translate(216.75,40.75)" />
<ns0:path xmlns:ns0="http://www.w3.org/2000/svg" d="M0 0 C2.875 1 2.875 1 4.25 3.062 C4.353 3.382 4.353 3.382 4.875 5 C5.741 4.484 6.608 3.969 7.5 3.438 C11.304 1.817 12.976 1.759 16.875 3 C19.041 6.248 19.427 7.231 18.875 11 C18.194 11.578 17.514 12.155 16.812 12.75 C14.875 15 14.875 15 14.973 17.109 C15.105 17.898 15.238 18.687 15.375 19.5 C16.056 23.708 16.056 23.708 14.25 26.625 C11.875 28 11.875 28 9.375 27.938 C6.778 26.964 4.979 25.792 2.875 24 C0.895 25.32 -1.085 26.64 -3.125 28 C-2.774 28.536 -2.424 29.073 -2.062 29.625 C-0.806 32.807 -1.204 34.742 -2.125 38 C-5.125 40 -5.125 40 -8.062 39.812 C-11.122 39.001 -12.779 38.075 -15.125 36 C-15.517 36.33 -15.517 36.33 -17.5 38 C-20.125 40 -20.125 40 -22.125 40 C-21.63 40.722 -21.135 41.444 -20.625 42.188 C-19.019 45.199 -18.597 46.656 -19.125 50 C-20.188 51.875 -20.188 51.875 -22.125 53 C-26.238 52.776 -29.579 52.128 -33.125 50 C-33.579 50.495 -34.032 50.99 -34.5 51.5 C-36.125 53 -36.125 53 -38.125 53 C-37.795 53.701 -37.465 54.403 -37.125 55.125 C-36.018 58.308 -35.828 60.653 -36.125 64 C-38.125 66 -38.125 66 -41.062 66.312 C-44.125 66 -44.125 66 -46 64.5 C-46.371 64.005 -46.743 63.51 -47.125 63 C-47.641 63.309 -48.156 63.619 -48.688 63.938 C-51.879 65.329 -54.653 65.811 -58.125 66 C-60.062 65 -60.062 65 -61.125 63 C-61.5 59.5 -61.5 59.5 -61.125 56 C-60.612 55.536 -60.099 55.072 -59.57 54.594 C-58.125 53 -58.125 53 -58.156 50.625 C-58.311 49.759 -58.466 48.892 -58.625 48 C-59.437 43.455 -59.437 43.455 -57.871 41.168 C-54.998 39.246 -52.387 40.371 -49.125 41 C-45.125 41 -45.125 41 -42.875 39 C-42.297 38.34 -41.72 37.68 -41.125 37 C-41.29 36.722 -41.29 36.722 -42.125 35.312 C-43.303 32.588 -43.577 30.937 -43.125 28 C-41.438 26.125 -41.438 26.125 -39.125 25 C-35.264 25.193 -33.031 26.525 -30.125 29 C-29.733 28.67 -29.733 28.67 -27.75 27 C-25.125 25 -25.125 25 -23.125 25 C-23.29 24.732 -23.29 24.732 -24.125 23.375 C-25.39 20.371 -25.469 18.232 -25.125 15 C-24.062 13.062 -24.062 13.062 -22.125 12 C-17.523 12.167 -14.538 12.86 -11.125 16 C-8.562 14.5 -8.562 14.5 -6.125 12 C-6.16 9.888 -6.566 7.98 -6.969 5.91 C-7.125 4 -7.125 4 -5.562 1.438 C-3.125 0 -3.125 0 0 0 Z M-1.125 6 C-0.795 6.763 -0.465 7.526 -0.125 8.312 C0.875 11 0.875 11 0.875 14 C-1.496 15.754 -1.496 15.754 -4.562 17.562 C-10.03 20.809 -10.03 20.809 -11.125 23 C-14.125 23 -14.125 23 -15.512 21.688 C-16.716 20.125 -17.921 18.562 -19.125 17 C-19.125 20.999 -17.399 22.802 -15.125 26 C-15.806 26.227 -16.486 26.454 -17.188 26.688 C-20.921 28.356 -23.847 30.557 -27.125 33 C-26.795 33.99 -26.465 34.98 -26.125 36 C-22.696 35.393 -20.697 34.106 -18 31.938 C-14.337 29 -14.337 29 -12.125 29 C-10.418 30.626 -8.748 32.291 -7.125 34 C-7.455 33.257 -7.785 32.515 -8.125 31.75 C-9.125 29 -9.125 29 -9.125 25 C-6.789 23.113 -6.789 23.113 -3.75 21.312 C-2.752 20.711 -1.755 20.109 -0.727 19.488 C0.787 18.622 2.315 17.78 3.875 17 C5.855 18.65 7.835 20.3 9.875 22 C8.885 19.03 7.895 16.06 6.875 13 C8.875 12 10.875 11 12.875 10 C12.875 9.34 12.875 8.68 12.875 8 C9.5 8.547 7.793 9.055 4.875 11 C2.895 9.35 0.915 7.7 -1.125 6 Z M-37.125 31 C-36.97 31.382 -36.97 31.382 -36.188 33.312 C-35.446 35.188 -34.763 37.087 -34.125 39 C-36.029 40.704 -37.946 42.387 -39.875 44.062 C-40.144 44.305 -40.144 44.305 -41.508 45.533 C-45.56 49.017 -45.56 49.017 -48.328 48.934 C-50.125 48 -50.125 48 -53.125 46 C-52.692 47.031 -52.259 48.062 -51.812 49.125 C-51.125 53 -51.125 53 -52.105 54.801 C-53.5 56.438 -53.5 56.438 -56.125 59 C-55.135 59.33 -54.145 59.66 -53.125 60 C-51.422 58.713 -49.754 57.379 -48.125 56 C-46.125 56 -46.125 56 -44 58 C-43.381 58.66 -42.763 59.32 -42.125 60 C-42.434 59.257 -42.744 58.515 -43.062 57.75 C-43.934 55.493 -44.602 53.355 -45.125 51 C-44.465 50.794 -43.805 50.588 -43.125 50.375 C-39.009 48.488 -35.666 45.794 -32.125 43 C-29.631 44.204 -27.444 45.454 -25.125 47 C-26.737 43.464 -28.845 40.452 -31.125 37.312 C-31.826 36.339 -32.528 35.366 -33.25 34.363 C-35.125 32 -35.125 32 -37.125 31 Z " fill="#000000" transform="translate(138.125,62)" />
  </g>
</svg>
