<?xml version="1.0" encoding="UTF-8"?>
<svg xmlns="http://www.w3.org/2000/svg" version="1.1" viewBox="462 279 212 213" width="212" height="213" style="fill-rule:nonzero;clip-rule:evenodd;stroke-linecap:round;stroke-linejoin:round;" xml:space="preserve">
<g transform="translate(444,261)"><ns0:path xmlns:ns0="http://www.w3.org/2000/svg" d="M0 0 C1.688 1.476 3.356 2.975 5 4.5 C5.788 5.219 6.575 5.939 7.387 6.68 C26.419 24.84 36.517 49.379 37.25 75.5 C36.546 100.594 27.426 122.702 11 141.5 C10.672 141.879 10.672 141.879 9.012 143.797 C-6.673 160.59 -29.78 170.814 -52.645 171.738 C-80.07 172.327 -103.453 164.046 -124 145.5 C-142.769 127.503 -153.577 102.44 -154.188 76.438 C-153.861 52.757 -145.978 31.824 -131 13.5 C-130.375 12.71 -129.75 11.92 -129.105 11.105 C-114.075 -6.963 -90.546 -17.709 -67.488 -20.223 C-43.289 -22.147 -19.055 -15.201 0 0 Z M-114.129 4.957 C-116 6.5 -116 6.5 -118.938 8.375 C-123.59 13.168 -123.085 20.191 -123 26.5 C-101.796 34.871 -101.796 34.871 -94.477 32.535 C-91.068 30.995 -88.067 28.927 -85.023 26.771 C-82.793 25.37 -80.587 24.463 -78.129 23.523 C-68.491 19.607 -68.491 19.607 -65 15.5 C-62.1 8.24 -61.959 0.234 -62 -7.5 C-81.334 -15.864 -98.403 -8.114 -114.129 4.957 Z M-46.75 -10.188 C-47.079 -10.122 -47.079 -10.122 -48.746 -9.791 C-52.043 -9.099 -54.16 -8.393 -57 -6.5 C-57.616 -4.608 -57.616 -4.608 -57.949 -2.324 C-58.075 -1.496 -58.201 -0.668 -58.33 0.186 C-58.448 1.052 -58.566 1.919 -58.688 2.812 C-58.752 3.24 -58.752 3.24 -59.08 5.404 C-59.426 7.766 -59.723 10.129 -60 12.5 C-60.12 13.435 -60.24 14.369 -60.363 15.332 C-59.811 18.626 -58.023 19.77 -55.5 21.875 C-54.585 22.654 -53.67 23.432 -52.727 24.234 C-51.827 24.982 -50.927 25.73 -50 26.5 C-48.621 27.704 -47.246 28.912 -45.875 30.125 C-45.259 30.642 -44.643 31.158 -44.008 31.691 C-42 33.5 -42 33.5 -40.522 35.345 C-37.427 38.884 -34.66 40.629 -29.98 41.064 C-25.148 41.276 -20.331 41.111 -15.5 40.938 C-13.802 40.902 -12.104 40.87 -10.406 40.842 C-6.269 40.765 -2.135 40.645 2 40.5 C6.295 15.46 6.295 15.46 4.027 10.277 C2.184 8.283 0.285 6.977 -2 5.5 C-3.097 4.698 -4.19 3.891 -5.281 3.082 C-17.465 -5.717 -31.355 -13.449 -46.75 -10.188 Z M-127.439 32.674 C-127.929 33.216 -128.42 33.758 -128.926 34.316 C-129.476 34.916 -130.025 35.517 -130.592 36.135 C-131.16 36.771 -131.727 37.407 -132.312 38.062 C-132.869 38.672 -133.425 39.281 -133.998 39.908 C-135.121 41.144 -136.236 42.386 -137.342 43.637 C-138.439 44.87 -139.555 46.086 -140.689 47.285 C-148.853 56.151 -148.546 69.138 -148.238 80.645 C-147.959 85.164 -147.263 89.16 -146 93.5 C-145.684 93.579 -145.684 93.579 -144.086 93.98 C-137.245 95.765 -130.677 98.008 -124.066 100.512 C-121 101.5 -121 101.5 -117 101.5 C-115.571 100.114 -115.571 100.114 -114.266 98.168 C-114.022 97.812 -114.022 97.812 -112.786 96.012 C-112.279 95.245 -111.772 94.478 -111.25 93.688 C-110.187 92.128 -109.123 90.57 -108.059 89.012 C-107.799 88.628 -107.799 88.628 -106.488 86.685 C-104.487 83.746 -102.41 80.871 -100.312 78 C-99.69 77.144 -99.067 76.288 -98.426 75.406 C-97 73.5 -97 73.5 -96 72.5 C-96.206 64.761 -97.809 56.995 -99.062 49.375 C-99.249 48.228 -99.435 47.08 -99.627 45.898 C-100.082 43.099 -100.54 40.299 -101 37.5 C-104.602 36.494 -108.207 35.496 -111.812 34.5 C-112.837 34.214 -113.861 33.928 -114.916 33.633 C-115.899 33.362 -116.882 33.091 -117.895 32.812 C-118.801 32.561 -119.706 32.31 -120.64 32.051 C-125.333 30.956 -125.333 30.956 -127.439 32.674 Z M8 44.5 C8.33 45.49 8.66 46.48 9 47.5 C9 46.51 9 45.52 9 44.5 C8.67 44.5 8.34 44.5 8 44.5 Z M-33.93 46.976 C-35.25 49.084 -36.086 51.188 -37 53.5 C-38.117 55.232 -39.262 56.946 -40.43 58.645 C-49.292 72.781 -49.292 72.781 -48.792 79.145 C-47.252 84.334 -44.439 88.726 -41.456 93.201 C-39.047 97.006 -37.278 101.086 -35.438 105.188 C-34.772 106.609 -34.105 108.03 -33.434 109.449 C-32.961 110.456 -32.487 111.463 -32 112.5 C-27.735 112.843 -23.471 113.12 -19.199 113.354 C-17.02 113.499 -14.859 113.722 -12.688 113.953 C-2.65 114.811 -2.65 114.811 1.246 111.715 C2.815 109.37 4.048 107.051 5.153 104.458 C6.142 102.171 7.234 99.949 8.336 97.715 C10.317 93.666 12.254 89.602 14.1 85.489 C14.805 83.931 15.556 82.395 16.324 80.867 C18.135 74.523 15.035 68.723 12.312 63.125 C11.986 62.421 11.659 61.717 11.322 60.992 C10.635 59.552 9.914 58.127 9.162 56.719 C8 54.5 8 54.5 6.992 51.993 C5.6 49.121 4.518 47.486 2 45.5 C-2.95 44.343 -7.64 44.244 -12.704 44.382 C-15.063 44.438 -17.409 44.402 -19.768 44.357 C-30.485 44.341 -30.485 44.341 -33.93 46.976 Z M10 47.5 C10.33 48.49 10.66 49.48 11 50.5 C11 49.51 11 48.52 11 47.5 C10.67 47.5 10.34 47.5 10 47.5 Z M12 50.5 C13.76 56.42 16.397 61.916 19 67.5 C20 64.5 20 64.5 18.566 61.145 C17.909 59.862 17.24 58.585 16.562 57.312 C16.224 56.658 15.886 56.004 15.537 55.33 C14.7 53.715 13.851 52.107 13 50.5 C12.67 50.5 12.34 50.5 12 50.5 Z M-97.19 80.646 C-97.767 81.505 -98.343 82.365 -98.938 83.25 C-99.539 84.122 -100.141 84.993 -100.761 85.891 C-101.961 87.632 -103.153 89.377 -104.338 91.128 C-105.765 93.164 -107.244 95.055 -108.859 96.941 C-111.168 99.788 -112.807 102.034 -114 105.5 C-113.515 109.972 -112.01 113.581 -109.972 117.57 C-108.928 119.643 -107.996 121.748 -107.066 123.875 C-106.403 125.335 -105.735 126.794 -105.062 128.25 C-104.907 128.596 -104.907 128.596 -104.121 130.347 C-102.546 133.543 -101.597 135.255 -98.244 136.633 C-95.139 137.463 -92.113 138.081 -88.938 138.57 C-87.811 138.744 -86.684 138.918 -85.523 139.098 C-84.361 139.272 -83.198 139.446 -82 139.625 C-80.837 139.807 -79.675 139.989 -78.477 140.176 C-73.254 140.971 -68.294 141.602 -63 141.5 C-62.67 142.49 -62.34 143.48 -62 144.5 C-69.144 148.072 -79.992 144.843 -87.438 143.438 C-89.539 143.043 -91.642 142.656 -93.746 142.277 C-94.661 142.105 -95.575 141.932 -96.517 141.754 C-100.002 141.398 -102.103 141.842 -104.922 143.91 C-105.525 144.455 -106.128 145.001 -106.75 145.562 C-107.364 146.11 -107.977 146.658 -108.609 147.223 C-108.839 147.433 -108.839 147.433 -110 148.5 C-101.322 158.736 -83.029 164.154 -70 165.5 C-47.756 166.845 -47.756 166.845 -42 163.5 C-43.848 158.408 -48.416 155.355 -52.389 151.922 C-52.963 151.411 -53.537 150.901 -54.129 150.375 C-54.656 149.919 -55.182 149.462 -55.725 148.992 C-57.338 147.105 -57.84 145.987 -58 143.5 C-56.832 141.353 -56.832 141.353 -55.027 139.051 C-54.701 138.626 -54.701 138.626 -53.049 136.479 C-52.352 135.599 -51.655 134.719 -50.938 133.812 C-48.273 130.389 -45.625 126.954 -43 123.5 C-42.689 123.096 -42.689 123.096 -41.114 121.049 C-36.965 115.343 -36.965 115.343 -37.121 111.551 C-37.338 111.099 -37.338 111.099 -38.438 108.812 C-38.957 107.728 -39.476 106.644 -40.012 105.527 C-40.169 105.219 -40.169 105.219 -40.966 103.66 C-42.185 101.113 -43.186 98.511 -44.207 95.879 C-50.172 81.331 -50.172 81.331 -54.926 78.253 C-59.141 76.683 -63.368 76.52 -67.829 76.535 C-71.323 76.479 -74.675 75.862 -78.125 75.312 C-80.411 74.999 -82.704 74.726 -85 74.5 C-86.154 74.303 -87.307 74.106 -88.496 73.902 C-93.268 74.716 -94.452 76.818 -97.19 80.646 Z M22 78.5 C21.443 79.77 20.886 81.039 20.312 82.348 C7.758 110.742 7.758 110.742 4 114.5 C3.537 122.516 4.208 130.526 5 138.5 C20.498 123.941 30.403 102.124 31.125 80.812 C31.084 80.049 31.042 79.286 31 78.5 C28.03 78.5 25.06 78.5 22 78.5 Z " fill="#000000" transform="translate(183,49.5)" />
  </g>
</svg>
