<?xml version="1.0" encoding="UTF-8" standalone="no"?>
<svg xmlns="http://www.w3.org/2000/svg" fill-rule="nonzero" clip-rule="evenodd" stroke-miterlimit="10" style="fill-rule:nonzero;clip-rule:evenodd;stroke-linecap:round;stroke-linejoin:round;"
     viewBox="34.5 240.4 183.2 197.0" xml:space="preserve">
<g opacity="1">
<path d="M172.5 253.5C177.123 252.408 178.956 254.075 178 258.5C170.022 268.645 161.856 278.645 153.5 288.5C153.667 288.833 153.833 289.167 154 289.5C163.196 279.97 172.696 270.803 182.5 262C187.083 261.066 188.583 262.9 187 267.5C178.961 277.582 170.461 287.249 161.5 296.5C162.002 297.521 162.668 297.688 163.5 297C172.381 286.451 182.214 276.951 193 268.5C194.622 268.954 195.788 269.954 196.5 271.5C188.93 282.74 180.597 293.406 171.5 303.5C172.002 304.521 172.668 304.688 173.5 304C180.865 296.97 187.865 289.636 194.5 282C197.054 279.937 199.72 278.103 202.5 276.5C203.442 276.608 204.275 276.941 205 277.5C205.667 279.167 205.667 280.833 205 282.5C198.073 294.024 190.406 305.024 182 315.5C173.841 326.219 163.175 330.219 150 327.5C147.679 327.909 145.513 328.743 143.5 330C135.295 338.536 127.462 347.369 120 356.5C104.195 377.273 88.0281 397.773 71.5 418C58.6327 425.382 50.2993 422.049 46.5 408C46.7261 404.988 47.5594 402.155 49 399.5C76.6104 373.558 103.944 347.225 131 320.5C132.936 318.22 133.769 315.553 133.5 312.5C131.241 302.998 132.408 293.998 137 285.5C148.431 274.228 160.265 263.561 172.5 253.5Z" fill="#161616" fill-rule="evenodd" opacity="1" stroke="none"/>
<path d="M173.5 256.5C175.028 256.517 175.528 257.184 175 258.5C167 267.833 159 277.167 151 286.5C150.505 288.473 150.338 290.473 150.5 292.5C152.989 292.702 155.323 292.202 157.5 291C165.651 281.682 174.317 272.849 183.5 264.5C184.408 265.79 184.241 267.123 183 268.5C175.371 277.797 167.371 286.797 159 295.5C159.133 300.606 161.3 301.606 165.5 298.5C173.495 288.672 182.328 279.672 192 271.5C192.5 271.667 193 271.833 193.5 272C185.333 282.167 177.167 292.333 169 302.5C168.066 307.083 169.9 308.583 174.5 307C183.667 297.833 192.833 288.667 202 279.5C194.656 294.295 185.156 307.795 173.5 320C166.573 325.147 158.907 326.647 150.5 324.5C147.135 324.787 144.135 325.954 141.5 328C131.882 338.74 122.382 349.573 113 360.5C98.5 379 84 397.5 69.5 416C58.9667 421.994 52.3001 419.16 49.5 407.5C49.7628 404.972 50.5961 402.639 52 400.5C79.3036 374.864 106.304 348.864 133 322.5C134.439 320.725 135.439 318.725 136 316.5C136.532 311.25 136.032 306.084 134.5 301C134.816 296.901 135.983 293.067 138 289.5C142.467 284.032 147.3 278.865 152.5 274C159.69 268.302 166.69 262.469 173.5 256.5Z" fill="#f3f3f3" fill-rule="evenodd" opacity="1" stroke="none"/>
</g>
</svg>