<?xml version="1.0" encoding="UTF-8"?>
<svg xmlns="http://www.w3.org/2000/svg" version="1.1" viewBox="585.17 342.02 120.50 130.48" width="120.50" height="130.48" style="fill-rule:nonzero;clip-rule:evenodd;stroke-linecap:round;stroke-linejoin:round;" xml:space="preserve">
<g opacity="1">
<path d="M696.5 377.5C695.508 377.328 694.842 377.662 694.5 378.5C689.313 376.995 684.147 375.328 679 373.5C675.797 376.362 672.297 378.862 668.5 381C671.128 383.159 674.128 384.659 677.5 385.5C680.86 384.481 684.193 383.481 687.5 382.5C688.492 382.328 689.158 382.662 689.5 383.5C686.408 384.544 683.408 385.878 680.5 387.5C679.183 393.654 679.183 399.654 680.5 405.5C680.44 406.043 680.107 406.376 679.5 406.5C678.67 400.528 678.17 394.528 678 388.5C677.832 409.671 677.332 430.671 676.5 451.5C676.667 430.497 676.5 409.497 676 388.5C672.526 389.928 672.026 389.428 674.5 387C666.969 382.676 658.969 381.509 650.5 383.5C655.581 386.707 660.914 389.374 666.5 391.5C666.5 397.167 666.5 402.833 666.5 408.5C665.833 408.5 665.167 408.5 664.5 408.5C664.827 403.456 664.494 398.456 663.5 393.5C662.893 393.624 662.56 393.957 662.5 394.5C657.113 396.297 651.779 398.297 646.5 400.5C645.504 406.798 645.17 413.132 645.5 419.5C644.672 413.681 644.172 407.681 644 401.5C643.828 407.681 643.328 413.681 642.5 419.5C642.5 413.167 642.5 406.833 642.5 400.5C636.5 398.5 630.5 396.5 624.5 394.5C623.833 396.167 623.167 397.833 622.5 399.5C622.799 397.396 622.466 395.396 621.5 393.5C619.867 395.503 617.867 396.836 615.5 397.5C615.5 395.167 615.5 392.833 615.5 390.5C616.167 391.167 616.833 391.833 617.5 392.5C617.56 393.043 617.893 393.376 618.5 393.5C620.457 390.983 623.124 389.816 626.5 390C630.532 388.322 634.199 386.156 637.5 383.5C631.82 382.379 626.153 381.213 620.5 380C617.847 378.345 615.514 376.345 613.5 374C610.667 373.554 608.001 374.054 605.5 375.5C604.791 374.596 603.791 374.263 602.5 374.5C605.408 373.188 608.408 371.855 611.5 370.5C608.331 360.679 611.331 353.512 620.5 349C627.803 348.905 633.303 352.072 637 358.5C638.5 361.5 640 364.5 641.5 367.5C644.034 368.777 646.534 368.777 649 367.5C652.068 360.108 656.901 354.275 663.5 350C672.708 348.016 678.541 351.516 681 360.5C681.091 364.253 681.258 367.92 681.5 371.5C686.6 373.527 691.6 375.527 696.5 377.5Z" fill="#1c1c1c" fill-rule="evenodd" opacity="1" stroke="none" />
<path d="M641.5 370.5C649.036 369.92 651.536 373.253 649 380.5C645.667 383.167 642.333 383.167 639 380.5C638.333 378.5 638.333 376.5 639 374.5C640.481 373.529 641.315 372.196 641.5 370.5Z" fill="#e8e8e8" fill-rule="evenodd" opacity="1" stroke="none" />
<path d="M621.5 364.5C626.962 365.437 631.295 368.27 634.5 373C628.17 373.163 623.837 370.33 621.5 364.5Z" fill="#e7e8e7" fill-rule="evenodd" opacity="1" stroke="none" />
<path d="M664.5 351.5C675.771 351.617 680.271 357.283 678 368.5C676.167 373 673 376.167 668.5 378C662.99 379.89 657.324 380.723 651.5 380.5C651.33 379.178 651.663 378.011 652.5 377C657.383 375.928 662.05 374.261 666.5 372C668.57 371.052 670.07 369.552 671 367.5C671.182 370.881 672.682 371.881 675.5 370.5C673.408 362.662 668.741 360.496 661.5 364C657.667 366.5 654.5 369.667 652 373.5C650.542 370.453 650.875 367.453 653 364.5C655.984 359.353 659.818 355.02 664.5 351.5Z" fill="#ececec" fill-rule="evenodd" opacity="1" stroke="none" />
<path d="M664.5 364.5C670.128 364.587 670.795 366.42 666.5 370C663.071 372.106 659.404 373.106 655.5 373C658.396 369.934 661.396 367.101 664.5 364.5Z" fill="#e0e1e1" fill-rule="evenodd" opacity="1" stroke="none" />
<path d="M619.5 351.5C625.798 350.732 630.631 353.065 634 358.5C642.484 372.687 640.651 374.52 628.5 364C625.711 362.336 622.877 362.17 620 363.5C619.333 365.167 619.333 366.833 620 368.5C625.06 372.673 630.56 376.006 636.5 378.5C627.517 380.894 620.017 378.561 614 371.5C610.914 363.374 612.747 356.707 619.5 351.5Z" fill="#ededed" fill-rule="evenodd" opacity="1" stroke="none" />
<path d="M617.5 392.5C619.25 385.418 616.583 382.918 609.5 385C605.016 383.257 600.683 381.257 596.5 379C599.327 377.336 602.327 376.17 605.5 375.5C608.001 374.054 610.667 373.554 613.5 374C615.514 376.345 617.847 378.345 620.5 380C626.153 381.213 631.82 382.379 637.5 383.5C634.199 386.156 630.532 388.322 626.5 390C623.124 389.816 620.457 390.983 618.5 393.5C617.893 393.376 617.56 393.043 617.5 392.5Z" fill="#eaeaea" fill-rule="evenodd" opacity="1" stroke="none" />
<path d="M694.5 378.5C692.167 379.833 689.833 381.167 687.5 382.5C684.193 383.481 680.86 384.481 677.5 385.5C674.128 384.659 671.128 383.159 668.5 381C672.297 378.862 675.797 376.362 679 373.5C684.147 375.328 689.313 376.995 694.5 378.5Z" fill="#ececec" fill-rule="evenodd" opacity="1" stroke="none" />
<path d="M602.5 374.5C603.791 374.263 604.791 374.596 605.5 375.5C602.327 376.17 599.327 377.336 596.5 379C600.683 381.257 605.016 383.257 609.5 385C616.583 382.918 619.25 385.418 617.5 392.5C616.833 391.833 616.167 391.167 615.5 390.5C614.85 390.196 614.183 389.863 613.5 389.5C612.167 410.167 612.167 430.833 613.5 451.5C616.427 452.801 619.427 453.801 622.5 454.5C622.5 436.167 622.5 417.833 622.5 399.5C623.167 397.833 623.833 396.167 624.5 394.5C624.171 400.537 624.504 406.537 625.5 412.5C631.11 415.035 636.777 417.368 642.5 419.5C643.328 413.681 643.828 407.681 644 401.5C644.172 407.681 644.672 413.681 645.5 419.5C651.5 417.167 657.5 414.833 663.5 412.5C664.434 411.432 664.768 410.099 664.5 408.5C665.167 408.5 665.833 408.5 666.5 408.5C666.167 424.181 666.501 439.848 667.5 455.5C668.107 455.376 668.44 455.043 668.5 454.5C671.162 453.501 673.828 452.501 676.5 451.5C677.332 430.671 677.832 409.671 678 388.5C678.17 394.528 678.67 400.528 679.5 406.5C680.107 406.376 680.44 406.043 680.5 405.5C686.022 403.104 691.689 401.104 697.5 399.5C697.5 393.5 697.5 387.5 697.5 381.5C694.673 381.584 692.006 382.25 689.5 383.5C689.158 382.662 688.492 382.328 687.5 382.5C689.833 381.167 692.167 379.833 694.5 378.5C694.842 377.662 695.508 377.328 696.5 377.5C697.496 377.414 698.329 377.748 699 378.5C699.667 385.833 699.667 393.167 699 400.5C698.586 400.957 698.086 401.291 697.5 401.5C696.667 416.155 696.167 430.822 696 445.5C683.998 450.918 671.831 455.918 659.5 460.5C659.167 459.833 658.833 459.167 658.5 458.5C660.297 457.27 662.297 456.604 664.5 456.5C664.5 442.833 664.5 429.167 664.5 415.5C657.799 417.025 651.466 419.358 645.5 422.5C644.67 432.992 644.17 443.659 644 454.5C643.83 443.659 643.33 432.992 642.5 422.5C637.23 420.203 631.897 417.869 626.5 415.5C626.44 414.957 626.107 414.624 625.5 414.5C624.174 428.661 624.174 442.661 625.5 456.5C626.995 456.989 628.329 457.655 629.5 458.5C628.209 458.263 627.209 458.596 626.5 459.5C615.686 455.508 605.186 450.841 595 445.5C594.833 430.822 594.333 416.155 593.5 401.5C592.914 401.291 592.414 400.957 592 400.5C591.169 392.812 591.335 385.145 592.5 377.5C595.727 376.091 599.06 375.091 602.5 374.5Z" fill="#0d0d0d" fill-rule="evenodd" opacity="1" stroke="none" />
<path d="M624.5 394.5C630.5 396.5 636.5 398.5 642.5 400.5C642.5 406.833 642.5 413.167 642.5 419.5C636.777 417.368 631.11 415.035 625.5 412.5C624.504 406.537 624.171 400.537 624.5 394.5Z" fill="#efeff0" fill-rule="evenodd" opacity="1" stroke="none" />
<path d="M615.5 390.5C615.5 392.833 615.5 395.167 615.5 397.5C617.867 396.836 619.867 395.503 621.5 393.5C622.466 395.396 622.799 397.396 622.5 399.5C622.5 417.833 622.5 436.167 622.5 454.5C619.427 453.801 616.427 452.801 613.5 451.5C612.167 430.833 612.167 410.167 613.5 389.5C614.183 389.863 614.85 390.196 615.5 390.5Z" fill="#ededed" fill-rule="evenodd" opacity="1" stroke="none" />
<path d="M662.5 394.5C662.56 393.957 662.893 393.624 663.5 393.5C664.494 398.456 664.827 403.456 664.5 408.5C664.768 410.099 664.434 411.432 663.5 412.5C663.823 406.31 663.49 400.31 662.5 394.5Z" fill="#acaeac" fill-rule="evenodd" opacity="1" stroke="none" />
<path d="M662.5 394.5C663.49 400.31 663.823 406.31 663.5 412.5C657.5 414.833 651.5 417.167 645.5 419.5C645.17 413.132 645.504 406.798 646.5 400.5C651.779 398.297 657.113 396.297 662.5 394.5Z" fill="#f4f4f4" fill-rule="evenodd" opacity="1" stroke="none" />
<path d="M609.5 387.5C610.817 393.346 610.817 399.346 609.5 405.5C608.893 405.376 608.56 405.043 608.5 404.5C609.489 399.025 609.822 393.358 609.5 387.5Z" fill="#989a99" fill-rule="evenodd" opacity="1" stroke="none" />
<path d="M680.5 405.5C679.183 399.654 679.183 393.654 680.5 387.5C683.408 385.878 686.408 384.544 689.5 383.5C692.006 382.25 694.673 381.584 697.5 381.5C697.5 387.5 697.5 393.5 697.5 399.5C691.689 401.104 686.022 403.104 680.5 405.5Z" fill="#efefef" fill-rule="evenodd" opacity="1" stroke="none" />
<path d="M639.5 385.5C642.337 385.729 645.337 385.896 648.5 386C652.714 388.274 657.047 390.274 661.5 392C655.808 394.564 649.974 396.731 644 398.5C640.823 398.109 637.99 396.943 635.5 395C638.651 393.839 640.151 391.672 640 388.5C637.634 390.508 635.301 392.508 633 394.5C631.56 393.852 630.06 393.519 628.5 393.5C628.5 392.5 628.5 391.5 628.5 390.5C632.852 390.154 636.519 388.488 639.5 385.5Z" fill="#ededed" fill-rule="evenodd" opacity="1" stroke="none" />
<path d="M676.5 451.5C673.828 452.501 671.162 453.501 668.5 454.5C667.833 433.5 667.167 412.5 666.5 391.5C660.914 389.374 655.581 386.707 650.5 383.5C658.969 381.509 666.969 382.676 674.5 387C672.026 389.428 672.526 389.928 676 388.5C676.5 409.497 676.667 430.497 676.5 451.5Z" fill="#f1f1f1" fill-rule="evenodd" opacity="1" stroke="none" />
<path d="M609.5 387.5C609.822 393.358 609.489 399.025 608.5 404.5C603.322 403.384 598.489 401.384 594 398.5C593.501 392.843 593.334 387.176 593.5 381.5C599.046 382.94 604.38 384.94 609.5 387.5Z" fill="#eeeeee" fill-rule="evenodd" opacity="1" stroke="none" />
<path d="M680.5 449.5C679.504 436.01 679.171 422.344 679.5 408.5C684.421 406.536 689.421 404.87 694.5 403.5C694.5 417.167 694.5 430.833 694.5 444.5C689.844 446.16 685.177 447.826 680.5 449.5Z" fill="#efefef" fill-rule="evenodd" opacity="1" stroke="none" />
<path d="M626.5 415.5C631.897 417.869 637.23 420.203 642.5 422.5C642.667 436.171 642.5 449.837 642 463.5C637.946 461.538 633.779 459.871 629.5 458.5C628.329 457.655 626.995 456.989 625.5 456.5C625.171 442.656 625.504 428.99 626.5 415.5Z" fill="#f6f6f6" fill-rule="evenodd" opacity="1" stroke="none" />
<path d="M658.5 458.5C654.38 460.263 650.214 461.929 646 463.5C645.5 449.837 645.333 436.171 645.5 422.5C651.466 419.358 657.799 417.025 664.5 415.5C664.5 429.167 664.5 442.833 664.5 456.5C662.297 456.604 660.297 457.27 658.5 458.5Z" fill="#f3f3f3" fill-rule="evenodd" opacity="1" stroke="none" />
<path d="M596.5 402.5C601.048 404.357 605.548 406.357 610 408.5C610.833 422.179 610.666 435.846 609.5 449.5C605.5 447.833 601.5 446.167 597.5 444.5C596.501 430.516 596.167 416.516 596.5 402.5Z" fill="#ededed" fill-rule="evenodd" opacity="1" stroke="none" />
<path d="M679.5 408.5C679.171 422.344 679.504 436.01 680.5 449.5C680.44 450.043 680.107 450.376 679.5 450.5C678.174 436.339 678.174 422.339 679.5 408.5Z" fill="#515051" fill-rule="evenodd" opacity="1" stroke="none" />
<path d="M666.5 391.5C667.167 412.5 667.833 433.5 668.5 454.5C668.44 455.043 668.107 455.376 667.5 455.5C666.501 439.848 666.167 424.181 666.5 408.5C666.5 402.833 666.5 397.167 666.5 391.5Z" fill="#b0afb1" fill-rule="evenodd" opacity="1" stroke="none" />
<path d="M626.5 415.5C625.504 428.99 625.171 442.656 625.5 456.5C624.174 442.661 624.174 428.661 625.5 414.5C626.107 414.624 626.44 414.957 626.5 415.5Z" fill="#a8a7a8" fill-rule="evenodd" opacity="1" stroke="none" />
<path d="M642.5 422.5C643.33 432.992 643.83 443.659 644 454.5C644.17 443.659 644.67 432.992 645.5 422.5C645.333 436.171 645.5 449.837 646 463.5C650.214 461.929 654.38 460.263 658.5 458.5C658.833 459.167 659.167 459.833 659.5 460.5C654.401 462.59 649.235 464.59 644 466.5C638.018 464.453 632.185 462.119 626.5 459.5C627.209 458.596 628.209 458.263 629.5 458.5C633.779 459.871 637.946 461.538 642 463.5C642.5 449.837 642.667 436.171 642.5 422.5Z" fill="#292929" fill-rule="evenodd" opacity="1" stroke="none" />
</g>

</svg>