<?xml version="1.0" encoding="UTF-8"?>
<svg xmlns="http://www.w3.org/2000/svg" version="1.1" viewBox="241.60 309.83 122.06 165.15" width="122.06" height="165.15" style="fill-rule:nonzero;clip-rule:evenodd;stroke-linecap:round;stroke-linejoin:round;" xml:space="preserve">
<g opacity="1">
<path d="M333.5 467.5C333.863 464.011 334.196 460.511 334.5 457C334.003 453.759 333.336 450.592 332.5 447.5C330.969 444.101 329.135 440.767 327 437.5C325.506 436.253 324.006 436.253 322.5 437.5C323.333 439.167 324.167 440.833 325 442.5C325.499 448.157 325.666 453.824 325.5 459.5C327.265 460.461 329.265 460.795 331.5 460.5C331.5 462.167 331.5 463.833 331.5 465.5C328.696 466.638 325.696 466.805 322.5 466C321.748 465.329 321.414 464.496 321.5 463.5C322.117 463.389 322.617 463.056 323 462.5C323.278 463.416 323.778 464.082 324.5 464.5C326.415 464.784 328.081 464.451 329.5 463.5C330.043 463.44 330.376 463.107 330.5 462.5C328.257 461.526 325.924 461.192 323.5 461.5C323.5 460.5 323.5 459.5 323.5 458.5C323.666 453.489 323.499 448.489 323 443.5C322.167 441.833 321.333 440.167 320.5 438.5C315.818 437.782 311.151 437.116 306.5 436.5C304.836 446.399 304.003 456.399 304 466.5C300.488 468.648 296.821 468.981 293 467.5C293.291 462.856 293.291 458.189 293 453.5C292.226 457.147 291.559 460.814 291 464.5C287.899 466.72 284.565 467.053 281 465.5C281.554 451.527 281.554 437.527 281 423.5C279.173 419.719 278.173 415.719 278 411.5C277.833 394.157 277.333 376.824 276.5 359.5C269.644 362.541 262.644 363.041 255.5 361C247.601 354.297 247.601 347.63 255.5 341C259.745 338.961 263.912 336.794 268 334.5C267.057 331.293 266.723 327.959 267 324.5C267.739 323.426 268.739 322.759 270 322.5C272.553 323.223 274.72 324.556 276.5 326.5C276.782 323.943 276.949 321.277 277 318.5C279 315.833 281 315.833 283 318.5C282.711 322.207 282.878 325.874 283.5 329.5C284.799 328.91 285.632 327.91 286 326.5C285.669 322.479 287.336 319.813 291 318.5C293.291 319.124 294.457 320.624 294.5 323C294.091 325.296 292.924 327.13 291 328.5C290.251 329.635 290.417 330.635 291.5 331.5C296.809 328.269 301.142 329.103 304.5 334C303.313 340.018 299.646 342.852 293.5 342.5C294.454 354.561 295.954 366.561 298 378.5C298.288 386.606 302.121 392.106 309.5 395C316.162 396.665 322.828 398.332 329.5 400C332.446 400.806 335.112 402.139 337.5 404C344.777 410.776 349.777 418.943 352.5 428.5C354.527 429.693 356.027 431.36 357 433.5C357.499 437.152 357.665 440.818 357.5 444.5C350.27 442.204 347.936 437.371 350.5 430C349.575 426.652 348.242 423.485 346.5 420.5C344.248 430.437 343.914 440.437 345.5 450.5C345.464 455.88 344.964 461.214 344 466.5C342.352 468.028 340.352 468.695 338 468.5C336.293 468.492 334.793 468.158 333.5 467.5Z" fill="#1c1c1c" fill-rule="evenodd" opacity="1" stroke="none" />
<path d="M290.5 357.5C291.75 357.577 292.583 358.244 293 359.5C293.824 362.882 293.657 366.216 292.5 369.5C288.748 367.216 287.581 363.882 289 359.5C289.717 358.956 290.217 358.289 290.5 357.5Z" fill="#e3e3e3" fill-rule="evenodd" opacity="1" stroke="none" />
<path d="M280.5 374.5C287.575 375.327 289.242 378.827 285.5 385C283.866 385.494 282.199 385.66 280.5 385.5C280.5 381.833 280.5 378.167 280.5 374.5Z" fill="#efefef" fill-rule="evenodd" opacity="1" stroke="none" />
<path d="M278.5 319.5C279.5 319.5 280.5 319.5 281.5 319.5C281.019 323.202 280.352 326.869 279.5 330.5C281.122 332.623 283.122 332.956 285.5 331.5C287.98 328.639 288.98 325.306 288.5 321.5C289.833 321.5 291.167 321.5 292.5 321.5C291.021 324.458 289.521 327.458 288 330.5C287.116 332.641 287.616 334.307 289.5 335.5C293.758 332.086 298.091 331.753 302.5 334.5C300.089 339.378 296.089 341.711 290.5 341.5C291.833 344.167 291.833 346.833 290.5 349.5C291.167 350.833 291.833 352.167 292.5 353.5C289.452 356.039 287.452 359.206 286.5 363C286.836 367.887 289.336 370.72 294 371.5C296.039 376.352 295.872 381.019 293.5 385.5C297.093 385.926 299.26 387.926 300 391.5C303.329 393.662 306.162 396.329 308.5 399.5C312.476 398.652 316.476 398.818 320.5 400C320.03 408.176 324.03 411.51 332.5 410C333.943 408.933 335.276 407.766 336.5 406.5C341.746 410.891 344.079 416.558 343.5 423.5C343.696 437.498 343.363 451.498 342.5 465.5C340.167 465.5 337.833 465.5 335.5 465.5C335.666 458.492 335.5 451.492 335 444.5C330.83 440.167 327.664 435.167 325.5 429.5C324.548 431.045 324.215 432.712 324.5 434.5C318.167 434.5 311.833 434.5 305.5 434.5C305.762 433.022 305.429 431.689 304.5 430.5C302.947 441.768 302.113 453.102 302 464.5C299.619 465.435 297.119 465.768 294.5 465.5C295.825 452.72 295.158 440.053 292.5 427.5C291.833 428.5 291.167 429.5 290.5 430.5C285.144 427.312 281.978 422.646 281 416.5C280.168 406.483 280.334 396.483 281.5 386.5C286.688 388.233 289.021 386.233 288.5 380.5C288.721 377.209 287.387 374.709 284.5 373C283.101 372.405 281.768 372.572 280.5 373.5C280.167 370.833 279.833 368.167 279.5 365.5C279.601 362.3 280.268 359.3 281.5 356.5C281.167 356.167 280.833 355.833 280.5 355.5C276.097 357.934 271.43 359.101 266.5 359C268.873 353.713 268.207 353.38 264.5 358C254.834 360.335 251.001 356.502 253 346.5C257.126 342.518 261.959 339.685 267.5 338C269.349 336.907 271.016 335.574 272.5 334C269.679 331.859 268.346 329.025 268.5 325.5C272.985 325.647 275.652 327.98 276.5 332.5C276.833 332.333 277.167 332.167 277.5 332C278.464 327.934 278.797 323.767 278.5 319.5Z" fill="#f0f0f0" fill-rule="evenodd" opacity="1" stroke="none" />
<path d="M256.5 348.5C258.337 348.639 258.67 349.306 257.5 350.5C256.702 350.043 256.369 349.376 256.5 348.5Z" fill="#191918" fill-rule="evenodd" opacity="1" stroke="none" />
<path d="M275.5 339.5C278.956 340.536 279.29 342.203 276.5 344.5C274.296 343.218 273.962 341.551 275.5 339.5Z" fill="#0d0e0d" fill-rule="evenodd" opacity="1" stroke="none" />
<path d="M294.5 334.5C295.552 334.351 296.552 334.517 297.5 335C295.61 336.873 293.61 337.706 291.5 337.5C292.34 336.265 293.34 335.265 294.5 334.5Z" fill="#212021" fill-rule="evenodd" opacity="1" stroke="none" />
<path d="M292.5 393.5C295.247 393.187 297.914 393.52 300.5 394.5C305.685 404.144 303.185 407.144 293 403.5C289.971 400.23 289.804 396.897 292.5 393.5Z" fill="#2c2d2c" fill-rule="evenodd" opacity="1" stroke="none" />
<path d="M293.5 394.5C299.15 394.781 301.817 397.781 301.5 403.5C293.954 404.719 291.287 401.719 293.5 394.5Z" fill="#ececec" fill-rule="evenodd" opacity="1" stroke="none" />
<path d="M322.5 400.5C326.957 401.061 330.957 402.728 334.5 405.5C330.759 410.795 326.926 410.795 323 405.5C322.506 403.866 322.34 402.199 322.5 400.5Z" fill="#e9eae9" fill-rule="evenodd" opacity="1" stroke="none" />
<path d="M286.5 414.5C284.727 413.686 284.227 412.352 285 410.5C286.588 407.691 288.755 407.025 291.5 408.5C294.577 412.192 293.911 414.859 289.5 416.5C287.962 416.547 286.962 415.88 286.5 414.5Z" fill="#3b3c3b" fill-rule="evenodd" opacity="1" stroke="none" />
<path d="M286.5 414.5C285.833 410.5 287.5 408.833 291.5 409.5C292.59 414.415 290.923 416.081 286.5 414.5Z" fill="#e3e3e4" fill-rule="evenodd" opacity="1" stroke="none" />
<path d="M331.5 415.5C337.801 415.288 340.134 418.121 338.5 424C332.24 426.412 329.407 424.245 330 417.5C330.717 416.956 331.217 416.289 331.5 415.5Z" fill="#1d1e1e" fill-rule="evenodd" opacity="1" stroke="none" />
<path d="M308.5 408.5C315.669 407.513 319.169 410.513 319 417.5C312.653 423.455 308.153 422.288 305.5 414C305.863 411.808 306.863 409.974 308.5 408.5Z" fill="#2a2a2a" fill-rule="evenodd" opacity="1" stroke="none" />
<path d="M310.5 409.5C317.358 410.155 319.025 413.322 315.5 419C309.667 419.833 307.167 417.333 308 411.5C308.995 410.934 309.828 410.267 310.5 409.5Z" fill="#e7e7e8" fill-rule="evenodd" opacity="1" stroke="none" />
<path d="M332.5 416.5C336.791 416.93 338.458 419.097 337.5 423C331.741 424.139 330.074 421.972 332.5 416.5Z" fill="#e3e5e4" fill-rule="evenodd" opacity="1" stroke="none" />
<path d="M284.5 428.5C286.505 430.334 288.672 432.001 291 433.5C291.167 442.163 291.001 450.83 290.5 459.5C288.5 459.5 286.5 459.5 284.5 459.5C284.5 449.167 284.5 438.833 284.5 428.5Z" fill="#f1f1f1" fill-rule="evenodd" opacity="1" stroke="none" />
<path d="M351.5 432.5C355.42 433.89 356.42 436.556 354.5 440.5C352.016 438.464 351.016 435.798 351.5 432.5Z" fill="#dcdedd" fill-rule="evenodd" opacity="1" stroke="none" />
<path d="M332.5 447.5C331.517 451.298 331.183 455.298 331.5 459.5C329.5 459.5 327.5 459.5 325.5 459.5C325.666 453.824 325.499 448.157 325 442.5C324.167 440.833 323.333 439.167 322.5 437.5C324.006 436.253 325.506 436.253 327 437.5C329.135 440.767 330.969 444.101 332.5 447.5Z" fill="#e5e6e6" fill-rule="evenodd" opacity="1" stroke="none" />
<path d="M332.5 447.5C333.336 450.592 334.003 453.759 334.5 457C334.196 460.511 333.863 464.011 333.5 467.5C332.833 466.833 332.167 466.167 331.5 465.5C331.5 463.833 331.5 462.167 331.5 460.5C329.265 460.795 327.265 460.461 325.5 459.5C327.5 459.5 329.5 459.5 331.5 459.5C331.183 455.298 331.517 451.298 332.5 447.5Z" fill="#545555" fill-rule="evenodd" opacity="1" stroke="none" />
<path d="M282.5 461.5C284.857 461.337 287.19 461.503 289.5 462C286.816 464.145 284.483 463.978 282.5 461.5Z" fill="#e5e5e5" fill-rule="evenodd" opacity="1" stroke="none" />
<path d="M323.5 458.5C323.5 459.5 323.5 460.5 323.5 461.5C325.924 461.192 328.257 461.526 330.5 462.5C330.376 463.107 330.043 463.44 329.5 463.5C328.903 462.861 328.07 462.528 327 462.5C325.624 462.684 324.791 463.351 324.5 464.5C323.778 464.082 323.278 463.416 323 462.5C322.617 463.056 322.117 463.389 321.5 463.5C321.796 461.597 322.463 459.93 323.5 458.5Z" fill="#4d4e4e" fill-rule="evenodd" opacity="1" stroke="none" />
<path d="M329.5 463.5C328.081 464.451 326.415 464.784 324.5 464.5C324.791 463.351 325.624 462.684 327 462.5C328.07 462.528 328.903 462.861 329.5 463.5Z" fill="#b8b9ba" fill-rule="evenodd" opacity="1" stroke="none" />
</g>

</svg>