<?xml version="1.0" encoding="UTF-8"?>
<svg xmlns="http://www.w3.org/2000/svg" version="1.1" viewBox="429.00 343.17 92.00 119.18" width="92.00" height="119.18" style="fill-rule:nonzero;clip-rule:evenodd;stroke-linecap:round;stroke-linejoin:round;" xml:space="preserve">
<g opacity="1">
<path d="M456.5 349.5C469.538 349.173 482.538 349.673 495.5 351C502.752 351.747 509.252 354.247 515 358.5C512.739 388.259 509.406 417.925 505 447.5C499.393 452.15 492.893 454.65 485.5 455C473.594 456.353 461.927 455.353 450.5 452C447.898 451.117 445.731 449.617 444 447.5C439.457 417.653 436.457 387.653 435 357.5C436.833 356.333 438.667 355.167 440.5 354C446.035 352.786 451.368 351.286 456.5 349.5Z" fill="#1a1a1a" fill-rule="evenodd" opacity="1" stroke="none" />
<path d="M459.5 351.5C476.553 350.122 493.22 351.955 509.5 357C513.522 359.666 513.189 361.999 508.5 364C491.405 368.171 474.072 369.504 456.5 368C451.068 367.079 445.735 365.745 440.5 364C438.697 363.363 437.364 362.197 436.5 360.5C437.924 358.282 439.924 356.782 442.5 356C448.314 354.553 453.981 353.053 459.5 351.5Z" fill="#f3f3f3" fill-rule="evenodd" opacity="1" stroke="none" />
<path d="M436.5 364.5C452.493 371.035 469.16 373.201 486.5 371C492.13 369.815 497.797 368.815 503.5 368C506.512 367.22 509.345 366.053 512 364.5C509.941 392.136 506.775 419.636 502.5 447C488.411 453.445 473.745 455.112 458.5 452C453.95 450.932 449.783 449.098 446 446.5C442.897 419.137 439.731 391.804 436.5 364.5Z" fill="#f6f6f6" fill-rule="evenodd" opacity="1" stroke="none" />
<path d="M464.5 426.5C476.513 425.577 488.18 427.077 499.5 431C503.382 432.871 504.049 435.371 501.5 438.5C499.271 439.963 496.937 440.797 494.5 441C497.275 439.626 499.608 437.793 501.5 435.5C500.811 433.647 499.478 432.481 497.5 432C485.747 428.597 473.747 427.597 461.5 429C456.558 429.866 452.058 431.7 448 434.5C447.333 435.167 447.333 435.833 448 436.5C449.41 437.787 450.91 438.954 452.5 440C448.156 439.988 446.322 437.821 447 433.5C452.295 429.564 458.128 427.231 464.5 426.5Z" fill="#2c2c2c" fill-rule="evenodd" opacity="1" stroke="none" />
<path d="M458.5 442.5C469.336 442.65 480.336 442.483 491.5 442C480.523 445.023 469.523 445.19 458.5 442.5Z" fill="#535455" fill-rule="evenodd" opacity="1" stroke="none" />
</g>

</svg>