<?xml version="1.0" encoding="UTF-8"?>
<svg xmlns="http://www.w3.org/2000/svg" version="1.1" viewBox="799 518 232 219" width="232" height="219" style="fill-rule:nonzero;clip-rule:evenodd;stroke-linecap:round;stroke-linejoin:round;" xml:space="preserve">
<g transform="translate(783,501)"><ns0:path xmlns:ns0="http://www.w3.org/2000/svg" d="M0 0 C1.914 1.145 1.914 1.145 3.625 2.812 C3.966 3.135 3.966 3.135 5.691 4.766 C6.453 5.503 7.215 6.24 8 7 C9.851 8.691 11.706 10.378 13.562 12.062 C18.322 16.425 23.037 20.837 27.75 25.25 C32.75 29.932 37.779 34.563 43 39 C43 37.35 43 35.7 43 34 C41.68 33.67 40.36 33.34 39 33 C38.946 30.208 38.906 27.417 38.875 24.625 C38.858 23.831 38.841 23.037 38.824 22.219 C38.807 20.145 38.897 18.071 39 16 C41 14 41 14 44.715 13.773 C46.313 13.773 47.91 13.785 49.508 13.805 C50.348 13.808 51.189 13.81 52.055 13.813 C54.745 13.824 57.435 13.85 60.125 13.875 C61.947 13.885 63.768 13.894 65.59 13.902 C70.06 13.924 74.53 13.959 79 14 C81.271 18.015 81.048 21.27 80.625 25.75 C80.568 26.447 80.512 27.145 80.453 27.863 C80.312 29.576 80.158 31.288 80 33 C78.68 33.33 77.36 33.66 76 34 C73.88 68.022 73.88 68.022 80.898 77.324 C86.01 82.769 91.901 86.927 98.078 91.059 C100 93 100 93 100.699 95.82 C99.686 100.426 97.157 102.686 93.812 105.875 C93.234 106.468 92.656 107.061 92.061 107.672 C87.795 111.856 87.795 111.856 84.199 112.508 C82 112 82 112 80 110 C79.67 136.4 79.34 162.8 79 190 C83.95 190 88.9 190 94 190 C94.33 191.65 94.66 193.3 95 195 C93.28 196.72 91.087 196.122 88.793 196.129 C88.417 196.128 88.417 196.128 86.515 196.12 C85.722 196.121 84.929 196.122 84.112 196.123 C81.434 196.125 78.756 196.119 76.078 196.114 C74.166 196.113 72.255 196.113 70.344 196.114 C65.137 196.114 59.931 196.108 54.724 196.101 C49.29 196.095 43.855 196.095 38.421 196.093 C28.122 196.09 17.823 196.082 7.524 196.072 C-4.198 196.061 -15.92 196.055 -27.641 196.05 C-51.761 196.04 -75.88 196.022 -100 196 C-100.33 194.35 -100.66 192.7 -101 191 C-96.518 188.759 -91.011 190 -86 190 C-86.33 163.6 -86.66 137.2 -87 110 C-87.33 110.33 -87.33 110.33 -89 112 C-91.199 112.508 -91.199 112.508 -94 112 C-96.548 110.227 -98.65 108.093 -100.812 105.875 C-101.41 105.305 -102.007 104.735 -102.623 104.148 C-105.252 101.504 -106.812 99.654 -107.852 96.031 C-106.508 91.248 -103.228 88.828 -99.562 85.625 C-97.993 84.204 -96.424 82.782 -94.855 81.359 C-94.048 80.637 -93.24 79.914 -92.408 79.17 C-88.67 75.802 -85.026 72.336 -81.375 68.875 C-74.222 62.136 -67.041 55.427 -59.852 48.727 C-57.962 46.965 -56.075 45.201 -54.188 43.438 C-47.209 36.916 -40.216 30.41 -33.188 23.941 C-31.012 21.938 -28.846 19.924 -26.688 17.902 C-23.483 14.907 -20.254 11.941 -17 9 C-16.491 8.538 -15.983 8.077 -15.458 7.601 C-14.009 6.3 -12.536 5.024 -11.062 3.75 C-10.228 3.023 -9.394 2.296 -8.535 1.547 C-5.392 -0.371 -3.624 -0.511 0 0 Z M-10.562 11.062 C-14.308 14.589 -18.067 18.082 -21.953 21.453 C-26.136 25.09 -30.167 28.873 -34.188 32.688 C-39.287 37.507 -44.397 42.314 -49.562 47.062 C-56.389 53.342 -63.151 59.691 -69.912 66.042 C-72.048 68.045 -74.188 70.044 -76.328 72.043 C-77.037 72.706 -77.747 73.369 -78.477 74.052 C-79.82 75.307 -81.164 76.561 -82.509 77.814 C-86.215 81.279 -89.839 84.808 -93.395 88.428 C-95.803 90.786 -98.375 92.888 -101 95 C-99.592 98.215 -97.897 100.322 -95.375 102.75 C-94.743 103.364 -94.112 103.977 -93.461 104.609 C-92.979 105.068 -92.497 105.527 -92 106 C-88.993 104.66 -87.002 103.202 -84.75 100.812 C-82.377 98.304 -79.888 96.007 -77.281 93.746 C-72.996 90.025 -68.866 86.157 -64.75 82.25 C-48.303 66.709 -48.303 66.709 -40.062 59.562 C-33.638 53.988 -27.453 48.14 -21.224 42.349 C-20.049 41.257 -18.874 40.166 -17.698 39.075 C-16.598 38.054 -15.499 37.033 -14.402 36.009 C-12.946 34.66 -11.474 33.329 -10 32 C-9.577 31.603 -9.577 31.603 -7.438 29.594 C-5 28 -5 28 -2.469 28.012 C0.48 29.192 2.196 30.623 4.5 32.812 C4.938 33.222 4.938 33.222 7.152 35.297 C8.092 36.189 9.032 37.081 10 38 C11.492 39.371 12.984 40.742 14.479 42.11 C20.943 48.037 27.319 54.057 33.699 60.074 C38.477 64.577 43.282 69.047 48.115 73.49 C52.457 77.487 56.762 81.521 61.062 85.562 C66.915 91.062 72.807 96.516 78.742 101.926 C80.189 103.255 81.611 104.611 83 106 C85.812 105.82 86.882 105.113 88.922 103.152 C89.525 102.421 90.128 101.691 90.75 100.938 C91.057 100.571 91.057 100.571 92.609 98.715 C93.068 98.149 93.527 97.583 94 97 C92.428 92.932 89.509 90.494 86.312 87.688 C85.219 86.708 84.126 85.728 83.035 84.746 C82.509 84.274 81.984 83.802 81.442 83.316 C79.652 81.683 77.943 79.982 76.25 78.25 C73.944 75.899 71.558 73.711 69.062 71.562 C66.254 69.144 63.6 66.641 61 64 C58.42 61.38 55.789 58.897 53 56.5 C50.211 54.103 47.58 51.62 45 49 C42.48 46.441 39.919 44.018 37.188 41.688 C33.285 38.337 29.685 34.715 26.076 31.056 C22.785 27.738 19.376 24.635 15.82 21.605 C13.997 19.997 12.314 18.31 10.625 16.562 C6.438 12.298 1.807 8.545 -3 5 C-5.507 5 -8.694 9.298 -10.562 11.062 Z M45 19 C45 22.3 45 25.6 45 29 C54.9 29 64.8 29 75 29 C75 25.7 75 22.4 75 19 C65.1 19 55.2 19 45 19 Z M-5.883 34.723 C-6.623 35.495 -7.363 36.267 -8.125 37.062 C-11.538 40.551 -15.02 43.826 -18.719 47.004 C-21.611 49.535 -24.431 52.138 -27.25 54.75 C-27.809 55.267 -28.367 55.785 -28.943 56.318 C-30.077 57.369 -31.212 58.42 -32.346 59.471 C-34.868 61.803 -37.403 64.12 -39.938 66.438 C-45.003 71.074 -50.031 75.75 -55.055 80.432 C-58.729 83.847 -62.464 87.176 -66.266 90.449 C-68.709 92.634 -70.99 94.963 -73.262 97.324 C-75 99 -75 99 -77.573 100.577 C-80.411 103.411 -80.585 105.084 -80.622 109.019 C-80.613 109.418 -80.613 109.418 -80.568 111.44 C-80.568 112.29 -80.569 113.139 -80.57 114.014 C-80.566 116.817 -80.527 119.619 -80.488 122.422 C-80.479 124.367 -80.472 126.312 -80.467 128.256 C-80.448 133.373 -80.399 138.488 -80.343 143.605 C-80.283 149.744 -80.26 155.884 -80.231 162.024 C-80.183 171.35 -80.087 180.674 -80 190 C-51.62 190 -23.24 190 6 190 C6.312 163.063 6.312 163.063 6.388 154.61 C6.42 152.376 6.454 150.143 6.488 147.91 C6.491 147.339 6.491 147.339 6.507 144.451 C6.624 137.938 7.053 131.917 10 126 C15.496 120.976 24.038 121.881 31.062 121.75 C31.399 121.739 31.399 121.739 33.101 121.685 C38.219 121.652 41.541 122.685 46 125 C50.514 129.633 51.106 133.311 51.205 139.595 C51.225 140.716 51.245 141.836 51.266 142.991 C51.274 143.593 51.274 143.593 51.316 146.641 C51.337 147.878 51.358 149.115 51.379 150.39 C51.434 153.671 51.484 156.953 51.532 160.234 C51.583 163.586 51.638 166.937 51.693 170.289 C51.8 176.859 51.902 183.43 52 190 C58.93 190 65.86 190 73 190 C73.363 178.916 73.656 167.836 73.829 156.747 C73.912 151.596 74.025 146.45 74.207 141.302 C74.382 136.322 74.477 131.346 74.518 126.363 C74.547 124.474 74.605 122.585 74.692 120.698 C75.061 112.362 75.31 105.133 69.549 98.593 C66.233 95.297 62.69 92.366 58.974 89.535 C56.088 87.291 53.472 84.819 50.812 82.312 C49.853 81.436 48.894 80.559 47.906 79.656 C38.976 71.494 30.126 63.252 21.327 54.949 C16.287 50.199 11.217 45.482 6.109 40.805 C3.935 38.809 1.812 36.804 -0.23 34.672 C-2.718 32.321 -3.37 32.423 -5.883 34.723 Z M49 35 C47.924 44.446 47.924 44.446 50.723 48.488 C53.053 50.803 55.463 52.915 58 55 C59.439 56.29 60.876 57.582 62.312 58.875 C64.814 61.046 67.338 63.004 70 65 C70 55.1 70 45.2 70 35 C63.07 35 56.14 35 49 35 Z M12 132 C11.307 136.396 11.42 140.735 11.512 145.176 C11.519 146.456 11.526 147.736 11.533 149.055 C11.552 152.447 11.601 155.838 11.657 159.23 C11.708 162.695 11.731 166.161 11.756 169.627 C11.807 176.419 11.905 183.208 12 190 C23.22 190 34.44 190 46 190 C46.063 182.661 46.123 175.323 46.155 167.984 C46.171 164.566 46.192 161.148 46.226 157.73 C46.265 153.806 46.28 149.882 46.293 145.957 C46.308 144.736 46.324 143.515 46.34 142.257 C46.34 141.687 46.34 141.687 46.341 138.8 C46.347 137.799 46.354 136.797 46.361 135.765 C45.936 132.513 44.921 130.636 43 128 C38.902 125.951 33.692 126.683 29.188 126.625 C28.094 126.588 27 126.55 25.873 126.512 C24.815 126.5 23.758 126.489 22.668 126.477 C22.185 126.467 22.185 126.467 19.739 126.417 C15.573 127.304 14.368 128.42 12 132 Z " fill="#000000" transform="translate(136,29)" />
<ns0:path xmlns:ns0="http://www.w3.org/2000/svg" d="M0 0 C0.404 -0.003 0.404 -0.003 2.447 -0.017 C4.154 -0.027 5.861 -0.033 7.569 -0.037 C10.178 -0.047 12.787 -0.078 15.396 -0.109 C17.056 -0.116 18.715 -0.121 20.375 -0.125 C20.765 -0.131 20.765 -0.131 22.736 -0.162 C25.794 -0.15 28.383 0.06 31.247 1.165 C33.71 4.496 33.303 8.161 33.25 12.141 C33.251 13.017 33.253 13.894 33.254 14.797 C33.253 16.649 33.241 18.502 33.22 20.354 C33.192 23.193 33.2 26.029 33.213 28.867 C33.207 30.667 33.198 32.466 33.188 34.266 C33.19 35.116 33.193 35.966 33.196 36.842 C33.102 42.734 33.102 42.734 31.476 44.927 C28.395 47.21 24.511 46.628 20.816 46.602 C19.94 46.604 19.063 46.607 18.16 46.61 C16.308 46.612 14.455 46.607 12.603 46.594 C9.764 46.578 6.928 46.594 4.09 46.613 C2.29 46.611 0.491 46.607 -1.309 46.602 C-2.159 46.608 -3.009 46.614 -3.885 46.62 C-9.78 46.549 -9.78 46.549 -11.971 44.921 C-14.224 41.886 -13.65 38.121 -13.609 34.484 C-13.61 33.63 -13.61 32.776 -13.611 31.896 C-13.609 30.09 -13.599 28.284 -13.582 26.479 C-13.559 23.714 -13.562 20.949 -13.568 18.184 C-13.563 16.43 -13.556 14.676 -13.547 12.922 C-13.548 12.094 -13.549 11.266 -13.55 10.412 C-13.501 6.505 -13.461 4.526 -11.246 1.203 C-7.476 -0.053 -3.929 0.021 0 0 Z M-7.246 6.203 C-7.246 11.153 -7.246 16.103 -7.246 21.203 C-2.626 21.203 1.994 21.203 6.754 21.203 C6.754 16.253 6.754 11.303 6.754 6.203 C2.134 6.203 -2.486 6.203 -7.246 6.203 Z M12.754 6.203 C12.754 11.153 12.754 16.103 12.754 21.203 C14.693 21.224 16.631 21.244 18.629 21.266 C19.174 21.271 19.174 21.271 21.934 21.301 C24.754 21.203 24.754 21.203 26.754 20.203 C26.754 15.583 26.754 10.963 26.754 6.203 C22.134 6.203 17.514 6.203 12.754 6.203 Z M-7.246 26.203 C-7.246 31.153 -7.246 36.103 -7.246 41.203 C-2.626 41.203 1.994 41.203 6.754 41.203 C6.754 36.253 6.754 31.303 6.754 26.203 C2.134 26.203 -2.486 26.203 -7.246 26.203 Z M12.754 26.203 C12.754 31.153 12.754 36.103 12.754 41.203 C17.374 41.203 21.994 41.203 26.754 41.203 C26.754 36.253 26.754 31.303 26.754 26.203 C22.134 26.203 17.514 26.203 12.754 26.203 Z " fill="#000000" transform="translate(91.24609375,127.796875)" />
<ns0:path xmlns:ns0="http://www.w3.org/2000/svg" d="M0 0 C0.949 0.041 1.898 0.083 2.875 0.125 C4.062 2.875 4.062 2.875 4.875 6.125 C3.5 8.5 3.5 8.5 1.875 10.125 C-4 9.25 -4 9.25 -5.125 8.125 C-5.312 5.188 -5.312 5.188 -5.125 2.125 C-3.125 0.125 -3.125 0.125 0 0 Z " fill="#000000" transform="translate(156.125,184.875)" />
  </g>
</svg>
