<?xml version="1.0" encoding="UTF-8"?>
<svg xmlns="http://www.w3.org/2000/svg" version="1.1" viewBox="1139.33 345.97 119.86 124.19" width="119.86" height="124.19" style="fill-rule:nonzero;clip-rule:evenodd;stroke-linecap:round;stroke-linejoin:round;" xml:space="preserve">
<g opacity="1">
<path d="M1192.5 352.5C1200.43 351.966 1208.1 353.133 1215.5 356C1230.17 367.317 1228.5 371.151 1210.5 367.5C1205.15 367.193 1201.48 369.36 1199.5 374C1200.2 376.38 1201.37 378.547 1203 380.5C1203.16 382.856 1203.16 385.189 1203 387.5C1220.41 406.58 1236.74 426.58 1252 447.5C1253.19 454.693 1250.36 459.86 1243.5 463C1239.17 464.151 1235.34 463.318 1232 460.5C1216.63 440.244 1202.13 419.41 1188.5 398C1184.56 398.063 1181.56 396.397 1179.5 393C1175.85 391.999 1172.85 392.999 1170.5 396C1171.93 398.267 1171.6 400.267 1169.5 402C1167.04 404.565 1164.04 406.065 1160.5 406.5C1158.63 406.61 1157.13 405.944 1156 404.5C1152.91 399.986 1149.58 395.653 1146 391.5C1145.33 389.833 1145.33 388.167 1146 386.5C1149.03 383.974 1152.19 381.64 1155.5 379.5C1158.9 381.187 1161.74 380.52 1164 377.5C1164.27 374.776 1164.77 372.109 1165.5 369.5C1173.46 362.028 1182.46 356.361 1192.5 352.5Z" fill="#1a1a1a" fill-rule="evenodd" opacity="1" stroke="none" />
<path d="M1194.5 354.5C1205.74 353.63 1215.07 357.296 1222.5 365.5C1216.54 365.875 1210.54 366.042 1204.5 366C1195.93 368.806 1194.43 373.639 1200 380.5C1200.78 381.944 1200.61 383.277 1199.5 384.5C1195.11 388.221 1190.45 391.555 1185.5 394.5C1179.23 389.237 1172.89 389.237 1166.5 394.5C1168.12 395.869 1168.62 397.536 1168 399.5C1165.53 402.033 1162.7 403.533 1159.5 404C1156 399.833 1152.5 395.667 1149 391.5C1148.33 390.167 1148.33 388.833 1149 387.5C1151.26 385.954 1153.42 384.288 1155.5 382.5C1157.5 384.167 1159.5 385.833 1161.5 387.5C1161.83 387.167 1162.17 386.833 1162.5 386.5C1161.83 385.5 1161.17 384.5 1160.5 383.5C1165.51 380.651 1168.01 376.318 1168 370.5C1175.76 363.211 1184.59 357.878 1194.5 354.5Z" fill="#f3f3f3" fill-rule="evenodd" opacity="1" stroke="none" />
<path d="M1199.5 387.5C1217.18 406.508 1233.68 426.508 1249 447.5C1251.23 452.242 1250.06 456.075 1245.5 459C1240.11 462.921 1235.61 462.088 1232 456.5C1216.75 436.606 1203.08 415.939 1191 394.5C1193.63 391.79 1196.46 389.456 1199.5 387.5Z" fill="#f3f3f3" fill-rule="evenodd" opacity="1" stroke="none" />
</g>

</svg>