<?xml version="1.0" encoding="UTF-8"?>
<svg xmlns="http://www.w3.org/2000/svg" version="1.1" viewBox="763.47 341.61 110.03 127.86" width="110.03" height="127.86" style="fill-rule:nonzero;clip-rule:evenodd;stroke-linecap:round;stroke-linejoin:round;" xml:space="preserve">
<g opacity="1">
<path d="M813.5 356.5C813.832 365.857 813.498 375.19 812.5 384.5C811.702 384.043 811.369 383.376 811.5 382.5C812.167 373.833 812.833 365.167 813.5 356.5Z" fill="#4e5150" fill-rule="evenodd" opacity="1" stroke="none" />
<path d="M811.5 382.5C811.369 383.376 811.702 384.043 812.5 384.5C813.498 375.19 813.832 365.857 813.5 356.5C815.803 349.274 820.303 347.607 827 351.5C827.667 352.833 828.333 354.167 829 355.5C829.534 364.51 830.201 373.51 831 382.5C832.363 374.305 834.363 366.305 837 358.5C841.632 354.302 845.965 354.636 850 359.5C850.167 361.167 850.333 362.833 850.5 364.5C849.596 373.21 848.762 381.876 848 390.5C850.377 384.238 853.877 378.738 858.5 374C864.315 372.739 867.315 375.072 867.5 381C865.472 389.752 862.638 398.252 859 406.5C857.646 415.652 855.646 424.652 853 433.5C851.067 437.698 848.401 441.365 845 444.5C844.829 449.533 844.329 454.533 843.5 459.5C830.173 463.466 816.839 463.466 803.5 459.5C802.671 454.533 802.171 449.533 802 444.5C795.225 438.928 789.891 432.261 786 424.5C780.673 420.172 775.673 415.506 771 410.5C769.472 403.523 772.305 399.857 779.5 399.5C786.065 400.283 791.732 402.949 796.5 407.5C797.652 404.894 797.818 402.227 797 399.5C795.002 389.344 793.169 379.177 791.5 369C790.251 360.915 793.585 357.582 801.5 359C802.667 360.167 803.833 361.333 805 362.5C807.784 368.973 809.951 375.639 811.5 382.5Z" fill="#1a1a1a" fill-rule="evenodd" opacity="1" stroke="none" />
<path d="M818.5 351.5C821.652 350.959 824.152 351.959 826 354.5C827.377 366.779 828.21 379.112 828.5 391.5C829.822 391.67 830.989 391.337 832 390.5C833.865 380.042 836.198 369.708 839 359.5C841.747 356.966 844.413 356.966 847 359.5C847.167 362.167 847.333 364.833 847.5 367.5C846.593 377.181 845.593 386.848 844.5 396.5C845.675 396.719 846.675 396.386 847.5 395.5C850.789 389.086 854.456 382.919 858.5 377C862.508 375.584 864.841 376.918 865.5 381C863.32 389.873 860.154 398.373 856 406.5C855.335 418.16 852.335 429.16 847 439.5C845.333 441.167 843.667 442.833 842 444.5C841.828 448.871 841.328 453.204 840.5 457.5C828.906 459.747 817.24 460.08 805.5 458.5C805.888 453.372 805.388 448.372 804 443.5C798.238 437.741 793.238 431.408 789 424.5C783.968 419.133 778.635 414.133 773 409.5C772.353 404.64 774.52 401.973 779.5 401.5C786.476 403.992 793.143 406.992 799.5 410.5C799.082 397.654 797.248 384.987 794 372.5C793.333 369.5 793.333 366.5 794 363.5C797 359.5 800 359.5 803 363.5C806.612 372.948 809.445 382.614 811.5 392.5C812.822 392.67 813.989 392.337 815 391.5C815.333 379.5 815.667 367.5 816 355.5C816.662 354.016 817.496 352.683 818.5 351.5Z" fill="#f5f5f5" fill-rule="evenodd" opacity="1" stroke="none" />
</g>

</svg>