<?xml version="1.0" encoding="UTF-8" standalone="no"?>
<svg xmlns="http://www.w3.org/2000/svg" fill-rule="nonzero" clip-rule="evenodd" stroke-miterlimit="10" style="fill-rule:nonzero;clip-rule:evenodd;stroke-linecap:round;stroke-linejoin:round;"
     viewBox="298.2 240.4 152.8 209.4" xml:space="preserve">
<g opacity="1">
<path d="M429.5 306.5C431.523 345.518 433.857 384.518 436.5 423.5C422.59 425.541 408.59 426.541 394.5 426.5C391.052 391.916 385.885 357.583 379 323.5C378.084 320.041 376.084 319.041 373 320.5C365.034 355.426 359.534 390.759 356.5 426.5C355.167 426.5 353.833 426.5 352.5 426.5C351.833 426.5 351.167 426.5 350.5 426.5C344.137 426.593 337.804 426.26 331.5 425.5C325.798 425.079 320.131 424.412 314.5 423.5C316.414 380.119 319.081 336.785 322.5 293.5C328.853 294.099 334.853 292.932 340.5 290C343.588 287.089 345.588 283.589 346.5 279.5C347.167 278.167 347.833 276.833 348.5 275.5C355.737 274.013 363.07 273.346 370.5 273.5C370.334 283.506 370.5 293.506 371 303.5C371.503 309.335 374.336 310.835 379.5 308C381.638 306.578 382.805 304.745 383 302.5C381.155 305.183 378.655 306.85 375.5 307.5C374.353 307.182 373.519 306.516 373 305.5C372.5 294.839 372.333 284.172 372.5 273.5C376.167 273.5 379.833 273.5 383.5 273.5C383.17 279.868 383.504 286.202 384.5 292.5C385.493 287.88 385.827 283.214 385.5 278.5C385.5 276.5 385.5 274.5 385.5 272.5C389.167 272.5 392.833 272.5 396.5 272.5C396.5 273.5 396.5 274.5 396.5 275.5C398.833 275.5 401.167 275.5 403.5 275.5C405.613 289.233 413.613 295.233 427.5 293.5C427.77 298.028 428.437 302.361 429.5 306.5Z" fill="#f6f6f7" fill-rule="evenodd" opacity="1" stroke="none"/>
<path d="M430.5 296.5C429.521 299.625 429.187 302.958 429.5 306.5C428.437 302.361 427.77 298.028 427.5 293.5C413.613 295.233 405.613 289.233 403.5 275.5C401.167 275.5 398.833 275.5 396.5 275.5C396.5 274.5 396.5 273.5 396.5 272.5C392.833 272.5 389.167 272.5 385.5 272.5C385.5 274.5 385.5 276.5 385.5 278.5C384.833 276.833 384.167 275.167 383.5 273.5C379.833 273.5 376.167 273.5 372.5 273.5C372.333 284.172 372.5 294.839 373 305.5C373.519 306.516 374.353 307.182 375.5 307.5C378.655 306.85 381.155 305.183 383 302.5C382.805 304.745 381.638 306.578 379.5 308C374.336 310.835 371.503 309.335 371 303.5C370.5 293.506 370.334 283.506 370.5 273.5C363.07 273.346 355.737 274.013 348.5 275.5C348.5 275.167 348.5 274.833 348.5 274.5C349.833 274.5 351.167 274.5 352.5 274.5C352.5 268.167 352.5 261.833 352.5 255.5C351.167 255.5 349.833 255.5 348.5 255.5C348.5 260.167 348.5 264.833 348.5 269.5C347.513 264.695 347.179 259.695 347.5 254.5C341.974 254.179 336.64 254.512 331.5 255.5C329.833 255.5 328.167 255.5 326.5 255.5C325.8 259.798 325.467 264.131 325.5 268.5C331.491 268.966 337.491 269.299 343.5 269.5C343.918 270.222 344.584 270.722 345.5 271C343.527 271.495 341.527 271.662 339.5 271.5C334.786 271.647 330.119 271.314 325.5 270.5C323.994 276.733 323.327 283.066 323.5 289.5C335.436 291.057 342.436 286.057 344.5 274.5C345.222 274.082 345.722 273.416 346 272.5C346.497 274.81 346.663 277.143 346.5 279.5C345.588 283.589 343.588 287.089 340.5 290C334.853 292.932 328.853 294.099 322.5 293.5C319.081 336.785 316.414 380.119 314.5 423.5C320.131 424.412 325.798 425.079 331.5 425.5C330.081 426.451 328.415 426.784 326.5 426.5C323.31 426.441 320.143 426.107 317 425.5C315.319 425.608 314.152 426.275 313.5 427.5C311.631 425.365 310.964 422.698 311.5 419.5C313.635 364.343 317.801 309.343 324 254.5C324.5 254 325 253.5 325.5 253C341.167 252.833 356.833 252.667 372.5 252.5C390.203 252.376 407.87 252.876 425.5 254C426.191 255.067 426.691 256.234 427 257.5C427.949 270.523 429.115 283.523 430.5 296.5Z" fill="#181818" fill-rule="evenodd" opacity="1" stroke="none"/>
<path d="M339.5 271.5C341.531 271.972 343.198 272.972 344.5 274.5C342.436 286.057 335.436 291.057 323.5 289.5C323.327 283.066 323.994 276.733 325.5 270.5C330.119 271.314 334.786 271.647 339.5 271.5Z" fill="#f1f1f2" fill-rule="evenodd" opacity="1" stroke="none"/>
<path d="M410.5 271.5C415.5 271.5 420.5 271.5 425.5 271.5C425.84 277.415 426.506 283.248 427.5 289C414.355 291.112 407.355 285.612 406.5 272.5C408.099 272.768 409.432 272.434 410.5 271.5Z" fill="#f0f0f0" fill-rule="evenodd" opacity="1" stroke="none"/>
<path d="M331.5 255.5C336.64 254.512 341.974 254.179 347.5 254.5C347.179 259.695 347.513 264.695 348.5 269.5C348.5 271.167 348.5 272.833 348.5 274.5C348.5 274.833 348.5 275.167 348.5 275.5C347.833 276.833 347.167 278.167 346.5 279.5C346.663 277.143 346.497 274.81 346 272.5C345.722 273.416 345.222 274.082 344.5 274.5C343.198 272.972 341.531 271.972 339.5 271.5C341.527 271.662 343.527 271.495 345.5 271C344.584 270.722 343.918 270.222 343.5 269.5C344.5 269.5 345.5 269.5 346.5 269.5C346.5 264.833 346.5 260.167 346.5 255.5C341.5 255.5 336.5 255.5 331.5 255.5Z" fill="#313130" fill-rule="evenodd" opacity="1" stroke="none"/>
<path d="M395.5 255.5C396.487 260.305 396.821 265.305 396.5 270.5C382.323 270.829 368.323 270.496 354.5 269.5C368.167 269.5 381.833 269.5 395.5 269.5C395.5 264.833 395.5 260.167 395.5 255.5Z" fill="#a8a9a9" fill-rule="evenodd" opacity="1" stroke="none"/>
<path d="M348.5 274.5C348.5 272.833 348.5 271.167 348.5 269.5C348.5 264.833 348.5 260.167 348.5 255.5C349.833 255.5 351.167 255.5 352.5 255.5C352.5 261.833 352.5 268.167 352.5 274.5C351.167 274.5 349.833 274.5 348.5 274.5Z" fill="#eceded" fill-rule="evenodd" opacity="1" stroke="none"/>
<path d="M398.5 255.5C399.833 255.5 401.167 255.5 402.5 255.5C402.5 261.833 402.5 268.167 402.5 274.5C401.167 274.5 399.833 274.5 398.5 274.5C398.5 268.167 398.5 261.833 398.5 255.5Z" fill="#ebecec" fill-rule="evenodd" opacity="1" stroke="none"/>
<path d="M403.5 255.5C410.175 255.334 416.842 255.5 423.5 256C424.464 260.066 424.797 264.233 424.5 268.5C417.48 268.502 410.48 268.835 403.5 269.5C403.5 264.833 403.5 260.167 403.5 255.5Z" fill="#efefef" fill-rule="evenodd" opacity="1" stroke="none"/>
<path d="M331.5 255.5C336.5 255.5 341.5 255.5 346.5 255.5C346.5 260.167 346.5 264.833 346.5 269.5C345.5 269.5 344.5 269.5 343.5 269.5C337.491 269.299 331.491 268.966 325.5 268.5C325.467 264.131 325.8 259.798 326.5 255.5C328.167 255.5 329.833 255.5 331.5 255.5Z" fill="#f3f3f3" fill-rule="evenodd" opacity="1" stroke="none"/>
<path d="M395.5 255.5C395.5 260.167 395.5 264.833 395.5 269.5C381.833 269.5 368.167 269.5 354.5 269.5C354.5 264.833 354.5 260.167 354.5 255.5C368.167 255.5 381.833 255.5 395.5 255.5Z" fill="#f3f3f3" fill-rule="evenodd" opacity="1" stroke="none"/>
<path d="M374.5 258.5C379.835 258.005 382.335 260.338 382 265.5C378.905 269.327 375.905 269.327 373 265.5C372.167 262.829 372.667 260.496 374.5 258.5Z" fill="#1b1b1b" fill-rule="evenodd" opacity="1" stroke="none"/>
<path d="M375.5 260.5C379.161 260.35 380.161 261.85 378.5 265C374.707 265.487 373.707 263.987 375.5 260.5Z" fill="#dfe1e2" fill-rule="evenodd" opacity="1" stroke="none"/>
<path d="M383.5 273.5C384.167 275.167 384.833 276.833 385.5 278.5C385.827 283.214 385.493 287.88 384.5 292.5C383.504 286.202 383.17 279.868 383.5 273.5Z" fill="#5a5b5a" fill-rule="evenodd" opacity="1" stroke="none"/>
<path d="M384.5 294.5C385.764 296.772 385.598 299.105 384 301.5C383.297 299.071 383.463 296.738 384.5 294.5Z" fill="#242423" fill-rule="evenodd" opacity="1" stroke="none"/>
<path d="M430.5 296.5C434.528 341.956 437.362 387.623 439 433.5C438.25 434.126 437.416 434.626 436.5 435C422.566 437.113 408.566 437.78 394.5 437C394 436.5 393.5 436 393 435.5C389.371 397.465 383.538 359.799 375.5 322.5C372.695 331.981 370.529 341.648 369 351.5C364.682 379.377 361.015 407.377 358 435.5C357.5 436 357 436.5 356.5 437C342.1 437.803 327.767 437.136 313.5 435C312.584 434.626 311.75 434.126 311 433.5C310.185 428.648 310.352 423.981 311.5 419.5C310.964 422.698 311.631 425.365 313.5 427.5C313.5 429.167 313.5 430.833 313.5 432.5C327.445 434.128 341.445 434.794 355.5 434.5C355.5 432.5 355.5 430.5 355.5 428.5C354.5 428.5 353.5 428.5 352.5 428.5C352.5 427.833 352.5 427.167 352.5 426.5C353.833 426.5 355.167 426.5 356.5 426.5C359.534 390.759 365.034 355.426 373 320.5C376.084 319.041 378.084 320.041 379 323.5C385.885 357.583 391.052 391.916 394.5 426.5C408.59 426.541 422.59 425.541 436.5 423.5C433.857 384.518 431.523 345.518 429.5 306.5C429.187 302.958 429.521 299.625 430.5 296.5Z" fill="#1a1a1a" fill-rule="evenodd" opacity="1" stroke="none"/>
<path d="M331.5 425.5C337.804 426.26 344.137 426.593 350.5 426.5C346.366 427.485 342.032 427.818 337.5 427.5C333.629 427.815 329.962 427.482 326.5 426.5C328.415 426.784 330.081 426.451 331.5 425.5Z" fill="#3d3e3d" fill-rule="evenodd" opacity="1" stroke="none"/>
<path d="M430.5 425.5C432.5 425.5 434.5 425.5 436.5 425.5C436.5 427.833 436.5 430.167 436.5 432.5C422.893 434.113 409.226 434.78 395.5 434.5C395.5 432.5 395.5 430.5 395.5 428.5C407.4 428.486 419.066 427.486 430.5 425.5Z" fill="#eff0ef" fill-rule="evenodd" opacity="1" stroke="none"/>
<path d="M326.5 426.5C329.962 427.482 333.629 427.815 337.5 427.5C342.305 428.487 347.305 428.821 352.5 428.5C353.5 428.5 354.5 428.5 355.5 428.5C355.5 430.5 355.5 432.5 355.5 434.5C341.445 434.794 327.445 434.128 313.5 432.5C313.5 430.833 313.5 429.167 313.5 427.5C314.152 426.275 315.319 425.608 317 425.5C320.143 426.107 323.31 426.441 326.5 426.5Z" fill="#eceded" fill-rule="evenodd" opacity="1" stroke="none"/>
<path d="M350.5 426.5C351.167 426.5 351.833 426.5 352.5 426.5C352.5 427.167 352.5 427.833 352.5 428.5C347.305 428.821 342.305 428.487 337.5 427.5C342.032 427.818 346.366 427.485 350.5 426.5Z" fill="#6c6d6c" fill-rule="evenodd" opacity="1" stroke="none"/>
</g>
</svg>