<?xml version="1.0" encoding="UTF-8"?>
<svg xmlns="http://www.w3.org/2000/svg" version="1.1" viewBox="946.29 366.96 149.87 91.11" width="149.87" height="91.11" style="fill-rule:nonzero;clip-rule:evenodd;stroke-linecap:round;stroke-linejoin:round;" xml:space="preserve">
<g opacity="1">
<path d="M998.5 373.5C1007.62 372.958 1016.45 374.291 1025 377.5C1032.65 374.886 1040.48 374.053 1048.5 375C1054.46 377.634 1058.3 382.134 1060 388.5C1061.87 395.396 1063.2 402.396 1064 409.5C1071.28 411.148 1077.94 414.148 1084 418.5C1088.28 426.986 1086.12 433.486 1077.5 438C1062.29 445.043 1046.29 449.043 1029.5 450C1009.72 452.073 990.385 450.073 971.5 444C967.221 442.527 963.221 440.527 959.5 438C952.289 430.813 953.289 424.813 962.5 420C967.857 417.402 973.357 415.236 979 413.5C980.624 401.294 984.624 389.96 991 379.5C993.114 376.879 995.614 374.879 998.5 373.5Z" fill="#191919" fill-rule="evenodd" opacity="1" stroke="none" />
<path d="M1040.5 417.5C1037.71 417.778 1035.21 417.111 1033 415.5C1023.49 416.821 1013.99 416.821 1004.5 415.5C1002.15 417.229 999.482 417.896 996.5 417.5C991.777 416.815 987.443 415.148 983.5 412.5C983.139 398.761 987.806 386.928 997.5 377C1005.64 375.019 1013.64 375.686 1021.5 379C1015.77 381.799 1009.77 383.799 1003.5 385C1004.43 385.991 1005.6 386.491 1007 386.5C1017.12 383.192 1027.28 380.025 1037.5 377C1043.93 375.35 1049.43 376.85 1054 381.5C1058.63 390.643 1060.96 400.309 1061 410.5C1054.52 413.936 1047.69 416.269 1040.5 417.5Z" fill="#f6f6f6" fill-rule="evenodd" opacity="1" stroke="none" />
<path d="M1066.5 413.5C1089.16 419.603 1090.16 428.103 1069.5 439C1040 449.37 1010 451.036 979.5 444C971.2 442.103 964.033 438.269 958 432.5C957.172 428.303 958.672 425.136 962.5 423C967.277 420.277 972.277 418.111 977.5 416.5C978.318 419.107 978.818 421.774 979 424.5C986.216 430.017 994.382 433.183 1003.5 434C1021.62 435.622 1039.29 433.622 1056.5 428C1059.76 426.884 1062.42 425.051 1064.5 422.5C1065.17 419.5 1065.83 416.5 1066.5 413.5Z" fill="#f2f2f2" fill-rule="evenodd" opacity="1" stroke="none" />
<path d="M1059.5 413.5C1060.5 413.5 1061.5 413.5 1062.5 413.5C1062.66 416.187 1062.5 418.854 1062 421.5C1054.25 426.567 1045.75 429.734 1036.5 431C1024.15 432.835 1011.82 432.835 999.5 431C992.663 430.057 986.497 427.557 981 423.5C980.502 420.518 980.335 417.518 980.5 414.5C991.724 419.459 1003.56 422.126 1016 422.5C1026.24 422.032 1036.41 420.865 1046.5 419C1051.06 417.434 1055.39 415.601 1059.5 413.5Z" fill="#eeefef" fill-rule="evenodd" opacity="1" stroke="none" />
<path d="M1040.5 417.5C1033.23 419.047 1025.73 419.714 1018 419.5C1012.5 419.333 1007 419.167 1001.5 419C999.618 418.802 997.952 418.302 996.5 417.5C999.482 417.896 1002.15 417.229 1004.5 415.5C1013.99 416.821 1023.49 416.821 1033 415.5C1035.21 417.111 1037.71 417.778 1040.5 417.5Z" fill="#dedfdf" fill-rule="evenodd" opacity="1" stroke="none" />
<path d="M1066.5 413.5C1065.83 416.5 1065.17 419.5 1064.5 422.5C1064.18 419.102 1064.51 415.768 1065.5 412.5C1066.11 412.624 1066.44 412.957 1066.5 413.5Z" fill="#908f90" fill-rule="evenodd" opacity="1" stroke="none" />
</g>

</svg>