<?xml version="1.0" encoding="UTF-8"?>
<svg xmlns="http://www.w3.org/2000/svg" version="1.1" viewBox="1331.10 352.21 153.40 115.88" width="153.40" height="115.88" style="fill-rule:nonzero;clip-rule:evenodd;stroke-linecap:round;stroke-linejoin:round;" xml:space="preserve">
<g opacity="1">
<path d="M1415.5 358.5C1417.29 358.215 1418.95 358.548 1420.5 359.5C1415.64 368.144 1417.31 369.644 1425.5 364C1429.34 363.164 1433.17 362.331 1437 361.5C1438.73 361.454 1440.23 361.954 1441.5 363C1439.83 365.333 1438.17 367.667 1436.5 370C1442.5 370.333 1448.5 370.667 1454.5 371C1457.1 371.026 1458.27 372.193 1458 374.5C1455.69 375.641 1453.86 377.308 1452.5 379.5C1459.75 381.792 1466.42 385.125 1472.5 389.5C1469.72 391.079 1466.72 392.412 1463.5 393.5C1469.47 397.473 1474.47 402.473 1478.5 408.5C1478.29 409.086 1477.96 409.586 1477.5 410C1474.77 410.182 1472.11 410.682 1469.5 411.5C1474.35 416.203 1477.35 421.87 1478.5 428.5C1475.2 427.624 1471.87 427.457 1468.5 428C1471.12 431.405 1472.46 435.239 1472.5 439.5C1467.47 439.98 1462.47 440.647 1457.5 441.5C1453.65 457.594 1444.31 462.094 1429.5 455C1428.87 454.25 1428.37 453.416 1428 452.5C1418.56 453.771 1409.06 453.771 1399.5 452.5C1398.5 452.667 1397.5 452.833 1396.5 453C1393.2 456.706 1389.04 458.539 1384 458.5C1379.87 456.22 1375.37 454.72 1370.5 454C1369.76 451.149 1369.76 448.483 1370.5 446C1358.13 440.917 1347.3 433.751 1338 424.5C1337.1 421.975 1337.6 419.808 1339.5 418C1343.25 417.74 1346.92 417.073 1350.5 416C1355.37 411.468 1359.87 406.634 1364 401.5C1363.78 396.515 1363.78 391.515 1364 386.5C1365.55 383.997 1367.22 383.997 1369 386.5C1370.14 382.757 1371.47 379.09 1373 375.5C1373.69 374.643 1374.52 373.977 1375.5 373.5C1376.8 375.328 1377.8 377.328 1378.5 379.5C1382.8 372.731 1388.14 366.898 1394.5 362C1395.45 361.517 1396.45 361.351 1397.5 361.5C1397.34 364.187 1397.5 366.854 1398 369.5C1403.81 365.683 1409.65 362.017 1415.5 358.5Z" fill="#1c1c1c" fill-rule="evenodd" opacity="1" stroke="none" />
<path d="M1369.5 400.5C1376.8 399.707 1382.8 402.04 1387.5 407.5C1390.56 403.651 1394.23 402.817 1398.5 405C1401.94 411.281 1400.27 415.448 1393.5 417.5C1393.48 422.227 1393.31 426.893 1393 431.5C1412.66 441.284 1433.49 445.118 1455.5 443C1453.17 446.667 1450.83 450.333 1448.5 454C1444.92 455.675 1441.25 455.842 1437.5 454.5C1438.71 452.578 1440.04 450.745 1441.5 449C1427.92 450.419 1414.25 450.752 1400.5 450C1389.91 448.77 1379.58 446.436 1369.5 443C1365.38 441.777 1361.72 439.777 1358.5 437C1361.29 436.439 1363.62 435.106 1365.5 433C1365 432.5 1364.5 432 1364 431.5C1360.66 434.318 1356.83 435.151 1352.5 434C1350.33 431.833 1348.17 429.667 1346 427.5C1346.08 424.881 1346.25 422.214 1346.5 419.5C1349.52 419.159 1352.18 417.993 1354.5 416C1359.09 410.25 1364.09 405.083 1369.5 400.5Z" fill="#f3f3f3" fill-rule="evenodd" opacity="1" stroke="none" />
<path d="M1415.5 361.5C1416.24 361.369 1416.91 361.536 1417.5 362C1415.8 364.587 1414.8 367.421 1414.5 370.5C1420.03 368.378 1425.7 366.545 1431.5 365C1433.5 364.333 1435.5 364.333 1437.5 365C1435.64 367.364 1433.97 369.864 1432.5 372.5C1439.82 372.056 1447.15 372.556 1454.5 374C1452.13 376.176 1449.79 378.343 1447.5 380.5C1454.61 383.038 1461.61 385.872 1468.5 389C1464.77 389.846 1461.43 391.346 1458.5 393.5C1464.62 397.12 1469.95 401.62 1474.5 407C1472.17 407.333 1469.83 407.667 1467.5 408C1466.57 408.388 1465.91 409.055 1465.5 410C1469.83 414.329 1473.16 419.329 1475.5 425C1472.12 425.176 1468.78 425.676 1465.5 426.5C1467.17 429.869 1468.84 433.202 1470.5 436.5C1445.05 443.447 1420.38 441.447 1396.5 430.5C1396.17 429.833 1395.83 429.167 1395.5 428.5C1396.14 425.525 1396.64 422.525 1397 419.5C1403.16 414.723 1403.99 409.223 1399.5 403C1395.29 400.731 1391.45 401.231 1388 404.5C1381.87 398.631 1374.7 396.964 1366.5 399.5C1366.18 395.774 1366.51 392.107 1367.5 388.5C1368.67 390.167 1369.83 391.833 1371 393.5C1370.89 387.753 1372.22 382.42 1375 377.5C1376.02 379.898 1377.18 382.231 1378.5 384.5C1382.08 377.352 1387.08 371.352 1393.5 366.5C1394.17 369.5 1394.83 372.5 1395.5 375.5C1401.57 369.815 1408.23 365.148 1415.5 361.5Z" fill="#f3f3f4" fill-rule="evenodd" opacity="1" stroke="none" />
<path d="M1413.5 405.5C1420.04 405.543 1420.04 406.21 1413.5 407.5C1412.54 407.03 1412.54 406.363 1413.5 405.5Z" fill="#2d2d2d" fill-rule="evenodd" opacity="1" stroke="none" />
<path d="M1446.5 401.5C1448.99 401.298 1451.32 401.798 1453.5 403C1452.33 403.167 1451.17 403.333 1450 403.5C1448.32 403.392 1447.15 402.725 1446.5 401.5Z" fill="#474849" fill-rule="evenodd" opacity="1" stroke="none" />
<path d="M1424.5 401.5C1426.6 401.201 1428.6 401.534 1430.5 402.5C1429.5 402.833 1428.5 403.167 1427.5 403.5C1425.97 403.36 1424.97 402.693 1424.5 401.5Z" fill="#535353" fill-rule="evenodd" opacity="1" stroke="none" />
<path d="M1408.5 393.5C1409.55 393.351 1410.55 393.517 1411.5 394C1409.25 395.039 1407.09 396.206 1405 397.5C1404.83 397.167 1404.67 396.833 1404.5 396.5C1405.9 395.479 1407.23 394.479 1408.5 393.5Z" fill="#3c3a3d" fill-rule="evenodd" opacity="1" stroke="none" />
<path d="M1429.5 388.5C1437.43 388.299 1437.93 388.966 1431 390.5C1428.64 390.676 1428.14 390.009 1429.5 388.5Z" fill="#575758" fill-rule="evenodd" opacity="1" stroke="none" />
<path d="M1388.5 385.5C1389.53 385.897 1389.69 386.563 1389 387.5C1388.16 389.007 1387 389.507 1385.5 389C1386.71 387.961 1387.71 386.794 1388.5 385.5Z" fill="#151414" fill-rule="evenodd" opacity="1" stroke="none" />
<path d="M1404.5 380.5C1405.24 380.369 1405.91 380.536 1406.5 381C1404.63 383.209 1402.46 385.042 1400 386.5C1401.14 384.487 1402.64 382.487 1404.5 380.5Z" fill="#403f40" fill-rule="evenodd" opacity="1" stroke="none" />
<path d="M1421.5 379.5C1423.7 379.846 1423.87 380.513 1422 381.5C1413.72 383.932 1413.55 383.265 1421.5 379.5Z" fill="#323332" fill-rule="evenodd" opacity="1" stroke="none" />
<path d="M1393.5 407.5C1394.38 407.369 1395.04 407.702 1395.5 408.5C1393.83 409.5 1392.5 410.833 1391.5 412.5C1391.17 412.167 1390.83 411.833 1390.5 411.5C1391.52 410.148 1392.52 408.815 1393.5 407.5Z" fill="#191919" fill-rule="evenodd" opacity="1" stroke="none" />
<path d="M1430.5 414.5C1433.4 414.28 1436.07 414.946 1438.5 416.5C1438.17 416.833 1437.83 417.167 1437.5 417.5C1434.65 417.234 1432.32 416.234 1430.5 414.5Z" fill="#5b595b" fill-rule="evenodd" opacity="1" stroke="none" />
<path d="M1449.5 414.5C1451.92 415.03 1454.26 415.864 1456.5 417C1454.82 417.395 1453.15 417.228 1451.5 416.5C1450.29 416.253 1449.62 415.586 1449.5 414.5Z" fill="#505051" fill-rule="evenodd" opacity="1" stroke="none" />
<path d="M1368.5 414.5C1373.33 414.385 1374.66 416.552 1372.5 421C1367.57 421.427 1366.24 419.26 1368.5 414.5Z" fill="#161616" fill-rule="evenodd" opacity="1" stroke="none" />
<path d="M1374.5 447.5C1376.7 447.565 1378.7 448.232 1380.5 449.5C1378.15 452.557 1375.15 453.224 1371.5 451.5C1372.52 450.148 1373.52 448.815 1374.5 447.5Z" fill="#e4e4e4" fill-rule="evenodd" opacity="1" stroke="none" />
<path d="M1431.5 451.5C1433.2 451.34 1434.87 451.506 1436.5 452C1434.42 454.139 1432.75 453.972 1431.5 451.5Z" fill="#c6c6c8" fill-rule="evenodd" opacity="1" stroke="none" />
<path d="M1383.5 449.5C1387.32 449.605 1390.99 450.438 1394.5 452C1390.32 454.944 1385.66 456.11 1380.5 455.5C1380.62 453.053 1381.62 451.053 1383.5 449.5Z" fill="#ededed" fill-rule="evenodd" opacity="1" stroke="none" />
</g>

</svg>