<?xml version="1.0" encoding="UTF-8" standalone="no"?>
<svg xmlns="http://www.w3.org/2000/svg" fill-rule="nonzero" clip-rule="evenodd" stroke-miterlimit="10" style="fill-rule:nonzero;clip-rule:evenodd;stroke-linecap:round;stroke-linejoin:round;"
     viewBox="518.5 229.7 221.9 215.8" xml:space="preserve">
<g opacity="1">
<path d="M596.5 288.5C601.833 287.833 601.833 287.167 596.5 286.5C591.833 286.5 587.167 286.5 582.5 286.5C582.719 285.325 582.386 284.325 581.5 283.5C580.636 285.197 579.303 286.363 577.5 287C570.377 288.031 563.377 289.531 556.5 291.5C559.746 274.921 569.746 265.587 586.5 263.5C592.807 263.794 598.807 265.294 604.5 268C608.314 270.98 611.981 274.146 615.5 277.5C618.919 251.563 633.252 241.73 658.5 248C660.007 248.837 660.507 250.004 660 251.5C652.99 255.188 647.323 260.188 643 266.5C639.944 269.432 636.777 272.266 633.5 275C659.776 266.471 676.11 275.638 682.5 302.5C675.511 300.784 668.511 298.951 661.5 297C659.448 296.07 657.948 294.57 657 292.5C656.51 293.793 656.343 295.127 656.5 296.5C651.336 296.538 646.669 295.204 642.5 292.5C637.795 293.261 633.128 293.594 628.5 293.5C646.934 316.46 656.267 342.793 656.5 372.5C674.1 376.547 689.266 384.88 702 397.5C705.817 401.158 708.65 405.491 710.5 410.5C712.765 411.647 715.098 411.814 717.5 411C720.466 409.734 723.466 408.567 726.5 407.5C727.932 407.733 728.432 408.4 728 409.5C721.714 413.564 714.881 415.064 707.5 414C704.523 412.427 701.357 411.594 698 411.5C691.977 413.589 685.81 415.255 679.5 416.5C673.627 414.981 667.793 413.314 662 411.5C656.393 413.883 650.559 415.549 644.5 416.5C639.01 415.225 633.677 413.558 628.5 411.5C622.915 413.46 617.248 415.127 611.5 416.5C605.859 415.261 600.359 413.594 595 411.5C589.309 413.675 583.475 415.342 577.5 416.5C571.519 414.848 565.519 413.181 559.5 411.5C556.044 411.818 552.711 412.652 549.5 414C542.327 414.885 535.994 413.052 530.5 408.5C534.302 408.027 537.968 408.861 541.5 411C544.146 411.497 546.813 411.664 549.5 411.5C550.352 408.777 551.519 406.11 553 403.5C566.767 386.937 584.267 376.27 605.5 371.5C597.568 360.732 599.401 358.398 611 364.5C611.499 360.179 611.666 355.846 611.5 351.5C613.903 351.393 615.736 352.393 617 354.5C618.92 357.339 620.587 360.339 622 363.5C624.064 360.726 626.564 358.893 629.5 358C629.823 361.71 629.823 365.543 629.5 369.5C630.833 369.5 632.167 369.5 633.5 369.5C636.334 343.18 630.834 318.846 617 296.5C612.833 299.333 609.333 302.833 606.5 307C605.451 307.492 604.451 307.326 603.5 306.5C601.453 310.76 598.786 314.593 595.5 318C594.216 318.684 593.049 318.517 592 317.5C591.667 319.167 591.333 320.833 591 322.5C586.545 327.905 582.712 333.739 579.5 340C578.833 340.667 578.167 340.667 577.5 340C568.058 322.877 570.391 307.544 584.5 294C588.133 291.35 592.133 289.517 596.5 288.5Z" fill="#171717" fill-rule="evenodd" opacity="1" stroke="none"/>
<path d="M638.5 248.5C643.179 248.334 647.845 248.501 652.5 249C653.624 249.249 654.624 249.749 655.5 250.5C650.706 255.825 644.872 259.158 638 260.5C638.667 261.833 639.333 263.167 640 264.5C632.545 270.948 626.212 278.282 621 286.5C616.275 268.95 622.109 256.283 638.5 248.5Z" fill="#f1f1f2" fill-rule="evenodd" opacity="1" stroke="none"/>
<path d="M581.5 266.5C598.15 265.321 610.15 272.154 617.5 287C617.167 287.5 616.833 288 616.5 288.5C610.653 286.33 604.653 284.663 598.5 283.5C598.734 279.697 597.401 279.53 594.5 283C591.518 283.498 588.518 283.665 585.5 283.5C585.884 281.335 585.217 279.668 583.5 278.5C581.35 280.149 579.35 281.982 577.5 284C572.313 285.088 567.146 286.255 562 287.5C561.5 287.167 561 286.833 560.5 286.5C564.309 276.355 571.309 269.688 581.5 266.5Z" fill="#f1f1f1" fill-rule="evenodd" opacity="1" stroke="none"/>
<path d="M629.5 290.5C627.5 289.833 625.5 289.167 623.5 288.5C635.731 273.309 650.398 270.475 667.5 280C673.504 284.824 677.17 290.991 678.5 298.5C672.88 296.906 667.213 295.406 661.5 294C660.024 291.357 658.024 289.19 655.5 287.5C654.548 289.045 654.215 290.712 654.5 292.5C649.151 293.611 644.818 292.111 641.5 288C640.552 287.517 639.552 287.351 638.5 287.5C638.5 288.5 638.5 289.5 638.5 290.5C635.5 290.5 632.5 290.5 629.5 290.5Z" fill="#f2f2f2" fill-rule="evenodd" opacity="1" stroke="none"/>
<path d="M596.5 286.5C601.833 287.167 601.833 287.833 596.5 288.5C596.5 287.833 596.5 287.167 596.5 286.5Z" fill="#787878" fill-rule="evenodd" opacity="1" stroke="none"/>
<path d="M623.5 288.5C625.5 289.167 627.5 289.833 629.5 290.5C627.076 290.808 624.743 290.474 622.5 289.5C622.624 288.893 622.957 288.56 623.5 288.5Z" fill="#7a7b7c" fill-rule="evenodd" opacity="1" stroke="none"/>
<path d="M600.5 289.5C604.846 289.334 609.179 289.501 613.5 290C615.044 290.29 616.377 290.956 617.5 292C613.012 295.488 608.846 299.321 605 303.5C603.715 303.05 602.548 302.383 601.5 301.5C599.929 303.882 599.096 306.549 599 309.5C597.333 311.5 595.667 313.5 594 315.5C592.743 313.254 590.91 311.921 588.5 311.5C588.665 314.518 588.498 317.518 588 320.5C584.833 325.5 581.667 330.5 578.5 335.5C570.255 312.658 577.588 297.325 600.5 289.5Z" fill="#f1f1f1" fill-rule="evenodd" opacity="1" stroke="none"/>
<path d="M632.5 321.5C631.833 321.5 631.5 321.167 631.5 320.5C633.819 319.833 636.153 319.666 638.5 320C636.655 321.128 634.655 321.628 632.5 321.5Z" fill="#818081" fill-rule="evenodd" opacity="1" stroke="none"/>
<path d="M636.5 349.5C637.479 352.625 637.813 355.958 637.5 359.5C639.199 359.34 640.866 359.506 642.5 360C640.414 360.315 638.414 360.815 636.5 361.5C636.5 357.5 636.5 353.5 636.5 349.5Z" fill="#979698" fill-rule="evenodd" opacity="1" stroke="none"/>
<path d="M650.5 358.5C651.167 359.167 651.833 359.833 652.5 360.5C650.712 360.785 649.045 360.452 647.5 359.5C648.325 358.614 649.325 358.281 650.5 358.5Z" fill="#727172" fill-rule="evenodd" opacity="1" stroke="none"/>
<path d="M650.5 358.5C649.325 358.281 648.325 358.614 647.5 359.5C649.045 360.452 650.712 360.785 652.5 360.5C652.5 365.833 652.5 371.167 652.5 376.5C646.797 376.625 641.13 376.292 635.5 375.5C635.669 370.819 636.002 366.152 636.5 361.5C638.414 360.815 640.414 360.315 642.5 360C640.866 359.506 639.199 359.34 637.5 359.5C637.813 355.958 637.479 352.625 636.5 349.5C635.984 340.04 634.651 330.707 632.5 321.5C634.655 321.628 636.655 321.128 638.5 320C636.153 319.666 633.819 319.833 631.5 320.5C630.103 315.809 628.603 311.143 627 306.5C624.376 302.752 621.876 298.919 619.5 295C621.541 293.259 623.708 293.092 626 294.5C634.7 305.061 641.2 316.894 645.5 330C645.245 331.326 644.578 332.326 643.5 333C645.848 333.11 647.348 334.277 648 336.5C650.296 343.877 651.13 351.211 650.5 358.5Z" fill="#f1f1f1" fill-rule="evenodd" opacity="1" stroke="none"/>
<path d="M624.5 374.5C622.401 373.388 620.067 372.721 617.5 372.5C617.617 374.484 616.95 376.15 615.5 377.5C616.025 378.192 616.692 378.692 617.5 379C615.77 380.852 614.604 380.686 614 378.5C613.517 379.448 613.351 380.448 613.5 381.5C611.901 381.768 610.568 381.434 609.5 380.5C610.5 380.5 611.5 380.5 612.5 380.5C610.474 375.443 608.141 370.443 605.5 365.5C605.667 365.167 605.833 364.833 606 364.5C608.925 366.714 611.759 369.047 614.5 371.5C615.297 366.849 615.464 362.182 615 357.5C617.827 361.466 619.994 365.8 621.5 370.5C626.102 360.943 627.602 361.609 626 372.5C625.722 373.416 625.222 374.082 624.5 374.5Z" fill="#dbdbdc" fill-rule="evenodd" opacity="1" stroke="none"/>
<path d="M624.5 374.5C624.5 375.5 624.5 376.5 624.5 377.5C627.47 377.254 628.803 375.588 628.5 372.5C629.833 372.5 631.167 372.5 632.5 372.5C632.5 374.167 632.5 375.833 632.5 377.5C639.789 378.804 647.123 379.304 654.5 379C655.337 377.989 655.67 376.822 655.5 375.5C677.532 380.051 694.866 391.551 707.5 410C704.065 409.651 700.565 409.151 697 408.5C691.513 410.741 685.846 412.408 680 413.5C673.922 412.128 667.922 410.462 662 408.5C656.393 410.883 650.559 412.549 644.5 413.5C639.059 411.7 633.559 410.033 628 408.5C622.522 410.735 616.855 412.402 611 413.5C605.798 411.574 600.464 409.907 595 408.5C589.362 410.655 583.529 412.321 577.5 413.5C572.563 412.866 567.896 411.366 563.5 409C560.438 408.259 557.438 408.425 554.5 409.5C554.167 409.167 553.833 408.833 553.5 408.5C566.738 390.374 584.404 379.041 606.5 374.5C608.553 375.939 609.553 377.939 609.5 380.5C610.568 381.434 611.901 381.768 613.5 381.5C613.351 380.448 613.517 379.448 614 378.5C614.604 380.686 615.77 380.852 617.5 379C616.692 378.692 616.025 378.192 615.5 377.5C616.95 376.15 617.617 374.484 617.5 372.5C620.067 372.721 622.401 373.388 624.5 374.5Z" fill="#f7f7f7" fill-rule="evenodd" opacity="1" stroke="none"/>
<path d="M553.5 424.5C556.85 424.335 560.183 424.502 563.5 425C568.105 427.141 572.772 428.975 577.5 430.5C583.425 428.614 589.258 426.614 595 424.5C600.863 426.051 606.53 428.051 612 430.5C617.937 428.712 623.77 426.712 629.5 424.5C635.082 426.242 640.582 428.242 646 430.5C652.005 428.49 658.005 426.49 664 424.5C669.667 426.5 675.333 428.5 681 430.5C685.867 429.65 690.367 427.817 694.5 425C699.528 424.412 704.528 424.578 709.5 425.5C709.5 426.5 709.5 427.5 709.5 428.5C701.551 426.268 694.217 427.435 687.5 432C685.2 432.658 682.867 433.158 680.5 433.5C674.97 431.241 669.303 429.241 663.5 427.5C657.816 429.925 651.983 431.925 646 433.5C640.455 431.645 634.955 429.645 629.5 427.5C623.97 429.759 618.303 431.759 612.5 433.5C606.605 431.634 600.772 429.634 595 427.5C590.917 428.289 587.084 429.789 583.5 432C579.5 432.667 575.5 432.667 571.5 432C564.984 427.183 557.984 426.35 550.5 429.5C550.167 429 549.833 428.5 549.5 428C550.686 426.588 552.019 425.421 553.5 424.5Z" fill="#1c1c1c" fill-rule="evenodd" opacity="1" stroke="none"/>
</g>
</svg>