<?xml version="1.0" encoding="UTF-8"?>
<svg xmlns="http://www.w3.org/2000/svg" version="1.1" viewBox="677.10 12.50 151.52 319.60" width="151.52" height="319.60" style="overflow:visible;" xml:space="preserve">
<g>
<path d="M747.5 285.5C747.628 283.345 747.128 281.345 746 279.5C745.51 280.793 745.343 282.127 745.5 283.5C745.666 290.508 745.5 297.508 745 304.5C744.29 305.973 743.124 306.64 741.5 306.5C741.886 310.876 741.219 315.043 739.5 319C728.356 322.164 717.022 323.498 705.5 323C698.928 321.761 696.762 317.927 699 311.5C700.94 308.605 703.44 306.272 706.5 304.5C704.075 301.671 703.908 298.671 706 295.5C706.5 285.506 706.666 275.506 706.5 265.5C698.939 265.44 694.106 261.774 692 254.5C691.87 250.049 691.204 245.716 690 241.5C686.595 243.11 685.095 241.944 685.5 238C687.927 227.218 691.261 216.718 695.5 206.5C695.772 200.621 698.272 195.621 703 191.5C702.64 184.82 702.474 178.153 702.5 171.5C702.437 169.519 703.104 167.852 704.5 166.5C702.385 162.35 702.052 158.016 703.5 153.5C695.825 152.226 691.825 147.559 691.5 139.5C691.859 135.633 693.692 132.633 697 130.5C694.186 107.301 702.353 89.1344 721.5 76C739.95 67.9893 757.95 68.8226 775.5 78.5C776.574 59.4243 783.908 43.2577 797.5 30C802.149 26.0242 807.315 22.8575 813 20.5C815.303 21.7507 816.636 23.7507 817 26.5C820.618 53.9299 811.118 75.5965 788.5 91.5C795.675 102.876 798.008 115.21 795.5 128.5C801.151 134.791 801.984 141.791 798 149.5C795.815 151.54 793.315 152.874 790.5 153.5C790.705 164.722 790.372 175.888 789.5 187C792.351 192.532 795.351 198.032 798.5 203.5C798.069 204.293 797.735 205.127 797.5 206C801.737 216.545 805.07 227.379 807.5 238.5C807.498 242.278 805.831 243.278 802.5 241.5C801.672 246.132 801.172 250.798 801 255.5C798.304 262.701 793.137 266.035 785.5 265.5C786.047 275.493 786.547 285.493 787 295.5C789.502 299.132 789.002 302.132 785.5 304.5C788.609 306.475 791.443 308.808 794 311.5C795.71 317.469 793.543 321.303 787.5 323C775.858 324.098 764.525 322.765 753.5 319C751.688 315.078 751.021 310.911 751.5 306.5C748.476 306.825 746.809 305.492 746.5 302.5C747.408 296.875 747.742 291.208 747.5 285.5Z" fill="#171717" fill-rule="evenodd" opacity="1" stroke="none" />
<path d="M770.5 249.5C771.5 249.5 772.5 249.5 773.5 249.5C773.5 251.167 773.5 252.833 773.5 254.5C770.151 254.127 769.151 252.46 770.5 249.5Z" fill="#d7d8d8" fill-rule="evenodd" opacity="1" stroke="none" />
<path d="M755.5 251.5C756.5 251.5 757.5 251.5 758.5 251.5C758.785 253.288 758.452 254.955 757.5 256.5C755.783 255.332 755.116 253.665 755.5 251.5Z" fill="#d6d7d7" fill-rule="evenodd" opacity="1" stroke="none" />
<path d="M748.5 251.5C749.833 251.5 751.167 251.5 752.5 251.5C752.884 253.665 752.217 255.332 750.5 256.5C748.783 255.332 748.116 253.665 748.5 251.5Z" fill="#d9dada" fill-rule="evenodd" opacity="1" stroke="none" />
<path d="M763.5 251.5C764.5 251.5 765.5 251.5 766.5 251.5C766.5 252.833 766.5 254.167 766.5 255.5C765.5 255.5 764.5 255.5 763.5 255.5C763.5 254.167 763.5 252.833 763.5 251.5Z" fill="#eceded" fill-rule="evenodd" opacity="1" stroke="none" />
<path d="M730.5 251.5C731.833 251.5 733.167 251.5 734.5 251.5C734.756 253.912 733.756 255.579 731.5 256.5C730.548 254.955 730.215 253.288 730.5 251.5Z" fill="#d5d6d6" fill-rule="evenodd" opacity="1" stroke="none" />
<path d="M725.5 250.5C728.861 251.203 729.194 252.537 726.5 254.5C725.571 253.311 725.238 251.978 725.5 250.5Z" fill="#d6d8d8" fill-rule="evenodd" opacity="1" stroke="none" />
<path d="M719.5 249.5C720.5 249.5 721.5 249.5 722.5 249.5C722.5 251.167 722.5 252.833 722.5 254.5C721.5 254.5 720.5 254.5 719.5 254.5C719.5 252.833 719.5 251.167 719.5 249.5Z" fill="#c2c3c4" fill-rule="evenodd" opacity="1" stroke="none" />
<path d="M777.5 248.5C778.5 248.5 779.5 248.5 780.5 248.5C780.785 250.288 780.452 251.955 779.5 253.5C777.783 252.332 777.116 250.665 777.5 248.5Z" fill="#dedfdf" fill-rule="evenodd" opacity="1" stroke="none" />
<path d="M710.5 247.5C711.5 247.5 712.5 247.5 713.5 247.5C713.884 249.665 713.217 251.332 711.5 252.5C710.548 250.955 710.215 249.288 710.5 247.5Z" fill="#dddede" fill-rule="evenodd" opacity="1" stroke="none" />
<path d="M695.5 243.5C696.976 244.733 698.643 245.733 700.5 246.5C702.029 246.471 703.196 245.804 704 244.5C707.324 247.13 708.158 250.464 706.5 254.5C705.614 253.675 705.281 252.675 705.5 251.5C704.5 251.5 703.5 251.5 702.5 251.5C702.676 255.033 704.009 258.033 706.5 260.5C705.965 262.101 704.965 262.601 703.5 262C701.578 260.58 700.245 258.747 699.5 256.5C698.858 259.797 697.691 260.131 696 257.5C694.229 252.87 694.063 248.203 695.5 243.5Z" fill="#eaebeb" fill-rule="evenodd" opacity="1" stroke="none" />
<path d="M794.5 244.5C797.43 244.981 798.763 246.814 798.5 250C798.832 254.527 797.165 258.027 793.5 260.5C792.702 258.922 792.202 257.256 792 255.5C790.815 257.377 789.815 259.377 789 261.5C787.989 262.337 786.822 262.67 785.5 262.5C786.485 259.841 787.485 257.174 788.5 254.5C788.167 253.5 787.833 252.5 787.5 251.5C786.571 252.689 786.238 254.022 786.5 255.5C785.5 255.5 784.5 255.5 783.5 255.5C783.337 253.143 783.503 250.81 784 248.5C786.012 246.056 788.345 245.389 791 246.5C792.699 246.613 793.866 245.947 794.5 244.5Z" fill="#e9e9e9" fill-rule="evenodd" opacity="1" stroke="none" />
<path d="M770.5 235.5C765.162 236.179 764.329 238.512 768 242.5C769.019 243.687 770.186 244.687 771.5 245.5C773.295 243.297 775.629 242.131 778.5 242C776.088 238.838 773.755 239.005 771.5 242.5C770.167 241.833 769.167 240.833 768.5 239.5C771.836 238.76 775.17 238.094 778.5 237.5C779.909 240.164 780.243 242.831 779.5 245.5C767.023 248.476 754.356 250.143 741.5 250.5C742.348 252.409 742.682 254.409 742.5 256.5C741.325 256.719 740.325 256.386 739.5 255.5C738.894 253.291 738.227 251.124 737.5 249C728.88 248.926 720.547 247.426 712.5 244.5C711.548 242.955 711.215 241.288 711.5 239.5C712.268 238.737 712.768 237.737 713 236.5C713.383 237.056 713.883 237.389 714.5 237.5C716.89 237.913 719.223 238.579 721.5 239.5C722.3 242.133 723.8 244.133 726 245.5C727.822 243.898 729.655 242.231 731.5 240.5C732.971 241.381 733.804 242.714 734 244.5C734.804 245.804 735.971 246.471 737.5 246.5C740.446 245.221 742.779 243.221 744.5 240.5C746.176 243.008 748.342 245.008 751 246.5C752.667 244.5 754.333 242.5 756 240.5C758.071 241.775 759.571 243.609 760.5 246C763.322 246.699 764.988 245.532 765.5 242.5C764.132 241.406 762.965 241.74 762 243.5C758.167 235.583 754.333 235.583 750.5 243.5C749.026 242.564 748.026 241.23 747.5 239.5C745.955 238.548 744.288 238.215 742.5 238.5C748.301 235.642 754.467 234.642 761 235.5C764.675 233.785 768.508 233.285 772.5 234C771.584 234.278 770.918 234.778 770.5 235.5Z" fill="#e1e1e1" fill-rule="evenodd" opacity="1" stroke="none" />
<path d="M717.5 239.5C719.758 239.775 720.092 240.775 718.5 242.5C716.833 243.833 715.167 243.833 713.5 242.5C715.184 241.85 716.517 240.85 717.5 239.5Z" fill="#181818" fill-rule="evenodd" opacity="1" stroke="none" />
<path d="M717.5 235.5C719.435 236.15 721.435 236.483 723.5 236.5C723.022 239.278 724.022 241.278 726.5 242.5C727.95 241.15 728.617 239.484 728.5 237.5C733.118 236.309 735.618 237.975 736 242.5C736.561 243.022 737.228 243.355 738 243.5C739.952 242.28 741.452 240.613 742.5 238.5C744.288 238.215 745.955 238.548 747.5 239.5C748.026 241.23 749.026 242.564 750.5 243.5C754.333 235.583 758.167 235.583 762 243.5C762.965 241.74 764.132 241.406 765.5 242.5C764.988 245.532 763.322 246.699 760.5 246C759.571 243.609 758.071 241.775 756 240.5C754.333 242.5 752.667 244.5 751 246.5C748.342 245.008 746.176 243.008 744.5 240.5C742.779 243.221 740.446 245.221 737.5 246.5C735.971 246.471 734.804 245.804 734 244.5C733.804 242.714 732.971 241.381 731.5 240.5C729.655 242.231 727.822 243.898 726 245.5C723.8 244.133 722.3 242.133 721.5 239.5C719.223 238.579 716.89 237.913 714.5 237.5C714.821 235.952 715.821 235.285 717.5 235.5Z" fill="#191919" fill-rule="evenodd" opacity="1" stroke="none" />
<path d="M712.5 232.5C713.802 234.028 715.469 235.028 717.5 235.5C715.821 235.285 714.821 235.952 714.5 237.5C713.883 237.389 713.383 237.056 713 236.5C712.768 237.737 712.268 238.737 711.5 239.5C711.768 237.901 711.434 236.568 710.5 235.5C710.5 234.833 710.5 234.167 710.5 233.5C711.167 233.167 711.833 232.833 712.5 232.5Z" fill="#8f8f8e" fill-rule="evenodd" opacity="1" stroke="none" />
<path d="M794.5 209.5C796.64 211.7 798.14 214.367 799 217.5C801.63 224.681 803.297 232.014 804 239.5C801.895 236.936 800.062 234.269 798.5 231.5C798.472 234.997 798.306 238.664 798 242.5C796.438 239.28 794.604 236.28 792.5 233.5C792.177 236.705 792.177 240.038 792.5 243.5C791.5 243.5 790.5 243.5 789.5 243.5C789.401 240.395 788.401 237.728 786.5 235.5C785.833 238.5 785.167 241.5 784.5 244.5C781.758 233.725 779.758 222.725 778.5 211.5C779.873 211.343 781.207 211.51 782.5 212C785.558 219.311 788.224 219.145 790.5 211.5C791.949 210.828 793.282 210.161 794.5 209.5Z" fill="#ededed" fill-rule="evenodd" opacity="1" stroke="none" />
<path d="M706.5 199.5C707.725 200.152 708.392 201.319 708.5 203C708.274 206.012 707.441 208.845 706 211.5C706.158 207.541 706.325 203.541 706.5 199.5Z" fill="#c2c2c2" fill-rule="evenodd" opacity="1" stroke="none" />
<path d="M710.5 233.5C710.5 234.167 710.5 234.833 710.5 235.5C709.253 238.04 708.253 240.706 707.5 243.5C706.833 240.833 706.167 238.167 705.5 235.5C703.825 238.245 702.158 240.912 700.5 243.5C699.679 240.553 699.179 237.553 699 234.5C697.5 236.833 696 239.167 694.5 241.5C694.287 238.518 693.953 235.518 693.5 232.5C691.768 234.283 690.268 236.283 689 238.5C690.559 228.148 693.559 218.148 698 208.5C699.356 209.38 700.856 209.714 702.5 209.5C702.125 212.397 702.625 215.063 704 217.5C706.382 215.741 708.548 213.741 710.5 211.5C711.672 211.919 712.672 212.585 713.5 213.5C711.417 219.997 710.417 226.664 710.5 233.5Z" fill="#edeeee" fill-rule="evenodd" opacity="1" stroke="none" />
<path d="M713.5 199.5C714.167 201.167 714.833 202.833 715.5 204.5C715.229 206.312 714.562 207.978 713.5 209.5C713.167 209.167 712.833 208.833 712.5 208.5C713.407 205.579 713.74 202.579 713.5 199.5Z" fill="#8e8f8f" fill-rule="evenodd" opacity="1" stroke="none" />
<path d="M791.5 202.5C792.151 203.091 792.818 203.757 793.5 204.5C794.298 204.043 794.631 203.376 794.5 202.5C795.404 203.209 795.737 204.209 795.5 205.5C794.5 205.5 793.5 205.5 792.5 205.5C792.649 206.552 792.483 207.552 792 208.5C791.505 206.527 791.338 204.527 791.5 202.5Z" fill="#666866" fill-rule="evenodd" opacity="1" stroke="none" />
<path d="M702.5 195.5C703.097 195.735 703.43 196.235 703.5 197C702.299 199.903 700.965 202.736 699.5 205.5C699.167 205 698.833 204.5 698.5 204C699.711 201.08 701.044 198.247 702.5 195.5Z" fill="#bbbbbb" fill-rule="evenodd" opacity="1" stroke="none" />
<path d="M786.5 202.5C786.665 205.518 786.498 208.518 786 211.5C785.392 209.846 784.892 208.179 784.5 206.5C784.336 203.813 784.503 201.146 785 198.5C786.188 199.563 786.688 200.897 786.5 202.5Z" fill="#dadada" fill-rule="evenodd" opacity="1" stroke="none" />
<path d="M788.5 196.5C790.047 197.768 791.047 199.435 791.5 201.5C790.833 202.5 790.167 203.5 789.5 204.5C789.852 201.927 789.352 199.594 788 197.5C787.506 199.134 787.34 200.801 787.5 202.5C787.167 202.5 786.833 202.5 786.5 202.5C786.688 200.897 786.188 199.563 785 198.5C784.503 201.146 784.336 203.813 784.5 206.5C783.5 206.5 782.5 206.5 781.5 206.5C781.26 203.421 781.593 200.421 782.5 197.5C784.396 196.534 786.396 196.201 788.5 196.5Z" fill="#656565" fill-rule="evenodd" opacity="1" stroke="none" />
<path d="M709.5 197.5C710.117 197.611 710.617 197.944 711 198.5C711.667 200.833 711.667 203.167 711 205.5C709.625 203.063 709.125 200.397 709.5 197.5Z" fill="#c4c3c3" fill-rule="evenodd" opacity="1" stroke="none" />
<path d="M794.5 202.5C794.631 203.376 794.298 204.043 793.5 204.5C792.818 203.757 792.151 203.091 791.5 202.5C791.5 202.167 791.5 201.833 791.5 201.5C791.047 199.435 790.047 197.768 788.5 196.5C788.517 194.972 789.184 194.472 790.5 195C791.986 197.475 793.319 199.975 794.5 202.5Z" fill="#dbdddc" fill-rule="evenodd" opacity="1" stroke="none" />
<path d="M704.5 197.5C705.595 200.717 705.429 204.05 704 207.5C703.341 204.112 703.508 200.779 704.5 197.5Z" fill="#b3b4b4" fill-rule="evenodd" opacity="1" stroke="none" />
<path d="M789.5 204.5C789.649 205.552 789.483 206.552 789 207.5C787.731 206.095 787.231 204.429 787.5 202.5C787.34 200.801 787.506 199.134 788 197.5C789.352 199.594 789.852 201.927 789.5 204.5Z" fill="#d9d9d9" fill-rule="evenodd" opacity="1" stroke="none" />
<path d="M770.5 235.5C770.918 234.778 771.584 234.278 772.5 234C768.508 233.285 764.675 233.785 761 235.5C754.467 234.642 748.301 235.642 742.5 238.5C741.452 240.613 739.952 242.28 738 243.5C737.228 243.355 736.561 243.022 736 242.5C735.618 237.975 733.118 236.309 728.5 237.5C728.617 239.484 727.95 241.15 726.5 242.5C724.022 241.278 723.022 239.278 723.5 236.5C721.435 236.483 719.435 236.15 717.5 235.5C715.469 235.028 713.802 234.028 712.5 232.5C715.147 222.283 716.48 211.949 716.5 201.5C715.614 202.325 715.281 203.325 715.5 204.5C714.833 202.833 714.167 201.167 713.5 199.5C709.813 188.776 713.48 181.442 724.5 177.5C725.314 179.766 725.814 182.1 726 184.5C728.761 185.499 730.094 187.499 730 190.5C731.11 192.037 732.61 192.703 734.5 192.5C733.68 196.145 735.013 198.478 738.5 199.5C739.308 201.423 739.808 203.423 740 205.5C741.158 205.998 741.991 206.831 742.5 208C741.174 211.899 742.507 214.732 746.5 216.5C749.933 214.154 751.433 210.821 751 206.5C751.733 202.955 753.4 199.955 756 197.5C756.494 195.866 756.66 194.199 756.5 192.5C761.031 193.114 763.197 191.114 763 186.5C766.29 184.501 767.79 181.501 767.5 177.5C779.784 180.075 783.617 187.075 779 198.5C778.248 201.894 778.415 205.227 779.5 208.5C779.167 208.833 778.833 209.167 778.5 209.5C777.5 206.833 776.5 204.167 775.5 201.5C775.167 202.667 774.833 203.833 774.5 205C775.671 213.527 777.005 222.027 778.5 230.5C778.167 231.833 777.833 233.167 777.5 234.5C775.253 235.374 772.92 235.708 770.5 235.5Z" fill="#f5f5f5" fill-rule="evenodd" opacity="1" stroke="none" />
<path d="M745.5 207.5C747.293 207.884 748.293 209.05 748.5 211C747.167 214.333 745.833 214.333 744.5 211C744.989 209.862 745.322 208.695 745.5 207.5Z" fill="#d1d1d0" fill-rule="evenodd" opacity="1" stroke="none" />
<path d="M706.5 188.5C711.34 189.188 711.673 190.855 707.5 193.5C705.296 192.218 704.962 190.551 706.5 188.5Z" fill="#c3c4c3" fill-rule="evenodd" opacity="1" stroke="none" />
<path d="M783.5 188.5C784.833 188.5 786.167 188.5 787.5 188.5C787.5 189.833 787.5 191.167 787.5 192.5C784.5 192.833 783.167 191.5 783.5 188.5Z" fill="#dee0df" fill-rule="evenodd" opacity="1" stroke="none" />
<path d="M760.5 175.5C764.909 174.899 766.242 176.566 764.5 180.5C763.722 182.147 762.556 183.48 761 184.5C760.798 186.256 760.298 187.922 759.5 189.5C757.618 190.093 755.785 190.76 754 191.5C753.667 193.167 753.333 194.833 753 196.5C750.858 198.618 749.358 201.118 748.5 204C744.188 205.544 742.022 204.044 742 199.5C740.89 197.757 739.39 196.424 737.5 195.5C739.043 191.071 737.376 189.404 732.5 190.5C730.498 186.104 729.164 181.437 728.5 176.5C729.5 176.5 730.5 176.5 731.5 176.5C732.335 182.542 735.669 186.209 741.5 187.5C743.976 200.303 747.142 200.636 751 188.5C757.09 186.251 760.257 181.917 760.5 175.5Z" fill="#e5e6e6" fill-rule="evenodd" opacity="1" stroke="none" />
<path d="M786.5 180.5C787.782 181.708 787.782 183.042 786.5 184.5C785.374 183.192 785.374 181.858 786.5 180.5Z" fill="#bfc0bf" fill-rule="evenodd" opacity="1" stroke="none" />
<path d="M705.5 180.5C707.344 181.204 707.844 182.537 707 184.5C705.812 183.437 705.312 182.103 705.5 180.5Z" fill="#c9c9c7" fill-rule="evenodd" opacity="1" stroke="none" />
<path d="M781.5 179.5C783.273 180.314 783.773 181.648 783 183.5C782.209 182.255 781.709 180.922 781.5 179.5Z" fill="#999999" fill-rule="evenodd" opacity="1" stroke="none" />
<path d="M711.5 178.5C712.844 180.185 712.677 181.852 711 183.5C710.36 181.735 710.527 180.068 711.5 178.5Z" fill="#bcbebe" fill-rule="evenodd" opacity="1" stroke="none" />
<path d="M735.5 177.5C742.856 178.31 750.19 178.643 757.5 178.5C755.947 182.363 753.114 184.697 749 185.5C747.242 194.632 745.242 194.632 743 185.5C738.24 184.884 735.74 182.218 735.5 177.5Z" fill="#eaeaea" fill-rule="evenodd" opacity="1" stroke="none" />
<path d="M786.5 169.5C787.874 171.517 787.707 173.517 786 175.5C785.322 173.402 785.489 171.402 786.5 169.5Z" fill="#e0e1e1" fill-rule="evenodd" opacity="1" stroke="none" />
<path d="M776.5 166.5C779.435 170.16 779.769 174.16 777.5 178.5C774.285 176.726 770.952 175.226 767.5 174C770.94 171.958 773.94 169.458 776.5 166.5Z" fill="#e8e8e8" fill-rule="evenodd" opacity="1" stroke="none" />
<path d="M711.5 168.5C712.874 170.517 712.707 172.517 711 174.5C710.322 172.402 710.489 170.402 711.5 168.5Z" fill="#d8d9da" fill-rule="evenodd" opacity="1" stroke="none" />
<path d="M705.5 169.5C706.496 169.414 707.329 169.748 708 170.5C708.798 172.259 708.631 173.926 707.5 175.5C705.914 173.827 705.247 171.827 705.5 169.5Z" fill="#c8c8c8" fill-rule="evenodd" opacity="1" stroke="none" />
<path d="M781.5 169.5C783.377 170.659 783.877 172.326 783 174.5C781.731 173.095 781.231 171.429 781.5 169.5Z" fill="#c8cbcb" fill-rule="evenodd" opacity="1" stroke="none" />
<path d="M715.5 167.5C718.634 169.905 721.968 172.072 725.5 174C722.221 174.973 719.221 176.473 716.5 178.5C715.511 174.893 715.177 171.226 715.5 167.5Z" fill="#e8e8e8" fill-rule="evenodd" opacity="1" stroke="none" />
<path d="M786.5 157.5C787.811 159.56 787.811 161.726 786.5 164C783.828 164.485 782.495 163.318 782.5 160.5C784.973 160.912 786.306 159.912 786.5 157.5Z" fill="#adaeae" fill-rule="evenodd" opacity="1" stroke="none" />
<path d="M706.5 157.5C710.001 159.347 710.335 161.68 707.5 164.5C705.239 162.516 704.906 160.183 706.5 157.5Z" fill="#d1d2d1" fill-rule="evenodd" opacity="1" stroke="none" />
<path d="M790.5 132.5C795.349 132.349 798.016 134.683 798.5 139.5C797.908 146.422 794.241 150.422 787.5 151.5C787.838 149.146 788.338 146.813 789 144.5C789.741 143.359 790.575 143.359 791.5 144.5C792.119 141.968 793.119 139.635 794.5 137.5C792.741 136.246 791.241 136.579 790 138.5C789.322 136.402 789.489 134.402 790.5 132.5Z" fill="#e2e2e2" fill-rule="evenodd" opacity="1" stroke="none" />
<path d="M698.5 132.5C699.833 132.5 701.167 132.5 702.5 132.5C702.66 134.199 702.494 135.866 702 137.5C700.703 136.216 699.536 136.383 698.5 138C700.229 139.789 700.896 141.956 700.5 144.5C704.311 145.454 705.311 147.787 703.5 151.5C694.222 147.017 692.555 140.683 698.5 132.5Z" fill="#e2e2e3" fill-rule="evenodd" opacity="1" stroke="none" />
<path d="M703.5 124.5C705.646 124.696 705.812 125.696 704 127.5C703.517 126.552 703.351 125.552 703.5 124.5Z" fill="#8c8e8f" fill-rule="evenodd" opacity="1" stroke="none" />
<path d="M711.5 110.5C713.355 110.272 714.188 110.939 714 112.5C709.678 116.988 705.178 121.321 700.5 125.5C699.343 122.216 699.176 118.882 700 115.5C703.86 113.648 707.693 111.981 711.5 110.5Z" fill="#dfdfdf" fill-rule="evenodd" opacity="1" stroke="none" />
<path d="M777.5 111.5C782.817 111.197 787.983 112.531 793 115.5C793.667 119.5 793.667 123.5 793 127.5C787.603 122.271 782.436 116.938 777.5 111.5Z" fill="#ebebec" fill-rule="evenodd" opacity="1" stroke="none" />
<path d="M725.5 107.5C726.675 107.281 727.675 107.614 728.5 108.5C724.886 112.307 720.553 114.474 715.5 115C717.405 113.185 719.072 111.185 720.5 109C722.382 108.802 724.048 108.302 725.5 107.5Z" fill="#d5d6d6" fill-rule="evenodd" opacity="1" stroke="none" />
<path d="M743.5 106.5C745.199 106.34 746.866 106.506 748.5 107C751.297 110.23 754.63 112.73 758.5 114.5C759.521 113.998 759.688 113.332 759 112.5C756.692 111.359 754.859 109.692 753.5 107.5C754.167 107.167 754.833 106.833 755.5 106.5C761.185 107.407 766.852 108.407 772.5 109.5C775.113 114.606 778.613 118.94 783 122.5C791.654 150.216 781.821 167.716 753.5 175C736.917 177.14 723.084 171.973 712 159.5C704.682 147.7 703.682 135.366 709 122.5C709.903 121.299 711.069 120.465 712.5 120C722.612 117.518 732.278 113.851 741.5 109C742.381 108.292 743.047 107.458 743.5 106.5Z" fill="#f4f4f4" fill-rule="evenodd" opacity="1" stroke="none" />
<path d="M756.5 154.5C758.085 155.002 758.585 156.002 758 157.5C752.731 162.245 746.564 163.745 739.5 162C736.424 161.089 734.091 159.256 732.5 156.5C733 156.167 733.5 155.833 734 155.5C741.926 162.385 749.426 162.051 756.5 154.5Z" fill="#131313" fill-rule="evenodd" opacity="1" stroke="none" />
<path d="M741.5 145.5C744.136 146.824 746.802 146.824 749.5 145.5C750.731 146.651 750.731 147.817 749.5 149C746.032 150.081 743.032 149.415 740.5 147C741.056 146.617 741.389 146.117 741.5 145.5Z" fill="#181918" fill-rule="evenodd" opacity="1" stroke="none" />
<path d="M725.5 130.5C728.238 129.965 730.072 130.965 731 133.5C731.782 136.257 731.282 138.757 729.5 141C726.783 142.033 724.949 141.2 724 138.5C723.288 135.562 723.788 132.896 725.5 130.5Z" fill="#1b1b1b" fill-rule="evenodd" opacity="1" stroke="none" />
<path d="M762.5 130.5C767.989 130.504 769.822 133.171 768 138.5C765.667 142.5 763.333 142.5 761 138.5C760.282 135.593 760.782 132.926 762.5 130.5Z" fill="#1e1d1d" fill-rule="evenodd" opacity="1" stroke="none" />
<path d="M723.5 118.5C725.527 118.338 727.527 118.505 729.5 119C729.957 119.414 730.291 119.914 730.5 120.5C727.843 121.259 725.177 121.926 722.5 122.5C722.167 122.167 721.833 121.833 721.5 121.5C722.193 120.482 722.859 119.482 723.5 118.5Z" fill="#212221" fill-rule="evenodd" opacity="1" stroke="none" />
<path d="M762.5 118.5C765.798 118.016 768.464 119.016 770.5 121.5C770 121.833 769.5 122.167 769 122.5C766.459 121.993 763.959 121.326 761.5 120.5C761.863 119.817 762.196 119.15 762.5 118.5Z" fill="#1e1e1e" fill-rule="evenodd" opacity="1" stroke="none" />
<path d="M757.5 104.5C753.347 103.834 749.013 103.501 744.5 103.5C737.602 103.346 730.936 104.013 724.5 105.5C716.124 106.261 708.124 108.261 700.5 111.5C700.915 107.167 702.248 103.167 704.5 99.5C712.405 95.6067 720.738 93.1067 729.5 92C750.112 89.6382 770.112 91.9715 789.5 99C791.985 102.929 792.651 107.096 791.5 111.5C780.609 107.133 769.276 104.8 757.5 104.5Z" fill="#f1f1f1" fill-rule="evenodd" opacity="1" stroke="none" />
<path d="M757.5 104.5C746.482 104.381 735.482 104.714 724.5 105.5C730.936 104.013 737.602 103.346 744.5 103.5C749.013 103.501 753.347 103.834 757.5 104.5Z" fill="#353735" fill-rule="evenodd" opacity="1" stroke="none" />
<path d="M798.5 71.5C800.288 71.2148 801.955 71.5481 803.5 72.5C798.463 78.5377 792.797 83.8711 786.5 88.5C786.167 87.8333 785.833 87.1667 785.5 86.5C786.719 82.3953 788.219 78.3953 790 74.5C793.025 73.8064 795.858 72.8064 798.5 71.5Z" fill="#e8e8e8" fill-rule="evenodd" opacity="1" stroke="none" />
<path d="M734.5 73.5C746.176 72.543 757.509 74.043 768.5 78C775.793 81.9637 781.793 87.297 786.5 94C767.937 88.79 748.937 87.1233 729.5 89C722.377 90.364 715.377 92.1973 708.5 94.5C707.592 93.21 707.759 91.8767 709 90.5C715.828 82.1801 724.328 76.5134 734.5 73.5Z" fill="#f1f1f1" fill-rule="evenodd" opacity="1" stroke="none" />
<path d="M809.5 24.5C813.352 24.4887 815.185 26.4887 815 30.5C815.667 35.8333 815.667 41.1667 815 46.5C812.417 47.8742 809.917 49.3742 807.5 51C809.797 51.0178 812.131 50.8511 814.5 50.5C813.221 57.2243 810.221 63.0576 805.5 68C800.951 70.2569 796.285 71.0902 791.5 70.5C795.897 62.062 799.397 53.3953 802 44.5C794.504 56.4923 788.337 69.1589 783.5 82.5C782.132 83.5937 780.965 83.2603 780 81.5C779.081 75.0341 779.581 68.7007 781.5 62.5C782.624 63.914 783.624 65.414 784.5 67C785.483 67.5908 786.15 67.2575 786.5 66C782.073 56.5778 783.906 48.4112 792 41.5C793.147 44.6177 794.48 47.6177 796 50.5C796.174 46.0708 795.841 41.7375 795 37.5C799.406 32.5886 804.24 28.2552 809.5 24.5Z" fill="#eeeeee" fill-rule="evenodd" opacity="1" stroke="none" />
<path d="M715.5 248.5C716.995 248.415 717.995 249.081 718.5 250.5C717.253 252.323 716.586 254.323 716.5 256.5C721.752 256.469 726.918 257.136 732 258.5C734.188 258.646 735.521 257.646 736 255.5C737.845 259.795 740.512 260.462 744 257.5C745 250.833 746 250.833 747 257.5C749.333 260.167 751.667 260.167 754 257.5C758.099 260.723 760.433 259.723 761 254.5C763.135 259.325 765.801 259.659 769 255.5C772.445 258.556 774.778 257.89 776 253.5C777.264 255.607 779.097 256.607 781.5 256.5C782.617 271.035 783.95 285.535 785.5 300C784.99 301.826 784.156 301.993 783 300.5C782.624 297.99 781.79 295.657 780.5 293.5C779.833 296.5 779.167 299.5 778.5 302.5C778.167 302.333 777.833 302.167 777.5 302C776.565 299.619 776.232 297.119 776.5 294.5C775.5 294.5 774.5 294.5 773.5 294.5C773.664 297.187 773.497 299.854 773 302.5C771.333 305.167 769.667 305.167 768 302.5C767.667 300.5 767.333 298.5 767 296.5C766.586 296.043 766.086 295.709 765.5 295.5C764.516 298.428 764.183 301.428 764.5 304.5C763.5 304.5 762.5 304.5 761.5 304.5C761.664 301.813 761.497 299.146 761 296.5C760.586 296.043 760.086 295.709 759.5 295.5C757.372 307.241 756.038 307.241 755.5 295.5C754.5 295.5 753.5 295.5 752.5 295.5C752.5 298.167 752.5 300.833 752.5 303.5C751.325 303.719 750.325 303.386 749.5 302.5C750.697 292.16 750.363 281.826 748.5 271.5C748.365 269.192 749.031 267.192 750.5 265.5C747.453 265.711 744.286 265.378 741 264.5C739.355 266.735 740.188 267.735 743.5 267.5C743.428 279.533 742.761 291.533 741.5 303.5C740.833 300.5 740.167 297.5 739.5 294.5C738.914 294.709 738.414 295.043 738 295.5C736.781 307.457 735.281 307.457 733.5 295.5C732.914 295.709 732.414 296.043 732 296.5C731.503 299.146 731.336 301.813 731.5 304.5C730.5 304.5 729.5 304.5 728.5 304.5C728.813 301.753 728.48 299.086 727.5 296.5C725.829 298.51 725.162 300.843 725.5 303.5C724.5 303.5 723.5 303.5 722.5 303.5C722.663 301.143 722.497 298.81 722 296.5C721.262 299.47 720.096 302.136 718.5 304.5C717.833 301.167 717.167 297.833 716.5 294.5C714.02 305.105 712.353 304.772 711.5 293.5C711.062 296.556 709.895 299.223 708 301.5C709.071 286.228 709.904 270.894 710.5 255.5C714.8 255.185 716.467 252.851 715.5 248.5Z" fill="#f2f2f2" fill-rule="evenodd" opacity="1" stroke="none" />
<path d="M747.5 285.5C746.833 284.833 746.167 284.167 745.5 283.5C745.343 282.127 745.51 280.793 746 279.5C747.128 281.345 747.628 283.345 747.5 285.5Z" fill="#7b7c7d" fill-rule="evenodd" opacity="1" stroke="none" />
<path d="M769.5 296.5C770.586 296.62 771.253 297.287 771.5 298.5C771.167 299.167 770.833 299.833 770.5 300.5C769.571 299.311 769.238 297.978 769.5 296.5Z" fill="#626061" fill-rule="evenodd" opacity="1" stroke="none" />
<path d="M710.5 306.5C719.222 307.65 728.389 307.65 738 306.5C738.667 309.5 738.667 312.5 738 315.5C736.509 317.004 734.676 317.837 732.5 318C723.591 320.041 714.591 320.708 705.5 320C698.853 315.537 699.353 311.704 707 308.5C709.749 308.974 712.249 309.974 714.5 311.5C715.5 311.167 716.167 310.5 716.5 309.5C714.757 307.962 712.757 306.962 710.5 306.5Z" fill="#efefef" fill-rule="evenodd" opacity="1" stroke="none" />
<path d="M766.5 305.5C771.783 305.701 777.116 306.034 782.5 306.5C779.694 307.105 777.36 308.438 775.5 310.5C776 310.833 776.5 311.167 777 311.5C782.09 307.208 786.756 307.541 791 312.5C792.279 317.227 790.445 319.727 785.5 320C775.291 321.07 765.291 320.07 755.5 317C754.549 313.943 754.216 310.777 754.5 307.5C757.384 306.617 760.217 306.617 763 307.5C764.699 307.613 765.866 306.947 766.5 305.5Z" fill="#eeefef" fill-rule="evenodd" opacity="1" stroke="none" />
</g>

</svg>