<?xml version="1.0" encoding="UTF-8" standalone="no"?>
<svg xmlns="http://www.w3.org/2000/svg" fill-rule="nonzero" clip-rule="evenodd" stroke-miterlimit="10" style="fill-rule:nonzero;clip-rule:evenodd;stroke-linecap:round;stroke-linejoin:round;"
     viewBox="772.1 247.7 216.4 186.6" xml:space="preserve">
<g opacity="1">
<path d="M939.5 378.5C940.234 377.292 940.567 375.959 940.5 374.5C942.256 380.926 943.422 387.592 944 394.5C944.516 397.034 945.683 399.2 947.5 401C956.204 401.381 964.538 399.715 972.5 396C973.653 378.74 971.153 361.906 965 345.5C958.192 326.222 949.025 308.222 937.5 291.5C937.167 291.833 936.833 292.167 936.5 292.5C933.09 300.23 930.59 308.23 929 316.5C929.273 307.407 931.44 298.741 935.5 290.5C929.992 284.913 923.325 281.746 915.5 281C911.167 289.333 904.833 295.667 896.5 300C893.15 299.508 889.817 298.675 886.5 297.5C886.5 301.5 886.5 305.5 886.5 309.5C885.21 308.942 884.377 307.942 884 306.5C883.517 307.448 883.351 308.448 883.5 309.5C882.539 307.735 882.205 305.735 882.5 303.5C881.5 303.5 880.5 303.5 879.5 303.5C879.795 305.735 879.461 307.735 878.5 309.5C876.226 305.709 875.893 301.709 877.5 297.5C878.404 298.209 878.737 299.209 878.5 300.5C880.144 300.714 881.644 300.38 883 299.5C884 296.167 885 292.833 886 289.5C889.736 285.687 893.236 281.687 896.5 277.5C895.975 276.808 895.308 276.308 894.5 276C884.483 275.168 874.483 275.334 864.5 276.5C868.19 281.185 871.857 285.852 875.5 290.5C874.508 290.328 873.842 290.662 873.5 291.5C865.55 283.999 859.55 275.499 855.5 266C851.793 269.91 849.626 274.41 849 279.5C852.028 285.534 856.195 290.701 861.5 295C863.345 296.128 865.345 296.628 867.5 296.5C866.306 297.272 865.306 298.272 864.5 299.5C856.136 294.802 849.803 288.135 845.5 279.5C838.188 282.153 831.521 285.82 825.5 290.5C830.209 299.006 832.542 308.006 832.5 317.5C831.2 308.287 828.366 299.62 824 291.5C803.936 321.022 791.77 353.522 787.5 389C787.667 390.833 787.833 392.667 788 394.5C788.388 395.428 789.055 396.095 790 396.5C797.542 399.675 805.375 401.175 813.5 401C815.049 399.786 816.215 398.286 817 396.5C818.529 386.97 820.362 377.636 822.5 368.5C822.216 370.415 822.549 372.081 823.5 373.5C822.66 380.877 821.494 388.21 820 395.5C819.347 398.807 817.681 401.473 815 403.5C814.145 407.29 812.978 410.956 811.5 414.5C802.479 415.471 793.813 413.971 785.5 410C784.622 406 784.955 402 786.5 398C784.619 392.975 784.119 387.808 785 382.5C790.132 351.769 800.799 323.102 817 296.5C819.139 293.061 821.639 289.894 824.5 287C830.958 282.456 837.958 278.956 845.5 276.5C847.923 270.254 851.923 265.421 857.5 262C873.921 259.691 890.255 260.024 906.5 263C910.57 267.138 913.903 271.805 916.5 277C925.143 279.737 932.976 283.904 940 289.5C960.48 319.604 972.646 352.771 976.5 389C975.665 395.821 975.498 402.654 976 409.5C967.877 413.124 959.377 414.958 950.5 415C949.118 411.979 948.118 408.813 947.5 405.5C945.839 403.665 944.339 401.665 943 399.5C940.863 392.651 939.697 385.651 939.5 378.5Z" fill="#191919" fill-rule="evenodd" opacity="1" stroke="none"/>
<path d="M861.5 263.5C874.171 263.333 886.838 263.5 899.5 264C901.827 266.833 901.827 269.833 899.5 273C887.167 273.667 874.833 273.667 862.5 273C859.755 269.773 859.421 266.607 861.5 263.5Z" fill="#eaebeb" fill-rule="evenodd" opacity="1" stroke="none"/>
<path d="M873.5 291.5C872.801 294.541 870.801 296.208 867.5 296.5C865.345 296.628 863.345 296.128 861.5 295C856.195 290.701 852.028 285.534 849 279.5C849.626 274.41 851.793 269.91 855.5 266C859.55 275.499 865.55 283.999 873.5 291.5Z" fill="#f1f1f1" fill-rule="evenodd" opacity="1" stroke="none"/>
<path d="M904.5 265.5C908.452 268.716 911.452 272.716 913.5 277.5C910.864 284.927 906.198 290.76 899.5 295C895.164 297.222 891.164 296.722 887.5 293.5C891.094 287.737 895.261 282.404 900 277.5C902.354 273.797 903.854 269.797 904.5 265.5Z" fill="#f0f0f0" fill-rule="evenodd" opacity="1" stroke="none"/>
<path d="M877.5 297.5C877.829 294.772 877.163 292.438 875.5 290.5C871.857 285.852 868.19 281.185 864.5 276.5C874.483 275.334 884.483 275.168 894.5 276C895.308 276.308 895.975 276.808 896.5 277.5C893.236 281.687 889.736 285.687 886 289.5C885 292.833 884 296.167 883 299.5C881.644 300.38 880.144 300.714 878.5 300.5C878.737 299.209 878.404 298.209 877.5 297.5Z" fill="#ececec" fill-rule="evenodd" opacity="1" stroke="none"/>
<path d="M864.5 299.5C867.973 299.424 871.306 298.758 874.5 297.5C874.5 334.167 874.5 370.833 874.5 407.5C861.376 407.654 848.376 406.488 835.5 404C834.333 402.833 833.167 401.667 832 400.5C829.78 375.432 830.613 350.432 834.5 325.5C833.5 325.5 832.5 325.5 831.5 325.5C830.704 333.83 829.871 342.163 829 350.5C825.967 356.223 823.801 362.223 822.5 368.5C820.362 377.636 818.529 386.97 817 396.5C816.215 398.286 815.049 399.786 813.5 401C805.375 401.175 797.542 399.675 790 396.5C789.055 396.095 788.388 395.428 788 394.5C787.833 392.667 787.667 390.833 787.5 389C791.77 353.522 803.936 321.022 824 291.5C828.366 299.62 831.2 308.287 832.5 317.5C832.542 308.006 830.209 299.006 825.5 290.5C831.521 285.82 838.188 282.153 845.5 279.5C849.803 288.135 856.136 294.802 864.5 299.5Z" fill="#f6f6f6" fill-rule="evenodd" opacity="1" stroke="none"/>
<path d="M940.5 374.5C939.175 365.841 936.675 357.507 933 349.5C931.803 341.863 930.803 334.197 930 326.5C928.513 325.259 927.68 325.759 927.5 328C929.91 342.897 930.91 357.897 930.5 373C930.627 382.57 930.127 392.07 929 401.5C928.167 402.333 927.333 403.167 926.5 404C913.288 406.555 899.954 407.721 886.5 407.5C886.5 374.833 886.5 342.167 886.5 309.5C886.5 305.5 886.5 301.5 886.5 297.5C889.817 298.675 893.15 299.508 896.5 300C904.833 295.667 911.167 289.333 915.5 281C923.325 281.746 929.992 284.913 935.5 290.5C931.44 298.741 929.273 307.407 929 316.5C930.59 308.23 933.09 300.23 936.5 292.5C936.833 292.167 937.167 291.833 937.5 291.5C949.025 308.222 958.192 326.222 965 345.5C971.153 361.906 973.653 378.74 972.5 396C964.538 399.715 956.204 401.381 947.5 401C945.683 399.2 944.516 397.034 944 394.5C943.422 387.592 942.256 380.926 940.5 374.5Z" fill="#f6f6f6" fill-rule="evenodd" opacity="1" stroke="none"/>
<path d="M883.5 309.5C883.5 311.167 883.5 312.833 883.5 314.5C881.833 314.5 880.167 314.5 878.5 314.5C878.5 312.833 878.5 311.167 878.5 309.5C879.461 307.735 879.795 305.735 879.5 303.5C880.5 303.5 881.5 303.5 882.5 303.5C882.205 305.735 882.539 307.735 883.5 309.5Z" fill="#e0e1e1" fill-rule="evenodd" opacity="1" stroke="none"/>
<path d="M788.5 399.5C795.97 401.951 803.637 403.284 811.5 403.5C811.38 406.48 810.713 409.313 809.5 412C801.94 412.379 794.774 410.879 788 407.5C787.825 404.843 787.992 402.176 788.5 399.5Z" fill="#eeefee" fill-rule="evenodd" opacity="1" stroke="none"/>
<path d="M970.5 399.5C971.5 399.5 972.5 399.5 973.5 399.5C974.291 402.417 974.291 405.25 973.5 408C966.351 410.454 959.017 411.954 951.5 412.5C951.037 409.518 950.704 406.518 950.5 403.5C957.464 403.087 964.13 401.754 970.5 399.5Z" fill="#efeff0" fill-rule="evenodd" opacity="1" stroke="none"/>
<path d="M875.5 290.5C877.163 292.438 877.829 294.772 877.5 297.5C875.893 301.709 876.226 305.709 878.5 309.5C878.5 311.167 878.5 312.833 878.5 314.5C880.167 314.5 881.833 314.5 883.5 314.5C883.5 312.833 883.5 311.167 883.5 309.5C883.351 308.448 883.517 307.448 884 306.5C884.377 307.942 885.21 308.942 886.5 309.5C886.5 342.167 886.5 374.833 886.5 407.5C899.954 407.721 913.288 406.555 926.5 404C927.333 403.167 928.167 402.333 929 401.5C930.127 392.07 930.627 382.57 930.5 373C930.91 357.897 929.91 342.897 927.5 328C927.68 325.759 928.513 325.259 930 326.5C930.803 334.197 931.803 341.863 933 349.5C936.675 357.507 939.175 365.841 940.5 374.5C940.567 375.959 940.234 377.292 939.5 378.5C937.996 372.503 936.162 366.503 934 360.5C933.667 373.5 933.333 386.5 933 399.5C930.003 404.334 928.67 409.667 929 415.5C928.5 416 928 416.5 927.5 417C917.641 419.253 907.641 420.586 897.5 421C877.035 422.339 856.702 421.339 836.5 418C835.069 417.535 833.903 416.701 833 415.5C832.667 411.833 832.333 408.167 832 404.5C829.913 402.255 828.579 399.588 828 396.5C827.419 384.46 827.419 372.46 828 360.5C826.027 364.753 824.527 369.087 823.5 373.5C822.549 372.081 822.216 370.415 822.5 368.5C823.801 362.223 825.967 356.223 829 350.5C829.871 342.163 830.704 333.83 831.5 325.5C832.5 325.5 833.5 325.5 834.5 325.5C830.613 350.432 829.78 375.432 832 400.5C833.167 401.667 834.333 402.833 835.5 404C848.376 406.488 861.376 407.654 874.5 407.5C874.5 370.833 874.5 334.167 874.5 297.5C871.306 298.758 867.973 299.424 864.5 299.5C865.306 298.272 866.306 297.272 867.5 296.5C870.801 296.208 872.801 294.541 873.5 291.5C873.842 290.662 874.508 290.328 875.5 290.5Z" fill="#1e1e1e" fill-rule="evenodd" opacity="1" stroke="none"/>
<path d="M923.5 406.5C924.5 406.5 925.5 406.5 926.5 406.5C926.777 409.448 926.444 412.281 925.5 415C912.614 417.45 899.614 418.617 886.5 418.5C886.5 415.833 886.5 413.167 886.5 410.5C899.144 410.761 911.478 409.428 923.5 406.5Z" fill="#efefef" fill-rule="evenodd" opacity="1" stroke="none"/>
<path d="M834.5 406.5C847.672 409.154 861.006 410.487 874.5 410.5C874.5 413.167 874.5 415.833 874.5 418.5C861.69 418.836 849.023 417.669 836.5 415C834.686 412.519 834.02 409.685 834.5 406.5Z" fill="#eeeeee" fill-rule="evenodd" opacity="1" stroke="none"/>
<path d="M910.5 360.5C911.822 360.33 912.989 360.663 914 361.5C918.442 370.05 922.609 378.717 926.5 387.5C925.183 390.701 923.016 391.701 920 390.5C915.029 382.225 910.862 373.558 907.5 364.5C907.787 362.557 908.787 361.223 910.5 360.5Z" fill="#1a1a1b" fill-rule="evenodd" opacity="1" stroke="none"/>
<path d="M848.5 360.5C851.168 360.834 853.168 362.167 854.5 364.5C850.686 374.133 845.853 383.133 840 391.5C837.525 391.016 835.692 389.683 834.5 387.5C838.924 378.316 843.591 369.316 848.5 360.5Z" fill="#1f1e1f" fill-rule="evenodd" opacity="1" stroke="none"/>
<path d="M911.5 362.5C916.584 370.331 920.918 378.665 924.5 387.5C923.758 388.287 922.925 388.953 922 389.5C917.119 381.574 912.619 373.408 908.5 365C909.571 364.148 910.571 363.315 911.5 362.5Z" fill="#e8e8e9" fill-rule="evenodd" opacity="1" stroke="none"/>
<path d="M848.5 363.5C849.833 363.5 851.167 363.5 852.5 363.5C849.221 372.726 844.887 381.392 839.5 389.5C838.328 389.081 837.328 388.415 836.5 387.5C840.998 379.692 844.998 371.692 848.5 363.5Z" fill="#e8e8e8" fill-rule="evenodd" opacity="1" stroke="none"/>
<path d="M877.5 316.5C879.5 316.5 881.5 316.5 883.5 316.5C883.5 346.833 883.5 377.167 883.5 407.5C881.5 407.5 879.5 407.5 877.5 407.5C877.5 377.167 877.5 346.833 877.5 316.5Z" fill="#e8e7e8" fill-rule="evenodd" opacity="1" stroke="none"/>
<path d="M877.5 410.5C879.5 410.5 881.5 410.5 883.5 410.5C883.5 413.167 883.5 415.833 883.5 418.5C881.5 418.5 879.5 418.5 877.5 418.5C877.5 415.833 877.5 413.167 877.5 410.5Z" fill="#ebeaeb" fill-rule="evenodd" opacity="1" stroke="none"/>
</g>
</svg>