<?xml version="1.0" encoding="UTF-8"?>
<svg xmlns="http://www.w3.org/2000/svg" version="1.1" viewBox="220.28 488.42 114.01 125.49" width="114.01" height="125.49" style="fill-rule:nonzero;clip-rule:evenodd;stroke-linecap:round;stroke-linejoin:round;" xml:space="preserve">
<g opacity="1">
<path d="M287.5 495.5C298.432 494.415 307.098 498.248 313.5 507C319.734 507.886 321.734 511.219 319.5 517C326.115 521.364 328.282 527.197 326 534.5C320.792 538.988 316.792 537.988 314 531.5C313.466 527.141 313.632 522.808 314.5 518.5C312.089 518.863 310.589 517.863 310 515.5C309.056 512.653 309.556 510.153 311.5 508C304.155 499.219 294.821 496.219 283.5 499C269.85 505.133 262.184 515.633 260.5 530.5C294.591 529.351 309.424 545.684 305 579.5C300.082 597.029 288.582 606.029 270.5 606.5C249.449 607.904 235.949 598.57 230 578.5C226.275 559.799 232.109 544.966 247.5 534C250.928 532.06 254.594 530.894 258.5 530.5C260.43 512.25 270.097 500.584 287.5 495.5Z" fill="#191919" fill-rule="evenodd" opacity="1" stroke="none" />
<path d="M312.5 509.5C317.486 509.305 319.152 511.472 317.5 516C312.126 516.762 310.459 514.595 312.5 509.5Z" fill="#e0e1e1" fill-rule="evenodd" opacity="1" stroke="none" />
<path d="M318.5 519.5C317.935 522.794 317.268 526.46 316.5 530.5C315.293 526.544 315.626 522.544 317.5 518.5C318.107 518.624 318.44 518.957 318.5 519.5Z" fill="#a9a3a8" fill-rule="evenodd" opacity="1" stroke="none" />
<path d="M318.5 519.5C321.588 522.263 323.922 525.597 325.5 529.5C325.105 534.013 322.771 535.513 318.5 534C317.177 533.184 316.511 532.017 316.5 530.5C317.268 526.46 317.935 522.794 318.5 519.5Z" fill="#ebebeb" fill-rule="evenodd" opacity="1" stroke="none" />
<path d="M273.5 536.5C289.366 535.511 299.199 542.845 303 558.5C305.089 570.801 302.756 582.134 296 592.5C283.659 606.79 270.992 607.123 258 593.5C248.149 575.581 249.649 558.747 262.5 543C265.933 540.289 269.6 538.123 273.5 536.5Z" fill="#f2f2f2" fill-rule="evenodd" opacity="1" stroke="none" />
<path d="M256.5 532.5C257.497 532.47 258.164 532.97 258.5 534C237.342 548.843 232.508 568.009 244 591.5C246.5 595.333 249.667 598.5 253.5 601C243.977 598.824 237.477 592.991 234 583.5C227.704 564.1 232.537 548.267 248.5 536C251.158 534.522 253.825 533.355 256.5 532.5Z" fill="#e6e6e6" fill-rule="evenodd" opacity="1" stroke="none" />
<path d="M244.5 550.5C245.054 552.771 244.554 555.104 243 557.5C242.075 561.445 241.575 565.445 241.5 569.5C241.905 574.904 242.405 580.237 243 585.5C237.978 573.581 238.478 561.914 244.5 550.5Z" fill="#939393" fill-rule="evenodd" opacity="1" stroke="none" />
<path d="M276.5 550.5C286.405 548.896 292.905 552.896 296 562.5C298.16 573.706 294.66 582.539 285.5 589C271.94 590.62 264.94 584.453 264.5 570.5C264.966 561.545 268.966 554.879 276.5 550.5Z" fill="#1e1e1e" fill-rule="evenodd" opacity="1" stroke="none" />
<path d="M276.5 552.5C285.139 550.98 290.972 554.314 294 562.5C295.945 571.563 293.778 579.397 287.5 586C280.677 589.969 274.844 588.802 270 582.5C263.745 570.537 265.911 560.537 276.5 552.5Z" fill="#f0f0f0" fill-rule="evenodd" opacity="1" stroke="none" />
<path d="M278.5 563.5C285.327 562.825 288.16 565.825 287 572.5C284.862 577.7 281.529 578.7 277 575.5C274.716 571.1 275.216 567.1 278.5 563.5Z" fill="#252525" fill-rule="evenodd" opacity="1" stroke="none" />
<path d="M279.5 565.5C284.494 565.329 286.328 567.662 285 572.5C281.157 576.511 278.657 575.678 277.5 570C277.519 568.167 278.185 566.667 279.5 565.5Z" fill="#ececec" fill-rule="evenodd" opacity="1" stroke="none" />
<path d="M266.5 533.5C270.846 533.334 275.179 533.501 279.5 534C271.328 534.337 264.495 537.503 259 543.5C247.555 559.833 246.555 576.833 256 594.5C259.571 599.031 264.071 602.198 269.5 604C261.728 604.196 255.561 601.03 251 594.5C241.826 579.55 241.159 564.217 249 548.5C253.527 541.794 259.36 536.794 266.5 533.5Z" fill="#e8e8e8" fill-rule="evenodd" opacity="1" stroke="none" />
</g>

</svg>