<?xml version="1.0" encoding="UTF-8"?>
<svg xmlns="http://www.w3.org/2000/svg" version="1.1" viewBox="51.19 480.93 110.12 126.36" width="110.12" height="126.36" style="fill-rule:nonzero;clip-rule:evenodd;stroke-linecap:round;stroke-linejoin:round;" xml:space="preserve">
<g opacity="1">
<path d="M99.5 488.5C112.229 486.926 123.229 490.426 132.5 499C136.287 499.16 139.954 499.826 143.5 501C144.809 502.751 144.475 504.251 142.5 505.5C152.983 516.183 155.316 528.516 149.5 542.5C153.274 546.763 154.441 551.763 153 557.5C150.886 563.272 146.719 566.272 140.5 566.5C138.706 571.261 136.04 575.427 132.5 579C128.582 581.877 124.415 584.377 120 586.5C119.105 589.466 119.605 592.133 121.5 594.5C120.636 596.197 119.303 597.363 117.5 598C109.807 601.282 102.14 601.282 94.5 598C93.1007 596.938 92.1007 595.605 91.5 594C92.4929 591.547 92.6595 589.047 92 586.5C82.6355 582.635 76.1355 575.969 72.5 566.5C62.5826 565.087 58.0826 559.42 59 549.5C60.0152 546.79 61.5152 544.457 63.5 542.5C57.192 521.943 63.8586 507.109 83.5 498C82.2068 497.51 80.8734 497.343 79.5 497.5C79.2965 495.61 79.9632 494.11 81.5 493C87.7901 491.604 93.7901 490.104 99.5 488.5Z" fill="#1b1b1c" fill-rule="evenodd" opacity="1" stroke="none" />
<path d="M129.5 520.5C130.591 524.515 132.591 528.015 135.5 531C136.635 531.749 137.635 531.583 138.5 530.5C134.227 526.291 131.227 521.291 129.5 515.5C128.712 516.77 127.712 517.77 126.5 518.5C125.185 519.476 123.852 520.476 122.5 521.5C120.133 517.638 117.8 517.804 115.5 522C105.777 527.979 103.777 526.479 109.5 517.5C109 517.167 108.5 516.833 108 516.5C102.761 521.121 96.7614 524.455 90 526.5C89.1667 526.167 88.3333 525.833 87.5 525.5C89.4706 522.973 90.1373 520.307 89.5 517.5C85.4073 521.929 80.7406 525.596 75.5 528.5C73.1715 533.652 71.3381 538.985 70 544.5C66.2367 543.313 64.2367 540.647 64 536.5C61.3051 523.582 65.1384 513.082 75.5 505C80.0393 502.231 84.7059 499.731 89.5 497.5C87.7256 496.813 86.0589 495.98 84.5 495C90.9157 493.18 97.4157 493.013 104 494.5C107.013 493.955 107.179 492.789 104.5 491C114.745 490.412 123.412 493.746 130.5 501C134.287 501.16 137.954 501.826 141.5 503C140.062 503.219 138.729 503.719 137.5 504.5C149.709 514.698 152.876 527.365 147 542.5C145.667 543.167 144.333 543.833 143 544.5C142.156 540.789 141.156 537.123 140 533.5C139.107 532.289 138.274 532.289 137.5 533.5C139.012 538.06 140.012 542.726 140.5 547.5C149.165 543.983 152.665 546.983 151 556.5C148.8 561.989 144.967 563.822 139.5 562C132.173 580.506 118.507 588.506 98.5 586C85.7685 582.101 77.1018 573.934 72.5 561.5C67.279 563.473 63.779 561.806 62 556.5C61.3333 553.833 61.3333 551.167 62 548.5C65.1235 544.566 68.2901 544.566 71.5 548.5C72.6449 542.606 74.4782 536.94 77 531.5C79.854 529.402 82.5206 527.069 85 524.5C85.4922 525.549 85.3256 526.549 84.5 527.5C91.5777 528.923 97.9111 527.256 103.5 522.5C103.92 524.326 103.92 526.326 103.5 528.5C112.266 526.212 120.933 523.545 129.5 520.5Z" fill="#f3f3f3" fill-rule="evenodd" opacity="1" stroke="none" />
<path d="M120.5 533.5C122.655 533.372 124.655 533.872 126.5 535C127.451 535.718 127.617 536.551 127 537.5C124.734 536.044 122.234 535.21 119.5 535C120.056 534.617 120.389 534.117 120.5 533.5Z" fill="#1f1f1f" fill-rule="evenodd" opacity="1" stroke="none" />
<path d="M88.5 533.5C90.4286 533.231 92.0953 533.731 93.5 535C90.3568 535.559 87.3568 536.226 84.5 537C85.7305 535.595 87.0639 534.429 88.5 533.5Z" fill="#161717" fill-rule="evenodd" opacity="1" stroke="none" />
<path d="M129.5 520.5C128.5 519.833 127.5 519.167 126.5 518.5C127.712 517.77 128.712 516.77 129.5 515.5C131.227 521.291 134.227 526.291 138.5 530.5C137.635 531.583 136.635 531.749 135.5 531C132.591 528.015 130.591 524.515 129.5 520.5Z" fill="#161717" fill-rule="evenodd" opacity="1" stroke="none" />
<path d="M120.5 545.5C125.213 545.468 126.713 547.801 125 552.5C123.084 555.033 121.084 555.033 119 552.5C118.167 549.829 118.667 547.496 120.5 545.5Z" fill="#121112" fill-rule="evenodd" opacity="1" stroke="none" />
<path d="M88.5 545.5C93.6589 545.136 95.4922 547.47 94 552.5C92 555.167 90 555.167 88 552.5C87.4436 550.115 87.6103 547.782 88.5 545.5Z" fill="#151514" fill-rule="evenodd" opacity="1" stroke="none" />
<path d="M144.5 550.5C145.239 550.369 145.906 550.536 146.5 551C144.787 552.925 143.453 555.092 142.5 557.5C141.633 554.857 142.3 552.523 144.5 550.5Z" fill="#141414" fill-rule="evenodd" opacity="1" stroke="none" />
<path d="M65.5 551.5C67.1534 550.201 68.6534 550.534 70 552.5C70.4017 553.872 70.9017 555.205 71.5 556.5C70.675 557.386 69.675 557.719 68.5 557.5C68.9754 554.687 67.9754 552.687 65.5 551.5Z" fill="#201f20" fill-rule="evenodd" opacity="1" stroke="none" />
<path d="M101.5 558.5C103.156 559.146 104.823 559.813 106.5 560.5C108.055 560.278 109.389 559.611 110.5 558.5C111.594 559.868 111.26 561.035 109.5 562C105.494 563.421 102.828 562.254 101.5 558.5Z" fill="#1e1e1d" fill-rule="evenodd" opacity="1" stroke="none" />
<path d="M95.5 569.5C95.7352 568.903 96.2352 568.57 97 568.5C103.333 573.833 109.667 573.833 116 568.5C117.364 570.603 116.53 572.103 113.5 573C106.433 575.947 100.433 574.781 95.5 569.5Z" fill="#191919" fill-rule="evenodd" opacity="1" stroke="none" />
<path d="M94.5 587.5C101.854 588.718 109.187 588.718 116.5 587.5C117.292 589.465 117.959 591.465 118.5 593.5C111.373 599.29 103.707 599.957 95.5 595.5C94.52 592.914 94.1866 590.247 94.5 587.5Z" fill="#e4e5e5" fill-rule="evenodd" opacity="1" stroke="none" />
</g>

</svg>