<?xml version="1.0" encoding="UTF-8"?>
<svg xmlns="http://www.w3.org/2000/svg" version="1.1" viewBox="583.50 488.63 136.54 130.27" width="136.54" height="130.27" style="fill-rule:nonzero;clip-rule:evenodd;stroke-linecap:round;stroke-linejoin:round;" xml:space="preserve">
<g opacity="1">
<path d="M645.5 495.5C650.447 494.628 654.613 495.961 658 499.5C658.687 501.568 658.52 503.568 657.5 505.5C665.417 507.207 672.25 510.874 678 516.5C678.26 520.25 678.927 523.916 680 527.5C689.364 521.67 698.031 522.67 706 530.5C714.037 548.366 711.203 564.366 697.5 578.5C694.755 581.412 691.589 583.746 688 585.5C689.161 598.006 683.661 605.84 671.5 609C654.939 612.899 638.606 612.232 622.5 607C614.584 603.011 610.917 596.511 611.5 587.5C604.917 584.08 600.75 578.747 599 571.5C598.616 562.483 598.616 553.483 599 544.5C598.529 542.754 597.862 541.087 597 539.5C594.434 536.934 591.934 534.434 589.5 532C593.823 526.107 599.156 524.773 605.5 528C611.798 534.887 614.965 543.053 615 552.5C617.844 540.636 619.844 528.636 621 516.5C626.542 510.464 633.376 506.798 641.5 505.5C640.48 503.568 640.313 501.568 641 499.5C642.397 497.93 643.897 496.596 645.5 495.5Z" fill="#1b1b1b" fill-rule="evenodd" opacity="1" stroke="none" />
<path d="M595.5 528.5C596.978 528.238 598.311 528.571 599.5 529.5C597.449 531.72 595.116 532.386 592.5 531.5C593.77 530.712 594.77 529.712 595.5 528.5Z" fill="#d1d0d2" fill-rule="evenodd" opacity="1" stroke="none" />
<path d="M623.5 523.5C641.141 528.808 658.808 528.808 676.5 523.5C679.439 538.8 682.273 554.134 685 569.5C685.853 578.886 685.519 588.219 684 597.5C681.224 601.65 677.391 604.484 672.5 606C658.236 610.14 643.903 610.473 629.5 607C623.865 605.353 619.365 602.186 616 597.5C615.058 593.532 614.225 589.532 613.5 585.5C604.1 580.539 599.767 572.706 600.5 562C601.333 555.509 601.5 549.009 601 542.5C599.7 539.705 598.2 537.039 596.5 534.5C598.5 532.833 600.5 531.167 602.5 529.5C607.052 532.267 609.885 536.267 611 541.5C611.303 545.894 611.97 550.227 613 554.5C613.637 556.303 614.803 557.636 616.5 558.5C618.557 546.762 620.89 535.095 623.5 523.5Z" fill="#f6f6f6" fill-rule="evenodd" opacity="1" stroke="none" />
<path d="M641.5 507.5C643.91 508.389 646.41 509.055 649 509.5C656.65 507.603 663.817 508.769 670.5 513C673.179 514.346 675.179 516.346 676.5 519C672.993 521.62 668.993 523.287 664.5 524C652.775 524.912 641.108 524.579 629.5 523C620.591 520.681 620.257 517.348 628.5 513C632.741 510.651 637.075 508.818 641.5 507.5Z" fill="#f2f2f2" fill-rule="evenodd" opacity="1" stroke="none" />
<path d="M646.5 497.5C652.861 496.697 655.694 499.364 655 505.5C651.621 507.923 648.121 508.09 644.5 506C643.903 504.938 643.57 503.772 643.5 502.5C643.771 500.307 644.771 498.641 646.5 497.5Z" fill="#e0e0e0" fill-rule="evenodd" opacity="1" stroke="none" />
<path d="M686.5 536.5C694.137 535.471 698.137 538.804 698.5 546.5C698.184 555.968 694.684 563.968 688 570.5C686.355 560.996 684.522 551.496 682.5 542C682.901 539.44 684.234 537.607 686.5 536.5Z" fill="#f1f1f1" fill-rule="evenodd" opacity="1" stroke="none" />
<path d="M685.5 526.5C699.737 525.236 707.404 531.736 708.5 546C708.204 561.766 701.537 573.933 688.5 582.5C687.345 579.554 687.179 576.554 688 573.5C698.142 564.742 702.142 553.742 700 540.5C695.546 533.109 689.712 531.776 682.5 536.5C679.24 531.768 680.24 528.435 685.5 526.5Z" fill="#e9eaea" fill-rule="evenodd" opacity="1" stroke="none" />
</g>

</svg>