<?xml version="1.0" encoding="UTF-8"?>
<svg xmlns="http://www.w3.org/2000/svg" version="1.1" viewBox="764.03 492.40 136.97 123.44" width="136.97" height="123.44" style="fill-rule:nonzero;clip-rule:evenodd;stroke-linecap:round;stroke-linejoin:round;" xml:space="preserve">
<g opacity="1">
<path d="M867.5 498.5C875.137 498.401 881.303 501.401 886 507.5C891.883 515.246 894.883 523.912 895 533.5C894.261 534.574 893.261 535.241 892 535.5C889.384 533.888 887.05 531.888 885 529.5C882.135 525.098 878.801 521.098 875 517.5C873.72 517.613 872.887 518.28 872.5 519.5C876.333 524.5 880.167 529.5 884 534.5C885.202 536.677 885.702 539.011 885.5 541.5C883.801 541.66 882.134 541.494 880.5 541C875.979 535.98 871.645 530.813 867.5 525.5C866.675 524.614 865.675 524.281 864.5 524.5C864.491 526.308 864.991 527.975 866 529.5C870.238 534.734 874.071 540.234 877.5 546C876.591 548.319 874.925 548.986 872.5 548C867.126 543.228 862.46 537.895 858.5 532C857.365 531.251 856.365 531.417 855.5 532.5C859.14 537.973 862.973 543.306 867 548.5C868.128 550.345 868.628 552.345 868.5 554.5C866.801 554.66 865.134 554.494 863.5 554C858.713 548.258 854.047 542.425 849.5 536.5C848.713 537.242 848.047 538.075 847.5 539C852.63 544.795 856.963 551.128 860.5 558C859.941 560.188 858.607 560.854 856.5 560C851.954 555.123 847.787 549.956 844 544.5C841.323 542.934 839.99 543.6 840 546.5C844.487 551.476 848.487 556.809 852 562.5C852.803 565.225 851.803 566.891 849 567.5C843.489 562.835 838.656 557.502 834.5 551.5C832.893 550.3 831.893 550.8 831.5 553C834.985 558.49 838.485 563.99 842 569.5C843.5 574.667 841.667 576.5 836.5 575C832.311 570.312 828.311 565.479 824.5 560.5C823.675 559.614 822.675 559.281 821.5 559.5C823.913 565.766 827.413 571.432 832 576.5C834.62 581.552 833.12 583.386 827.5 582C823.691 576.69 819.691 571.524 815.5 566.5C814.176 565.313 813.176 565.646 812.5 567.5C816.14 572.973 819.973 578.306 824 583.5C825.386 589.12 823.552 590.62 818.5 588C814.88 582.711 810.88 577.711 806.5 573C804.333 572.5 803.5 573.333 804 575.5C808.569 581.066 812.736 586.899 816.5 593C815.792 595.723 814.125 596.723 811.5 596C806.954 591.123 802.787 585.956 799 580.5C796.667 579.167 795.667 579.833 796 582.5C799.667 587.5 803.333 592.5 807 597.5C808.167 601.667 806.667 603.167 802.5 602C797.622 596.791 793.122 591.291 789 585.5C788.167 586.333 787.333 587.167 786.5 588C789.964 593.762 793.797 599.262 798 604.5C798.72 606.112 798.554 607.612 797.5 609C793.88 609.841 790.546 609.174 787.5 607C782.966 602.801 778.799 598.301 775 593.5C770.032 585.206 770.366 577.206 776 569.5C801.918 546.911 828.418 525.078 855.5 504C859.481 501.838 863.481 500.005 867.5 498.5Z" fill="#1a1a1a" fill-rule="evenodd" opacity="1" stroke="none" />
<path d="M865.5 501.5C872.451 500.428 878.285 502.428 883 507.5C888.348 515.04 891.848 523.373 893.5 532.5C891.097 532.607 889.264 531.607 888 529.5C884.547 524.379 880.714 519.546 876.5 515C871.458 514.379 869.624 516.545 871 521.5C875 526.833 879 532.167 883 537.5C883.688 538.332 883.521 538.998 882.5 539.5C877.155 533.986 872.155 528.153 867.5 522C863 521.167 861.167 523 862 527.5C866.289 533.245 870.456 539.079 874.5 545C871.907 544.454 869.74 542.954 868 540.5C864.955 536.244 861.788 532.077 858.5 528C856.721 528.044 855.055 528.711 853.5 530C852.483 531.049 852.316 532.216 853 533.5C857.5 539.333 862 545.167 866.5 551C864.326 551.181 862.493 550.348 861 548.5C857.833 544 854.667 539.5 851.5 535C848.208 534.104 845.875 535.271 844.5 538.5C848.833 544.5 853.167 550.5 857.5 556.5C857.167 556.833 856.833 557.167 856.5 557.5C851.843 551.511 846.843 545.844 841.5 540.5C838.275 541.813 837.109 544.147 838 547.5C842.078 552.657 845.912 557.99 849.5 563.5C849.167 563.833 848.833 564.167 848.5 564.5C843.3 559.465 838.633 553.965 834.5 548C829.988 547.866 828.488 550.033 830 554.5C832.999 560.502 836.499 566.168 840.5 571.5C839.824 573.354 838.824 573.687 837.5 572.5C832.934 568.104 828.934 563.271 825.5 558C821.929 555.689 819.262 556.523 817.5 560.5C821.474 566.307 825.64 571.974 830 577.5C830.688 578.332 830.521 578.998 829.5 579.5C824.669 573.841 819.835 568.174 815 562.5C805.527 570.923 795.527 578.59 785 585.5C784.333 586.833 784.333 588.167 785 589.5C787.941 594.772 791.274 599.772 795 604.5C795.483 605.448 795.649 606.448 795.5 607.5C793.692 607.509 792.025 607.009 790.5 606C785.438 601.726 780.938 596.893 777 591.5C773.336 586.523 772.67 581.189 775 575.5C779.133 570.366 783.633 565.532 788.5 561C808.5 544.667 828.5 528.333 848.5 512C853.929 507.96 859.595 504.46 865.5 501.5Z" fill="#efeff0" fill-rule="evenodd" opacity="1" stroke="none" />
<path d="M823.5 540.5C825.355 540.272 826.188 540.939 826 542.5C823.187 544.15 820.687 546.15 818.5 548.5C817.417 547.635 817.251 546.635 818 545.5C820.328 544.336 822.162 542.67 823.5 540.5Z" fill="#202020" fill-rule="evenodd" opacity="1" stroke="none" />
<path d="M808.5 569.5C810.91 569.921 812.743 571.254 814 573.5C816.28 577.447 818.947 581.113 822 584.5C822.688 585.332 822.521 585.998 821.5 586.5C815.961 581.644 811.627 575.977 808.5 569.5Z" fill="#e3e3e4" fill-rule="evenodd" opacity="1" stroke="none" />
<path d="M791.5 583.5C792.822 583.33 793.989 583.663 795 584.5C798.362 589.03 801.529 593.697 804.5 598.5C804.167 598.833 803.833 599.167 803.5 599.5C799.676 595.207 795.843 590.874 792 586.5C791.517 585.552 791.351 584.552 791.5 583.5Z" fill="#dfe0e0" fill-rule="evenodd" opacity="1" stroke="none" />
<path d="M800.5 576.5C802.017 576.511 803.184 577.177 804 578.5C807.362 583.03 810.529 587.697 813.5 592.5C813.167 592.833 812.833 593.167 812.5 593.5C808.814 589.648 805.314 585.648 802 581.5C800.991 579.975 800.491 578.308 800.5 576.5Z" fill="#dbdcdd" fill-rule="evenodd" opacity="1" stroke="none" />
</g>

</svg>