<?xml version="1.0" encoding="UTF-8"?>
<svg xmlns="http://www.w3.org/2000/svg" version="1.1" viewBox="416.50 490.50 126.00 130.17" width="126.00" height="130.17" style="fill-rule:nonzero;clip-rule:evenodd;stroke-linecap:round;stroke-linejoin:round;" xml:space="preserve">
<g opacity="1">
<path d="M515.5 587.5C515.18 590.898 515.513 594.232 516.5 597.5C517.107 597.376 517.44 597.043 517.5 596.5C522.356 592.944 524.356 588.11 523.5 582C523.247 575.234 521.747 568.734 519 562.5C516.89 552.72 519.723 544.887 527.5 539C532.458 537.31 535.458 538.977 536.5 544C535.527 547.645 533.694 550.812 531 553.5C530.833 555.667 530.667 557.833 530.5 560C532.132 567.077 533.465 574.244 534.5 581.5C534.747 597.918 526.747 607.252 510.5 609.5C509.395 610.892 508.061 612.059 506.5 613C497.524 614.207 488.524 614.54 479.5 614C477.951 612.786 476.785 611.286 476 609.5C474.457 611.378 472.624 612.878 470.5 614C466.5 614.667 462.5 614.667 458.5 614C455.362 612.756 452.028 612.089 448.5 612C444.289 607.767 444.622 603.934 449.5 600.5C449.833 598.833 450.167 597.167 450.5 595.5C449.506 589.201 448.839 582.867 448.5 576.5C448.341 572.34 449.008 568.34 450.5 564.5C445.297 561.73 440.63 558.23 436.5 554C432.936 553.684 429.603 554.517 426.5 556.5C426.167 556.167 425.833 555.833 425.5 555.5C428.348 553.576 431.348 551.909 434.5 550.5C433.754 549.264 433.421 547.93 433.5 546.5C429.774 546.823 426.107 546.489 422.5 545.5C422.709 544.914 423.043 544.414 423.5 544C426.146 543.503 428.813 543.336 431.5 543.5C430.283 535.36 432.116 528.027 437 521.5C436.987 514.008 437.987 506.674 440 499.5C440.347 497.82 441.347 496.82 443 496.5C445.39 497.278 447.557 498.445 449.5 500C452.048 502.885 454.882 505.385 458 507.5C464.751 506.045 471.417 506.378 478 508.5C482.194 505.331 486.694 502.497 491.5 500C493.579 499.192 495.579 499.359 497.5 500.5C499.729 507.893 500.062 515.393 498.5 523C502.531 530.777 503.531 538.944 501.5 547.5C503.308 547.491 504.975 547.991 506.5 549C504.1 549.186 501.766 549.686 499.5 550.5C497.885 553.45 495.885 556.116 493.5 558.5C498.12 561.947 502.62 565.614 507 569.5C511.722 574.61 514.555 580.61 515.5 587.5Z" fill="#1c1c1c" fill-rule="evenodd" opacity="1" stroke="none" />
<path d="M442.5 499.5C448.325 501.655 452.992 505.321 456.5 510.5C464.248 507.923 471.915 508.257 479.5 511.5C482.806 508.183 486.472 505.349 490.5 503C492.044 501.813 493.711 501.48 495.5 502C496.317 509.754 496.817 517.588 497 525.5C499.717 532.317 500.217 539.317 498.5 546.5C492.794 546.171 487.128 546.505 481.5 547.5C486.802 548.329 492.136 548.829 497.5 549C496.33 551.334 494.663 553.168 492.5 554.5C489.161 553.499 485.828 552.499 482.5 551.5C482.167 551.833 481.833 552.167 481.5 552.5C484.657 553.717 487.657 555.217 490.5 557C486.938 559.948 482.938 562.115 478.5 563.5C479.167 563.833 479.833 564.167 480.5 564.5C484.504 562.977 488.504 561.81 492.5 561C502.281 566.774 509.114 574.941 513 585.5C513.667 589.833 513.667 594.167 513 598.5C511.213 602.577 509.046 606.41 506.5 610C499.593 611.305 492.593 612.138 485.5 612.5C486.774 607.642 485.774 607.309 482.5 611.5C481.269 610.349 481.269 609.183 482.5 608C480.887 607.911 479.72 608.745 479 610.5C478.32 608.024 479.153 606.191 481.5 605C484.76 604.216 487.927 604.383 491 605.5C489.896 603.362 488.229 601.362 486 599.5C482.293 590.755 484.793 584.588 493.5 581C486.525 581.47 482.525 585.304 481.5 592.5C481.738 595.799 482.738 598.799 484.5 601.5C482.293 602.635 479.96 603.301 477.5 603.5C478.283 599.854 478.45 596.188 478 592.5C476.592 598.183 474.925 603.85 473 609.5C471.005 611.747 468.505 612.747 465.5 612.5C465.906 610.891 465.906 609.557 465.5 608.5C464.571 609.689 464.238 611.022 464.5 612.5C463.5 612.5 462.5 612.5 461.5 612.5C461.286 610.856 461.62 609.356 462.5 608C460.591 607.552 459.424 608.385 459 610.5C458.333 608.833 458.333 607.167 459 605.5C460.667 604.5 462.333 603.5 464 602.5C464.831 596.141 464.664 589.807 463.5 583.5C462.833 584.833 462.167 586.167 461.5 587.5C460.604 586.494 459.938 586.494 459.5 587.5C462.771 593.864 461.938 599.53 457 604.5C456.167 606.5 455.333 608.5 454.5 610.5C454.251 609.418 454.085 608.085 454 606.5C453.077 607.759 452.243 609.092 451.5 610.5C450.253 608.994 450.253 607.494 451.5 606C451.167 605.833 450.833 605.667 450.5 605.5C449.833 606.5 449.167 607.5 448.5 608.5C447.072 605.048 448.239 602.715 452 601.5C452.259 593.304 451.759 585.137 450.5 577C450.177 572.461 451.177 568.294 453.5 564.5C456.348 566.476 459.348 566.809 462.5 565.5C456.279 563.9 450.279 561.4 444.5 558C442.649 556.316 440.982 554.483 439.5 552.5C441.5 551.833 443.5 551.167 445.5 550.5C442.865 549.728 440.199 549.562 437.5 550C436.833 549 436.167 548 435.5 547C438.889 547.187 442.222 547.021 445.5 546.5C441.453 545.488 437.62 544.155 434 542.5C433.073 528.354 438.906 518.021 451.5 511.5C450.155 507.978 447.822 505.811 444.5 505C447.102 506.554 448.269 508.72 448 511.5C445.154 513.257 442.488 515.257 440 517.5C439.06 511.226 439.893 505.226 442.5 499.5Z" fill="#f2f2f2" fill-rule="evenodd" opacity="1" stroke="none" />
<path d="M476.5 534.5C477.822 534.33 478.989 534.663 480 535.5C480.667 537.5 480.667 539.5 480 541.5C478.667 542.833 477.333 542.833 476 541.5C475.297 539.071 475.463 536.738 476.5 534.5Z" fill="#111111" fill-rule="evenodd" opacity="1" stroke="none" />
<path d="M448.5 533.5C449.833 533.5 451.167 533.5 452.5 533.5C452.5 535.833 452.5 538.167 452.5 540.5C447.59 540.424 446.257 538.09 448.5 533.5Z" fill="#121111" fill-rule="evenodd" opacity="1" stroke="none" />
<path d="M490.5 506.5C491.376 506.369 492.043 506.702 492.5 507.5C490.5 508.833 488.833 510.5 487.5 512.5C489.316 514.817 491.316 516.984 493.5 519C489.748 518.269 486.748 516.269 484.5 513C486.014 510.322 488.014 508.155 490.5 506.5Z" fill="#1c1d1d" fill-rule="evenodd" opacity="1" stroke="none" />
<path d="M458.5 543.5C461.119 543.232 463.619 543.565 466 544.5C466.667 545.5 466.667 546.5 466 547.5C462.5 550.349 462.666 552.683 466.5 554.5C468.029 554.471 469.196 553.804 470 552.5C470.507 553.996 470.007 555.163 468.5 556C463.75 554.629 458.917 554.129 454 554.5C453.312 553.668 453.479 553.002 454.5 552.5C457.177 554.165 459.177 553.665 460.5 551C457.85 548.902 457.183 546.402 458.5 543.5Z" fill="#181919" fill-rule="evenodd" opacity="1" stroke="none" />
<path d="M528.5 540.5C531.571 539.925 533.571 541.091 534.5 544C526.412 552.875 525.245 562.708 531 573.5C532.088 581.348 531.421 589.015 529 596.5C525.163 602.837 519.663 605.503 512.5 604.5C513 603.5 513.5 602.5 514 601.5C523.69 596.472 527.69 588.472 526 577.5C523.697 570.626 522.197 563.626 521.5 556.5C521.667 553.833 521.833 551.167 522 548.5C523.946 545.58 526.113 542.913 528.5 540.5Z" fill="#ededed" fill-rule="evenodd" opacity="1" stroke="none" />
<path d="M515.5 587.5C516.167 590.5 516.833 593.5 517.5 596.5C517.44 597.043 517.107 597.376 516.5 597.5C515.513 594.232 515.18 590.898 515.5 587.5Z" fill="#8e8c8e" fill-rule="evenodd" opacity="1" stroke="none" />
</g>

</svg>