<?xml version="1.0" encoding="UTF-8" standalone="no"?>
<svg xmlns="http://www.w3.org/2000/svg" fill-rule="nonzero" clip-rule="evenodd" stroke-miterlimit="10" style="fill-rule:nonzero;clip-rule:evenodd;stroke-linecap:round;stroke-linejoin:round;"
     viewBox="1083.0 241.3 93.7 207.8" xml:space="preserve">
<g opacity="1">
<path d="M1122.5 253.5C1123.87 253.343 1125.21 253.51 1126.5 254C1134.38 262.219 1140.21 271.719 1144 282.5C1145.95 291.015 1144.11 298.515 1138.5 305C1136.16 306.171 1133.82 307.338 1131.5 308.5C1140.8 308.994 1149.8 310.827 1158.5 314C1159.67 315.167 1160.83 316.333 1162 317.5C1162.1 326.914 1162.94 336.247 1164.5 345.5C1164.7 349.268 1163.36 352.268 1160.5 354.5C1159.67 378.826 1159.17 403.16 1159 427.5C1157.79 429.049 1156.29 430.215 1154.5 431C1136.94 437.146 1119.61 436.646 1102.5 429.5C1101.67 428.5 1100.83 427.5 1100 426.5C1099.67 403.5 1099.33 380.5 1099 357.5C1096.13 355 1094.96 351.833 1095.5 348C1095.9 337.411 1096.74 326.911 1098 316.5C1099.73 314.383 1101.9 312.883 1104.5 312C1112.06 310.195 1119.73 309.029 1127.5 308.5C1114.66 304.498 1109.83 295.831 1113 282.5C1115.14 276.888 1117.81 271.554 1121 266.5C1122.19 262.249 1122.69 257.915 1122.5 253.5Z" fill="#181818" fill-rule="evenodd" opacity="1" stroke="none"/>
<path d="M1155.5 354.5C1156.49 378.092 1156.82 401.759 1156.5 425.5C1154.52 428.012 1151.85 429.512 1148.5 430C1133.95 433.694 1119.62 433.028 1105.5 428C1104.97 427.308 1104.31 426.808 1103.5 426.5C1102.33 403.841 1102.17 381.174 1103 358.5C1106 357.5 1108 355.5 1109 352.5C1109.21 346.449 1109.71 340.449 1110.5 334.5C1111.83 333.167 1113.17 333.167 1114.5 334.5C1118.83 341.868 1123.83 342.368 1129.5 336C1131.7 335.175 1133.53 335.675 1135 337.5C1134.62 342.422 1136.12 346.588 1139.5 350C1143.63 351.292 1146.79 350.125 1149 346.5C1150.59 348.67 1151.92 351.004 1153 353.5C1153.67 354.252 1154.5 354.586 1155.5 354.5Z" fill="#f7f7f7" fill-rule="evenodd" opacity="1" stroke="none"/>
<path d="M1118.5 312.5C1121.62 311.521 1124.96 311.187 1128.5 311.5C1128.5 314.167 1128.5 316.833 1128.5 319.5C1127.53 317.393 1127.2 315.059 1127.5 312.5C1124.5 312.5 1121.5 312.5 1118.5 312.5Z" fill="#7b7b7a" fill-rule="evenodd" opacity="1" stroke="none"/>
<path d="M1136.5 312.5C1134.83 312.5 1133.17 312.5 1131.5 312.5C1131.8 315.059 1131.47 317.393 1130.5 319.5C1130.5 316.833 1130.5 314.167 1130.5 311.5C1132.74 311.205 1134.74 311.539 1136.5 312.5Z" fill="#7a7678" fill-rule="evenodd" opacity="1" stroke="none"/>
<path d="M1118.5 312.5C1121.5 312.5 1124.5 312.5 1127.5 312.5C1127.2 315.059 1127.53 317.393 1128.5 319.5C1129.17 319.5 1129.83 319.5 1130.5 319.5C1131.47 317.393 1131.8 315.059 1131.5 312.5C1133.17 312.5 1134.83 312.5 1136.5 312.5C1142.26 312.682 1147.92 313.515 1153.5 315C1156.2 315.69 1158.36 317.19 1160 319.5C1159.47 329.869 1159.8 340.203 1161 350.5C1155.75 353.634 1153.08 351.967 1153 345.5C1149.72 342.689 1146.88 343.189 1144.5 347C1142.3 347.825 1140.47 347.325 1139 345.5C1138.51 331.487 1132.84 328.82 1122 337.5C1118.96 334.955 1115.79 332.621 1112.5 330.5C1110.27 331.219 1108.44 332.552 1107 334.5C1106.67 340.5 1106.33 346.5 1106 352.5C1104.17 356.037 1101.84 356.371 1099 353.5C1099.01 342.174 1099.35 330.84 1100 319.5C1104.91 314.216 1111.08 311.883 1118.5 312.5Z" fill="#f3f3f3" fill-rule="evenodd" opacity="1" stroke="none"/>
<path d="M1132.5 295.5C1133.28 298.548 1133.61 301.548 1133.5 304.5C1130.83 305.833 1128.17 305.833 1125.5 304.5C1125.83 304.5 1126.17 304.5 1126.5 304.5C1126.83 304.5 1127.17 304.5 1127.5 304.5C1128.83 304.5 1130.17 304.5 1131.5 304.5C1131.5 302.167 1131.5 299.833 1131.5 297.5C1132.34 297.158 1132.67 296.492 1132.5 295.5Z" fill="#7c7d7d" fill-rule="evenodd" opacity="1" stroke="none"/>
<path d="M1133.5 304.5C1133.61 301.548 1133.28 298.548 1132.5 295.5C1130.65 288.516 1128.65 288.182 1126.5 294.5C1125.22 297.731 1125.22 301.064 1126.5 304.5C1126.17 304.5 1125.83 304.5 1125.5 304.5C1118.29 301.937 1114.96 296.77 1115.5 289C1115.67 286.833 1115.83 284.667 1116 282.5C1120.33 274.836 1123.83 266.836 1126.5 258.5C1133.11 265.369 1137.94 273.369 1141 282.5C1141.84 287.921 1141.51 293.254 1140 298.5C1138.62 301.386 1136.45 303.386 1133.5 304.5Z" fill="#f2f2f2" fill-rule="evenodd" opacity="1" stroke="none"/>
<path d="M1126.5 294.5C1126.34 297.902 1126.68 301.236 1127.5 304.5C1127.17 304.5 1126.83 304.5 1126.5 304.5C1125.22 301.064 1125.22 297.731 1126.5 294.5Z" fill="#1b1b1b" fill-rule="evenodd" opacity="1" stroke="none"/>
<path d="M1131.5 297.5C1131.5 299.833 1131.5 302.167 1131.5 304.5C1130.17 304.5 1128.83 304.5 1127.5 304.5C1126.68 301.236 1126.34 297.902 1126.5 294.5C1129.85 291.787 1131.51 292.787 1131.5 297.5Z" fill="#eaeaea" fill-rule="evenodd" opacity="1" stroke="none"/>
<path d="M1132.5 295.5C1132.67 296.492 1132.34 297.158 1131.5 297.5C1131.51 292.787 1129.85 291.787 1126.5 294.5C1128.65 288.182 1130.65 288.516 1132.5 295.5Z" fill="#1f1e1f" fill-rule="evenodd" opacity="1" stroke="none"/>
<path d="M1155.5 354.5C1156.83 365.981 1157.5 377.814 1157.5 390C1157.5 402.005 1157.17 413.838 1156.5 425.5C1156.82 401.759 1156.49 378.092 1155.5 354.5Z" fill="#5e605f" fill-rule="evenodd" opacity="1" stroke="none"/>
</g>
</svg>