<?xml version="1.0" encoding="UTF-8"?>
<svg xmlns="http://www.w3.org/2000/svg" version="1.1" viewBox="958.50 497.18 128.83 112.71" width="128.83" height="112.71" style="fill-rule:nonzero;clip-rule:evenodd;stroke-linecap:round;stroke-linejoin:round;" xml:space="preserve">
<g opacity="1">
<path d="M1018.5 504.5C1026.66 503.175 1030.5 506.509 1030 514.5C1028.88 516.624 1027.38 518.457 1025.5 520C1030.7 532.24 1036.04 544.407 1041.5 556.5C1049.57 549.05 1057.74 541.716 1066 534.5C1062.97 527.553 1065.14 522.887 1072.5 520.5C1079.5 522.531 1081.33 526.864 1078 533.5C1076.21 535.229 1074.04 535.896 1071.5 535.5C1068.31 555.948 1064.48 576.281 1060 596.5C1047.02 601.548 1033.52 603.881 1019.5 603.5C1011.77 603.255 1004.11 602.421 996.5 601C992.006 600.337 987.839 598.837 984 596.5C979.973 576.2 976.14 555.866 972.5 535.5C967.786 535.289 965.12 532.789 964.5 528C965.419 522.208 968.752 519.874 974.5 521C979.752 524.086 980.752 528.253 977.5 533.5C985.691 540.768 993.691 548.268 1001.5 556C1002.17 556.667 1002.83 556.667 1003.5 556C1008.56 543.882 1013.89 531.882 1019.5 520C1013.3 515.187 1012.97 510.021 1018.5 504.5Z" fill="#1b1b1b" fill-rule="evenodd" opacity="1" stroke="none" />
<path d="M1019.5 506.5C1027.56 506.232 1029.56 509.566 1025.5 516.5C1018.53 518.36 1016.03 515.694 1018 508.5C1018.72 507.956 1019.22 507.289 1019.5 506.5Z" fill="#eaeaea" fill-rule="evenodd" opacity="1" stroke="none" />
<path d="M969.5 523.5C976.628 523.706 978.294 526.873 974.5 533C968.498 533.993 966.332 531.493 968 525.5C968.717 524.956 969.217 524.289 969.5 523.5Z" fill="#ededed" fill-rule="evenodd" opacity="1" stroke="none" />
<path d="M1069.5 523.5C1074.08 522.343 1076.75 524.01 1077.5 528.5C1075.62 533.706 1072.46 534.706 1068 531.5C1067.11 528.502 1067.61 525.836 1069.5 523.5Z" fill="#e6e7e7" fill-rule="evenodd" opacity="1" stroke="none" />
<path d="M1021.5 520.5C1023.34 521.122 1024.5 522.456 1025 524.5C1029.91 536.647 1035.08 548.647 1040.5 560.5C1049.65 552.518 1058.65 544.351 1067.5 536C1068.33 535.312 1069 535.479 1069.5 536.5C1065.94 552.387 1062.94 568.387 1060.5 584.5C1035.14 591.053 1009.81 591.053 984.5 584.5C981.36 568.634 978.027 552.8 974.5 537C974.833 536.5 975.167 536 975.5 535.5C984.833 543.833 994.167 552.167 1003.5 560.5C1010.01 547.472 1016.01 534.139 1021.5 520.5Z" fill="#f5f6f6" fill-rule="evenodd" opacity="1" stroke="none" />
<path d="M984.5 587.5C1009.48 592.759 1034.48 592.759 1059.5 587.5C1060.1 592.919 1057.77 596.085 1052.5 597C1031.81 601.579 1011.15 601.579 990.5 597C986.129 595.455 984.129 592.288 984.5 587.5Z" fill="#ededed" fill-rule="evenodd" opacity="1" stroke="none" />
</g>

</svg>