<?xml version="1.0" encoding="UTF-8" standalone="no"?>
<svg xmlns="http://www.w3.org/2000/svg" fill-rule="nonzero" clip-rule="evenodd" stroke-miterlimit="10" style="fill-rule:nonzero;clip-rule:evenodd;stroke-linecap:round;stroke-linejoin:round;"
     viewBox="1293.5 242.0 149.0 205.0" xml:space="preserve">
<g opacity="1">
<path d="M1350.5 254.5C1367.58 253.973 1384.58 254.807 1401.5 257C1403.52 257.45 1405.35 258.283 1407 259.5C1415.07 285.934 1422.9 312.434 1430.5 339C1429.89 342.282 1427.89 344.282 1424.5 345C1418 347.458 1411.34 349.291 1404.5 350.5C1404.33 356.176 1404.5 361.843 1405 367.5C1411.37 370.034 1413.03 374.367 1410 380.5C1405.59 384.423 1401.26 384.423 1397 380.5C1394.21 374.861 1395.55 370.527 1401 367.5C1401.5 362.177 1401.67 356.844 1401.5 351.5C1393.17 352.222 1384.84 352.888 1376.5 353.5C1375.4 369.108 1379.57 383.108 1389 395.5C1389.49 396.793 1389.66 398.127 1389.5 399.5C1404.46 401.288 1410.96 409.622 1409 424.5C1402.36 428.379 1395.2 430.879 1387.5 432C1368.81 435 1350.48 433.667 1332.5 428C1326.83 425.185 1325 420.685 1327 414.5C1330.44 405.673 1336.94 400.507 1346.5 399C1348.45 393.051 1351.28 387.551 1355 382.5C1358.85 373.218 1360.35 363.551 1359.5 353.5C1343.77 353.284 1328.43 350.784 1313.5 346C1310.02 344.943 1307.35 342.943 1305.5 340C1313.12 313.472 1320.95 286.972 1329 260.5C1330.32 258.513 1332.15 257.346 1334.5 257C1339.96 256.055 1345.29 255.222 1350.5 254.5Z" fill="#191919" fill-rule="evenodd" opacity="1" stroke="none"/>
<path d="M1331.5 263.5C1355.5 268.738 1379.5 268.738 1403.5 263.5C1404.17 263.833 1404.83 264.167 1405.5 264.5C1413.61 289.658 1420.78 314.991 1427 340.5C1417.96 344.802 1408.46 347.635 1398.5 349C1377.13 351.166 1355.8 350.999 1334.5 348.5C1325.73 347.392 1317.4 344.892 1309.5 341C1315.44 314.987 1322.77 289.154 1331.5 263.5Z" fill="#f7f7f7" fill-rule="evenodd" opacity="1" stroke="none"/>
<path d="M1352.5 256.5C1367.9 256.098 1383.24 256.931 1398.5 259C1399.83 259.667 1401.17 260.333 1402.5 261C1379.42 265.77 1356.42 265.604 1333.5 260.5C1339.91 259.02 1346.24 257.687 1352.5 256.5Z" fill="#e7e7e7" fill-rule="evenodd" opacity="1" stroke="none"/>
<path d="M1362.5 353.5C1366.5 353.5 1370.5 353.5 1374.5 353.5C1372.73 369.089 1376.56 383.089 1386 395.5C1386.67 397.833 1386.67 400.167 1386 402.5C1380.64 405.785 1374.8 407.118 1368.5 406.5C1362.46 407.02 1356.8 405.853 1351.5 403C1350.11 402.044 1349.44 400.711 1349.5 399C1353.98 391.209 1357.81 383.042 1361 374.5C1362.34 367.574 1362.84 360.574 1362.5 353.5Z" fill="#f3f3f3" fill-rule="evenodd" opacity="1" stroke="none"/>
<path d="M1400.5 370.5C1408.49 369.998 1410.49 373.165 1406.5 380C1398.42 380.805 1396.42 377.638 1400.5 370.5Z" fill="#eaeaea" fill-rule="evenodd" opacity="1" stroke="none"/>
<path d="M1344.5 401.5C1347.23 403.035 1349.9 404.869 1352.5 407C1366.17 411.434 1379 409.934 1391 402.5C1402.8 404.777 1407.63 411.777 1405.5 423.5C1398.24 427.065 1390.58 429.232 1382.5 430C1366.56 431.539 1350.89 430.206 1335.5 426C1333.83 425.167 1332.17 424.333 1330.5 423.5C1328.48 417.158 1329.81 411.658 1334.5 407C1337.77 404.87 1341.1 403.037 1344.5 401.5Z" fill="#f6f6f6" fill-rule="evenodd" opacity="1" stroke="none"/>
</g>
</svg>