<?xml version="1.0" encoding="UTF-8"?>
<svg xmlns="http://www.w3.org/2000/svg" version="1.1" viewBox="908.50 23.63 204.00 316.03" width="204.00" height="316.03" style="overflow:visible;" xml:space="preserve">
<g>
<path d="M993.5 33.5C1005.01 31.6264 1009.84 36.2931 1008 47.5C1006.49 52.172 1005.99 56.8386 1006.5 61.5C1025.06 64.7914 1043.73 67.6247 1062.5 70C1067.42 70.8015 1072.25 70.6349 1077 69.5C1079.58 61.2522 1081.92 52.9189 1084 44.5C1089.75 35.8664 1096.41 35.1997 1104 42.5C1104.17 44 1104.33 45.5 1104.5 47C1079.43 140.213 1053.93 233.379 1028 326.5C1022.59 331.154 1016.75 331.654 1010.5 328C1007.01 323.518 1006.51 318.685 1009 313.5C1011.02 306.548 1012.86 299.548 1014.5 292.5C991.842 288.668 969.176 285.168 946.5 282C943.008 293.422 939.508 304.922 936 316.5C930 321.833 924 321.833 918 316.5C917.042 314.801 916.542 312.967 916.5 311C940.943 221.337 964.776 131.504 988 41.5C989.273 38.4027 991.107 35.7361 993.5 33.5Z" fill="#191919" fill-rule="evenodd" opacity="1" stroke="none" />
<path d="M999.5 63.5C1023.79 67.245 1048.13 70.745 1072.5 74C1073.62 74.2492 1074.62 74.7492 1075.5 75.5C1074.83 77.5 1074.17 79.5 1073.5 81.5C1071.83 81.8333 1070.17 82.1667 1068.5 82.5C1048.14 79.8838 1027.8 77.0505 1007.5 74C1004.02 73.5112 1000.85 72.3445 998 70.5C997.167 67.829 997.667 65.4957 999.5 63.5Z" fill="#eeefef" fill-rule="evenodd" opacity="1" stroke="none" />
<path d="M1000.5 76.5C1024.45 79.8272 1048.45 82.8272 1072.5 85.5C1069.46 98.0376 1065.79 110.371 1061.5 122.5C1038.15 119.331 1014.82 115.998 991.5 112.5C994.192 100.4 997.192 88.4002 1000.5 76.5Z" fill="#f5f5f5" fill-rule="evenodd" opacity="1" stroke="none" />
<path d="M1090.5 40.5C1099.38 39.2149 1102.88 42.8816 1101 51.5C1075.69 142.056 1050.69 232.723 1026 323.5C1023.49 327.212 1019.99 328.378 1015.5 327C1013.71 326.215 1012.21 325.049 1011 323.5C1010.45 320.101 1010.79 316.768 1012 313.5C1036.98 223.88 1061.98 134.213 1087 44.5C1088.38 43.2949 1089.54 41.9616 1090.5 40.5Z" fill="#f2f2f2" fill-rule="evenodd" opacity="1" stroke="none" />
<path d="M986.5 114.5C1011.53 118.087 1036.53 121.753 1061.5 125.5C1060.54 128.426 1059.87 131.426 1059.5 134.5C1035.8 131.217 1012.14 127.717 988.5 124C984.06 121.632 983.393 118.466 986.5 114.5Z" fill="#ececec" fill-rule="evenodd" opacity="1" stroke="none" />
<path d="M987.5 126.5C1011.06 130.593 1034.72 133.926 1058.5 136.5C1054.92 148.75 1051.58 161.084 1048.5 173.5C1025.34 171.096 1002.34 167.762 979.5 163.5C978.369 161.926 978.202 160.259 979 158.5C981.842 147.798 984.675 137.131 987.5 126.5Z" fill="#f5f5f5" fill-rule="evenodd" opacity="1" stroke="none" />
<path d="M994.5 36.5C998.257 36.0708 1001.76 36.7375 1005 38.5C1005.78 39.7287 1006.28 41.062 1006.5 42.5C1004.69 48.4204 1003.19 54.4204 1002 60.5C995.879 61.7394 993.546 65.4061 995 71.5C996.308 73.1343 997.142 74.9676 997.5 77C994.741 88.5371 991.907 100.037 989 111.5C982.605 112.564 980.272 116.231 982 122.5C983.076 124.067 983.909 125.734 984.5 127.5C981.174 139.139 978.007 150.806 975 162.5C966.899 165.516 965.399 170.683 970.5 178C967.558 190.22 964.558 202.387 961.5 214.5C954.912 214.657 952.412 217.99 954 224.5C954.85 226.01 955.683 227.51 956.5 229C953.711 241.283 950.544 253.45 947 265.5C938.445 268.94 937.278 274.107 943.5 281C939.927 291.72 936.76 302.553 934 313.5C933.535 314.931 932.701 316.097 931.5 317C922.848 319.288 919.015 316.121 920 307.5C944.146 219.248 967.812 130.914 991 42.5C991.564 40.1133 992.73 38.1133 994.5 36.5Z" fill="#f1f1f1" fill-rule="evenodd" opacity="1" stroke="none" />
<path d="M971.5 166.5C996.587 169.274 1021.59 172.608 1046.5 176.5C1046.32 179.216 1045.82 181.883 1045 184.5C1021.85 182.285 998.685 179.119 975.5 175C970.695 173.822 969.362 170.988 971.5 166.5Z" fill="#eeeeee" fill-rule="evenodd" opacity="1" stroke="none" />
<path d="M973.5 177.5C996.765 181.49 1020.1 184.824 1043.5 187.5C1040.95 200.016 1037.62 212.349 1033.5 224.5C1030.89 225.652 1028.23 225.818 1025.5 225C1005.22 221.397 984.886 218.231 964.5 215.5C967.095 202.72 970.095 190.053 973.5 177.5Z" fill="#f5f5f5" fill-rule="evenodd" opacity="1" stroke="none" />
<path d="M958.5 217.5C983.141 221.33 1007.81 224.997 1032.5 228.5C1032.07 231.166 1031.57 233.832 1031 236.5C1030.11 237.081 1029.11 237.415 1028 237.5C1004.08 234.181 980.41 229.848 957 224.5C956.167 221.829 956.667 219.496 958.5 217.5Z" fill="#eeeeed" fill-rule="evenodd" opacity="1" stroke="none" />
<path d="M959.5 229.5C982.953 233.04 1006.29 237.04 1029.5 241.5C1025.56 253.324 1022.23 265.324 1019.5 277.5C996.408 274.373 973.408 270.707 950.5 266.5C953.027 254.057 956.027 241.724 959.5 229.5Z" fill="#f6f6f6" fill-rule="evenodd" opacity="1" stroke="none" />
<path d="M944.5 269.5C968.382 272.674 992.216 276.341 1016 280.5C1016.83 280.833 1017.67 281.167 1018.5 281.5C1017.21 284.021 1016.55 286.687 1016.5 289.5C993.049 286.425 969.715 282.591 946.5 278C942.121 275.985 941.454 273.151 944.5 269.5Z" fill="#eeefef" fill-rule="evenodd" opacity="1" stroke="none" />
</g>

</svg>