<?xml version="1.0" encoding="UTF-8"?>
<svg xmlns="http://www.w3.org/2000/svg" version="1.1" viewBox="1140.24 501.33 144.13 111.80" width="144.13" height="111.80" style="fill-rule:nonzero;clip-rule:evenodd;stroke-linecap:round;stroke-linejoin:round;" xml:space="preserve">
<g opacity="1">
<path d="M1258.5 507.5C1262.18 507.335 1265.85 507.501 1269.5 508C1276.87 511.315 1278.37 516.482 1274 523.5C1270.45 526.719 1266.61 529.552 1262.5 532C1242.52 540.984 1223.85 551.984 1206.5 565C1202.25 570.755 1199.75 577.255 1199 584.5C1191.23 600.637 1178.39 607.137 1160.5 604C1148.41 597.677 1146.24 588.844 1154 577.5C1159.9 570.797 1167.07 565.964 1175.5 563C1187.4 562.153 1197.73 557.82 1206.5 550C1216.8 540.697 1226.8 531.03 1236.5 521C1243.43 515.709 1250.76 511.209 1258.5 507.5Z" fill="#191919" fill-rule="evenodd" opacity="1" stroke="none" />
<path d="M1260.5 509.5C1272.86 508.022 1276.36 512.689 1271 523.5C1257.41 531.381 1243.57 538.881 1229.5 546C1222.33 550.419 1215.33 555.085 1208.5 560C1201.07 566.025 1197.24 573.859 1197 583.5C1189.28 598.61 1177.11 604.443 1160.5 601C1153.92 598.333 1151.08 593.499 1152 586.5C1155.44 578.059 1161.27 571.893 1169.5 568C1179.31 565.465 1188.97 562.465 1198.5 559C1203.01 555.909 1207.35 552.575 1211.5 549C1221.2 538.97 1231.2 529.303 1241.5 520C1247.64 515.936 1253.97 512.436 1260.5 509.5Z" fill="#f2f2f3" fill-rule="evenodd" opacity="1" stroke="none" />
<path d="M1190.5 571.5C1191.19 570.226 1192.02 570.226 1193 571.5C1193.79 580.096 1190.62 586.929 1183.5 592C1176.35 596.71 1168.68 598.043 1160.5 596C1157.14 594.758 1155.81 592.591 1156.5 589.5C1158.74 593.706 1162.24 595.706 1167 595.5C1176.77 594.784 1184.44 590.45 1190 582.5C1191.61 578.741 1191.77 575.074 1190.5 571.5Z" fill="#1a1b1a" fill-rule="evenodd" opacity="1" stroke="none" />
</g>

</svg>