<?xml version="1.0" encoding="UTF-8"?>
<svg xmlns="http://www.w3.org/2000/svg" version="1.1" viewBox="1341.50 479.33 130.73 149.86" width="130.73" height="149.86" style="fill-rule:nonzero;clip-rule:evenodd;stroke-linecap:round;stroke-linejoin:round;" xml:space="preserve">
<g opacity="1">
<path d="M1395.5 485.5C1398.85 485.335 1402.18 485.502 1405.5 486C1407.12 486.615 1408.45 487.615 1409.5 489C1416.46 488.717 1422.96 490.217 1429 493.5C1429.59 494.899 1429.43 496.232 1428.5 497.5C1435.86 500.189 1440.86 505.189 1443.5 512.5C1442.99 514.088 1441.99 515.255 1440.5 516C1445.94 522.544 1448.11 530.044 1447 538.5C1445.89 540.037 1444.39 540.703 1442.5 540.5C1442.77 545.913 1442.27 551.246 1441 556.5C1439.56 560.01 1437.23 561.677 1434 561.5C1433.36 562.966 1432.53 564.3 1431.5 565.5C1445.44 575.713 1451.44 589.38 1449.5 606.5C1453.86 604.121 1455.86 600.454 1455.5 595.5C1452.81 588.427 1450.97 581.094 1450 573.5C1446.02 565.793 1448.19 560.293 1456.5 557C1458.17 556.333 1459.83 556.333 1461.5 557C1464.47 562.947 1464.14 568.614 1460.5 574C1459.55 574.483 1458.55 574.649 1457.5 574.5C1458.76 579.686 1460.59 584.686 1463 589.5C1466.23 606.415 1459.4 615.748 1442.5 617.5C1441.64 619.197 1440.3 620.363 1438.5 621C1429.53 622.332 1420.53 622.665 1411.5 622C1410.03 621.365 1408.7 620.531 1407.5 619.5C1402.21 622.362 1396.54 623.195 1390.5 622C1384.94 620.761 1379.28 620.094 1373.5 620C1370.65 617.441 1369.82 614.274 1371 610.5C1372.26 608.393 1374.1 607.393 1376.5 607.5C1375.4 597.496 1374.23 587.496 1373 577.5C1366.76 573.762 1362.59 568.429 1360.5 561.5C1359.18 563.27 1357.68 563.603 1356 562.5C1354.42 557.09 1352.09 552.09 1349 547.5C1348.54 541.992 1349.37 536.658 1351.5 531.5C1348.93 531.048 1347.6 529.548 1347.5 527C1349 519.494 1352.67 513.327 1358.5 508.5C1357.03 505.207 1357.7 502.373 1360.5 500C1363.92 497.692 1367.59 495.858 1371.5 494.5C1370.37 491.744 1371.37 489.911 1374.5 489C1379.37 488.247 1384.21 488.414 1389 489.5C1391.3 488.273 1393.46 486.94 1395.5 485.5Z" fill="#1a1a1a" fill-rule="evenodd" opacity="1" stroke="none" />
<path d="M1394.5 598.5C1394.66 596.801 1394.49 595.134 1394 593.5C1393.88 595.437 1393.05 596.77 1391.5 597.5C1391.44 596.957 1391.11 596.624 1390.5 596.5C1389.51 600.107 1389.18 603.774 1389.5 607.5C1387.69 610.524 1386.52 613.858 1386 617.5C1384.3 618.406 1382.47 618.739 1380.5 618.5C1380.3 616.61 1380.96 615.11 1382.5 614C1381.55 613.383 1380.72 613.549 1380 614.5C1379.51 615.793 1379.34 617.127 1379.5 618.5C1378.5 618.5 1377.5 618.5 1376.5 618.5C1376.36 616.738 1376.69 615.071 1377.5 613.5C1376.83 612.167 1376.17 612.167 1375.5 613.5C1374.9 614.795 1374.4 616.128 1374 617.5C1373.06 616.737 1372.56 615.737 1372.5 614.5C1373.44 611.727 1375.27 609.727 1378 608.5C1377.73 601.018 1377.23 593.518 1376.5 586C1376.83 583.5 1377.17 581 1377.5 578.5C1378.17 578.167 1378.83 577.833 1379.5 577.5C1383 580.669 1387 583.002 1391.5 584.5C1396.15 583.675 1400.48 582.009 1404.5 579.5C1405.47 580.489 1406.63 581.156 1408 581.5C1415.01 580.409 1420.51 576.909 1424.5 571C1425.55 570.508 1426.55 570.674 1427.5 571.5C1428.72 570.737 1429.72 569.737 1430.5 568.5C1448.68 582.529 1451.68 599.029 1439.5 618C1432.26 619.296 1424.92 620.129 1417.5 620.5C1417.3 618.61 1417.96 617.11 1419.5 616C1419.17 615.833 1418.83 615.667 1418.5 615.5C1416.94 616.945 1415.6 618.611 1414.5 620.5C1413.67 618.527 1413.5 616.527 1414 614.5C1412.65 615.685 1411.48 617.019 1410.5 618.5C1409.27 616.157 1409.94 614.323 1412.5 613C1417.26 612.788 1421.92 612.622 1426.5 612.5C1417.53 608.995 1414.7 602.662 1418 593.5C1421.71 589.051 1426.54 587.218 1432.5 588C1424.58 584.027 1418.75 586.193 1415 594.5C1413.87 599.889 1414.7 604.889 1417.5 609.5C1415.31 610.221 1413.15 610.887 1411 611.5C1410.86 607.411 1410.69 603.411 1410.5 599.5C1408.84 605.141 1407.34 610.808 1406 616.5C1404.11 619.844 1401.27 621.178 1397.5 620.5C1398.29 613.895 1397.29 613.895 1394.5 620.5C1393.91 620.291 1393.41 619.957 1393 619.5C1393.05 617.687 1392.88 616.021 1392.5 614.5C1390.93 615.714 1390.1 617.381 1390 619.5C1387.38 615.129 1388.55 612.129 1393.5 610.5C1394.49 606.555 1394.82 602.555 1394.5 598.5Z" fill="#f1f1f1" fill-rule="evenodd" opacity="1" stroke="none" />
<path d="M1396.5 487.5C1399.19 487.336 1401.85 487.503 1404.5 488C1406.69 488.677 1407.02 489.844 1405.5 491.5C1406.33 491.833 1407.17 492.167 1408 492.5C1414.6 490.608 1420.77 491.441 1426.5 495C1424.39 495.424 1423.55 496.591 1424 498.5C1430.69 500.188 1436.02 503.854 1440 509.5C1440.49 510.793 1440.66 512.127 1440.5 513.5C1439.5 513.5 1438.5 513.5 1437.5 513.5C1439.06 517.578 1440.89 521.578 1443 525.5C1444.16 529.418 1444.66 533.418 1444.5 537.5C1443.07 537.579 1441.74 537.246 1440.5 536.5C1440.17 537 1439.83 537.5 1439.5 538C1441.41 545.206 1440.58 552.04 1437 558.5C1435.29 559.138 1433.46 559.138 1431.5 558.5C1431.17 561.311 1430.34 563.978 1429 566.5C1427.21 567.343 1425.38 567.51 1423.5 567C1420.5 573.495 1415.5 577.662 1408.5 579.5C1407.33 578.509 1406.17 577.509 1405 576.5C1399.35 580.792 1393.18 581.959 1386.5 580C1383.69 578.023 1381.02 575.856 1378.5 573.5C1377.45 574.383 1376.29 575.05 1375 575.5C1368.11 571.423 1363.61 565.423 1361.5 557.5C1360.18 559.27 1358.68 559.603 1357 558.5C1355.8 555.274 1355.3 551.941 1355.5 548.5C1354.17 548.5 1352.83 548.5 1351.5 548.5C1350.69 541.645 1352.02 535.312 1355.5 529.5C1353.95 528.548 1352.29 528.215 1350.5 528.5C1350.2 524.089 1351.37 520.089 1354 516.5C1356.83 513.667 1359.67 510.833 1362.5 508C1359.81 505.368 1360.14 503.034 1363.5 501C1366.49 498.89 1369.83 497.557 1373.5 497C1373.83 495.333 1374.17 493.667 1374.5 492C1379.55 490.03 1384.55 490.197 1389.5 492.5C1391.62 490.358 1393.95 488.692 1396.5 487.5Z" fill="#f2f2f2" fill-rule="evenodd" opacity="1" stroke="none" />
<path d="M1374.5 503.5C1379.72 503.364 1384.22 505.031 1388 508.5C1396.61 506.393 1404.78 507.393 1412.5 511.5C1417.01 506.631 1421.85 506.298 1427 510.5C1429.97 517.25 1428.47 522.75 1422.5 527C1426.84 550.661 1417.01 563.161 1393 564.5C1373.22 561.395 1365.22 550.062 1369 530.5C1370.03 527.246 1371.53 524.246 1373.5 521.5C1367.89 515.097 1368.22 509.097 1374.5 503.5Z" fill="#1b1b1b" fill-rule="evenodd" opacity="1" stroke="none" />
<path d="M1374.5 506.5C1376.86 506.337 1379.19 506.503 1381.5 507C1383.02 508.522 1384.52 510.022 1386 511.5C1395.51 508.23 1404.51 509.23 1413 514.5C1417.03 509.636 1421.37 509.302 1426 513.5C1426.75 516.303 1426.42 518.97 1425 521.5C1423.05 522.747 1421.22 524.08 1419.5 525.5C1424.71 552.134 1413.71 563.967 1386.5 561C1373.39 555.954 1368.22 546.454 1371 532.5C1372.11 528.509 1373.61 524.675 1375.5 521C1370.61 516.474 1370.27 511.641 1374.5 506.5Z" fill="#f2f2f2" fill-rule="evenodd" opacity="1" stroke="none" />
<path d="M1387.5 538.5C1398.5 537.874 1400.16 541.207 1392.5 548.5C1394.14 552.911 1396.81 553.577 1400.5 550.5C1401.59 551.868 1401.26 553.035 1399.5 554C1396.04 555.123 1393.21 554.29 1391 551.5C1387.93 554.059 1384.93 554.059 1382 551.5C1381.31 550.668 1381.48 550.002 1382.5 549.5C1385.89 552.484 1388.55 551.984 1390.5 548C1388.25 546.255 1386.58 544.088 1385.5 541.5C1385.94 540.261 1386.61 539.261 1387.5 538.5Z" fill="#171717" fill-rule="evenodd" opacity="1" stroke="none" />
<path d="M1403.5 529.5C1407.25 530.306 1408.25 532.472 1406.5 536C1405.21 536.49 1403.87 536.657 1402.5 536.5C1402.3 534.05 1402.63 531.717 1403.5 529.5Z" fill="#1b1b1c" fill-rule="evenodd" opacity="1" stroke="none" />
<path d="M1382.5 527.5C1386.17 528.184 1387.17 530.184 1385.5 533.5C1384.31 534.429 1382.98 534.762 1381.5 534.5C1381.3 532.05 1381.63 529.717 1382.5 527.5Z" fill="#1b1a1b" fill-rule="evenodd" opacity="1" stroke="none" />
<path d="M1418.5 513.5C1422.5 514.167 1422.5 514.833 1418.5 515.5C1418.97 519.97 1417.97 520.47 1415.5 517C1416.71 515.961 1417.71 514.794 1418.5 513.5Z" fill="#141313" fill-rule="evenodd" opacity="1" stroke="none" />
<path d="M1377.5 509.5C1379.54 510.031 1381.21 511.198 1382.5 513C1380.21 513.418 1378.21 512.751 1376.5 511C1377.06 510.617 1377.39 510.117 1377.5 509.5Z" fill="#202020" fill-rule="evenodd" opacity="1" stroke="none" />
<path d="M1394.5 598.5C1393.83 601.689 1393.17 605.023 1392.5 608.5C1391.51 604.893 1391.18 601.226 1391.5 597.5C1393.05 596.77 1393.88 595.437 1394 593.5C1394.49 595.134 1394.66 596.801 1394.5 598.5Z" fill="#7c7d7d" fill-rule="evenodd" opacity="1" stroke="none" />
<path d="M1391.5 597.5C1390.83 600.833 1390.17 604.167 1389.5 607.5C1389.18 603.774 1389.51 600.107 1390.5 596.5C1391.11 596.624 1391.44 596.957 1391.5 597.5Z" fill="#6a6c6b" fill-rule="evenodd" opacity="1" stroke="none" />
<path d="M1458.5 558.5C1459.65 558.791 1460.32 559.624 1460.5 561C1461.39 563.808 1461.55 566.641 1461 569.5C1459.74 571.607 1457.9 572.607 1455.5 572.5C1455.41 579.063 1457.24 585.063 1461 590.5C1463.76 603.031 1459.09 611.031 1447 614.5C1444.22 613.697 1444.05 612.197 1446.5 610C1456.41 606.679 1459.91 599.846 1457 589.5C1453.12 581.258 1451.12 572.591 1451 563.5C1452.91 560.72 1455.41 559.053 1458.5 558.5Z" fill="#e8e8e8" fill-rule="evenodd" opacity="1" stroke="none" />
</g>

</svg>