<?xml version="1.0" encoding="UTF-8" standalone="no"?>
<svg xmlns="http://www.w3.org/2000/svg" fill-rule="nonzero" clip-rule="evenodd" stroke-miterlimit="10" style="fill-rule:nonzero;clip-rule:evenodd;stroke-linecap:round;stroke-linejoin:round;"
     viewBox="24.9 455.5 191.9 198.9" xml:space="preserve">
<g opacity="1">
<path d="M61.5 471.5C77.0347 469.351 88.5347 475.018 96 488.5C96.9142 492.142 97.7475 495.808 98.5 499.5C105.903 498.06 113.236 498.393 120.5 500.5C128.763 475.031 145.096 467.531 169.5 478C183.956 490.71 186.456 505.543 177 522.5C170.457 530.688 161.957 535.021 151.5 535.5C151.797 541.776 151.13 547.942 149.5 554C149.599 556.548 150.932 558.048 153.5 558.5C151.167 559.167 148.833 559.833 146.5 560.5C145.752 562.332 144.752 563.999 143.5 565.5C151.272 571.768 157.772 579.101 163 587.5C166.583 596.904 167.417 606.571 165.5 616.5C172.89 615.612 177.723 611.612 180 604.5C180.667 600.167 180.667 595.833 180 591.5C177.804 586.58 175.804 581.58 174 576.5C170.888 563.229 175.388 553.729 187.5 548C193.926 546.35 199.426 547.85 204 552.5C204.749 553.635 204.583 554.635 203.5 555.5C199.251 555.652 194.918 555.818 190.5 556C184.15 559.708 181.65 565.208 183 572.5C186.745 580.901 189.578 589.568 191.5 598.5C191.244 612.577 184.577 622.077 171.5 627C166.857 627.83 162.19 628.497 157.5 629C156.044 631.905 154.711 634.905 153.5 638C138.998 641.093 124.332 642.426 109.5 642C107.884 641.385 106.551 640.385 105.5 639C96.4718 638.702 87.4718 639.202 78.5 640.5C67.7856 640.258 65.7856 636.091 72.5 628C76.0309 626.411 79.6976 625.245 83.5 624.5C80.1611 617.15 76.3278 610.15 72 603.5C71.3333 598.833 71.3333 594.167 72 589.5C74.4137 584.025 76.747 578.691 79 573.5C74.1122 569.946 69.9455 565.779 66.5 561C61.4372 560.855 56.4372 561.188 51.5 562C55.3431 559.138 59.6764 557.971 64.5 558.5C64.7394 556.533 64.4061 554.699 63.5 553C59.23 551.925 54.8967 551.425 50.5 551.5C50.5 550.5 50.5 549.5 50.5 548.5C54.8422 548.739 59.1756 549.073 63.5 549.5C63.0998 543.359 63.7665 537.359 65.5 531.5C45.3606 526.831 36.8606 514.164 40 493.5C44.0193 482.982 51.1859 475.648 61.5 471.5Z" fill="#191919" fill-rule="evenodd" opacity="1" stroke="none"/>
<path d="M61.5 474.5C76.8394 471.917 87.6728 477.583 94 491.5C95.1488 494.393 95.6488 497.393 95.5 500.5C92.4208 500.804 89.5875 501.804 87 503.5C84.4511 486 74.9511 479.833 58.5 485C57.3044 485.654 57.3044 486.154 58.5 486.5C70.2059 482.129 78.3725 485.795 83 497.5C83.6667 500.167 83.6667 502.833 83 505.5C74.9542 511.373 69.4542 519.04 66.5 528.5C50.9315 526.263 42.5981 517.263 41.5 501.5C42.877 488.472 49.5437 479.472 61.5 474.5Z" fill="#f4f4f4" fill-rule="evenodd" opacity="1" stroke="none"/>
<path d="M146.5 475.5C166.147 474.823 177.147 484.156 179.5 503.5C178.021 521.979 168.021 531.645 149.5 532.5C147.737 522.148 142.737 513.648 134.5 507C137.973 489.61 147.973 483.61 164.5 489C151.015 481.272 140.849 484.438 134 498.5C132.595 502.072 132.262 505.739 133 509.5C147.269 521.979 151.602 537.312 146 555.5C145.107 556.081 144.107 556.415 143 556.5C134.89 553.846 126.724 553.846 118.5 556.5C127.167 557.167 135.833 557.833 144.5 558.5C142.49 563.588 138.99 567.255 134 569.5C133.399 570.965 133.899 571.965 135.5 572.5C137.93 570.444 140.597 569.277 143.5 569C150.848 575.007 156.681 582.173 161 590.5C164.534 600.959 164.2 611.293 160 621.5C157.66 625.006 154.826 628.006 151.5 630.5C153.403 634.081 152.403 636.248 148.5 637C138.181 638.667 127.848 639.167 117.5 638.5C118.263 637.281 119.263 636.281 120.5 635.5C120 635.167 119.5 634.833 119 634.5C116.784 635.966 114.784 637.633 113 639.5C112.5 639.167 112 638.833 111.5 638.5C112.5 637.167 113.5 635.833 114.5 634.5C114.167 634.167 113.833 633.833 113.5 633.5C111.541 634.748 110.041 636.415 109 638.5C108.333 637.167 108.333 635.833 109 634.5C111.087 633.206 113.254 632.039 115.5 631C122.544 630.918 129.544 630.751 136.5 630.5C126.102 629.269 120.768 623.436 120.5 613C121.415 603.247 126.748 597.414 136.5 595.5C134.235 594.353 131.902 594.186 129.5 595C121.338 598.236 115.005 603.569 110.5 611C109.256 611.456 108.423 610.956 108 609.5C107.395 611.481 106.395 611.815 105 610.5C105.48 600.539 109.48 592.206 117 585.5C117.591 584.517 117.257 583.85 116 583.5C107.97 590.046 103.137 598.546 101.5 609C102.911 614.141 106.245 615.808 111.5 614C113.869 611.43 115.869 608.596 117.5 605.5C118.002 604.479 118.668 604.312 119.5 605C116.248 612.882 117.248 620.216 122.5 627C117.556 627.788 112.723 628.955 108 630.5C100.241 628.58 94.741 623.913 91.5 616.5C90.4661 620.716 91.7995 624.216 95.5 627C87.2619 626.456 82.5952 621.956 81.5 613.5C82.545 609.74 83.8784 606.074 85.5 602.5C84.7639 597.197 84.2639 591.863 84 586.5C82.7446 593.059 82.0779 599.726 82 606.5C80.8867 608.329 79.3867 609.163 77.5 609C71.5405 596.548 73.3738 585.381 83 575.5C92.6216 579.688 102.455 580.522 112.5 578C97.8019 579.211 84.9686 575.044 74 565.5C73.6886 564.258 74.1886 563.258 75.5 562.5C75.1667 562.167 74.8333 561.833 74.5 561.5C72.4143 563.023 70.7476 562.69 69.5 560.5C71.5 559.833 73.5 559.167 75.5 558.5C72.8333 557.833 70.1667 557.167 67.5 556.5C67.1667 555.833 66.8333 555.167 66.5 554.5C69.7499 554.192 73.0833 554.025 76.5 554C73.3175 552.534 69.9842 551.367 66.5 550.5C64.4744 530.384 72.1411 515.217 89.5 505C100.977 500.881 112.643 500.381 124.5 503.5C125.509 489.162 132.842 479.829 146.5 475.5Z" fill="#f3f3f4" fill-rule="evenodd" opacity="1" stroke="none"/>
<path d="M82.5 530.5C87.1554 530.489 89.4888 532.822 89.5 537.5C89.3362 543.522 86.5029 545.855 81 544.5C77.3988 539.353 77.8988 534.686 82.5 530.5Z" fill="#111111" fill-rule="evenodd" opacity="1" stroke="none"/>
<path d="M116.5 533.5C123.509 533.129 126.009 536.462 124 543.5C121.451 547.925 118.118 548.592 114 545.5C112.888 541.019 113.721 537.019 116.5 533.5Z" fill="#0c0c0c" fill-rule="evenodd" opacity="1" stroke="none"/>
<path d="M91.5 550.5C95.4587 550.071 98.9587 551.071 102 553.5C103.609 558.707 101.776 561.707 96.5 562.5C97.0767 567.805 100.077 569.638 105.5 568C108.493 564.389 109.493 564.722 108.5 569C103.87 571.112 99.3703 570.946 95 568.5C91.0019 571.443 87.3352 571.11 84 567.5C83.9495 563.809 85.1161 563.642 87.5 567C91.9174 568.568 93.9174 567.068 93.5 562.5C90.1971 561.958 88.1971 559.958 87.5 556.5C88.4316 554.235 89.7649 552.235 91.5 550.5Z" fill="#111111" fill-rule="evenodd" opacity="1" stroke="none"/>
<path d="M117.5 561.5C123.961 561.614 129.961 563.281 135.5 566.5C135 566.833 134.5 567.167 134 567.5C130.934 566.287 127.767 565.453 124.5 565C121.697 564.385 119.364 563.218 117.5 561.5Z" fill="#1d1d1d" fill-rule="evenodd" opacity="1" stroke="none"/>
<path d="M187.5 550.5C190.85 550.335 194.183 550.502 197.5 551C198.672 551.419 199.672 552.085 200.5 553C185.087 551.755 178.587 558.921 181 574.5C183.536 581.107 185.869 587.774 188 594.5C189.497 614.361 180.331 624.528 160.5 625C162.081 623.172 163.415 621.172 164.5 619C179.616 616.642 185.783 607.808 183 592.5C180.806 586.92 178.806 581.253 177 575.5C174.52 564.478 178.02 556.144 187.5 550.5Z" fill="#eaeaea" fill-rule="evenodd" opacity="1" stroke="none"/>
<path d="M77.5 628.5C81.5138 628.334 85.5138 628.501 89.5 629C95.1828 630.131 100.849 631.297 106.5 632.5C106.67 633.822 106.337 634.989 105.5 636C98.3162 636.297 91.1496 636.797 84 637.5C79.7051 637.017 79.5384 635.684 83.5 633.5C83 633.167 82.5 632.833 82 632.5C79.5745 634.452 77.0745 636.119 74.5 637.5C74.393 635.097 75.393 633.264 77.5 632C76.5 631.333 75.5 631.333 74.5 632C73.5399 633.419 72.7065 634.919 72 636.5C71.3076 635.975 70.8076 635.308 70.5 634.5C72.2885 631.7 74.6218 629.7 77.5 628.5Z" fill="#ebebeb" fill-rule="evenodd" opacity="1" stroke="none"/>
</g>
</svg>