<?xml version="1.0" encoding="UTF-8"?>
<svg xmlns="http://www.w3.org/2000/svg" version="1.1" viewBox="49.63 624.23 120.87 127.21" width="120.87" height="127.21" style="fill-rule:nonzero;clip-rule:evenodd;stroke-linecap:round;stroke-linejoin:round;" xml:space="preserve">
<g opacity="1">
<path d="M109.5 630.5C114.913 630.229 120.246 630.729 125.5 632C128.473 633.224 129.14 635.224 127.5 638C110.96 647.281 105.126 661.115 110 679.5C112.72 684.551 116.887 687.718 122.5 689C124.984 691.284 125.151 693.784 123 696.5C121.478 698.022 119.978 699.522 118.5 701C124.238 710.71 132.904 715.544 144.5 715.5C150.095 715.06 155.595 714.06 161 712.5C162.971 712.281 164.138 713.115 164.5 715C156.756 731.395 143.756 740.729 125.5 743C97.9526 745.438 78.1193 734.271 66 709.5C55.6301 679.61 63.4634 655.777 89.5 638C96.0214 634.775 102.688 632.275 109.5 630.5Z" fill="#1c1c1c" fill-rule="evenodd" opacity="1" stroke="none" />
<path d="M106.5 633.5C112.176 633.334 117.843 633.501 123.5 634C124.624 634.249 125.624 634.749 126.5 635.5C109.665 645.168 103.165 659.501 107 678.5C109.703 684.867 114.37 689.201 121 691.5C121.667 692.833 121.667 694.167 121 695.5C118.833 697 116.667 698.5 114.5 700C116.167 702.333 117.833 704.667 119.5 707C115.276 709.59 110.776 710.09 106 708.5C104.743 708.85 104.409 709.517 105 710.5C110.417 713.114 115.751 712.781 121 709.5C133.173 718.214 146.339 719.881 160.5 714.5C160.833 715 161.167 715.5 161.5 716C154.319 729.105 143.319 737.105 128.5 740C93.8129 743.726 72.3129 728.559 64 694.5C62.7013 663.311 76.868 642.978 106.5 633.5Z" fill="#f5f5f5" fill-rule="evenodd" opacity="1" stroke="none" />
<path d="M97.5 679.5C98.6935 679.97 99.3601 680.97 99.5 682.5C98.9953 685.018 97.9953 687.351 96.5 689.5C92.7218 688.631 89.0551 688.298 85.5 688.5C86.179 686.412 86.5123 684.412 86.5 682.5C88.4737 686.17 91.4737 687.337 95.5 686C97.229 684.211 97.8957 682.044 97.5 679.5Z" fill="#161616" fill-rule="evenodd" opacity="1" stroke="none" />
</g>

</svg>