<?xml version="1.0" encoding="UTF-8"?>
<svg xmlns="http://www.w3.org/2000/svg" version="1.1" viewBox="394.98 645.90 163.28 104.49" width="163.28" height="104.49" style="fill-rule:nonzero;clip-rule:evenodd;stroke-linecap:round;stroke-linejoin:round;" xml:space="preserve">
<g opacity="1">
<path d="M475.5 726.5C473.132 725.217 470.965 723.55 469 721.5C465.91 711.313 462.243 701.313 458 691.5C454.902 689.072 452.569 686.072 451 682.5C449.697 684.94 448.53 687.44 447.5 690C457.673 698.527 461.507 709.361 459 722.5C457.667 723.833 456.333 723.833 455 722.5C454.209 723.745 453.709 725.078 453.5 726.5C446.21 739.548 435.21 744.382 420.5 741C406.476 734.64 400.976 723.806 404 708.5C406.051 703.786 408.885 699.619 412.5 696C408.675 694.232 408.675 692.232 412.5 690C415.382 688.392 418.382 687.059 421.5 686C427.957 685.644 434.29 685.477 440.5 685.5C442.5 681.5 444.5 677.5 446.5 673.5C444.577 672.692 442.577 672.192 440.5 672C437.833 666.667 437.833 661.333 440.5 656C445.422 655.522 449.922 656.689 454 659.5C455.926 657.869 457.76 656.035 459.5 654C466.263 651.896 472.93 652.229 479.5 655C482.448 659.093 481.281 661.26 476 661.5C472.391 661.266 469.057 660.266 466 658.5C463.142 660.519 460.975 663.185 459.5 666.5C471.812 666.824 481.812 671.657 489.5 681C499.053 684.699 508.386 684.032 517.5 679C525.272 678.069 532.939 678.402 540.5 680C543.113 682.795 543.113 685.629 540.5 688.5C543.335 690.34 545.335 692.84 546.5 696C546.18 697.653 545.18 698.653 543.5 699C550.092 705.886 552.259 714.052 550 723.5C544.949 737.117 535.115 743.284 520.5 742C512.009 740.255 506.009 735.422 502.5 727.5C493.525 726.502 484.525 726.168 475.5 726.5Z" fill="#1a1a1a" fill-rule="evenodd" opacity="1" stroke="none" />
<path d="M460.5 669.5C471.756 669.378 480.923 673.711 488 682.5C489.252 685.014 489.752 687.68 489.5 690.5C479.062 690.951 468.729 690.451 458.5 689C451.432 681.651 452.099 675.151 460.5 669.5Z" fill="#f2f3f3" fill-rule="evenodd" opacity="1" stroke="none" />
<path d="M454.5 663.5C455.995 663.415 456.995 664.081 457.5 665.5C453.412 672.676 449.578 680.009 446 687.5C444.989 688.337 443.822 688.67 442.5 688.5C445.695 679.777 449.695 671.444 454.5 663.5Z" fill="#e7e8e8" fill-rule="evenodd" opacity="1" stroke="none" />
<path d="M445.5 658.5C451.533 659.08 453.033 662.08 450 667.5C448.981 668.687 447.814 669.687 446.5 670.5C446.786 666.613 446.453 662.613 445.5 658.5Z" fill="#d7d8d9" fill-rule="evenodd" opacity="1" stroke="none" />
<path d="M441.5 657.5C442.75 657.577 443.583 658.244 444 659.5C444.667 662.5 444.667 665.5 444 668.5C443 669.833 442 669.833 441 668.5C440.322 664.779 440.489 661.112 441.5 657.5Z" fill="#e4e4e4" fill-rule="evenodd" opacity="1" stroke="none" />
<path d="M462.5 654.5C468.261 654.709 468.594 655.542 463.5 657C461.787 658.378 460.453 660.045 459.5 662C458.365 662.749 457.365 662.583 456.5 661.5C458.523 659.147 460.523 656.814 462.5 654.5Z" fill="#e1e2e1" fill-rule="evenodd" opacity="1" stroke="none" />
<path d="M469.5 654.5C472.37 655.634 475.37 656.3 478.5 656.5C478.5 657.5 478.5 658.5 478.5 659.5C475.545 658.841 472.545 658.508 469.5 658.5C469.5 657.167 469.5 655.833 469.5 654.5Z" fill="#e7e7e7" fill-rule="evenodd" opacity="1" stroke="none" />
<path d="M518.5 680.5C524.842 680.334 531.175 680.5 537.5 681C540.346 681.879 541.013 683.546 539.5 686C533.833 686.333 528.167 686.667 522.5 687C518.533 687.483 514.866 688.816 511.5 691C505.833 691.667 500.167 691.667 494.5 691C491.694 689.695 490.86 687.528 492 684.5C497.416 685.639 502.916 685.806 508.5 685C512.229 684.156 515.563 682.656 518.5 680.5Z" fill="#e7e8e8" fill-rule="evenodd" opacity="1" stroke="none" />
<path d="M423.5 687.5C443.388 686.231 454.722 695.398 457.5 715C457.167 716.833 456.833 718.667 456.5 720.5C455.808 719.975 455.308 719.308 455 718.5C454.648 701.48 445.981 692.147 429 690.5C423.844 690.83 419.01 692.163 414.5 694.5C413.833 694.167 413.167 693.833 412.5 693.5C415.823 690.675 419.49 688.675 423.5 687.5Z" fill="#e5e6e6" fill-rule="evenodd" opacity="1" stroke="none" />
<path d="M521.5 688.5C526.511 688.334 531.511 688.501 536.5 689C539.128 690.626 541.461 692.626 543.5 695C537.653 693.266 531.653 691.766 525.5 690.5C521.671 690.887 518.004 691.887 514.5 693.5C513.304 693.154 513.304 692.654 514.5 692C517.069 691.102 519.402 689.935 521.5 688.5Z" fill="#d0d1d0" fill-rule="evenodd" opacity="1" stroke="none" />
<path d="M489.5 692.5C496.15 693.11 502.816 693.61 509.5 694C506.249 697.419 503.582 701.253 501.5 705.5C498.628 706.783 495.795 706.783 493 705.5C491.051 701.371 489.884 697.037 489.5 692.5Z" fill="#e8e8e8" fill-rule="evenodd" opacity="1" stroke="none" />
<path d="M465.5 693.5C472.833 693.5 480.167 693.5 487.5 693.5C487.606 698.877 489.273 703.71 492.5 708C495.146 708.497 497.813 708.664 500.5 708.5C500.5 709.833 500.5 711.167 500.5 712.5C496.429 712.234 492.429 712.567 488.5 713.5C485.266 705.073 479.932 703.406 472.5 708.5C469.898 703.629 467.565 698.629 465.5 693.5Z" fill="#efefef" fill-rule="evenodd" opacity="1" stroke="none" />
<path d="M509.5 695.5C511.17 695.751 512.67 696.418 514 697.5C516.333 701.5 518.667 705.5 521 709.5C521.667 710.5 521.667 711.5 521 712.5C517.147 706.776 513.313 701.109 509.5 695.5Z" fill="#d6d6d7" fill-rule="evenodd" opacity="1" stroke="none" />
<path d="M437.5 695.5C439.103 695.312 440.437 695.812 441.5 697C437.114 703.272 433.947 710.106 432 717.5C427.942 720.589 426.275 719.589 427 714.5C431.539 708.756 435.039 702.422 437.5 695.5Z" fill="#e2e2e3" fill-rule="evenodd" opacity="1" stroke="none" />
<path d="M507.5 700.5C509.346 700.222 510.68 700.889 511.5 702.5C509.473 705.221 507.973 708.221 507 711.5C505.989 712.337 504.822 712.67 503.5 712.5C503.33 708.002 504.663 704.002 507.5 700.5Z" fill="#ebebec" fill-rule="evenodd" opacity="1" stroke="none" />
<path d="M511.5 705.5C514.37 706.528 516.37 708.528 517.5 711.5C515.257 712.474 512.924 712.808 510.5 712.5C510.448 710.097 510.781 707.764 511.5 705.5Z" fill="#ececec" fill-rule="evenodd" opacity="1" stroke="none" />
<path d="M519.5 700.5C536.866 699.024 543.699 706.691 540 723.5C535.243 731.077 528.41 733.91 519.5 732C516.377 730.118 513.711 727.785 511.5 725C516.708 723.358 522.041 722.358 527.5 722C531.552 719.624 532.385 716.457 530 712.5C527.538 711.35 525.204 710.017 523 708.5C521.5 706.333 520 704.167 518.5 702C519.056 701.617 519.389 701.117 519.5 700.5Z" fill="#f0f1f1" fill-rule="evenodd" opacity="1" stroke="none" />
<path d="M421.5 693.5C426.167 693.5 430.833 693.5 435.5 693.5C435.709 695.714 434.876 697.381 433 698.5C422.407 696.464 415.074 700.464 411 710.5C408.929 724.703 414.929 733.036 429 735.5C445.633 732.21 451.299 722.544 446 706.5C444.315 704.983 442.815 703.316 441.5 701.5C441.865 700.098 442.699 699.098 444 698.5C451.633 705.069 454.299 713.402 452 723.5C446.373 736.399 436.539 741.566 422.5 739C407.407 732.311 402.574 721.144 408 705.5C411.454 700.206 415.954 696.206 421.5 693.5Z" fill="#e8e8e9" fill-rule="evenodd" opacity="1" stroke="none" />
<path d="M422.5 700.5C425.898 700.18 429.232 700.513 432.5 701.5C430.737 706.041 428.237 710.041 425 713.5C423.332 719.493 425.498 721.993 431.5 721C433.968 718.772 435.135 715.938 435 712.5C436.626 710.083 438.126 707.583 439.5 705C442.494 705.358 444.327 707.192 445 710.5C446.679 725.82 439.846 732.987 424.5 732C413.402 726.963 410.235 718.797 415 707.5C417.396 704.933 419.896 702.6 422.5 700.5Z" fill="#f2f2f2" fill-rule="evenodd" opacity="1" stroke="none" />
<path d="M475.5 726.5C474.265 726.721 473.265 727.388 472.5 728.5C468.918 726.88 465.918 724.547 463.5 721.5C462.614 722.325 462.281 723.325 462.5 724.5C459.519 726.069 456.519 726.735 453.5 726.5C453.709 725.078 454.209 723.745 455 722.5C456.333 723.833 457.667 723.833 459 722.5C461.507 709.361 457.673 698.527 447.5 690C448.53 687.44 449.697 684.94 451 682.5C452.569 686.072 454.902 689.072 458 691.5C462.243 701.313 465.91 711.313 469 721.5C470.965 723.55 473.132 725.217 475.5 726.5Z" fill="#e7e7e7" fill-rule="evenodd" opacity="1" stroke="none" />
<path d="M477.5 707.5C485.156 708.312 487.156 712.145 483.5 719C475.512 721.341 472.345 718.508 474 710.5C475.145 709.364 476.312 708.364 477.5 707.5Z" fill="#e7e7e8" fill-rule="evenodd" opacity="1" stroke="none" />
<path d="M509.5 719.5C513.228 719.205 516.895 718.539 520.5 717.5C519.167 717.167 517.833 716.833 516.5 716.5C510.661 716.969 504.994 717.635 499.5 718.5C495.815 718.895 492.148 719.062 488.5 719C487.209 716.91 487.876 715.576 490.5 715C499.881 714.194 509.215 714.36 518.5 715.5C521.289 713.702 524.289 713.202 527.5 714C528.833 715.667 528.833 717.333 527.5 719C510.848 723.308 493.848 724.975 476.5 724C470.782 721.414 467.949 716.914 468 710.5C465.5 704.833 463 699.167 460.5 693.5C460.833 693.167 461.167 692.833 461.5 692.5C464.458 696.83 466.958 701.497 469 706.5C469.712 711.333 471.212 715.833 473.5 720C477.848 722.161 482.015 721.995 486 719.5C487.648 721.028 489.648 721.695 492 721.5C497.825 720.691 503.658 720.025 509.5 719.5Z" fill="#dbdbdb" fill-rule="evenodd" opacity="1" stroke="none" />
<path d="M509.5 719.5C506.375 718.521 503.042 718.187 499.5 718.5C504.994 717.635 510.661 716.969 516.5 716.5C517.833 716.833 519.167 717.167 520.5 717.5C516.895 718.539 513.228 719.205 509.5 719.5Z" fill="#474947" fill-rule="evenodd" opacity="1" stroke="none" />
<path d="M522.5 715.5C523.978 715.238 525.311 715.571 526.5 716.5C525.833 716.833 525.167 717.167 524.5 717.5C523.287 717.253 522.62 716.586 522.5 715.5Z" fill="#171717" fill-rule="evenodd" opacity="1" stroke="none" />
<path d="M518.5 693.5C532.956 691.307 542.789 696.974 548 710.5C549.837 724.335 544.337 733.835 531.5 739C519.141 741.755 510.141 737.589 504.5 726.5C506.167 725.167 507.833 725.167 509.5 726.5C518.081 736.851 527.747 738.017 538.5 730C544.45 721.775 544.95 713.275 540 704.5C533.216 697.845 525.383 696.011 516.5 699C515.08 696.426 515.747 694.593 518.5 693.5Z" fill="#e8e8e8" fill-rule="evenodd" opacity="1" stroke="none" />
</g>

</svg>