<?xml version="1.0" encoding="UTF-8"?>
<svg xmlns="http://www.w3.org/2000/svg" version="1.1" viewBox="227.33 629.45 116.33 122.35" width="116.33" height="122.35" style="fill-rule:nonzero;clip-rule:evenodd;stroke-linecap:round;stroke-linejoin:round;" xml:space="preserve">
<g opacity="1">
<path d="M284.5 636.5C300.286 635.452 307.453 642.786 306 658.5C305.626 659.416 305.126 660.25 304.5 661C322.433 672.014 331.767 688.18 332.5 709.5C334.868 710.369 336.368 712.035 337 714.5C337.667 719.833 337.667 725.167 337 730.5C336.117 733.102 334.617 735.269 332.5 737C302.59 745.798 272.757 745.631 243 736.5C238.853 735.598 235.853 733.265 234 729.5C233.333 723.833 233.333 718.167 234 712.5C235.251 709.419 237.084 706.752 239.5 704.5C242.989 684.034 253.989 669.367 272.5 660.5C272.57 657.027 272.57 653.527 272.5 650C273.861 648.073 274.694 645.906 275 643.5C278.09 640.889 281.256 638.555 284.5 636.5Z" fill="#1b1b1b" fill-rule="evenodd" opacity="1" stroke="none" />
<path d="M294.5 717.5C299.167 717.5 303.833 717.5 308.5 717.5C308.726 724.876 308.392 732.209 307.5 739.5C303.202 740.2 298.869 740.533 294.5 740.5C294.5 732.833 294.5 725.167 294.5 717.5Z" fill="#f5f5f5" fill-rule="evenodd" opacity="1" stroke="none" />
<path d="M248.5 712.5C252.071 713.642 255.738 714.309 259.5 714.5C258.687 722.138 258.354 729.804 258.5 737.5C249.486 738.69 245.152 734.857 245.5 726C245.805 721.307 246.805 716.807 248.5 712.5Z" fill="#e8e8e8" fill-rule="evenodd" opacity="1" stroke="none" />
<path d="M277.5 717.5C282.5 717.5 287.5 717.5 292.5 717.5C292.646 725.196 292.313 732.862 291.5 740.5C286.5 740.5 281.5 740.5 276.5 740.5C276.233 732.778 276.566 725.111 277.5 717.5Z" fill="#ededed" fill-rule="evenodd" opacity="1" stroke="none" />
<path d="M313.5 715.5C317.03 714.989 320.196 715.656 323 717.5C323.713 724.203 323.546 730.87 322.5 737.5C318.5 738.167 314.5 738.833 310.5 739.5C310.5 731.833 310.5 724.167 310.5 716.5C311.791 716.737 312.791 716.404 313.5 715.5Z" fill="#efefef" fill-rule="evenodd" opacity="1" stroke="none" />
<path d="M261.5 715.5C266.141 716.127 270.807 716.46 275.5 716.5C274.793 724.146 274.46 731.813 274.5 739.5C270.098 739.772 265.765 739.439 261.5 738.5C260.268 730.82 260.268 723.153 261.5 715.5Z" fill="#ededed" fill-rule="evenodd" opacity="1" stroke="none" />
<path d="M331.5 711.5C333.173 712.343 334.34 713.676 335 715.5C336.196 722.002 335.362 728.168 332.5 734C330.026 736.099 327.359 736.599 324.5 735.5C325.815 729.013 325.815 722.513 324.5 716C326.563 713.975 328.896 712.475 331.5 711.5Z" fill="#e9eaea" fill-rule="evenodd" opacity="1" stroke="none" />
<path d="M238.5 708.5C241.122 709.811 243.789 711.145 246.5 712.5C245.902 713.795 245.402 715.128 245 716.5C244.501 722.157 244.334 727.824 244.5 733.5C240.264 733.313 237.431 731.313 236 727.5C234.912 720.859 235.745 714.525 238.5 708.5Z" fill="#eaebeb" fill-rule="evenodd" opacity="1" stroke="none" />
<path d="M273.5 662.5C275.824 662.662 277.491 663.828 278.5 666C283.006 666.834 287.506 667.667 292 668.5C294.578 666.981 297.411 666.148 300.5 666C301.333 665.167 302.167 664.333 303 663.5C321.148 673.785 329.981 689.451 329.5 710.5C317.431 713.848 305.098 715.181 292.5 714.5C275.487 715.076 258.82 713.076 242.5 708.5C243.919 686.954 254.252 671.621 273.5 662.5Z" fill="#f7f7f7" fill-rule="evenodd" opacity="1" stroke="none" />
<path d="M285.5 639.5C290.271 639.538 294.938 640.204 299.5 641.5C299.561 643.592 300.561 645.092 302.5 646C302.043 646.414 301.709 646.914 301.5 647.5C303.026 649.751 304.026 652.251 304.5 655C302.987 656.879 302.321 659.046 302.5 661.5C301.5 661.5 300.5 661.5 299.5 661.5C299.5 662.5 299.5 663.5 299.5 664.5C298.07 664.579 296.736 664.246 295.5 663.5C294.452 664.383 293.285 665.05 292 665.5C290 664.167 288 664.167 286 665.5C284.036 664.148 281.869 663.314 279.5 663C278.663 661.989 278.33 660.822 278.5 659.5C277.5 659.5 276.5 659.5 275.5 659.5C275.643 657.738 275.309 656.071 274.5 654.5C276.77 653.407 277.103 651.907 275.5 650C277.333 644.947 280.667 641.447 285.5 639.5Z" fill="#f2f2f2" fill-rule="evenodd" opacity="1" stroke="none" />
</g>

</svg>