<?xml version="1.0" encoding="UTF-8" standalone="no"?>
<svg xmlns="http://www.w3.org/2000/svg" fill-rule="nonzero" clip-rule="evenodd" stroke-miterlimit="10" style="fill-rule:nonzero;clip-rule:evenodd;stroke-linecap:round;stroke-linejoin:round;"
     viewBox="288.3 468.5 172.5 179.4" xml:space="preserve">
<g opacity="1">
<path d="M346.5 480.5C347.833 480.5 349.167 480.5 350.5 480.5C349.058 510.596 342.725 539.596 331.5 567.5C318.088 572.078 309.254 581.078 305 594.5C302.614 607.371 307.114 616.871 318.5 623C324.486 623.909 330.486 624.743 336.5 625.5C319.789 630.058 308.289 624.058 302 607.5C300.335 587.003 309.168 573.169 328.5 566C330.718 562.395 332.552 558.562 334 554.5C341.593 530.428 345.76 505.761 346.5 480.5Z" fill="#181818" fill-rule="evenodd" opacity="1" stroke="none"/>
<path d="M398.5 480.5C399.5 480.5 400.5 480.5 401.5 480.5C402.234 507.568 407.067 533.901 416 559.5C417.039 561.746 418.206 563.913 419.5 566C440.363 573.841 448.863 588.674 445 610.5C439.847 622.34 430.681 628.007 417.5 627.5C415.5 627.333 413.5 627.167 411.5 627C411.043 626.586 410.709 626.086 410.5 625.5C417.609 624.916 424.609 623.749 431.5 622C441.865 615.266 445.699 605.766 443 593.5C438.833 581.333 430.667 573.167 418.5 569C416.288 566.079 414.455 562.912 413 559.5C403.946 533.957 399.112 507.624 398.5 480.5Z" fill="#171717" fill-rule="evenodd" opacity="1" stroke="none"/>
<path d="M327.5 610.5C334.11 609.593 340.11 611.093 345.5 615C363.847 635.259 382.514 635.592 401.5 616C406.982 611.092 413.315 609.426 420.5 611C423.993 612.478 424.326 614.478 421.5 617C414.955 618.99 408.288 620.656 401.5 622C396.698 625.238 391.698 628.238 386.5 631C372.467 635.861 360.133 633.194 349.5 623C342.167 621.333 334.833 619.667 327.5 618C323.518 615.309 323.518 612.809 327.5 610.5Z" fill="#151515" fill-rule="evenodd" opacity="1" stroke="none"/>
<path d="M328.5 613.5C334.456 612.875 339.789 614.375 344.5 618C339.437 618.102 334.437 617.435 329.5 616C328.748 615.329 328.414 614.496 328.5 613.5Z" fill="#d5d5d5" fill-rule="evenodd" opacity="1" stroke="none"/>
<path d="M411.5 613.5C414.247 613.187 416.914 613.52 419.5 614.5C419.167 614.833 418.833 615.167 418.5 615.5C413.915 617.153 409.248 617.987 404.5 618C406.592 615.964 408.926 614.464 411.5 613.5Z" fill="#dfe0df" fill-rule="evenodd" opacity="1" stroke="none"/>
</g>
</svg>