<?xml version="1.0" encoding="UTF-8"?>
<svg xmlns="http://www.w3.org/2000/svg" version="1.1" viewBox="584.50 654.50 131.00 90.35" width="131.00" height="90.35" style="fill-rule:nonzero;clip-rule:evenodd;stroke-linecap:round;stroke-linejoin:round;" xml:space="preserve">
<g opacity="1">
<path d="M683.5 667.5C679.411 665.708 675.244 664.041 671 662.5C669.174 663.01 669.007 663.844 670.5 665C664.667 665.098 659.001 664.598 653.5 663.5C660.544 663.905 667.378 662.905 674 660.5C677.666 661.194 681.166 662.194 684.5 663.5C684.567 664.959 684.234 666.292 683.5 667.5Z" fill="#d7d8d7" fill-rule="evenodd" opacity="1" stroke="none" />
<path d="M653.5 663.5C659.001 664.598 664.667 665.098 670.5 665C669.007 663.844 669.174 663.01 671 662.5C675.244 664.041 679.411 665.708 683.5 667.5C686.653 668.995 689.819 670.662 693 672.5C693.219 671.062 693.719 669.729 694.5 668.5C699.36 672.53 702.86 677.53 705 683.5C707.458 679.619 708.958 679.786 709.5 684C708.174 689.758 707.341 695.591 707 701.5C706.443 703.615 705.609 705.615 704.5 707.5C705.391 708.59 706.391 708.59 707.5 707.5C707.833 708 708.167 708.5 708.5 709C704.8 714.366 700.133 718.7 694.5 722C695.938 722.219 697.271 722.719 698.5 723.5C698.291 724.086 697.957 724.586 697.5 725C687.921 728.805 678.255 732.138 668.5 735C668.957 735.414 669.291 735.914 669.5 736.5C668.167 736.833 666.833 737.167 665.5 737.5C658.507 737.364 651.507 737.03 644.5 736.5C639.791 738.682 635.124 738.848 630.5 737C631.328 736.085 632.328 735.419 633.5 735C626.231 733.262 618.898 731.929 611.5 731C610.354 728.443 611.354 727.11 614.5 727C608.875 724.521 603.542 721.521 598.5 718C597.663 716.989 597.33 715.822 597.5 714.5C598.873 714.657 600.207 714.49 601.5 714C596.36 707.219 592.693 699.719 590.5 691.5C592.143 691.48 593.476 692.147 594.5 693.5C594.833 693.167 595.167 692.833 595.5 692.5C593.738 688.998 593.238 685.332 594 681.5C596.09 680.209 597.424 680.876 598 683.5C602.246 678.009 606.246 672.342 610 666.5C610.98 668.059 611.813 669.726 612.5 671.5C620.164 668.585 627.664 665.252 635 661.5C638.013 662.045 638.179 663.211 635.5 665C640.207 664.021 645.04 663.187 650 662.5C651.385 662.514 652.551 662.848 653.5 663.5Z" fill="#191919" fill-rule="evenodd" opacity="1" stroke="none" />
<path d="M632.5 663.5C633.043 663.56 633.376 663.893 633.5 664.5C632.737 665.719 631.737 666.719 630.5 667.5C631 667.833 631.5 668.167 632 668.5C637.681 666.297 643.514 665.13 649.5 665C649.167 665.333 648.833 665.667 648.5 666C657.395 665.806 666.062 666.972 674.5 669.5C675.167 669.333 675.833 669.167 676.5 669C675.5 668 674.5 667 673.5 666C677.274 666.554 680.608 668.22 683.5 671C688.254 671.961 692.421 674.128 696 677.5C696.195 675.793 696.195 674.126 696 672.5C700.674 677.184 703.174 682.851 703.5 689.5C704.667 687.833 705.833 686.167 707 684.5C707.078 690.754 704.578 695.754 699.5 699.5C700.002 700.521 700.668 700.688 701.5 700C702.667 698.833 703.833 697.667 705 696.5C704.886 702.329 702.719 707.329 698.5 711.5C700.5 711.5 702.5 711.5 704.5 711.5C698.56 714.96 693.227 719.127 688.5 724C689.833 724.333 691.167 724.667 692.5 725C687.97 726.632 683.304 727.632 678.5 728C676.626 730.018 674.293 731.184 671.5 731.5C668.462 730.633 665.462 730.966 662.5 732.5C663.167 733.167 663.833 733.833 664.5 734.5C659.039 735.957 653.706 735.623 648.5 733.5C644.167 734.801 639.834 735.634 635.5 736C636.833 735 638.167 734 639.5 733C631.669 731.315 623.669 730.148 615.5 729.5C617.167 728.833 618.833 728.167 620.5 727.5C614.382 724.607 608.382 721.441 602.5 718C605.5 718.333 608.5 718.667 611.5 719C607.421 716.925 603.921 714.092 601 710.5C600.312 709.668 600.479 709.002 601.5 708.5C602.768 709.428 604.101 709.595 605.5 709C599.971 706.305 595.971 702.138 593.5 696.5C593.833 696.167 594.167 695.833 594.5 695.5C595.916 697.139 597.583 697.973 599.5 698C597.203 694.113 596.369 689.946 597 685.5C599.905 692.005 601.238 691.338 601 683.5C601.667 681.5 603 680.167 605 679.5C605.806 676.554 607.139 673.888 609 671.5C608.591 673.225 608.758 674.892 609.5 676.5C612.839 672.655 616.839 670.821 621.5 671C624.957 668.039 628.623 665.539 632.5 663.5Z" fill="#eaebeb" fill-rule="evenodd" opacity="1" stroke="none" />
<path d="M630.5 712.5C636.663 714.552 642.996 715.885 649.5 716.5C643.313 717.798 637.313 717.132 631.5 714.5C630.702 714.043 630.369 713.376 630.5 712.5Z" fill="#2c2c2c" fill-rule="evenodd" opacity="1" stroke="none" />
<path d="M679.5 710.5C681.842 710.775 681.842 711.608 679.5 713C674.726 716.729 669.393 718.062 663.5 717C669.192 715.652 674.525 713.485 679.5 710.5Z" fill="#222322" fill-rule="evenodd" opacity="1" stroke="none" />
<path d="M612.5 711.5C616.879 713.237 621.212 715.07 625.5 717C621.357 716.901 617.357 715.901 613.5 714C612.748 713.329 612.414 712.496 612.5 711.5Z" fill="#252626" fill-rule="evenodd" opacity="1" stroke="none" />
<path d="M694.5 707.5C695.376 707.369 696.043 707.702 696.5 708.5C693.936 711.849 690.603 713.349 686.5 713C689.756 711.884 692.422 710.051 694.5 707.5Z" fill="#161717" fill-rule="evenodd" opacity="1" stroke="none" />
<path d="M662.5 709.5C665.113 710.095 665.113 710.929 662.5 712C657.051 712.896 651.718 712.563 646.5 711C652.016 710.827 657.349 710.327 662.5 709.5Z" fill="#292a2a" fill-rule="evenodd" opacity="1" stroke="none" />
<path d="M684.5 704.5C685.645 705.793 685.311 706.959 683.5 708C681.741 708.798 680.074 708.631 678.5 707.5C680.594 706.482 682.594 705.482 684.5 704.5Z" fill="#454547" fill-rule="evenodd" opacity="1" stroke="none" />
<path d="M634.5 705.5C635.274 704.853 636.274 704.52 637.5 704.5C641.155 705.082 644.822 705.582 648.5 706C643.748 706.773 639.081 706.607 634.5 705.5Z" fill="#1e1e1d" fill-rule="evenodd" opacity="1" stroke="none" />
<path d="M621.5 705.5C621.56 704.957 621.893 704.624 622.5 704.5C625.796 705.765 629.129 706.932 632.5 708C628.538 708.514 624.871 707.68 621.5 705.5Z" fill="#3e4041" fill-rule="evenodd" opacity="1" stroke="none" />
<path d="M607.5 705.5C608.601 704.402 609.934 704.235 611.5 705C613.842 706.171 616.176 707.338 618.5 708.5C618 708.833 617.5 709.167 617 709.5C613.865 708.014 610.698 706.68 607.5 705.5Z" fill="#2e2d2d" fill-rule="evenodd" opacity="1" stroke="none" />
<path d="M677.5 701.5C679.379 701.393 679.712 701.893 678.5 703C673.804 705.68 668.804 706.68 663.5 706C668.38 704.788 673.047 703.288 677.5 701.5Z" fill="#272728" fill-rule="evenodd" opacity="1" stroke="none" />
<path d="M618.5 700.5C618.56 699.957 618.893 699.624 619.5 699.5C621.51 700.502 623.51 701.502 625.5 702.5C622.857 703.367 620.523 702.7 618.5 700.5Z" fill="#2d2d2d" fill-rule="evenodd" opacity="1" stroke="none" />
<path d="M696.5 694.5C698.028 694.517 698.528 695.184 698 696.5C695.102 700.783 691.268 703.283 686.5 704C688.833 702.333 691.167 700.667 693.5 699C695.141 697.871 696.141 696.371 696.5 694.5Z" fill="#1c1b1c" fill-rule="evenodd" opacity="1" stroke="none" />
<path d="M604.5 696.5C606.595 697.412 608.595 698.579 610.5 700C611.451 700.718 611.617 701.551 611 702.5C609.829 701.107 608.329 700.273 606.5 700C605.177 699.184 604.511 698.017 604.5 696.5Z" fill="#323231" fill-rule="evenodd" opacity="1" stroke="none" />
<path d="M693.5 681.5C694.077 680.227 694.743 680.227 695.5 681.5C697.347 686.808 696.013 691.141 691.5 694.5C691.167 694.333 690.833 694.167 690.5 694C694.377 690.409 695.377 686.242 693.5 681.5Z" fill="#292928" fill-rule="evenodd" opacity="1" stroke="none" />
<path d="M609.5 679.5C610.239 679.369 610.906 679.536 611.5 680C607.323 684.954 607.657 689.62 612.5 694C608.63 693.273 606.63 690.773 606.5 686.5C607.025 683.971 608.025 681.638 609.5 679.5Z" fill="#282828" fill-rule="evenodd" opacity="1" stroke="none" />
<path d="M675.5 674.5C681.089 673.99 685.922 675.99 690 680.5C690.667 681.167 690.667 681.833 690 682.5C686.226 677.889 681.393 675.222 675.5 674.5Z" fill="#343435" fill-rule="evenodd" opacity="1" stroke="none" />
<path d="M637.5 673.5C634.721 673.279 632.054 673.612 629.5 674.5C624.118 674.858 619.452 676.858 615.5 680.5C614.707 679.645 615.04 678.811 616.5 678C622.936 673.136 629.936 671.636 637.5 673.5Z" fill="#444444" fill-rule="evenodd" opacity="1" stroke="none" />
<path d="M629.5 674.5C632.054 673.612 634.721 673.279 637.5 673.5C640.022 673.878 642.355 674.711 644.5 676C647.833 676.333 651.167 676.667 654.5 677C647.147 676.733 646.147 678.566 651.5 682.5C662.426 668.632 672.26 669.298 681 684.5C681.497 686.81 681.663 689.143 681.5 691.5C684.127 691.707 685.793 690.54 686.5 688C685.513 685.679 683.846 684.013 681.5 683C690.046 684.83 691.046 688.497 684.5 694C677.525 697.771 670.192 700.104 662.5 701C664.815 699.632 664.815 698.799 662.5 698.5C655.397 701.757 648.23 702.09 641 699.5C630.443 700.735 621.443 697.402 614 689.5C613.333 687.833 613.333 686.167 614 684.5C614.308 685.308 614.808 685.975 615.5 686.5C617.574 683.922 620.24 682.422 623.5 682C624.69 678.75 626.69 676.25 629.5 674.5Z" fill="#1a1a1b" fill-rule="evenodd" opacity="1" stroke="none" />
<path d="M620.5 683.5C621.586 683.62 622.253 684.287 622.5 685.5C622.085 687.909 621.418 690.242 620.5 692.5C618.833 691.5 617.5 690.167 616.5 688.5C617.857 686.814 619.19 685.148 620.5 683.5Z" fill="#e3e3e3" fill-rule="evenodd" opacity="1" stroke="none" />
<path d="M662.5 675.5C672.8 675.128 678.467 680.128 679.5 690.5C679.61 692.374 678.944 693.874 677.5 695C674.51 695.897 671.51 696.731 668.5 697.5C667.833 696.5 667.167 695.5 666.5 694.5C663.03 695.988 659.53 697.321 656 698.5C655.679 694.044 654.513 689.878 652.5 686C654.677 681.325 658.01 677.825 662.5 675.5Z" fill="#f1f1f1" fill-rule="evenodd" opacity="1" stroke="none" />
<path d="M632.5 675.5C646.212 676.886 652.879 684.553 652.5 698.5C645.5 698.077 638.5 697.577 631.5 697C629.446 696.985 627.446 696.152 625.5 694.5C623.087 686.34 625.42 680.007 632.5 675.5Z" fill="#f1f1f1" fill-rule="evenodd" opacity="1" stroke="none" />
<path d="M681.5 719.5C682.552 719.351 683.552 719.517 684.5 720C680.388 722.546 676.055 723.713 671.5 723.5C675.007 722.337 678.341 721.004 681.5 719.5Z" fill="#323333" fill-rule="evenodd" opacity="1" stroke="none" />
<path d="M644.5 721.5C649.511 721.334 654.511 721.501 659.5 722C656.402 722.918 653.235 723.418 650 723.5C647.705 723.453 645.871 722.787 644.5 721.5Z" fill="#393a3a" fill-rule="evenodd" opacity="1" stroke="none" />
<path d="M618.5 720.5C618.56 719.957 618.893 719.624 619.5 719.5C628.019 723.101 636.685 726.101 645.5 728.5C635.892 728.178 626.892 725.511 618.5 720.5Z" fill="#313232" fill-rule="evenodd" opacity="1" stroke="none" />
<path d="M665.5 725.5C666.376 725.369 667.043 725.702 667.5 726.5C663.156 728.759 658.822 728.925 654.5 727C658.356 726.823 662.023 726.323 665.5 725.5Z" fill="#313232" fill-rule="evenodd" opacity="1" stroke="none" />
</g>

</svg>