<?xml version="1.0" encoding="UTF-8"?>
<svg xmlns="http://www.w3.org/2000/svg" version="1.1" viewBox="768.29 622.15 148.75 145.62" width="148.75" height="145.62" style="fill-rule:nonzero;clip-rule:evenodd;stroke-linecap:round;stroke-linejoin:round;" xml:space="preserve">
<g opacity="1">
<path d="M901.5 628.5C904.602 628.154 907.435 628.821 910 630.5C911.041 633.636 910.207 636.136 907.5 638C891.156 643.67 874.822 649.337 858.5 655C855.167 659.333 851.833 663.667 848.5 668C846.045 669.312 843.545 670.478 841 671.5C839.432 678.159 839.265 684.826 840.5 691.5C849.912 693.016 858.912 695.849 867.5 700C873.785 705.268 875.285 711.768 872 719.5C865.993 739.176 853.16 751.676 833.5 757C824.021 758.06 814.688 757.393 805.5 755C800.709 751.432 795.709 748.098 790.5 745C779.457 734.539 774.29 721.705 775 706.5C779.834 699.205 786.668 695.038 795.5 694C801.679 692.376 808.012 691.21 814.5 690.5C814.305 686.453 814.638 682.453 815.5 678.5C813.33 675.49 811.164 672.49 809 669.5C808.619 666.959 807.786 664.626 806.5 662.5C806.608 661.558 806.941 660.725 807.5 660C810.615 659.448 812.948 657.781 814.5 655C820.976 653.332 827.476 652.832 834 653.5C839.892 651.048 846.059 649.881 852.5 650C868.527 641.943 884.861 634.776 901.5 628.5Z" fill="#1b1b1b" fill-rule="evenodd" opacity="1" stroke="none" />
<path d="M793.5 708.5C798.603 707.664 802.937 708.998 806.5 712.5C805.421 714.876 804.088 715.043 802.5 713C797.213 711.312 793.213 712.812 790.5 717.5C789.28 717.113 788.613 716.28 788.5 715C789.283 712.062 790.95 709.896 793.5 708.5Z" fill="#e0e1e1" fill-rule="evenodd" opacity="1" stroke="none" />
<path d="M847.5 708.5C854.695 706.916 859.029 709.583 860.5 716.5C859.448 716.649 858.448 716.483 857.5 716C854.43 711.152 850.43 710.319 845.5 713.5C844.417 712.635 844.251 711.635 845 710.5C845.995 709.934 846.828 709.267 847.5 708.5Z" fill="#e9e9e9" fill-rule="evenodd" opacity="1" stroke="none" />
<path d="M843.5 699.5C848.557 698.847 852.557 700.513 855.5 704.5C859.141 704.795 861.975 706.461 864 709.5C864.798 711.259 864.631 712.926 863.5 714.5C861.62 711.909 859.62 709.409 857.5 707C854.441 706.942 852.108 705.609 850.5 703C848.5 702.333 846.5 702.333 844.5 703C842.026 705.099 839.359 705.599 836.5 704.5C838.37 702.076 840.703 700.409 843.5 699.5Z" fill="#e7e8e8" fill-rule="evenodd" opacity="1" stroke="none" />
<path d="M844.5 704.5C846.604 704.201 848.604 704.534 850.5 705.5C847.975 706.957 845.308 708.291 842.5 709.5C841.692 709.192 841.025 708.692 840.5 708C841.731 706.595 843.064 705.429 844.5 704.5Z" fill="#e1e2e2" fill-rule="evenodd" opacity="1" stroke="none" />
<path d="M821.5 704.5C834.062 703.071 842.062 708.405 845.5 720.5C842.151 717.659 838.817 714.492 835.5 711C823.725 705.7 814.392 708.7 807.5 720C806.552 720.483 805.552 720.649 804.5 720.5C805.366 716.114 807.699 712.614 811.5 710C814.55 707.497 817.883 705.664 821.5 704.5Z" fill="#e3e3e3" fill-rule="evenodd" opacity="1" stroke="none" />
<path d="M789.5 697.5C791.199 697.34 792.866 697.506 794.5 698C792.121 701.035 789.121 703.369 785.5 705C783.338 706.645 782.005 708.812 781.5 711.5C780.132 712.594 778.965 712.26 778 710.5C777.333 708.833 777.333 707.167 778 705.5C781.464 702.195 785.297 699.528 789.5 697.5Z" fill="#e6e6e6" fill-rule="evenodd" opacity="1" stroke="none" />
<path d="M793.5 702.5C800.228 701.741 805.895 703.741 810.5 708.5C809.833 708.833 809.167 709.167 808.5 709.5C798.401 702.649 790.734 704.649 785.5 715.5C783.079 713.824 782.912 711.824 785 709.5C787.441 706.546 790.275 704.213 793.5 702.5Z" fill="#e3e4e3" fill-rule="evenodd" opacity="1" stroke="none" />
<path d="M808.5 699.5C810.617 701.063 812.95 702.396 815.5 703.5C815.081 704.672 814.415 705.672 813.5 706.5C810.241 704.1 806.574 702.767 802.5 702.5C802.5 701.5 802.5 700.5 802.5 699.5C804.5 699.5 806.5 699.5 808.5 699.5Z" fill="#dcdddd" fill-rule="evenodd" opacity="1" stroke="none" />
<path d="M852.5 696.5C859.236 697.784 865.069 700.784 870 705.5C871.09 708.579 870.257 710.912 867.5 712.5C866.194 711.088 865.36 709.421 865 707.5C860.024 704.687 855.858 701.02 852.5 696.5Z" fill="#e4e5e5" fill-rule="evenodd" opacity="1" stroke="none" />
<path d="M839.5 697.5C841.337 697.639 841.67 698.306 840.5 699.5C839.702 699.043 839.369 698.376 839.5 697.5Z" fill="#d9d9d9" fill-rule="evenodd" opacity="1" stroke="none" />
<path d="M808.5 699.5C808.97 698.307 809.97 697.64 811.5 697.5C812.5 697.833 813.5 698.167 814.5 698.5C812.604 699.466 810.604 699.799 808.5 699.5Z" fill="#ecebeb" fill-rule="evenodd" opacity="1" stroke="none" />
<path d="M840.5 693.5C844.23 693.854 847.563 695.187 850.5 697.5C846.03 698.93 842.697 697.596 840.5 693.5Z" fill="#d9dada" fill-rule="evenodd" opacity="1" stroke="none" />
<path d="M809.5 692.5C811.167 692.5 812.833 692.5 814.5 692.5C814.5 693.5 814.5 694.5 814.5 695.5C807.947 695.773 801.947 697.773 796.5 701.5C795.246 699.741 795.579 698.241 797.5 697C801.698 695.722 805.698 694.222 809.5 692.5Z" fill="#cfd0d0" fill-rule="evenodd" opacity="1" stroke="none" />
<path d="M818.5 676.5C820.256 677.552 820.923 679.219 820.5 681.5C817.591 688.324 817.925 694.99 821.5 701.5C819.218 702.9 817.718 702.234 817 699.5C816.065 697.091 815.565 694.591 815.5 692C816.3 686.661 817.3 681.494 818.5 676.5Z" fill="#dfe0e0" fill-rule="evenodd" opacity="1" stroke="none" />
<path d="M827.5 655.5C828.601 654.402 829.934 654.235 831.5 655C838.177 661.846 840.343 670.012 838 679.5C837.399 681.137 836.899 682.803 836.5 684.5C839.679 691.4 838.846 697.734 834 703.5C834.544 691.198 834.877 678.864 835 666.5C833.971 661.759 831.471 658.092 827.5 655.5Z" fill="#dddedd" fill-rule="evenodd" opacity="1" stroke="none" />
<path d="M818.5 676.5C819.209 675.596 820.209 675.263 821.5 675.5C821.795 677.735 821.461 679.735 820.5 681.5C820.923 679.219 820.256 677.552 818.5 676.5Z" fill="#606461" fill-rule="evenodd" opacity="1" stroke="none" />
<path d="M821.5 656.5C823.435 655.291 825.435 655.458 827.5 657C831.549 662.448 833.549 668.615 833.5 675.5C832.704 679.479 832.037 683.479 831.5 687.5C832.571 692.188 832.571 696.854 831.5 701.5C827.264 692.448 826.931 683.115 830.5 673.5C830.05 668.778 828.55 664.444 826 660.5C824.629 658.959 823.129 657.625 821.5 656.5Z" fill="#e0e0e0" fill-rule="evenodd" opacity="1" stroke="none" />
<path d="M815.5 670.5C817.5 670.5 819.5 670.5 821.5 670.5C821.5 671.5 821.5 672.5 821.5 673.5C819.076 673.808 816.743 673.474 814.5 672.5C814.863 671.817 815.196 671.15 815.5 670.5Z" fill="#dddcdd" fill-rule="evenodd" opacity="1" stroke="none" />
<path d="M815.5 664.5C816.873 664.343 818.207 664.51 819.5 665C820.451 665.718 820.617 666.551 820 667.5C817.205 668.783 814.372 668.783 811.5 667.5C812.624 666.141 813.958 665.141 815.5 664.5Z" fill="#d9dad9" fill-rule="evenodd" opacity="1" stroke="none" />
<path d="M808.5 661.5C811.572 661.183 814.572 661.516 817.5 662.5C816 662.833 814.5 663.167 813 663.5C811.014 663.431 809.514 662.765 808.5 661.5Z" fill="#e2e3e3" fill-rule="evenodd" opacity="1" stroke="none" />
<path d="M815.5 656.5C821.034 657.53 824.534 660.863 826 666.5C826.562 674.01 826.395 681.51 825.5 689C825.433 692.967 826.099 696.8 827.5 700.5C827.167 701.167 826.833 701.833 826.5 702.5C824.854 701.221 823.687 699.555 823 697.5C822.306 694.532 821.806 691.532 821.5 688.5C823.115 681.906 823.615 675.239 823 668.5C821.679 663.648 818.846 660.148 814.5 658C815.056 657.617 815.389 657.117 815.5 656.5Z" fill="#e3e3e3" fill-rule="evenodd" opacity="1" stroke="none" />
<path d="M902.5 630.5C904.722 630.178 906.556 630.845 908 632.5C908.507 633.996 908.007 635.163 906.5 636C891.5 641 876.5 646 861.5 651C858.751 652.123 856.251 653.623 854 655.5C852.213 662.789 847.713 667.123 840.5 668.5C840.328 666.508 840.995 664.842 842.5 663.5C841.311 662.571 839.978 662.238 838.5 662.5C838.919 659.675 837.919 657.509 835.5 656C835.833 655.667 836.167 655.333 836.5 655C841.416 653.839 846.416 653.173 851.5 653C868.11 644.416 885.11 636.916 902.5 630.5Z" fill="#eaebeb" fill-rule="evenodd" opacity="1" stroke="none" />
<path d="M777.5 713.5C791.331 721.535 806.331 725.201 822.5 724.5C837.044 724.91 851.044 722.41 864.5 717C866.333 715.833 868.167 714.667 870 713.5C869.344 725.314 864.51 735.147 855.5 743C829.826 761.775 806.326 759.275 785 735.5C780.653 728.773 778.153 721.44 777.5 713.5Z" fill="#f5f5f5" fill-rule="evenodd" opacity="1" stroke="none" />
<path d="M795.5 714.5C797.857 714.337 800.19 714.503 802.5 715C803.386 716.902 803.053 718.735 801.5 720.5C799.224 719.787 796.891 719.287 794.5 719C793.419 717.289 793.752 715.789 795.5 714.5Z" fill="#dedfdf" fill-rule="evenodd" opacity="1" stroke="none" />
<path d="M848.5 713.5C851.596 712.907 853.929 713.907 855.5 716.5C853.139 718.455 850.472 719.288 847.5 719C846.243 716.924 846.576 715.09 848.5 713.5Z" fill="#e2e2e3" fill-rule="evenodd" opacity="1" stroke="none" />
<path d="M822.5 709.5C831.068 709.111 837.068 712.778 840.5 720.5C839.635 721.583 838.635 721.749 837.5 721C833.814 715.989 828.814 713.322 822.5 713C821.316 711.855 821.316 710.688 822.5 709.5Z" fill="#e0e0e1" fill-rule="evenodd" opacity="1" stroke="none" />
<path d="M816.5 712.5C821.836 715.103 827.502 717.27 833.5 719C834.337 720.011 834.67 721.178 834.5 722.5C832.712 722.785 831.045 722.452 829.5 721.5C828.653 720.155 827.487 719.155 826 718.5C825.544 719.744 826.044 720.577 827.5 721C826.101 721.595 824.768 721.428 823.5 720.5C822.216 721.585 820.716 722.252 819 722.5C815.75 722.208 812.583 721.542 809.5 720.5C811.856 717.814 814.189 715.147 816.5 712.5Z" fill="#d8d9d9" fill-rule="evenodd" opacity="1" stroke="none" />
<path d="M816.5 716.5C818.288 716.215 819.955 716.548 821.5 717.5C819.279 718.958 816.946 719.791 814.5 720C815.305 718.887 815.972 717.721 816.5 716.5Z" fill="#131314" fill-rule="evenodd" opacity="1" stroke="none" />
</g>

</svg>