<?xml version="1.0" encoding="UTF-8" standalone="no"?>
<svg xmlns="http://www.w3.org/2000/svg" fill-rule="nonzero" clip-rule="evenodd" stroke-miterlimit="10" style="fill-rule:nonzero;clip-rule:evenodd;stroke-linecap:round;stroke-linejoin:round;"
     viewBox="544.3 458.0 171.8 192.6" xml:space="preserve">
<g opacity="1">
<path d="M698.5 485.5C697.222 485.782 696.222 486.449 695.5 487.5C695.672 486.508 695.338 485.842 694.5 485.5C691.446 483.129 688.113 481.129 684.5 479.5C682.891 481.94 680.557 483.107 677.5 483C665.492 484.896 653.492 484.896 641.5 483C640.643 482.311 639.977 481.478 639.5 480.5C636.5 480.167 633.5 479.833 630.5 479.5C614.287 484.443 597.62 485.61 580.5 483C578.694 482.19 577.194 481.024 576 479.5C572.407 481.378 568.907 483.378 565.5 485.5C564.662 485.842 564.328 486.508 564.5 487.5C563.662 487.842 563.328 488.508 563.5 489.5C562.833 489.5 562.167 489.5 561.5 489.5C561.167 488.5 560.5 487.833 559.5 487.5C564.585 482.293 570.585 478.626 577.5 476.5C577.227 474.549 577.893 473.049 579.5 472C592.812 470.201 606.145 470.201 619.5 472C621.037 473.11 621.703 474.61 621.5 476.5C627.5 476.5 633.5 476.5 639.5 476.5C639.297 474.61 639.963 473.11 641.5 472C654.494 470.023 667.494 470.023 680.5 472C683.035 472.928 684.035 474.762 683.5 477.5C689.453 478.469 694.453 481.136 698.5 485.5Z" fill="#1e1e1e" fill-rule="evenodd" opacity="1" stroke="none"/>
<path d="M583.5 473.5C595.229 473.088 606.896 473.588 618.5 475C605.868 476.731 593.202 476.898 580.5 475.5C581.602 474.824 582.602 474.158 583.5 473.5Z" fill="#e6e6e6" fill-rule="evenodd" opacity="1" stroke="none"/>
<path d="M645.5 473.5C656.91 473.067 668.244 473.567 679.5 475C673.103 476.128 666.603 476.628 660 476.5C654.167 476.167 648.333 475.833 642.5 475.5C643.602 474.824 644.602 474.158 645.5 473.5Z" fill="#e3e3e3" fill-rule="evenodd" opacity="1" stroke="none"/>
<path d="M580.5 478.5C593.206 479.448 605.872 479.781 618.5 479.5C617.271 480.281 615.938 480.781 614.5 481C604.167 481.667 593.833 481.667 583.5 481C581.881 480.764 580.881 479.931 580.5 478.5Z" fill="#e5e5e4" fill-rule="evenodd" opacity="1" stroke="none"/>
<path d="M641.5 477.5C643.801 478.06 646.134 478.56 648.5 479C659.2 479.147 669.867 479.314 680.5 479.5C667.572 481.785 654.572 482.118 641.5 480.5C641.5 479.5 641.5 478.5 641.5 477.5Z" fill="#e5e5e4" fill-rule="evenodd" opacity="1" stroke="none"/>
<path d="M694.5 485.5C651.5 486.833 608.5 486.833 565.5 485.5C568.907 483.378 572.407 481.378 576 479.5C577.194 481.024 578.694 482.19 580.5 483C597.62 485.61 614.287 484.443 630.5 479.5C633.5 479.833 636.5 480.167 639.5 480.5C639.977 481.478 640.643 482.311 641.5 483C653.492 484.896 665.492 484.896 677.5 483C680.557 483.107 682.891 481.94 684.5 479.5C688.113 481.129 691.446 483.129 694.5 485.5Z" fill="#f1f1f1" fill-rule="evenodd" opacity="1" stroke="none"/>
<path d="M565.5 485.5C608.5 486.833 651.5 486.833 694.5 485.5C695.338 485.842 695.672 486.508 695.5 487.5C651.833 487.5 608.167 487.5 564.5 487.5C564.328 486.508 564.662 485.842 565.5 485.5Z" fill="#6d6e6c" fill-rule="evenodd" opacity="1" stroke="none"/>
<path d="M561.5 489.5C562.167 489.5 562.833 489.5 563.5 489.5C609.167 489.5 654.833 489.5 700.5 489.5C700.5 500.833 700.5 512.167 700.5 523.5C668.167 523.5 635.833 523.5 603.5 523.5C588.833 523.5 574.167 523.5 559.5 523.5C559.333 512.495 559.5 501.495 560 490.5C560.383 489.944 560.883 489.611 561.5 489.5Z" fill="#efefef" fill-rule="evenodd" opacity="1" stroke="none"/>
<path d="M583.5 498.5C591.545 499.367 594.711 503.7 593 511.5C590.459 516.069 586.625 517.569 581.5 516C576.845 513.103 575.345 508.937 577 503.5C578.805 501.174 580.972 499.508 583.5 498.5Z" fill="#171717" fill-rule="evenodd" opacity="1" stroke="none"/>
<path d="M674.5 498.5C682.49 499.322 685.656 503.655 684 511.5C681.459 516.069 677.625 517.569 672.5 516C666.878 513.265 665.378 509.099 668 503.5C669.805 501.174 671.972 499.508 674.5 498.5Z" fill="#141515" fill-rule="evenodd" opacity="1" stroke="none"/>
<path d="M645.5 498.5C654.432 499.382 657.599 504.049 655 512.5C651.95 516.13 648.117 517.297 643.5 516C638.845 513.103 637.345 508.937 639 503.5C640.805 501.174 642.972 499.508 645.5 498.5Z" fill="#191919" fill-rule="evenodd" opacity="1" stroke="none"/>
<path d="M612.5 498.5C622.684 500.7 625.017 506.2 619.5 515C611.55 518.739 606.55 516.406 604.5 508C605.595 503.413 608.262 500.246 612.5 498.5Z" fill="#181818" fill-rule="evenodd" opacity="1" stroke="none"/>
<path d="M582.5 501.5C583.809 505.351 583.809 509.351 582.5 513.5C577.171 509.511 577.171 505.511 582.5 501.5Z" fill="#e9eae9" fill-rule="evenodd" opacity="1" stroke="none"/>
<path d="M586.5 502.5C592.812 505.456 593.145 509.122 587.5 513.5C586.511 509.893 586.177 506.226 586.5 502.5Z" fill="#e3e4e4" fill-rule="evenodd" opacity="1" stroke="none"/>
<path d="M614.5 502.5C618.062 502.564 619.729 504.397 619.5 508C619.729 511.603 618.062 513.436 614.5 513.5C614.5 509.833 614.5 506.167 614.5 502.5Z" fill="#dad9db" fill-rule="evenodd" opacity="1" stroke="none"/>
<path d="M609.5 502.5C610.5 502.5 611.5 502.5 612.5 502.5C612.823 506.226 612.489 509.893 611.5 513.5C607.057 510.51 606.391 506.843 609.5 502.5Z" fill="#ececec" fill-rule="evenodd" opacity="1" stroke="none"/>
<path d="M643.5 502.5C644.5 502.5 645.5 502.5 646.5 502.5C646.823 506.226 646.489 509.893 645.5 513.5C641.669 511.729 640.502 508.729 642 504.5C642.717 503.956 643.217 503.289 643.5 502.5Z" fill="#e5e4e5" fill-rule="evenodd" opacity="1" stroke="none"/>
<path d="M648.5 502.5C653.151 503.174 654.651 505.841 653 510.5C651.981 511.687 650.814 512.687 649.5 513.5C648.511 509.893 648.177 506.226 648.5 502.5Z" fill="#deddde" fill-rule="evenodd" opacity="1" stroke="none"/>
<path d="M678.5 502.5C683.976 506.728 683.643 510.395 677.5 513.5C677.185 509.629 677.518 505.962 678.5 502.5Z" fill="#e7e7e7" fill-rule="evenodd" opacity="1" stroke="none"/>
<path d="M671.5 502.5C672.5 502.5 673.5 502.5 674.5 502.5C674.823 506.226 674.489 509.893 673.5 513.5C668.985 510.589 668.318 506.923 671.5 502.5Z" fill="#ededee" fill-rule="evenodd" opacity="1" stroke="none"/>
<path d="M678.5 502.5C677.518 505.962 677.185 509.629 677.5 513.5C676.191 509.649 676.191 505.649 677.5 501.5C678.107 501.624 678.44 501.957 678.5 502.5Z" fill="#6e6b6f" fill-rule="evenodd" opacity="1" stroke="none"/>
<path d="M559.5 487.5C560.5 487.833 561.167 488.5 561.5 489.5C560.883 489.611 560.383 489.944 560 490.5C559.5 501.495 559.333 512.495 559.5 523.5C574.167 523.5 588.833 523.5 603.5 523.5C603.167 524.167 602.833 524.833 602.5 525.5C588.167 525.5 573.833 525.5 559.5 525.5C559.5 556.167 559.5 586.833 559.5 617.5C562.962 618.482 566.629 618.815 570.5 618.5C570.389 619.117 570.056 619.617 569.5 620C613.335 620.167 657.002 620.667 700.5 621.5C701.309 623.292 701.809 625.292 702 627.5C702.278 626.584 702.778 625.918 703.5 625.5C704.116 632.218 701.116 635.218 694.5 634.5C694.67 635.822 694.337 636.989 693.5 638C686.842 638.5 680.175 638.666 673.5 638.5C673.5 637.167 673.5 635.833 673.5 634.5C644.833 634.5 616.167 634.5 587.5 634.5C587.67 635.822 587.337 636.989 586.5 638C579.833 638.667 573.167 638.667 566.5 638C565.663 636.989 565.33 635.822 565.5 634.5C561.645 635.155 558.812 633.821 557 630.5C556.333 583.5 556.333 536.5 557 489.5C557.708 488.619 558.542 487.953 559.5 487.5Z" fill="#1b1b1b" fill-rule="evenodd" opacity="1" stroke="none"/>
<path d="M602.5 525.5C635.338 525.168 668.004 525.502 700.5 526.5C700.5 556.833 700.5 587.167 700.5 617.5C653.5 617.5 606.5 617.5 559.5 617.5C559.5 586.833 559.5 556.167 559.5 525.5C573.833 525.5 588.167 525.5 602.5 525.5Z" fill="#f2f2f2" fill-rule="evenodd" opacity="1" stroke="none"/>
<path d="M698.5 485.5C700.291 486.483 701.791 487.816 703 489.5C703.5 534.832 703.667 580.165 703.5 625.5C702.778 625.918 702.278 626.584 702 627.5C701.809 625.292 701.309 623.292 700.5 621.5C657.002 620.667 613.335 620.167 569.5 620C570.056 619.617 570.389 619.117 570.5 618.5C614.167 618.5 657.833 618.5 701.5 618.5C701.831 587.662 701.498 556.995 700.5 526.5C668.004 525.502 635.338 525.168 602.5 525.5C602.833 524.833 603.167 524.167 603.5 523.5C635.833 523.5 668.167 523.5 700.5 523.5C700.5 512.167 700.5 500.833 700.5 489.5C654.833 489.5 609.167 489.5 563.5 489.5C563.328 488.508 563.662 487.842 564.5 487.5C608.167 487.5 651.833 487.5 695.5 487.5C696.222 486.449 697.222 485.782 698.5 485.5Z" fill="#060606" fill-rule="evenodd" opacity="1" stroke="none"/>
<path d="M584.5 534.5C615.921 534.015 647.254 534.515 678.5 536C679.634 539.387 681.134 542.554 683 545.5C683.667 565.5 683.667 585.5 683 605.5C682.5 606 682 606.5 681.5 607C647.5 607.667 613.5 607.667 579.5 607C579 606.5 578.5 606 578 605.5C577.333 585.167 577.333 564.833 578 544.5C580.063 542.27 581.396 539.603 582 536.5C582.995 535.934 583.828 535.267 584.5 534.5Z" fill="#1c1d1c" fill-rule="evenodd" opacity="1" stroke="none"/>
<path d="M584.5 537.5C615.168 537.333 645.835 537.5 676.5 538C677.935 540.267 677.602 542.267 675.5 544C645.5 544.667 615.5 544.667 585.5 544C583.316 542.102 582.983 539.936 584.5 537.5Z" fill="#f4f4f4" fill-rule="evenodd" opacity="1" stroke="none"/>
<path d="M580.5 545.5C582.103 545.312 583.437 545.812 584.5 547C614.833 547.667 645.167 547.667 675.5 547C677.025 545.991 678.692 545.491 680.5 545.5C680.5 565.167 680.5 584.833 680.5 604.5C646.833 604.5 613.167 604.5 579.5 604.5C579.179 584.757 579.513 565.091 580.5 545.5Z" fill="#f7f7f7" fill-rule="evenodd" opacity="1" stroke="none"/>
<path d="M700.5 526.5C701.498 556.995 701.831 587.662 701.5 618.5C657.833 618.5 614.167 618.5 570.5 618.5C566.629 618.815 562.962 618.482 559.5 617.5C606.5 617.5 653.5 617.5 700.5 617.5C700.5 587.167 700.5 556.833 700.5 526.5Z" fill="#b5b6b6" fill-rule="evenodd" opacity="1" stroke="none"/>
<path d="M700.5 621.5C700.784 624.777 700.451 627.943 699.5 631C653.167 631.667 606.833 631.667 560.5 631C559.549 627.943 559.216 624.777 559.5 621.5C606.5 621.5 653.5 621.5 700.5 621.5Z" fill="#f2f2f2" fill-rule="evenodd" opacity="1" stroke="none"/>
<path d="M568.5 634.5C574.013 633.184 579.68 633.184 585.5 634.5C585.376 635.107 585.043 635.44 584.5 635.5C579.36 634.512 574.026 634.179 568.5 634.5Z" fill="#585b5a" fill-rule="evenodd" opacity="1" stroke="none"/>
<path d="M568.5 634.5C574.026 634.179 579.36 634.512 584.5 635.5C582.022 636.164 579.355 636.497 576.5 636.5C573.41 636.478 570.743 635.812 568.5 634.5Z" fill="#d3d4d4" fill-rule="evenodd" opacity="1" stroke="none"/>
<path d="M675.5 634.5C680.875 634.172 686.208 634.505 691.5 635.5C688.833 635.833 686.167 636.167 683.5 636.5C680.41 636.478 677.743 635.812 675.5 634.5Z" fill="#d6d7d8" fill-rule="evenodd" opacity="1" stroke="none"/>
</g>
</svg>