<?xml version="1.0" encoding="UTF-8"?>
<svg xmlns="http://www.w3.org/2000/svg" version="1.1" viewBox="986.22 635.86 82.09 121.59" width="82.09" height="121.59" style="fill-rule:nonzero;clip-rule:evenodd;stroke-linecap:round;stroke-linejoin:round;" xml:space="preserve">
<g opacity="1">
<path d="M1021.5 643.5C1041.4 641.856 1054.23 650.523 1060 669.5C1062.31 683.221 1059.65 695.888 1052 707.5C1047.67 712.5 1043.33 717.5 1039 722.5C1036.52 728.287 1033.85 733.953 1031 739.5C1019.26 751.45 1007.59 751.45 996 739.5C994.648 736.28 993.814 732.947 993.5 729.5C994.5 729.5 995.5 729.5 996.5 729.5C996.846 739.846 1002.18 745.179 1012.5 745.5C1020.09 745.787 1025.93 742.787 1030 736.5C1032.09 730.542 1034.76 724.876 1038 719.5C1050.7 708.769 1057.53 695.103 1058.5 678.5C1056.36 654.523 1043.36 644.023 1019.5 647C1006.63 651.7 997.967 660.533 993.5 673.5C992.386 672.277 992.219 670.944 993 669.5C998.627 656.364 1008.13 647.697 1021.5 643.5Z" fill="#1a1a1a" fill-rule="evenodd" opacity="1" stroke="none" />
<path d="M1024.5 658.5C1041.32 658.646 1048.32 666.979 1045.5 683.5C1045.7 675.748 1043.04 669.248 1037.5 664C1023.71 659.144 1014.21 663.644 1009 677.5C1008.69 679.556 1008.19 681.556 1007.5 683.5C1024.09 681.893 1031.26 689.56 1029 706.5C1027.04 713.779 1022.87 719.279 1016.5 723C1006.36 724.188 1002.69 719.854 1005.5 710C1006.42 708.511 1007.42 708.344 1008.5 709.5C1004.47 718.972 1007.47 722.472 1017.5 720C1025.77 712.867 1028.6 704.034 1026 693.5C1022.06 686.188 1016.23 684.021 1008.5 687C1007.71 689.908 1007.38 692.742 1007.5 695.5C1002.65 678.344 1008.32 666.011 1024.5 658.5Z" fill="#181819" fill-rule="evenodd" opacity="1" stroke="none" />
</g>

</svg>