<?xml version="1.0" encoding="UTF-8"?>
<svg xmlns="http://www.w3.org/2000/svg" version="1.1" viewBox="1141.08 637.50 112.91 121.21" width="112.91" height="121.21" style="fill-rule:nonzero;clip-rule:evenodd;stroke-linecap:round;stroke-linejoin:round;" xml:space="preserve">
<g opacity="1">
<path d="M1216.5 643.5C1225.05 643.543 1233.38 644.877 1241.5 647.5C1241.66 648.873 1241.49 650.207 1241 651.5C1234.76 659.541 1226.59 664.374 1216.5 666C1241.49 680.965 1247.99 701.799 1236 728.5C1223.25 745.872 1206.08 752.706 1184.5 749C1158.25 740.673 1147.08 722.84 1151 695.5C1157.61 676.605 1170.77 665.271 1190.5 661.5C1189.24 658.736 1187.41 656.403 1185 654.5C1184.29 652.633 1184.79 651.133 1186.5 650C1188.7 648.627 1191.03 648.294 1193.5 649C1195.29 651.414 1196.96 653.914 1198.5 656.5C1203.2 650.17 1209.2 645.837 1216.5 643.5Z" fill="#1a1a1b" fill-rule="evenodd" opacity="1" stroke="none" />
<path d="M1184.5 665.5C1187.17 665.5 1189.83 665.5 1192.5 665.5C1192.81 667.924 1192.47 670.257 1191.5 672.5C1187.61 672.008 1187.61 672.842 1191.5 675C1195.26 675.738 1198.93 675.405 1202.5 674C1203.6 671.609 1202.94 671.109 1200.5 672.5C1199.53 670.257 1199.19 667.924 1199.5 665.5C1218.22 666.62 1231.05 675.954 1238 693.5C1242.69 726.13 1228.69 744.13 1196 747.5C1173.3 746.659 1158.96 735.326 1153 713.5C1151.25 689.319 1161.75 673.319 1184.5 665.5Z" fill="#f5f5f5" fill-rule="evenodd" opacity="1" stroke="none" />
<path d="M1189.5 650.5C1191.39 650.297 1192.89 650.963 1194 652.5C1197.07 659.156 1198.23 666.156 1197.5 673.5C1196.5 673.5 1195.5 673.5 1194.5 673.5C1195.34 665.686 1193.01 659.02 1187.5 653.5C1188.19 652.482 1188.86 651.482 1189.5 650.5Z" fill="#e2e2e2" fill-rule="evenodd" opacity="1" stroke="none" />
<path d="M1203.5 657.5C1202.62 657.631 1201.96 657.298 1201.5 656.5C1209.34 646.943 1219.34 643.777 1231.5 647C1234 647.885 1236.33 649.052 1238.5 650.5C1228.36 663.119 1216.03 666.119 1201.5 659.5C1202.24 658.818 1202.91 658.151 1203.5 657.5Z" fill="#ebebeb" fill-rule="evenodd" opacity="1" stroke="none" />
<path d="M1203.5 657.5C1209.95 653.472 1216.95 651.805 1224.5 652.5C1217.37 653.699 1210.37 655.365 1203.5 657.5Z" fill="#262726" fill-rule="evenodd" opacity="1" stroke="none" />
<path d="M1174.5 676.5C1176.34 676.639 1176.67 677.306 1175.5 678.5C1174.7 678.043 1174.37 677.376 1174.5 676.5Z" fill="#2f2c2d" fill-rule="evenodd" opacity="1" stroke="none" />
<path d="M1182.5 681.5C1184.34 681.639 1184.67 682.306 1183.5 683.5C1182.7 683.043 1182.37 682.376 1182.5 681.5Z" fill="#575757" fill-rule="evenodd" opacity="1" stroke="none" />
<path d="M1165.5 684.5C1167.34 684.639 1167.67 685.306 1166.5 686.5C1165.7 686.043 1165.37 685.376 1165.5 684.5Z" fill="#555555" fill-rule="evenodd" opacity="1" stroke="none" />
<path d="M1160.5 696.5C1162.34 696.639 1162.67 697.306 1161.5 698.5C1160.7 698.043 1160.37 697.376 1160.5 696.5Z" fill="#434243" fill-rule="evenodd" opacity="1" stroke="none" />
<path d="M1170.5 709.5C1172.34 709.639 1172.67 710.306 1171.5 711.5C1170.7 711.043 1170.37 710.376 1170.5 709.5Z" fill="#454747" fill-rule="evenodd" opacity="1" stroke="none" />
<path d="M1159.5 710.5C1161.34 710.639 1161.67 711.306 1160.5 712.5C1159.7 712.043 1159.37 711.376 1159.5 710.5Z" fill="#5b595b" fill-rule="evenodd" opacity="1" stroke="none" />
<path d="M1164.5 722.5C1166.34 722.639 1166.67 723.306 1165.5 724.5C1164.7 724.043 1164.37 723.376 1164.5 722.5Z" fill="#525252" fill-rule="evenodd" opacity="1" stroke="none" />
<path d="M1176.5 722.5C1178.34 722.639 1178.67 723.306 1177.5 724.5C1176.7 724.043 1176.37 723.376 1176.5 722.5Z" fill="#393939" fill-rule="evenodd" opacity="1" stroke="none" />
<path d="M1224.5 725.5C1226.34 725.639 1226.67 726.306 1225.5 727.5C1224.7 727.043 1224.37 726.376 1224.5 725.5Z" fill="#6e6d6e" fill-rule="evenodd" opacity="1" stroke="none" />
<path d="M1187.5 729.5C1189.34 729.639 1189.67 730.306 1188.5 731.5C1187.7 731.043 1187.37 730.376 1187.5 729.5Z" fill="#535453" fill-rule="evenodd" opacity="1" stroke="none" />
<path d="M1173.5 732.5C1175.34 732.639 1175.67 733.306 1174.5 734.5C1173.7 734.043 1173.37 733.376 1173.5 732.5Z" fill="#494949" fill-rule="evenodd" opacity="1" stroke="none" />
<path d="M1203.5 737.5C1204.77 738.077 1204.77 738.743 1203.5 739.5C1202.54 739.03 1202.54 738.363 1203.5 737.5Z" fill="#232323" fill-rule="evenodd" opacity="1" stroke="none" />
<path d="M1185.5 738.5C1187.34 738.639 1187.67 739.306 1186.5 740.5C1185.7 740.043 1185.37 739.376 1185.5 738.5Z" fill="#5e5e61" fill-rule="evenodd" opacity="1" stroke="none" />
</g>

</svg>