<?xml version="1.0" encoding="UTF-8"?>
<svg xmlns="http://www.w3.org/2000/svg" version="1.1" style="shape-rendering:geometricPrecision;text-rendering:geometricPrecision;image-rendering:optimizeQuality;fill-rule:evenodd;clip-rule:evenodd"
     viewBox="419.5 249.4 243.5 528.9">
<g><path style="opacity:1" fill="#e7e7e7" d="M 455.5,320.5 C 451.622,340.33 453.289,359.663 460.5,378.5C 459.883,378.389 459.383,378.056 459,377.5C 458.29,378.973 457.124,379.64 455.5,379.5C 456.1,375.465 455.1,371.965 452.5,369C 453.535,364.17 452.535,359.837 449.5,356C 450.559,345.831 450.726,335.664 450,325.5C 451.423,323.655 452.59,321.655 453.5,319.5C 454.183,319.863 454.85,320.196 455.5,320.5 Z"/></g>
<g><path style="opacity:1" fill="#131313" d="M 587.5,667.5 C 587.661,680.518 587.327,693.518 586.5,706.5C 579.7,735.428 561.367,748.261 531.5,745C 510.383,737.857 498.883,723.023 497,700.5C 496.833,694.333 496.667,688.167 496.5,682C 498.645,636.133 501.478,590.3 505,544.5C 506.363,517.845 506.697,491.178 506,464.5C 504.804,454.579 501.804,445.246 497,436.5C 488.058,422.559 478.724,408.892 469,395.5C 466.14,389.78 463.307,384.114 460.5,378.5C 453.289,359.663 451.622,340.33 455.5,320.5C 459.178,307.306 467.178,297.472 479.5,291C 492.988,285.461 506.988,282.128 521.5,281C 545.409,279.409 569.076,281.076 592.5,286C 615.589,291.422 628.422,305.922 631,329.5C 633.028,352.758 628.028,374.424 616,394.5C 605.171,409.488 594.838,424.821 585,440.5C 580.524,450.349 577.857,460.683 577,471.5C 576.333,483.5 576.333,495.5 577,507.5C 580.169,560.876 583.669,614.21 587.5,667.5 Z"/></g>
<g><path style="opacity:1" fill="#595959" d="M 574.5,457.5 C 572.813,472.101 572.146,486.768 572.5,501.5C 571.341,491.342 571.175,481.008 572,470.5C 572.429,465.953 573.262,461.619 574.5,457.5 Z"/></g>
<g><path style="opacity:1" fill="#2c2c2c" d="M 569.5,286.5 C 574.913,287.083 580.246,287.25 585.5,287C 587.706,287.977 589.706,289.143 591.5,290.5C 584.003,289.363 576.669,288.03 569.5,286.5 Z"/></g>
<g><path style="opacity:1" fill="#f7f7f7" d="M 569.5,286.5 C 576.669,288.03 584.003,289.363 591.5,290.5C 609.383,294.549 620.55,305.549 625,323.5C 629.205,349.941 623.872,374.274 609,396.5C 599.22,408.949 590.22,421.949 582,435.5C 578.397,442.476 575.897,449.809 574.5,457.5C 573.262,461.619 572.429,465.953 572,470.5C 571.175,481.008 571.341,491.342 572.5,501.5C 574.971,556.87 578.138,612.203 582,667.5C 582.667,678.833 582.667,690.167 582,701.5C 576.305,733.099 557.805,745.266 526.5,738C 513.455,731.42 505.622,720.92 503,706.5C 501.917,698.217 501.417,689.883 501.5,681.5C 505,621.171 508.5,560.838 512,500.5C 514.78,477.057 511.113,454.723 501,433.5C 492.828,420.486 484.161,407.82 475,395.5C 461.088,373.036 456.088,348.703 460,322.5C 464.216,308.613 473.049,298.779 486.5,293C 497.603,289.513 508.936,287.179 520.5,286C 536.845,285.338 553.178,285.505 569.5,286.5 Z"/></g>
<g><path style="opacity:1" fill="#121212" d="M 603.5,333.5 C 603.451,340.849 603.118,348.183 602.5,355.5C 599.232,368.126 593.399,379.459 585,389.5C 582.852,392.236 580.186,394.236 577,395.5C 575.739,395.241 574.739,394.574 574,393.5C 571.542,388.747 568.708,384.247 565.5,380C 557.533,380.684 549.533,381.517 541.5,382.5C 534.603,382.24 527.937,380.907 521.5,378.5C 519.256,379.59 517.422,381.256 516,383.5C 514.254,387.327 512.254,390.993 510,394.5C 508.612,395.554 507.112,395.72 505.5,395C 495.572,385.958 488.572,375.125 484.5,362.5C 481.846,351.943 481.179,341.276 482.5,330.5C 486.075,320.429 493.075,313.929 503.5,311C 515.54,310.432 527.54,310.932 539.5,312.5C 552.795,310.88 566.129,310.38 579.5,311C 589.022,312.499 596.188,317.333 601,325.5C 601.542,328.292 602.376,330.958 603.5,333.5 Z"/></g>
<g><path style="opacity:1" fill="#d9d9d9" d="M 482.5,330.5 C 481.179,341.276 481.846,351.943 484.5,362.5C 483.778,362.082 483.278,361.416 483,360.5C 483,362.5 483,364.5 483,366.5C 482.086,367.654 481.253,367.487 480.5,366C 480.665,364.883 480.998,363.716 481.5,362.5C 478.072,358.156 477.239,353.49 479,348.5C 480.044,350.715 480.71,353.048 481,355.5C 481.252,350.505 481.086,345.505 480.5,340.5C 480.315,336.859 480.981,333.526 482.5,330.5 Z"/></g>
<g><path style="opacity:1" fill="#b9b7b8" d="M 603.5,333.5 C 604.852,340.89 604.519,348.223 602.5,355.5C 603.118,348.183 603.451,340.849 603.5,333.5 Z"/></g>
<g><path style="opacity:1" fill="#f7f7f7" d="M 500.5,317.5 C 508.132,316.642 515.799,316.309 523.5,316.5C 542.505,316.182 561.505,316.015 580.5,316C 593.494,319.468 599.494,327.968 598.5,341.5C 598.063,360.513 591.063,376.513 577.5,389.5C 575.03,384.058 571.697,379.224 567.5,375C 565.833,374.833 564.167,374.667 562.5,374.5C 555.724,375.903 548.89,376.903 542,377.5C 533.55,375.926 525.05,375.093 516.5,375C 513.209,379.748 510.042,384.581 507,389.5C 490.486,372.792 484.153,352.792 488,329.5C 490.584,323.802 494.75,319.802 500.5,317.5 Z"/></g>
<g><path style="opacity:1" fill="#aeafaf" d="M 523.5,316.5 C 515.799,316.309 508.132,316.642 500.5,317.5C 501.263,316.732 502.263,316.232 503.5,316C 510.346,315.179 517.013,315.346 523.5,316.5 Z"/></g>
<g><path style="opacity:1" fill="#b7b6b8" d="M 587.5,667.5 C 588.166,672.823 588.499,678.323 588.5,684C 588.714,691.734 588.047,699.234 586.5,706.5C 587.327,693.518 587.661,680.518 587.5,667.5 Z"/></g>
<g><path style="opacity:1" fill="#121212" d="M 536.5,678.5 C 555.493,677.659 563.993,686.659 562,705.5C 556.685,716.831 547.851,721.331 535.5,719C 520.068,710.258 517.402,698.591 527.5,684C 530.596,682.128 533.596,680.295 536.5,678.5 Z"/></g>
<g><path style="opacity:1" fill="#f3f3f3" d="M 537.5,683.5 C 552.499,682.664 558.999,689.664 557,704.5C 552.154,714.168 544.654,717.001 534.5,713C 525.746,706.259 524.246,698.093 530,688.5C 532.426,686.548 534.926,684.881 537.5,683.5 Z"/></g>
</svg>