<?xml version="1.0" encoding="UTF-8"?>
<svg xmlns="http://www.w3.org/2000/svg" version="1.1" viewBox="1320.71 636.50 162.96 135.93" width="162.96" height="135.93" style="fill-rule:nonzero;clip-rule:evenodd;stroke-linecap:round;stroke-linejoin:round;" xml:space="preserve">
<g opacity="1">
<path d="M1358.5 642.5C1360.37 642.859 1361.87 643.859 1363 645.5C1365.39 650.967 1369.56 654.467 1375.5 656C1377.76 657.715 1379.93 659.548 1382 661.5C1387.39 669.787 1392.89 677.953 1398.5 686C1401.71 687.079 1405.05 687.579 1408.5 687.5C1414.08 687.283 1419.58 686.616 1425 685.5C1431.77 685.4 1437.94 687.234 1443.5 691C1453.33 690.489 1460.16 694.656 1464 703.5C1465.67 710.5 1467.33 717.5 1469 724.5C1470.61 728.443 1473.28 731.443 1477 733.5C1477.67 734.167 1477.67 734.833 1477 735.5C1465.79 740.391 1457.45 737.391 1452 726.5C1450.84 722.203 1449.84 717.869 1449 713.5C1447.19 718.416 1445.69 723.416 1444.5 728.5C1445.35 731.71 1446.35 734.876 1447.5 738C1446.05 745.877 1444.55 753.71 1443 761.5C1431.93 766.429 1428.93 763.429 1434 752.5C1434.67 748.167 1434.67 743.833 1434 739.5C1431.73 746.146 1429.56 752.813 1427.5 759.5C1423.89 760.489 1420.23 760.823 1416.5 760.5C1419.02 754.438 1420.69 748.105 1421.5 741.5C1419.96 738.091 1418.13 734.758 1416 731.5C1408.25 730.518 1400.42 730.185 1392.5 730.5C1392 740.53 1391.17 750.53 1390 760.5C1389.5 761 1389 761.5 1388.5 762C1384.85 762.499 1381.18 762.665 1377.5 762.5C1377.3 760.011 1377.8 757.677 1379 755.5C1379.67 750.5 1379.67 745.5 1379 740.5C1378.22 746.551 1377.22 752.551 1376 758.5C1372.56 760.733 1368.89 761.067 1365 759.5C1366.86 753.423 1367.7 747.089 1367.5 740.5C1367.22 733.152 1366.72 725.818 1366 718.5C1364.75 716.999 1363.75 715.332 1363 713.5C1362.63 705.199 1360.96 697.199 1358 689.5C1356.23 688.724 1354.4 688.89 1352.5 690C1347.47 697.341 1340.81 699.674 1332.5 697C1328.21 693.465 1326.71 688.965 1328 683.5C1335.1 675.477 1339.27 666.31 1340.5 656C1338.96 652.965 1338.46 649.798 1339 646.5C1339.74 645.426 1340.74 644.759 1342 644.5C1344.11 645.608 1345.95 647.108 1347.5 649C1350.15 649.497 1352.81 649.664 1355.5 649.5C1355.69 646.794 1356.69 644.461 1358.5 642.5Z" fill="#191919" fill-rule="evenodd" opacity="1" stroke="none" />
<path d="M1340.5 647.5C1345.86 648.197 1346.53 650.197 1342.5 653.5C1340.91 651.827 1340.25 649.827 1340.5 647.5Z" fill="#d2d3d4" fill-rule="evenodd" opacity="1" stroke="none" />
<path d="M1348.5 651.5C1350.5 651.5 1352.5 651.5 1354.5 651.5C1355.58 656.093 1353.92 659.093 1349.5 660.5C1348.83 659.833 1348.17 659.167 1347.5 658.5C1345.59 660.156 1343.59 660.489 1341.5 659.5C1343.17 656.17 1345.5 653.503 1348.5 651.5Z" fill="#e4e4e5" fill-rule="evenodd" opacity="1" stroke="none" />
<path d="M1358.5 645.5C1360.89 646.219 1362.39 647.885 1363 650.5C1363.33 653.5 1363.67 656.5 1364 659.5C1366.17 661.83 1367.83 664.497 1369 667.5C1369 673.414 1371.5 677.748 1376.5 680.5C1378.69 684.733 1381.69 688.233 1385.5 691C1386.55 691.492 1387.55 691.326 1388.5 690.5C1391.7 693.057 1395.37 694.057 1399.5 693.5C1399.19 691.774 1399.02 690.107 1399 688.5C1401.75 689.143 1404.58 689.476 1407.5 689.5C1413.86 689.094 1420.2 688.428 1426.5 687.5C1439.4 688.065 1446.4 694.732 1447.5 707.5C1446.27 714.452 1444.6 721.286 1442.5 728C1443.32 731.802 1443.98 735.635 1444.5 739.5C1443.83 744.841 1443.16 750.175 1442.5 755.5C1440.5 755.5 1438.5 755.5 1436.5 755.5C1437.39 749.855 1437.55 744.188 1437 738.5C1428.53 733.556 1423.53 726.223 1422 716.5C1421.34 719.047 1421.51 721.547 1422.5 724C1421.01 725.885 1419.01 726.885 1416.5 727C1409.21 728.414 1401.88 728.747 1394.5 728C1392.95 726.56 1392.12 724.727 1392 722.5C1390.06 733.045 1388.9 743.711 1388.5 754.5C1386.17 754.5 1383.83 754.5 1381.5 754.5C1382.35 742.85 1381.02 731.517 1377.5 720.5C1376.61 721.325 1376.28 722.325 1376.5 723.5C1371.35 722.527 1367.85 719.527 1366 714.5C1365.53 705.069 1363.36 696.069 1359.5 687.5C1364.75 679.247 1364.08 678.747 1357.5 686C1351.85 686.735 1347.69 689.568 1345 694.5C1344.67 692.833 1344.33 691.167 1344 689.5C1342.04 695.38 1338.2 696.88 1332.5 694C1330.57 690.744 1330.07 687.244 1331 683.5C1335.17 677.99 1338.5 671.99 1341 665.5C1343.06 661.962 1345.56 661.295 1348.5 663.5C1351.43 662.453 1353.93 660.787 1356 658.5C1356.15 653.99 1356.98 649.657 1358.5 645.5Z" fill="#f4f4f4" fill-rule="evenodd" opacity="1" stroke="none" />
<path d="M1359.5 652.5C1360.59 652.62 1361.25 653.287 1361.5 654.5C1361.17 655.167 1360.83 655.833 1360.5 656.5C1359.57 655.311 1359.24 653.978 1359.5 652.5Z" fill="#646565" fill-rule="evenodd" opacity="1" stroke="none" />
<path d="M1348.5 669.5C1352.16 669.35 1353.16 670.85 1351.5 674C1350.55 674.617 1349.72 674.451 1349 673.5C1348.51 672.207 1348.34 670.873 1348.5 669.5Z" fill="#1c1c1c" fill-rule="evenodd" opacity="1" stroke="none" />
<path d="M1366.5 654.5C1376.43 658.593 1383.59 665.593 1388 675.5C1392.87 679.689 1396.04 684.856 1397.5 691C1395.36 691.635 1393.36 691.301 1391.5 690C1389.67 688.167 1387.83 686.333 1386 684.5C1385.38 685.449 1385.55 686.282 1386.5 687C1383.91 686.454 1381.74 684.954 1380 682.5C1379.1 679.708 1377.94 677.041 1376.5 674.5C1375.83 675.167 1375.17 675.833 1374.5 676.5C1374.17 676.167 1373.83 675.833 1373.5 675.5C1372.21 669.783 1370.04 664.45 1367 659.5C1366.51 657.866 1366.34 656.199 1366.5 654.5Z" fill="#ebecec" fill-rule="evenodd" opacity="1" stroke="none" />
<path d="M1335.5 685.5C1337.05 685.821 1337.71 686.821 1337.5 688.5C1334.75 688.598 1334.09 687.598 1335.5 685.5Z" fill="#646362" fill-rule="evenodd" opacity="1" stroke="none" />
<path d="M1446.5 693.5C1455.17 694.336 1460.67 699.003 1463 707.5C1463.69 713.971 1465.03 720.304 1467 726.5C1468.98 729.312 1471.14 731.978 1473.5 734.5C1463.18 736.586 1456.35 732.586 1453 722.5C1451.98 716.207 1451.31 709.874 1451 703.5C1449.21 700.264 1447.71 696.93 1446.5 693.5Z" fill="#ededed" fill-rule="evenodd" opacity="1" stroke="none" />
<path d="M1368.5 722.5C1371.1 724.629 1374.1 725.962 1377.5 726.5C1376.88 735.172 1376.22 743.838 1375.5 752.5C1373.17 752.5 1370.83 752.5 1368.5 752.5C1369.7 742.517 1369.7 732.517 1368.5 722.5Z" fill="#eaebeb" fill-rule="evenodd" opacity="1" stroke="none" />
<path d="M1418.5 728.5C1420.6 728.201 1422.6 728.534 1424.5 729.5C1426.22 732.297 1428.39 734.631 1431 736.5C1430.17 742.175 1429 747.841 1427.5 753.5C1421.87 754.382 1420.37 752.382 1423 747.5C1423.67 744.167 1423.67 740.833 1423 737.5C1420.06 734.861 1418.56 731.861 1418.5 728.5Z" fill="#e5e5e5" fill-rule="evenodd" opacity="1" stroke="none" />
<path d="M1367.5 754.5C1369.83 754.5 1372.17 754.5 1374.5 754.5C1374.76 757.734 1373.26 759.068 1370 758.5C1368.83 758.167 1367.67 757.833 1366.5 757.5C1367.13 756.583 1367.46 755.583 1367.5 754.5Z" fill="#d3d5d5" fill-rule="evenodd" opacity="1" stroke="none" />
<path d="M1420.5 754.5C1422.59 754.857 1424.59 755.523 1426.5 756.5C1426.29 757.086 1425.96 757.586 1425.5 758C1423.17 758.667 1420.83 758.667 1418.5 758C1419.31 756.887 1419.97 755.721 1420.5 754.5Z" fill="#e8e8e8" fill-rule="evenodd" opacity="1" stroke="none" />
<path d="M1380.5 756.5C1383.17 756.5 1385.83 756.5 1388.5 756.5C1388.62 759.893 1386.96 761.226 1383.5 760.5C1382.17 760.167 1380.83 759.833 1379.5 759.5C1380.13 758.583 1380.46 757.583 1380.5 756.5Z" fill="#e0e0e0" fill-rule="evenodd" opacity="1" stroke="none" />
<path d="M1434.5 756.5C1436.96 756.699 1439.29 757.365 1441.5 758.5C1441.29 759.086 1440.96 759.586 1440.5 760C1438.17 760.667 1435.83 760.667 1433.5 760C1434.34 758.989 1434.67 757.822 1434.5 756.5Z" fill="#dedfdf" fill-rule="evenodd" opacity="1" stroke="none" />
</g>

</svg>