<?xml version="1.0" encoding="UTF-8"?>
<svg xmlns="http://www.w3.org/2000/svg" version="1.1" viewBox="640 734 206 252" width="206" height="252" style="fill-rule:nonzero;clip-rule:evenodd;stroke-linecap:round;stroke-linejoin:round;" xml:space="preserve">
<g transform="translate(625,718)"><ns0:path xmlns:ns0="http://www.w3.org/2000/svg" d="M0 0 C10.684 8.96 16.595 21.684 18.812 35.312 C19.066 38.562 19.124 41.805 19.188 45.062 C19.762 59.751 23.575 68.855 32.812 80.312 C45.021 96.555 56.851 115.951 57 136.875 C57.014 137.784 57.028 138.693 57.043 139.629 C56.786 142.618 56.243 144.673 54.812 147.312 C52.926 148.719 52.926 148.719 50.812 149.312 C48.918 148.844 48.918 148.844 47 147.812 C46.375 147.493 45.75 147.173 45.105 146.844 C41.767 144.614 38.815 141.969 35.812 139.312 C35.718 139.856 35.623 140.399 35.525 140.958 C32.858 155.919 29.991 168.558 19.812 180.312 C18.832 181.499 17.853 182.686 16.875 183.875 C16.194 184.679 15.514 185.484 14.812 186.312 C15.472 186.498 16.132 186.684 16.812 186.875 C22.131 189.423 26.549 193.418 29.812 198.312 C30.346 203.434 30.346 203.434 28.75 206.062 C26.813 207.312 26.813 207.312 23.312 208.188 C19.093 209.544 18.962 210.667 16.812 214.312 C12.822 215.797 10.458 215.302 6.688 213.688 C4.617 212.812 4.617 212.812 2.812 212.312 C0.812 213.688 0.812 213.688 -1.188 215.312 C-5.509 215.525 -7.812 215.464 -11.156 212.664 C-19.188 203.782 -19.188 203.782 -19.188 198.312 C-19.575 198.401 -19.575 198.401 -21.535 198.852 C-24.617 199.241 -27.058 199.254 -30.121 199.023 C-44.669 198.042 -44.669 198.042 -48.941 201.617 C-50.688 204.562 -50.688 204.562 -51.906 207.516 C-53.452 210.889 -55.112 212.284 -58.188 214.312 C-61.812 215.188 -61.812 215.188 -65.188 215.312 C-66.178 214.653 -67.167 213.993 -68.188 213.312 C-71.281 213.661 -74.237 214.337 -77.277 215 C-80.417 215.337 -81.665 215.167 -84.188 213.312 C-84.938 210.688 -84.938 210.688 -85.188 208.312 C-85.817 208.261 -85.817 208.261 -89 208 C-91.471 207.671 -93.047 207.389 -95.25 206.188 C-96.887 202.914 -96.167 200.768 -95.188 197.312 C-92.094 192.502 -88.123 189.117 -83.188 186.312 C-82.528 186.312 -81.868 186.312 -81.188 186.312 C-81.188 185.653 -81.188 184.993 -81.188 184.312 C-81.766 184.074 -82.345 183.836 -82.941 183.59 C-91.623 178.652 -96.298 167.407 -99.121 158.301 C-100.804 152.012 -101.771 145.805 -102.188 139.312 C-102.453 139.554 -102.453 139.554 -103.797 140.773 C-104.503 141.405 -105.21 142.037 -105.938 142.688 C-106.634 143.314 -107.33 143.94 -108.047 144.586 C-111.113 147.059 -113.329 148.207 -117.25 148.688 C-120.187 148.312 -120.187 148.312 -121.844 146.75 C-125.657 139.833 -123.594 128.683 -121.688 121.312 C-116.752 106.073 -108.25 91.778 -98.248 79.326 C-89.073 67.852 -86.624 58.192 -85.906 43.647 C-85.011 26.649 -79.864 12.085 -67.188 0.312 C-46.955 -15.901 -20.556 -15.378 0 0 Z M-73 21.375 C-78.433 30.021 -79.851 41.343 -77.782 51.257 C-77.278 53.304 -76.741 55.34 -76.188 57.375 C-72.873 69.658 -74.04 78.43 -78.426 90.247 C-87.781 115.615 -94.792 144.372 -83.188 170.312 C-77.757 180.486 -72.23 186.131 -61.057 189.628 C-40.288 195.928 -17.201 195.176 2.934 186.875 C12.254 181.817 16.622 172.328 19.665 162.583 C26.531 136.832 20.18 110.628 10.76 86.441 C6.923 76.211 6.833 67.196 9.812 56.75 C12.673 45.663 13.526 34.322 7.562 24.062 C4.648 19.817 1.801 16.178 -3.359 14.684 C-8.461 13.87 -11.836 14.277 -16.188 17.312 C-19.977 21.102 -21.741 25.245 -23.188 30.312 C-23.403 31.061 -23.618 31.81 -23.84 32.582 C-24.343 35.024 -24.58 36.844 -24.188 39.312 C-22.594 41.39 -20.837 42.979 -18.871 44.703 C-17.188 46.312 -17.188 46.312 -15.875 49.25 C-16.426 54.645 -19.787 58.314 -23.867 61.711 C-28.439 64.682 -31.952 64.977 -37.188 64.312 C-42.483 61.665 -47.798 56.955 -49.961 51.285 C-50.356 47.846 -48.235 45.914 -46.188 43.312 C-45.445 42.838 -44.703 42.364 -43.938 41.875 C-42.188 40.312 -42.188 40.312 -41.75 37.25 C-42.68 28.881 -44.673 21.984 -51.188 16.312 C-58.893 11.882 -67.637 14.655 -73 21.375 Z M-44.188 48.312 C-40.849 51.651 -36.829 52.779 -32.188 53.312 C-28.288 52.435 -24.788 51.031 -21.188 49.312 C-24.976 45.313 -27.494 42.802 -32.938 41.812 C-37.689 42.544 -40.595 45.249 -44.188 48.312 Z M-38.188 57.312 C-37.198 58.302 -36.207 59.293 -35.188 60.312 C-31.562 60.125 -31.562 60.125 -28.188 59.312 C-27.858 58.653 -27.528 57.993 -27.188 57.312 C-30.817 57.312 -34.448 57.312 -38.188 57.312 Z M-95.188 109.312 C-104.76 119.319 -111.28 129.354 -116.188 142.312 C-113.102 140.921 -110.817 139.268 -108.312 137 C-105.953 134.875 -103.672 132.943 -101.082 131.09 C-97.438 128.065 -96.674 124.697 -95.75 120.188 C-95.578 119.472 -95.406 118.757 -95.229 118.02 C-94.461 114.639 -94.074 112.654 -95.188 109.312 Z M27.812 109.312 C28.431 113.322 29.11 117.317 29.812 121.312 C30.019 122.571 30.225 123.829 30.438 125.125 C32.462 129.819 35.866 132.198 39.812 135.312 C41.108 136.454 42.4 137.6 43.688 138.75 C46.564 141.312 46.564 141.312 48.812 141.312 C47.01 128.972 37.517 116.717 27.812 109.312 Z M-76.188 188.312 C-77.774 189.391 -79.357 190.475 -80.938 191.562 C-81.819 192.166 -82.701 192.769 -83.609 193.391 C-86.07 195.225 -88.192 196.981 -90.188 199.312 C-90.188 200.303 -90.188 201.292 -90.188 202.312 C-87.218 202.643 -84.248 202.972 -81.188 203.312 C-80.858 205.292 -80.528 207.273 -80.188 209.312 C-74.688 208.562 -74.688 208.562 -72.062 207.25 C-70.188 206.312 -70.188 206.312 -66.188 206.312 C-65.528 207.303 -64.868 208.292 -64.188 209.312 C-62.062 209.312 -62.062 209.312 -59.188 208.312 C-56.084 205.002 -53.625 201.626 -52.188 197.312 C-53.417 196.914 -54.647 196.516 -55.914 196.105 C-57.547 195.571 -59.18 195.035 -60.812 194.5 C-61.621 194.239 -62.429 193.978 -63.262 193.709 C-67.778 192.222 -71.985 190.577 -76.188 188.312 Z M1.691 191.828 C-3.33 194.417 -8.765 195.791 -14.188 197.312 C-13.423 198.753 -12.651 200.19 -11.875 201.625 C-11.446 202.426 -11.016 203.226 -10.574 204.051 C-9.267 206.182 -8.138 207.754 -6.188 209.312 C-3.562 209.125 -3.562 209.125 -1.188 208.312 C-0.858 207.653 -0.528 206.993 -0.188 206.312 C6.438 207.062 6.438 207.062 9.812 209.312 C11.132 209.312 12.452 209.312 13.812 209.312 C14.472 207.333 15.132 205.352 15.812 203.312 C18.452 202.982 21.093 202.653 23.812 202.312 C23.812 199.312 23.812 199.312 22.055 197.375 C10.165 187.016 10.165 187.016 1.691 191.828 Z " fill="#000000" transform="translate(152.1875,40.6875)" />
<ns0:path xmlns:ns0="http://www.w3.org/2000/svg" d="M0 0 C2.312 1.25 2.312 1.25 3.312 2.25 C3.898 9.512 3.898 9.512 1.625 12.375 C-0.688 13.25 -0.688 13.25 -3.312 12.562 C-5.688 11.25 -5.688 11.25 -7.688 9.25 C-7.551 5.49 -7.41 3.101 -4.938 0.188 C-2.688 -0.75 -2.688 -0.75 0 0 Z " fill="#000000" transform="translate(95.6875,71.75)" />
<ns0:path xmlns:ns0="http://www.w3.org/2000/svg" d="M0 0 C2.375 1.375 2.375 1.375 4.375 4.375 C4.23 7.856 3.94 9.729 1.625 12.375 C-0.625 13.375 -0.625 13.375 -3.25 12.688 C-5.625 11.375 -5.625 11.375 -7.625 9.375 C-7.488 5.615 -7.347 3.226 -4.875 0.312 C-2.625 -0.625 -2.625 -0.625 0 0 Z " fill="#000000" transform="translate(145.625,71.625)" />
  </g>
</svg>
