<?xml version="1.0" encoding="UTF-8" standalone="no"?>
<svg xmlns="http://www.w3.org/2000/svg" fill-rule="nonzero" clip-rule="evenodd" stroke-miterlimit="10" style="fill-rule:nonzero;clip-rule:evenodd;stroke-linecap:round;stroke-linejoin:round;"
     viewBox="787.0 448.2 201.5 216.1" xml:space="preserve">
<g opacity="1">
<path d="M939.5 596.5C942.312 599.839 941.979 603.005 938.5 606C936.196 606.895 933.862 607.729 931.5 608.5C930.308 613.267 928.808 617.934 927 622.5C925.989 623.337 924.822 623.67 923.5 623.5C921.735 631.598 916.735 636.264 908.5 637.5C904.11 644.033 898.11 646.699 890.5 645.5C882.226 652.314 874.226 651.981 866.5 644.5C864.568 645.52 862.568 645.687 860.5 645C855.681 642.599 851.681 639.265 848.5 635C847.167 635 845.833 635 844.5 635C835.774 626.647 830.774 616.48 829.5 604.5C823.039 605.041 819.706 602.041 819.5 595.5C819.404 593.074 820.07 590.907 821.5 589C817.352 585.358 814.686 580.858 813.5 575.5C814.117 575.611 814.617 575.944 815 576.5C815.181 573.305 815.681 570.305 816.5 567.5C815.775 573.275 816.941 578.608 820 583.5C820.739 584.574 821.739 585.241 823 585.5C824.766 584.767 826.599 584.433 828.5 584.5C828.074 586.139 828.074 587.472 828.5 588.5C827.5 589.167 826.5 589.833 825.5 590.5C824.504 590.414 823.671 590.748 823 591.5C822.333 594.167 822.333 596.833 823 599.5C825.016 601.608 827.183 601.942 829.5 600.5C831.71 600.106 833.043 598.773 833.5 596.5C833.671 591.724 834.671 591.391 836.5 595.5C836.012 598.474 834.512 600.807 832 602.5C831.612 605.849 831.779 609.183 832.5 612.5C833.5 612.5 834.5 612.5 835.5 612.5C835.852 619.871 838.852 625.871 844.5 630.5C845.167 629.167 845.833 627.833 846.5 626.5C849.446 634.113 854.779 639.446 862.5 642.5C862.669 640.883 863.003 639.216 863.5 637.5C867.449 642.597 872.616 645.93 879 647.5C881.634 647.066 884.134 646.233 886.5 645C889.434 642.539 892.434 640.373 895.5 638.5C894.948 640.331 894.948 641.997 895.5 643.5C902.801 640.53 908.135 635.53 911.5 628.5C912.167 629.833 912.833 631.167 913.5 632.5C918.962 628.582 922.129 623.249 923 616.5C924 615.167 925 615.167 926 616.5C928.15 609.351 929.317 602.017 929.5 594.5C929.5 592.167 929.5 589.833 929.5 587.5C929.78 580.816 929.947 574.15 930 567.5C927.126 561.601 925.293 555.434 924.5 549C918.099 545.811 911.432 543.311 904.5 541.5C894.982 548.017 884.982 553.684 874.5 558.5C874.167 557.5 873.5 556.833 872.5 556.5C881.899 551.962 890.899 546.629 899.5 540.5C880.116 535.077 860.783 535.244 841.5 541C840.572 541.388 839.905 542.055 839.5 543C838.71 546.356 837.71 549.523 836.5 552.5C835.833 552.5 835.167 552.5 834.5 552.5C834.851 549.762 835.518 547.096 836.5 544.5C836 544.167 835.5 543.833 835 543.5C832.535 544.651 830.035 545.651 827.5 546.5C827.5 545.833 827.167 545.5 826.5 545.5C834.862 539.763 844.195 536.263 854.5 535C878.364 532.507 901.364 535.84 923.5 545C933.261 550.122 942.761 555.289 952 560.5C958.422 558.094 963.756 554.094 968 548.5C971.76 544.057 971.26 540.224 966.5 537C954.871 534.685 946.038 528.518 940 518.5C935.001 502.986 926.834 489.486 915.5 478C890.271 461.633 867.438 464.466 847 486.5C841.217 495.579 834.384 503.746 826.5 511C819.906 514.386 812.906 516.386 805.5 517C801.708 519.053 800.542 522.219 802 526.5C805.923 534.918 811.756 541.584 819.5 546.5C818.209 546.263 817.209 546.596 816.5 547.5C805.395 540.919 799.561 531.252 799 518.5C800.731 516.383 802.898 514.883 805.5 514C814.114 513.907 821.781 511.24 828.5 506C834.051 499.45 839.217 492.617 844 485.5C860.63 465.736 881.13 460.236 905.5 469C915.133 473.297 922.966 479.797 929 488.5C934.745 500.323 940.745 511.99 947 523.5C949.743 525.788 952.577 527.955 955.5 530C961.389 531.736 966.889 534.236 972 537.5C974.071 542.164 973.404 546.497 970 550.5C966.292 554.377 962.458 558.043 958.5 561.5C962.619 563.314 966.119 565.981 969 569.5C972.094 575.01 974.594 580.677 976.5 586.5C969.845 588.159 963.345 587.825 957 585.5C959.4 603.731 954.067 606.398 941 593.5C939.961 594.244 939.461 595.244 939.5 596.5Z" fill="#161616" fill-rule="evenodd" opacity="1" stroke="none"/>
<path d="M826.5 545.5C824.906 545.92 823.406 546.586 822 547.5C821.098 547.257 820.265 546.923 819.5 546.5C811.756 541.584 805.923 534.918 802 526.5C800.542 522.219 801.708 519.053 805.5 517C812.906 516.386 819.906 514.386 826.5 511C834.384 503.746 841.217 495.579 847 486.5C867.438 464.466 890.271 461.633 915.5 478C926.834 489.486 935.001 502.986 940 518.5C946.038 528.518 954.871 534.685 966.5 537C971.26 540.224 971.76 544.057 968 548.5C963.756 554.094 958.422 558.094 952 560.5C942.761 555.289 933.261 550.122 923.5 545C901.364 535.84 878.364 532.507 854.5 535C844.195 536.263 834.862 539.763 826.5 545.5Z" fill="#f5f5f5" fill-rule="evenodd" opacity="1" stroke="none"/>
<path d="M880.5 480.5C890.259 479.343 898.426 482.343 905 489.5C908.015 495.116 908.182 500.783 905.5 506.5C910.14 509.559 911.14 513.392 908.5 518C905.103 517.006 901.77 517.34 898.5 519C901.205 520.741 904.038 522.241 907 523.5C907.798 525.259 907.631 526.926 906.5 528.5C905.099 530.626 903.266 532.293 901 533.5C899.395 532.899 898.062 531.899 897 530.5C896.902 528.381 896.069 526.714 894.5 525.5C887.566 527.052 880.899 526.385 874.5 523.5C872.465 524.597 871.132 526.263 870.5 528.5C868.902 529.485 867.235 529.651 865.5 529C858.813 520.773 860.813 516.44 871.5 516C868.861 514.054 865.861 513.054 862.5 513C861.058 509.872 861.558 507.038 864 504.5C865.011 503.663 866.178 503.33 867.5 503.5C865.909 492.337 870.242 484.67 880.5 480.5Z" fill="#181818" fill-rule="evenodd" opacity="1" stroke="none"/>
<path d="M896.5 521.5C898.928 523.249 901.594 524.582 904.5 525.5C902.465 526.597 901.132 528.263 900.5 530.5C899.098 527.463 897.765 524.463 896.5 521.5Z" fill="#e8e9e9" fill-rule="evenodd" opacity="1" stroke="none"/>
<path d="M872.5 518.5C873.376 518.369 874.043 518.702 874.5 519.5C873.564 520.974 872.23 521.974 870.5 522.5C869.571 523.689 869.238 525.022 869.5 526.5C868.5 526.5 867.5 526.5 866.5 526.5C866.672 524.508 866.005 522.842 864.5 521.5C867.447 520.92 870.114 519.92 872.5 518.5Z" fill="#d8d8d9" fill-rule="evenodd" opacity="1" stroke="none"/>
<path d="M904.5 509.5C906.043 510.736 907.043 512.402 907.5 514.5C907.167 514.833 906.833 515.167 906.5 515.5C903.86 514.665 901.193 514.498 898.5 515C900.996 513.669 902.996 511.836 904.5 509.5Z" fill="#e4e5e4" fill-rule="evenodd" opacity="1" stroke="none"/>
<path d="M866.5 505.5C869.077 507.73 871.743 510.064 874.5 512.5C874 512.833 873.5 513.167 873 513.5C871.263 512.38 869.429 511.38 867.5 510.5C866.391 511.59 865.391 511.59 864.5 510.5C865.95 509.15 866.617 507.484 866.5 505.5Z" fill="#d0d1d1" fill-rule="evenodd" opacity="1" stroke="none"/>
<path d="M880.5 483.5C886.865 482.901 892.865 484.068 898.5 487C905.527 493.719 906.36 501.219 901 509.5C895.744 512.058 893.078 516.391 893 522.5C892.586 522.957 892.086 523.291 891.5 523.5C890.167 516.833 888.833 516.833 887.5 523.5C886.167 516.833 884.833 516.833 883.5 523.5C882.833 521.5 882.167 519.5 881.5 517.5C880.935 519.51 879.935 521.176 878.5 522.5C877.833 518.5 877.167 514.5 876.5 510.5C874.142 508.976 872.309 506.976 871 504.5C868.249 494.676 871.416 487.676 880.5 483.5Z" fill="#ededed" fill-rule="evenodd" opacity="1" stroke="none"/>
<path d="M884.5 506.5C887.47 506.746 888.803 508.412 888.5 511.5C886.833 511.5 885.167 511.5 883.5 511.5C883.629 509.784 883.962 508.117 884.5 506.5Z" fill="#0f0e0f" fill-rule="evenodd" opacity="1" stroke="none"/>
<path d="M892.5 496.5C899.238 497.061 900.905 500.228 897.5 506C889.408 506.09 887.741 502.923 892.5 496.5Z" fill="#121212" fill-rule="evenodd" opacity="1" stroke="none"/>
<path d="M877.5 495.5C884.771 496.206 886.104 499.373 881.5 505C876.667 505.5 874.5 503.333 875 498.5C875.698 497.309 876.531 496.309 877.5 495.5Z" fill="#131313" fill-rule="evenodd" opacity="1" stroke="none"/>
<path d="M872.5 556.5C864.493 556.334 856.493 556.5 848.5 557C846.003 557.412 844.003 558.578 842.5 560.5C839.914 561.48 837.247 561.813 834.5 561.5C835.167 558.5 835.833 555.5 836.5 552.5C837.71 549.523 838.71 546.356 839.5 543C839.905 542.055 840.572 541.388 841.5 541C860.783 535.244 880.116 535.077 899.5 540.5C890.899 546.629 881.899 551.962 872.5 556.5Z" fill="#efefef" fill-rule="evenodd" opacity="1" stroke="none"/>
<path d="M826.5 545.5C827.167 545.5 827.5 545.833 827.5 546.5C826.57 550.4 826.237 554.4 826.5 558.5C828.39 558.297 829.89 558.963 831 560.5C832.456 557.924 833.623 555.258 834.5 552.5C835.167 552.5 835.833 552.5 836.5 552.5C835.833 555.5 835.167 558.5 834.5 561.5C837.247 561.813 839.914 561.48 842.5 560.5C844.003 558.578 846.003 557.412 848.5 557C856.493 556.5 864.493 556.334 872.5 556.5C873.5 556.833 874.167 557.5 874.5 558.5C873.734 564.11 872.568 569.776 871 575.5C866.121 582.016 859.621 584.182 851.5 582C844.446 578.403 841.113 572.57 841.5 564.5C838.833 564.5 836.167 564.5 833.5 564.5C833.797 571.92 833.464 579.254 832.5 586.5C831.676 590.312 831.176 594.312 831 598.5C830.617 599.056 830.117 599.389 829.5 599.5C828.527 597.052 828.194 594.385 828.5 591.5C827.209 591.737 826.209 591.404 825.5 590.5C826.5 589.833 827.5 589.167 828.5 588.5C832.629 580.038 830.962 573.038 823.5 567.5C824 567.167 824.5 566.833 825 566.5C826.626 567.289 828.126 568.289 829.5 569.5C831.012 562.221 828.012 559.388 820.5 561C818.077 562.571 816.744 564.737 816.5 567.5C815.681 570.305 815.181 573.305 815 576.5C814.617 575.944 814.117 575.611 813.5 575.5C811.194 566.093 814.528 560.093 823.5 557.5C823.662 555.473 823.495 553.473 823 551.5C820.686 550.267 818.519 548.933 816.5 547.5C817.209 546.596 818.209 546.263 819.5 546.5C820.265 546.923 821.098 547.257 822 547.5C823.406 546.586 824.906 545.92 826.5 545.5Z" fill="#0d0d0d" fill-rule="evenodd" opacity="1" stroke="none"/>
<path d="M834.5 552.5C833.623 555.258 832.456 557.924 831 560.5C829.89 558.963 828.39 558.297 826.5 558.5C826.237 554.4 826.57 550.4 827.5 546.5C830.035 545.651 832.535 544.651 835 543.5C835.5 543.833 836 544.167 836.5 544.5C835.518 547.096 834.851 549.762 834.5 552.5Z" fill="#ececec" fill-rule="evenodd" opacity="1" stroke="none"/>
<path d="M853.5 546.5C858.364 546.001 862.864 547.001 867 549.5C867.483 550.448 867.649 551.448 867.5 552.5C860.989 549.52 854.655 549.853 848.5 553.5C847.417 552.635 847.251 551.635 848 550.5C849.812 549.023 851.645 547.69 853.5 546.5Z" fill="#141415" fill-rule="evenodd" opacity="1" stroke="none"/>
<path d="M928.5 551.5C931.965 552.484 935.131 554.15 938 556.5C938.497 558.81 938.663 561.143 938.5 563.5C936.071 563.585 934.071 564.585 932.5 566.5C929.939 561.819 928.606 556.819 928.5 551.5Z" fill="#e8e8e8" fill-rule="evenodd" opacity="1" stroke="none"/>
<path d="M941.5 558.5C945.638 558.973 947.638 561.307 947.5 565.5C945.167 564.833 942.833 564.167 940.5 563.5C940.366 561.708 940.699 560.042 941.5 558.5Z" fill="#d8d9d9" fill-rule="evenodd" opacity="1" stroke="none"/>
<path d="M828.5 588.5C828.074 587.472 828.074 586.139 828.5 584.5C826.599 584.433 824.766 584.767 823 585.5C821.739 585.241 820.739 584.574 820 583.5C816.941 578.608 815.775 573.275 816.5 567.5C816.744 564.737 818.077 562.571 820.5 561C828.012 559.388 831.012 562.221 829.5 569.5C828.126 568.289 826.626 567.289 825 566.5C824.5 566.833 824 567.167 823.5 567.5C830.962 573.038 832.629 580.038 828.5 588.5Z" fill="#edeced" fill-rule="evenodd" opacity="1" stroke="none"/>
<path d="M950.5 563.5C955.416 563.29 959.749 564.79 963.5 568C967.456 572.741 970.79 577.908 973.5 583.5C964.004 586.499 956.171 584.166 950 576.5C947.083 567.778 949.083 566.444 956 572.5C955.461 569.292 953.461 567.292 950 566.5C949.53 565.423 949.697 564.423 950.5 563.5Z" fill="#ededed" fill-rule="evenodd" opacity="1" stroke="none"/>
<path d="M937.5 565.5C942.448 565.267 945.615 567.601 947 572.5C947.74 580.452 944.907 586.785 938.5 591.5C937.032 589.667 935.365 589.334 933.5 590.5C936.229 592.367 935.896 593.367 932.5 593.5C932.334 588.156 932.501 582.823 933 577.5C935.43 576.035 937.93 574.702 940.5 573.5C938.159 572.288 935.993 572.622 934 574.5C932.959 570.59 934.125 567.59 937.5 565.5Z" fill="#e9e9e9" fill-rule="evenodd" opacity="1" stroke="none"/>
<path d="M949.5 580.5C950.794 581.29 951.961 582.29 953 583.5C953.829 588.533 953.662 593.533 952.5 598.5C948.918 596.88 945.918 594.547 943.5 591.5C946.287 588.259 948.287 584.593 949.5 580.5Z" fill="#ebebeb" fill-rule="evenodd" opacity="1" stroke="none"/>
<path d="M825.5 590.5C826.209 591.404 827.209 591.737 828.5 591.5C828.194 594.385 828.527 597.052 829.5 599.5C829.5 599.833 829.5 600.167 829.5 600.5C827.183 601.942 825.016 601.608 823 599.5C822.333 596.833 822.333 594.167 823 591.5C823.671 590.748 824.504 590.414 825.5 590.5Z" fill="#eeeeee" fill-rule="evenodd" opacity="1" stroke="none"/>
<path d="M929.5 587.5C929.5 589.833 929.5 592.167 929.5 594.5C928.732 593.737 928.232 592.737 928 591.5C926.844 592.993 926.01 592.826 925.5 591C926.202 589.144 927.536 587.977 929.5 587.5Z" fill="#757574" fill-rule="evenodd" opacity="1" stroke="none"/>
<path d="M929.5 587.5C927.536 587.977 926.202 589.144 925.5 591C926.01 592.826 926.844 592.993 928 591.5C928.232 592.737 928.732 593.737 929.5 594.5C929.317 602.017 928.15 609.351 926 616.5C925 615.167 924 615.167 923 616.5C922.129 623.249 918.962 628.582 913.5 632.5C912.833 631.167 912.167 629.833 911.5 628.5C908.135 635.53 902.801 640.53 895.5 643.5C894.948 641.997 894.948 640.331 895.5 638.5C892.434 640.373 889.434 642.539 886.5 645C884.134 646.233 881.634 647.066 879 647.5C872.616 645.93 867.449 642.597 863.5 637.5C863.003 639.216 862.669 640.883 862.5 642.5C854.779 639.446 849.446 634.113 846.5 626.5C845.833 627.833 845.167 629.167 844.5 630.5C838.852 625.871 835.852 619.871 835.5 612.5C834.5 612.5 833.5 612.5 832.5 612.5C831.779 609.183 831.612 605.849 832 602.5C834.512 600.807 836.012 598.474 836.5 595.5C834.671 591.391 833.671 591.724 833.5 596.5C832.521 593.375 832.187 590.042 832.5 586.5C833.464 579.254 833.797 571.92 833.5 564.5C836.167 564.5 838.833 564.5 841.5 564.5C841.113 572.57 844.446 578.403 851.5 582C859.621 584.182 866.121 582.016 871 575.5C872.568 569.776 873.734 564.11 874.5 558.5C884.982 553.684 894.982 548.017 904.5 541.5C911.432 543.311 918.099 545.811 924.5 549C925.293 555.434 927.126 561.601 930 567.5C929.947 574.15 929.78 580.816 929.5 587.5Z" fill="#f5f5f5" fill-rule="evenodd" opacity="1" stroke="none"/>
<path d="M834.5 585.5C838.304 590.136 842.638 594.303 847.5 598C849.5 598.667 851.5 598.667 853.5 598C857.788 594.19 862.788 592.023 868.5 591.5C869.379 584.862 870.546 584.862 872 591.5C879.286 597.276 885.452 596.276 890.5 588.5C891.429 589.689 891.762 591.022 891.5 592.5C898.163 594.254 904.33 596.921 910 600.5C915.007 599.408 919.507 597.408 923.5 594.5C923.67 595.822 923.337 596.989 922.5 598C917.841 602.005 912.507 603.672 906.5 603C901.897 598.864 896.563 596.031 890.5 594.5C884.156 599.35 877.823 599.517 871.5 595C868.833 594.333 866.167 594.333 863.5 595C859.236 597.461 854.903 599.628 850.5 601.5C843.335 599.83 837.835 595.83 834 589.5C833.421 588.072 833.588 586.738 834.5 585.5Z" fill="#1a1a1a" fill-rule="evenodd" opacity="1" stroke="none"/>
<path d="M901.5 563.5C905.182 562.725 907.682 564.059 909 567.5C909.929 571.244 909.429 574.744 907.5 578C901.566 580.273 898.233 578.107 897.5 571.5C897.782 568.269 899.115 565.602 901.5 563.5Z" fill="#111111" fill-rule="evenodd" opacity="1" stroke="none"/>
<path d="M901.5 549.5C906.134 549.48 910.467 550.646 914.5 553C916.037 554.11 916.703 555.61 916.5 557.5C912.493 556.495 908.493 555.495 904.5 554.5C901.508 554.966 898.508 555.299 895.5 555.5C896.487 552.513 898.487 550.513 901.5 549.5Z" fill="#141515" fill-rule="evenodd" opacity="1" stroke="none"/>
<path d="M939.5 596.5C939.93 599.862 938.93 602.695 936.5 605C935.167 605.667 933.833 605.667 932.5 605C929.84 597.54 932.173 594.707 939.5 596.5Z" fill="#dddcdd" fill-rule="evenodd" opacity="1" stroke="none"/>
<path d="M832.5 586.5C832.187 590.042 832.521 593.375 833.5 596.5C833.043 598.773 831.71 600.106 829.5 600.5C829.5 600.167 829.5 599.833 829.5 599.5C830.117 599.389 830.617 599.056 831 598.5C831.176 594.312 831.676 590.312 832.5 586.5Z" fill="#8c8a8c" fill-rule="evenodd" opacity="1" stroke="none"/>
<path d="M866.5 606.5C867.5 606.5 868.5 606.5 869.5 606.5C871.132 610.995 874.465 612.995 879.5 612.5C884.861 612.383 889.528 610.716 893.5 607.5C892.789 611.382 890.456 613.882 886.5 615C880.007 616.38 874.007 615.38 868.5 612C867.139 610.416 866.472 608.582 866.5 606.5Z" fill="#1b1c1c" fill-rule="evenodd" opacity="1" stroke="none"/>
</g>
</svg>