<?xml version="1.0" encoding="UTF-8"?>
<svg xmlns="http://www.w3.org/2000/svg" version="1.1" viewBox="48.94 760.95 106.62 116.31" width="106.62" height="116.31" style="fill-rule:nonzero;clip-rule:evenodd;stroke-linecap:round;stroke-linejoin:round;" xml:space="preserve">
<g opacity="1">
<path d="M86.5 830.5C87.4511 829.081 87.7845 827.415 87.5 825.5C83.1667 825.5 78.8333 825.5 74.5 825.5C60.4391 826.286 54.9391 819.953 58 806.5C64.4244 789.446 75.9244 777.279 92.5 770C112.903 766.95 128.736 774.116 140 791.5C143.099 796.125 145.432 801.125 147 806.5C149.56 816.548 145.727 822.381 135.5 824C129.888 825.131 124.221 825.631 118.5 825.5C119.606 834.426 121.272 843.259 123.5 852C123.289 862.543 117.956 868.209 107.5 869C98.6058 871.258 91.1058 869.092 85 862.5C83.1303 859.078 82.297 855.411 82.5 851.5C83.3592 844.399 84.6925 837.399 86.5 830.5Z" fill="#181919" fill-rule="evenodd" opacity="1" stroke="none" />
<path d="M65.5 807.5C64.7629 805.695 63.7629 804.029 62.5 802.5C64.5 799.167 66.5 795.833 68.5 792.5C74.9224 789.791 78.9224 791.791 80.5 798.5C78.5387 806.322 73.5387 809.322 65.5 807.5Z" fill="#efefef" fill-rule="evenodd" opacity="1" stroke="none" />
<path d="M65.5 807.5C65.6107 808.117 65.944 808.617 66.5 809C77.6667 810.5 82.5 805.667 81 794.5C78.7183 791.043 75.5516 789.043 71.5 788.5C77.503 780.417 85.1697 775.417 94.5 773.5C91.8125 783.974 95.8125 788.807 106.5 788C109.548 787.394 112.048 785.894 114 783.5C115.313 779.994 115.813 776.66 115.5 773.5C123.301 777.402 129.968 782.736 135.5 789.5C125.905 791.025 122.738 796.358 126 805.5C129.277 810.342 133.444 811.508 138.5 809C131.603 809.395 127.603 806.228 126.5 799.5C127.353 792.897 131.02 790.73 137.5 793C141.063 796.587 142.396 800.754 141.5 805.5C142.616 805.402 143.616 805.902 144.5 807C147.098 816.42 143.431 821.42 133.5 822C114.314 823.491 95.1472 823.991 76 823.5C70.3089 823.825 65.3089 822.159 61 818.5C59.5167 815.298 59.1834 811.964 60 808.5C61.3282 804.908 63.1615 804.575 65.5 807.5Z" fill="#f2f2f2" fill-rule="evenodd" opacity="1" stroke="none" />
<path d="M97.5 801.5C108.825 799.706 113.991 804.372 113 815.5C109.629 820.85 104.796 822.683 98.5 821C89.5445 815.059 89.2112 808.559 97.5 801.5Z" fill="#1e1e1e" fill-rule="evenodd" opacity="1" stroke="none" />
<path d="M99.5 802.5C108.583 802.407 112.416 806.74 111 815.5C105.333 820.833 99.6667 820.833 94 815.5C92.5708 809.7 94.4041 805.367 99.5 802.5Z" fill="#f1f1f1" fill-rule="evenodd" opacity="1" stroke="none" />
<path d="M97.5 771.5C102.599 771.175 107.599 771.675 112.5 773C114.373 783.129 110.039 787.462 99.5 786C93.8133 781.755 93.1467 776.922 97.5 771.5Z" fill="#f2f2f2" fill-rule="evenodd" opacity="1" stroke="none" />
<path d="M74.5 825.5C78.8333 825.5 83.1667 825.5 87.5 825.5C87.7845 827.415 87.4511 829.081 86.5 830.5C86.5 829.167 86.5 827.833 86.5 826.5C82.2984 826.817 78.2984 826.483 74.5 825.5Z" fill="#a9aaab" fill-rule="evenodd" opacity="1" stroke="none" />
<path d="M89.5 825.5C98.1667 825.5 106.833 825.5 115.5 825.5C116.519 832.58 118.019 839.58 120 846.5C122.455 860.223 116.622 867.223 102.5 867.5C88.4487 867.286 82.6154 860.286 85 846.5C87.5885 839.723 89.0885 832.723 89.5 825.5Z" fill="#f2f2f2" fill-rule="evenodd" opacity="1" stroke="none" />
</g>

</svg>