<?xml version="1.0" encoding="UTF-8"?>
<svg xmlns="http://www.w3.org/2000/svg" version="1.1" viewBox="230.33 760.58 112.17 109.59" width="112.17" height="109.59" style="fill-rule:nonzero;clip-rule:evenodd;stroke-linecap:round;stroke-linejoin:round;" xml:space="preserve">
<g opacity="1">
<path d="M329.5 767.5C333.565 766.578 335.898 768.078 336.5 772C336.385 774.732 335.552 777.232 334 779.5C319.103 801.064 301.436 820.064 281 836.5C280.239 855.165 270.406 864.165 251.5 863.5C246.633 863.738 241.967 862.905 237.5 861C236.663 859.989 236.33 858.822 236.5 857.5C240.138 857.262 242.971 855.596 245 852.5C247.52 847.284 249.853 841.95 252 836.5C256.336 830.582 262.169 827.749 269.5 828C286.334 804.666 306.334 784.499 329.5 767.5Z" fill="#1d1d1d" fill-rule="evenodd" opacity="1" stroke="none" />
<path d="M281.5 815.5C285.767 816.971 288.767 819.804 290.5 824C286.612 828.614 282.278 832.781 277.5 836.5C274.963 834.798 272.963 832.631 271.5 830C275.203 825.429 278.537 820.595 281.5 815.5Z" fill="#ededed" fill-rule="evenodd" opacity="1" stroke="none" />
<path d="M330.5 769.5C332.948 769.085 334.281 770.085 334.5 772.5C323.86 791.49 310.193 808.157 293.5 822.5C290.833 819.167 287.833 816.167 284.5 813.5C290.345 805.342 297.011 797.842 304.5 791C313.065 783.592 321.732 776.425 330.5 769.5Z" fill="#f1f1f2" fill-rule="evenodd" opacity="1" stroke="none" />
<path d="M274.5 830.5C276.07 829.441 277.403 829.941 278.5 832C276.934 832.3 275.601 831.8 274.5 830.5Z" fill="#383838" fill-rule="evenodd" opacity="1" stroke="none" />
<path d="M261.5 831.5C269.363 830.785 270.03 831.951 263.5 835C261.993 835.837 261.493 837.004 262 838.5C264.408 835.38 267.574 834.047 271.5 834.5C271.238 837.501 270.404 840.168 269 842.5C270.685 840.983 272.185 839.316 273.5 837.5C273.833 838.167 274.167 838.833 274.5 839.5C273.649 841.853 273.149 844.187 273 846.5C274.711 844.044 276.044 841.377 277 838.5C278.007 850.155 272.84 857.321 261.5 860C263.241 858.38 265.075 856.88 267 855.5C267.688 854.668 267.521 854.002 266.5 853.5C259.34 860.504 251.007 862.337 241.5 859C246.335 854.812 250.335 849.978 253.5 844.5C252.515 842.902 252.349 841.235 253 839.5C255.074 835.923 257.907 833.256 261.5 831.5Z" fill="#f0f0f0" fill-rule="evenodd" opacity="1" stroke="none" />
</g>

</svg>