<?xml version="1.0" encoding="UTF-8" standalone="no"?>
<svg xmlns="http://www.w3.org/2000/svg" fill-rule="nonzero" clip-rule="evenodd" stroke-miterlimit="10" style="fill-rule:nonzero;clip-rule:evenodd;stroke-linecap:round;stroke-linejoin:round;"
     viewBox="1055.3 448.4 157.9 211.3" xml:space="preserve">
<g opacity="1">
<path d="M1132.5 626.5C1134.89 623.402 1137.06 620.069 1139 616.5C1137.97 606.26 1137.13 595.926 1136.5 585.5C1137.18 574.093 1138.51 562.76 1140.5 551.5C1144.63 552.31 1148.8 552.977 1153 553.5C1154.83 553.333 1156.67 553.167 1158.5 553C1160.07 551.924 1161.73 551.091 1163.5 550.5C1166.71 552.198 1170.05 553.698 1173.5 555C1178.34 556.214 1182.51 555.047 1186 551.5C1186.59 550.101 1186.43 548.768 1185.5 547.5C1191.34 543.893 1194.5 538.56 1195 531.5C1197.04 504.086 1185.54 484.586 1160.5 473C1133.13 462.363 1109.29 467.53 1089 488.5C1085.49 493.51 1082.49 498.843 1080 504.5C1076 514.332 1076.84 523.666 1082.5 532.5C1080.8 536.198 1081.8 539.032 1085.5 541C1091.36 543.014 1097.2 542.848 1103 540.5C1105.52 543.349 1108.35 545.849 1111.5 548C1116.46 548.746 1121.29 548.246 1126 546.5C1129.58 548.704 1133.41 550.537 1137.5 552C1133.96 552.851 1130.62 552.351 1127.5 550.5C1125.94 559.333 1124.28 568.167 1122.5 577C1125.06 583.129 1127.06 589.463 1128.5 596C1125.74 605.023 1124.91 614.189 1126 623.5C1124.99 624.337 1123.82 624.67 1122.5 624.5C1122.73 620.61 1122.39 616.776 1121.5 613C1124.77 605.021 1125.6 596.854 1124 588.5C1122.92 586.004 1121.59 583.67 1120 581.5C1116.81 585.873 1114.15 590.54 1112 595.5C1111.33 599.167 1111.33 602.833 1112 606.5C1116.79 615.658 1116.62 624.658 1111.5 633.5C1109.44 637.133 1107.11 640.633 1104.5 644C1096.99 645.141 1094.49 641.974 1097 634.5C1103.97 625.452 1104.3 616.119 1098 606.5C1096.82 602.551 1096.48 598.551 1097 594.5C1099.78 586.281 1103.11 578.281 1107 570.5C1108.66 563.88 1109.66 557.213 1110 550.5C1108.03 549.36 1106.19 548.027 1104.5 546.5C1103.37 552.713 1101.54 558.713 1099 564.5C1095.03 569.467 1090.7 574.134 1086 578.5C1084.56 580.275 1083.56 582.275 1083 584.5C1083.01 592.23 1083.85 599.896 1085.5 607.5C1085.69 615.62 1082.36 621.787 1075.5 626C1070.18 626.34 1068.01 623.84 1069 618.5C1072.16 615.518 1073.66 611.852 1073.5 607.5C1073.11 602.175 1071.61 597.175 1069 592.5C1067.28 584.365 1068.95 577.031 1074 570.5C1080.95 565.225 1085.95 558.558 1089 550.5C1089.5 548.527 1089.66 546.527 1089.5 544.5C1085.65 544.822 1082.48 543.489 1080 540.5C1069.19 505.952 1080.69 481.785 1114.5 468C1144.67 460.39 1169.5 468.557 1189 492.5C1198.86 506.986 1201.19 522.653 1196 539.5C1192.43 545.048 1188.93 550.548 1185.5 556C1182.46 558.006 1179.13 558.84 1175.5 558.5C1175.33 562.846 1175.5 567.179 1176 571.5C1177.81 576.446 1180.14 581.112 1183 585.5C1185 591.5 1185 597.5 1183 603.5C1180.58 608.001 1177.92 612.334 1175 616.5C1175 620.5 1175 624.5 1175 628.5C1171.63 631.405 1168.63 631.072 1166 627.5C1163.19 622.317 1162.85 616.984 1165 611.5C1173.61 601.097 1173.61 590.764 1165 580.5C1161.54 572.607 1160.71 564.441 1162.5 556C1162.17 555.5 1161.83 555 1161.5 554.5C1159.68 555.747 1157.68 556.414 1155.5 556.5C1154.54 568.58 1152.88 580.58 1150.5 592.5C1150.81 596.602 1151.64 600.602 1153 604.5C1153.67 608.5 1153.67 612.5 1153 616.5C1150.51 621.473 1147.51 626.14 1144 630.5C1143.67 634.833 1143.33 639.167 1143 643.5C1138.61 647.658 1134.94 646.992 1132 641.5C1131.34 636.463 1131.5 631.463 1132.5 626.5Z" fill="#171717" fill-rule="evenodd" opacity="1" stroke="none"/>
<path d="M1121.5 550.5C1122.68 550.281 1123.68 550.614 1124.5 551.5C1122.85 558.455 1121.35 565.455 1120 572.5C1117.54 579.617 1114.21 586.284 1110 592.5C1108.14 600.352 1108.81 608.019 1112 615.5C1112.67 618.5 1112.67 621.5 1112 624.5C1109.88 630.071 1107.21 635.404 1104 640.5C1102.64 641.38 1101.14 641.714 1099.5 641.5C1099.34 639.473 1099.5 637.473 1100 635.5C1102.82 631.023 1104.66 626.19 1105.5 621C1104.27 614.325 1102.44 607.825 1100 601.5C1099.33 599.167 1099.33 596.833 1100 594.5C1102.17 587.162 1105.17 580.162 1109 573.5C1110.95 566.247 1112.45 558.914 1113.5 551.5C1116.39 551.806 1119.05 551.473 1121.5 550.5Z" fill="#eeeeee" fill-rule="evenodd" opacity="1" stroke="none"/>
<path d="M1164.5 554.5C1166.93 555.212 1169.26 556.212 1171.5 557.5C1172.33 562.132 1172.83 566.798 1173 571.5C1175.14 577.112 1177.81 582.446 1181 587.5C1183.09 592.965 1182.76 598.299 1180 603.5C1176.94 607.569 1174.27 611.902 1172 616.5C1171.55 620.188 1171.72 623.854 1172.5 627.5C1170.61 627.703 1169.11 627.037 1168 625.5C1166.57 621.594 1166.23 617.594 1167 613.5C1171.03 607.947 1173.53 601.781 1174.5 595C1174.37 592.747 1173.87 590.581 1173 588.5C1169.81 583.446 1167.14 578.112 1165 572.5C1164.5 566.509 1164.33 560.509 1164.5 554.5Z" fill="#ebebeb" fill-rule="evenodd" opacity="1" stroke="none"/>
<path d="M1143.5 554.5C1146.31 555.929 1149.31 556.595 1152.5 556.5C1151.6 568.629 1149.93 580.629 1147.5 592.5C1148.75 599.001 1150.08 605.501 1151.5 612C1150.75 614.992 1149.59 617.826 1148 620.5C1141.41 626.351 1138.75 633.684 1140 642.5C1137.55 644.013 1135.88 643.346 1135 640.5C1133.56 631.711 1135.89 624.044 1142 617.5C1141.1 606.706 1140.27 595.873 1139.5 585C1139.35 574.602 1140.68 564.435 1143.5 554.5Z" fill="#ebebeb" fill-rule="evenodd" opacity="1" stroke="none"/>
<path d="M1098.5 544.5C1099.5 544.5 1100.5 544.5 1101.5 544.5C1101.36 551.322 1099.53 557.655 1096 563.5C1092.03 568.467 1087.7 573.134 1083 577.5C1078.72 584.947 1078.38 592.614 1082 600.5C1084.65 610.217 1081.99 617.883 1074 623.5C1072.5 623.333 1071.67 622.5 1071.5 621C1077.99 611.672 1078.16 602.172 1072 592.5C1070.4 585.169 1071.73 578.502 1076 572.5C1082.52 567.316 1087.52 560.983 1091 553.5C1092.08 550.937 1092.58 548.271 1092.5 545.5C1094.74 545.795 1096.74 545.461 1098.5 544.5Z" fill="#eceded" fill-rule="evenodd" opacity="1" stroke="none"/>
<path d="M1132.5 626.5C1132.57 626.062 1132.4 625.728 1132 625.5C1131.69 626.308 1131.19 626.975 1130.5 627.5C1129.45 626.617 1128.29 625.95 1127 625.5C1124.62 626.853 1122.12 628.019 1119.5 629C1117.84 630.444 1117.18 632.278 1117.5 634.5C1115.44 634.483 1113.44 634.15 1111.5 633.5C1116.62 624.658 1116.79 615.658 1112 606.5C1111.33 602.833 1111.33 599.167 1112 595.5C1114.15 590.54 1116.81 585.873 1120 581.5C1121.59 583.67 1122.92 586.004 1124 588.5C1125.6 596.854 1124.77 605.021 1121.5 613C1122.39 616.776 1122.73 620.61 1122.5 624.5C1123.82 624.67 1124.99 624.337 1126 623.5C1124.91 614.189 1125.74 605.023 1128.5 596C1127.06 589.463 1125.06 583.129 1122.5 577C1124.28 568.167 1125.94 559.333 1127.5 550.5C1130.62 552.351 1133.96 552.851 1137.5 552C1133.41 550.537 1129.58 548.704 1126 546.5C1121.29 548.246 1116.46 548.746 1111.5 548C1108.35 545.849 1105.52 543.349 1103 540.5C1097.2 542.848 1091.36 543.014 1085.5 541C1081.8 539.032 1080.8 536.198 1082.5 532.5C1076.84 523.666 1076 514.332 1080 504.5C1082.49 498.843 1085.49 493.51 1089 488.5C1109.29 467.53 1133.13 462.363 1160.5 473C1185.54 484.586 1197.04 504.086 1195 531.5C1194.5 538.56 1191.34 543.893 1185.5 547.5C1186.43 548.768 1186.59 550.101 1186 551.5C1182.51 555.047 1178.34 556.214 1173.5 555C1170.05 553.698 1166.71 552.198 1163.5 550.5C1161.73 551.091 1160.07 551.924 1158.5 553C1156.67 553.167 1154.83 553.333 1153 553.5C1148.8 552.977 1144.63 552.31 1140.5 551.5C1138.51 562.76 1137.18 574.093 1136.5 585.5C1137.13 595.926 1137.97 606.26 1139 616.5C1137.06 620.069 1134.89 623.402 1132.5 626.5Z" fill="#f6f6f6" fill-rule="evenodd" opacity="1" stroke="none"/>
<path d="M1124.5 520.5C1125.5 520.5 1126.5 520.5 1127.5 520.5C1127.97 525.964 1130.97 528.631 1136.5 528.5C1138.63 528.485 1140.63 527.985 1142.5 527C1143.73 525.365 1145.06 523.865 1146.5 522.5C1147.61 523.723 1147.78 525.056 1147 526.5C1141.57 532.142 1135.4 532.976 1128.5 529C1125.68 526.859 1124.35 524.025 1124.5 520.5Z" fill="#171717" fill-rule="evenodd" opacity="1" stroke="none"/>
<path d="M1154.5 501.5C1160.71 502.558 1162.87 506.224 1161 512.5C1158.45 516.925 1155.12 517.592 1151 514.5C1150.33 511.5 1150.33 508.5 1151 505.5C1151.69 503.65 1152.86 502.316 1154.5 501.5Z" fill="#0b0b0b" fill-rule="evenodd" opacity="1" stroke="none"/>
<path d="M1119.5 496.5C1125.37 497.203 1127.53 500.536 1126 506.5C1124.92 511.115 1122.09 512.615 1117.5 511C1113.3 505.503 1113.97 500.669 1119.5 496.5Z" fill="#0e0e0e" fill-rule="evenodd" opacity="1" stroke="none"/>
</g>
</svg>