<?xml version="1.0" encoding="UTF-8"?>
<svg xmlns="http://www.w3.org/2000/svg" version="1.1" viewBox="789 45 237 210" width="237" height="210" style="fill-rule:nonzero;clip-rule:evenodd;stroke-linecap:round;stroke-linejoin:round;" xml:space="preserve">
<g transform="translate(773,27)"><ns0:path xmlns:ns0="http://www.w3.org/2000/svg" d="M0 0 C1.226 0.581 2.452 1.161 3.679 1.741 C6.113 2.892 8.545 4.048 10.976 5.206 C14.005 6.638 17.045 8.037 20.098 9.418 C41.922 19.338 41.922 19.338 46.375 30.812 C46.905 33.669 46.961 36.436 46.941 39.336 C46.948 40.122 46.954 40.908 46.96 41.718 C46.967 43.371 46.964 45.023 46.951 46.675 C46.938 49.175 46.972 51.672 47.01 54.172 C47.063 64.718 46.111 72.338 38.973 80.59 C38.136 81.303 37.299 82.016 36.438 82.75 C35.478 83.574 34.519 84.397 33.531 85.246 C29.035 88.934 24.461 92.522 19.863 96.082 C15.537 99.445 11.353 102.969 7.156 106.492 C3.877 109.228 0.546 111.893 -2.797 114.551 C-6.423 117.451 -10.024 120.381 -13.625 123.312 C-18.049 126.913 -22.478 130.506 -26.938 134.062 C-31.163 137.433 -35.348 140.85 -39.527 144.277 C-43.791 147.77 -48.068 151.246 -52.352 154.713 C-55.896 157.584 -59.424 160.472 -62.926 163.395 C-63.278 163.686 -63.278 163.686 -65.058 165.161 C-66.392 166.268 -67.722 167.38 -69.046 168.499 C-76.208 174.412 -83.17 178.155 -92.625 177.812 C-104.233 175.444 -114.735 169.663 -125.25 164.438 C-126.976 163.59 -128.703 162.744 -130.43 161.898 C-159.483 147.627 -159.483 147.627 -164.625 138.812 C-166.606 132.361 -165.93 125.095 -165.975 118.397 C-165.992 116.601 -166.019 114.805 -166.057 113.01 C-166.501 92.043 -166.501 92.043 -158.869 83.95 C-156.883 82.09 -154.788 80.463 -152.625 78.812 C-151.042 77.564 -149.46 76.316 -147.878 75.067 C-146.084 73.655 -144.284 72.251 -142.484 70.848 C-137.711 67.111 -133.016 63.278 -128.318 59.448 C-124.663 56.469 -121 53.502 -117.312 50.562 C-113.094 47.197 -108.915 43.785 -104.742 40.363 C-101.046 37.335 -97.335 34.324 -93.625 31.312 C-89.119 27.654 -84.615 23.991 -80.125 20.312 C-78.292 18.812 -76.458 17.312 -74.625 15.812 C-74.027 15.323 -73.429 14.833 -72.813 14.329 C-68.752 11.004 -64.678 7.696 -60.59 4.404 C-58.737 2.903 -56.899 1.385 -55.062 -0.137 C-36.215 -15.516 -20.498 -9.812 0 0 Z M-60.562 11.988 C-64.799 15.735 -69.233 19.251 -73.625 22.812 C-78.962 27.142 -84.296 31.474 -89.625 35.812 C-90.383 36.429 -91.141 37.046 -91.922 37.682 C-94.222 39.556 -96.518 41.434 -98.812 43.312 C-99.166 43.6 -99.166 43.6 -100.954 45.055 C-104.716 48.143 -108.252 51.302 -111.625 54.812 C-100.743 60.406 -89.698 65.611 -78.581 70.72 C-72.493 73.522 -66.441 76.374 -60.438 79.352 C-59.301 79.912 -58.165 80.472 -56.994 81.05 C-54.834 82.12 -52.68 83.201 -50.531 84.294 C-49.563 84.772 -48.595 85.25 -47.598 85.742 C-46.755 86.167 -45.912 86.593 -45.043 87.031 C-42.082 87.988 -40.563 87.789 -37.625 86.812 C-35.671 85.557 -35.671 85.557 -33.805 83.969 C-33.11 83.386 -32.415 82.804 -31.7 82.204 C-30.974 81.58 -30.248 80.956 -29.5 80.312 C-27.974 79.027 -26.448 77.742 -24.922 76.457 C-24.184 75.83 -23.446 75.203 -22.686 74.557 C-20.066 72.339 -17.413 70.166 -14.75 68 C-13.889 67.296 -13.028 66.592 -12.141 65.867 C-10.464 64.497 -8.786 63.128 -7.109 61.758 C-6.248 61.054 -5.387 60.35 -4.5 59.625 C-3.598 58.888 -2.695 58.15 -1.766 57.391 C0.627 55.431 3.01 53.459 5.391 51.484 C9.704 47.909 14.034 44.354 18.375 40.812 C19.009 40.293 19.642 39.774 20.295 39.24 C22.02 37.834 23.757 36.446 25.5 35.062 C26.472 34.284 27.444 33.505 28.445 32.703 C31.801 30.538 34.511 29.718 38.375 28.812 C36.125 24.134 33.252 22.19 28.75 19.938 C28.042 19.573 27.334 19.209 26.605 18.833 C18.346 14.665 9.914 10.843 1.5 7 C0.788 6.674 0.075 6.348 -0.659 6.012 C-26.013 -5.564 -38.753 -7.579 -60.562 11.988 Z M31.938 36.125 C31.24 36.674 30.543 37.223 29.824 37.789 C26.382 40.633 22.978 43.522 19.585 46.424 C15.514 49.894 11.351 53.221 7.125 56.5 C2.506 60.087 -1.91 63.798 -6.238 67.734 C-9.669 70.722 -13.258 73.496 -16.875 76.254 C-18.036 77.149 -19.178 78.068 -20.306 79.003 C-22.222 80.498 -24.131 81.787 -26.171 83.099 C-35.599 89.568 -35.599 89.568 -37.356 95.123 C-38.354 101.43 -37.906 107.72 -37.5 114.062 C-37.43 115.983 -37.366 117.903 -37.309 119.824 C-37.156 124.493 -36.915 129.15 -36.625 133.812 C-31.019 129.689 -25.599 125.387 -20.25 120.938 C-18.744 119.691 -17.237 118.445 -15.73 117.199 C-15.017 116.609 -14.303 116.019 -13.568 115.412 C-10.493 112.881 -7.38 110.399 -4.262 107.922 C-0.781 105.137 2.67 102.317 6.125 99.5 C10.725 95.749 15.347 92.033 20.031 88.387 C39.464 73.26 39.464 73.26 41.375 63.812 C41.602 59.295 41.56 54.773 41.562 50.25 C41.575 49.005 41.587 47.761 41.6 46.479 C41.602 45.288 41.603 44.098 41.605 42.871 C41.61 41.781 41.614 40.691 41.618 39.568 C41.375 36.812 41.375 36.812 39.375 33.812 C34.862 33.812 34.862 33.812 31.938 36.125 Z M-123.875 63.625 C-125.146 64.638 -126.417 65.651 -127.688 66.664 C-128.34 67.186 -128.992 67.709 -129.664 68.247 C-132.133 70.218 -134.619 72.168 -137.107 74.116 C-138.856 75.485 -140.602 76.859 -142.348 78.234 C-144.433 79.877 -146.525 81.512 -148.621 83.141 C-149.509 83.837 -150.397 84.533 -151.312 85.25 C-152.079 85.847 -152.846 86.444 -153.637 87.059 C-156.648 89.715 -158.353 91.997 -159.625 95.812 C-159.758 98.68 -159.837 101.522 -159.863 104.391 C-159.871 105.235 -159.879 106.08 -159.888 106.951 C-159.902 108.739 -159.912 110.528 -159.92 112.317 C-159.937 115.039 -159.981 117.759 -160.025 120.48 C-160.036 122.221 -160.044 123.962 -160.051 125.703 C-160.068 126.511 -160.086 127.318 -160.104 128.15 C-160.082 133.851 -158.988 137.165 -155.625 141.812 C-153.403 143.626 -153.403 143.626 -151.008 144.926 C-150.567 145.169 -150.567 145.169 -148.337 146.401 C-147.442 146.867 -146.547 147.333 -145.625 147.812 C-144.805 148.249 -143.985 148.685 -143.14 149.134 C-140.608 150.455 -138.059 151.734 -135.5 153 C-135.035 153.231 -135.035 153.231 -132.68 154.402 C-125.379 158.004 -118.02 161.471 -110.625 164.875 C-109.617 165.34 -108.609 165.805 -107.57 166.284 C-99.075 170.156 -92.458 173.12 -83 171 C-77.606 168.791 -73.456 164.66 -69.133 160.859 C-65.645 157.797 -62.036 154.914 -58.375 152.062 C-57.833 151.64 -57.292 151.217 -56.734 150.781 C-56.198 150.364 -55.662 149.946 -55.109 149.516 C-54.568 149.068 -54.026 148.621 -53.469 148.16 C-51.625 146.812 -51.625 146.812 -49.221 145.681 C-46.137 143.995 -44.587 142.764 -42.625 139.812 C-41.081 132.84 -41.784 125.454 -42.062 118.375 C-42.108 116.384 -42.149 114.392 -42.186 112.4 C-42.284 107.535 -42.44 102.675 -42.625 97.812 C-51.047 104.084 -51.047 104.084 -54.738 107.145 C-55.081 107.428 -55.081 107.428 -56.815 108.861 C-57.516 109.443 -58.216 110.025 -58.938 110.625 C-60.428 111.861 -61.919 113.097 -63.41 114.332 C-64.128 114.927 -64.846 115.522 -65.586 116.135 C-67.378 117.609 -69.181 119.066 -70.996 120.512 C-83.481 130.49 -83.481 130.49 -84.625 136.812 C-84.772 138.909 -84.872 141.009 -84.941 143.109 C-84.983 144.315 -85.025 145.52 -85.068 146.762 C-85.108 148.016 -85.147 149.27 -85.188 150.562 C-85.209 151.197 -85.209 151.197 -85.318 154.41 C-85.424 157.544 -85.526 160.678 -85.625 163.812 C-86.615 163.812 -87.605 163.812 -88.625 163.812 C-88.725 159.687 -88.797 155.561 -88.845 151.435 C-88.865 150.034 -88.892 148.634 -88.927 147.233 C-89.156 137.772 -89.072 130.85 -82.539 123.449 C-81.784 122.806 -81.028 122.163 -80.25 121.5 C-79.811 121.124 -79.811 121.124 -77.59 119.223 C-73.775 116.122 -69.923 113.072 -66.037 110.062 C-61.142 106.262 -56.403 102.3 -51.712 98.252 C-47.822 94.911 -47.822 94.911 -45.625 93.812 C-45.625 93.153 -45.625 92.493 -45.625 91.812 C-63.471 83.131 -81.371 74.59 -99.402 66.301 C-101.691 65.244 -103.974 64.18 -106.254 63.105 C-107.428 62.555 -108.603 62.005 -109.812 61.438 C-110.879 60.935 -111.945 60.432 -113.043 59.914 C-118.054 57.776 -120.027 60.516 -123.875 63.625 Z " fill="#000000" transform="translate(194.625,39.1875)" />
<ns0:path xmlns:ns0="http://www.w3.org/2000/svg" d="M0 0 C4.545 0.323 8.374 2.494 12.363 4.535 C13.073 4.892 13.783 5.249 14.514 5.617 C16.783 6.76 19.048 7.911 21.312 9.062 C22.792 9.81 24.272 10.557 25.752 11.303 C28.694 12.787 31.634 14.273 34.573 15.762 C41.368 19.202 48.185 22.6 55 26 C55 27.32 55 28.64 55 30 C51.097 31.301 50.095 30.405 46.426 28.676 C45.294 28.147 44.162 27.619 42.996 27.074 C41.768 26.487 40.54 25.9 39.312 25.312 C38.059 24.719 36.805 24.126 35.551 23.533 C32.328 22.005 29.112 20.462 25.898 18.913 C24.055 18.027 22.21 17.146 20.364 16.267 C17.027 14.672 13.699 13.059 10.375 11.438 C9.357 10.95 8.339 10.462 7.29 9.96 C6.357 9.498 5.423 9.035 4.461 8.559 C3.644 8.16 2.827 7.761 1.986 7.349 C-0.285 5.806 -1.01 4.527 -2 2 C-1.34 1.34 -0.68 0.68 0 0 Z " fill="#000000" transform="translate(44,138)" />
  </g>
</svg>
