<?xml version="1.0" encoding="UTF-8"?>
<svg xmlns="http://www.w3.org/2000/svg" version="1.1" viewBox="409.06 761.22 102.55 118.28" width="102.55" height="118.28" style="fill-rule:nonzero;clip-rule:evenodd;stroke-linecap:round;stroke-linejoin:round;" xml:space="preserve">
<g opacity="1">
<path d="M494.5 767.5C497.448 767.223 500.281 767.556 503 768.5C505.608 792.675 498.608 813.675 482 831.5C485.093 846.63 480.426 858.63 468 867.5C467.055 867.095 466.388 866.428 466 865.5C465.987 858.579 464.154 852.245 460.5 846.5C459.167 847.167 458.167 848.167 457.5 849.5C456.311 850.429 454.978 850.762 453.5 850.5C453.169 858.85 449.169 864.517 441.5 867.5C441.719 866.325 441.386 865.325 440.5 864.5C435.277 868.279 429.61 871.279 423.5 873.5C423.167 872 422.833 870.5 422.5 869C423.054 863.729 424.054 858.562 425.5 853.5C424.167 853.5 422.833 853.5 421.5 853.5C423.069 846.37 427.069 841.037 433.5 837.5C434.576 835.013 435.91 832.68 437.5 830.5C430.858 829.669 424.191 829.169 417.5 829C416.978 828.439 416.645 827.772 416.5 827C422.069 812.927 432.402 805.76 447.5 805.5C458.467 786.851 474.134 774.185 494.5 767.5Z" fill="#1b1b1b" fill-rule="evenodd" opacity="1" stroke="none" />
<path d="M461.5 820.5C462.043 820.56 462.376 820.893 462.5 821.5C458.378 830.741 452.545 838.741 445 845.5C444.743 842.983 445.41 840.65 447 838.5C450.969 831.709 455.802 825.709 461.5 820.5Z" fill="#e1e1e2" fill-rule="evenodd" opacity="1" stroke="none" />
<path d="M440.5 808.5C442.288 808.215 443.955 808.548 445.5 809.5C441.775 814.614 439.442 820.281 438.5 826.5C418.394 831.665 415.06 827.499 428.5 814C432.227 811.299 436.227 809.465 440.5 808.5Z" fill="#efeff0" fill-rule="evenodd" opacity="1" stroke="none" />
<path d="M476.5 777.5C477.552 777.351 478.552 777.517 479.5 778C481.35 781.362 483.683 784.362 486.5 787C491.03 789.427 495.363 792.094 499.5 795C492.998 816.493 480.165 832.993 461 844.5C458.222 843.198 455.722 841.532 453.5 839.5C459.462 833.569 463.296 826.569 465 818.5C463.612 817.446 462.112 817.28 460.5 818C455.003 822.85 450.336 828.35 446.5 834.5C440.977 832.701 439.143 829.035 441 823.5C447.851 804.17 459.684 788.836 476.5 777.5Z" fill="#f2f2f2" fill-rule="evenodd" opacity="1" stroke="none" />
<path d="M473.5 790.5C483.534 789.393 488.034 793.726 487 803.5C483.547 811.318 478.047 813.151 470.5 809C464.722 801.725 465.722 795.558 473.5 790.5Z" fill="#1b1b1b" fill-rule="evenodd" opacity="1" stroke="none" />
<path d="M474.5 792.5C481.985 792.483 485.485 796.15 485 803.5C480.408 809.679 475.408 810.012 470 804.5C468.474 799.239 469.974 795.239 474.5 792.5Z" fill="#eeeeee" fill-rule="evenodd" opacity="1" stroke="none" />
<path d="M494.5 769.5C496.792 769.244 498.959 769.577 501 770.5C501.667 776.5 501.667 782.5 501 788.5C500.751 789.624 500.251 790.624 499.5 791.5C491.449 788.645 485.115 783.645 480.5 776.5C484.98 773.593 489.647 771.26 494.5 769.5Z" fill="#efefef" fill-rule="evenodd" opacity="1" stroke="none" />
<path d="M439.5 832.5C442.532 833.999 444.032 836.332 444 839.5C441.143 839.898 438.976 838.565 437.5 835.5C438.193 834.482 438.859 833.482 439.5 832.5Z" fill="#e9e9e9" fill-rule="evenodd" opacity="1" stroke="none" />
<path d="M450.5 842.5C453.358 842.595 455.691 843.762 457.5 846C454.981 849.038 452.481 848.872 450 845.5C449.53 844.423 449.697 843.423 450.5 842.5Z" fill="#e3e4e4" fill-rule="evenodd" opacity="1" stroke="none" />
<path d="M438.5 841.5C442.619 841.95 443.619 843.95 441.5 847.5C451.11 845.968 453.61 849.634 449 858.5C447.553 860.403 445.886 862.07 444 863.5C443.581 862.328 442.915 861.328 442 860.5C437.283 864.942 431.783 867.942 425.5 869.5C425.658 862.878 426.991 856.545 429.5 850.5C425.561 850.822 424.728 849.489 427 846.5C429.489 843.168 432.656 840.834 436.5 839.5C437.713 839.747 438.38 840.414 438.5 841.5Z" fill="#ebebeb" fill-rule="evenodd" opacity="1" stroke="none" />
<path d="M438.5 841.5C437.585 843.754 436.252 845.754 434.5 847.5C433.479 846.998 433.312 846.332 434 845.5C435.307 843.808 436.807 842.475 438.5 841.5Z" fill="#2b2a2b" fill-rule="evenodd" opacity="1" stroke="none" />
<path d="M477.5 834.5C478.496 834.414 479.329 834.748 480 835.5C481.906 846.956 478.406 856.29 469.5 863.5C468.024 857.959 466.357 852.459 464.5 847C468.402 843.692 472.402 840.359 476.5 837C477.252 836.329 477.586 835.496 477.5 834.5Z" fill="#eff0f0" fill-rule="evenodd" opacity="1" stroke="none" />
<path d="M441.5 855.5C444.117 854.216 446.117 852.216 447.5 849.5C448.045 853.626 446.045 855.626 441.5 855.5Z" fill="#2c2c2c" fill-rule="evenodd" opacity="1" stroke="none" />
<path d="M441.5 855.5C439.235 857.642 436.568 859.309 433.5 860.5C432.158 856.752 432.325 853.085 434 849.5C433.934 852.578 434.101 855.578 434.5 858.5C436.739 857.212 439.072 856.212 441.5 855.5Z" fill="#1c1c1c" fill-rule="evenodd" opacity="1" stroke="none" />
</g>

</svg>