<?xml version="1.0" encoding="UTF-8"?>
<svg xmlns="http://www.w3.org/2000/svg" version="1.1" viewBox="923.56 773.52 174.50 103.06" width="174.50" height="103.06" style="fill-rule:nonzero;clip-rule:evenodd;stroke-linecap:round;stroke-linejoin:round;" xml:space="preserve">
<g opacity="1">
<path d="M1002.5 781.5C1043.56 779.516 1068.56 798.516 1077.5 838.5C1087.56 839.067 1092.06 844.4 1091 854.5C1087.96 862.444 1082.13 865.944 1073.5 865C1068.61 869.244 1062.94 870.577 1056.5 869C1055.17 868 1053.83 867 1052.5 866C1048.17 865.667 1043.83 865.333 1039.5 865C1031.96 860.968 1029.46 854.802 1032 846.5C1034.38 841.728 1038.21 839.061 1043.5 838.5C1043.5 834.489 1042.33 830.822 1040 827.5C1033.78 818.889 1025.44 814.556 1015 814.5C998.262 814.44 987.762 822.44 983.5 838.5C994.582 842.01 997.415 849.01 992 859.5C987.258 865.386 981.258 867.052 974 864.5C965.968 869.732 957.968 869.732 950 864.5C936.223 867.05 929.556 861.384 930 847.5C933.367 840.315 939.033 836.648 947 836.5C947.953 834.545 949.287 832.878 951 831.5C958.53 804.801 975.697 788.135 1002.5 781.5Z" fill="#1a1b1b" fill-rule="evenodd" opacity="1" stroke="none" />
<path d="M1007.5 803.5C1028.92 802.53 1043.92 811.697 1052.5 831C1050.69 832.812 1048.86 834.645 1047 836.5C1039.88 818.015 1026.38 809.848 1006.5 812C993.728 815.773 985.228 823.94 981 836.5C977.042 839.292 974.542 838.126 973.5 833C979.8 817.189 991.134 807.356 1007.5 803.5Z" fill="#ececec" fill-rule="evenodd" opacity="1" stroke="none" />
<path d="M1005.5 793.5C1032.46 791.716 1051.29 803.049 1062 827.5C1062.8 831.863 1060.97 833.696 1056.5 833C1046.05 808.609 1027.72 798.609 1001.5 803C986.787 807.547 976.787 817.047 971.5 831.5C968.867 830.7 966.867 829.2 965.5 827C973.281 809.041 986.614 797.874 1005.5 793.5Z" fill="#ededed" fill-rule="evenodd" opacity="1" stroke="none" />
<path d="M1004.5 783.5C1034.52 781.75 1056.35 794.084 1070 820.5C1071.79 824.327 1072.96 828.327 1073.5 832.5C1070.57 831.539 1067.57 830.873 1064.5 830.5C1056.78 804.947 1039.44 791.947 1012.5 791.5C988.295 793.04 971.628 805.04 962.5 827.5C960.187 828.273 957.854 828.94 955.5 829.5C955.714 824.328 957.214 819.328 960 814.5C970.6 798.063 985.433 787.73 1004.5 783.5Z" fill="#ececec" fill-rule="evenodd" opacity="1" stroke="none" />
<path d="M956.5 830.5C965.745 829.285 972.079 832.952 975.5 841.5C986.787 838.628 992.287 842.962 992 854.5C988.157 862.788 981.824 865.454 973 862.5C965.254 866.453 957.588 866.453 950 862.5C936.868 865.034 931.201 859.7 933 846.5C935.756 841.704 939.923 839.371 945.5 839.5C945.5 840.833 945.5 842.167 945.5 843.5C946.5 843.5 947.5 843.5 948.5 843.5C948.689 837.644 951.356 833.31 956.5 830.5Z" fill="#f4f4f4" fill-rule="evenodd" opacity="1" stroke="none" />
<path d="M1062.5 833.5C1065.98 833.184 1069.31 833.684 1072.5 835C1074.61 836.264 1075.61 838.097 1075.5 840.5C1085.79 840.418 1089.96 845.418 1088 855.5C1084.52 861.227 1079.36 863.727 1072.5 863C1065.02 869.05 1057.69 868.883 1050.5 862.5C1035.92 864.333 1031.08 858.333 1036 844.5C1039.48 841.117 1043.65 839.784 1048.5 840.5C1049.98 835.011 1053.48 833.344 1059 835.5C1060.46 835.192 1061.63 834.525 1062.5 833.5Z" fill="#f4f4f4" fill-rule="evenodd" opacity="1" stroke="none" />
</g>

</svg>