<?xml version="1.0" encoding="UTF-8"?>
<svg xmlns="http://www.w3.org/2000/svg" version="1.1" viewBox="600.64 762.49 92.83 116.08" width="92.83" height="116.08" style="fill-rule:nonzero;clip-rule:evenodd;stroke-linecap:round;stroke-linejoin:round;" xml:space="preserve">
<g opacity="1">
<path d="M616.5 808.5C617.999 806.547 617.665 804.88 615.5 803.5C616.808 802.374 618.142 802.374 619.5 803.5C618.588 804.738 618.421 806.072 619 807.5C625.199 800.567 632.865 796.234 642 794.5C643.046 796.09 644.213 797.59 645.5 799C648.833 799.667 652.167 799.667 655.5 799C656.646 798.355 657.646 797.522 658.5 796.5C680.973 807.788 687.473 825.122 678 848.5C668.684 862.619 655.517 868.453 638.5 866C619.252 859.337 610.086 845.837 611 825.5C612.097 819.703 614.264 814.369 617.5 809.5C617.376 808.893 617.043 808.56 616.5 808.5Z" fill="#e9e9e9" fill-rule="evenodd" opacity="1" stroke="none" />
<path d="M640.5 801.5C668.892 802.048 679.725 816.048 673 843.5C664.407 858.118 651.907 862.951 635.5 858C617.294 847.755 612.794 833.255 622 814.5C626.963 808.284 633.13 803.95 640.5 801.5Z" fill="#171717" fill-rule="evenodd" opacity="1" stroke="none" />
<path d="M641.5 803.5C656.954 802.472 667.454 809.139 673 823.5C674.517 847.317 663.35 858.484 639.5 857C627.023 852.406 620.356 843.406 619.5 830C621.235 816.438 628.568 807.605 641.5 803.5Z" fill="#f6f6f6" fill-rule="evenodd" opacity="1" stroke="none" />
<path d="M616.5 808.5C617.043 808.56 617.376 808.893 617.5 809.5C614.264 814.369 612.097 819.703 611 825.5C610.086 845.837 619.252 859.337 638.5 866C655.517 868.453 668.684 862.619 678 848.5C687.473 825.122 680.973 807.788 658.5 796.5C657.646 797.522 656.646 798.355 655.5 799C652.167 799.667 648.833 799.667 645.5 799C644.213 797.59 643.046 796.09 642 794.5C632.865 796.234 625.199 800.567 619 807.5C618.421 806.072 618.588 804.738 619.5 803.5C625.484 798.007 632.484 794.34 640.5 792.5C637.904 788.423 635.57 784.256 633.5 780C635.691 775.796 638.691 772.129 642.5 769C648.865 768.487 655.199 768.821 661.5 770C664.999 774.002 667.999 778.335 670.5 783C667.5 786.667 664.5 790.333 661.5 794C666.24 797.128 670.74 800.628 675 804.5C684.034 814.53 687.034 826.197 684 839.5C675.372 863.402 658.539 872.569 633.5 867C614.805 858.121 606.639 843.288 609 822.5C610.228 817.038 612.728 812.371 616.5 808.5Z" fill="#181819" fill-rule="evenodd" opacity="1" stroke="none" />
<path d="M659.5 783.5C661.924 783.192 664.257 783.526 666.5 784.5C662.849 788.652 659.016 792.652 655 796.5C655.883 792.043 657.383 787.71 659.5 783.5Z" fill="#e1e1e2" fill-rule="evenodd" opacity="1" stroke="none" />
<path d="M647.5 771.5C651.226 771.177 654.893 771.511 658.5 772.5C657.423 775.474 657.423 778.474 658.5 781.5C650.606 781.527 650.606 782.193 658.5 783.5C656.393 787.381 654.559 791.381 653 795.5C651.612 796.554 650.112 796.72 648.5 796C646.869 791.606 645.536 787.106 644.5 782.5C646.078 781.702 647.744 781.202 649.5 781C647.744 780.798 646.078 780.298 644.5 779.5C646.076 777.021 647.076 774.354 647.5 771.5Z" fill="#e9e9e9" fill-rule="evenodd" opacity="1" stroke="none" />
<path d="M636.5 782.5C638.56 781.189 640.726 781.189 643 782.5C644.451 786.824 645.451 791.158 646 795.5C642.812 791.099 639.645 786.766 636.5 782.5Z" fill="#dedfdf" fill-rule="evenodd" opacity="1" stroke="none" />
<path d="M660.5 772.5C663.22 774.917 665.22 777.917 666.5 781.5C664.305 782.769 662.139 782.769 660 781.5C659.264 778.408 659.431 775.408 660.5 772.5Z" fill="#dcdcdc" fill-rule="evenodd" opacity="1" stroke="none" />
<path d="M643.5 771.5C644.586 771.62 645.253 772.287 645.5 773.5C644.657 778.685 641.657 780.519 636.5 779C639.039 776.63 641.372 774.13 643.5 771.5Z" fill="#e9e9e9" fill-rule="evenodd" opacity="1" stroke="none" />
</g>

</svg>