<?xml version="1.0" encoding="UTF-8"?>
<svg xmlns="http://www.w3.org/2000/svg" version="1.1" viewBox="784.50 770.50 80.00 114.45" width="80.00" height="114.45" style="fill-rule:nonzero;clip-rule:evenodd;stroke-linecap:round;stroke-linejoin:round;" xml:space="preserve">
<g opacity="1">
<path d="M817.5 776.5C825.037 776.993 832.537 776.993 840 776.5C847.83 777.329 851.83 781.663 852 789.5C853 790.5 854 791.5 855 792.5C855.221 796.041 856.388 799.207 858.5 802C857.32 805.846 854.82 808.346 851 809.5C848.7 819.633 842.533 825.966 832.5 828.5C833.167 829.5 833.833 830.5 834.5 831.5C834.167 831.833 833.833 832.167 833.5 832.5C832.108 831.395 830.941 830.061 830 828.5C829.74 830.618 828.74 832.284 827 833.5C825.622 841.003 823.955 848.337 822 855.5C828.373 840.729 839.54 835.062 855.5 838.5C850.715 857.556 839.048 864.056 820.5 858C817.064 865.541 812.398 872.208 806.5 878C804.044 878.946 802.044 878.446 800.5 876.5C806.502 870.848 810.836 864.181 813.5 856.5C805.761 857.422 799.594 854.755 795 848.5C792.293 842.798 790.793 836.798 790.5 830.5C801.847 830.578 810.013 835.578 815 845.5C815.333 848.167 815.667 850.833 816 853.5C819.441 845.76 820.941 837.76 820.5 829.5C819.232 830.428 817.899 830.595 816.5 830C817.685 828.647 819.019 827.48 820.5 826.5C814.323 824.836 809.823 821.169 807 815.5C805.939 810.896 805.273 806.229 805 801.5C798.852 795.866 799.352 790.699 806.5 786C807.833 785.667 809.167 785.333 810.5 785C811.973 781.369 814.306 778.536 817.5 776.5Z" fill="#191919" fill-rule="evenodd" opacity="1" stroke="none" />
<path d="M817.5 793.5C820.94 795.055 824.273 796.888 827.5 799C832.963 799.754 838.296 799.254 843.5 797.5C844.216 802.963 841.883 806.463 836.5 808C834.112 810.05 832.112 812.384 830.5 815C830.667 815.5 830.833 816 831 816.5C835.236 809.827 841.069 807.827 848.5 810.5C844.49 822.919 836.324 827.253 824 823.5C816.942 823.774 811.942 820.44 809 813.5C808.176 810.118 808.343 806.784 809.5 803.5C816.377 804.709 820.71 808.709 822.5 815.5C822.833 814.833 823.167 814.167 823.5 813.5C821.521 808.877 819.021 804.544 816 800.5C815.391 797.935 815.891 795.601 817.5 793.5Z" fill="#eeefef" fill-rule="evenodd" opacity="1" stroke="none" />
<path d="M809.5 786.5C810.5 786.5 811.5 786.5 812.5 786.5C812.866 788.905 813.533 791.238 814.5 793.5C813.426 797.162 813.426 800.495 814.5 803.5C809.491 801.976 805.491 799.142 802.5 795C803.959 791.381 806.293 788.547 809.5 786.5Z" fill="#e7e7e7" fill-rule="evenodd" opacity="1" stroke="none" />
<path d="M840.5 787.5C841.167 789.167 841.833 790.833 842.5 792.5C841.494 793.396 841.494 794.062 842.5 794.5C841.791 795.404 840.791 795.737 839.5 795.5C840.265 792.904 840.599 790.237 840.5 787.5Z" fill="#737272" fill-rule="evenodd" opacity="1" stroke="none" />
<path d="M849.5 792.5C850.822 792.33 851.989 792.663 853 793.5C858.243 804.6 854.743 809.1 842.5 807C846.316 804.885 847.316 801.885 845.5 798C846.55 795.971 847.884 794.137 849.5 792.5Z" fill="#e4e4e5" fill-rule="evenodd" opacity="1" stroke="none" />
<path d="M821.5 786.5C823.641 789.472 826.308 791.972 829.5 794C826.437 795.665 823.604 795.165 821 792.5C820.322 790.402 820.489 788.402 821.5 786.5Z" fill="#ebecec" fill-rule="evenodd" opacity="1" stroke="none" />
<path d="M840.5 787.5C840.599 790.237 840.265 792.904 839.5 795.5C828.587 797.635 827.587 796.469 836.5 792C838.487 790.681 839.654 788.848 840 786.5C840.399 786.728 840.565 787.062 840.5 787.5Z" fill="#e8e8e8" fill-rule="evenodd" opacity="1" stroke="none" />
<path d="M826.5 783.5C831.226 782.617 835.226 783.784 838.5 787C835.928 791.61 832.594 792.443 828.5 789.5C830.135 788.319 831.802 788.319 833.5 789.5C834.583 788.635 834.749 787.635 834 786.5C830.794 784.876 828.128 785.542 826 788.5C824.198 786.727 824.365 785.06 826.5 783.5Z" fill="#d0d1d2" fill-rule="evenodd" opacity="1" stroke="none" />
<path d="M842.5 794.5C841.494 794.062 841.494 793.396 842.5 792.5C843.511 790.598 843.678 788.598 843 786.5C840.356 784.69 837.856 782.69 835.5 780.5C840.111 778.806 844.277 779.472 848 782.5C850.763 788.638 848.93 792.638 842.5 794.5Z" fill="#eaeaea" fill-rule="evenodd" opacity="1" stroke="none" />
<path d="M819.5 778.5C822.518 778.335 825.518 778.502 828.5 779C830.974 779.113 832.974 780.113 834.5 782C828.583 780.698 823.416 782.198 819 786.5C818.821 788.424 818.654 790.091 818.5 791.5C815.176 790.841 813.843 788.841 814.5 785.5C814.667 784.167 814.833 782.833 815 781.5C816.652 780.601 818.152 779.601 819.5 778.5Z" fill="#e8e8e8" fill-rule="evenodd" opacity="1" stroke="none" />
<path d="M823.5 826.5C825.346 826.222 826.68 826.889 827.5 828.5C826.923 830.55 825.59 831.55 823.5 831.5C823.5 829.833 823.5 828.167 823.5 826.5Z" fill="#d7d9d9" fill-rule="evenodd" opacity="1" stroke="none" />
<path d="M793.5 833.5C805.297 833.952 811.797 839.952 813 851.5C810.46 849.295 808.293 846.795 806.5 844C804.309 842.081 801.976 840.747 799.5 840C804.057 844.054 808.057 848.554 811.5 853.5C799.126 853.109 793.126 846.442 793.5 833.5Z" fill="#ebebeb" fill-rule="evenodd" opacity="1" stroke="none" />
<path d="M838.5 840.5C843.167 840.5 847.833 840.5 852.5 840.5C848.712 854.887 839.712 860.22 825.5 856.5C831.336 852.748 837.336 849.248 843.5 846C837.711 847.887 832.044 850.387 826.5 853.5C826.167 853.167 825.833 852.833 825.5 852.5C828.601 847.062 832.934 843.062 838.5 840.5Z" fill="#e9e9e9" fill-rule="evenodd" opacity="1" stroke="none" />
<path d="M823.5 834.5C823.196 846.256 819.696 857.256 813 867.5C810.688 870.979 807.854 873.979 804.5 876.5C809.203 869.817 813.703 862.484 818 854.5C820.404 847.971 822.238 841.305 823.5 834.5Z" fill="#cdcece" fill-rule="evenodd" opacity="1" stroke="none" />
</g>

</svg>