<?xml version="1.0" encoding="UTF-8" standalone="no"?>
<svg xmlns="http://www.w3.org/2000/svg" fill-rule="nonzero" clip-rule="evenodd" stroke-miterlimit="10" style="fill-rule:nonzero;clip-rule:evenodd;stroke-linecap:round;stroke-linejoin:round;"
     viewBox="1274.5 460.3 215.4 194.6" xml:space="preserve">
<g opacity="1">
<path d="M1367.5 473.5C1375.46 472.899 1381.63 475.899 1386 482.5C1387.92 487.649 1388.92 492.983 1389 498.5C1393.08 502.984 1396.41 507.984 1399 513.5C1404.47 528.245 1410.14 542.912 1416 557.5C1422.26 571.525 1431.1 583.692 1442.5 594C1452.45 600.226 1462.62 606.06 1473 611.5C1476.6 616.628 1477.93 622.295 1477 628.5C1476.1 629.701 1474.93 630.535 1473.5 631C1454.57 633.42 1435.91 636.92 1417.5 641.5C1414.63 641.069 1411.97 640.069 1409.5 638.5C1401.6 642.87 1397.77 640.536 1398 631.5C1377.48 617.622 1362.81 598.956 1354 575.5C1351.47 569.579 1349.14 563.579 1347 557.5C1343.79 573.444 1340.79 589.444 1338 605.5C1336.69 611.725 1333.35 613.058 1328 609.5C1327.98 605.806 1328.48 602.14 1329.5 598.5C1319.13 598.42 1308.79 599.42 1298.5 601.5C1298.05 607.112 1296.71 612.446 1294.5 617.5C1289.24 619.859 1286.57 618.192 1286.5 612.5C1293.31 570.021 1300.81 527.688 1309 485.5C1317.38 472.973 1326.72 472.307 1337 483.5C1339.14 488.258 1339.98 493.258 1339.5 498.5C1344.5 498.5 1349.5 498.5 1354.5 498.5C1354.14 487.492 1358.47 479.159 1367.5 473.5Z" fill="#171818" fill-rule="evenodd" opacity="1" stroke="none"/>
<path d="M1321.5 591.5C1324.5 591.5 1327.5 591.5 1330.5 591.5C1330.5 592.5 1330.5 593.5 1330.5 594.5C1320.13 595.574 1309.8 596.907 1299.5 598.5C1299.5 597.167 1299.5 595.833 1299.5 594.5C1307.05 594.126 1314.39 593.126 1321.5 591.5Z" fill="#e5e6e6" fill-rule="evenodd" opacity="1" stroke="none"/>
<path d="M1325.5 576.5C1327.83 576.5 1330.17 576.5 1332.5 576.5C1332.31 580.448 1331.65 584.281 1330.5 588C1320.55 589.66 1310.55 590.827 1300.5 591.5C1300.69 587.552 1301.35 583.719 1302.5 580C1310.39 579.392 1318.06 578.225 1325.5 576.5Z" fill="#f0f0f0" fill-rule="evenodd" opacity="1" stroke="none"/>
<path d="M1331.5 569.5C1332.5 569.5 1333.5 569.5 1334.5 569.5C1334.5 570.833 1334.5 572.167 1334.5 573.5C1324.19 574.782 1313.86 575.782 1303.5 576.5C1303.33 575.178 1303.66 574.011 1304.5 573C1313.69 572.149 1322.69 570.982 1331.5 569.5Z" fill="#e1e2e2" fill-rule="evenodd" opacity="1" stroke="none"/>
<path d="M1367.5 476.5C1379.33 475.996 1385.33 481.663 1385.5 493.5C1385.35 495.32 1384.68 496.82 1383.5 498C1388.05 500.883 1391.55 504.716 1394 509.5C1400 524.833 1406 540.167 1412 555.5C1418.73 571.557 1428.56 585.391 1441.5 597C1451.28 602.641 1461.12 608.141 1471 613.5C1474.11 617.685 1475.11 622.352 1474 627.5C1472.64 628.38 1471.14 628.714 1469.5 628.5C1469.32 624.305 1467.65 620.805 1464.5 618C1436.33 607.167 1416.83 587.667 1406 559.5C1400.33 544.833 1394.67 530.167 1389 515.5C1387.06 511.89 1384.72 508.557 1382 505.5C1381.67 500.167 1381.33 494.833 1381 489.5C1378.91 481.538 1374.07 479.038 1366.5 482C1363.31 486.624 1361.64 491.791 1361.5 497.5C1360.17 497.5 1358.83 497.5 1357.5 497.5C1357.03 488.527 1360.36 481.527 1367.5 476.5Z" fill="#ececec" fill-rule="evenodd" opacity="1" stroke="none"/>
<path d="M1341.5 543.5C1342.12 543.611 1342.62 543.944 1343 544.5C1343.82 547.107 1344.32 549.774 1344.5 552.5C1341.28 571.146 1338.28 589.813 1335.5 608.5C1333.83 608.5 1332.17 608.5 1330.5 608.5C1333.78 586.765 1337.45 565.098 1341.5 543.5Z" fill="#e8e8e8" fill-rule="evenodd" opacity="1" stroke="none"/>
<path d="M1329.5 555.5C1332.06 555.198 1334.39 555.532 1336.5 556.5C1336.21 560.1 1335.54 563.6 1334.5 567C1324.48 568.058 1314.48 569.225 1304.5 570.5C1305.08 566.19 1305.41 561.857 1305.5 557.5C1313.49 556.739 1321.49 556.073 1329.5 555.5Z" fill="#f0f1f0" fill-rule="evenodd" opacity="1" stroke="none"/>
<path d="M1329.5 555.5C1332.02 554.2 1334.69 554.2 1337.5 555.5C1337.38 556.107 1337.04 556.44 1336.5 556.5C1334.39 555.532 1332.06 555.198 1329.5 555.5Z" fill="#7f8382" fill-rule="evenodd" opacity="1" stroke="none"/>
<path d="M1336.5 502.5C1341.79 507.062 1345.63 512.729 1348 519.5C1355.42 543.324 1364.75 566.324 1376 588.5C1380.23 595.12 1385.06 601.287 1390.5 607C1398.91 613.289 1407.41 619.456 1416 625.5C1418.5 629.485 1419.66 633.818 1419.5 638.5C1400.6 631.953 1385.1 620.62 1373 604.5C1367.24 595.984 1362.24 586.984 1358 577.5C1351.07 560.386 1344.74 543.052 1339 525.5C1337.68 521.528 1335.85 517.861 1333.5 514.5C1333.5 510.5 1333.5 506.5 1333.5 502.5C1334.5 502.5 1335.5 502.5 1336.5 502.5Z" fill="#f1f1f1" fill-rule="evenodd" opacity="1" stroke="none"/>
<path d="M1327.5 548.5C1331.17 548.5 1334.83 548.5 1338.5 548.5C1338.67 549.822 1338.34 550.989 1337.5 552C1327.5 552.944 1317.5 553.778 1307.5 554.5C1307.5 553.167 1307.5 551.833 1307.5 550.5C1314.4 550.706 1321.06 550.039 1327.5 548.5Z" fill="#e0e1e0" fill-rule="evenodd" opacity="1" stroke="none"/>
<path d="M1329.5 532.5C1332.78 532.216 1335.94 532.549 1339 533.5C1339.61 537.537 1339.44 541.537 1338.5 545.5C1328.96 546.047 1319.46 547.047 1310 548.5C1309.17 548.167 1308.33 547.833 1307.5 547.5C1308.34 543.272 1309.34 539.106 1310.5 535C1317.07 534.849 1323.4 534.015 1329.5 532.5Z" fill="#eff0f0" fill-rule="evenodd" opacity="1" stroke="none"/>
<path d="M1327.5 526.5C1330.52 526.335 1333.52 526.502 1336.5 527C1337.34 528.011 1337.67 529.178 1337.5 530.5C1328.81 530.946 1320.15 531.613 1311.5 532.5C1311.5 531.167 1311.5 529.833 1311.5 528.5C1316.99 527.982 1322.32 527.315 1327.5 526.5Z" fill="#dcdcdc" fill-rule="evenodd" opacity="1" stroke="none"/>
<path d="M1313.5 512.5C1318.87 512.523 1324.21 513.023 1329.5 514C1332.28 516.603 1333.94 519.77 1334.5 523.5C1327.15 524.057 1319.82 524.723 1312.5 525.5C1312.59 521.143 1312.92 516.81 1313.5 512.5Z" fill="#ededed" fill-rule="evenodd" opacity="1" stroke="none"/>
<path d="M1336.5 502.5C1335.5 502.5 1334.5 502.5 1333.5 502.5C1333.5 506.5 1333.5 510.5 1333.5 514.5C1332.94 505.576 1332.11 496.576 1331 487.5C1324.83 480.535 1319.5 481.202 1315 489.5C1308 531.17 1301 572.836 1294 614.5C1292.64 615.38 1291.14 615.714 1289.5 615.5C1295.91 572.728 1303.07 530.061 1311 487.5C1316.15 477.875 1323.32 476.042 1332.5 482C1336.12 487.201 1337.79 493.034 1337.5 499.5C1334 499.694 1333.66 500.694 1336.5 502.5Z" fill="#e5e5e5" fill-rule="evenodd" opacity="1" stroke="none"/>
<path d="M1345.5 500.5C1366.78 495.064 1381.28 502.398 1389 522.5C1396.31 545.782 1406.31 567.782 1419 588.5C1430.66 602.807 1445.16 613.307 1462.5 620C1465.86 622.347 1466.86 625.347 1465.5 629C1451.12 631.619 1436.78 634.453 1422.5 637.5C1422.45 629.294 1419.12 622.794 1412.5 618C1396.78 610.945 1384.95 599.779 1377 584.5C1366.24 562.548 1357.24 539.882 1350 516.5C1347.42 511.667 1344.58 507 1341.5 502.5C1342.95 501.828 1344.28 501.161 1345.5 500.5Z" fill="#f6f6f6" fill-rule="evenodd" opacity="1" stroke="none"/>
<path d="M1318.5 498.5C1322.53 498.505 1326.53 498.838 1330.5 499.5C1330.5 503.5 1330.5 507.5 1330.5 511.5C1325.29 510.558 1320.13 509.558 1315 508.5C1314.5 504.433 1315.66 501.1 1318.5 498.5Z" fill="#ececec" fill-rule="evenodd" opacity="1" stroke="none"/>
<path d="M1378.5 495.5C1379.8 497.693 1379.8 500.027 1378.5 502.5C1377.89 502.376 1377.56 502.043 1377.5 501.5C1378.46 499.735 1378.79 497.735 1378.5 495.5Z" fill="#8b8b8b" fill-rule="evenodd" opacity="1" stroke="none"/>
<path d="M1378.5 495.5C1378.79 497.735 1378.46 499.735 1377.5 501.5C1373.29 499.565 1368.96 497.899 1364.5 496.5C1365.09 492.769 1365.92 489.102 1367 485.5C1370.62 482.657 1373.95 482.99 1377 486.5C1378.15 489.393 1378.65 492.393 1378.5 495.5Z" fill="#e5e5e5" fill-rule="evenodd" opacity="1" stroke="none"/>
<path d="M1321.5 485.5C1328.56 486.565 1331.23 490.565 1329.5 497.5C1325.24 496.561 1320.9 496.228 1316.5 496.5C1316.32 491.876 1317.98 488.209 1321.5 485.5Z" fill="#e1e2e2" fill-rule="evenodd" opacity="1" stroke="none"/>
<path d="M1401.5 633.5C1403.49 634.164 1405.15 635.331 1406.5 637C1402.67 639.363 1401.01 638.197 1401.5 633.5Z" fill="#dbdbdb" fill-rule="evenodd" opacity="1" stroke="none"/>
</g>
</svg>