<?xml version="1.0" encoding="UTF-8"?>
<svg xmlns="http://www.w3.org/2000/svg" version="1.1" viewBox="222.06 889.47 112.60 116.74" width="112.60" height="116.74" style="fill-rule:nonzero;clip-rule:evenodd;stroke-linecap:round;stroke-linejoin:round;" xml:space="preserve">
<g opacity="1">
<path d="M281.5 895.5C290.307 895.465 292.64 899.298 288.5 907C280.685 909.522 277.518 906.689 279 898.5C280.045 897.627 280.878 896.627 281.5 895.5Z" fill="#191919" fill-rule="evenodd" opacity="1" stroke="none" />
<path d="M282.5 897.5C287.709 897.369 289.375 899.703 287.5 904.5C280.37 906.277 278.703 903.944 282.5 897.5Z" fill="#e1e1e2" fill-rule="evenodd" opacity="1" stroke="none" />
<path d="M305.5 898.5C316.032 898.199 320.199 903.199 318 913.5C314.702 918.22 310.202 919.72 304.5 918C296.42 911.185 296.753 904.685 305.5 898.5Z" fill="#191919" fill-rule="evenodd" opacity="1" stroke="none" />
<path d="M306.5 900.5C314.201 900.362 317.367 904.029 316 911.5C311.748 917.653 307.081 917.986 302 912.5C300.474 907.239 301.974 903.239 306.5 900.5Z" fill="#ededed" fill-rule="evenodd" opacity="1" stroke="none" />
<path d="M261.5 923.5C264.85 923.335 268.183 923.502 271.5 924C280.531 926.732 289.531 929.566 298.5 932.5C300.666 930.507 302.999 928.673 305.5 927C316.19 925.522 320.524 930.022 318.5 940.5C323.078 942.034 326.244 945.034 328 949.5C328.667 957.5 328.667 965.5 328 973.5C327.439 975.725 326.439 977.725 325 979.5C316.611 986.61 307.778 993.11 298.5 999C290.097 1000.2 282.097 998.869 274.5 995C260.672 989.724 247.005 984.057 233.5 978C231.106 976.048 229.606 973.548 229 970.5C228.063 962.063 228.396 953.73 230 945.5C231.046 943.91 232.213 942.41 233.5 941C242.74 934.908 252.074 929.074 261.5 923.5Z" fill="#1d1d1d" fill-rule="evenodd" opacity="1" stroke="none" />
<path d="M319.5 922.5C326.536 921.603 328.203 924.103 324.5 930C318.785 930.401 317.119 927.901 319.5 922.5Z" fill="#181817" fill-rule="evenodd" opacity="1" stroke="none" />
<path d="M320.5 924.5C321.833 924.5 323.167 924.5 324.5 924.5C324.833 927.5 323.5 928.833 320.5 928.5C320.5 927.167 320.5 925.833 320.5 924.5Z" fill="#e7e7e7" fill-rule="evenodd" opacity="1" stroke="none" />
<path d="M307.5 928.5C313.984 928.815 317.151 932.148 317 938.5C314.565 943.224 310.731 944.724 305.5 943C299.947 937.366 300.613 932.533 307.5 928.5Z" fill="#eeeeee" fill-rule="evenodd" opacity="1" stroke="none" />
<path d="M232.5 955.5C231.515 959.634 231.182 963.968 231.5 968.5C230.188 963.985 230.188 959.318 231.5 954.5C232.107 954.624 232.44 954.957 232.5 955.5Z" fill="#535253" fill-rule="evenodd" opacity="1" stroke="none" />
<path d="M231.5 968.5C231.182 963.968 231.515 959.634 232.5 955.5C250.1 963.795 268.1 971.295 286.5 978C295.419 979.693 303.085 977.36 309.5 971C314.854 966.644 319.854 961.977 324.5 957C324.167 956.833 323.833 956.667 323.5 956.5C315.883 963.955 307.549 970.455 298.5 976C294.167 976.667 289.833 976.667 285.5 976C268.674 969.725 252.007 963.058 235.5 956C229.992 951.015 230.325 946.348 236.5 942C245.167 936.667 253.833 931.333 262.5 926C265.5 925.333 268.5 925.333 271.5 926C280.363 929.399 289.363 932.399 298.5 935C301.131 945.981 307.464 948.814 317.5 943.5C320.391 944.532 322.891 946.199 325 948.5C325.667 957.167 325.667 965.833 325 974.5C318.105 982.394 310.272 989.227 301.5 995C291.827 997.511 282.494 996.511 273.5 992C261.754 987.529 250.087 982.862 238.5 978C234.403 976.078 232.07 972.912 231.5 968.5Z" fill="#f3f3f3" fill-rule="evenodd" opacity="1" stroke="none" />
<path d="M305.5 947.5C309.051 949.004 310.218 951.67 309 955.5C306.9 959.626 303.733 962.126 299.5 963C302.667 961.167 305.167 958.667 307 955.5C307.712 952.562 307.212 949.896 305.5 947.5Z" fill="#313131" fill-rule="evenodd" opacity="1" stroke="none" />
<path d="M262.5 934.5C263.552 934.351 264.552 934.517 265.5 935C260.273 937.533 255.439 940.699 251 944.5C248.759 948.119 249.592 950.952 253.5 953C248.882 952.143 247.382 949.31 249 944.5C253.123 940.536 257.623 937.203 262.5 934.5Z" fill="#212122" fill-rule="evenodd" opacity="1" stroke="none" />
<path d="M272.5 935.5C273.601 934.402 274.934 934.235 276.5 935C282.396 936.686 288.062 938.852 293.5 941.5C293.167 941.833 292.833 942.167 292.5 942.5C286.029 939.551 279.362 937.217 272.5 935.5Z" fill="#252626" fill-rule="evenodd" opacity="1" stroke="none" />
<path d="M262.5 957.5C262.735 956.903 263.235 956.57 264 956.5C271.697 959.716 279.53 962.549 287.5 965C278.874 963.699 270.541 961.199 262.5 957.5Z" fill="#2d2d2f" fill-rule="evenodd" opacity="1" stroke="none" />
</g>

</svg>