<?xml version="1.0" encoding="UTF-8" standalone="no"?>
<svg xmlns="http://www.w3.org/2000/svg" fill-rule="nonzero" clip-rule="evenodd" stroke-miterlimit="10" style="fill-rule:nonzero;clip-rule:evenodd;stroke-linecap:round;stroke-linejoin:round;"
     viewBox="38.5 665.5 174.0 178.0" xml:space="preserve">
<g opacity="1">
<path d="M123.5 677.5C124.5 677.5 125.5 677.5 126.5 677.5C126.5 686.5 126.5 695.5 126.5 704.5C125.5 704.5 124.5 704.5 123.5 704.5C123.5 695.5 123.5 686.5 123.5 677.5Z" fill="#1e1e1e" fill-rule="evenodd" opacity="1" stroke="none"/>
<path d="M152.5 694.5C153.497 694.47 154.164 694.97 154.5 696C152.525 700.786 150.192 705.286 147.5 709.5C146.692 709.192 146.025 708.692 145.5 708C147.974 703.552 150.307 699.052 152.5 694.5Z" fill="#141414" fill-rule="evenodd" opacity="1" stroke="none"/>
<path d="M90.5 696.5C92.0174 696.511 93.1841 697.177 94 698.5C96.2401 701.953 97.5735 705.619 98 709.5C94.4659 705.765 91.9659 701.432 90.5 696.5Z" fill="#1a191a" fill-rule="evenodd" opacity="1" stroke="none"/>
<path d="M65.5 703.5C70.0728 706.059 74.4061 709.059 78.5 712.5C79.3857 713.325 79.719 714.325 79.5 715.5C78.448 715.649 77.448 715.483 76.5 715C73.1667 712.333 69.8333 709.667 66.5 707C65.6634 705.989 65.33 704.822 65.5 703.5Z" fill="#161616" fill-rule="evenodd" opacity="1" stroke="none"/>
<path d="M181.5 703.5C183.355 703.272 184.188 703.939 184 705.5C177.936 711.4 171.436 716.734 164.5 721.5C163.167 720.5 163.167 719.5 164.5 718.5C170.509 713.821 176.175 708.821 181.5 703.5Z" fill="#151515" fill-rule="evenodd" opacity="1" stroke="none"/>
<path d="M114.5 711.5C140.495 708.568 157.995 719.235 167 743.5C170.693 765.776 162.86 782.609 143.5 794C120.619 802.826 102.119 797.326 88 777.5C75.0136 746.611 83.8469 724.611 114.5 711.5Z" fill="#171718" fill-rule="evenodd" opacity="1" stroke="none"/>
<path d="M118.5 713.5C146.124 713.299 161.79 726.799 165.5 754C162.99 779.177 149.156 793.01 124 795.5C103.057 793.89 90.0569 782.89 85 762.5C82.7858 736.908 93.9524 720.574 118.5 713.5Z" fill="#f6f6f6" fill-rule="evenodd" opacity="1" stroke="none"/>
<path d="M181.5 731.5C183.745 731.541 184.412 732.375 183.5 734C180.062 736.437 176.395 737.27 172.5 736.5C175.433 734.538 178.433 732.871 181.5 731.5Z" fill="#181818" fill-rule="evenodd" opacity="1" stroke="none"/>
<path d="M67.5 737.5C70.8984 737.18 74.2317 737.513 77.5 738.5C73.5617 739.785 69.8951 741.785 66.5 744.5C65.1668 741.862 65.5002 739.529 67.5 737.5Z" fill="#20201f" fill-rule="evenodd" opacity="1" stroke="none"/>
<path d="M106.5 742.5C111.712 742.227 114.545 744.561 115 749.5C114.586 749.957 114.086 750.291 113.5 750.5C110.436 745.229 107.27 745.229 104 750.5C103.13 749.892 102.63 749.059 102.5 748C103.65 746.019 104.984 744.186 106.5 742.5Z" fill="#181818" fill-rule="evenodd" opacity="1" stroke="none"/>
<path d="M138.5 742.5C143.74 742.258 146.573 744.592 147 749.5C146.667 749.833 146.333 750.167 146 750.5C144.611 748.773 142.944 747.439 141 746.5C139.005 748.23 136.838 749.563 134.5 750.5C134.343 749.127 134.51 747.793 135 746.5C136.376 745.295 137.542 743.962 138.5 742.5Z" fill="#191819" fill-rule="evenodd" opacity="1" stroke="none"/>
<path d="M50.5 752.5C55.1667 752.5 59.8333 752.5 64.5 752.5C64.5 753.5 64.5 754.5 64.5 755.5C59.8333 755.5 55.1667 755.5 50.5 755.5C50.5 754.5 50.5 753.5 50.5 752.5Z" fill="#1f2020" fill-rule="evenodd" opacity="1" stroke="none"/>
<path d="M175.5 752.5C183.507 752.334 191.507 752.5 199.5 753C199.957 753.414 200.291 753.914 200.5 754.5C191.833 755.833 183.167 755.833 174.5 754.5C174.863 753.817 175.196 753.15 175.5 752.5Z" fill="#212222" fill-rule="evenodd" opacity="1" stroke="none"/>
<path d="M111.5 763.5C114.187 764.664 116.52 766.497 118.5 769C125.915 771.694 131.915 769.861 136.5 763.5C136.833 764.167 137.167 764.833 137.5 765.5C134.853 771.081 130.353 773.748 124 773.5C120.362 773.597 117.195 772.43 114.5 770C112.549 768.266 111.549 766.099 111.5 763.5Z" fill="#171818" fill-rule="evenodd" opacity="1" stroke="none"/>
<path d="M171.5 772.5C175.678 773.253 179.678 774.587 183.5 776.5C184.386 777.325 184.719 778.325 184.5 779.5C180.203 778.854 176.203 777.354 172.5 775C171.748 774.329 171.414 773.496 171.5 772.5Z" fill="#1b1b1b" fill-rule="evenodd" opacity="1" stroke="none"/>
<path d="M81.5 793.5C83.0281 793.517 83.5281 794.184 83 795.5C78.6138 800.389 73.7804 804.722 68.5 808.5C67.4173 807.635 67.2506 806.635 68 805.5C72.6941 801.635 77.1941 797.635 81.5 793.5Z" fill="#191819" fill-rule="evenodd" opacity="1" stroke="none"/>
<path d="M144.5 800.5C145.496 800.414 146.329 800.748 147 801.5C148.798 805.422 150.298 809.422 151.5 813.5C150.325 813.719 149.325 813.386 148.5 812.5C146.586 808.677 145.253 804.677 144.5 800.5Z" fill="#151516" fill-rule="evenodd" opacity="1" stroke="none"/>
<path d="M161.5 789.5C164.14 789.954 166.473 791.121 168.5 793C172.699 797.534 177.199 801.701 182 805.5C182.563 806.725 182.23 807.725 181 808.5C173.922 802.586 167.422 796.253 161.5 789.5Z" fill="#1d1d1d" fill-rule="evenodd" opacity="1" stroke="none"/>
<path d="M123.5 804.5C124.5 804.5 125.5 804.5 126.5 804.5C126.666 813.173 126.5 821.84 126 830.5C125.586 830.957 125.086 831.291 124.5 831.5C123.502 822.525 123.168 813.525 123.5 804.5Z" fill="#1f1f20" fill-rule="evenodd" opacity="1" stroke="none"/>
<path d="M102.5 799.5C103.995 799.415 104.995 800.081 105.5 801.5C103.533 805.763 101.199 809.763 98.5 813.5C97.3861 812.277 97.2195 810.944 98 809.5C99.7862 806.264 101.286 802.93 102.5 799.5Z" fill="#1a1a1a" fill-rule="evenodd" opacity="1" stroke="none"/>
</g>
</svg>