<?xml version="1.0" encoding="UTF-8"?>
<svg xmlns="http://www.w3.org/2000/svg" version="1.1" viewBox="1170.80 66.00 251.17 254.02" width="251.17" height="254.02" style="overflow:visible;" xml:space="preserve">
<g>
<path d="M1318.5 210.5C1313.27 225.395 1302.93 234.729 1287.5 238.5C1278.6 240.967 1269.93 244.134 1261.5 248C1247.83 256.837 1233.16 263.503 1217.5 268C1191.3 270.459 1178.8 258.626 1180 232.5C1181.56 227.72 1183.89 223.387 1187 219.5C1203.61 206.227 1220.77 193.727 1238.5 182C1243.5 177.329 1247.34 171.829 1250 165.5C1253.65 138.456 1257.15 111.456 1260.5 84.5C1261.17 85.1667 1261.83 85.8333 1262.5 86.5C1261.59 93.4744 1260.92 100.474 1260.5 107.5C1262.81 107.993 1265.14 108.326 1267.5 108.5C1268.09 98.0577 1269.42 87.7244 1271.5 77.5C1267.65 74.4505 1264.65 75.1172 1262.5 79.5C1261.6 78.791 1261.26 77.791 1261.5 76.5C1261.95 75.5416 1262.62 74.7083 1263.5 74C1284.27 75.5709 1304.93 78.2375 1325.5 82C1328.43 85.2572 1329.26 89.0906 1328 93.5C1326.63 104.732 1324.3 115.732 1321 126.5C1318.84 140.459 1317.01 154.459 1315.5 168.5C1316.13 175.919 1317.29 183.252 1319 190.5C1319.61 197.189 1319.44 203.856 1318.5 210.5Z" fill="#181818" fill-rule="evenodd" opacity="1" stroke="none" />
<path d="M1262.5 86.5C1262.5 84.1667 1262.5 81.8333 1262.5 79.5C1264.65 75.1172 1267.65 74.4505 1271.5 77.5C1269.42 87.7244 1268.09 98.0577 1267.5 108.5C1265.14 108.326 1262.81 107.993 1260.5 107.5C1260.92 100.474 1261.59 93.4744 1262.5 86.5Z" fill="#ececec" fill-rule="evenodd" opacity="1" stroke="none" />
<path d="M1273.5 77.5C1276.5 77.5 1279.5 77.5 1282.5 77.5C1280.89 88.1429 1279.39 98.8095 1278 109.5C1275.25 110.291 1272.42 110.291 1269.5 109.5C1271.05 98.8639 1272.39 88.1973 1273.5 77.5Z" fill="#e5e5e5" fill-rule="evenodd" opacity="1" stroke="none" />
<path d="M1284.5 78.5C1287.48 78.9629 1290.48 79.2962 1293.5 79.5C1292 90.1465 1290.67 100.813 1289.5 111.5C1286.5 111.5 1283.5 111.5 1280.5 111.5C1281.72 100.485 1283.06 89.485 1284.5 78.5Z" fill="#e9e9e9" fill-rule="evenodd" opacity="1" stroke="none" />
<path d="M1261.5 76.5C1261.26 77.791 1261.6 78.791 1262.5 79.5C1262.5 81.8333 1262.5 84.1667 1262.5 86.5C1261.83 85.8333 1261.17 85.1667 1260.5 84.5C1260.19 81.6146 1260.53 78.9479 1261.5 76.5Z" fill="#787877" fill-rule="evenodd" opacity="1" stroke="none" />
<path d="M1296.5 80.5C1299.21 80.5751 1301.87 80.9084 1304.5 81.5C1303.53 92.2152 1302.2 102.882 1300.5 113.5C1297.83 113.5 1295.17 113.5 1292.5 113.5C1292.9 102.374 1294.23 91.3744 1296.5 80.5Z" fill="#ebebec" fill-rule="evenodd" opacity="1" stroke="none" />
<path d="M1307.5 82.5C1310.57 82.1826 1313.57 82.5159 1316.5 83.5C1314.95 87.793 1314.61 92.1264 1315.5 96.5C1317.46 92.4517 1318.46 88.1184 1318.5 83.5C1323.58 82.7452 1325.91 84.9118 1325.5 90C1324.22 98.8508 1322.89 107.684 1321.5 116.5C1319.17 116.5 1316.83 116.5 1314.5 116.5C1314.5 112.466 1314.84 108.466 1315.5 104.5C1314.5 104.5 1313.5 104.5 1312.5 104.5C1311.89 108.135 1311.55 111.802 1311.5 115.5C1308.83 115.167 1306.17 114.833 1303.5 114.5C1304.83 103.834 1306.17 93.1669 1307.5 82.5Z" fill="#eaeaea" fill-rule="evenodd" opacity="1" stroke="none" />
<path d="M1260.5 110.5C1280.14 113.628 1299.81 116.628 1319.5 119.5C1314.79 140.621 1313.12 161.954 1314.5 183.5C1294.28 186.385 1283.28 198.052 1281.5 218.5C1281.5 224.333 1282.83 229.833 1285.5 235C1279.03 238.049 1272.36 240.716 1265.5 243C1253.29 249.604 1240.96 255.937 1228.5 262C1226.55 262.991 1224.55 263.325 1222.5 263C1225.17 248.012 1220.84 235.345 1209.5 225C1205.21 221.539 1200.54 218.706 1195.5 216.5C1209.73 205.45 1224.39 194.95 1239.5 185C1245.59 179.581 1250.09 173.081 1253 165.5C1255.36 147.135 1257.86 128.802 1260.5 110.5Z" fill="#f7f7f7" fill-rule="evenodd" opacity="1" stroke="none" />
<path d="M1308.5 186.5C1310.83 186.5 1313.17 186.5 1315.5 186.5C1320.91 210.369 1312.24 226.369 1289.5 234.5C1281.17 219.06 1283.51 205.227 1296.5 193C1300.43 190.536 1304.43 188.369 1308.5 186.5Z" fill="#f3f3f3" fill-rule="evenodd" opacity="1" stroke="none" />
<path d="M1191.5 219.5C1205.72 223.885 1215.22 233.218 1220 247.5C1220.67 252.5 1220.67 257.5 1220 262.5C1202.94 268.818 1190.61 263.485 1183 246.5C1180.93 235.885 1183.76 226.885 1191.5 219.5Z" fill="#f5f5f5" fill-rule="evenodd" opacity="1" stroke="none" />
<path d="M1318.5 210.5C1319.19 212.978 1320.69 214.978 1323 216.5C1324.29 212.932 1326.12 212.599 1328.5 215.5C1317.78 225.887 1306.45 235.554 1294.5 244.5C1293.6 243.842 1292.6 243.176 1291.5 242.5C1292.03 241.808 1292.69 241.308 1293.5 241C1291.84 239.337 1289.84 238.504 1287.5 238.5C1302.93 234.729 1313.27 225.395 1318.5 210.5Z" fill="#e7e7e7" fill-rule="evenodd" opacity="1" stroke="none" />
<path d="M1294.5 244.5C1306.45 235.554 1317.78 225.887 1328.5 215.5C1333.73 211.398 1337.23 206.065 1339 199.5C1342.18 174.193 1344.18 148.86 1345 123.5C1346 116.5 1347 109.5 1348 102.5C1348.5 102 1349 101.5 1349.5 101C1369.99 101.831 1390.32 104.165 1410.5 108C1412.97 110.041 1413.97 112.708 1413.5 116C1412.31 123.793 1411.48 131.626 1411 139.5C1410.74 141.618 1409.74 143.284 1408 144.5C1406.73 159.326 1405.57 174.159 1404.5 189C1404.57 193.88 1405.07 198.713 1406 203.5C1407.98 210.071 1409.64 216.738 1411 223.5C1412.8 238.062 1408.3 250.228 1397.5 260C1385.67 266.079 1374.01 272.412 1362.5 279C1350.44 288.056 1338.11 296.722 1325.5 305C1311.4 312.016 1297.4 312.016 1283.5 305C1269.15 293.47 1266.65 279.636 1276 263.5C1281.7 256.636 1287.87 250.303 1294.5 244.5Z" fill="#171718" fill-rule="evenodd" opacity="1" stroke="none" />
<path d="M1399.5 213.5C1401.79 213.244 1403.96 213.577 1406 214.5C1412.86 236.808 1406.02 253.141 1385.5 263.5C1374.08 242.415 1378.75 225.749 1399.5 213.5Z" fill="#f3f3f3" fill-rule="evenodd" opacity="1" stroke="none" />
<path d="M1347.5 137.5C1366.82 139.965 1386.16 142.299 1405.5 144.5C1404.01 159.151 1402.68 173.818 1401.5 188.5C1401.23 196.025 1402.23 203.358 1404.5 210.5C1390.39 213.777 1381.22 222.444 1377 236.5C1375.44 246.336 1376.94 255.67 1381.5 264.5C1364.54 273.964 1348.54 284.797 1333.5 297C1329.19 299.988 1324.52 302.155 1319.5 303.5C1318.53 280.038 1306.86 264.872 1284.5 258C1297.25 245.917 1310.58 234.583 1324.5 224C1333.95 216.565 1340.12 207.065 1343 195.5C1344.68 176.177 1346.18 156.844 1347.5 137.5Z" fill="#f7f7f7" fill-rule="evenodd" opacity="1" stroke="none" />
<path d="M1397.5 108.5C1398.21 109.404 1399.21 109.737 1400.5 109.5C1400.5 111.167 1400.5 112.833 1400.5 114.5C1400.5 115.833 1400.5 117.167 1400.5 118.5C1401.5 118.5 1402.5 118.5 1403.5 118.5C1403.58 115.794 1403.91 113.127 1404.5 110.5C1406.47 110.261 1408.3 110.594 1410 111.5C1409.76 121.525 1408.93 131.525 1407.5 141.5C1405.17 141.5 1402.83 141.5 1400.5 141.5C1400.72 137.821 1401.06 134.154 1401.5 130.5C1402.94 128.58 1402.61 126.913 1400.5 125.5C1399.7 125.957 1399.37 126.624 1399.5 127.5C1398.56 131.735 1398.23 136.069 1398.5 140.5C1395.83 140.5 1393.17 140.5 1390.5 140.5C1390.9 129.816 1391.57 119.149 1392.5 108.5C1394.17 108.5 1395.83 108.5 1397.5 108.5Z" fill="#ebebeb" fill-rule="evenodd" opacity="1" stroke="none" />
<path d="M1401.5 130.5C1401.71 128.821 1401.05 127.821 1399.5 127.5C1399.37 126.624 1399.7 125.957 1400.5 125.5C1402.61 126.913 1402.94 128.58 1401.5 130.5Z" fill="#929191" fill-rule="evenodd" opacity="1" stroke="none" />
<path d="M1397.5 108.5C1398.83 108.5 1400.17 108.5 1401.5 108.5C1401.79 110.735 1401.46 112.735 1400.5 114.5C1400.5 112.833 1400.5 111.167 1400.5 109.5C1399.21 109.737 1398.21 109.404 1397.5 108.5Z" fill="#949694" fill-rule="evenodd" opacity="1" stroke="none" />
<path d="M1350.5 102.5C1354.24 101.68 1356.57 103.013 1357.5 106.5C1356.17 115.804 1355.17 125.138 1354.5 134.5C1352.17 134.5 1349.83 134.5 1347.5 134.5C1347.8 126.972 1348.47 119.472 1349.5 112C1347.97 108.522 1348.3 105.355 1350.5 102.5Z" fill="#e9eae9" fill-rule="evenodd" opacity="1" stroke="none" />
<path d="M1382.5 106.5C1385.13 107.092 1387.79 107.425 1390.5 107.5C1389.63 118.196 1388.63 128.863 1387.5 139.5C1384.83 139.167 1382.17 138.833 1379.5 138.5C1379.71 127.749 1380.71 117.083 1382.5 106.5Z" fill="#e9e9e9" fill-rule="evenodd" opacity="1" stroke="none" />
<path d="M1364.5 104.5C1365.83 104.5 1367.17 104.5 1368.5 104.5C1367.09 114.792 1365.92 125.125 1365 135.5C1362.61 136.136 1360.11 136.136 1357.5 135.5C1357.87 126.143 1358.53 116.81 1359.5 107.5C1360.4 106.791 1360.74 105.791 1360.5 104.5C1361.83 104.5 1363.17 104.5 1364.5 104.5Z" fill="#ebebeb" fill-rule="evenodd" opacity="1" stroke="none" />
<path d="M1370.5 105.5C1373.5 105.5 1376.5 105.5 1379.5 105.5C1378.37 116.149 1377.37 126.816 1376.5 137.5C1373.81 137.664 1371.15 137.497 1368.5 137C1367.98 136.439 1367.64 135.772 1367.5 135C1368.92 125.213 1369.92 115.38 1370.5 105.5Z" fill="#e7e7e7" fill-rule="evenodd" opacity="1" stroke="none" />
<path d="M1364.5 104.5C1363.17 104.5 1361.83 104.5 1360.5 104.5C1360.74 105.791 1360.4 106.791 1359.5 107.5C1359.5 106.167 1359.5 104.833 1359.5 103.5C1361.41 103.216 1363.08 103.549 1364.5 104.5Z" fill="#6c6c6c" fill-rule="evenodd" opacity="1" stroke="none" />
<path d="M1281.5 260.5C1301.89 265.564 1313.56 278.564 1316.5 299.5C1316.6 301.926 1315.93 304.093 1314.5 306C1303.02 309.158 1292.36 307.492 1282.5 301C1270.85 287.885 1270.51 274.385 1281.5 260.5Z" fill="#f4f4f4" fill-rule="evenodd" opacity="1" stroke="none" />
</g>

</svg>