<?xml version="1.0" encoding="UTF-8"?>
<svg xmlns="http://www.w3.org/2000/svg" version="1.1" viewBox="1131.33 766.99 146.67 117.17" width="146.67" height="117.17" style="fill-rule:nonzero;clip-rule:evenodd;stroke-linecap:round;stroke-linejoin:round;" xml:space="preserve">
<g opacity="1">
<path d="M1241.5 874.5C1241.83 869.786 1241.49 865.12 1240.5 860.5C1239.89 860.624 1239.56 860.957 1239.5 861.5C1239.35 865.262 1238.68 868.928 1237.5 872.5C1233.96 873.791 1230.46 873.791 1227 872.5C1227.51 868.612 1227.35 864.779 1226.5 861C1222.77 861.925 1218.94 862.758 1215 863.5C1210.92 863.19 1207.08 862.19 1203.5 860.5C1203.67 865.813 1203 870.98 1201.5 876C1197.81 878.159 1194.31 877.993 1191 875.5C1190.67 870.167 1190.33 864.833 1190 859.5C1189.21 863.858 1188.38 868.191 1187.5 872.5C1184.45 874.466 1181.12 874.966 1177.5 874C1176.69 866.913 1176.19 859.747 1176 852.5C1170.39 849.946 1167.89 845.613 1168.5 839.5C1154.36 841.524 1147.86 835.524 1149 821.5C1150.4 817.793 1151.9 814.126 1153.5 810.5C1150.33 810.449 1147 810.282 1143.5 810C1138.33 807.787 1137.33 804.454 1140.5 800C1143.07 797.713 1146.07 796.547 1149.5 796.5C1148.29 785.886 1152.95 780.386 1163.5 780C1168.92 773.986 1175.26 772.986 1182.5 777C1183.87 778.242 1184.87 779.742 1185.5 781.5C1188.21 782.228 1190.88 783.061 1193.5 784C1195.41 786.25 1197.58 788.084 1200 789.5C1203.55 787.484 1207.38 786.151 1211.5 785.5C1215.72 785.843 1219.55 787.176 1223 789.5C1232.81 785.496 1240.65 787.829 1246.5 796.5C1257.07 797.904 1262.57 803.904 1263 814.5C1266.92 816.084 1269.92 818.75 1272 822.5C1271.33 826.5 1271.33 830.5 1272 834.5C1269.3 837.87 1265.8 839.204 1261.5 838.5C1262.32 844.914 1260.15 849.914 1255 853.5C1254.03 860.135 1253.36 866.801 1253 873.5C1249.36 877.07 1245.52 877.403 1241.5 874.5Z" fill="#1a1a1b" fill-rule="evenodd" opacity="1" stroke="none" />
<path d="M1193.5 803.5C1196.89 804.619 1199.72 806.619 1202 809.5C1202.71 811.367 1202.21 812.867 1200.5 814C1194.23 815.366 1189.56 813.2 1186.5 807.5C1189.05 806.396 1191.38 805.063 1193.5 803.5Z" fill="#eaeaea" fill-rule="evenodd" opacity="1" stroke="none" />
<path d="M1163.5 800.5C1166.35 801.752 1169.35 802.752 1172.5 803.5C1180.3 801.908 1184.97 805.074 1186.5 813C1184 828.51 1175 836.51 1159.5 837C1158.38 836.751 1157.38 836.251 1156.5 835.5C1158.67 835.324 1161 835.157 1163.5 835C1163.96 834.586 1164.29 834.086 1164.5 833.5C1162.5 833.653 1160.33 833.32 1158 832.5C1157.33 831.833 1157.33 831.167 1158 830.5C1159.3 829.44 1160.46 828.274 1161.5 827C1161.17 826.5 1160.83 826 1160.5 825.5C1158.07 826.25 1155.74 826.583 1153.5 826.5C1155.52 828.599 1155.85 830.933 1154.5 833.5C1150.83 830.717 1149.66 827.05 1151 822.5C1153.67 815.981 1155.84 809.314 1157.5 802.5C1159.9 802.741 1161.9 802.074 1163.5 800.5Z" fill="#f0f0f0" fill-rule="evenodd" opacity="1" stroke="none" />
<path d="M1173.5 810.5C1177.34 812.291 1177.51 814.625 1174 817.5C1172.19 815.294 1172.03 812.961 1173.5 810.5Z" fill="#171617" fill-rule="evenodd" opacity="1" stroke="none" />
<path d="M1157.5 808.5C1160.39 808.999 1161.06 810.499 1159.5 813C1158.55 813.483 1157.55 813.649 1156.5 813.5C1156.63 811.784 1156.96 810.117 1157.5 808.5Z" fill="#1b1a1b" fill-rule="evenodd" opacity="1" stroke="none" />
<path d="M1147.5 798.5C1150.99 798.476 1153.65 799.976 1155.5 803C1154.37 806.651 1151.87 808.151 1148 807.5C1145.41 807.624 1143.08 806.958 1141 805.5C1140.51 804.451 1140.67 803.451 1141.5 802.5C1143.29 800.684 1145.29 799.351 1147.5 798.5Z" fill="#e8e8e8" fill-rule="evenodd" opacity="1" stroke="none" />
<path d="M1207.5 788.5C1213.16 787.673 1218.16 789.007 1222.5 792.5C1230.71 788.067 1237.88 789.4 1244 796.5C1244.48 797.448 1244.65 798.448 1244.5 799.5C1255.46 798.931 1260.13 803.931 1258.5 814.5C1264.09 818.809 1265.92 824.476 1264 831.5C1262.54 833.96 1260.71 836.127 1258.5 838C1260.01 843.667 1258.35 848.334 1253.5 852C1249.9 853.014 1246.23 853.847 1242.5 854.5C1241.31 856.527 1239.64 858.027 1237.5 859C1233.08 859.976 1228.92 859.476 1225 857.5C1217.7 863.114 1210.7 862.781 1204 856.5C1197.22 859.703 1191.22 858.703 1186 853.5C1185.52 852.552 1185.35 851.552 1185.5 850.5C1179.1 851.947 1174.27 849.947 1171 844.5C1169.53 839.373 1171.36 836.206 1176.5 835C1182.72 829.392 1187.06 822.559 1189.5 814.5C1194.37 817.136 1199.2 817.136 1204 814.5C1204.67 812.5 1204.67 810.5 1204 808.5C1201.8 805.96 1199.3 803.793 1196.5 802C1197.94 798.675 1198.94 795.175 1199.5 791.5C1200.17 791.833 1200.83 792.167 1201.5 792.5C1203.57 791.143 1205.57 789.81 1207.5 788.5Z" fill="#f7f7f7" fill-rule="evenodd" opacity="1" stroke="none" />
<path d="M1169.5 777.5C1175.85 776.389 1180.85 778.389 1184.5 783.5C1193.62 784.391 1197.45 789.391 1196 798.5C1190.61 804.702 1184.94 805.036 1179 799.5C1174.02 801.339 1169.52 800.673 1165.5 797.5C1153.01 801.844 1149.18 797.844 1154 785.5C1157.01 783.059 1160.51 781.893 1164.5 782C1166.06 780.264 1167.73 778.764 1169.5 777.5Z" fill="#f4f4f4" fill-rule="evenodd" opacity="1" stroke="none" />
<path d="M1265.5 819.5C1268.05 819.884 1269.38 821.384 1269.5 824C1268.87 827.462 1268.7 830.962 1269 834.5C1267.91 835.293 1266.75 835.96 1265.5 836.5C1266.6 831.021 1266.6 825.355 1265.5 819.5Z" fill="#d4d4d5" fill-rule="evenodd" opacity="1" stroke="none" />
<path d="M1179.5 853.5C1180.87 853.343 1182.21 853.51 1183.5 854C1184.67 855.997 1186.01 857.83 1187.5 859.5C1186.82 863.138 1186.32 866.805 1186 870.5C1183.93 872.648 1181.59 872.982 1179 871.5C1179.3 865.545 1179.47 859.545 1179.5 853.5Z" fill="#ecedec" fill-rule="evenodd" opacity="1" stroke="none" />
<path d="M1199.5 860.5C1200.76 861.514 1201.43 863.014 1201.5 865C1201.36 867.898 1200.86 870.731 1200 873.5C1197.62 874.435 1195.12 874.768 1192.5 874.5C1192.5 873.5 1192.5 872.5 1192.5 871.5C1193.48 868.375 1193.81 865.042 1193.5 861.5C1195.74 861.795 1197.74 861.461 1199.5 860.5Z" fill="#ececec" fill-rule="evenodd" opacity="1" stroke="none" />
<path d="M1199.5 860.5C1197.74 861.461 1195.74 861.795 1193.5 861.5C1193.81 865.042 1193.48 868.375 1192.5 871.5C1192.5 867.833 1192.5 864.167 1192.5 860.5C1194.83 860.5 1197.17 860.5 1199.5 860.5Z" fill="#a7a5a8" fill-rule="evenodd" opacity="1" stroke="none" />
<path d="M1239.5 861.5C1239.56 860.957 1239.89 860.624 1240.5 860.5C1241.49 865.12 1241.83 869.786 1241.5 874.5C1240.83 870.167 1240.17 865.833 1239.5 861.5Z" fill="#8b8d8b" fill-rule="evenodd" opacity="1" stroke="none" />
<path d="M1235.5 861.5C1236.65 861.791 1237.32 862.624 1237.5 864C1237.08 866.185 1236.58 868.351 1236 870.5C1233.96 871.423 1231.79 871.756 1229.5 871.5C1229.5 868.5 1229.5 865.5 1229.5 862.5C1231.74 862.795 1233.74 862.461 1235.5 861.5Z" fill="#e8e8e8" fill-rule="evenodd" opacity="1" stroke="none" />
<path d="M1244.5 855.5C1246.83 855.5 1249.17 855.5 1251.5 855.5C1251.67 861.176 1251.5 866.843 1251 872.5C1248.62 873.435 1246.12 873.768 1243.5 873.5C1243.21 867.409 1243.54 861.409 1244.5 855.5Z" fill="#ebebeb" fill-rule="evenodd" opacity="1" stroke="none" />
</g>

</svg>