<?xml version="1.0" encoding="UTF-8"?>
<svg xmlns="http://www.w3.org/2000/svg" version="1.1" viewBox="1326.50 797.50 139.10 79.17" width="139.10" height="79.17" style="fill-rule:nonzero;clip-rule:evenodd;stroke-linecap:round;stroke-linejoin:round;" xml:space="preserve">
<g opacity="1">
<path d="M1382.5 803.5C1388.92 803.714 1393.92 806.547 1397.5 812C1401.5 812.496 1404.16 814.662 1405.5 818.5C1409.61 818.614 1412.28 820.614 1413.5 824.5C1415.98 825.897 1418.65 826.731 1421.5 827C1422.17 828 1422.83 829 1423.5 830C1432.53 832.253 1441.53 834.586 1450.5 837C1457.1 842.271 1459.6 849.105 1458 857.5C1456.11 861.058 1453.27 863.558 1449.5 865C1442.37 867.559 1435.04 869.226 1427.5 870C1416.5 870.667 1405.5 870.667 1394.5 870C1387.93 868.253 1381.26 867.086 1374.5 866.5C1361.97 868.397 1349.64 867.563 1337.5 864C1335.33 863.167 1333.83 861.667 1333 859.5C1333.82 852.501 1333.66 845.501 1332.5 838.5C1332.58 830.423 1334.41 822.756 1338 815.5C1339.72 813.556 1341.89 812.556 1344.5 812.5C1349.49 814.327 1354.49 816.16 1359.5 818C1364.87 818.676 1370.2 818.509 1375.5 817.5C1375.18 811.481 1377.51 806.815 1382.5 803.5Z" fill="#1a1a1a" fill-rule="evenodd" opacity="1" stroke="none" />
<path d="M1431.5 835.5C1441.37 834.358 1449.2 837.691 1455 845.5C1455.67 846.833 1455.67 848.167 1455 849.5C1444.17 856.266 1432.34 859.599 1419.5 859.5C1419.39 855.313 1420.23 851.313 1422 847.5C1424.62 843.05 1427.79 839.05 1431.5 835.5Z" fill="#f2f2f3" fill-rule="evenodd" opacity="1" stroke="none" />
<path d="M1420.5 832.5C1423.69 832.618 1426.69 833.451 1429.5 835C1425.95 840.597 1421.95 840.93 1417.5 836C1418.71 834.961 1419.71 833.794 1420.5 832.5Z" fill="#e7e8e8" fill-rule="evenodd" opacity="1" stroke="none" />
<path d="M1417.5 828.5C1419.35 828.272 1420.19 828.939 1420 830.5C1408.88 841.216 1408.05 840.549 1417.5 828.5Z" fill="#d4d5d6" fill-rule="evenodd" opacity="1" stroke="none" />
<path d="M1409.5 825.5C1416.61 827.078 1417.11 829.745 1411 833.5C1408.86 832.521 1407.03 831.188 1405.5 829.5C1407.19 828.479 1408.52 827.145 1409.5 825.5Z" fill="#dbdbdc" fill-rule="evenodd" opacity="1" stroke="none" />
<path d="M1407.5 821.5C1409.03 821.517 1409.53 822.184 1409 823.5C1406.5 826 1404 828.5 1401.5 831C1400.36 831.749 1399.36 831.583 1398.5 830.5C1401.21 827.118 1404.21 824.118 1407.5 821.5Z" fill="#d1d2d3" fill-rule="evenodd" opacity="1" stroke="none" />
<path d="M1399.5 819.5C1405.91 820.46 1406.07 822.46 1400 825.5C1396.9 823.888 1396.73 821.888 1399.5 819.5Z" fill="#dfdfe0" fill-rule="evenodd" opacity="1" stroke="none" />
<path d="M1338.5 818.5C1343.76 824.465 1350.43 827.799 1358.5 828.5C1367.06 827.554 1374.73 824.387 1381.5 819C1384.55 818.143 1387.22 818.81 1389.5 821C1386.52 823.94 1386.85 826.107 1390.5 827.5C1393.39 824.801 1396.06 824.968 1398.5 828C1395.67 830.864 1396.17 833.031 1400 834.5C1401.58 834.012 1402.75 833.012 1403.5 831.5C1405.77 832.441 1407.77 833.774 1409.5 835.5C1407.41 840.281 1408.74 841.947 1413.5 840.5C1413.92 839.328 1414.59 838.328 1415.5 837.5C1418.05 838.73 1420.38 840.23 1422.5 842C1418.71 847.207 1417.04 853.04 1417.5 859.5C1405.31 860.061 1393.31 858.895 1381.5 856C1371.52 855.001 1361.52 854.334 1351.5 854C1346.33 853.277 1341.33 851.943 1336.5 850C1333.56 839.321 1334.23 828.821 1338.5 818.5Z" fill="#f4f4f4" fill-rule="evenodd" opacity="1" stroke="none" />
<path d="M1371.5 822.5C1367.83 821.833 1364.17 821.167 1360.5 820.5C1364.9 820.772 1369.24 820.439 1373.5 819.5C1374.31 821.083 1373.65 822.083 1371.5 822.5Z" fill="#9a9c9c" fill-rule="evenodd" opacity="1" stroke="none" />
<path d="M1398.5 814.5C1399.76 814.461 1400.76 814.961 1401.5 816C1398.31 818.432 1395.31 821.099 1392.5 824C1391.83 824.667 1391.17 824.667 1390.5 824C1393 820.667 1395.67 817.501 1398.5 814.5Z" fill="#dddede" fill-rule="evenodd" opacity="1" stroke="none" />
<path d="M1360.5 820.5C1364.17 821.167 1367.83 821.833 1371.5 822.5C1359.64 829.273 1349.64 827.273 1341.5 816.5C1343.76 815.353 1346.1 815.186 1348.5 816C1352.22 818.364 1356.22 819.864 1360.5 820.5Z" fill="#e6e6e6" fill-rule="evenodd" opacity="1" stroke="none" />
<path d="M1383.5 805.5C1387.93 806.743 1391.76 809.077 1395 812.5C1395.09 815.462 1393.76 817.796 1391 819.5C1386.94 816.308 1382.77 815.975 1378.5 818.5C1377.1 812.976 1378.76 808.643 1383.5 805.5Z" fill="#edeeee" fill-rule="evenodd" opacity="1" stroke="none" />
<path d="M1335.5 852.5C1339.62 854.371 1343.95 855.538 1348.5 856C1370.11 856.924 1391.61 858.758 1413 861.5C1427.89 862.088 1442.05 859.421 1455.5 853.5C1455.73 858.448 1453.4 861.615 1448.5 863C1426.67 869.398 1404.67 870.065 1382.5 865C1368.79 864.885 1355.13 864.218 1341.5 863C1336.1 861.554 1334.1 858.054 1335.5 852.5Z" fill="#ebecec" fill-rule="evenodd" opacity="1" stroke="none" />
</g>

</svg>