<?xml version="1.0" encoding="UTF-8"?>
<svg xmlns="http://www.w3.org/2000/svg" version="1.1" viewBox="1092 557 311 194" width="311" height="194" style="fill-rule:nonzero;clip-rule:evenodd;stroke-linecap:round;stroke-linejoin:round;" xml:space="preserve">
<g transform="translate(1079,544)"><ns0:path xmlns:ns0="http://www.w3.org/2000/svg" d="M0 0 C17.402 14.002 28.632 32.425 34 54 C34 54.99 34 55.98 34 57 C35.217 57.103 36.434 57.206 37.688 57.312 C42.489 57.907 45.57 59.57 49 63 C49.728 66.104 49.667 68.889 49 72 C46.671 75.637 43.908 79.046 40 81 C46.706 87.538 54.826 91.584 63 96 C62.699 98.391 62.699 98.391 62 101 C51.757 106.624 39.969 105.997 29 103 C29.136 103.295 29.136 103.295 29.826 104.785 C31.068 107.495 32.284 110.216 33.5 112.938 C33.929 113.864 34.359 114.79 34.801 115.744 C37.345 121.499 39.136 126.663 38 133 C34.241 139.64 28.21 141.519 21.119 143.535 C17.345 144.363 13.537 144.226 9.688 144.25 C8.858 144.271 8.028 144.291 7.174 144.312 C1.022 144.351 -3.829 143.602 -8.742 139.57 C-11.202 136.432 -12.647 133.997 -13 130 C-14.155 130.062 -15.31 130.124 -16.5 130.188 C-22.592 130.166 -27.12 128.44 -31.938 124.75 C-34.417 121.444 -34.549 119.047 -35 115 C-35.796 115.005 -36.592 115.01 -37.412 115.016 C-41.066 115.037 -44.721 115.05 -48.375 115.062 C-49.627 115.071 -50.878 115.079 -52.168 115.088 C-59.18 115.106 -66.042 114.9 -73 114 C-72.893 114.544 -72.787 115.088 -72.677 115.649 C-72.202 118.138 -71.757 120.631 -71.312 123.125 C-71.144 123.981 -70.976 124.837 -70.803 125.719 C-69.872 131.098 -69.748 134.3 -73 139 C-81.591 146.364 -93.307 145.687 -104 145 C-110.413 143.958 -114.9 142.29 -119 137 C-120.294 133.118 -120.191 129.421 -120.188 125.375 C-120.188 124.566 -120.189 123.758 -120.189 122.924 C-120.14 117.352 -119.59 112.367 -118 107 C-118.66 106.67 -119.32 106.34 -120 106 C-121.515 110.444 -122.135 114.363 -122.375 119.062 C-122.753 124.101 -123.353 127.257 -127 131 C-132.74 134.514 -138.38 134.799 -145 134 C-151.576 132.395 -156.758 130.373 -161 125 C-163.25 120.501 -162.224 115.202 -160.828 110.562 C-160.315 109.037 -159.788 107.517 -159.25 106 C-158.997 105.245 -158.745 104.489 -158.484 103.711 C-156.717 98.568 -154.519 93.819 -152 89 C-152.303 88.859 -152.303 88.859 -153.839 88.145 C-156.826 86.562 -158.872 84.392 -161.25 82 C-161.696 81.557 -161.696 81.557 -163.953 79.312 C-166 77 -166 77 -166 75 C-166.763 75.165 -167.526 75.33 -168.312 75.5 C-180.3 77.125 -191.999 75.997 -201.969 68.664 C-210.216 61.907 -214.445 55.413 -217 45 C-218.255 31.659 -216.449 20.582 -208.25 9.562 C-200.435 0.532 -189.47 -5.074 -177.562 -6.238 C-165.043 -6.601 -154.04 -2.533 -144.883 5.965 C-138.023 13.122 -133.975 21.617 -131 31 C-130.599 30.261 -130.198 29.523 -129.785 28.762 C-118.062 7.841 -100.232 -8.507 -76.84 -15.262 C-49.934 -22.314 -22.157 -16.978 0 0 Z M-87 -5 C-87.886 -2.284 -88.028 -0.794 -88 2 C-88.013 3.105 -88.026 4.209 -88.039 5.348 C-88.06 8.566 -88.044 11.782 -88 15 C-84.853 16.889 -81.68 18.729 -78.5 20.562 C-77.613 21.096 -76.726 21.629 -75.812 22.178 C-71.135 24.843 -67.633 26.833 -62.09 25.597 C-61.401 25.4 -60.711 25.203 -60 25 C-59.162 24.797 -58.324 24.594 -57.46 24.385 C-54.672 23.673 -51.937 22.85 -49.188 22 C-48.717 21.873 -48.717 21.873 -46.338 21.23 C-39.688 19.149 -39.688 19.149 -37.759 15.929 C-36.988 13.627 -36.457 11.383 -36 9 C-35.675 8.034 -35.35 7.069 -35.016 6.074 C-34.889 5.68 -34.889 5.68 -34.25 3.688 C-34.119 3.287 -34.119 3.287 -33.453 1.262 C-32.934 -1.332 -33.121 -2.52 -34 -5 C-36.792 -8.584 -39.998 -11.49 -44.461 -12.626 C-47.175 -12.835 -49.781 -12.816 -52.5 -12.688 C-53.461 -12.664 -54.422 -12.641 -55.412 -12.616 C-66.409 -12.18 -77.091 -9.905 -87 -5 Z M-28 -2 C-29.518 0.826 -30.21 3.765 -30.938 6.875 C-31.047 7.283 -31.047 7.283 -31.604 9.348 C-33.417 16.453 -33.417 16.453 -32 20 C-30.465 21.54 -30.465 21.54 -28.508 22.98 C-27.803 23.504 -27.098 24.028 -26.371 24.568 C-25.63 25.103 -24.889 25.637 -24.125 26.188 C-23.758 26.46 -23.758 26.46 -21.902 27.842 C-16.448 31.851 -16.448 31.851 -13 33 C-8.853 31.693 -4.945 29.819 -1 28 C-0.091 27.591 0.818 27.183 1.754 26.762 C5.431 24.949 7.541 23.86 9.5 20.188 C8.296 12.512 0.381 7.325 -5.441 2.832 C-12.705 -2.369 -19.237 -6.745 -28 -2 Z M-110.562 11.062 C-117.593 18.334 -127 29.501 -127 40 C-124.36 40.33 -121.72 40.66 -119 41 C-118.548 40.129 -118.095 39.257 -117.629 38.359 C-113.151 30.367 -108.816 25.856 -100.938 21.125 C-93.6 16.627 -93.6 16.627 -92.234 12.923 C-91.535 8.172 -92.09 3.685 -93 -1 C-99.034 -1 -106.33 7.087 -110.562 11.062 Z M-203.438 12.562 C-205.561 15.209 -207.006 17.721 -208 21 C-207.67 21.33 -207.34 21.66 -207 22 C-206.485 27.318 -206.485 27.318 -207 30 C-207.833 30.5 -207.833 30.5 -212 33 C-213.417 41.499 -210.139 51.386 -205.375 58.438 C-200.458 64.34 -193.333 68.025 -186 70 C-183.346 70.212 -180.836 70.333 -178.188 70.312 C-177.835 70.312 -177.835 70.312 -176.054 70.309 C-171.239 70.22 -167.207 69.562 -162.797 67.656 C-161 67 -161 67 -157 67 C-157.312 68.938 -157.312 68.938 -158 71 C-158.99 71.33 -159.98 71.66 -161 72 C-155.165 85.129 -140.415 91.22 -127.853 96.241 C-125.969 97.013 -124.126 97.852 -122.273 98.695 C-119 100 -119 100 -115 100 C-114.134 98.402 -113.282 96.797 -112.438 95.188 C-111.962 94.294 -111.486 93.401 -110.996 92.48 C-110 90 -110 90 -111 87 C-112.672 85.746 -112.672 85.746 -114.75 84.438 C-120.38 80.402 -122.695 74.828 -124.883 68.41 C-126.184 65.603 -127.575 64.39 -130 62.5 C-133.318 59.914 -134.893 58.099 -136 54 C-136.298 50.815 -136.365 47.634 -136.438 44.438 C-137.003 29.841 -139.421 19.009 -150.312 8.688 C-166.185 -4.772 -189.562 -2.858 -203.438 12.562 Z M-99 24.688 C-99.616 25.123 -100.232 25.558 -100.867 26.006 C-106.33 29.962 -109.815 34.197 -112.75 40.312 C-113.178 41.196 -113.606 42.079 -114.047 42.988 C-114.204 43.32 -114.204 43.32 -115 45 C-114.287 45.773 -113.574 46.547 -112.84 47.344 C-107.484 53.165 -102.164 59.007 -97 65 C-95.375 64.564 -93.75 64.126 -92.125 63.688 C-91.22 63.444 -90.315 63.2 -89.383 62.949 C-88.266 62.636 -87.15 62.323 -86 62 C-85.185 61.909 -84.37 61.818 -83.531 61.724 C-80.522 61.222 -78.559 60.684 -76 59 C-73.708 54.492 -72.813 49.744 -71.875 44.812 C-71.587 43.476 -71.296 42.141 -71 40.807 C-70.293 37.544 -69.629 34.278 -69 31 C-72.075 29.152 -75.161 27.325 -78.25 25.5 C-79.123 24.975 -79.995 24.451 -80.895 23.91 C-81.317 23.662 -81.317 23.662 -83.453 22.406 C-84.228 21.945 -85.003 21.485 -85.802 21.01 C-91.356 18.458 -94.659 21.486 -99 24.688 Z M-51 26.562 C-52.106 26.885 -53.212 27.208 -54.352 27.541 C-62.415 30.116 -62.415 30.116 -65.078 34.141 C-65.23 34.777 -65.23 34.777 -66 38 C-66.226 38.782 -66.452 39.565 -66.686 40.371 C-67.435 42.964 -68.099 45.568 -68.75 48.188 C-68.867 48.632 -68.867 48.632 -69.457 50.881 C-69.565 51.31 -69.565 51.31 -70.109 53.48 C-70.305 54.253 -70.501 55.025 -70.702 55.821 C-71.238 59.745 -70.04 62.274 -67.785 65.418 C-67.346 66.032 -66.907 66.646 -66.455 67.279 C-65.996 67.909 -65.536 68.539 -65.062 69.188 C-64.607 69.829 -64.151 70.47 -63.682 71.131 C-60.266 75.867 -60.266 75.867 -58 77 C-53.612 77.38 -49.215 77.418 -44.812 77.5 C-43.592 77.554 -42.372 77.608 -41.115 77.664 C-32.258 77.799 -32.258 77.799 -28.822 75.617 C-27.074 73.844 -27.074 73.844 -25.531 71.889 C-23.91 69.889 -22.294 68.796 -20.164 67.375 C-16.91 64.61 -16.29 62.18 -15.648 58 C-15.492 55.67 -15.404 53.335 -15.375 51 C-15.36 49.795 -15.345 48.59 -15.329 47.348 C-15.641 40.891 -16.45 36.724 -21.152 32.113 C-32.196 23.296 -37.79 22.382 -51 26.562 Z M6.312 29.375 C3 31 3 31 0.188 31.875 C-2.691 32.891 -5.052 34.075 -7.699 35.57 C-8.506 36.024 -9.312 36.478 -10.143 36.946 C-10.756 37.294 -11.369 37.642 -12 38 C-13.068 62.461 -13.068 62.461 -8.578 67.578 C-4.273 70.615 0.019 72.695 5.375 71.938 C7.508 71.172 7.508 71.172 10 70 C10.576 69.745 10.576 69.745 13.492 68.453 C19.519 65.658 24.456 62.963 29 58 C22.589 34.237 22.589 34.237 16.719 30.578 C10.015 27.481 10.015 27.481 6.312 29.375 Z M-131 45 C-131.787 53.032 -131.787 53.032 -128.812 56.688 C-128.348 57.069 -128.348 57.069 -126 59 C-122.355 62.734 -120.713 65.514 -119.125 70.5 C-117.329 75.858 -114.935 79.165 -110 82 C-108.68 82.33 -107.36 82.66 -106 83 C-103.69 79.04 -101.38 75.08 -99 71 C-99.804 70.072 -100.609 69.144 -101.438 68.188 C-104.189 64.987 -106.849 61.721 -109.5 58.438 C-119.379 46.411 -119.379 46.411 -127 45 C-128.32 45 -129.64 45 -131 45 Z M27 66.125 C20.668 70.413 14.081 73.178 7 76 C7.99 80.29 8.98 84.58 10 89 C22.557 84.981 34.262 80.932 43.172 70.676 C44 69 44 69 43.777 66.871 C43 65 43 65 40.812 63.75 C35.14 62.237 31.751 62.695 27 66.125 Z M-83.75 65.875 C-84.92 66.264 -86.091 66.654 -87.297 67.055 C-88.189 67.367 -89.081 67.679 -90 68 C-86.628 70.935 -83.341 71.996 -79.062 73.188 C-78.46 73.36 -78.46 73.36 -75.41 74.23 C-72.445 74.9 -70.016 75.166 -67 75 C-67.905 73.534 -68.824 72.078 -69.75 70.625 C-70.26 69.813 -70.771 69.001 -71.297 68.164 C-75.229 63.168 -77.979 63.913 -83.75 65.875 Z M-22 75 C-22 75.33 -22 75.66 -22 76 C-15.998 76.218 -10.808 75.506 -5 74 C-12.168 67.651 -15.658 68.238 -22 75 Z M-95 73 C-96.033 74.764 -97.051 76.536 -98.062 78.312 C-98.631 79.299 -99.199 80.285 -99.785 81.301 C-101 84 -101 84 -100 87 C-97.606 87.999 -95.355 88.782 -92.875 89.5 C-92.164 89.714 -91.454 89.927 -90.722 90.147 C-74.112 95 -74.112 95 -66 95 C-65.34 90.38 -64.68 85.76 -64 81 C-65.256 80.758 -66.511 80.515 -67.805 80.266 C-84.046 77.042 -84.046 77.042 -91.285 73.734 C-93 73 -93 73 -95 73 Z M-9.619 79.846 C-20.637 81.974 -31.387 82.124 -42.562 82.062 C-44.16 82.057 -45.757 82.053 -47.354 82.049 C-51.236 82.038 -55.118 82.021 -59 82 C-59.361 84.145 -59.714 86.291 -60.062 88.438 C-60.161 89.035 -60.161 89.035 -60.66 92.059 C-60.716 92.544 -60.716 92.544 -61 95 C-59.245 96.755 -56.943 96.128 -54.605 96.139 C-53.844 96.137 -53.084 96.135 -52.301 96.133 C-51.514 96.134 -50.728 96.135 -49.917 96.136 C-48.24 96.136 -46.563 96.135 -44.885 96.13 C-42.368 96.125 -39.851 96.13 -37.334 96.137 C-27.84 96.14 -18.462 95.851 -9 95 C-8.835 95.66 -8.835 95.66 -8 99 C-8.99 99.33 -9.98 99.66 -11 100 C-11.563 111.756 -11.498 125.644 -5 136 C-2.875 136.75 -2.875 136.75 -1 137 C-0.67 134.69 -0.34 132.38 0 130 C0.99 130 1.98 130 3 130 C3.33 131.485 3.33 131.485 5 139 C6.98 139 8.96 139 11 139 C11 136.03 11 133.06 11 130 C12.32 129.67 13.64 129.34 15 129 C15.33 130.485 15.33 130.485 17 138 C18.65 137.67 20.3 137.34 22 137 C22 134.03 22 131.06 22 128 C22.99 127.67 23.98 127.34 25 127 C25.33 128.32 25.33 128.32 27 135 C29.438 134.375 29.438 134.375 32 133 C34.054 127.191 31.748 122.89 29.438 117.562 C28.696 115.788 27.956 114.013 27.215 112.238 C26.842 111.36 26.469 110.482 26.085 109.577 C24.504 105.822 23.001 102.037 21.5 98.25 C21.015 97.038 20.531 95.827 20.031 94.578 C19.691 93.727 19.351 92.877 19 92 C18.446 92.15 18.446 92.15 15.641 92.91 C14.177 93.295 12.714 93.679 11.25 94.062 C10.52 94.262 9.791 94.461 9.039 94.666 C5.29 95.637 2.697 96.154 -1 95 C-1 94.34 -1 93.68 -1 93 C0.65 92.34 2.3 91.68 4 91 C4.167 86.079 4.248 82.497 2 78 C-1.901 78 -5.797 79.087 -9.619 79.846 Z M28.812 87 C28.097 87.371 27.382 87.743 26.645 88.125 C26.373 88.269 26.373 88.269 25 89 C25.33 91.31 25.66 93.62 26 96 C34.595 99.751 42.806 99.285 52 99 C52.33 98.34 52.66 97.68 53 97 C52.024 96.385 51.048 95.77 50.043 95.137 C48.758 94.321 47.473 93.504 46.188 92.688 C45.545 92.283 44.902 91.879 44.24 91.463 C43.618 91.067 42.996 90.67 42.355 90.262 C41.785 89.9 41.214 89.539 40.626 89.167 C39 88 39 88 37.478 86.359 C34.536 83.654 31.885 85.388 28.812 87 Z M-105 91 C-113.125 106.272 -113.125 106.272 -114 114 C-114.131 115.127 -114.263 116.253 -114.398 117.414 C-115.536 129.421 -115.536 129.421 -113 135 C-112.01 135.66 -111.02 136.32 -110 137 C-109.34 134.69 -108.68 132.38 -108 130 C-107.01 130.33 -106.02 130.66 -105 131 C-105 133.64 -105 136.28 -105 139 C-102.69 139 -100.38 139 -98 139 C-98 136.03 -98 133.06 -98 130 C-96.68 130.33 -95.36 130.66 -94 131 C-93.67 133.64 -93.34 136.28 -93 139 C-87.519 139.343 -82.866 138.718 -78 136 C-74.971 131.457 -76.592 127.177 -77.555 122.043 C-78.954 114.118 -78.967 106.985 -78 99 C-80.004 98.332 -82.007 97.665 -84.012 97 C-86.289 96.238 -88.561 95.466 -90.832 94.688 C-92.18 94.229 -93.527 93.771 -94.875 93.312 C-95.529 93.086 -96.184 92.86 -96.858 92.626 C-99.708 91.661 -101.967 91 -105 91 Z M-147 93 C-151.768 100.833 -156.2 109.404 -156.062 118.75 C-156.053 119.549 -156.044 120.348 -156.035 121.172 C-156.024 121.775 -156.012 122.378 -156 123 C-154 121 -154 121 -153 118 C-151.68 118 -150.36 118 -149 118 C-149.33 120.97 -149.66 123.94 -150 127 C-148.68 127.33 -147.36 127.66 -146 128 C-145.01 125.36 -144.02 122.72 -143 120 C-142.01 120.33 -141.02 120.66 -140 121 C-140 123.64 -140 126.28 -140 129 C-138.558 128.798 -137.122 128.562 -135.688 128.312 C-135.287 128.249 -135.287 128.249 -133.262 127.926 C-130.031 126.603 -129.389 125.181 -128 122 C-127.508 119.253 -127.132 116.64 -126.875 113.875 C-126.096 106.287 -126.096 106.287 -125 103 C-125.666 102.697 -126.333 102.394 -127.02 102.082 C-133.68 99.055 -140.34 96.027 -147 93 Z M-73 100 C-73.33 102.64 -73.66 105.28 -74 108 C-54.623 111.07 -36.279 110.479 -17 107 C-16.67 104.69 -16.34 102.38 -16 100 C-16.318 100.036 -16.318 100.036 -17.93 100.219 C-36.183 101.962 -54.736 101.321 -73 100 Z M-24.188 113 C-25.089 113.186 -25.99 113.371 -26.918 113.562 C-27.605 113.707 -28.292 113.851 -29 114 C-28.67 116.31 -28.34 118.62 -28 121 C-27.01 121.33 -26.02 121.66 -25 122 C-25 120.35 -25 118.7 -25 117 C-23.68 116.67 -22.36 116.34 -21 116 C-20.67 118.31 -20.34 120.62 -20 123 C-18.35 123.33 -16.7 123.66 -15 124 C-15.33 120.04 -15.66 116.08 -16 112 C-18.915 112 -21.342 112.409 -24.188 113 Z " fill="#000000" transform="translate(246,47)" />
<ns0:path xmlns:ns0="http://www.w3.org/2000/svg" d="M0 0 C4.75 0.75 4.75 0.75 7 3 C7.675 9.975 7.675 9.975 5.312 13.562 C3 15 3 15 0.375 14.938 C-2 14 -2 14 -4 11 C-4.521 7.005 -4.332 5.477 -2 2.125 C-1.34 1.424 -0.68 0.722 0 0 Z " fill="#000000" transform="translate(66,68)" />
<ns0:path xmlns:ns0="http://www.w3.org/2000/svg" d="M0 0 C0.825 0.165 0.825 0.165 5 1 C5.33 2.65 5.66 4.3 6 6 C5.01 6.33 4.02 6.66 3 7 C2.689 7.625 2.379 8.25 2.059 8.895 C0.769 11.459 -0.487 12.241 -2.938 13.688 C-3.627 14.104 -4.317 14.52 -5.027 14.949 C-9.491 17.327 -13.063 17.157 -18 17 C-18.66 16.67 -19.32 16.34 -20 16 C-19.125 12.125 -19.125 12.125 -18 11 C-16.607 10.868 -15.21 10.769 -13.812 10.688 C-9.26 10.21 -6.504 9.087 -3 6 C-1.125 2.75 -1.125 2.75 0 0 Z " fill="#000000" transform="translate(68,93)" />
  </g>
</svg>
