<?xml version="1.0" encoding="UTF-8"?>
<svg xmlns="http://www.w3.org/2000/svg" version="1.1" viewBox="436 548 262 192" width="262" height="192" style="fill-rule:nonzero;clip-rule:evenodd;stroke-linecap:round;stroke-linejoin:round;" xml:space="preserve">
<g transform="translate(422,533)"><ns0:path xmlns:ns0="http://www.w3.org/2000/svg" d="M0 0 C3.752 2.241 6.35 4.932 8 9 C8.58 13.214 8.722 16.844 6.438 20.5 C3.331 25.902 6.164 33.212 7.598 38.957 C8 41 8 41 8 45 C8.58 44.916 9.16 44.832 9.758 44.746 C14.423 44.138 18.354 43.928 23 45 C24.703 40.62 26.31 36.224 27.75 31.75 C28.013 30.94 28.276 30.131 28.547 29.297 C29.216 25.907 28.427 23.829 26.875 20.812 C25.594 16.695 25.862 13.144 27 9 C29.162 5.192 31.947 2.662 36 1 C40.656 0.272 44.144 0.572 48.375 2.688 C51.801 5.706 53.729 7.717 54.281 12.367 C54.458 17.32 54.479 21.195 51 25 C49.7 25.662 48.396 26.316 47.09 26.965 C42.553 29.76 41.445 32.755 40.162 37.806 C40.063 38.291 40.063 38.291 39.562 40.75 C39.349 41.745 39.135 42.74 38.914 43.765 C38.151 48.01 37.636 50.992 39.117 55.094 C40.944 57.258 42.917 59.085 45 61 C49.704 68.844 50.193 78.094 51 87 C51.056 87.61 51.056 87.61 51.34 90.695 C51.579 93.463 51.801 96.23 52 99 C52.66 98.67 53.32 98.34 54 98 C53.954 96.742 53.907 95.484 53.859 94.188 C53.316 73.222 57.958 55.501 71.828 39.266 C85.011 25.513 102.84 16.277 122 15 C122.718 14.948 123.436 14.897 124.176 14.844 C143.824 14.072 160.432 22.319 175.055 34.746 C187.019 45.833 193.895 62.586 195.32 78.598 C195.847 95.28 191.099 110.359 180.355 123.188 C179 125 179 125 179 127 C186.794 131.185 193.362 133.775 202.188 134.375 C205.537 134.679 207.084 135.045 210.125 136.688 C212 139 212 139 212.625 141.938 C211.548 147.214 207.753 149.608 203.5 152.5 C181.727 165.441 155.507 165.025 131.125 163 C116.973 161.848 103.438 161.714 89.277 162.772 C65.317 164.557 41.162 165.712 19 155 C18.223 154.631 17.445 154.263 16.645 153.883 C-0.838 144.909 -12.212 129.401 -18.391 111.082 C-23.247 94.991 -22.877 77.108 -15.125 62.062 C-13.265 58.771 -12.072 57.056 -9.062 54.688 C-5.866 50.522 -6.909 46.642 -7.492 41.59 C-7.66 40.405 -7.827 39.221 -8 38 C-8.106 37.011 -8.211 36.023 -8.32 35.004 C-8.958 30.437 -9.246 28.61 -12.938 25.625 C-13.948 25.089 -14.959 24.552 -16 24 C-19.235 20.988 -19.794 17.65 -20.117 13.379 C-19.913 9.242 -18.623 6.191 -16 3 C-11.135 -0.909 -5.926 -2.13 0 0 Z M-11.875 7.062 C-14 10 -14 10 -14.625 13.5 C-13.841 17.889 -12.449 19.257 -9 22 C-8.309 22.272 -7.619 22.545 -6.907 22.825 C-5 24 -5 24 -4.179 26.227 C-4.105 26.682 -4.105 26.682 -3.734 28.98 C-3.567 29.98 -3.399 30.98 -3.227 32.01 C-3.069 33.058 -2.912 34.107 -2.75 35.188 C-2.577 36.217 -2.405 37.246 -2.227 38.307 C-0.488 49.075 -0.488 49.075 -1 54 C-2.355 55.863 -2.355 55.863 -4.188 57.312 C-12.751 65.027 -15.271 76.405 -15.938 87.525 C-16.66 105.655 -9.893 122.408 2 136 C17.047 151.628 37.274 157.716 58.477 158.215 C67.056 158.3 75.586 158.242 84.137 157.492 C91.784 156.86 99.407 156.849 107.075 156.87 C109.496 156.875 111.918 156.87 114.34 156.863 C122.28 156.86 130.112 157.07 138.028 157.764 C159.7 159.484 184.709 158.777 203.5 146.312 C204.325 145.549 205.15 144.786 206 144 C206 143.01 206 142.02 206 141 C204.984 140.841 203.968 140.683 202.922 140.52 C192.916 138.86 183.337 136.736 174.875 130.812 C172 130 172 130 169.879 131.016 C168.179 132.093 166.49 133.186 164.809 134.293 C154.335 140.658 140.903 141.914 128.961 139.606 C124.482 138.499 120.129 137.065 116 135 C113.123 134.84 110.254 134.723 107.375 134.625 C87.738 133.74 68.517 129.694 54.496 114.832 C47.894 106.747 46.067 96.096 45.5 85.938 C44.926 75.733 42.636 65.454 35.875 57.5 C34 56 34 56 32 56 C33.126 50.147 34.293 44.303 35.5 38.466 C35.911 36.437 36.287 34.401 36.652 32.363 C38.041 25.71 38.041 25.71 40.895 23.598 C43.062 22.563 43.062 22.563 45.16 21.879 C47.626 20.701 48.098 19.539 49 17 C49 13.5 49 13.5 48 10 C44.886 7.103 43.154 6 38.875 6 C35.455 7.189 34.017 7.974 32 11 C31.497 13.752 31.406 16.262 32 19 C32.538 19.588 33.075 20.176 33.629 20.781 C35 23 35 23 34.523 26.469 C34.159 27.818 33.775 29.161 33.375 30.5 C32.982 31.927 32.588 33.354 32.195 34.781 C31.993 35.489 31.791 36.197 31.583 36.926 C30.737 39.934 29.994 42.965 29.25 46 C28.833 47.667 28.417 49.333 28 51 C27.51 50.918 27.51 50.918 25.027 50.504 C20.859 49.908 16.766 49.888 12.562 49.938 C11.831 49.942 11.099 49.947 10.346 49.951 C8.564 49.963 6.782 49.981 5 50 C2.845 44.18 1.658 38.181 0.375 32.125 C0.26 31.59 0.26 31.59 -0.32 28.883 C-0.883 26.256 -1.443 23.628 -2 21 C-1.01 20.67 -0.02 20.34 1 20 C3.063 17.318 2.993 15.868 2.812 12.438 C2.025 9.105 1.703 7.946 -1 6 C-5.178 3.911 -8.141 4.384 -11.875 7.062 Z M74.312 45.125 C60.909 62.253 58.544 80.917 59 102 C58.175 102.33 58.175 102.33 54 104 C57.775 113.437 66.025 119.723 75 124 C85.11 127.956 96.114 130.244 107 130 C106.636 129.527 106.273 129.054 105.898 128.566 C104.245 126.392 102.62 124.199 101 122 C100.474 121.303 99.948 120.605 99.406 119.887 C90.956 108.096 89.221 95.129 91.473 81.043 C94.471 69.644 101.369 61.375 110.863 54.688 C119.284 49.783 130.204 49.08 139.539 51.242 C148.903 54.126 155.667 59.022 160.375 67.688 C164.59 76.852 164.776 84.609 162.012 94.266 C159.613 100.748 156.091 104.644 150 108 C143.786 110.762 137.289 110.944 130.812 108.938 C125.47 106.687 122.542 102.48 119.562 97.688 C118.371 91.992 119.138 86.755 121.688 81.562 C124.727 78.194 127.331 76.173 131.988 75.871 C135.925 76.116 137.777 76.833 141 79.25 C143.16 82.22 143.51 83.428 143 87 C141.68 87 140.36 87 139 87 C138.67 85.35 138.34 83.7 138 82 C134.288 80.321 132.673 79.767 128.75 81.125 C124.873 83.768 124.873 83.768 124 87 C123.575 92.36 123.511 95.669 127 100 C132.133 104.507 135.28 105.477 142.039 105.406 C147.659 104.635 151.957 101.632 155.41 97.184 C159.272 90.775 159.705 84.32 159 77 C157.018 69.831 152.928 63.399 146.531 59.492 C137.302 54.742 128.569 53.271 118.438 56.438 C108.992 60.297 102.581 67.259 98.117 76.301 C93.265 88.025 94.445 99.294 99.184 110.898 C105.057 122.778 114.897 129.881 127.227 134.105 C139.745 137.073 153.551 135.933 164.703 129.422 C167.252 127.728 169.627 125.93 172 124 C172.625 123.523 173.25 123.046 173.895 122.555 C182.363 115.252 188.173 101.758 189.215 90.722 C190.161 72.053 186.555 55.995 173.75 41.75 C160.964 28.11 144.795 21.2 126.125 20.562 C106.034 21.102 87.497 29.987 74.312 45.125 Z " fill="#000000" transform="translate(50,30)" />
<ns0:path xmlns:ns0="http://www.w3.org/2000/svg" d="M0 0 C2.5 0.25 2.5 0.25 4.5 2.25 C4.868 5.12 4.875 6.658 3.312 9.125 C1.5 10.25 1.5 10.25 -1.125 10 C-3.5 9.25 -3.5 9.25 -4.5 8.25 C-4.688 5.312 -4.688 5.312 -4.5 2.25 C-2.5 0.25 -2.5 0.25 0 0 Z " fill="#000000" transform="translate(44.5,38.75)" />
<ns0:path xmlns:ns0="http://www.w3.org/2000/svg" d="M0 0 C1.875 0.875 1.875 0.875 3.875 2.875 C3.545 6.172 3.252 7.498 0.875 9.875 C-1.625 9.812 -1.625 9.812 -4.125 8.875 C-5.438 6.312 -5.438 6.312 -6.125 3.875 C-2.702 -0.159 -2.702 -0.159 0 0 Z " fill="#000000" transform="translate(91.125,40.125)" />
<ns0:path xmlns:ns0="http://www.w3.org/2000/svg" d="M0 0 C1.65 0.99 3.3 1.98 5 3 C4.125 8.875 4.125 8.875 3 10 C0.5 10.125 0.5 10.125 -2 10 C-3 9 -3 9 -3.25 6.125 C-3 3 -3 3 -1.5 1.125 C-1.005 0.754 -0.51 0.382 0 0 Z " fill="#000000" transform="translate(47,98)" />
<ns0:path xmlns:ns0="http://www.w3.org/2000/svg" d="M0 0 C0.784 0.041 1.567 0.082 2.375 0.125 C3 3.5 3 3.5 3.375 7.125 C2.715 7.785 2.055 8.445 1.375 9.125 C-3.181 8.569 -3.181 8.569 -4.625 7.125 C-4.812 4.688 -4.812 4.688 -4.625 2.125 C-2.625 0.125 -2.625 0.125 0 0 Z " fill="#000000" transform="translate(73.625,98.875)" />
<ns0:path xmlns:ns0="http://www.w3.org/2000/svg" d="M0 0 C4.75 0.75 4.75 0.75 7 3 C9.938 3.312 9.938 3.312 13 3 C13.516 2.484 14.031 1.969 14.562 1.438 C15.037 0.963 15.511 0.489 16 0 C18.688 0.312 18.688 0.312 21 1 C20.938 3.25 20.938 3.25 20 6 C16.251 8.908 13.655 10.381 8.875 10 C5.075 9.261 2.614 7.94 0 5 C-0.312 2.25 -0.312 2.25 0 0 Z " fill="#000000" transform="translate(50,114)" />
  </g>
</svg>
