<?xml version="1.0" encoding="UTF-8"?>
<svg xmlns="http://www.w3.org/2000/svg" version="1.1" viewBox="545.83 624.22 152.67 220.54" width="152.67" height="220.54" style="overflow:visible;" xml:space="preserve">
<g>
<path d="M632.5 632.5C635.272 632.22 637.772 632.887 640 634.5C642.185 639.425 643.352 644.592 643.5 650C640.82 674.098 636.653 697.931 631 721.5C630.333 723.833 630.333 726.167 631 728.5C633.583 731.997 635.916 735.664 638 739.5C641.4 742.113 644.233 745.28 646.5 749C648.167 750 649.833 751 651.5 752C675.978 752.811 688.978 765.478 690.5 790C689.479 811.021 678.479 820.687 657.5 819C640.743 811.357 632.076 798.19 631.5 779.5C632.086 774.495 632.252 769.495 632 764.5C628.547 759.379 624.714 754.546 620.5 750C618.833 749.333 617.167 749.333 615.5 750C607.183 761.637 606.35 773.804 613 786.5C614.741 802.948 609.574 816.781 597.5 828C575.187 836.758 561.354 829.258 556 805.5C554.682 790.305 559.848 777.805 571.5 768C576.939 765.533 582.106 762.7 587 759.5C591.667 751.504 595.167 743.004 597.5 734C586.392 714.958 575.892 695.458 566 675.5C563.994 670.157 561.994 664.823 560 659.5C558.738 654.213 558.404 648.88 559 643.5C560.691 639.787 563.525 638.621 567.5 640C569.333 641.833 571.167 643.667 573 645.5C585.087 663.341 597.42 681.008 610 698.5C615.198 679.379 620.864 660.379 627 641.5C627.837 637.843 629.67 634.843 632.5 632.5Z" fill="#181819" fill-rule="evenodd" opacity="1" stroke="none" />
<path d="M633.5 635.5C636.292 635.452 638.125 636.785 639 639.5C640.471 645.431 640.804 651.431 640 657.5C637.201 679.495 632.868 701.162 627 722.5C621.66 715.809 616.826 708.809 612.5 701.5C617.356 683.41 622.522 665.41 628 647.5C629.043 643.085 630.876 639.085 633.5 635.5Z" fill="#f1f1f1" fill-rule="evenodd" opacity="1" stroke="none" />
<path d="M562.5 642.5C563.873 642.343 565.207 642.51 566.5 643C569.667 646.833 572.833 650.667 576 654.5C595.884 684.436 616.384 713.936 637.5 743C634.442 746.38 631.109 749.546 627.5 752.5C624.919 749.752 621.919 747.586 618.5 746C614.789 745.175 611.122 745.341 607.5 746.5C608.824 747.935 610.49 748.935 612.5 749.5C611.05 750.85 610.383 752.516 610.5 754.5C609.167 754.5 607.833 754.5 606.5 754.5C606.48 756.143 607.147 757.476 608.5 758.5C606.376 762.039 605.376 765.872 605.5 770C606.379 775.641 607.879 781.141 610 786.5C611.06 798.929 608.06 810.262 601 820.5C588.909 832.369 576.909 832.369 565 820.5C553.832 800.337 557.332 783.171 575.5 769C579.779 767.391 583.946 765.557 588 763.5C590.194 760.446 591.861 757.112 593 753.5C594.509 752.91 596.009 752.244 597.5 751.5C596.689 750.784 596.022 749.95 595.5 749C596.686 744.6 598.353 740.434 600.5 736.5C601.192 737.025 601.692 737.692 602 738.5C602.167 737.833 602.333 737.167 602.5 736.5C589.921 715.015 578.087 693.015 567 670.5C562.584 661.537 561.084 652.204 562.5 642.5Z" fill="#f2f2f2" fill-rule="evenodd" opacity="1" stroke="none" />
<path d="M610.5 723.5C618.505 722.342 621.339 725.675 619 733.5C613.194 738.252 609.361 736.918 607.5 729.5C607.984 727.199 608.984 725.199 610.5 723.5Z" fill="#1e1e1e" fill-rule="evenodd" opacity="1" stroke="none" />
<path d="M612.5 726.5C616.225 726.537 617.558 728.204 616.5 731.5C610.6 733.273 609.267 731.607 612.5 726.5Z" fill="#e2e2e2" fill-rule="evenodd" opacity="1" stroke="none" />
<path d="M581.5 776.5C594.05 775.549 600.383 781.382 600.5 794C600.458 804.083 596.458 812.083 588.5 818C578.807 820.734 572.307 817.234 569 807.5C566.072 794.083 570.239 783.75 581.5 776.5Z" fill="#191919" fill-rule="evenodd" opacity="1" stroke="none" />
<path d="M582.5 779.5C592.897 779.567 597.897 784.901 597.5 795.5C597.286 803.318 594.286 809.818 588.5 815C582.704 817.73 577.87 816.563 574 811.5C570.667 803.5 570.667 795.5 574 787.5C576.157 784.024 578.99 781.357 582.5 779.5Z" fill="#f4f4f4" fill-rule="evenodd" opacity="1" stroke="none" />
<path d="M637.5 745.5C638.552 745.351 639.552 745.517 640.5 746C644.593 753.545 650.926 756.545 659.5 755C677.348 759.848 686.681 771.515 687.5 790C686.954 808.881 677.287 817.548 658.5 816C644.649 810.13 636.816 799.63 635 784.5C634.622 777.811 634.622 771.144 635 764.5C633.421 761.006 631.587 757.673 629.5 754.5C632.189 751.48 634.856 748.48 637.5 745.5Z" fill="#f1f1f1" fill-rule="evenodd" opacity="1" stroke="none" />
<path d="M653.5 765.5C664.987 764.825 672.821 769.825 677 780.5C679.21 787.307 678.877 793.973 676 800.5C667.412 808.708 659.079 808.374 651 799.5C643.805 790.013 642.805 780.013 648 769.5C649.812 768.023 651.645 766.69 653.5 765.5Z" fill="#191919" fill-rule="evenodd" opacity="1" stroke="none" />
<path d="M653.5 768.5C667.541 768.707 674.875 775.874 675.5 790C673.809 803.232 667.142 806.565 655.5 800C648.968 793.071 646.468 784.904 648 775.5C649.666 773.004 651.5 770.671 653.5 768.5Z" fill="#f5f5f5" fill-rule="evenodd" opacity="1" stroke="none" />
</g>

</svg>