<?xml version="1.0" encoding="UTF-8"?>
<svg xmlns="http://www.w3.org/2000/svg" version="1.1" viewBox="617.26 866.55 204.24 140.83" width="204.24" height="140.83" style="overflow:visible;" xml:space="preserve">
<g>
<path d="M756.5 901.5C753.513 907.298 752.513 913.465 753.5 920C753.833 920.5 754.167 921 754.5 921.5C756.697 917.762 759.364 914.429 762.5 911.5C762.833 911.833 763.167 912.167 763.5 912.5C761.333 916.167 759.167 919.833 757 923.5C756.192 925.579 756.359 927.579 757.5 929.5C762.377 922.246 767.377 915.079 772.5 908C782.512 907.668 792.512 907.668 802.5 908C791.784 904.381 780.784 903.048 769.5 904C768.053 906.49 767.053 906.657 766.5 904.5C767.29 903.206 768.29 902.039 769.5 901C781.074 900.197 792.408 901.53 803.5 905C805.56 906.493 805.893 908.326 804.5 910.5C802.727 911.087 800.894 911.42 799 911.5C790.516 910.477 782.016 910.31 773.5 911C767.97 919.032 762.637 927.198 757.5 935.5C757.833 935.833 758.167 936.167 758.5 936.5C764.336 932.748 770.336 929.248 776.5 926C781.532 925.677 785.865 927.343 789.5 931C798.805 939.131 806.805 948.298 813.5 958.5C812.573 960.946 810.906 961.779 808.5 961C798.909 952.234 788.909 944.067 778.5 936.5C769.703 941.736 761.036 947.236 752.5 953C760.127 952.478 767.794 952.478 775.5 953C783.721 965.816 789.721 979.649 793.5 994.5C792.339 998.722 790.172 999.388 787 996.5C781.5 985.5 776 974.5 770.5 963.5C761.444 962.37 752.444 962.704 743.5 964.5C743.752 981.749 735.252 990.749 718 991.5C701.785 989.786 693.952 980.786 694.5 964.5C685.847 963.534 677.18 963.034 668.5 963C662.012 974.142 656.179 985.642 651 997.5C649.274 998.576 647.441 998.743 645.5 998C644.941 997.275 644.608 996.442 644.5 995.5C648.484 980.713 654.317 966.713 662 953.5C663.994 952.336 666.161 951.669 668.5 951.5C674.147 952.582 679.814 953.082 685.5 953C677.21 946.871 668.544 941.371 659.5 936.5C648.51 943.31 638.51 951.477 629.5 961C628.5 961.667 627.5 961.667 626.5 961C625.424 959.274 625.257 957.441 626 955.5C634.167 944 644 934.167 655.5 926C664.104 926.793 671.771 930.126 678.5 936C679.332 936.688 679.998 936.521 680.5 935.5C675.5 927.5 670.5 919.5 665.5 911.5C660.088 910.152 654.588 909.485 649 909.5C644.147 909.904 639.313 910.07 634.5 910C632.749 906.057 634.082 903.723 638.5 903C649.049 900.642 659.715 899.975 670.5 901C675.124 907.748 679.624 914.581 684 921.5C684.97 919.726 685.804 917.893 686.5 916C684.309 908.209 682.309 900.376 680.5 892.5C674.526 888.359 668.692 884.026 663 879.5C662.058 876.77 663.058 875.437 666 875.5C674.018 877.842 681.351 881.509 688 886.5C690.504 893.681 692.504 901.014 694 908.5C705.104 899.548 717.604 897.048 731.5 901C736.326 903.036 740.993 905.203 745.5 907.5C746.55 900.753 748.05 894.086 750 887.5C756.102 882.528 762.935 878.695 770.5 876C777.746 874.554 779.08 876.554 774.5 882C769 885.5 763.5 889 758 892.5C757.047 895.432 756.547 898.432 756.5 901.5Z" fill="#171717" fill-rule="evenodd" opacity="1" stroke="none" />
<path d="M712.5 950.5C724.424 948.847 733.257 953.181 739 963.5C740.579 981.837 732.079 990.003 713.5 988C701.461 984.767 696.295 976.934 698 964.5C700.774 957.557 705.607 952.89 712.5 950.5Z" fill="#f1f1f1" fill-rule="evenodd" opacity="1" stroke="none" />
<path d="M754.5 941.5C754.833 941.5 755.167 941.5 755.5 941.5C755.216 943.415 755.549 945.081 756.5 946.5C755.791 947.404 754.791 947.737 753.5 947.5C753.833 945.5 754.167 943.5 754.5 941.5Z" fill="#8d8e8d" fill-rule="evenodd" opacity="1" stroke="none" />
<path d="M658.5 927.5C666.108 931.306 673.441 935.64 680.5 940.5C682.151 942.402 682.484 944.402 681.5 946.5C674.459 941.647 667.125 937.314 659.5 933.5C656.473 934.361 653.806 935.861 651.5 938C644.5 944.333 637.5 950.667 630.5 957C629.833 957.667 629.167 957.667 628.5 957C637.068 945.598 647.068 935.765 658.5 927.5Z" fill="#e2e3e3" fill-rule="evenodd" opacity="1" stroke="none" />
<path d="M756.5 946.5C755.549 945.081 755.216 943.415 755.5 941.5C762.688 937.161 770.021 932.994 777.5 929C778.833 928.333 780.167 928.333 781.5 929C792.186 936.681 801.02 945.847 808 956.5C798.898 948.058 789.231 940.392 779 933.5C771.384 937.613 763.884 941.946 756.5 946.5Z" fill="#e7e7e7" fill-rule="evenodd" opacity="1" stroke="none" />
<path d="M756.5 901.5C756.413 904.598 756.913 904.932 758 902.5C760.477 903.875 761.311 905.709 760.5 908C761.047 908.925 761.713 909.758 762.5 910.5C763.316 908.569 764.649 906.569 766.5 904.5C767.053 906.657 768.053 906.49 769.5 904C780.784 903.048 791.784 904.381 802.5 908C792.512 907.668 782.512 907.668 772.5 908C767.377 915.079 762.377 922.246 757.5 929.5C756.359 927.579 756.192 925.579 757 923.5C759.167 919.833 761.333 916.167 763.5 912.5C763.167 912.167 762.833 911.833 762.5 911.5C759.364 914.429 756.697 917.762 754.5 921.5C754.167 921 753.833 920.5 753.5 920C752.513 913.465 753.513 907.298 756.5 901.5Z" fill="#e9e9e9" fill-rule="evenodd" opacity="1" stroke="none" />
<path d="M654.5 902.5C659.179 902.334 663.845 902.501 668.5 903C673.542 910.248 678.209 917.748 682.5 925.5C681.846 927.115 681.346 928.782 681 930.5C676.291 922.915 671.458 915.415 666.5 908C656.45 907.078 646.45 906.745 636.5 907C642.468 904.841 648.468 903.341 654.5 902.5Z" fill="#e1e1e1" fill-rule="evenodd" opacity="1" stroke="none" />
<path d="M754.5 941.5C754.167 943.5 753.833 945.5 753.5 947.5C750.445 952.92 746.445 957.587 741.5 961.5C732.438 947.98 720.438 944.48 705.5 951C701.281 953.552 698.114 957.052 696 961.5C679.001 943.495 679.501 925.995 697.5 909C711.25 900.684 725.25 900.351 739.5 908C751.133 916.107 756.133 927.273 754.5 941.5Z" fill="#f6f6f6" fill-rule="evenodd" opacity="1" stroke="none" />
<path d="M771.5 878.5C773.379 878.393 773.712 878.893 772.5 880C766.915 883.375 761.415 886.875 756 890.5C753.875 898.119 751.875 905.786 750 913.5C748.302 912.471 747.468 910.971 747.5 909C749.079 902.518 750.579 896.018 752 889.5C753.167 888.333 754.333 887.167 755.5 886C760.978 883.575 766.312 881.075 771.5 878.5Z" fill="#dedede" fill-rule="evenodd" opacity="1" stroke="none" />
<path d="M666.5 879.5C673.446 880.794 679.946 883.794 686 888.5C687.836 895.688 689.67 902.855 691.5 910C691.07 911.434 690.236 912.601 689 913.5C686.801 905.9 684.801 898.234 683 890.5C677.385 886.947 671.885 883.28 666.5 879.5Z" fill="#dcdddd" fill-rule="evenodd" opacity="1" stroke="none" />
<path d="M763.5 954.5C766.85 954.335 770.183 954.502 773.5 955C781.561 967.53 787.061 981.03 790 995.5C784.231 983.462 778.064 971.629 771.5 960C763.088 959.451 754.754 959.784 746.5 961C747.833 959.667 749.167 958.333 750.5 957C754.988 956.24 759.322 955.406 763.5 954.5Z" fill="#e1e2e2" fill-rule="evenodd" opacity="1" stroke="none" />
<path d="M706.5 964.5C712.643 965.026 713.976 967.86 710.5 973C705.504 973.664 703.67 971.498 705 966.5C705.717 965.956 706.217 965.289 706.5 964.5Z" fill="#1b1c1c" fill-rule="evenodd" opacity="1" stroke="none" />
<path d="M725.5 964.5C732.486 964.331 734.153 967.164 730.5 973C728.299 973.825 726.466 973.325 725 971.5C724.297 969.071 724.463 966.738 725.5 964.5Z" fill="#191919" fill-rule="evenodd" opacity="1" stroke="none" />
<path d="M664.5 954.5C672.195 955.004 679.861 955.837 687.5 957C688.833 958.333 690.167 959.667 691.5 961C684.993 960.977 678.493 960.477 672 959.5C670.167 959.833 668.333 960.167 666.5 960.5C660.411 971.677 654.578 983.01 649 994.5C649.146 990.041 650.146 985.708 652 981.5C655.648 972.208 659.814 963.208 664.5 954.5Z" fill="#dedfdf" fill-rule="evenodd" opacity="1" stroke="none" />
<path d="M723.5 977.5C726.112 979.232 725.779 980.732 722.5 982C719.833 982.667 717.167 982.667 714.5 982C713.643 981.311 712.977 980.478 712.5 979.5C715.717 979.342 719.05 979.175 722.5 979C723.056 978.617 723.389 978.117 723.5 977.5Z" fill="#1f2020" fill-rule="evenodd" opacity="1" stroke="none" />
</g>

</svg>