<?xml version="1.0" encoding="UTF-8"?>
<svg xmlns="http://www.w3.org/2000/svg" version="1.1" viewBox="1164 35 222 236" width="222" height="236" style="fill-rule:nonzero;clip-rule:evenodd;stroke-linecap:round;stroke-linejoin:round;" xml:space="preserve">
<g transform="translate(1148,18)"><ns0:path xmlns:ns0="http://www.w3.org/2000/svg" d="M0 0 C2.687 1.763 5.178 3.745 7.688 5.75 C9.206 6.938 10.725 8.124 12.246 9.309 C13.03 9.921 13.813 10.533 14.621 11.164 C18.446 14.116 22.348 16.962 26.25 19.812 C35.792 26.805 45.219 33.947 54.599 41.156 C56.255 42.428 57.917 43.695 59.581 44.958 C60.397 45.581 61.214 46.205 62.055 46.848 C62.789 47.406 63.524 47.964 64.281 48.539 C66 50 66 50 67 52 C67.116 53.76 67.17 55.525 67.193 57.288 C67.209 58.393 67.225 59.498 67.242 60.636 C67.286 65.692 67.327 70.747 67.35 75.802 C67.363 78.471 67.394 81.138 67.432 83.807 C67.487 87.649 67.509 91.49 67.523 95.332 C67.546 96.525 67.569 97.718 67.592 98.947 C67.571 107.241 67.571 107.241 64.624 111.158 C63.758 111.766 62.892 112.374 62 113 C61.586 113.353 61.586 113.353 59.492 115.141 C58.629 115.837 57.765 116.533 56.875 117.25 C53.928 119.629 50.989 122.009 48.086 124.441 C41.746 129.742 36.311 134.148 28.25 136.375 C17.656 139.393 9.714 145.299 2 153 C1.613 153.381 1.613 153.381 -0.344 155.309 C-6.948 162.195 -12.077 170.187 -15.846 178.973 C-18.385 184.714 -21.829 187.942 -26.75 191.75 C-27.494 192.34 -28.239 192.93 -29.005 193.537 C-30.554 194.759 -32.109 195.974 -33.669 197.182 C-35.949 198.96 -38.191 200.777 -40.43 202.605 C-41.827 203.718 -43.225 204.829 -44.625 205.938 C-45.263 206.464 -45.901 206.99 -46.558 207.532 C-49.742 209.99 -51.349 210.976 -55.461 211.125 C-59.863 209.726 -63.216 207.666 -67 205.062 C-67.744 204.565 -68.488 204.068 -69.255 203.556 C-70.784 202.533 -72.309 201.505 -73.831 200.471 C-75.767 199.158 -77.714 197.861 -79.668 196.574 C-90.871 189.188 -101.947 181.608 -113 174 C-113.76 173.477 -114.519 172.955 -115.302 172.417 C-117.27 171.057 -119.23 169.687 -121.188 168.312 C-122.254 167.566 -123.32 166.82 -124.418 166.051 C-127.794 163.37 -129.779 161.572 -130.394 157.199 C-130.403 156.121 -130.411 155.044 -130.42 153.934 C-130.436 152.709 -130.452 151.484 -130.468 150.222 C-130.468 148.902 -130.469 147.582 -130.469 146.223 C-130.476 144.85 -130.484 143.478 -130.492 142.106 C-130.505 139.232 -130.507 136.358 -130.501 133.484 C-130.495 129.807 -130.526 126.131 -130.566 122.455 C-130.592 119.621 -130.595 116.788 -130.591 113.954 C-130.594 111.941 -130.618 109.929 -130.643 107.917 C-130.574 98.789 -130.574 98.789 -127.654 94.776 C-126.778 94.19 -125.902 93.604 -125 93 C-123.991 92.233 -122.981 91.466 -121.941 90.676 C-120.819 89.883 -119.692 89.095 -118.562 88.312 C-117.317 87.442 -116.073 86.571 -114.828 85.699 C-114.195 85.256 -113.561 84.813 -112.908 84.357 C-111.034 83.024 -109.194 81.656 -107.359 80.27 C-101.379 75.787 -95.914 72.301 -88.715 70.039 C-70.946 63.238 -51.158 44.389 -41.438 28.312 C-38.262 23.131 -34.758 19.714 -30 16 C-28.207 14.522 -26.416 13.043 -24.625 11.562 C-22.751 10.041 -20.876 8.52 -19 7 C-18.069 6.236 -17.139 5.471 -16.18 4.684 C-15.295 3.963 -14.411 3.242 -13.5 2.5 C-12.706 1.85 -11.912 1.201 -11.094 0.531 C-6.863 -2.563 -4.631 -2 0 0 Z M-10.938 8 C-14.661 11.077 -18.401 14.126 -22.188 17.125 C-23.002 17.781 -23.817 18.437 -24.656 19.113 C-26.145 20.312 -27.644 21.498 -29.156 22.668 C-33.03 25.804 -35.679 28.844 -38.25 33.125 C-50.516 53.384 -73.324 70.832 -95.277 79.258 C-99.701 81.146 -103.293 83.993 -107.062 86.938 C-108.427 87.99 -109.793 89.041 -111.16 90.09 C-111.806 90.586 -112.452 91.082 -113.118 91.593 C-115.679 93.507 -118.317 95.263 -121 97 C-119.645 100.168 -118.312 101.806 -115.5 103.777 C-114.787 104.284 -114.074 104.791 -113.34 105.312 C-112.568 105.849 -111.796 106.385 -111 106.938 C-109.354 108.103 -107.708 109.268 -106.062 110.434 C-105.641 110.73 -105.641 110.73 -103.508 112.23 C-99.648 114.954 -95.825 117.728 -92 120.5 C-90.511 121.576 -89.021 122.651 -87.531 123.727 C-83.632 126.542 -79.736 129.362 -75.84 132.183 C-73.571 133.824 -71.297 135.459 -69.023 137.094 C-66.594 138.841 -64.18 140.606 -61.789 142.406 C-61.349 142.731 -61.349 142.731 -59.125 144.375 C-58.406 144.919 -57.686 145.463 -56.945 146.023 C-55 147 -55 147 -53.082 146.711 C-50.864 145.954 -49.547 145.083 -47.75 143.594 C-47.148 143.102 -46.545 142.611 -45.924 142.104 C-45.607 141.839 -45.607 141.839 -44 140.5 C-36.243 134.102 -36.243 134.102 -32.664 131.695 C-26.32 127.373 -22.313 122.968 -18.421 116.441 C-6.729 97.046 12.646 83.301 34.34 77.41 C34.888 77.275 35.436 77.139 36 77 C35.719 79.402 35.719 79.402 35 82 C32.308 83.202 29.791 84.114 27 85 C10.131 91.483 -5.793 104.204 -14.871 119.937 C-19.506 127.816 -24.955 132.638 -32.449 137.793 C-32.786 138.041 -32.786 138.041 -34.493 139.295 C-36.515 140.67 -38.451 141.766 -40.608 142.89 C-45.714 145.822 -50.112 148.741 -51.727 154.666 C-52.76 162.492 -52.274 170.33 -51.875 178.188 C-51.805 180.594 -51.741 183.001 -51.684 185.408 C-51.53 191.276 -51.297 197.137 -51 203 C-45.519 198.91 -40.12 194.75 -34.812 190.438 C-34.127 189.886 -33.442 189.335 -32.736 188.768 C-26.25 183.504 -21.644 178.951 -18.188 171.312 C-14.91 164.415 -11.076 158.735 -6 153 C-5.22 152.023 -4.44 151.046 -3.637 150.039 C4.701 140.029 17.287 132.624 29.938 129.875 C36.843 127.995 41.816 122.561 46.861 117.727 C49 116 49 116 52.092 114.423 C55.721 112.394 58.809 110.576 61 107 C63.015 99.398 62.123 91.207 61.75 83.438 C61.69 81.263 61.635 79.087 61.586 76.912 C61.454 71.605 61.254 66.303 61 61 C59.717 61.955 58.435 62.911 57.154 63.868 C56.44 64.4 55.726 64.932 54.99 65.481 C52.06 67.718 49.374 70.185 46.664 72.68 C45 74 45 74 43 74 C42.67 73.01 42.34 72.02 42 71 C46.897 65.803 52.182 61.371 57.84 57.016 C58.553 56.35 59.266 55.685 60 55 C60 54.01 60 53.02 60 52 C58.043 50.23 58.043 50.23 55.188 48.188 C54.078 47.383 52.969 46.578 51.859 45.773 C51.244 45.332 50.628 44.891 49.994 44.437 C47.086 42.341 44.207 40.208 41.324 38.077 C38.889 36.277 36.451 34.482 34.012 32.688 C29.89 29.655 25.77 26.62 21.652 23.583 C19.287 21.84 16.921 20.097 14.555 18.355 C11.536 16.133 8.521 13.906 5.508 11.676 C4.13 10.659 2.753 9.642 1.375 8.625 C0.741 8.154 0.107 7.684 -0.546 7.198 C-5.912 3.244 -5.84 3.768 -10.938 8 Z M-124 104 C-124.357 111.648 -124.601 119.294 -124.769 126.949 C-124.839 129.549 -124.935 132.149 -125.056 134.747 C-126.007 155.61 -126.007 155.61 -122.781 161.058 C-119.686 164.376 -116 166.281 -111.894 168.107 C-108.92 169.509 -106.355 171.429 -103.691 173.344 C-101.65 174.731 -99.607 176.116 -97.562 177.5 C-96.481 178.233 -95.4 178.967 -94.286 179.722 C-87.296 184.459 -80.292 189.175 -73.254 193.84 C-70.986 195.346 -68.723 196.857 -66.465 198.379 C-65.901 198.758 -65.338 199.137 -64.757 199.527 C-63.236 200.551 -61.715 201.576 -60.195 202.602 C-58 204 -58 204 -57 204 C-56.514 196.854 -56.184 189.711 -55.956 182.552 C-55.861 180.124 -55.732 177.697 -55.567 175.273 C-54.266 155.704 -54.266 155.704 -58.812 149.545 C-63.248 145.272 -68.261 142.184 -73.668 139.288 C-77.021 137.436 -79.992 135.225 -83.062 132.938 C-84.178 132.14 -85.295 131.346 -86.414 130.555 C-90.602 127.576 -94.771 124.571 -98.938 121.562 C-99.691 121.019 -100.444 120.475 -101.221 119.915 C-104.975 117.202 -108.718 114.477 -112.445 111.727 C-113.14 111.214 -113.835 110.702 -114.551 110.174 C-115.867 109.201 -117.181 108.227 -118.494 107.25 C-122.891 104 -122.891 104 -124 104 Z " fill="#000000" transform="translate(159,31)" />
<ns0:path xmlns:ns0="http://www.w3.org/2000/svg" d="M0 0 C2.422 1.285 2.422 1.285 4.75 3.062 C5.174 3.378 5.174 3.378 7.32 4.977 C8.205 5.644 9.089 6.312 10 7 C11.87 8.32 13.745 9.633 15.625 10.938 C17.083 11.958 18.542 12.979 20 14 C19.67 15.32 19.34 16.64 19 18 C15 18 15 18 13.062 16.438 C11 15 11 15 8.773 15.074 C4.977 16.342 2.466 18.726 -0.438 21.375 C-1.674 22.47 -2.912 23.562 -4.152 24.652 C-4.469 24.931 -4.469 24.931 -6.07 26.339 C-9.678 29.443 -13.442 32.345 -17.205 35.257 C-20.87 38.097 -24.453 41.014 -28 44 C-27.397 44.159 -26.793 44.317 -26.172 44.48 C-22.364 45.592 -19.518 46.57 -16.438 49.125 C-14.428 53.143 -14.059 56.597 -15 61 C-17.53 64.282 -19.077 65.692 -23 67 C-28.706 67.538 -31.556 66.618 -36 63 C-38.679 58.981 -38.156 56.758 -38 52 C-38.411 52.351 -38.411 52.351 -40.492 54.125 C-45.576 58.45 -50.66 62.771 -55.875 66.938 C-56.655 67.564 -57.435 68.19 -58.238 68.836 C-60.443 70.564 -62.669 72.244 -64.918 73.914 C-66.3 74.963 -67.681 76.013 -69.062 77.062 C-69.731 77.545 -70.399 78.028 -71.087 78.525 C-74.503 81.147 -75.826 82.431 -77.125 86.672 C-77 90 -77 90 -75.777 91.855 C-75.17 92.295 -74.563 92.735 -73.938 93.188 C-73.613 93.427 -73.613 93.427 -71.969 94.637 C-71.319 95.087 -70.669 95.536 -70 96 C-68.989 96.825 -67.979 97.65 -66.938 98.5 C-64 100 -64 100 -61.219 99.395 C-57.542 97.801 -54.638 95.703 -51.562 93.188 C-50.963 92.707 -50.363 92.226 -49.745 91.731 C-43.879 86.99 -38.202 82.029 -32.527 77.062 C-28.668 73.694 -24.709 70.457 -20.73 67.23 C-12.45 60.467 -4.366 53.463 3.747 46.501 C7.864 42.969 11.989 39.447 16.125 35.938 C16.657 35.484 17.19 35.031 17.738 34.564 C19.901 32.732 22.056 30.96 24.367 29.316 C24.906 28.882 25.445 28.448 26 28 C26 27.34 26 26.68 26 26 C25.34 25.67 24.68 25.34 24 25 C24.33 23.35 24.66 21.7 25 20 C27.988 20.323 29.613 20.652 31.875 22.688 C33.454 25.933 32.984 27.548 32 31 C30.219 33.036 28.603 34.652 26.562 36.375 C26.29 36.614 26.29 36.614 24.913 37.825 C20.958 41.272 16.875 44.552 12.746 47.789 C9.342 50.53 6.045 53.38 2.75 56.25 C2.112 56.805 1.475 57.36 0.818 57.932 C-0.479 59.063 -1.777 60.193 -3.074 61.324 C-11.029 68.246 -19.041 75.084 -27.23 81.727 C-29.758 83.801 -32.25 85.91 -34.735 88.035 C-39.792 92.359 -44.914 96.567 -50.188 100.625 C-50.74 101.051 -51.293 101.477 -51.863 101.916 C-56.06 105.116 -58.834 106.64 -64.285 106.613 C-71.77 104.922 -78.721 98.166 -83 92 C-83.75 88.188 -83.75 88.188 -84 85 C-84.629 85.577 -85.258 86.155 -85.906 86.75 C-93.776 93.576 -93.776 93.576 -98.375 93.75 C-102 93 -102 93 -104.562 91.438 C-106.645 87.907 -105.993 85.916 -105 82 C-102.602 79.383 -102.602 79.383 -99.625 77.125 C-98.648 76.364 -97.671 75.604 -96.664 74.82 C-94 73 -94 73 -91 72 C-90.223 74.238 -90.223 74.238 -90 77 C-91.871 79.168 -91.871 79.168 -94.438 81.188 C-95.986 82.424 -97.514 83.688 -99 85 C-99 85.66 -99 86.32 -99 87 C-94.622 86.523 -91.948 83.625 -88.812 80.812 C-87.56 79.713 -86.306 78.616 -85.051 77.52 C-84.392 76.943 -83.732 76.366 -83.053 75.772 C-79.589 72.783 -76.043 69.895 -72.5 67 C-66.563 62.138 -60.699 57.202 -54.889 52.19 C-50.578 48.477 -46.194 44.864 -41.777 41.277 C-38.097 38.259 -34.473 35.177 -30.847 32.094 C-26.451 28.364 -21.993 24.715 -17.516 21.082 C-14.45 18.545 -11.491 15.904 -8.559 13.215 C-7 12 -7 12 -5 12 C-5.165 11.34 -5.165 11.34 -6 8 C-6.333 8.273 -6.333 8.273 -8.02 9.652 C-8.48 10.029 -8.48 10.029 -10.812 11.938 C-11.823 12.765 -12.834 13.593 -13.875 14.445 C-15.809 16.028 -17.747 17.606 -19.688 19.18 C-25.475 23.882 -31.159 28.69 -36.808 33.558 C-41.196 37.332 -45.658 41.005 -50.152 44.652 C-53.497 47.409 -56.781 50.231 -60.062 53.062 C-64.897 57.231 -69.789 61.297 -74.812 65.238 C-76.929 66.943 -78.929 68.734 -80.938 70.562 C-81.948 71.367 -82.959 72.171 -84 73 C-84.495 72.835 -84.495 72.835 -87 72 C-87.33 71.01 -87.66 70.02 -88 69 C-81.051 61.819 -73.512 55.325 -65.672 49.141 C-62.715 46.771 -59.822 44.332 -56.938 41.875 C-51.114 36.917 -45.218 32.05 -39.305 27.199 C-35.473 24.051 -31.664 20.882 -27.893 17.661 C-25.817 15.889 -23.73 14.129 -21.639 12.375 C-20.484 11.406 -19.332 10.435 -18.182 9.461 C-16.321 7.895 -14.444 6.352 -12.562 4.812 C-12.279 4.571 -12.279 4.571 -10.843 3.351 C-7.143 0.368 -4.737 -0.808 0 0 Z M0 7 C0 8.98 0 10.96 0 13 C1.32 11.68 2.64 10.36 4 9 C2.68 8.34 1.36 7.68 0 7 Z M-27 51 C-26.67 51.66 -26.34 52.32 -26 53 C-25.361 53.124 -24.721 53.248 -24.062 53.375 C-22 54 -22 54 -20.75 56.062 C-20.502 56.702 -20.255 57.341 -20 58 C-19.875 55.625 -19.875 55.625 -20 53 C-22 51 -22 51 -24.625 50.875 C-25.017 50.896 -25.017 50.896 -27 51 Z M-33 55 C-31.125 59.875 -31.125 59.875 -30 61 C-27.329 61.141 -24.676 61.042 -22 61 C-22 60.01 -22 59.02 -22 58 C-23.98 58.66 -25.96 59.32 -28 60 C-28.268 59.361 -28.536 58.721 -28.812 58.062 C-30 56 -30 56 -33 55 Z " fill="#000000" transform="translate(165,50)" />
<ns0:path xmlns:ns0="http://www.w3.org/2000/svg" d="M0 0 C9.725 5.276 15.392 12.948 18.844 23.355 C20.465 29.551 20.288 34.755 18 40.812 C15.138 44.044 12.305 45.296 8.062 46 C-1.358 45.791 -7.336 40.881 -13.625 34.375 C-19.282 27.576 -22.887 19.187 -22.355 10.258 C-21.423 5.222 -19.419 2.021 -15.125 -0.938 C-9.399 -2.846 -5.438 -2.465 0 0 Z M-10.938 5 C-11.87 11.851 -10.253 17.056 -6.938 23 C-6.587 23.63 -6.236 24.261 -5.875 24.91 C-2.051 30.951 3.673 35.092 10.562 36.938 C11.388 36.958 12.213 36.979 13.062 37 C14.639 35.423 14.385 33.879 14.5 31.688 C14.404 23.338 10.225 15.916 4.562 9.938 C0.857 6.591 -2.673 4.201 -7.75 3.75 C-9.938 4 -9.938 4 -10.938 5 Z M-16.938 11 C-16.938 12.65 -16.938 14.3 -16.938 16 C-16.608 16 -16.278 16 -15.938 16 C-15.938 14.35 -15.938 12.7 -15.938 11 C-16.267 11 -16.597 11 -16.938 11 Z M-15.938 16 C-14.938 19 -14.938 19 -14.938 19 Z M-14.938 19 C-13.938 22 -13.938 22 -13.938 22 Z M-13.938 22 C-12.938 24 -12.938 24 -12.938 24 Z M-12.938 24 C-11.938 26 -11.938 26 -11.938 26 Z M-10.938 27 C-9.938 29 -9.938 29 -9.938 29 Z " fill="#000000" transform="translate(66.9375,161)" />
  </g>
</svg>
