<?xml version="1.0" encoding="UTF-8"?>
<svg xmlns="http://www.w3.org/2000/svg" version="1.1" viewBox="1310.20 591.69 168.50 251.83" width="168.50" height="251.83" style="overflow:visible;" xml:space="preserve">
<g>
<path d="M1387.5 602.5C1420.18 599.692 1442.01 613.692 1453 644.5C1456.05 655.964 1457.21 667.631 1456.5 679.5C1467.2 679.873 1470.7 685.206 1467 695.5C1465.67 696.833 1464.33 698.167 1463 699.5C1462.53 732.623 1447.37 756.123 1417.5 770C1412.6 771.691 1407.6 772.857 1402.5 773.5C1402.5 781.5 1402.5 789.5 1402.5 797.5C1412.7 797.311 1422.37 799.478 1431.5 804C1433.38 805.543 1434.88 807.376 1436 809.5C1438.96 820.865 1434.79 828.032 1423.5 831C1405.23 835.192 1386.89 835.525 1368.5 832C1362.51 830.592 1357.35 827.758 1353 823.5C1352.33 818.5 1352.33 813.5 1353 808.5C1355.09 804.698 1358.25 802.198 1362.5 801C1369.91 798.151 1377.58 796.651 1385.5 796.5C1385.5 788.833 1385.5 781.167 1385.5 773.5C1357 769.324 1337.83 753.657 1328 726.5C1325.4 715.655 1323.9 704.655 1323.5 693.5C1318.2 688.082 1318.2 682.582 1323.5 677C1326.69 675.684 1330.02 675.184 1333.5 675.5C1336.33 649.677 1347.66 628.51 1367.5 612C1373.86 607.983 1380.53 604.816 1387.5 602.5Z" fill="#171717" fill-rule="evenodd" opacity="1" stroke="none" />
<path d="M1444.5 710.5C1442.66 713.981 1441 717.647 1439.5 721.5C1439.85 722.696 1440.35 722.696 1441 721.5C1442.66 718.673 1443.83 715.673 1444.5 712.5C1446.84 708.477 1448.67 704.144 1450 699.5C1448.29 718.715 1439.45 735.215 1423.5 749C1419.83 751.838 1415.83 754.171 1411.5 756C1372.47 766.897 1347.63 752.73 1337 713.5C1330.62 680.026 1337.96 650.026 1359 623.5C1376.76 605.081 1397.59 600.581 1421.5 610C1439.35 620.849 1449.85 636.683 1453 657.5C1453.67 665.167 1453.67 672.833 1453 680.5C1451.33 681.5 1450 682.833 1449 684.5C1449.1 693.482 1447.6 702.149 1444.5 710.5Z" fill="#eeeeee" fill-rule="evenodd" opacity="1" stroke="none" />
<path d="M1325.5 678.5C1326.55 678.351 1327.55 678.517 1328.5 679C1327.3 679.903 1326.47 681.069 1326 682.5C1325.82 685.226 1325.32 687.893 1324.5 690.5C1321.69 686.218 1322.02 682.218 1325.5 678.5Z" fill="#d2d2d3" fill-rule="evenodd" opacity="1" stroke="none" />
<path d="M1455.5 693.5C1454.78 691.444 1454.12 689.277 1453.5 687C1454.71 685.893 1454.38 685.393 1452.5 685.5C1453.9 682.068 1456.23 681.068 1459.5 682.5C1455.99 685.317 1454.66 688.983 1455.5 693.5Z" fill="#c3c4c4" fill-rule="evenodd" opacity="1" stroke="none" />
<path d="M1460.5 682.5C1463.85 683.348 1465.51 685.515 1465.5 689C1465.6 692.3 1464.27 694.8 1461.5 696.5C1458.94 695.281 1457.61 693.281 1457.5 690.5C1457.96 687.583 1458.96 684.916 1460.5 682.5Z" fill="#e6e7e6" fill-rule="evenodd" opacity="1" stroke="none" />
<path d="M1390.5 613.5C1411.17 611.583 1426.01 619.917 1435 638.5C1447.87 672.836 1443.54 704.836 1422 734.5C1405.09 753.178 1385.59 756.678 1363.5 745C1348.26 729.95 1341.26 711.617 1342.5 690C1342.51 663.957 1351.84 641.957 1370.5 624C1376.54 619.146 1383.21 615.646 1390.5 613.5Z" fill="#151515" fill-rule="evenodd" opacity="1" stroke="none" />
<path d="M1390.5 616.5C1407.72 614.694 1420.89 621.028 1430 635.5C1438.91 651.412 1441.91 668.412 1439 686.5C1436.54 705.923 1428.7 722.756 1415.5 737C1404.37 747.406 1391.37 751.072 1376.5 748C1362.18 742.539 1353.01 732.372 1349 717.5C1341.23 690.768 1344.56 665.435 1359 641.5C1366.49 629.194 1376.99 620.861 1390.5 616.5Z" fill="#f6f6f6" fill-rule="evenodd" opacity="1" stroke="none" />
<path d="M1407.5 657.5C1408.55 657.351 1409.55 657.517 1410.5 658C1398.74 673.922 1386.08 689.089 1372.5 703.5C1371.59 702.21 1371.76 700.877 1373 699.5C1385.09 685.917 1396.59 671.917 1407.5 657.5Z" fill="#191919" fill-rule="evenodd" opacity="1" stroke="none" />
<path d="M1388.5 658.5C1389.68 658.281 1390.68 658.614 1391.5 659.5C1386.83 665.167 1382.17 670.833 1377.5 676.5C1376.5 677.833 1375.5 677.833 1374.5 676.5C1379.6 670.749 1384.26 664.749 1388.5 658.5Z" fill="#19191a" fill-rule="evenodd" opacity="1" stroke="none" />
<path d="M1414.5 758.5C1413.83 758.5 1413.5 758.167 1413.5 757.5C1426.33 751.173 1436.5 741.84 1444 729.5C1447 722.833 1450 716.167 1453 709.5C1453.85 703.03 1453.35 696.697 1451.5 690.5C1451.59 688.742 1451.92 687.076 1452.5 685.5C1454.38 685.393 1454.71 685.893 1453.5 687C1454.12 689.277 1454.78 691.444 1455.5 693.5C1455.79 696.801 1457.46 698.801 1460.5 699.5C1459.13 735.448 1441.47 758.948 1407.5 770C1376.44 774.713 1352.6 763.88 1336 737.5C1326.94 718.764 1325.1 699.431 1330.5 679.5C1330.83 679.167 1331.17 678.833 1331.5 678.5C1330.41 694.85 1332.58 710.85 1338 726.5C1351.64 756.409 1374.81 768.575 1407.5 763C1411.73 761.885 1415.73 760.219 1419.5 758C1417.8 757.616 1416.14 757.782 1414.5 758.5Z" fill="#eaeaea" fill-rule="evenodd" opacity="1" stroke="none" />
<path d="M1413.5 757.5C1413.5 758.167 1413.83 758.5 1414.5 758.5C1412.47 760.088 1410.14 760.588 1407.5 760C1409.49 759.062 1411.49 758.228 1413.5 757.5Z" fill="#7d7d7e" fill-rule="evenodd" opacity="1" stroke="none" />
<path d="M1444.5 710.5C1444.5 711.167 1444.5 711.833 1444.5 712.5C1443.83 715.673 1442.66 718.673 1441 721.5C1440.35 722.696 1439.85 722.696 1439.5 721.5C1441 717.647 1442.66 713.981 1444.5 710.5Z" fill="#4e4d4d" fill-rule="evenodd" opacity="1" stroke="none" />
<path d="M1402.5 685.5C1404.03 685.517 1404.53 686.184 1404 687.5C1400.7 692.628 1396.87 697.294 1392.5 701.5C1391.42 700.635 1391.25 699.635 1392 698.5C1395.71 694.292 1399.21 689.959 1402.5 685.5Z" fill="#212121" fill-rule="evenodd" opacity="1" stroke="none" />
<path d="M1388.5 774.5C1392.17 774.5 1395.83 774.5 1399.5 774.5C1399.83 785.52 1399.5 796.52 1398.5 807.5C1395.3 808.799 1392.13 808.799 1389 807.5C1388.5 796.505 1388.33 785.505 1388.5 774.5Z" fill="#ededed" fill-rule="evenodd" opacity="1" stroke="none" />
<path d="M1401.5 807.5C1402.47 805.393 1402.8 803.059 1402.5 800.5C1404.17 800.5 1405.83 800.5 1407.5 800.5C1415.74 800.644 1423.41 802.811 1430.5 807C1434.04 809.282 1434.37 811.949 1431.5 815C1423.66 819.043 1415.33 821.376 1406.5 822C1389.41 824.436 1373.07 822.103 1357.5 815C1354.69 811.706 1355.02 808.706 1358.5 806C1367.06 801.989 1376.06 799.822 1385.5 799.5C1384 809.834 1388.34 813.667 1398.5 811C1400.06 810.28 1401.06 809.113 1401.5 807.5Z" fill="#f3f3f3" fill-rule="evenodd" opacity="1" stroke="none" />
<path d="M1407.5 800.5C1405.83 800.5 1404.17 800.5 1402.5 800.5C1402.8 803.059 1402.47 805.393 1401.5 807.5C1401.5 804.833 1401.5 802.167 1401.5 799.5C1403.74 799.205 1405.74 799.539 1407.5 800.5Z" fill="#6c6a6d" fill-rule="evenodd" opacity="1" stroke="none" />
<path d="M1355.5 817.5C1367.41 823.35 1380.08 826.016 1393.5 825.5C1407.16 825.946 1420.16 823.279 1432.5 817.5C1433.91 819.949 1433.58 822.116 1431.5 824C1419.94 829.445 1407.77 831.945 1395 831.5C1384.95 832.026 1375.12 830.86 1365.5 828C1361.84 826.998 1358.67 825.164 1356 822.5C1355.51 820.866 1355.34 819.199 1355.5 817.5Z" fill="#ebeceb" fill-rule="evenodd" opacity="1" stroke="none" />
</g>

</svg>