<?xml version="1.0" encoding="UTF-8"?>
<svg xmlns="http://www.w3.org/2000/svg" version="1.1" viewBox="773.49 605.69 179.06 244.79" width="179.06" height="244.79" style="overflow:visible;" xml:space="preserve">
<g>
<path d="M841.5 657.5C842.765 658.514 843.431 660.014 843.5 662C843.492 663.707 843.158 665.207 842.5 666.5C842.736 663.391 842.403 660.391 841.5 657.5Z" fill="#898d88" fill-rule="evenodd" opacity="1" stroke="none" />
<path d="M842.5 666.5C843.158 665.207 843.492 663.707 843.5 662C843.431 660.014 842.765 658.514 841.5 657.5C839.827 656.657 838.66 655.324 838 653.5C837.199 641.649 838.199 629.983 841 618.5C842.214 616.951 843.714 615.785 845.5 615C877.074 613.686 908.074 617.352 938.5 626C942.889 628.529 944.555 632.363 943.5 637.5C942.63 646.829 941.797 656.163 941 665.5C940 668.5 938 670.5 935 671.5C932.117 697.646 929.951 723.813 928.5 750C930.523 774.145 931.689 798.312 932 822.5C925.464 828.352 919.797 827.686 915 820.5C914.247 799.111 912.747 777.777 910.5 756.5C899.861 761.988 889.028 766.988 878 771.5C877.667 793.5 877.333 815.5 877 837.5C872.909 841.305 868.076 842.472 862.5 841C861.667 840.167 860.833 839.333 860 838.5C859.833 816.492 859.333 794.492 858.5 772.5C857.919 781.888 857.086 791.221 856 800.5C852.662 803.318 848.829 804.151 844.5 803C842.667 802.5 841.5 801.333 841 799.5C840.5 789.506 840.334 779.506 840.5 769.5C828.271 767.775 816.271 765.109 804.5 761.5C803.55 782.211 802.05 802.878 800 823.5C797.103 828.155 792.937 829.655 787.5 828C783.16 825.647 781.493 821.98 782.5 817C784.593 795.868 785.76 774.702 786 753.5C785 752.5 784 751.5 783 750.5C782.333 743.833 782.333 737.167 783 730.5C787.713 726.922 792.879 724.088 798.5 722C812.129 716.235 825.962 711.069 840 706.5C841 693.173 841.833 679.839 842.5 666.5Z" fill="#171717" fill-rule="evenodd" opacity="1" stroke="none" />
<path d="M853.5 768.5C858.181 768.669 862.848 769.002 867.5 769.5C862.787 770.497 858.12 770.163 853.5 768.5Z" fill="#9c9c9d" fill-rule="evenodd" opacity="1" stroke="none" />
<path d="M789.5 755.5C793.257 757.419 797.257 758.752 801.5 759.5C800.203 779.487 799.037 799.487 798 819.5C797.001 824.757 793.834 826.591 788.5 825C786.005 822.781 785.005 819.948 785.5 816.5C787.165 796.185 788.498 775.852 789.5 755.5Z" fill="#efefef" fill-rule="evenodd" opacity="1" stroke="none" />
<path d="M923.5 749.5C925.045 750.23 925.878 751.563 926 753.5C927.932 776.137 928.932 798.804 929 821.5C925.064 824.314 921.397 823.981 918 820.5C916.954 801.492 915.788 782.492 914.5 763.5C914.833 760.5 915.167 757.5 915.5 754.5C918.231 752.808 920.898 751.142 923.5 749.5Z" fill="#f1f1f1" fill-rule="evenodd" opacity="1" stroke="none" />
<path d="M800.5 739.5C804.111 740.902 807.778 741.902 811.5 742.5C809.585 742.216 807.919 742.549 806.5 743.5C804.214 743.405 802.214 742.738 800.5 741.5C801.506 741.062 801.506 740.396 800.5 739.5Z" fill="#a9a9a9" fill-rule="evenodd" opacity="1" stroke="none" />
<path d="M800.5 741.5C802.214 742.738 804.214 743.405 806.5 743.5C826.268 750.19 846.601 754.19 867.5 755.5C867.5 760.167 867.5 764.833 867.5 769.5C862.848 769.002 858.181 768.669 853.5 768.5C830.6 766.021 808.6 760.187 787.5 751C787 750.5 786.5 750 786 749.5C785.333 744.833 785.333 740.167 786 735.5C790.436 738.468 795.269 740.468 800.5 741.5Z" fill="#f3f3f3" fill-rule="evenodd" opacity="1" stroke="none" />
<path d="M925.5 729.5C926.8 731.223 927.467 733.39 927.5 736C927.961 739.84 926.961 743.173 924.5 746C907.282 755.779 889.282 763.613 870.5 769.5C870.173 764.786 870.507 760.12 871.5 755.5C890.242 748.154 908.242 739.488 925.5 729.5Z" fill="#f2f2f2" fill-rule="evenodd" opacity="1" stroke="none" />
<path d="M811.5 742.5C807.778 741.902 804.111 740.902 800.5 739.5C794.975 738.071 789.975 735.571 785.5 732C802.31 723.505 819.643 716.172 837.5 710C867.73 710.946 897.063 716.613 925.5 727C908.227 736.136 890.56 744.47 872.5 752C866.167 752.667 859.833 752.667 853.5 752C839.357 749.366 825.357 746.2 811.5 742.5Z" fill="#f6f6f6" fill-rule="evenodd" opacity="1" stroke="none" />
<path d="M919.5 669.5C923.426 670.552 927.426 671.218 931.5 671.5C930.057 688.816 928.724 706.149 927.5 723.5C923.789 722.708 920.122 721.708 916.5 720.5C916.167 719 915.833 717.5 915.5 716C917.563 700.56 918.896 685.06 919.5 669.5Z" fill="#efefef" fill-rule="evenodd" opacity="1" stroke="none" />
<path d="M855.5 659.5C856.765 660.514 857.431 662.014 857.5 664C856.342 678.497 855.342 692.997 854.5 707.5C850.846 707.058 847.179 706.724 843.5 706.5C844.001 693.491 844.667 680.491 845.5 667.5C846.473 665.052 846.806 662.385 846.5 659.5C849.5 659.5 852.5 659.5 855.5 659.5Z" fill="#f0f0f0" fill-rule="evenodd" opacity="1" stroke="none" />
<path d="M860.5 660.5C879.699 661.755 898.699 664.422 917.5 668.5C915.638 685.479 913.972 702.479 912.5 719.5C894.448 714.403 876.114 710.737 857.5 708.5C858.389 692.493 859.389 676.493 860.5 660.5Z" fill="#f5f6f6" fill-rule="evenodd" opacity="1" stroke="none" />
<path d="M855.5 659.5C852.5 659.5 849.5 659.5 846.5 659.5C846.806 662.385 846.473 665.052 845.5 667.5C845.5 664.5 845.5 661.5 845.5 658.5C849.042 658.187 852.375 658.521 855.5 659.5Z" fill="#626162" fill-rule="evenodd" opacity="1" stroke="none" />
<path d="M846.5 617.5C874.63 616.877 902.297 620.043 929.5 627C930.667 628.167 931.833 629.333 933 630.5C935.269 627.946 937.602 627.946 940 630.5C940.7 642.237 940.033 653.904 938 665.5C936.136 668.207 933.636 669.041 930.5 668C931.227 666.601 931.727 665.101 932 663.5C932.952 654.51 933.285 645.51 933 636.5C930.628 646.502 929.128 656.669 928.5 667C914.764 665.455 901.098 663.121 887.5 660C872.415 658.659 857.415 656.992 842.5 655C842 654.5 841.5 654 841 653.5C840.019 641.954 841.019 630.621 844 619.5C844.995 618.934 845.828 618.267 846.5 617.5Z" fill="#f5f5f5" fill-rule="evenodd" opacity="1" stroke="none" />
<path d="M872.5 772.5C873.832 782.812 874.499 793.478 874.5 804.5C874.333 815.167 874.167 825.833 874 836.5C870.817 838.523 867.317 839.023 863.5 838C862.944 837.617 862.611 837.117 862.5 836.5C862.5 815.5 862.5 794.5 862.5 773.5C866.042 773.813 869.375 773.479 872.5 772.5Z" fill="#f4f4f4" fill-rule="evenodd" opacity="1" stroke="none" />
<path d="M843.5 770.5C847.119 771.244 850.785 771.577 854.5 771.5C854.666 780.506 854.5 789.506 854 798.5C850.595 801.077 847.262 801.077 844 798.5C843.5 789.173 843.334 779.839 843.5 770.5Z" fill="#f1f1f1" fill-rule="evenodd" opacity="1" stroke="none" />
<path d="M872.5 772.5C869.375 773.479 866.042 773.813 862.5 773.5C862.5 794.5 862.5 815.5 862.5 836.5C861.503 815.34 861.169 794.007 861.5 772.5C865.167 772.5 868.833 772.5 872.5 772.5Z" fill="#717172" fill-rule="evenodd" opacity="1" stroke="none" />
</g>

</svg>