<?xml version="1.0" encoding="UTF-8"?>
<svg xmlns="http://www.w3.org/2000/svg" version="1.1" viewBox="1014.15 601.23 235.85 240.44" width="235.85" height="240.44" style="overflow:visible;" xml:space="preserve">
<g>
<path d="M1140.5 810.5C1137.98 810.44 1135.65 811.106 1133.5 812.5C1127.53 811.419 1121.53 811.252 1115.5 812C1113.97 813.648 1113.3 815.648 1113.5 818C1113.97 820.857 1114.13 823.691 1114 826.5C1112.42 827.861 1110.58 828.528 1108.5 828.5C1108.5 829.833 1108.5 831.167 1108.5 832.5C1105.09 833.215 1101.76 833.215 1098.5 832.5C1102.21 830.974 1105.71 828.974 1109 826.5C1109.67 820.5 1109.67 814.5 1109 808.5C1107.79 806.951 1106.29 805.785 1104.5 805C1099.44 804.046 1094.44 802.88 1089.5 801.5C1087.66 795.221 1088.83 789.554 1093 784.5C1093.21 781.144 1093.21 777.811 1093 774.5C1102.01 748.631 1111.51 722.964 1121.5 697.5C1122.75 696.96 1123.91 696.293 1125 695.5C1130.08 684.592 1133.75 673.258 1136 661.5C1140.18 650.99 1146.34 641.823 1154.5 634C1162.23 628.654 1169.06 629.487 1175 636.5C1177.34 640.687 1178.51 645.187 1178.5 650C1176.69 668.761 1170.52 685.927 1160 701.5C1150.08 713.581 1141.58 726.581 1134.5 740.5C1115.91 754.671 1108.08 773.337 1111 796.5C1114.58 802.89 1120.08 806.723 1127.5 808C1131.99 808.76 1136.32 809.594 1140.5 810.5Z" fill="#f5f5f5" fill-rule="evenodd" opacity="1" stroke="none" />
<path d="M1140.5 810.5C1136.32 809.594 1131.99 808.76 1127.5 808C1120.08 806.723 1114.58 802.89 1111 796.5C1108.08 773.337 1115.91 754.671 1134.5 740.5C1141.58 726.581 1150.08 713.581 1160 701.5C1170.52 685.927 1176.69 668.761 1178.5 650C1178.51 645.187 1177.34 640.687 1175 636.5C1169.06 629.487 1162.23 628.654 1154.5 634C1146.34 641.823 1140.18 650.99 1136 661.5C1133.75 673.258 1130.08 684.592 1125 695.5C1123.91 696.293 1122.75 696.96 1121.5 697.5C1111.51 722.964 1102.01 748.631 1093 774.5C1093.21 777.811 1093.21 781.144 1093 784.5C1088.83 789.554 1087.66 795.221 1089.5 801.5C1094.44 802.88 1099.44 804.046 1104.5 805C1106.29 805.785 1107.79 806.951 1109 808.5C1109.67 814.5 1109.67 820.5 1109 826.5C1105.71 828.974 1102.21 830.974 1098.5 832.5C1093.2 833.509 1087.87 833.676 1082.5 833C1064.14 829.826 1045.8 826.493 1027.5 823C1026.07 822.535 1024.9 821.701 1024 820.5C1022.48 816.625 1022.15 812.625 1023 808.5C1025.75 803.748 1029.25 799.581 1033.5 796C1036.43 793.746 1039.76 792.579 1043.5 792.5C1048.79 793.728 1054.13 794.228 1059.5 794C1061.17 791.667 1062.83 789.333 1064.5 787C1066.35 785.872 1068.35 785.372 1070.5 785.5C1070.76 781.56 1071.92 777.893 1074 774.5C1075.11 772.963 1076.61 772.297 1078.5 772.5C1087.23 745.643 1096.56 718.976 1106.5 692.5C1105.46 690.232 1105.29 687.899 1106 685.5C1108.94 676.677 1112.27 668.01 1116 659.5C1117.8 658.687 1119.3 657.52 1120.5 656C1124.63 641.398 1132.3 629.064 1143.5 619C1155.53 610.233 1168.2 609.233 1181.5 616C1192.53 626.077 1197.03 638.577 1195 653.5C1191.59 677.98 1182.42 699.98 1167.5 719.5C1167.83 719.833 1168.17 720.167 1168.5 720.5C1186.17 713.727 1202.83 715.56 1218.5 726C1228.39 734.956 1233.56 746.123 1234 759.5C1236.19 762.554 1237.86 765.888 1239 769.5C1242 784.504 1238.16 797.337 1227.5 808C1215.61 813.784 1204.78 812.284 1195 803.5C1177.29 809.057 1159.12 811.39 1140.5 810.5Z" fill="#171717" fill-rule="evenodd" opacity="1" stroke="none" />
<path d="M1149.5 720.5C1154.04 720.441 1157.38 722.441 1159.5 726.5C1158.32 729.098 1156.32 730.764 1153.5 731.5C1154.17 732.5 1154.83 733.5 1155.5 734.5C1153.44 738.128 1151.77 741.961 1150.5 746C1153.72 754.9 1151.06 761.567 1142.5 766C1135.58 767.745 1132.25 765.078 1132.5 758C1132.63 753.305 1133.63 748.805 1135.5 744.5C1136.73 743.719 1138.06 743.219 1139.5 743C1138.66 738.003 1139.99 733.503 1143.5 729.5C1145.5 729.167 1147.5 728.833 1149.5 728.5C1148.74 727.281 1147.74 726.281 1146.5 725.5C1147.76 723.971 1148.76 722.305 1149.5 720.5Z" fill="#f0f0f1" fill-rule="evenodd" opacity="1" stroke="none" />
<path d="M1179.5 719.5C1202.85 716.416 1219.35 725.416 1229 746.5C1230.5 749.465 1230.66 752.465 1229.5 755.5C1219.43 749.576 1209.93 750.243 1201 757.5C1190 770.507 1187.83 784.84 1194.5 800.5C1173.98 807.479 1152.98 809.313 1131.5 806C1124.56 804.783 1118.73 801.616 1114 796.5C1112.6 792.928 1112.26 789.261 1113 785.5C1119.33 790.279 1126.49 793.113 1134.5 794C1140.5 794.667 1146.5 794.667 1152.5 794C1156.77 793.825 1160.77 792.825 1164.5 791C1151.41 792.238 1138.41 791.572 1125.5 789C1121.47 787.568 1117.64 785.734 1114 783.5C1114.44 768.629 1120.27 756.295 1131.5 746.5C1131.83 746.667 1132.17 746.833 1132.5 747C1129.21 753.274 1128.71 759.774 1131 766.5C1145.21 771.459 1153.38 766.292 1155.5 751C1154.72 747.845 1154.56 744.678 1155 741.5C1157.15 736.711 1159.48 732.044 1162 727.5C1163.73 725.383 1165.9 723.883 1168.5 723C1172.33 721.966 1176 720.8 1179.5 719.5Z" fill="#f5f5f5" fill-rule="evenodd" opacity="1" stroke="none" />
<path d="M1214.5 731.5C1218.88 733.394 1221.72 736.727 1223 741.5C1223.67 743.5 1223.67 745.5 1223 747.5C1220.41 741.986 1217.58 736.653 1214.5 731.5Z" fill="#202021" fill-rule="evenodd" opacity="1" stroke="none" />
<path d="M1109.5 692.5C1111.53 692.338 1113.53 692.505 1115.5 693C1117.18 693.347 1118.18 694.347 1118.5 696C1108.85 722.611 1099.02 749.111 1089 775.5C1087.06 774.137 1084.89 773.303 1082.5 773C1081.98 772.439 1081.64 771.772 1081.5 771C1090.7 744.769 1100.03 718.602 1109.5 692.5Z" fill="#eeeeee" fill-rule="evenodd" opacity="1" stroke="none" />
<path d="M1156.5 710.5C1166.36 712.606 1167.7 716.939 1160.5 723.5C1157.83 721.165 1154.83 719.331 1151.5 718C1153.41 715.6 1155.08 713.1 1156.5 710.5Z" fill="#ebebea" fill-rule="evenodd" opacity="1" stroke="none" />
<path d="M1162.5 702.5C1171.9 704.436 1173.24 708.436 1166.5 714.5C1164.47 711.806 1162.14 709.473 1159.5 707.5C1160.76 705.971 1161.76 704.305 1162.5 702.5Z" fill="#e8e8e8" fill-rule="evenodd" opacity="1" stroke="none" />
<path d="M1167.5 694.5C1175.54 694.979 1177.54 698.479 1173.5 705C1172.83 705.667 1172.17 705.667 1171.5 705C1169.53 702.684 1167.2 700.851 1164.5 699.5C1165.76 697.971 1166.76 696.305 1167.5 694.5Z" fill="#eaeaea" fill-rule="evenodd" opacity="1" stroke="none" />
<path d="M1172.5 684.5C1181.66 685.443 1183.5 689.443 1178 696.5C1175.6 694.218 1172.77 692.884 1169.5 692.5C1169.94 689.62 1170.94 686.954 1172.5 684.5Z" fill="#e3e3e4" fill-rule="evenodd" opacity="1" stroke="none" />
<path d="M1175.5 676.5C1178.9 676.807 1182.07 677.807 1185 679.5C1185.33 682.18 1184.5 684.513 1182.5 686.5C1179.59 684.644 1176.59 682.977 1173.5 681.5C1174.46 679.925 1175.12 678.258 1175.5 676.5Z" fill="#e9e9e9" fill-rule="evenodd" opacity="1" stroke="none" />
<path d="M1178.5 668.5C1182.31 668.02 1185.64 669.02 1188.5 671.5C1187.85 673.115 1187.35 674.782 1187 676.5C1186.59 676.957 1186.09 677.291 1185.5 677.5C1182.7 675.785 1179.7 674.452 1176.5 673.5C1177.17 671.805 1177.84 670.138 1178.5 668.5Z" fill="#e5e5e5" fill-rule="evenodd" opacity="1" stroke="none" />
<path d="M1180.5 659.5C1183.88 659.46 1187.21 659.793 1190.5 660.5C1190.65 663.607 1190.15 666.607 1189 669.5C1186.36 666.971 1183.19 665.971 1179.5 666.5C1179.3 664.05 1179.63 661.717 1180.5 659.5Z" fill="#dfdfdf" fill-rule="evenodd" opacity="1" stroke="none" />
<path d="M1118.5 660.5C1123.68 659.703 1128.18 661.036 1132 664.5C1130.17 674.351 1127.01 683.851 1122.5 693C1120.37 692.602 1118.37 691.602 1116.5 690C1113.85 689.503 1111.19 689.336 1108.5 689.5C1111 679.512 1114.33 669.845 1118.5 660.5Z" fill="#efeff0" fill-rule="evenodd" opacity="1" stroke="none" />
<path d="M1190.5 650.5C1191.4 651.209 1191.74 652.209 1191.5 653.5C1191.5 655.167 1191.5 656.833 1191.5 658.5C1188.21 657.793 1184.88 657.46 1181.5 657.5C1181.11 651.169 1184.11 648.836 1190.5 650.5Z" fill="#eeeeee" fill-rule="evenodd" opacity="1" stroke="none" />
<path d="M1191.5 640.5C1192.83 644.833 1192.83 649.167 1191.5 653.5C1191.74 652.209 1191.4 651.209 1190.5 650.5C1190.5 649.833 1190.5 649.167 1190.5 648.5C1191.47 646.052 1191.81 643.385 1191.5 640.5Z" fill="#707470" fill-rule="evenodd" opacity="1" stroke="none" />
<path d="M1181.5 643.5C1181.5 645.167 1181.5 646.833 1181.5 648.5C1182.5 648.5 1183.5 648.5 1184.5 648.5C1183.43 649.434 1182.1 649.768 1180.5 649.5C1180.21 647.265 1180.54 645.265 1181.5 643.5Z" fill="#666667" fill-rule="evenodd" opacity="1" stroke="none" />
<path d="M1191.5 640.5C1191.81 643.385 1191.47 646.052 1190.5 648.5C1188.5 648.5 1186.5 648.5 1184.5 648.5C1183.5 648.5 1182.5 648.5 1181.5 648.5C1181.5 646.833 1181.5 645.167 1181.5 643.5C1184.83 642.5 1188.17 641.5 1191.5 640.5Z" fill="#ebecec" fill-rule="evenodd" opacity="1" stroke="none" />
<path d="M1186.5 631.5C1190.31 632.454 1191.31 634.787 1189.5 638.5C1187.12 639.794 1184.62 640.794 1182 641.5C1179.95 640.362 1179.29 638.695 1180 636.5C1182.69 635.418 1184.85 633.751 1186.5 631.5Z" fill="#eaeaeb" fill-rule="evenodd" opacity="1" stroke="none" />
<path d="M1157.5 614.5C1160.83 614.5 1164.17 614.5 1167.5 614.5C1168.41 619.74 1169.41 619.74 1170.5 614.5C1172.89 615.18 1175.22 616.014 1177.5 617C1178.26 619.069 1178.76 621.236 1179 623.5C1180.04 622.377 1180.71 621.044 1181 619.5C1183.95 621.775 1186.11 624.609 1187.5 628C1185.14 631.357 1181.98 633.524 1178 634.5C1174.96 632.502 1174.79 630.169 1177.5 627.5C1177.17 627.167 1176.83 626.833 1176.5 626.5C1175.33 627.491 1174.17 628.491 1173 629.5C1171.37 629.122 1169.87 628.456 1168.5 627.5C1169.64 626.109 1169.64 624.776 1168.5 623.5C1167.49 626.337 1165.49 627.67 1162.5 627.5C1161.97 622.203 1161.13 622.203 1160 627.5C1159.44 628.022 1158.77 628.355 1158 628.5C1156.83 627.491 1155.67 626.491 1154.5 625.5C1153.36 626.776 1153.36 628.109 1154.5 629.5C1152.88 633.504 1150.54 634.171 1147.5 631.5C1146.95 633.413 1146.78 635.413 1147 637.5C1145.31 639.017 1143.81 640.684 1142.5 642.5C1139.34 641.347 1138.67 642.347 1140.5 645.5C1139.47 647.382 1138.64 649.382 1138 651.5C1136.37 650.903 1134.54 650.903 1132.5 651.5C1136.23 654.56 1136.39 657.893 1133 661.5C1129.65 659.843 1126.49 658.01 1123.5 656C1124.43 651.832 1127.1 649.665 1131.5 649.5C1130.31 648.571 1128.98 648.238 1127.5 648.5C1127.73 643.182 1130.39 640.016 1135.5 639C1134.33 638.581 1133.33 637.915 1132.5 637C1134.31 633.198 1136.81 630.031 1140 627.5C1141.29 627.95 1142.45 628.617 1143.5 629.5C1143.83 629.167 1144.17 628.833 1144.5 628.5C1142.99 627.409 1142.15 626.076 1142 624.5C1144.91 620.263 1148.41 619.263 1152.5 621.5C1153.59 620.132 1153.26 618.965 1151.5 618C1153.43 616.541 1155.43 615.375 1157.5 614.5Z" fill="#ededed" fill-rule="evenodd" opacity="1" stroke="none" />
<path d="M1209.5 754.5C1215.68 754.333 1215.68 755.5 1209.5 758C1198.24 770.009 1195.41 783.842 1201 799.5C1202.47 802.266 1204.3 804.766 1206.5 807C1202.27 806.126 1199.1 803.626 1197 799.5C1190.15 781.246 1194.31 766.246 1209.5 754.5Z" fill="#e2e2e2" fill-rule="evenodd" opacity="1" stroke="none" />
<path d="M1076.5 775.5C1090.08 774.554 1093.58 779.887 1087 791.5C1083.01 788.556 1078.51 786.89 1073.5 786.5C1073.63 782.583 1074.63 778.917 1076.5 775.5Z" fill="#eaeaea" fill-rule="evenodd" opacity="1" stroke="none" />
<path d="M1218.5 755.5C1227.69 755.847 1233.52 760.514 1236 769.5C1237.57 779.615 1236.24 789.282 1232 798.5C1226.91 806.799 1219.75 809.632 1210.5 807C1203.62 800.894 1200.62 793.227 1201.5 784C1201.44 770.945 1207.1 761.445 1218.5 755.5Z" fill="#eff0f0" fill-rule="evenodd" opacity="1" stroke="none" />
<path d="M1218.5 767.5C1227.33 767.468 1230.66 771.802 1228.5 780.5C1228.45 775.052 1225.95 771.385 1221 769.5C1215.93 772.301 1213.43 776.634 1213.5 782.5C1213.03 788.471 1215.36 792.804 1220.5 795.5C1217.43 797.052 1214.93 796.385 1213 793.5C1208.26 783.265 1210.1 774.599 1218.5 767.5Z" fill="#161616" fill-rule="evenodd" opacity="1" stroke="none" />
<path d="M1067.5 788.5C1072.84 788.251 1077.84 789.418 1082.5 792C1079.91 794.766 1077.91 797.933 1076.5 801.5C1085.12 803.772 1093.79 805.939 1102.5 808C1098.13 812.033 1094.13 816.366 1090.5 821C1069.23 818.007 1048.06 814.174 1027 809.5C1033.72 794.71 1044.39 791.377 1059 799.5C1061.81 795.898 1064.65 792.232 1067.5 788.5Z" fill="#f2f2f2" fill-rule="evenodd" opacity="1" stroke="none" />
<path d="M1084.5 793.5C1085.12 793.611 1085.62 793.944 1086 794.5C1086.5 796.473 1086.66 798.473 1086.5 800.5C1084.4 800.799 1082.4 800.466 1080.5 799.5C1081.47 797.21 1082.8 795.21 1084.5 793.5Z" fill="#dfdfe0" fill-rule="evenodd" opacity="1" stroke="none" />
<path d="M1104.5 809.5C1105.81 811.743 1106.48 814.41 1106.5 817.5C1106.33 820.167 1106.17 822.833 1106 825.5C1101.83 828.057 1097.33 829.724 1092.5 830.5C1092.18 827.022 1092.68 823.688 1094 820.5C1097.7 816.964 1101.2 813.298 1104.5 809.5Z" fill="#efeff0" fill-rule="evenodd" opacity="1" stroke="none" />
<path d="M1087.5 823.5C1088.53 824.552 1089.2 825.886 1089.5 827.5C1089.36 829.03 1088.69 830.03 1087.5 830.5C1066.71 827.747 1046.21 823.747 1026 818.5C1025.5 816.527 1025.34 814.527 1025.5 812.5C1046.09 816.598 1066.75 820.264 1087.5 823.5Z" fill="#ebebeb" fill-rule="evenodd" opacity="1" stroke="none" />
<path d="M1087.5 823.5C1088.5 823.5 1089.5 823.5 1090.5 823.5C1090.5 826.167 1090.5 828.833 1090.5 831.5C1089.21 831.737 1088.21 831.404 1087.5 830.5C1088.69 830.03 1089.36 829.03 1089.5 827.5C1089.2 825.886 1088.53 824.552 1087.5 823.5Z" fill="#868985" fill-rule="evenodd" opacity="1" stroke="none" />
</g>

</svg>