<?xml version="1.0" encoding="UTF-8"?>
<svg xmlns="http://www.w3.org/2000/svg" version="1.1" viewBox="49.32 890.47 109.64 104.42" width="109.64" height="104.42" style="fill-rule:nonzero;clip-rule:evenodd;stroke-linecap:round;stroke-linejoin:round;" xml:space="preserve">
<g opacity="1">
<path d="M102.5 896.5C104.582 896.472 106.416 897.139 108 898.5C112.584 907.167 116.751 916.001 120.5 925C129.48 926.188 138.48 927.188 147.5 928C151.457 929.086 152.957 931.586 152 935.5C145.018 942.702 137.851 949.535 130.5 956C133.821 965.931 135.321 976.098 135 986.5C133.192 988.396 131.025 988.896 128.5 988C120.237 983.62 112.07 979.12 104 974.5C95.9296 979.12 87.7629 983.62 79.5 988C76.975 988.896 74.8083 988.396 73 986.5C73.1368 976.175 74.6368 966.008 77.5 956C70.7011 948.87 63.5344 942.036 56 935.5C55.3184 931.82 56.8184 929.32 60.5 928C69.5071 927.055 78.5071 926.055 87.5 925C90.8543 917.123 94.3543 909.29 98 901.5C99.0591 899.341 100.559 897.674 102.5 896.5Z" fill="#191919" fill-rule="evenodd" opacity="1" stroke="none" />
<path d="M102.5 899.5C104.39 899.297 105.89 899.963 107 901.5C110.93 909.791 114.763 918.124 118.5 926.5C128.782 927.685 138.949 929.352 149 931.5C149.667 932.833 149.667 934.167 149 935.5C142.333 941.5 135.667 947.5 129 953.5C130.17 964.189 131.67 974.856 133.5 985.5C131.473 985.662 129.473 985.495 127.5 985C119.732 980.367 111.899 975.867 104 971.5C95.1015 976.366 86.2682 981.366 77.5 986.5C76.5224 986.023 75.6891 985.357 75 984.5C76.4434 974.175 77.7767 963.841 79 953.5C71.4334 947.267 64.6001 940.433 58.5 933C58.8198 931.347 59.8198 930.347 61.5 930C70.4796 928.812 79.4796 927.812 88.5 927C93.0732 917.777 97.7398 908.61 102.5 899.5Z" fill="#f5f5f5" fill-rule="evenodd" opacity="1" stroke="none" />
</g>

</svg>