<?xml version="1.0" encoding="UTF-8"?>
<svg xmlns="http://www.w3.org/2000/svg" version="1.1" viewBox="144 23 193 244" width="193" height="244" style="fill-rule:nonzero;clip-rule:evenodd;stroke-linecap:round;stroke-linejoin:round;" xml:space="preserve">
<g transform="translate(128,7)"><ns0:path xmlns:ns0="http://www.w3.org/2000/svg" d="M0 0 C7.7 4.913 14.065 11.194 17 20 C17.336 22.613 17.336 22.613 17.375 25.312 C17.403 26.196 17.432 27.079 17.461 27.988 C16.392 34.972 12.066 40.62 7.875 46.125 C6.89 47.443 5.905 48.762 4.922 50.082 C4.43 50.739 3.938 51.396 3.432 52.073 C1.289 54.957 -0.795 57.882 -2.875 60.812 C-6.682 66.165 -10.522 71.493 -14.375 76.812 C-19.127 83.378 -23.823 89.981 -28.484 96.611 C-32.074 101.709 -35.714 106.767 -39.375 111.812 C-43.981 118.164 -48.513 124.563 -53 131 C-59.032 139.651 -65.173 148.217 -71.369 156.751 C-73.627 159.864 -75.877 162.982 -78.125 166.103 C-79.243 167.649 -80.367 169.192 -81.497 170.729 C-83.759 173.817 -85.904 176.834 -87.82 180.152 C-93.465 189.656 -103.141 193.561 -112.695 198.341 C-116.911 200.457 -121.094 202.632 -125.278 204.81 C-128.324 206.395 -131.372 207.977 -134.427 209.544 C-135.53 210.111 -136.633 210.678 -137.77 211.262 C-138.262 211.514 -138.262 211.514 -140.757 212.792 C-143 214 -143 214 -144 215 C-146 215.041 -148 215.043 -150 215 C-151.127 211.592 -150.867 209.16 -150.187 205.659 C-149.982 204.59 -149.777 203.521 -149.566 202.419 C-149.449 201.842 -149.449 201.842 -148.859 198.922 C-148.618 197.723 -148.376 196.523 -148.127 195.287 C-147.608 192.741 -147.083 190.196 -146.553 187.651 C-146.023 185.075 -145.509 182.496 -145.012 179.913 C-142.12 164.888 -139.225 152.319 -129.222 140.463 C-127.603 138.524 -126.181 136.472 -124.758 134.387 C-123.881 133.153 -123.003 131.92 -122.125 130.688 C-117.825 124.63 -113.612 118.519 -109.438 112.375 C-105.089 105.981 -100.627 99.695 -96.019 93.485 C-92.308 88.467 -88.773 83.342 -85.261 78.184 C-81.801 73.121 -78.234 68.145 -74.625 63.188 C-70.143 57.028 -65.778 50.803 -61.5 44.5 C-55.68 35.933 -49.674 27.516 -43.565 19.153 C-42.003 17.004 -40.457 14.843 -38.914 12.68 C-37.943 11.328 -36.971 9.976 -36 8.625 C-35.567 8.012 -35.135 7.4 -34.689 6.769 C-25.781 -5.542 -12.982 -7.019 0 0 Z M-28.773 8.355 C-29.654 9.624 -30.521 10.901 -31.375 12.188 C-31.825 12.842 -32.275 13.496 -32.738 14.17 C-33.837 15.772 -34.92 17.385 -36 19 C-33.538 21.835 -30.958 23.083 -27.562 24.625 C-17.654 29.478 -9.473 35.771 -2.523 44.348 C-2.021 44.893 -1.518 45.438 -1 46 C-0.34 46 0.32 46 1 46 C2.609 43.905 4.098 41.818 5.562 39.625 C5.974 39.022 6.386 38.418 6.811 37.797 C11.001 31.624 12.001 27.479 11 20 C7.601 11.469 -0.008 6.343 -8.062 2.562 C-16.245 0.996 -23.363 1.2 -28.773 8.355 Z M-40 25 C-40.66 26.32 -41.32 27.64 -42 29 C-40.996 29.461 -39.992 29.923 -38.957 30.398 C-26.412 36.32 -15.784 43.079 -7 54 C-6.34 54 -5.68 54 -5 54 C-4.254 52.305 -4.254 52.305 -4 50 C-8.356 43.514 -14.499 38.257 -21 34 C-21.397 33.738 -21.397 33.738 -23.406 32.41 C-28.739 29.044 -33.92 26.674 -40 25 Z M-46 33 C-46.66 34.32 -47.32 35.64 -48 37 C-47.117 37.412 -46.234 37.825 -45.324 38.25 C-33.828 43.734 -24.312 50.453 -15.094 59.312 C-13 61 -13 61 -10 61 C-10 57 -10 57 -11.914 54.52 C-21.823 44.625 -32.366 36.979 -46 33 Z M-53 42 C-54.828 44.218 -56.339 46.339 -57.875 48.75 C-58.852 50.226 -59.829 51.701 -60.809 53.176 C-61.325 53.962 -61.842 54.747 -62.375 55.557 C-65.155 59.736 -68.049 63.833 -70.938 67.938 C-72.132 69.641 -73.326 71.344 -74.52 73.047 C-79.178 79.681 -83.853 86.304 -88.532 92.923 C-91.023 96.448 -93.511 99.974 -96 103.5 C-97 104.917 -98 106.333 -99 107.75 C-99.248 108.101 -99.248 108.101 -100.5 109.875 C-102 112 -103.5 114.125 -105 116.25 C-105.248 116.601 -105.248 116.601 -106.502 118.377 C-107.496 119.786 -108.49 121.195 -109.485 122.603 C-112.072 126.269 -114.66 129.935 -117.246 133.602 C-117.78 134.359 -118.315 135.116 -118.865 135.896 C-119.878 137.333 -120.891 138.769 -121.904 140.205 C-122.368 140.862 -122.831 141.519 -123.309 142.195 C-123.753 142.827 -124.198 143.459 -124.656 144.11 C-125.578 145.407 -126.513 146.695 -127.458 147.976 C-131 152.796 -131 152.796 -131 155 C-128.158 156.421 -126.145 156.324 -123 156 C-121.016 154.305 -121.016 154.305 -119.25 151.875 C-118.569 150.956 -117.889 150.037 -117.188 149.09 C-116.466 148.07 -115.744 147.051 -115 146 C-114.237 144.949 -113.474 143.899 -112.688 142.816 C-110.094 139.233 -107.547 135.617 -105 132 C-104.039 130.64 -103.078 129.281 -102.117 127.922 C-99.074 123.617 -96.037 119.309 -93 115 C-86.951 106.417 -80.895 97.84 -74.784 89.301 C-68.93 81.115 -63.142 72.88 -57.346 64.652 C-56.242 63.085 -55.137 61.518 -54.033 59.95 C-52.995 58.478 -51.957 57.005 -50.92 55.532 C-50.45 54.865 -49.98 54.199 -49.496 53.512 C-49.062 52.895 -48.627 52.278 -48.179 51.642 C-47.205 50.286 -46.188 48.96 -45.16 47.645 C-44 46 -44 46 -44 44 C-47.371 42.502 -49.204 42 -53 42 Z M-39 48 C-45.182 54.312 -49.932 62.193 -54.866 69.479 C-58.675 75.096 -62.572 80.636 -66.562 86.125 C-70.768 91.911 -74.943 97.715 -79.062 103.562 C-79.554 104.261 -80.046 104.959 -80.553 105.678 C-82.036 107.785 -83.518 109.892 -85 112 C-90.666 120.059 -96.339 128.11 -102.115 136.091 C-103.234 137.638 -104.351 139.188 -105.465 140.74 C-107.733 143.895 -110.012 147.015 -112.41 150.074 C-117.507 156.69 -117.507 156.69 -117.25 161.438 C-116 165 -116 165 -113.875 167 C-110.188 168.282 -107.892 168.558 -104 168 C-101.588 165.868 -100.014 163.275 -98.312 160.562 C-97.266 158.989 -96.219 157.416 -95.172 155.844 C-94.645 155.036 -94.119 154.227 -93.576 153.395 C-91.159 149.722 -88.612 146.145 -86.062 142.562 C-85.066 141.151 -84.07 139.74 -83.074 138.328 C-78.791 132.283 -74.442 126.286 -70.098 120.285 C-66.104 114.766 -62.147 109.221 -58.193 103.672 C-56.991 101.987 -55.787 100.304 -54.582 98.621 C-44.945 85.157 -35.391 71.636 -26 58 C-27.452 54.371 -29.24 52.846 -32.5 50.75 C-33.294 50.229 -34.088 49.708 -34.906 49.172 C-37 48 -37 48 -39 48 Z M-22 61 C-23.246 62.398 -23.246 62.398 -24.652 64.375 C-25.176 65.105 -25.699 65.834 -26.238 66.586 C-26.799 67.383 -27.36 68.179 -27.938 69 C-28.229 69.409 -28.229 69.409 -29.703 71.477 C-33.813 77.261 -37.839 83.1 -41.838 88.961 C-47.398 97.089 -53.21 105.035 -59 113 C-66.34 123.103 -73.599 133.253 -80.741 143.497 C-84.883 149.429 -89.077 155.322 -93.312 161.188 C-93.591 161.574 -93.591 161.574 -95.002 163.529 C-98.869 168.869 -98.869 168.869 -100 170 C-99.721 175.864 -99.721 175.864 -99 178 C-96.96 179.119 -96.96 179.119 -95 180 C-94.642 179.491 -94.642 179.491 -92.832 176.914 C-86.849 168.411 -80.816 159.948 -74.72 151.526 C-67.75 141.895 -60.851 132.216 -54 122.5 C-46.021 111.184 -37.959 99.931 -29.845 88.712 C-24.869 81.827 -19.928 74.919 -15 68 C-16.362 65.158 -17.552 63.04 -20 61 C-20.66 61 -21.32 61 -22 61 Z M-134 160 C-135.011 164.206 -136.007 168.415 -137 172.625 C-137.286 173.815 -137.572 175.005 -137.867 176.23 C-138.138 177.384 -138.409 178.538 -138.688 179.727 C-138.939 180.784 -139.19 181.842 -139.449 182.932 C-140.009 186.051 -140.213 188.839 -140 192 C-138.391 193.574 -138.391 193.574 -136.25 194.688 C-133.21 196.326 -130.826 197.881 -128 200 C-118.76 195.05 -109.52 190.1 -100 185 C-101.32 183.02 -102.64 181.04 -104 179 C-104.75 176.125 -104.75 176.125 -105 174 C-105.332 173.957 -105.332 173.957 -107.012 173.738 C-112.816 172.815 -116.379 171.978 -120 167 C-121.312 163.688 -121.312 163.688 -122 161 C-123.953 161.033 -125.906 161.065 -127.859 161.098 C-130.036 160.998 -131.9 160.556 -134 160 Z " fill="#000000" transform="translate(180,33)" />
  </g>
</svg>
