<?xml version="1.0" encoding="UTF-8" standalone="no"?>
<svg xmlns="http://www.w3.org/2000/svg" fill-rule="nonzero" clip-rule="evenodd" stroke-miterlimit="10" style="fill-rule:nonzero;clip-rule:evenodd;stroke-linecap:round;stroke-linejoin:round;"
     viewBox="273.0 680.5 206.5 144.8" xml:space="preserve">
<g opacity="1">
<path d="M334.5 693.5C359.996 692.462 385.329 693.962 410.5 698C416.637 699.601 422.637 701.601 428.5 704C429.333 704.833 430.167 705.667 431 706.5C431.179 709.553 431.679 712.553 432.5 715.5C443.156 710.552 452.656 712.218 461 720.5C467.463 733.287 466.463 745.62 458 757.5C445.741 770.712 430.575 778.212 412.5 780C407.541 785.965 401.708 790.798 395 794.5C397.026 800.192 395.192 804.025 389.5 806C369.608 812.908 349.608 813.242 329.5 807C322.758 805.651 320.758 801.818 323.5 795.5C305.675 784.156 294.175 768.156 289 747.5C285.975 733.985 284.975 720.318 286 706.5C291.764 702.129 298.264 699.295 305.5 698C315.303 696.454 324.97 694.954 334.5 693.5Z" fill="#171718" fill-rule="evenodd" opacity="1" stroke="none"/>
<path d="M331.5 696.5C358.002 695.389 384.335 696.889 410.5 701C416.95 702.369 422.95 704.702 428.5 708C424.777 710.243 420.777 711.91 416.5 713C386.464 719.506 356.131 721.173 325.5 718C312.468 716.993 300.135 713.66 288.5 708C292.352 705.045 296.685 703.045 301.5 702C311.552 699.668 321.552 697.835 331.5 696.5Z" fill="#f4f4f4" fill-rule="evenodd" opacity="1" stroke="none"/>
<path d="M427.5 712.5C428.479 715.625 428.813 718.958 428.5 722.5C425.985 779.194 396.652 804.36 340.5 798C319.11 792.725 304.277 779.892 296 759.5C290.018 744.038 287.685 728.038 289 711.5C296.393 715.308 304.226 717.808 312.5 719C346.278 723.996 379.944 723.33 413.5 717C418.143 715.397 422.809 713.897 427.5 712.5Z" fill="#f8f8f8" fill-rule="evenodd" opacity="1" stroke="none"/>
<path d="M427.5 712.5C427.56 711.957 427.893 711.624 428.5 711.5C429.808 715.315 429.808 718.981 428.5 722.5C428.813 718.958 428.479 715.625 427.5 712.5Z" fill="#7c7c7b" fill-rule="evenodd" opacity="1" stroke="none"/>
<path d="M439.5 727.5C446.347 726.678 450.347 729.678 451.5 736.5C447.854 750.312 439.02 758.979 425 762.5C424.5 762.167 424 761.833 423.5 761.5C427.401 752.898 429.901 743.898 431 734.5C433.628 731.79 436.461 729.456 439.5 727.5Z" fill="#f1f1f1" fill-rule="evenodd" opacity="1" stroke="none"/>
<path d="M436.5 716.5C458.136 714.642 466.302 724.309 461 745.5C455.398 758.432 445.898 767.265 432.5 772C427.797 773.936 422.964 775.436 418 776.5C417.167 776.167 416.333 775.833 415.5 775.5C417.5 772.5 419.5 769.5 421.5 766.5C429.933 764.616 437.6 761.116 444.5 756C451.12 749.931 454.286 742.431 454 733.5C448.53 723.24 441.363 721.906 432.5 729.5C431.343 726.216 431.176 722.882 432 719.5C433.652 718.601 435.152 717.601 436.5 716.5Z" fill="#efefef" fill-rule="evenodd" opacity="1" stroke="none"/>
<path d="M325.5 796.5C343.138 802.929 361.138 804.095 379.5 800C383.716 798.316 388.049 797.149 392.5 796.5C393.437 800.73 391.771 803.23 387.5 804C368.173 809.972 348.839 809.972 329.5 804C324.841 803.13 323.507 800.63 325.5 796.5Z" fill="#ebecec" fill-rule="evenodd" opacity="1" stroke="none"/>
</g>
</svg>