<?xml version="1.0" encoding="UTF-8"?>
<svg xmlns="http://www.w3.org/2000/svg" version="1.1" viewBox="803 276 221 226" width="221" height="226" style="fill-rule:nonzero;clip-rule:evenodd;stroke-linecap:round;stroke-linejoin:round;" xml:space="preserve">
<g transform="translate(786,259)"><ns0:path xmlns:ns0="http://www.w3.org/2000/svg" d="M0 0 C12.995 10.117 22.336 24 25.531 40.293 C28.491 64.9 22.253 88.281 6.965 107.898 C-5.027 122.56 -20.721 135.771 -40.035 138.898 C-43.665 139.164 -47.271 139.178 -50.91 139.148 C-51.84 139.156 -52.769 139.164 -53.727 139.172 C-59.287 139.156 -64.416 138.607 -69.836 137.358 C-76.246 136.019 -82.291 136.699 -88.035 139.898 C-93.356 143.779 -96.861 148.373 -100.66 153.711 C-101.893 155.412 -103.126 157.112 -104.359 158.812 C-104.973 159.664 -105.588 160.515 -106.22 161.392 C-110.735 167.628 -115.351 173.788 -120.035 179.898 C-120.374 180.344 -120.374 180.344 -122.09 182.598 C-124.725 185.86 -126.618 187.69 -130.41 189.586 C-137.538 190.2 -143.483 187.243 -149.035 182.898 C-153.816 178.868 -158.422 174.424 -159.035 167.898 C-158.038 161.285 -155.901 157.867 -151.223 153.211 C-150.962 152.94 -150.962 152.94 -149.643 151.568 C-148.123 149.995 -146.582 148.445 -145.035 146.898 C-144.133 145.982 -143.23 145.065 -142.301 144.121 C-140.035 141.898 -140.035 141.898 -137.598 140.023 C-134.783 137.69 -132.637 135.14 -130.367 132.289 C-129.928 131.83 -129.488 131.371 -129.035 130.898 C-128.375 130.898 -127.715 130.898 -127.035 130.898 C-126.906 130.609 -126.906 130.609 -126.254 129.145 C-124.534 125.974 -122.147 123.613 -119.691 120.996 C-115.372 115.526 -115.317 109.582 -116.035 102.898 C-117.092 98.993 -118.559 95.287 -120.035 91.523 C-125.467 76.515 -126.529 61.133 -121.035 45.898 C-120.706 44.943 -120.378 43.988 -120.039 43.004 C-111.584 20.68 -94.222 2.524 -72.715 -7.594 C-48.442 -17.54 -21.66 -14.997 0 0 Z M-100.035 19.898 C-111.752 34.228 -120.113 53.131 -119.035 71.898 C-117.239 75.822 -114.756 78.325 -111.535 81.148 C-110.644 81.931 -109.754 82.713 -108.836 83.52 C-106.162 85.791 -103.453 88.008 -100.723 90.211 C-95.91 94.1 -91.389 98.226 -86.876 102.452 C-82.642 106.395 -78.232 110.061 -73.719 113.684 C-70.883 116.024 -68.177 118.469 -65.473 120.961 C-65.018 121.372 -65.018 121.372 -62.719 123.453 C-60.958 125.058 -59.22 126.687 -57.508 128.344 C-51.699 133.611 -51.699 133.611 -47.457 134.344 C-29.115 133.432 -13.083 121.924 -1.035 108.898 C15.428 89.569 21.712 68.019 19.965 42.898 C18.292 28.81 10.424 16.251 -0.035 6.898 C-32.666 -16.914 -73.661 -9.848 -100.035 19.898 Z M-116.035 83.898 C-115.358 88.046 -114.007 91.682 -112.473 95.586 C-109.505 103.826 -108.529 111.204 -111.808 119.516 C-117.54 130.646 -130.139 140.053 -138.989 148.756 C-140.934 150.671 -142.874 152.593 -144.812 154.516 C-145.408 155.098 -146.004 155.68 -146.618 156.28 C-152.983 162.606 -152.983 162.606 -153.098 167.648 C-150.913 174.33 -145.223 179.741 -139.035 182.898 C-136.081 183.844 -134.258 183.95 -131.035 183.898 C-126.307 179.956 -122.93 174.864 -119.348 169.898 C-118.103 168.191 -116.856 166.484 -115.609 164.777 C-115.001 163.945 -114.393 163.112 -113.767 162.254 C-110.668 158.038 -107.486 153.891 -104.262 149.77 C-102.806 147.892 -101.382 145.989 -99.996 144.059 C-95.578 138.065 -91.407 133.795 -84.035 131.898 C-76.009 131.226 -67.985 131.573 -60.035 132.898 C-68.038 124.808 -76.449 117.288 -85.309 110.152 C-89.149 106.978 -92.805 103.617 -96.473 100.246 C-99.315 97.642 -102.202 95.097 -105.113 92.57 C-106.505 91.359 -107.89 90.139 -109.27 88.914 C-109.997 88.27 -110.724 87.625 -111.473 86.961 C-112.131 86.374 -112.79 85.788 -113.469 85.184 C-115.035 83.898 -115.035 83.898 -116.035 83.898 Z " fill="#000000" transform="translate(188.03515625,42.1015625)" />
<ns0:path xmlns:ns0="http://www.w3.org/2000/svg" d="M0 0 C5.941 3.595 11.448 9.908 13.562 16.5 C14.405 24.44 14.258 31.804 9.562 38.5 C4.273 44.63 -1.349 48.403 -9.438 49.5 C-17.275 49.989 -23.407 47.449 -29.438 42.5 C-34.484 37.036 -37.072 30.926 -37.438 23.5 C-37.078 16.103 -34.597 10.772 -29.438 5.5 C-21.215 -1.635 -10.554 -4.716 0 0 Z M-26.812 10.875 C-30.852 16.034 -32.102 20.969 -31.438 27.5 C-29.673 33.889 -26.827 37.616 -21.438 41.406 C-17.073 43.793 -12.332 44.123 -7.438 43.5 C-1.221 41.567 2.974 37.853 6.562 32.5 C9.238 27.265 8.817 22.114 7.562 16.5 C4.667 10.816 0.468 6.798 -5.375 4.188 C-14.175 2.212 -20.768 4.242 -26.812 10.875 Z " fill="#000000" transform="translate(213.4375,175.5)" />
  </g>
</svg>
