<?xml version="1.0" encoding="UTF-8"?>
<svg xmlns="http://www.w3.org/2000/svg" version="1.1" viewBox="408.50 889.39 127.68 122.29" width="127.68" height="122.29" style="fill-rule:nonzero;clip-rule:evenodd;stroke-linecap:round;stroke-linejoin:round;" xml:space="preserve">
<g opacity="1">
<path d="M423.5 896.5C428.936 895.387 432.936 897.22 435.5 902C436.333 902.167 437.167 902.333 438 902.5C446.262 900.694 454.262 901.361 462 904.5C467.271 896.24 473.271 895.573 480 902.5C481.023 908.265 479.523 913.265 475.5 917.5C477.473 923.25 479.139 929.084 480.5 935C479.217 937.005 478.217 939.172 477.5 941.5C486.822 943.884 495.488 947.717 503.5 953C512.91 962.745 515.91 974.245 512.5 987.5C514.527 987.662 516.527 987.495 518.5 987C521.901 983.517 525.067 983.684 528 987.5C530.178 993.951 528.011 998.118 521.5 1000C507.523 1000.48 493.523 1001.65 479.5 1003.5C477.077 1003.41 474.744 1002.91 472.5 1002C471.257 999.51 470.09 997.01 469 994.5C465.471 1002.85 459.304 1005.68 450.5 1003C448.464 1002.55 446.63 1001.71 445 1000.5C440.115 1001.9 435.282 1001.73 430.5 1000C426.607 996.412 426.607 992.746 430.5 989C432.025 987.991 433.692 987.491 435.5 987.5C435.667 976.495 435.5 965.495 435 954.5C429.909 952.374 424.742 950.374 419.5 948.5C420.869 944.827 419.536 942.494 415.5 941.5C416.366 937.795 416.033 934.129 414.5 930.5C416.619 924.929 419.285 919.596 422.5 914.5C416.832 907.931 417.165 901.931 423.5 896.5Z" fill="#181919" fill-rule="evenodd" opacity="1" stroke="none" />
<path d="M453.5 966.5C452.833 970.5 452.167 974.5 451.5 978.5C441.013 974.547 436.346 966.881 437.5 955.5C441.481 956.021 445.481 956.354 449.5 956.5C449.5 955.5 449.5 954.5 449.5 953.5C443.251 953.942 437.251 952.942 431.5 950.5C430.833 949.167 430.167 947.833 429.5 946.5C427.657 947.939 425.99 947.772 424.5 946C425.716 944.26 427.382 943.26 429.5 943C427.287 942.374 425.12 942.541 423 943.5C421.378 943.046 420.212 942.046 419.5 940.5C422.833 939.833 426.167 939.167 429.5 938.5C425.623 937.803 421.79 937.136 418 936.5C417.333 934.833 417.333 933.167 418 931.5C421.786 934.154 425.953 935.321 430.5 935C427.52 933.366 424.52 931.7 421.5 930C420.196 929.196 419.529 928.029 419.5 926.5C421.895 916.779 427.562 909.779 436.5 905.5C436.192 907.924 436.526 910.257 437.5 912.5C438.107 912.376 438.44 912.043 438.5 911.5C439.653 909.193 440.82 906.86 442 904.5C443.011 903.663 444.178 903.33 445.5 903.5C445.403 920.429 447.069 920.429 450.5 903.5C451.833 903.5 453.167 903.5 454.5 903.5C454.205 906.734 454.871 909.734 456.5 912.5C457.223 909.93 458.39 907.597 460 905.5C469.781 910.727 474.614 918.727 474.5 929.5C470.628 931.935 466.628 934.102 462.5 936C467.298 936.137 471.965 935.303 476.5 933.5C477.578 935.475 477.245 937.308 475.5 939C471.5 939.333 467.5 939.667 463.5 940C466.726 941.199 470.059 941.699 473.5 941.5C473.707 944.127 472.54 945.793 470 946.5C467.784 944.634 465.284 943.8 462.5 944C464.09 945.046 465.59 946.213 467 947.5C467.667 948.167 467.667 948.833 467 949.5C462.631 951.051 458.131 952.218 453.5 953C452.098 954.342 452.431 955.176 454.5 955.5C458.277 954.878 461.944 953.878 465.5 952.5C466.086 952.709 466.586 953.043 467 953.5C467.368 952.09 468.201 951.09 469.5 950.5C471.343 951.939 473.01 951.772 474.5 950C473.833 949.333 473.167 948.667 472.5 948C474 946.5 475.5 945 477 943.5C478.557 946.294 478.89 949.294 478 952.5C476.186 956.475 474.186 960.142 472 963.5C478.608 959.612 482.775 953.945 484.5 946.5C485.736 947.246 487.07 947.579 488.5 947.5C488.592 953.09 487.759 958.424 486 963.5C489.852 959.818 492.686 955.484 494.5 950.5C497.339 951.002 498.672 952.669 498.5 955.5C498.232 959.143 496.899 962.31 494.5 965C495.167 965.667 495.833 965.667 496.5 965C499.045 962.624 501.378 960.124 503.5 957.5C507.272 960.861 507.438 964.528 504 968.5C496.315 974.922 497.148 976.089 506.5 972C508.608 968.66 510.108 968.827 511 972.5C511.667 974.5 511.667 976.5 511 978.5C508.217 979.928 505.383 981.262 502.5 982.5C504.828 983.724 507.161 983.724 509.5 982.5C510.152 988.859 507.152 992.192 500.5 992.5C500.756 994.792 500.423 996.959 499.5 999C493.231 1000.26 486.898 1000.76 480.5 1000.5C480.322 996.898 479.322 996.898 477.5 1000.5C476.669 998.527 476.502 996.527 477 994.5C475.383 995.851 474.216 997.518 473.5 999.5C472.06 996.772 472.726 994.605 475.5 993C479.903 992.936 484.236 992.769 488.5 992.5C484.384 991.784 481.384 989.618 479.5 986C479.645 985.228 479.978 984.561 480.5 984C482.577 983.808 484.577 983.308 486.5 982.5C483.914 981.52 481.247 981.187 478.5 981.5C478.5 979.833 478.5 978.167 478.5 976.5C482.698 976.358 486.698 976.858 490.5 978C488.191 975.513 485.524 973.513 482.5 972C483.167 971.333 483.833 970.667 484.5 970C487.332 969.788 489.998 969.621 492.5 969.5C482.977 966.276 477.31 969.776 475.5 980C476.06 983.291 477.06 986.458 478.5 989.5C476.328 990.205 474.328 991.205 472.5 992.5C470.833 992.167 469.833 991.167 469.5 989.5C471.165 983.535 471.498 977.535 470.5 971.5C469.203 980.281 467.37 988.948 465 997.5C462.358 1000.03 459.192 1001.03 455.5 1000.5C455.906 998.891 455.906 997.557 455.5 996.5C454.571 997.689 454.238 999.022 454.5 1000.5C453.5 1000.5 452.5 1000.5 451.5 1000.5C451.357 998.738 451.691 997.071 452.5 995.5C451.726 994.289 450.893 994.289 450 995.5C449.667 996.833 449.333 998.167 449 999.5C446.556 995.728 447.389 992.895 451.5 991C453.833 990.667 456.167 990.333 458.5 990C457.437 988.812 456.103 988.312 454.5 988.5C454.5 986.833 454.5 985.167 454.5 983.5C457.073 983.852 459.406 983.352 461.5 982C456.533 982.534 454.533 980.367 455.5 975.5C463.297 974.051 463.297 973.051 455.5 972.5C455.975 969.918 455.308 967.918 453.5 966.5Z" fill="#eeeeee" fill-rule="evenodd" opacity="1" stroke="none" />
<path d="M432.5 920.5C436.473 921.075 437.473 923.242 435.5 927C434.216 927.684 433.049 927.517 432 926.5C431.51 924.455 431.677 922.455 432.5 920.5Z" fill="#181718" fill-rule="evenodd" opacity="1" stroke="none" />
<path d="M458.5 914.5C460.484 914.383 462.15 915.05 463.5 916.5C463.167 916.833 462.833 917.167 462.5 917.5C460.885 916.846 459.218 916.346 457.5 916C458.056 915.617 458.389 915.117 458.5 914.5Z" fill="#2d2d2e" fill-rule="evenodd" opacity="1" stroke="none" />
<path d="M431.5 914.5C436.021 914.326 436.355 914.993 432.5 916.5C431.702 916.043 431.369 915.376 431.5 914.5Z" fill="#373737" fill-rule="evenodd" opacity="1" stroke="none" />
<path d="M436.5 905.5C437.167 907.5 437.833 909.5 438.5 911.5C438.44 912.043 438.107 912.376 437.5 912.5C436.526 910.257 436.192 907.924 436.5 905.5Z" fill="#676a66" fill-rule="evenodd" opacity="1" stroke="none" />
<path d="M468.5 900.5C475.777 899.279 478.944 902.279 478 909.5C477.027 911.64 475.527 913.307 473.5 914.5C471.6 912.381 469.934 910.047 468.5 907.5C469.833 906.5 471.167 905.5 472.5 904.5C472 904.167 471.5 903.833 471 903.5C469.333 904.5 467.667 905.5 466 906.5C465.5 906.167 465 905.833 464.5 905.5C465.508 903.501 466.841 901.834 468.5 900.5Z" fill="#e6e6e7" fill-rule="evenodd" opacity="1" stroke="none" />
<path d="M424.5 898.5C427.862 898.07 430.695 899.07 433 901.5C433.342 905.835 432.176 906.335 429.5 903C424.341 902.69 424.341 903.19 429.5 904.5C429.256 907.263 427.923 909.429 425.5 911C424.004 911.507 422.837 911.007 422 909.5C419.584 905.078 420.417 901.411 424.5 898.5Z" fill="#e2e2e3" fill-rule="evenodd" opacity="1" stroke="none" />
<path d="M458.5 921.5C459.496 921.414 460.329 921.748 461 922.5C461.495 924.473 461.662 926.473 461.5 928.5C456.161 928.177 455.161 925.843 458.5 921.5Z" fill="#161616" fill-rule="evenodd" opacity="1" stroke="none" />
<path d="M440.5 923.5C441.586 923.62 442.253 924.287 442.5 925.5C442.033 927.568 441.366 929.568 440.5 931.5C443.497 932.248 446.497 932.915 449.5 933.5C450.314 931.234 450.814 928.9 451 926.5C452.557 929.294 452.89 932.294 452 935.5C450.265 937.611 448.432 939.611 446.5 941.5C448.141 945.911 450.808 946.577 454.5 943.5C455.711 944.274 455.711 945.107 454.5 946C451.19 948.068 448.024 947.902 445 945.5C441.707 947.115 438.707 946.781 436 944.5C435.312 943.668 435.479 943.002 436.5 942.5C439.584 945.282 442.25 944.949 444.5 941.5C442.568 939.611 440.735 937.611 439 935.5C438.535 931.389 439.035 927.389 440.5 923.5Z" fill="#171617" fill-rule="evenodd" opacity="1" stroke="none" />
<path d="M453.5 966.5C453.826 970.884 453.492 975.217 452.5 979.5C451.893 979.376 451.56 979.043 451.5 978.5C452.167 974.5 452.833 970.5 453.5 966.5Z" fill="#898c89" fill-rule="evenodd" opacity="1" stroke="none" />
<path d="M438.5 971.5C441.859 976.022 446.192 979.356 451.5 981.5C452.474 983.743 452.808 986.076 452.5 988.5C447.288 989.719 444.621 993.053 444.5 998.5C442.5 998.5 440.5 998.5 438.5 998.5C439.655 992.241 438.655 992.241 435.5 998.5C432.873 996.916 432.873 995.249 435.5 993.5C435.167 993.167 434.833 992.833 434.5 992.5C433.065 993.824 432.065 995.49 431.5 997.5C430.203 994.812 430.536 992.312 432.5 990C435.553 989.821 438.553 989.321 441.5 988.5C440.675 987.614 439.675 987.281 438.5 987.5C438.5 985.833 438.5 984.167 438.5 982.5C445.167 981.833 445.167 981.167 438.5 980.5C438.5 977.5 438.5 974.5 438.5 971.5Z" fill="#eaeaea" fill-rule="evenodd" opacity="1" stroke="none" />
<path d="M510.5 989.5C512.924 989.192 515.257 989.526 517.5 990.5C515.07 992.571 512.403 992.904 509.5 991.5C509.863 990.817 510.196 990.15 510.5 989.5Z" fill="#d6d6d5" fill-rule="evenodd" opacity="1" stroke="none" />
<path d="M521.5 987.5C522.404 988.209 522.737 989.209 522.5 990.5C527.435 991.413 527.768 993.413 523.5 996.5C520.76 993.883 520.094 990.883 521.5 987.5Z" fill="#d3d4d4" fill-rule="evenodd" opacity="1" stroke="none" />
<path d="M514.5 993.5C517.288 993.077 519.288 994.077 520.5 996.5C518.977 998.283 516.977 998.949 514.5 998.5C514.5 996.833 514.5 995.167 514.5 993.5Z" fill="#dcdcdc" fill-rule="evenodd" opacity="1" stroke="none" />
<path d="M506.5 993.5C508.167 993.5 509.833 993.5 511.5 993.5C511.5 995.5 511.5 997.5 511.5 999.5C507.092 999.938 505.425 997.938 506.5 993.5Z" fill="#d4d5d4" fill-rule="evenodd" opacity="1" stroke="none" />
</g>

</svg>