<?xml version="1.0" encoding="UTF-8"?>
<svg xmlns="http://www.w3.org/2000/svg" version="1.1" viewBox="569.02 902.00 145.77 106.37" width="145.77" height="106.37" style="fill-rule:nonzero;clip-rule:evenodd;stroke-linecap:round;stroke-linejoin:round;" xml:space="preserve">
<g opacity="1">
<path d="M695.5 976.5C695.832 963.483 695.499 950.483 694.5 937.5C693.893 937.624 693.56 937.957 693.5 938.5C687.21 942.95 681.043 947.617 675 952.5C674.667 967.833 674.333 983.167 674 998.5C670.61 1002.03 666.943 1002.37 663 999.5C662.5 983.837 662.333 968.17 662.5 952.5C649.456 951.578 636.456 950.244 623.5 948.5C623.666 955.175 623.5 961.842 623 968.5C619.595 971.077 616.262 971.077 613 968.5C612.5 961.174 612.334 953.841 612.5 946.5C606.167 945.833 599.833 945.167 593.5 944.5C592.791 943.596 591.791 943.263 590.5 943.5C590.5 958.833 590.5 974.167 590.5 989.5C587.041 992.109 583.541 992.109 580 989.5C579.833 973.823 579.333 958.156 578.5 942.5C576.016 940.909 575.016 938.575 575.5 935.5C575.833 933.833 576.167 932.167 576.5 930.5C589.036 922.801 601.703 915.301 614.5 908C645.512 910.534 676.512 913.534 707.5 917C708.622 920.409 708.789 923.909 708 927.5C707.333 928.167 706.667 928.833 706 929.5C705.667 945.167 705.333 960.833 705 976.5C701.793 979.099 698.626 979.099 695.5 976.5Z" fill="#1d1d1d" fill-rule="evenodd" opacity="1" stroke="none" />
<path d="M705.5 920.5C706.793 922.364 706.793 924.364 705.5 926.5C695.345 934.41 685.012 942.077 674.5 949.5C673.24 947.647 673.24 945.814 674.5 944C685.018 936.303 695.351 928.47 705.5 920.5Z" fill="#e7e7e8" fill-rule="evenodd" opacity="1" stroke="none" />
<path d="M582.5 934.5C581.167 934.5 579.833 934.5 578.5 934.5C578.5 936.167 578.5 937.833 578.5 939.5C577.539 937.735 577.205 935.735 577.5 933.5C579.415 933.216 581.081 933.549 582.5 934.5Z" fill="#767575" fill-rule="evenodd" opacity="1" stroke="none" />
<path d="M582.5 934.5C612.15 938.232 641.817 941.899 671.5 945.5C671.5 947.5 671.5 949.5 671.5 951.5C640.326 947.854 609.326 943.854 578.5 939.5C578.5 937.833 578.5 936.167 578.5 934.5C579.833 934.5 581.167 934.5 582.5 934.5Z" fill="#e9eae9" fill-rule="evenodd" opacity="1" stroke="none" />
<path d="M702.5 931.5C703.496 945.99 703.829 960.657 703.5 975.5C701.5 975.5 699.5 975.5 697.5 975.5C697.333 962.163 697.5 948.829 698 935.5C699.667 934.267 701.167 932.933 702.5 931.5Z" fill="#eeeeee" fill-rule="evenodd" opacity="1" stroke="none" />
<path d="M614.5 910.5C644.618 912.091 674.618 914.924 704.5 919C693.603 927.568 682.437 935.734 671 943.5C640.477 939.692 609.977 935.692 579.5 931.5C591.064 924.223 602.731 917.223 614.5 910.5Z" fill="#f4f5f5" fill-rule="evenodd" opacity="1" stroke="none" />
<path d="M586.5 943.5C587.831 950.636 588.497 958.136 588.5 966C588.333 973.5 588.167 981 588 988.5C586.172 989.752 584.339 989.752 582.5 988.5C582.5 973.5 582.5 958.5 582.5 943.5C583.833 943.5 585.167 943.5 586.5 943.5Z" fill="#f8f8f8" fill-rule="evenodd" opacity="1" stroke="none" />
<path d="M614.5 947.5C616.5 947.5 618.5 947.5 620.5 947.5C620.5 954.167 620.5 960.833 620.5 967.5C618.5 967.5 616.5 967.5 614.5 967.5C614.5 960.833 614.5 954.167 614.5 947.5Z" fill="#ededed" fill-rule="evenodd" opacity="1" stroke="none" />
<path d="M693.5 938.5C693.56 937.957 693.893 937.624 694.5 937.5C695.499 950.483 695.832 963.483 695.5 976.5C694.833 963.833 694.167 951.167 693.5 938.5Z" fill="#878a89" fill-rule="evenodd" opacity="1" stroke="none" />
<path d="M593.5 944.5C591.839 959.305 590.839 974.305 590.5 989.5C590.5 974.167 590.5 958.833 590.5 943.5C591.791 943.263 592.791 943.596 593.5 944.5Z" fill="#635f63" fill-rule="evenodd" opacity="1" stroke="none" />
<path d="M586.5 943.5C585.167 943.5 583.833 943.5 582.5 943.5C582.5 958.5 582.5 973.5 582.5 988.5C581.504 973.342 581.17 958.009 581.5 942.5C583.415 942.216 585.081 942.549 586.5 943.5Z" fill="#767377" fill-rule="evenodd" opacity="1" stroke="none" />
<path d="M665.5 953.5C667.5 953.5 669.5 953.5 671.5 953.5C671.667 968.504 671.5 983.504 671 998.5C669.333 999.833 667.667 999.833 666 998.5C665.5 983.504 665.333 968.504 665.5 953.5Z" fill="#f1f1f1" fill-rule="evenodd" opacity="1" stroke="none" />
</g>

</svg>