<?xml version="1.0" encoding="UTF-8"?>
<svg xmlns="http://www.w3.org/2000/svg" version="1.1" viewBox="768.33 892.50 95.33 119.81" width="95.33" height="119.81" style="fill-rule:nonzero;clip-rule:evenodd;stroke-linecap:round;stroke-linejoin:round;" xml:space="preserve">
<g opacity="1">
<path d="M836.5 926.5C832.817 930.025 829.65 934.025 827 938.5C823.952 942.01 820.619 942.343 817 939.5C816.333 937.833 816.333 936.167 817 934.5C819.833 931.667 822.667 928.833 825.5 926C819.715 924.247 813.882 924.081 808 925.5C806.743 925.85 806.409 926.517 807 927.5C809.903 930.732 812.403 934.232 814.5 938C812.398 943.55 808.898 944.716 804 941.5C800.55 934.91 796.384 928.91 791.5 923.5C790.191 920.222 788.358 917.222 786 914.5C785.251 913.365 785.417 912.365 786.5 911.5C792.167 919.5 797.833 927.5 803.5 935.5C804.833 934.5 806.167 933.5 807.5 932.5C801.203 922.737 794.536 913.237 787.5 904C786.216 903.316 785.049 903.483 784 904.5C783.502 906.527 783.669 908.527 784.5 910.5C784.167 911.167 783.833 911.833 783.5 912.5C778.426 905.643 780.093 902.143 788.5 902C793.626 909.622 799.293 916.789 805.5 923.5C813.118 922.699 820.784 922.199 828.5 922C833.667 916.167 838.833 910.333 844 904.5C846.094 901.897 848.594 899.897 851.5 898.5C855.463 899.908 856.463 902.575 854.5 906.5C853.277 907.614 851.944 907.781 850.5 907C851.687 905.981 852.687 904.814 853.5 903.5C852.965 901.899 851.965 901.399 850.5 902C839.944 913.219 829.444 924.386 819 935.5C818.167 938.667 819.333 939.833 822.5 939C828.96 930.871 835.794 923.037 843 915.5C843.667 916.5 843.667 917.5 843 918.5C840.999 921.331 838.833 923.997 836.5 926.5Z" fill="#1c1c1d" fill-rule="evenodd" opacity="1" stroke="none" />
<path d="M791.5 923.5C796.384 928.91 800.55 934.91 804 941.5C808.898 944.716 812.398 943.55 814.5 938C812.403 934.232 809.903 930.732 807 927.5C806.409 926.517 806.743 925.85 808 925.5C813.882 924.081 819.715 924.247 825.5 926C822.667 928.833 819.833 931.667 817 934.5C816.333 936.167 816.333 937.833 817 939.5C820.619 942.343 823.952 942.01 827 938.5C829.65 934.025 832.817 930.025 836.5 926.5C836.833 927.5 837.5 928.167 838.5 928.5C838.369 929.376 838.702 930.043 839.5 930.5C843.395 932.298 847.395 933.798 851.5 935C856.193 937.689 856.527 940.689 852.5 944C846.188 947.326 839.521 949.66 832.5 951C822.167 951.667 811.833 951.667 801.5 951C792.828 950.377 784.995 947.544 778 942.5C777.333 940.833 777.333 939.167 778 937.5C783.105 933.968 788.605 931.301 794.5 929.5C793.833 929.167 793.167 928.833 792.5 928.5C789.556 929.704 786.556 930.704 783.5 931.5C782.737 930.732 781.737 930.232 780.5 930C785.073 929.239 788.74 927.072 791.5 923.5Z" fill="#eff0f0" fill-rule="evenodd" opacity="1" stroke="none" />
<path d="M838.5 928.5C843.663 929.412 848.663 930.912 853.5 933C854.667 934.167 855.833 935.333 857 936.5C857.667 955.167 857.667 973.833 857 992.5C854.441 995.531 851.274 997.698 847.5 999C826.498 1006.31 805.498 1006.31 784.5 999C780.734 997.231 777.567 994.731 775 991.5C774.333 973.5 774.333 955.5 775 937.5C777.234 934.399 780.067 932.399 783.5 931.5C786.556 930.704 789.556 929.704 792.5 928.5C793.167 928.833 793.833 929.167 794.5 929.5C788.605 931.301 783.105 933.968 778 937.5C777.333 939.167 777.333 940.833 778 942.5C784.995 947.544 792.828 950.377 801.5 951C811.833 951.667 822.167 951.667 832.5 951C839.521 949.66 846.188 947.326 852.5 944C856.527 940.689 856.193 937.689 851.5 935C847.395 933.798 843.395 932.298 839.5 930.5C838.702 930.043 838.369 929.376 838.5 928.5Z" fill="#191a1a" fill-rule="evenodd" opacity="1" stroke="none" />
<path d="M807.5 934.5C810.966 935.109 811.966 936.942 810.5 940C805.289 940.546 804.289 938.713 807.5 934.5Z" fill="#eff0f0" fill-rule="evenodd" opacity="1" stroke="none" />
<path d="M776.5 944.5C781.32 947.842 786.654 950.342 792.5 952C810.358 955.864 828.025 955.197 845.5 950C848.912 948.545 852.079 946.712 855 944.5C856.176 948.26 855.01 951.093 851.5 953C836.924 960.028 821.591 962.362 805.5 960C799.048 959.203 792.715 957.869 786.5 956C780.368 954.382 777.035 950.549 776.5 944.5Z" fill="#e8e9e9" fill-rule="evenodd" opacity="1" stroke="none" />
<path d="M778.5 954.5C777.507 963.318 777.173 972.318 777.5 981.5C776.178 972.325 776.178 962.992 777.5 953.5C778.107 953.624 778.44 953.957 778.5 954.5Z" fill="#757273" fill-rule="evenodd" opacity="1" stroke="none" />
<path d="M833.5 960.5C835.924 960.192 838.257 960.526 840.5 961.5C836.834 970.663 833.668 979.997 831 989.5C829.907 987.651 828.574 985.984 827 984.5C827.203 986.937 828.037 989.271 829.5 991.5C820.833 992.833 812.167 992.833 803.5 991.5C808.255 982.99 812.755 974.324 817 965.5C817.419 966.672 818.085 967.672 819 968.5C819.18 966.512 819.014 964.512 818.5 962.5C823.75 962.698 828.75 962.031 833.5 960.5Z" fill="#f0f0f0" fill-rule="evenodd" opacity="1" stroke="none" />
<path d="M853.5 953.5C854.827 957.783 855.493 962.449 855.5 967.5C855.167 972.167 854.833 976.833 854.5 981.5C853.833 980.833 853.167 980.167 852.5 979.5C853.29 983.932 851.29 986.765 846.5 988C841.935 990.15 837.269 990.984 832.5 990.5C835.561 981.382 838.894 972.382 842.5 963.5C843.584 964.665 844.417 965.998 845 967.5C844.667 964.833 844.333 962.167 844 959.5C846.304 957.932 848.804 956.765 851.5 956C852.381 955.292 853.047 954.458 853.5 953.5Z" fill="#ededee" fill-rule="evenodd" opacity="1" stroke="none" />
<path d="M792.5 961.5C792.917 960.876 793.584 960.543 794.5 960.5C801.461 961.754 808.461 962.754 815.5 963.5C811.422 971.991 807.088 980.324 802.5 988.5C799.137 979.4 795.804 970.4 792.5 961.5Z" fill="#efefef" fill-rule="evenodd" opacity="1" stroke="none" />
<path d="M778.5 954.5C782.345 956.39 786.012 958.557 789.5 961C786.393 966.341 786.893 967.175 791 963.5C794.471 972.746 797.637 982.079 800.5 991.5C793.025 991.064 786.192 988.731 780 984.5C780.967 980.225 782.8 976.225 785.5 972.5C785.167 972.167 784.833 971.833 784.5 971.5C782.144 974.9 779.811 978.233 777.5 981.5C777.173 972.318 777.507 963.318 778.5 954.5Z" fill="#eeeeee" fill-rule="evenodd" opacity="1" stroke="none" />
<path d="M848.5 972.5C850.416 973.665 851.249 975.332 851 977.5C849.117 976.347 848.284 974.681 848.5 972.5Z" fill="#474747" fill-rule="evenodd" opacity="1" stroke="none" />
<path d="M820.5 971.5C823.367 974.233 824.867 977.566 825 981.5C822.676 978.52 821.176 975.187 820.5 971.5Z" fill="#292a2b" fill-rule="evenodd" opacity="1" stroke="none" />
<path d="M776.5 985.5C784.741 990.527 793.741 993.693 803.5 995C818.547 996.603 833.213 994.936 847.5 990C850.249 988.877 852.749 987.377 855 985.5C855.667 987.167 855.667 988.833 855 990.5C848.053 996.625 839.886 1000.13 830.5 1001C820.5 1001.67 810.5 1001.67 800.5 1001C791.582 999.81 783.749 996.31 777 990.5C776.506 988.866 776.34 987.199 776.5 985.5Z" fill="#ececec" fill-rule="evenodd" opacity="1" stroke="none" />
</g>

</svg>