<?xml version="1.0" encoding="UTF-8"?>
<svg xmlns="http://www.w3.org/2000/svg" version="1.1" viewBox="939.33 891.33 147.32 115.37" width="147.32" height="115.37" style="fill-rule:nonzero;clip-rule:evenodd;stroke-linecap:round;stroke-linejoin:round;" xml:space="preserve">
<g opacity="1">
<path d="M1009.5 911.5C1011.17 910.833 1012.83 910.167 1014.5 909.5C1014.5 906.5 1014.5 903.5 1014.5 900.5C1009.86 899.975 1005.53 900.642 1001.5 902.5C1001.5 901.833 1001.17 901.5 1000.5 901.5C1000.57 899.589 1001.57 898.422 1003.5 898C1009.83 897.333 1016.17 897.333 1022.5 898C1025.37 899.393 1026.7 901.726 1026.5 905C1026.59 907.814 1025.59 910.147 1023.5 912C1018.84 912.169 1014.17 912.003 1009.5 911.5Z" fill="#232323" fill-rule="evenodd" opacity="1" stroke="none" />
<path d="M1017.5 899.5C1018.38 899.369 1019.04 899.702 1019.5 900.5C1017.92 903.937 1018.25 907.104 1020.5 910C1016.93 910.433 1015.27 908.767 1015.5 905C1015.39 902.822 1016.06 900.988 1017.5 899.5Z" fill="#d7d7d8" fill-rule="evenodd" opacity="1" stroke="none" />
<path d="M1021.5 900.5C1022.12 900.611 1022.62 900.944 1023 901.5C1023.82 904.227 1023.65 906.894 1022.5 909.5C1021.52 906.572 1021.18 903.572 1021.5 900.5Z" fill="#edecec" fill-rule="evenodd" opacity="1" stroke="none" />
<path d="M1014.5 909.5C1012.17 909.5 1009.83 909.5 1007.5 909.5C1007.5 914.5 1007.5 919.5 1007.5 924.5C1005.5 924.5 1003.5 924.5 1001.5 924.5C1001.5 917.167 1001.5 909.833 1001.5 902.5C1005.53 900.642 1009.86 899.975 1014.5 900.5C1014.5 903.5 1014.5 906.5 1014.5 909.5Z" fill="#e2e2e1" fill-rule="evenodd" opacity="1" stroke="none" />
<path d="M1000.5 901.5C1001.17 901.5 1001.5 901.833 1001.5 902.5C1001.5 909.833 1001.5 917.167 1001.5 924.5C1003.5 924.5 1005.5 924.5 1007.5 924.5C1007.5 919.5 1007.5 914.5 1007.5 909.5C1009.83 909.5 1012.17 909.5 1014.5 909.5C1012.83 910.167 1011.17 910.833 1009.5 911.5C1009.5 915.833 1009.5 920.167 1009.5 924.5C1019.25 923.939 1023.58 928.606 1022.5 938.5C1036.4 940.903 1048.73 946.57 1059.5 955.5C1061.18 950.648 1063.51 946.148 1066.5 942C1070.21 939.791 1073.04 940.624 1075 944.5C1075.33 950.167 1075.67 955.833 1076 961.5C1080.65 965.547 1080.65 969.547 1076 973.5C1075.67 978.833 1075.33 984.167 1075 989.5C1073.79 994.514 1070.95 995.681 1066.5 993C1063.57 988.897 1061.41 984.397 1060 979.5C1043.26 992.803 1024.1 999.469 1002.5 999.5C988.222 999.431 974.889 995.931 962.5 989C945.331 972.355 946.665 957.355 966.5 944C972.192 940.936 978.192 938.77 984.5 937.5C984.234 927.1 989.234 922.767 999.5 924.5C999.175 916.648 999.508 908.982 1000.5 901.5Z" fill="#191a1a" fill-rule="evenodd" opacity="1" stroke="none" />
<path d="M1003.5 930.5C1006.7 929.964 1009.36 930.631 1011.5 932.5C1005.46 932.829 999.463 932.496 993.5 931.5C996.768 930.513 1000.1 930.18 1003.5 930.5Z" fill="#1f1e1e" fill-rule="evenodd" opacity="1" stroke="none" />
<path d="M1014.5 927.5C1008.16 927.334 1001.82 927.5 995.5 928C998.251 928.943 1000.92 929.776 1003.5 930.5C1000.1 930.18 996.768 930.513 993.5 931.5C999.463 932.496 1005.46 932.829 1011.5 932.5C1007.65 933.166 1003.65 933.833 999.5 934.5C1002.31 935.168 1004.97 935.834 1007.5 936.5C1000.83 936.5 994.167 936.5 987.5 936.5C987.047 932.574 988.38 929.408 991.5 927C999.345 926.178 1007.01 926.344 1014.5 927.5Z" fill="#d9dad9" fill-rule="evenodd" opacity="1" stroke="none" />
<path d="M1014.5 927.5C1018.76 929.352 1020.43 932.686 1019.5 937.5C1015.55 936.728 1011.55 936.395 1007.5 936.5C1004.97 935.834 1002.31 935.168 999.5 934.5C1003.65 933.833 1007.65 933.166 1011.5 932.5C1009.36 930.631 1006.7 929.964 1003.5 930.5C1000.92 929.776 998.251 928.943 995.5 928C1001.82 927.5 1008.16 927.334 1014.5 927.5Z" fill="#f3f3f3" fill-rule="evenodd" opacity="1" stroke="none" />
<path d="M964.5 947.5C967.595 947.626 969.428 949.293 970 952.5C973.836 964.122 973.169 975.455 968 986.5C967.439 987.022 966.772 987.355 966 987.5C952.618 979.692 949.618 969.026 957 955.5C959.705 952.964 962.205 950.297 964.5 947.5Z" fill="#f2f1f2" fill-rule="evenodd" opacity="1" stroke="none" />
<path d="M1068.5 943.5C1070.45 943.227 1071.95 943.893 1073 945.5C1073.61 950.861 1073.44 956.195 1072.5 961.5C1068.97 962.011 1065.8 961.344 1063 959.5C1062.74 953.455 1064.57 948.121 1068.5 943.5Z" fill="#eeeeee" fill-rule="evenodd" opacity="1" stroke="none" />
<path d="M991.5 938.5C1013.48 936.714 1033.81 941.547 1052.5 953C1065.5 962.08 1065.84 971.747 1053.5 982C1026.97 997.872 999.135 1000.7 970 990.5C969.5 990.167 969 989.833 968.5 989.5C977.439 975.244 977.773 960.744 969.5 946C969.905 945.055 970.572 944.388 971.5 944C978.208 941.834 984.874 940.001 991.5 938.5Z" fill="#f4f4f4" fill-rule="evenodd" opacity="1" stroke="none" />
<path d="M1036.5 960.5C1044.48 958.7 1048.31 961.7 1048 969.5C1044.99 976.103 1040.65 977.103 1035 972.5C1032.66 968.052 1033.16 964.052 1036.5 960.5Z" fill="#202021" fill-rule="evenodd" opacity="1" stroke="none" />
<path d="M989.5 957.5C1001.65 957.796 1005.15 963.463 1000 974.5C993.101 979.255 987.768 977.922 984 970.5C982.571 964.7 984.404 960.367 989.5 957.5Z" fill="#151515" fill-rule="evenodd" opacity="1" stroke="none" />
<path d="M990.5 959.5C997.657 959.155 1000.82 962.488 1000 969.5C997.928 974.143 994.428 975.643 989.5 974C984.057 968.809 984.391 963.976 990.5 959.5Z" fill="#ebeaeb" fill-rule="evenodd" opacity="1" stroke="none" />
<path d="M1038.5 962.5C1045.63 962.706 1047.29 965.873 1043.5 972C1035.35 972.198 1033.68 969.031 1038.5 962.5Z" fill="#ececec" fill-rule="evenodd" opacity="1" stroke="none" />
<path d="M1064.5 964.5C1068.51 964.334 1072.51 964.501 1076.5 965C1077.93 967.267 1077.6 969.267 1075.5 971C1071.85 971.499 1068.18 971.665 1064.5 971.5C1064.5 969.167 1064.5 966.833 1064.5 964.5Z" fill="#eaebeb" fill-rule="evenodd" opacity="1" stroke="none" />
<path d="M1015.5 957.5C1024.53 957.359 1028.36 961.692 1027 970.5C1024.6 976.092 1020.43 977.925 1014.5 976C1009.85 973.103 1008.35 968.937 1010 963.5C1011.36 960.977 1013.19 958.977 1015.5 957.5Z" fill="#1b1b1b" fill-rule="evenodd" opacity="1" stroke="none" />
<path d="M1015.5 960.5C1026.1 961.254 1028.1 965.754 1021.5 974C1014.33 974.833 1011.17 971.667 1012 964.5C1013.38 963.295 1014.54 961.962 1015.5 960.5Z" fill="#ededed" fill-rule="evenodd" opacity="1" stroke="none" />
<path d="M1063.5 973.5C1067.03 972.989 1070.2 973.656 1073 975.5C1073.67 979.833 1073.67 984.167 1073 988.5C1072.39 991.032 1070.89 991.865 1068.5 991C1065.23 987.133 1063.23 982.633 1062.5 977.5C1062.85 976.151 1063.18 974.817 1063.5 973.5Z" fill="#e9eae9" fill-rule="evenodd" opacity="1" stroke="none" />
</g>

</svg>