<?xml version="1.0" encoding="UTF-8" standalone="no"?>
<svg xmlns="http://www.w3.org/2000/svg" fill-rule="nonzero" clip-rule="evenodd" stroke-miterlimit="10" style="fill-rule:nonzero;clip-rule:evenodd;stroke-linecap:round;stroke-linejoin:round;"
     viewBox="537.2 664.4 186.9 184.3" xml:space="preserve">
<g opacity="1">
<path d="M621.5 677.5C658.925 676.448 685.425 692.781 701 726.5C712.127 765.202 701.294 796.036 668.5 819C632.265 836.727 600.099 831.227 572 802.5C551.545 774.61 549.212 745.277 565 714.5C578.324 693.755 597.157 681.421 621.5 677.5Z" fill="#171717" fill-rule="evenodd" opacity="1" stroke="none"/>
<path d="M690.5 719.5C691.496 719.586 692.329 719.252 693 718.5C693.667 719.167 694.333 719.833 695 720.5C705.218 743.282 704.885 765.949 694 788.5C693.586 788.957 693.086 789.291 692.5 789.5C690.922 788.36 689.256 787.86 687.5 788C692.187 790.066 692.687 792.899 689 796.5C667.527 822.546 640.36 831.379 607.5 823C568.779 806.555 552.612 777.388 559 735.5C568.655 705.742 588.822 687.576 619.5 681C651.012 678.424 675.345 690.257 692.5 716.5C691.807 717.518 691.141 718.518 690.5 719.5Z" fill="#f6f6f6" fill-rule="evenodd" opacity="1" stroke="none"/>
<path d="M594.5 693.5C596.225 693.843 596.725 694.843 596 696.5C594.961 695.756 594.461 694.756 594.5 693.5Z" fill="#474849" fill-rule="evenodd" opacity="1" stroke="none"/>
<path d="M630.5 691.5C632.792 691.244 634.959 691.577 637 692.5C637.559 696.553 636.059 699.72 632.5 702C634.256 702.202 635.922 702.702 637.5 703.5C634.833 704.833 632.167 704.833 629.5 703.5C632.098 701.072 634.098 698.239 635.5 695C634.291 691.899 632.625 691.732 630.5 694.5C629.438 693.575 629.438 692.575 630.5 691.5Z" fill="#1f2020" fill-rule="evenodd" opacity="1" stroke="none"/>
<path d="M664.5 692.5C665.713 693.497 665.546 694.497 664 695.5C663.53 694.423 663.697 693.423 664.5 692.5Z" fill="#292929" fill-rule="evenodd" opacity="1" stroke="none"/>
<path d="M623.5 691.5C624.5 691.5 625.5 691.5 626.5 691.5C626.826 695.884 626.492 700.217 625.5 704.5C625.065 700.388 624.065 696.555 622.5 693C623.056 692.617 623.389 692.117 623.5 691.5Z" fill="#212020" fill-rule="evenodd" opacity="1" stroke="none"/>
<path d="M606.5 712.5C606.826 708.116 606.492 703.783 605.5 699.5C604.692 699.808 604.025 700.308 603.5 701C605.377 704.494 606.044 708.327 605.5 712.5C604.834 709.311 604.167 705.977 603.5 702.5C602.717 700.712 601.384 699.712 599.5 699.5C598.833 699.5 598.167 699.5 597.5 699.5C600.537 698.664 603.537 697.831 606.5 697C607.637 701.976 607.637 707.143 606.5 712.5Z" fill="#c2c2c2" fill-rule="evenodd" opacity="1" stroke="none"/>
<path d="M660.5 699.5C660.666 703.514 660.499 707.514 660 711.5C659.974 707.517 659.14 703.85 657.5 700.5C658.391 699.89 659.391 699.557 660.5 699.5Z" fill="#050505" fill-rule="evenodd" opacity="1" stroke="none"/>
<path d="M597.5 699.5C598.167 699.5 598.833 699.5 599.5 699.5C599.826 703.884 599.492 708.217 598.5 712.5C597.998 708.634 596.998 704.967 595.5 701.5C595.855 700.478 596.522 699.811 597.5 699.5Z" fill="#212021" fill-rule="evenodd" opacity="1" stroke="none"/>
<path d="M660.5 699.5C661.485 703.634 661.818 707.968 661.5 712.5C660.5 712.5 659.5 712.5 658.5 712.5C658.979 708.566 658.312 704.899 656.5 701.5C656.624 700.893 656.957 700.56 657.5 700.5C659.14 703.85 659.974 707.517 660 711.5C660.499 707.514 660.666 703.514 660.5 699.5Z" fill="#878687" fill-rule="evenodd" opacity="1" stroke="none"/>
<path d="M606.5 712.5C606.167 712.5 605.833 712.5 605.5 712.5C606.044 708.327 605.377 704.494 603.5 701C604.025 700.308 604.692 699.808 605.5 699.5C606.492 703.783 606.826 708.116 606.5 712.5Z" fill="#111010" fill-rule="evenodd" opacity="1" stroke="none"/>
<path d="M628.5 711.5C629.822 711.33 630.989 711.663 632 712.5C632.333 724.167 632.667 735.833 633 747.5C633.5 748 634 748.5 634.5 749C641.087 746.913 647.753 744.58 654.5 742C657.785 738.621 661.785 737.621 666.5 739C666.957 739.414 667.291 739.914 667.5 740.5C664.053 745.557 659.22 747.89 653 747.5C647.833 749.667 642.667 751.833 637.5 754C635.355 760.072 631.355 761.738 625.5 759C622.642 755.141 622.976 751.641 626.5 748.5C627.205 736.136 627.871 723.802 628.5 711.5Z" fill="#101010" fill-rule="evenodd" opacity="1" stroke="none"/>
<path d="M568.5 719.5C569.497 718.287 570.497 718.454 571.5 720C570.423 720.47 569.423 720.303 568.5 719.5Z" fill="#212320" fill-rule="evenodd" opacity="1" stroke="none"/>
<path d="M690.5 719.5C689.998 721.085 688.998 721.585 687.5 721C688.244 719.961 689.244 719.461 690.5 719.5Z" fill="#5c5a5c" fill-rule="evenodd" opacity="1" stroke="none"/>
<path d="M577.5 719.5C578.8 721.223 579.467 723.39 579.5 726C579.167 728.167 578.833 730.333 578.5 732.5C577.513 729.232 577.18 725.898 577.5 722.5C576.448 722.649 575.448 722.483 574.5 722C575.571 721.148 576.571 720.315 577.5 719.5Z" fill="#282727" fill-rule="evenodd" opacity="1" stroke="none"/>
<path d="M583.5 719.5C586.044 719.104 588.211 719.771 590 721.5C590.929 725.244 590.429 728.744 588.5 732C585.472 733.14 583.305 732.306 582 729.5C581.153 725.928 581.653 722.594 583.5 719.5Z" fill="#1d1d1d" fill-rule="evenodd" opacity="1" stroke="none"/>
<path d="M584.5 721.5C585.822 721.33 586.989 721.663 588 722.5C588.667 724.833 588.667 727.167 588 729.5C586.667 730.833 585.333 730.833 584 729.5C583.278 726.739 583.445 724.073 584.5 721.5Z" fill="#efefef" fill-rule="evenodd" opacity="1" stroke="none"/>
<path d="M676.5 719.5C681.675 718.507 683.509 720.507 682 725.5C681.215 727.286 680.049 728.786 678.5 730C680.256 730.202 681.922 730.702 683.5 731.5C680.5 732.833 677.5 732.833 674.5 731.5C677.036 728.801 679.369 725.968 681.5 723C680.055 719.863 678.222 719.697 676 722.5C675.53 721.423 675.697 720.423 676.5 719.5Z" fill="#1d1d1d" fill-rule="evenodd" opacity="1" stroke="none"/>
<path d="M570.5 747.5C573.044 747.104 575.211 747.771 577 749.5C577.667 752.167 577.667 754.833 577 757.5C575.439 760.264 573.273 760.931 570.5 759.5C577.28 757.258 577.114 755.591 570 754.5C569.297 752.071 569.463 749.738 570.5 747.5Z" fill="#212222" fill-rule="evenodd" opacity="1" stroke="none"/>
<path d="M571.5 749.5C572.833 749.5 574.167 749.5 575.5 749.5C575.5 750.833 575.5 752.167 575.5 753.5C574.167 753.5 572.833 753.5 571.5 753.5C571.5 752.167 571.5 750.833 571.5 749.5Z" fill="#ebebeb" fill-rule="evenodd" opacity="1" stroke="none"/>
<path d="M627.5 750.5C633.158 749.679 634.825 751.846 632.5 757C626.741 758.139 625.074 755.972 627.5 750.5Z" fill="#eaeaea" fill-rule="evenodd" opacity="1" stroke="none"/>
<path d="M683.5 747.5C685.792 747.244 687.959 747.577 690 748.5C689.536 751.804 689.536 755.137 690 758.5C687.415 761.128 684.915 761.128 682.5 758.5C684.326 758.08 686.326 758.08 688.5 758.5C688.756 756.088 687.756 754.421 685.5 753.5C686.737 752.719 687.737 751.719 688.5 750.5C686.865 749.319 685.198 749.319 683.5 750.5C682.438 749.575 682.438 748.575 683.5 747.5Z" fill="#242626" fill-rule="evenodd" opacity="1" stroke="none"/>
<path d="M678.5 775.5C679.5 775.5 680.5 775.5 681.5 775.5C680.989 779.03 681.656 782.196 683.5 785C682.23 785.9 681.23 787.066 680.5 788.5C679.614 787.675 679.281 786.675 679.5 785.5C677.396 785.799 675.396 785.466 673.5 784.5C675.624 781.721 677.291 778.721 678.5 775.5Z" fill="#1d1c1c" fill-rule="evenodd" opacity="1" stroke="none"/>
<path d="M579.5 775.5C584.894 774.554 586.561 776.554 584.5 781.5C587.08 783.713 587.08 785.88 584.5 788C577.82 789.67 576.154 787.67 579.5 782C576.939 779.844 576.939 777.677 579.5 775.5Z" fill="#212121" fill-rule="evenodd" opacity="1" stroke="none"/>
<path d="M579.5 777.5C580.833 777.5 582.167 777.5 583.5 777.5C583.5 778.5 583.5 779.5 583.5 780.5C582.167 780.5 580.833 780.5 579.5 780.5C579.5 779.5 579.5 778.5 579.5 777.5Z" fill="#e6e6e6" fill-rule="evenodd" opacity="1" stroke="none"/>
<path d="M678.5 779.5C679.451 780.919 679.784 782.585 679.5 784.5C678.325 784.719 677.325 784.386 676.5 783.5C677.18 782.14 677.847 780.807 678.5 779.5Z" fill="#d8d8d8" fill-rule="evenodd" opacity="1" stroke="none"/>
<path d="M579.5 783.5C581.167 783.5 582.833 783.5 584.5 783.5C584.616 786.91 582.95 788.244 579.5 787.5C579.5 786.167 579.5 784.833 579.5 783.5Z" fill="#e1e1e1" fill-rule="evenodd" opacity="1" stroke="none"/>
<path d="M570.5 787.5C571.239 787.369 571.906 787.536 572.5 788C571.421 788.956 570.255 789.789 569 790.5C568.761 789.212 569.261 788.212 570.5 787.5Z" fill="#29292c" fill-rule="evenodd" opacity="1" stroke="none"/>
<path d="M655.5 795.5C657.693 794.203 660.027 794.203 662.5 795.5C662.376 796.107 662.043 796.44 661.5 796.5C659.735 795.539 657.735 795.205 655.5 795.5Z" fill="#767977" fill-rule="evenodd" opacity="1" stroke="none"/>
<path d="M598.5 794.5C601.167 794.5 603.833 794.5 606.5 794.5C605.219 799.062 603.386 803.396 601 807.5C601.341 803.811 602.507 800.311 604.5 797C602.167 796.667 599.833 796.333 597.5 796C598.056 795.617 598.389 795.117 598.5 794.5Z" fill="#272627" fill-rule="evenodd" opacity="1" stroke="none"/>
<path d="M655.5 795.5C657.735 795.205 659.735 795.539 661.5 796.5C659.833 796.5 658.167 796.5 656.5 796.5C656.5 797.5 656.5 798.5 656.5 799.5C661.984 799.481 663.65 801.981 661.5 807C658.989 809.105 656.656 808.938 654.5 806.5C656.021 806.12 657.687 805.954 659.5 806C660.38 804.644 660.714 803.144 660.5 801.5C658.5 801.5 656.5 801.5 654.5 801.5C654.205 799.265 654.539 797.265 655.5 795.5Z" fill="#252525" fill-rule="evenodd" opacity="1" stroke="none"/>
<path d="M628.5 802.5C630.288 802.215 631.955 802.548 633.5 803.5C631.089 804.088 629.089 805.255 627.5 807C633.967 807.085 635.634 809.752 632.5 815C625.999 815.812 623.832 812.979 626 806.5C626.662 805.016 627.496 803.683 628.5 802.5Z" fill="#181818" fill-rule="evenodd" opacity="1" stroke="none"/>
<path d="M628.5 808.5C632.35 808.701 633.35 810.534 631.5 814C627.537 814.118 626.537 812.284 628.5 808.5Z" fill="#d3d3d4" fill-rule="evenodd" opacity="1" stroke="none"/>
<path d="M662.5 810.5C665.153 811.142 666.319 812.808 666 815.5C664.198 814.211 663.031 812.544 662.5 810.5Z" fill="#4f4e4f" fill-rule="evenodd" opacity="1" stroke="none"/>
<path d="M594.5 811.5C596.973 811.947 597.14 812.947 595 814.5C594.517 813.552 594.351 812.552 594.5 811.5Z" fill="#181618" fill-rule="evenodd" opacity="1" stroke="none"/>
</g>
</svg>