<?xml version="1.0" encoding="UTF-8"?>
<svg xmlns="http://www.w3.org/2000/svg" version="1.1" style="shape-rendering:geometricPrecision;text-rendering:geometricPrecision;image-rendering:optimizeQuality;fill-rule:evenodd;clip-rule:evenodd"
     viewBox="697.9 248.0 384.2 526.8">
<g><path style="opacity:1" fill="#a6a7a6" d="M 904.5,282.5 C 911.204,282.01 917.537,283.01 923.5,285.5C 916.992,284.763 910.659,283.763 904.5,282.5 Z"/></g>
<g><path style="opacity:1" fill="#121212" d="M 904.5,282.5 C 910.659,283.763 916.992,284.763 923.5,285.5C 994.089,303.589 1035.26,348.589 1047,420.5C 1051.37,475.074 1033.54,520.907 993.5,558C 969.883,577.474 942.883,589.307 912.5,593.5C 912.5,600.5 912.5,607.5 912.5,614.5C 911.508,607.352 911.175,600.019 911.5,592.5C 907.107,592.543 906.774,592.043 910.5,591C 907.518,590.502 904.518,590.335 901.5,590.5C 969.364,582.477 1014.53,546.144 1037,481.5C 1052.15,421.242 1037.65,369.409 993.5,326C 946.088,286.987 893.421,277.987 835.5,299C 782.853,323.662 752.353,364.828 744,422.5C 740.428,488.868 766.928,539.035 823.5,573C 830.96,576.732 838.626,579.898 846.5,582.5C 848.515,583.924 850.848,584.59 853.5,584.5C 860.669,586.088 867.669,587.755 874.5,589.5C 873.621,590.576 871.954,591.41 869.5,592C 870.416,592.278 871.082,592.778 871.5,593.5C 871.167,593.5 870.833,593.5 870.5,593.5C 815.508,583.341 776.008,553.008 752,502.5C 727.937,442.35 735.937,387.016 776,336.5C 810.423,298.525 853.256,280.525 904.5,282.5 Z"/></g>
<g><path style="opacity:1" fill="#f4f4f4" d="M 901.5,590.5 C 892.467,590.716 883.467,590.383 874.5,589.5C 867.669,587.755 860.669,586.088 853.5,584.5C 851.485,583.076 849.152,582.41 846.5,582.5C 838.626,579.898 830.96,576.732 823.5,573C 766.928,539.035 740.428,488.868 744,422.5C 752.353,364.828 782.853,323.662 835.5,299C 893.421,277.987 946.088,286.987 993.5,326C 1037.65,369.409 1052.15,421.242 1037,481.5C 1014.53,546.144 969.364,582.477 901.5,590.5 Z"/></g>
<g><path style="opacity:1" fill="#111111" d="M 978.5,481.5 C 978.5,477.5 978.5,473.5 978.5,469.5C 967.48,469.168 956.48,469.501 945.5,470.5C 945.624,471.107 945.957,471.44 946.5,471.5C 961.688,485.854 976.354,500.688 990.5,516C 991.167,516.667 991.833,516.667 992.5,516C 994.066,513.674 995.732,511.508 997.5,509.5C 998.648,508.105 999.648,508.272 1000.5,510C 999.62,511.356 999.286,512.856 999.5,514.5C 997.542,517.792 995.209,520.792 992.5,523.5C 961.758,493.425 931.425,463.092 901.5,432.5C 902.29,431.599 903.29,430.932 904.5,430.5C 906.148,431.81 907.814,433.143 909.5,434.5C 913.435,428.293 916.602,421.626 919,414.5C 920.167,413.333 921.333,412.167 922.5,411C 942.5,410.333 962.5,410.333 982.5,411C 988.258,417.009 992.091,424.175 994,432.5C 996.963,434.461 999.629,436.794 1002,439.5C 1002.67,448.833 1002.67,458.167 1002,467.5C 1000.89,469.037 999.39,469.703 997.5,469.5C 997.666,473.514 997.499,477.514 997,481.5C 996.5,482 996,482.5 995.5,483C 990.167,483.667 984.833,483.667 979.5,483C 978.944,482.617 978.611,482.117 978.5,481.5 Z"/></g>
<g><path style="opacity:1" fill="#575858" d="M 992.5,478.5 C 992.5,475.833 992.5,473.167 992.5,470.5C 989.167,470.5 985.833,470.5 982.5,470.5C 982.5,473.167 982.5,475.833 982.5,478.5C 981.523,475.713 981.19,472.713 981.5,469.5C 985.5,469.5 989.5,469.5 993.5,469.5C 993.81,472.713 993.477,475.713 992.5,478.5 Z"/></g>
<g><path style="opacity:1" fill="#858686" d="M 978.5,481.5 C 977.518,478.038 977.185,474.371 977.5,470.5C 966.986,470.172 956.653,470.506 946.5,471.5C 945.957,471.44 945.624,471.107 945.5,470.5C 956.48,469.501 967.48,469.168 978.5,469.5C 978.5,473.5 978.5,477.5 978.5,481.5 Z"/></g>
<g><path style="opacity:1" fill="#f3f3f3" d="M 993.5,438.5 C 994.794,439.29 995.961,440.29 997,441.5C 997.5,449.493 997.666,457.493 997.5,465.5C 978.164,465.667 958.83,465.5 939.5,465C 930.964,456.632 922.631,448.132 914.5,439.5C 940.661,438.502 966.995,438.169 993.5,438.5 Z"/></g>
<g><path style="opacity:1" fill="#a9acab" d="M 993.5,438.5 C 966.995,438.169 940.661,438.502 914.5,439.5C 913.957,439.44 913.624,439.107 913.5,438.5C 940.33,437.171 966.997,437.171 993.5,438.5 Z"/></g>
<g><path style="opacity:1" fill="#4b4c4c" d="M 766.5,412.5 C 766.72,417.1 766.054,421.433 764.5,425.5C 764.28,420.9 764.946,416.567 766.5,412.5 Z"/></g>
<g><path style="opacity:1" fill="#141414" d="M 999.5,514.5 C 999.286,512.856 999.62,511.356 1000.5,510C 999.648,508.272 998.648,508.105 997.5,509.5C 1013.62,482.812 1020.12,453.812 1017,422.5C 1016.24,416.943 1015.07,411.609 1013.5,406.5C 1013.59,403.848 1012.92,401.515 1011.5,399.5C 993.306,349.811 957.973,321.311 905.5,314C 871.921,310.254 842.254,319.087 816.5,340.5C 846.217,370.216 875.55,400.216 904.5,430.5C 903.29,430.932 902.29,431.599 901.5,432.5C 871.201,402.702 841.035,372.702 811,342.5C 810.333,341.167 810.333,339.833 811,338.5C 850.642,306.566 894.476,299.733 942.5,318C 987.081,338.585 1013.58,373.085 1022,421.5C 1025.29,455.345 1017.79,486.345 999.5,514.5 Z"/></g>
<g><path style="opacity:1" fill="#969696" d="M 1011.5,399.5 C 1012.92,401.515 1013.59,403.848 1013.5,406.5C 1012.08,404.485 1011.41,402.152 1011.5,399.5 Z"/></g>
<g><path style="opacity:1" fill="#f7f7f7" d="M 1011.5,399.5 C 1011.41,402.152 1012.08,404.485 1013.5,406.5C 1015.07,411.609 1016.24,416.943 1017,422.5C 1020.12,453.812 1013.62,482.812 997.5,509.5C 995.732,511.508 994.066,513.674 992.5,516C 991.833,516.667 991.167,516.667 990.5,516C 976.354,500.688 961.688,485.854 946.5,471.5C 956.653,470.506 966.986,470.172 977.5,470.5C 977.185,474.371 977.518,478.038 978.5,481.5C 978.611,482.117 978.944,482.617 979.5,483C 984.833,483.667 990.167,483.667 995.5,483C 996,482.5 996.5,482 997,481.5C 997.499,477.514 997.666,473.514 997.5,469.5C 999.39,469.703 1000.89,469.037 1002,467.5C 1002.67,458.167 1002.67,448.833 1002,439.5C 999.629,436.794 996.963,434.461 994,432.5C 992.091,424.175 988.258,417.009 982.5,411C 962.5,410.333 942.5,410.333 922.5,411C 921.333,412.167 920.167,413.333 919,414.5C 916.602,421.626 913.435,428.293 909.5,434.5C 907.814,433.143 906.148,431.81 904.5,430.5C 875.55,400.216 846.217,370.216 816.5,340.5C 842.254,319.087 871.921,310.254 905.5,314C 957.973,321.311 993.306,349.811 1011.5,399.5 Z"/></g>
<g><path style="opacity:1" fill="#e3e4e3" d="M 992.5,478.5 C 989.167,478.5 985.833,478.5 982.5,478.5C 982.5,475.833 982.5,473.167 982.5,470.5C 985.833,470.5 989.167,470.5 992.5,470.5C 992.5,473.167 992.5,475.833 992.5,478.5 Z"/></g>
<g><path style="opacity:1" fill="#5a5b5b" d="M 917.5,430.5 C 928.981,431.832 940.814,432.499 953,432.5C 965.005,432.5 976.838,432.167 988.5,431.5C 989.043,431.56 989.376,431.893 989.5,432.5C 965.176,433.5 940.842,433.833 916.5,433.5C 916.263,432.209 916.596,431.209 917.5,430.5 Z"/></g>
<g><path style="opacity:1" fill="#f4f4f4" d="M 988.5,431.5 C 976.838,432.167 965.005,432.5 953,432.5C 940.814,432.499 928.981,431.832 917.5,430.5C 918.937,425.623 920.937,420.956 923.5,416.5C 942.825,415.334 962.158,415.167 981.5,416C 984.53,420.891 986.864,426.058 988.5,431.5 Z"/></g>
<g><path style="opacity:1" fill="#111111" d="M 764.5,425.5 C 766.054,421.433 766.72,417.1 766.5,412.5C 770.525,392.454 778.858,374.454 791.5,358.5C 792.723,357.386 794.056,357.219 795.5,358C 856.179,418.178 916.179,478.678 975.5,539.5C 974.058,542.777 971.725,545.277 968.5,547C 924.879,576.183 879.546,579.183 832.5,556C 783.529,526.225 760.862,482.725 764.5,425.5 Z"/></g>
<g><path style="opacity:1" fill="#f7f7f7" d="M 840.5,409.5 C 828.167,410.167 815.833,410.833 803.5,411.5C 802.206,412.29 801.039,413.29 800,414.5C 796.945,420.333 794.278,426.333 792,432.5C 788.619,434.88 785.953,437.88 784,441.5C 783.333,450.167 783.333,458.833 784,467.5C 785.11,469.037 786.61,469.703 788.5,469.5C 788.203,473.767 788.536,477.934 789.5,482C 795.5,482.667 801.5,482.667 807.5,482C 808.056,481.617 808.389,481.117 808.5,480.5C 809.479,477.375 809.813,474.042 809.5,470.5C 825.833,470.5 842.167,470.5 858.5,470.5C 858.185,474.371 858.518,478.038 859.5,481.5C 859.611,482.117 859.944,482.617 860.5,483C 865.833,483.667 871.167,483.667 876.5,483C 877.381,482.292 878.047,481.458 878.5,480.5C 879.23,476.939 879.897,473.273 880.5,469.5C 881.5,468.833 882.5,468.167 883.5,467.5C 884.167,463.167 884.833,458.833 885.5,454.5C 913.073,482.411 941.073,510.744 969.5,539.5C 951.857,553.389 931.857,562.055 909.5,565.5C 900.518,566.218 891.518,566.552 882.5,566.5C 840.198,561.285 808.032,540.618 786,504.5C 763.138,461.979 762.805,419.313 785,376.5C 787.69,371.774 790.856,367.44 794.5,363.5C 809.521,379.188 824.854,394.521 840.5,409.5 Z"/></g>
<g><path style="opacity:1" fill="#a8a9a8" d="M 863.5,469.5 C 867.167,469.5 870.833,469.5 874.5,469.5C 874.5,472.5 874.5,475.5 874.5,478.5C 870.833,478.5 867.167,478.5 863.5,478.5C 863.5,475.5 863.5,472.5 863.5,469.5 Z"/></g>
<g><path style="opacity:1" fill="#928d8e" d="M 880.5,469.5 C 879.897,473.273 879.23,476.939 878.5,480.5C 877.92,476.351 878.586,472.684 880.5,469.5 Z"/></g>
<g><path style="opacity:1" fill="#f3f3f3" d="M 864.5,470.5 C 867.5,470.5 870.5,470.5 873.5,470.5C 873.5,472.833 873.5,475.167 873.5,477.5C 870.5,477.5 867.5,477.5 864.5,477.5C 864.5,475.167 864.5,472.833 864.5,470.5 Z"/></g>
<g><path style="opacity:1" fill="#dedede" d="M 793.5,469.5 C 796.833,469.5 800.167,469.5 803.5,469.5C 803.5,472.5 803.5,475.5 803.5,478.5C 800.167,478.5 796.833,478.5 793.5,478.5C 793.5,475.5 793.5,472.5 793.5,469.5 Z"/></g>
<g><path style="opacity:1" fill="#989a9a" d="M 859.5,481.5 C 858.518,478.038 858.185,474.371 858.5,470.5C 842.167,470.5 825.833,470.5 809.5,470.5C 809.813,474.042 809.479,477.375 808.5,480.5C 808.5,476.833 808.5,473.167 808.5,469.5C 825.5,469.5 842.5,469.5 859.5,469.5C 859.5,473.5 859.5,477.5 859.5,481.5 Z"/></g>
<g><path style="opacity:1" fill="#919194" d="M 885.5,454.5 C 884.833,458.833 884.167,463.167 883.5,467.5C 883.173,462.786 883.507,458.12 884.5,453.5C 885.107,453.624 885.44,453.957 885.5,454.5 Z"/></g>
<g><path style="opacity:1" fill="#f2f2f2" d="M 868.5,438.5 C 872.131,441.629 875.631,444.963 879,448.5C 879.806,454.084 879.639,459.584 878.5,465C 848.502,465.5 818.502,465.667 788.5,465.5C 788.334,457.826 788.5,450.159 789,442.5C 789.377,441.058 790.21,440.058 791.5,439.5C 817.122,438.518 842.789,438.185 868.5,438.5 Z"/></g>
<g><path style="opacity:1" fill="#a7aaa9" d="M 868.5,438.5 C 842.789,438.185 817.122,438.518 791.5,439.5C 791.611,438.883 791.944,438.383 792.5,438C 818.003,437.17 843.337,437.337 868.5,438.5 Z"/></g>
<g><path style="opacity:1" fill="#59595a" d="M 798.5,430.5 C 819.474,432.489 840.807,433.156 862.5,432.5C 841.006,433.497 819.34,433.831 797.5,433.5C 797.263,432.209 797.596,431.209 798.5,430.5 Z"/></g>
<g><path style="opacity:1" fill="#f4f4f4" d="M 862.5,432.5 C 840.807,433.156 819.474,432.489 798.5,430.5C 800.082,425.501 802.082,420.668 804.5,416C 818.5,415.333 832.5,415.333 846.5,416C 852.036,421.369 857.37,426.869 862.5,432.5 Z"/></g>
<g><path style="opacity:1" fill="#333434" d="M 840.5,409.5 C 841.043,409.56 841.376,409.893 841.5,410.5C 828.851,411.499 816.184,411.832 803.5,411.5C 815.833,410.833 828.167,410.167 840.5,409.5 Z"/></g>
<g><path style="opacity:1" fill="#383838" d="M 909.5,565.5 C 904.243,566.975 898.743,567.642 893,567.5C 889.317,567.499 885.817,567.165 882.5,566.5C 891.518,566.552 900.518,566.218 909.5,565.5 Z"/></g>
<g><path style="opacity:1" fill="#989898" d="M 846.5,582.5 C 849.152,582.41 851.485,583.076 853.5,584.5C 850.848,584.59 848.515,583.924 846.5,582.5 Z"/></g>
<g><path style="opacity:1" fill="#111111" d="M 874.5,589.5 C 883.467,590.383 892.467,590.716 901.5,590.5C 904.518,590.335 907.518,590.502 910.5,591C 906.774,592.043 907.107,592.543 911.5,592.5C 911.175,600.019 911.508,607.352 912.5,614.5C 913.272,657.498 913.438,700.498 913,743.5C 900,744.833 887,744.833 874,743.5C 873.5,724.503 873.333,705.503 873.5,686.5C 874.498,655.671 874.831,624.671 874.5,593.5C 873.5,593.5 872.5,593.5 871.5,593.5C 871.082,592.778 870.416,592.278 869.5,592C 871.954,591.41 873.621,590.576 874.5,589.5 Z"/></g>
<g><path style="opacity:1" fill="#f8f8f8" d="M 898.5,594.5 C 901.5,594.5 904.5,594.5 907.5,594.5C 907.5,617.5 907.5,640.5 907.5,663.5C 907.5,688.5 907.5,713.5 907.5,738.5C 897.833,738.5 888.167,738.5 878.5,738.5C 878.5,721.5 878.5,704.5 878.5,687.5C 879.498,657.005 879.831,626.338 879.5,595.5C 886.022,595.823 892.355,595.49 898.5,594.5 Z"/></g>
<g><path style="opacity:1" fill="#848585" d="M 870.5,593.5 C 870.833,593.5 871.167,593.5 871.5,593.5C 872.5,593.5 873.5,593.5 874.5,593.5C 874.831,624.671 874.498,655.671 873.5,686.5C 873.5,655.833 873.5,625.167 873.5,594.5C 872.209,594.737 871.209,594.404 870.5,593.5 Z"/></g>
<g><path style="opacity:1" fill="#6a6a69" d="M 898.5,594.5 C 892.355,595.49 886.022,595.823 879.5,595.5C 879.831,626.338 879.498,657.005 878.5,687.5C 878.5,656.5 878.5,625.5 878.5,594.5C 885.167,594.5 891.833,594.5 898.5,594.5 Z"/></g>
<g><path style="opacity:1" fill="#9d9e9e" d="M 907.5,663.5 C 908.498,688.661 908.831,713.995 908.5,739.5C 898.319,739.827 888.319,739.494 878.5,738.5C 888.167,738.5 897.833,738.5 907.5,738.5C 907.5,713.5 907.5,688.5 907.5,663.5 Z"/></g>
</svg>