<?xml version="1.0" encoding="UTF-8" standalone="no"?>
<svg xmlns="http://www.w3.org/2000/svg" fill-rule="nonzero" clip-rule="evenodd" stroke-miterlimit="10" style="fill-rule:nonzero;clip-rule:evenodd;stroke-linecap:round;stroke-linejoin:round;"
     viewBox="806.9 665.0 140.6 179.7" xml:space="preserve">
<g opacity="1">
<path d="M858.5 677.5C874.913 676.963 891.246 677.796 907.5 680C911.426 680.58 912.926 682.747 912 686.5C899.371 701.476 898.371 717.142 909 733.5C931.198 752.681 935.532 775.348 922 801.5C918.064 807.273 913.564 812.606 908.5 817.5C909.544 819.768 909.711 822.101 909 824.5C906.531 826.652 903.698 828.152 900.5 829C882.734 832.617 865.067 832.284 847.5 828C843.441 825.533 842.441 822.033 844.5 817.5C825.077 800.735 818.91 780.068 826 755.5C831.191 746.637 837.524 738.637 845 731.5C852.288 718.485 852.288 705.485 845 692.5C842.757 689.926 840.924 687.092 839.5 684C839.759 682.739 840.426 681.739 841.5 681C847.199 679.311 852.865 678.144 858.5 677.5Z" fill="#171818" fill-rule="evenodd" opacity="1" stroke="none"/>
<path d="M845.5 687.5C855.538 689.227 865.705 690.227 876 690.5C886.18 689.732 896.347 689.232 906.5 689C896.928 702.628 896.095 716.794 904 731.5C910.042 737.873 915.708 744.54 921 751.5C931.432 775.952 926.599 797.119 906.5 815C889.982 821.974 872.982 823.307 855.5 819C847.299 816.48 840.799 811.647 836 804.5C823.732 787.267 822.399 769.267 832 750.5C837 744.833 842 739.167 847 733.5C855.92 717.866 855.42 702.533 845.5 687.5Z" fill="#f7f8f8" fill-rule="evenodd" opacity="1" stroke="none"/>
<path d="M855.5 680.5C868.504 680.333 881.504 680.5 894.5 681C899.721 681.272 904.721 682.272 909.5 684C903.91 685.37 898.243 686.37 892.5 687C880.833 687.667 869.167 687.667 857.5 687C852.572 686.574 847.906 685.407 843.5 683.5C847.582 682.311 851.582 681.311 855.5 680.5Z" fill="#eaeaea" fill-rule="evenodd" opacity="1" stroke="none"/>
<path d="M904.5 818.5C905.649 818.791 906.316 819.624 906.5 821C906.333 821.833 906.167 822.667 906 823.5C903.602 824.856 901.102 826.023 898.5 827C882.399 830.615 866.399 830.281 850.5 826C847.36 825 846.027 822.833 846.5 819.5C862.622 823.762 878.955 824.595 895.5 822C898.718 821.1 901.718 819.933 904.5 818.5Z" fill="#e7e7e7" fill-rule="evenodd" opacity="1" stroke="none"/>
</g>
</svg>