<?xml version="1.0" encoding="UTF-8"?>
<svg xmlns="http://www.w3.org/2000/svg" version="1.1" viewBox="1145.92 896.22 122.34 110.28" width="122.34" height="110.28" style="fill-rule:nonzero;clip-rule:evenodd;stroke-linecap:round;stroke-linejoin:round;" xml:space="preserve">
<g opacity="1">
<path d="M1189.5 903.5C1201.2 902.22 1210.03 906.554 1216 916.5C1218.13 922.347 1219.63 928.347 1220.5 934.5C1227.85 938.342 1234.18 943.509 1239.5 950C1245.98 954.103 1252.82 954.603 1260 951.5C1260.77 951.645 1261.44 951.978 1262 952.5C1262.26 955.017 1261.59 957.35 1260 959.5C1249.95 974.055 1236.11 982.055 1218.5 983.5C1218.5 987.167 1218.5 990.833 1218.5 994.5C1221.16 994.162 1223.49 994.829 1225.5 996.5C1225.17 996.833 1224.83 997.167 1224.5 997.5C1218.8 995.693 1213.63 996.693 1209 1000.5C1208.5 1000.17 1208 999.833 1207.5 999.5C1208.5 998.667 1209.5 997.833 1210.5 997C1208.29 996.374 1206.12 996.541 1204 997.5C1202.19 996.576 1202.36 995.743 1204.5 995C1200.33 994.168 1196.5 995.002 1193 997.5C1192.5 997.167 1192 996.833 1191.5 996.5C1192.67 995.416 1194 994.583 1195.5 994C1192.39 993.877 1189.39 993.71 1186.5 993.5C1186.71 992.914 1187.04 992.414 1187.5 992C1191.82 991.501 1196.15 991.334 1200.5 991.5C1200.82 988.428 1200.48 985.428 1199.5 982.5C1177.82 974.816 1167.82 959.482 1169.5 936.5C1151.92 931.121 1152.25 926.287 1170.5 922C1174.11 912.891 1180.44 906.724 1189.5 903.5Z" fill="#1a1a1a" fill-rule="evenodd" opacity="1" stroke="none" />
<path d="M1163.5 932.5C1165.61 931.532 1167.94 931.198 1170.5 931.5C1170.5 932.5 1170.5 933.5 1170.5 934.5C1168.08 934.122 1165.75 933.455 1163.5 932.5Z" fill="#e7e5e7" fill-rule="evenodd" opacity="1" stroke="none" />
<path d="M1168.5 924.5C1169.5 924.5 1170.5 924.5 1171.5 924.5C1171.5 926.167 1171.5 927.833 1171.5 929.5C1167.49 929.666 1163.49 929.499 1159.5 929C1162.59 927.454 1165.59 925.954 1168.5 924.5Z" fill="#dadbda" fill-rule="evenodd" opacity="1" stroke="none" />
<path d="M1187.5 906.5C1200.38 904.189 1209.55 908.856 1215 920.5C1216.17 925.5 1217.33 930.5 1218.5 935.5C1225.94 940.768 1232.94 946.602 1239.5 953C1245.55 956.209 1251.88 957.376 1258.5 956.5C1245.4 976.043 1227.07 984.21 1203.5 981C1176.84 973.005 1167.17 955.672 1174.5 929C1173.61 926.192 1173.45 923.359 1174 920.5C1176.69 913.981 1181.19 909.314 1187.5 906.5Z" fill="#f4f4f4" fill-rule="evenodd" opacity="1" stroke="none" />
<path d="M1202.5 943.5C1203.38 943.369 1204.04 943.702 1204.5 944.5C1202.15 948.643 1201.98 952.977 1204 957.5C1208.14 964.815 1214.3 969.148 1222.5 970.5C1227.35 970.301 1227.69 968.801 1223.5 966C1224 965.833 1224.5 965.667 1225 965.5C1230.1 968.413 1234.93 968.079 1239.5 964.5C1238.09 963.376 1236.59 962.376 1235 961.5C1234.31 960.668 1234.48 960.002 1235.5 959.5C1239.02 960.845 1241.19 963.178 1242 966.5C1235.6 968.59 1229.26 970.59 1223 972.5C1209.51 971.008 1202.01 963.508 1200.5 950C1200.48 947.59 1201.15 945.423 1202.5 943.5Z" fill="#1b1b1b" fill-rule="evenodd" opacity="1" stroke="none" />
<path d="M1189.5 920.5C1191.14 920.286 1192.64 920.62 1194 921.5C1195.67 928.18 1193.67 929.846 1188 926.5C1187.25 924.16 1187.75 922.16 1189.5 920.5Z" fill="#111111" fill-rule="evenodd" opacity="1" stroke="none" />
<path d="M1202.5 983.5C1206.8 984.2 1211.13 984.533 1215.5 984.5C1215.5 987.5 1215.5 990.5 1215.5 993.5C1211.14 993.414 1206.81 993.08 1202.5 992.5C1202.5 989.5 1202.5 986.5 1202.5 983.5Z" fill="#eeeeef" fill-rule="evenodd" opacity="1" stroke="none" />
</g>

</svg>