<?xml version="1.0" encoding="UTF-8"?>
<svg xmlns="http://www.w3.org/2000/svg" version="1.1" viewBox="36.17 374.11 251.50 179.71" width="251.50" height="179.71" style="overflow:visible;" xml:space="preserve">
<g>
<path d="M264.5 467.5C241.221 490.113 218.221 513.113 195.5 536.5C187.779 542.133 179.112 543.966 169.5 542C130.386 526.276 91.3861 510.276 52.5 494C47.8235 490.078 46.4901 485.245 48.5 479.5C50.4935 481.499 52.8268 482.999 55.5 484C95.0583 499.113 134.392 514.78 173.5 531C180.388 532.344 186.722 531.01 192.5 527C215.333 504.167 238.167 481.333 261 458.5C261.688 457.668 261.521 457.002 260.5 456.5C237.043 478.456 214.043 500.956 191.5 524C185.02 528.498 178.02 529.498 170.5 527C130.725 510.446 90.7254 494.446 50.5 479C46.5151 473.538 47.0151 468.371 52 463.5C76.2628 438.899 101.43 415.399 127.5 393C135.491 386.377 144.491 384.71 154.5 388C193.733 402.077 232.733 416.744 271.5 432C275.982 435.705 276.649 440.038 273.5 445C274.449 445.617 275.282 445.451 276 444.5C276.667 447.5 276.667 450.5 276 453.5C272.71 458.622 268.877 463.289 264.5 467.5Z" fill="#efefef" fill-rule="evenodd" opacity="1" stroke="none" />
<path d="M266.5 469.5C266.5 468.167 265.833 467.5 264.5 467.5C268.877 463.289 272.71 458.622 276 453.5C276.667 450.5 276.667 447.5 276 444.5C275.282 445.451 274.449 445.617 273.5 445C276.649 440.038 275.982 435.705 271.5 432C232.733 416.744 193.733 402.077 154.5 388C144.491 384.71 135.491 386.377 127.5 393C101.43 415.399 76.2628 438.899 52 463.5C47.0151 468.371 46.5151 473.538 50.5 479C90.7254 494.446 130.725 510.446 170.5 527C178.02 529.498 185.02 528.498 191.5 524C214.043 500.956 237.043 478.456 260.5 456.5C261.521 457.002 261.688 457.668 261 458.5C238.167 481.333 215.333 504.167 192.5 527C186.722 531.01 180.388 532.344 173.5 531C134.392 514.78 95.0583 499.113 55.5 484C52.8268 482.999 50.4935 481.499 48.5 479.5C46.4901 485.245 47.8235 490.078 52.5 494C91.3861 510.276 130.386 526.276 169.5 542C179.112 543.966 187.779 542.133 195.5 536.5C196.338 536.842 196.672 537.508 196.5 538.5C193.525 541.661 189.858 543.828 185.5 545C179.098 545.818 172.765 545.484 166.5 544C129.167 529 91.8333 514 54.5 499C51 496.833 48.1667 494 46 490.5C44.5043 483.901 44.171 477.234 45 470.5C48.9856 462.838 54.1523 456.005 60.5 450C82.644 429.433 104.977 409.1 127.5 389C134.679 383.778 142.679 382.111 151.5 384C192.622 398.151 233.288 413.485 273.5 430C276.106 431.938 277.939 434.438 279 437.5C279.667 443.167 279.667 448.833 279 454.5C278.333 455.833 277.667 457.167 277 458.5C273.484 462.241 269.984 465.908 266.5 469.5Z" fill="#171717" fill-rule="evenodd" opacity="1" stroke="none" />
<path d="M117.5 413.5C121.719 412.979 125.386 414.146 128.5 417C125.808 417.43 123.141 417.263 120.5 416.5C120.33 417.822 120.663 418.989 121.5 420C126.161 421.723 130.828 423.556 135.5 425.5C137.98 424.585 138.647 423.085 137.5 421C138.793 420.51 140.127 420.343 141.5 420.5C141.657 421.873 141.49 423.207 141 424.5C136.579 429.594 131.579 433.927 126 437.5C118.785 434.877 111.785 431.877 105 428.5C104.333 427.167 104.333 425.833 105 424.5C109.36 420.968 113.527 417.301 117.5 413.5Z" fill="#171717" fill-rule="evenodd" opacity="1" stroke="none" />
<path d="M118.5 422.5C123.826 423.442 128.826 425.275 133.5 428C131.5 430 129.5 432 127.5 434C122.938 432.984 118.438 431.484 114 429.5C113.333 428.833 113.333 428.167 114 427.5C115.707 425.963 117.207 424.296 118.5 422.5Z" fill="#e9e9e9" fill-rule="evenodd" opacity="1" stroke="none" />
<path d="M116.5 417.5C118.344 418.204 118.844 419.537 118 421.5C115.555 422.977 113.388 424.81 111.5 427C110.056 427.781 108.723 427.614 107.5 426.5C110.34 423.265 113.34 420.265 116.5 417.5Z" fill="#dbdcdc" fill-rule="evenodd" opacity="1" stroke="none" />
<path d="M141.5 393.5C149.201 393.567 156.368 395.567 163 399.5C163.667 400.833 163.667 402.167 163 403.5C158.533 406.965 154.367 410.798 150.5 415C141.986 414.718 134.153 412.218 127 407.5C126.333 406.5 126.333 405.5 127 404.5C130.317 401.017 133.984 398.017 138 395.5C139.257 395.85 139.591 396.517 139 397.5C135.535 399.963 132.369 402.796 129.5 406C131.044 407.187 132.711 407.52 134.5 407C136.35 404.982 138.35 403.149 140.5 401.5C141.48 398.914 141.813 396.247 141.5 393.5Z" fill="#181818" fill-rule="evenodd" opacity="1" stroke="none" />
<path d="M141.5 402.5C145.947 403.426 150.28 404.76 154.5 406.5C152.535 410.345 149.535 412.179 145.5 412C141.973 411.049 138.64 409.716 135.5 408C137.396 405.932 139.396 404.099 141.5 402.5Z" fill="#ebebeb" fill-rule="evenodd" opacity="1" stroke="none" />
<path d="M143.5 395.5C149.467 396.711 155.134 398.711 160.5 401.5C159.167 402.5 157.833 403.5 156.5 404.5C152.461 403.098 148.461 401.598 144.5 400C143.62 398.644 143.286 397.144 143.5 395.5Z" fill="#e1e3e2" fill-rule="evenodd" opacity="1" stroke="none" />
<path d="M205.5 415.5C213.788 417.43 221.788 420.263 229.5 424C230.022 424.561 230.355 425.228 230.5 426C226.534 429.636 222.868 433.636 219.5 438C217.656 439.182 215.823 440.349 214 441.5C206.538 438.767 199.204 435.767 192 432.5C191.334 429.504 192.501 427.504 195.5 426.5C195.694 428.07 195.694 429.57 195.5 431C200.823 432.994 206.157 434.994 211.5 437C212.833 437.667 214.167 437.667 215.5 437C217.5 435 219.5 433 221.5 431C216.376 428.459 211.042 426.626 205.5 425.5C206.025 420.882 204.692 419.882 201.5 422.5C201.167 422.167 200.833 421.833 200.5 421.5C202.19 419.481 203.856 417.481 205.5 415.5Z" fill="#1c1c1c" fill-rule="evenodd" opacity="1" stroke="none" />
<path d="M208.5 418.5C214.827 420.602 220.827 423.269 226.5 426.5C225.829 427.946 224.662 428.612 223 428.5C218.899 426.869 214.733 425.369 210.5 424C208.808 422.599 208.141 420.766 208.5 418.5Z" fill="#dfdfdf" fill-rule="evenodd" opacity="1" stroke="none" />
<path d="M172.5 403.5C180.564 405.447 188.398 408.114 196 411.5C196.667 412.833 196.667 414.167 196 415.5C191.405 419.55 186.905 423.717 182.5 428C179.437 427.957 176.437 427.623 173.5 427C179.835 434.263 187.668 439.43 197 442.5C197.591 443.483 197.257 444.15 196 444.5C194.527 444.097 193.194 443.43 192 442.5C191.833 442.833 191.667 443.167 191.5 443.5C194.129 448.671 194.129 453.838 191.5 459C192.167 459.667 192.833 459.667 193.5 459C197 455.5 200.5 452 204 448.5C204.483 447.552 204.649 446.552 204.5 445.5C207.166 445.066 208.333 446.066 208 448.5C203.5 453 199 457.5 194.5 462C192.5 462.333 190.5 462.667 188.5 463C186.983 464.685 185.316 466.185 183.5 467.5C184.833 468.62 185.333 469.953 185 471.5C181.167 475.333 177.333 479.167 173.5 483C172.127 483.875 170.627 484.375 169 484.5C162.428 481.88 155.761 479.546 149 477.5C147.234 478.233 145.401 478.567 143.5 478.5C142.911 473.772 141.578 473.105 139.5 476.5C138.548 474.955 138.215 473.288 138.5 471.5C130.934 469.894 123.601 467.394 116.5 464C115.643 463.311 114.977 462.478 114.5 461.5C116.149 459.35 117.982 457.35 120 455.5C121.407 450.603 123.573 446.103 126.5 442C134.128 436.04 141.462 429.707 148.5 423C151.336 420.416 154.669 419.249 158.5 419.5C158.284 417.319 159.117 415.653 161 414.5C161.49 415.793 161.657 417.127 161.5 418.5C162.873 418.657 164.207 418.49 165.5 418C167.35 415.982 169.35 414.149 171.5 412.5C172.631 410.926 172.798 409.259 172 407.5C170.815 409.559 169.648 409.726 168.5 408C169.344 405.993 170.677 404.493 172.5 403.5Z" fill="#181818" fill-rule="evenodd" opacity="1" stroke="none" />
<path d="M154.5 422.5C158.637 422.146 162.637 422.646 166.5 424C169.87 427.035 172.87 430.368 175.5 434C181.589 436.759 186.423 440.926 190 446.5C191.537 455.259 188.371 461.759 180.5 466C177.102 467.916 173.435 468.916 169.5 469C160.401 477.307 151.068 477.641 141.5 470C137.082 468.194 132.749 466.194 128.5 464C123.746 458.28 123.246 452.114 127 445.5C128.154 444.257 129.488 443.257 131 442.5C130.377 445.437 130.043 448.437 130 451.5C132.541 454.522 135.707 456.022 139.5 456C137.04 454.542 134.873 452.709 133 450.5C132.348 447.406 132.682 444.406 134 441.5C140.159 434.355 146.992 428.022 154.5 422.5Z" fill="#f5f5f5" fill-rule="evenodd" opacity="1" stroke="none" />
<path d="M173.5 413.5C178.637 414.702 183.637 416.369 188.5 418.5C185.801 421.036 182.968 423.369 180 425.5C175.42 423.862 170.92 422.029 166.5 420C168.729 417.6 171.063 415.433 173.5 413.5Z" fill="#eeeeee" fill-rule="evenodd" opacity="1" stroke="none" />
<path d="M175.5 406.5C181.638 408.436 187.638 410.769 193.5 413.5C192.788 415.046 191.622 416.046 190 416.5C185.294 414.394 180.461 412.727 175.5 411.5C175.5 409.833 175.5 408.167 175.5 406.5Z" fill="#e9e9e9" fill-rule="evenodd" opacity="1" stroke="none" />
<path d="M238.5 428.5C246.839 430.223 254.673 433.223 262 437.5C262.667 438.833 262.667 440.167 262 441.5C257.833 445.667 253.667 449.833 249.5 454C241.075 452.19 232.908 449.357 225 445.5C224.333 444.167 224.333 442.833 225 441.5C230.003 437.664 234.503 433.33 238.5 428.5Z" fill="#191919" fill-rule="evenodd" opacity="1" stroke="none" />
<path d="M239.5 438.5C245.04 439.903 250.373 441.903 255.5 444.5C252.859 446.804 250.192 449.138 247.5 451.5C242.717 449.686 238.05 447.686 233.5 445.5C235.523 443.147 237.523 440.814 239.5 438.5Z" fill="#ebebeb" fill-rule="evenodd" opacity="1" stroke="none" />
<path d="M241.5 431.5C247.755 433.585 253.755 436.252 259.5 439.5C258.855 440.646 258.022 441.646 257 442.5C252.089 439.808 246.923 437.808 241.5 436.5C241.5 434.833 241.5 433.167 241.5 431.5Z" fill="#e5e5e5" fill-rule="evenodd" opacity="1" stroke="none" />
<path d="M237.5 432.5C238.613 433.946 238.78 435.613 238 437.5C235.795 440.04 233.295 442.207 230.5 444C229.365 444.749 228.365 444.583 227.5 443.5C230.384 439.399 233.717 435.732 237.5 432.5Z" fill="#e1e2e2" fill-rule="evenodd" opacity="1" stroke="none" />
<path d="M95.5 433.5C99.6726 433.419 103.339 434.752 106.5 437.5C105.833 437.833 105.167 438.167 104.5 438.5C102.675 437.349 100.675 436.682 98.5 436.5C98.238 437.978 98.5713 439.311 99.5 440.5C104.167 442.5 108.833 444.5 113.5 446.5C115.756 445.579 116.756 443.912 116.5 441.5C117.5 441.5 118.5 441.5 119.5 441.5C119.657 442.873 119.49 444.207 119 445.5C115.167 449.333 111.333 453.167 107.5 457C105.635 458.301 103.635 458.635 101.5 458C95.3853 455.776 89.3853 453.276 83.5 450.5C82.3691 448.926 82.2025 447.259 83 445.5C87.6688 441.997 91.8355 437.997 95.5 433.5Z" fill="#191919" fill-rule="evenodd" opacity="1" stroke="none" />
<path d="M96.5 443.5C101.994 444.053 106.994 445.886 111.5 449C109.5 451 107.5 453 105.5 455C104.167 455.667 102.833 455.667 101.5 455C97.6667 453.448 94.0001 451.615 90.5 449.5C92.215 447.118 94.215 445.118 96.5 443.5Z" fill="#edecec" fill-rule="evenodd" opacity="1" stroke="none" />
<path d="M95.5 437.5C96.6129 438.946 96.7796 440.613 96 442.5C93.5551 443.977 91.3884 445.81 89.5 448C88.0563 448.781 86.723 448.614 85.5 447.5C89.1877 444.479 92.5211 441.146 95.5 437.5Z" fill="#e7e8e8" fill-rule="evenodd" opacity="1" stroke="none" />
<path d="M120.5 457.5C121.725 458.937 122.725 460.604 123.5 462.5C121.997 463.052 120.331 463.052 118.5 462.5C118.392 460.486 119.058 458.82 120.5 457.5Z" fill="#d2d2d2" fill-rule="evenodd" opacity="1" stroke="none" />
<path d="M174.5 457.5C176.028 457.517 176.528 458.184 176 459.5C171.894 463.312 167.061 465.145 161.5 465C166.117 462.763 170.45 460.263 174.5 457.5Z" fill="#232324" fill-rule="evenodd" opacity="1" stroke="none" />
<path d="M216.5 450.5C224.593 452.796 232.426 455.796 240 459.5C240.667 460.833 240.667 462.167 240 463.5C235.833 467.667 231.667 471.833 227.5 476C218.38 475.182 209.88 472.349 202 467.5C201.333 466.5 201.333 465.5 202 464.5C207.363 460.302 212.196 455.636 216.5 450.5Z" fill="#171717" fill-rule="evenodd" opacity="1" stroke="none" />
<path d="M216.5 460.5C222.046 461.905 227.38 463.905 232.5 466.5C230.684 468.817 228.684 470.984 226.5 473C220.389 472.453 214.723 470.453 209.5 467C212.331 465.334 214.664 463.168 216.5 460.5Z" fill="#eceded" fill-rule="evenodd" opacity="1" stroke="none" />
<path d="M218.5 454.5C225.142 455.988 231.476 458.321 237.5 461.5C236.573 463.946 234.906 464.779 232.5 464C228.286 461.814 223.953 459.814 219.5 458C218.663 456.989 218.33 455.822 218.5 454.5Z" fill="#e7e7e7" fill-rule="evenodd" opacity="1" stroke="none" />
<path d="M214.5 455.5C216.344 456.204 216.844 457.537 216 459.5C213.561 462.612 210.561 464.945 207 466.5C206.5 466.167 206 465.833 205.5 465.5C208.522 462.147 211.522 458.813 214.5 455.5Z" fill="#d9d9da" fill-rule="evenodd" opacity="1" stroke="none" />
<path d="M73.5 455.5C76.8934 455.062 79.8934 455.895 82.5 458C80.8659 458.494 79.1992 458.66 77.5 458.5C77.238 459.978 77.5713 461.311 78.5 462.5C81.0876 463.194 83.421 464.36 85.5 466C81.8432 465.892 78.1765 465.892 74.5 466C72.316 468.016 70.316 470.183 68.5 472.5C73.1793 475.34 78.1793 476.84 83.5 477C87.0287 474.669 89.0287 471.503 89.5 467.5C94.2442 467.962 95.2442 466.462 92.5 463C96.3361 462.175 97.8361 463.675 97 467.5C92.8333 471.667 88.6667 475.833 84.5 480C75.717 479.861 67.8836 477.028 61 471.5C60.3333 470.5 60.3333 469.5 61 468.5C65.315 464.351 69.4816 460.018 73.5 455.5Z" fill="#181818" fill-rule="evenodd" opacity="1" stroke="none" />
<path d="M73.5 459.5C74.6129 460.946 74.7796 462.613 74 464.5C71.2047 466.293 68.7047 468.46 66.5 471C64.3333 471.5 63.5 470.667 64 468.5C67.1454 465.368 70.3121 462.368 73.5 459.5Z" fill="#dfe0e0" fill-rule="evenodd" opacity="1" stroke="none" />
<path d="M106.5 468.5C110.229 468.576 113.562 469.743 116.5 472C114.432 472.687 112.432 472.52 110.5 471.5C109.253 473.006 109.253 474.506 110.5 476C115.206 477.735 119.873 479.569 124.5 481.5C127.174 480.501 127.841 478.834 126.5 476.5C130.083 475.27 131.249 476.604 130 480.5C125.5 485 121 489.5 116.5 494C108.148 492.747 100.315 489.914 93 485.5C92.3333 484.167 92.3333 482.833 93 481.5C97.3954 476.936 101.895 472.602 106.5 468.5Z" fill="#191919" fill-rule="evenodd" opacity="1" stroke="none" />
<path d="M179.5 469.5C181.028 469.517 181.528 470.184 181 471.5C177.61 475.393 173.777 478.727 169.5 481.5C166.309 480.825 163.309 479.658 160.5 478C163.807 477.347 166.473 475.681 168.5 473C172.679 473.064 176.345 471.898 179.5 469.5Z" fill="#eaeaea" fill-rule="evenodd" opacity="1" stroke="none" />
<path d="M105.5 472.5C107.344 473.204 107.844 474.537 107 476.5C103.885 478.647 101.052 481.147 98.5 484C97.365 484.749 96.365 484.583 95.5 483.5C98.8554 479.813 102.189 476.147 105.5 472.5Z" fill="#dedfdf" fill-rule="evenodd" opacity="1" stroke="none" />
<path d="M106.5 478.5C112.192 479.231 117.525 481.064 122.5 484C119.984 486.683 117.317 489.183 114.5 491.5C109.571 490.033 104.904 488.033 100.5 485.5C102.523 483.147 104.523 480.814 106.5 478.5Z" fill="#e7e8e8" fill-rule="evenodd" opacity="1" stroke="none" />
<path d="M193.5 473.5C197.719 472.979 201.386 474.146 204.5 477C201.808 477.43 199.141 477.263 196.5 476.5C196.33 477.822 196.663 478.989 197.5 480C202.392 482.029 207.226 484.196 212 486.5C215.137 485.055 215.303 483.222 212.5 481C216.506 480.013 218.339 481.513 218 485.5C214.167 489.333 210.333 493.167 206.5 497C204.305 498.373 201.971 498.706 199.5 498C193.085 495.528 186.752 492.862 180.5 490C179.483 488.951 179.316 487.784 180 486.5C184.395 481.936 188.895 477.602 193.5 473.5Z" fill="#191919" fill-rule="evenodd" opacity="1" stroke="none" />
<path d="M193.5 482.5C199.583 483.299 204.917 485.632 209.5 489.5C207.702 492.473 205.202 494.473 202 495.5C197.679 493.841 193.345 492.174 189 490.5C187.743 490.15 187.409 489.483 188 488.5C190.04 486.63 191.873 484.63 193.5 482.5Z" fill="#e8e8e8" fill-rule="evenodd" opacity="1" stroke="none" />
<path d="M193.5 482.5C190.536 484.448 187.536 486.448 184.5 488.5C184.167 488 183.833 487.5 183.5 487C186.6 483.9 189.767 480.733 193 477.5C193.494 479.134 193.66 480.801 193.5 482.5Z" fill="#e0e0e1" fill-rule="evenodd" opacity="1" stroke="none" />
<path d="M171.5 495.5C175.22 495.296 178.553 496.296 181.5 498.5C179.276 499.78 177.276 499.447 175.5 497.5C174.386 498.723 174.219 500.056 175 501.5C180.321 504.163 185.821 505.996 191.5 507C192.727 505.413 192.394 504.079 190.5 503C193.259 502.023 195.259 502.856 196.5 505.5C192.682 509.818 188.682 513.985 184.5 518C180.195 519.923 175.862 519.923 171.5 518C167.581 516.138 163.581 514.471 159.5 513C158.426 512.261 157.759 511.261 157.5 510C161.685 504.649 166.352 499.816 171.5 495.5Z" fill="#1c1c1c" fill-rule="evenodd" opacity="1" stroke="none" />
<path d="M138.5 481.5C142.495 480.883 145.828 482.049 148.5 485C146.765 485.651 145.098 485.485 143.5 484.5C142.167 485.833 142.167 487.167 143.5 488.5C148.291 490.647 153.125 492.647 158 494.5C160.13 493.072 161.13 491.405 161 489.5C163.995 490.518 164.328 492.184 162 494.5C157.801 499.034 153.301 503.201 148.5 507C140.674 505.725 133.174 503.225 126 499.5C125.333 497.833 125.333 496.167 126 494.5C130.37 490.298 134.537 485.964 138.5 481.5Z" fill="#1a1a1b" fill-rule="evenodd" opacity="1" stroke="none" />
<path d="M140.5 490.5C145.742 492.121 150.742 494.288 155.5 497C152.911 500.097 149.911 502.597 146.5 504.5C142.467 503.1 138.467 501.6 134.5 500C133.549 499.282 133.383 498.449 134 497.5C136.372 495.297 138.539 492.963 140.5 490.5Z" fill="#ededed" fill-rule="evenodd" opacity="1" stroke="none" />
<path d="M138.5 485.5C139.613 486.946 139.78 488.613 139 490.5C136.205 492.293 133.705 494.46 131.5 497C130.365 497.749 129.365 497.583 128.5 496.5C131.855 492.813 135.189 489.147 138.5 485.5Z" fill="#eaeaea" fill-rule="evenodd" opacity="1" stroke="none" />
<path d="M170.5 499.5C172.344 500.204 172.844 501.537 172 503.5C169.78 506.021 167.28 508.188 164.5 510C163.056 510.781 161.723 510.614 160.5 509.5C164.188 506.479 167.521 503.146 170.5 499.5Z" fill="#e0e1e0" fill-rule="evenodd" opacity="1" stroke="none" />
<path d="M172.5 504.5C178.042 505.626 183.376 507.459 188.5 510C186.167 512.333 183.833 514.667 181.5 517C180.167 517.667 178.833 517.667 177.5 517C173.417 515.818 169.75 513.984 166.5 511.5C168.523 509.147 170.523 506.814 172.5 504.5Z" fill="#ededed" fill-rule="evenodd" opacity="1" stroke="none" />
<path d="M264.5 467.5C265.833 467.5 266.5 468.167 266.5 469.5C243.167 492.5 219.833 515.5 196.5 538.5C196.672 537.508 196.338 536.842 195.5 536.5C218.221 513.113 241.221 490.113 264.5 467.5Z" fill="#070707" fill-rule="evenodd" opacity="1" stroke="none" />
</g>

</svg>