<?xml version="1.0" encoding="UTF-8" standalone="no"?>
<svg xmlns="http://www.w3.org/2000/svg" fill-rule="nonzero" clip-rule="evenodd" stroke-miterlimit="10" style="fill-rule:nonzero;clip-rule:evenodd;stroke-linecap:round;stroke-linejoin:round;"
     viewBox="1018.2 687.7 215.9 139.3" xml:space="preserve">
<g opacity="1">
<path d="M1111.5 701.5C1130.25 699.704 1143.92 707.037 1152.5 723.5C1170.27 717.91 1182.77 723.577 1190 740.5C1190.5 743.146 1190.66 745.813 1190.5 748.5C1213.57 751.984 1222.07 764.984 1216 787.5C1208.55 801.115 1197.05 806.282 1181.5 803C1179.28 802.305 1177.11 801.472 1175 800.5C1159.62 813.959 1143.45 814.959 1126.5 803.5C1114.73 812.297 1102.07 813.797 1088.5 808C1085.01 805.509 1081.84 802.675 1079 799.5C1067.05 806.304 1055.21 806.138 1043.5 799C1030.21 785.303 1030.21 771.636 1043.5 758C1046.36 755.82 1049.53 754.32 1053 753.5C1053.42 740.76 1059.58 732.26 1071.5 728C1076.52 727.502 1081.52 727.668 1086.5 728.5C1086.51 723.643 1088.01 719.31 1091 715.5C1096.32 708.437 1103.15 703.771 1111.5 701.5Z" fill="#181818" fill-rule="evenodd" opacity="1" stroke="none"/>
<path d="M1111.5 704.5C1128.44 702.049 1140.6 708.382 1148 723.5C1148.49 724.793 1148.66 726.127 1148.5 727.5C1160.53 721.399 1171.69 722.733 1182 731.5C1186.88 737.261 1188.72 743.928 1187.5 751.5C1207.5 752.331 1216.67 762.664 1215 782.5C1211.99 792.845 1205.15 799.011 1194.5 801C1186.97 801.994 1179.97 800.494 1173.5 796.5C1164.35 808.061 1152.68 811.561 1138.5 807C1134.1 805.094 1130.1 802.594 1126.5 799.5C1114.52 809.416 1101.52 810.916 1087.5 804C1084.33 801.994 1081.66 799.494 1079.5 796.5C1068.21 802.866 1056.88 803.033 1045.5 797C1035.77 787.921 1033.94 777.421 1040 765.5C1043.95 759.864 1049.28 756.531 1056 755.5C1055.91 737.589 1064.74 729.423 1082.5 731C1084.22 731.346 1085.88 731.846 1087.5 732.5C1089.93 718.246 1097.93 708.913 1111.5 704.5Z" fill="#f8f8f8" fill-rule="evenodd" opacity="1" stroke="none"/>
</g>
</svg>