<?xml version="1.0" encoding="UTF-8"?>
<svg xmlns="http://www.w3.org/2000/svg" version="1.1" viewBox="1335.50 904.44 130.00 104.09" width="130.00" height="104.09" style="fill-rule:nonzero;clip-rule:evenodd;stroke-linecap:round;stroke-linejoin:round;" xml:space="preserve">
<g opacity="1">
<path d="M1359.5 911.5C1371.89 910.439 1380.72 915.439 1386 926.5C1387.54 932.749 1387.87 939.083 1387 945.5C1384.55 953.182 1382.72 961.015 1381.5 969C1381.61 976.453 1385.28 979.453 1392.5 978C1394.96 976.542 1397.13 974.709 1399 972.5C1404.34 960.421 1413.5 954.921 1426.5 956C1429.6 957.439 1432.44 959.273 1435 961.5C1437.84 967.351 1440.67 973.184 1443.5 979C1447.38 978.196 1451.38 977.863 1455.5 978C1458.07 979.127 1459.4 981.127 1459.5 984C1458.19 990.642 1454.19 994.642 1447.5 996C1435.35 998.342 1427.85 993.509 1425 981.5C1423.14 978.793 1420.64 977.959 1417.5 979C1414.24 981.592 1411.74 984.759 1410 988.5C1399.96 999.365 1387.79 1002.53 1373.5 998C1361.04 991.244 1355.87 980.744 1358 966.5C1359.33 962.191 1360.49 957.858 1361.5 953.5C1348.96 953.296 1342.3 946.963 1341.5 934.5C1342.49 922.836 1348.49 915.169 1359.5 911.5Z" fill="#1b1b1b" fill-rule="evenodd" opacity="1" stroke="none" />
<path d="M1379.5 962.5C1377.08 963.03 1374.74 963.864 1372.5 965C1374.44 965.743 1376.27 965.576 1378 964.5C1378.18 967.365 1378.68 970.031 1379.5 972.5C1379.33 973.822 1379.66 974.989 1380.5 976C1375.61 982.04 1369.44 984.207 1362 982.5C1360.26 976.584 1360.09 970.584 1361.5 964.5C1364.44 965.575 1367.44 965.741 1370.5 965C1362.42 964.644 1360.42 960.81 1364.5 953.5C1365.5 953 1366.5 952.5 1367.5 952C1353.9 953.545 1345.9 947.712 1343.5 934.5C1346.22 919.282 1355.22 912.782 1370.5 915C1380.07 918.98 1385.07 926.147 1385.5 936.5C1384.78 945.498 1382.78 954.165 1379.5 962.5Z" fill="#f2f2f2" fill-rule="evenodd" opacity="1" stroke="none" />
<path d="M1350.5 927.5C1354.16 927.35 1355.16 928.85 1353.5 932C1349.71 932.487 1348.71 930.987 1350.5 927.5Z" fill="#1f1f1e" fill-rule="evenodd" opacity="1" stroke="none" />
<path d="M1366.5 928.5C1370.35 928.701 1371.35 930.534 1369.5 934C1365.54 934.118 1364.54 932.284 1366.5 928.5Z" fill="#1f1f20" fill-rule="evenodd" opacity="1" stroke="none" />
<path d="M1351.5 939.5C1355.85 943.022 1360.52 943.355 1365.5 940.5C1366.57 942.325 1365.9 943.492 1363.5 944C1360.5 944.667 1357.5 944.667 1354.5 944C1352.86 942.871 1351.86 941.371 1351.5 939.5Z" fill="#242425" fill-rule="evenodd" opacity="1" stroke="none" />
<path d="M1415.5 958.5C1422.25 957.295 1428.08 958.962 1433 963.5C1433.82 969.029 1431.99 973.529 1427.5 977C1424.97 976.389 1422.3 975.889 1419.5 975.5C1420.32 969.246 1418.98 963.579 1415.5 958.5Z" fill="#f2f2f2" fill-rule="evenodd" opacity="1" stroke="none" />
<path d="M1379.5 962.5C1379.5 965.833 1379.5 969.167 1379.5 972.5C1378.68 970.031 1378.18 967.365 1378 964.5C1376.27 965.576 1374.44 965.743 1372.5 965C1374.74 963.864 1377.08 963.03 1379.5 962.5Z" fill="#585857" fill-rule="evenodd" opacity="1" stroke="none" />
<path d="M1411.5 960.5C1413.39 960.297 1414.89 960.963 1416 962.5C1418.22 966.595 1418.89 970.928 1418 975.5C1414.63 978.535 1411.63 981.868 1409 985.5C1408.15 980.302 1405.65 976.135 1401.5 973C1404.26 968.286 1407.59 964.119 1411.5 960.5Z" fill="#efeeef" fill-rule="evenodd" opacity="1" stroke="none" />
<path d="M1387.5 995.5C1388.46 995.047 1389.29 994.381 1390 993.5C1390.5 989.179 1390.67 984.846 1390.5 980.5C1393.88 980.31 1396.54 978.81 1398.5 976C1401.31 975.08 1403.47 975.913 1405 978.5C1408.26 982.983 1408.1 987.149 1404.5 991C1400.1 994.117 1395.27 996.284 1390 997.5C1388.62 997.316 1387.79 996.649 1387.5 995.5Z" fill="#eeedee" fill-rule="evenodd" opacity="1" stroke="none" />
<path d="M1434.5 967.5C1435.79 968.058 1436.62 969.058 1437 970.5C1438.07 973.876 1439.24 977.21 1440.5 980.5C1435.25 992.076 1430.59 992.076 1426.5 980.5C1428.48 978.016 1430.65 975.683 1433 973.5C1434.13 971.655 1434.63 969.655 1434.5 967.5Z" fill="#edeeee" fill-rule="evenodd" opacity="1" stroke="none" />
<path d="M1387.5 995.5C1377.19 998.361 1369.19 995.028 1363.5 985.5C1370.57 985.425 1376.41 982.758 1381 977.5C1383.64 979.31 1386.31 980.976 1389 982.5C1389.85 987.021 1389.35 991.355 1387.5 995.5Z" fill="#ebecec" fill-rule="evenodd" opacity="1" stroke="none" />
<path d="M1449.5 980.5C1455.67 979.173 1457.84 981.506 1456 987.5C1453.96 989.874 1451.63 991.874 1449 993.5C1449.47 989.045 1449.63 984.711 1449.5 980.5Z" fill="#ebebeb" fill-rule="evenodd" opacity="1" stroke="none" />
<path d="M1441.5 981.5C1448 981.12 1450.16 984.12 1448 990.5C1447.53 991.931 1446.7 993.097 1445.5 994C1433.47 995.432 1431.64 992.598 1440 985.5C1440.79 984.255 1441.29 982.922 1441.5 981.5Z" fill="#e8e8e8" fill-rule="evenodd" opacity="1" stroke="none" />
</g>

</svg>