<?xml version="1.0" encoding="UTF-8" standalone="no"?>
<svg xmlns="http://www.w3.org/2000/svg" fill-rule="nonzero" clip-rule="evenodd" stroke-miterlimit="10" style="fill-rule:nonzero;clip-rule:evenodd;stroke-linecap:round;stroke-linejoin:round;"
     viewBox="1269.3 683.3 214.3 161.1" xml:space="preserve">
<g opacity="1">
<path d="M1310.5 728.5C1310.56 729.043 1310.89 729.376 1311.5 729.5C1312.5 720.859 1312.83 712.192 1312.5 703.5C1313.29 702.206 1314.29 701.039 1315.5 700C1322.17 699.333 1328.83 699.333 1335.5 700C1337.43 700.422 1338.43 701.589 1338.5 703.5C1338.17 712.525 1338.5 721.525 1339.5 730.5C1340.49 725.88 1340.83 721.214 1340.5 716.5C1338.5 705.837 1342.83 701.504 1353.5 703.5C1356.83 703.667 1360.17 703.833 1363.5 704C1364.33 704.833 1365.17 705.667 1366 706.5C1366.33 710.833 1366.67 715.167 1367 719.5C1365.47 708.863 1369.97 704.53 1380.5 706.5C1390.86 705.364 1395.36 710.031 1394 720.5C1393.88 711.631 1398.22 708.298 1407 710.5C1416.78 708.614 1421.11 712.614 1420 722.5C1420.06 719.178 1421.23 716.344 1423.5 714C1429.83 713.333 1436.17 713.333 1442.5 714C1444.49 715.319 1445.65 717.152 1446 719.5C1447.17 718.333 1448.33 717.167 1449.5 716C1456.28 715.08 1462.94 715.414 1469.5 717C1470 717.5 1470.5 718 1471 718.5C1471.67 739.167 1471.67 759.833 1471 780.5C1470.17 781.333 1469.33 782.167 1468.5 783C1461.83 783.667 1455.17 783.667 1448.5 783C1447.79 781.745 1446.96 780.579 1446 779.5C1445.58 782.025 1444.41 784.025 1442.5 785.5C1436.16 785.666 1429.82 785.5 1423.5 785C1421.23 783.442 1420.07 781.276 1420 778.5C1419.67 780.833 1419.33 783.167 1419 785.5C1418.5 786.667 1417.67 787.5 1416.5 788C1410.51 788.499 1404.51 788.666 1398.5 788.5C1396.59 788.426 1395.42 787.426 1395 785.5C1394.67 779.167 1394.33 772.833 1394 766.5C1393.67 773.833 1393.33 781.167 1393 788.5C1391.83 789.667 1390.67 790.833 1389.5 792C1383.17 792.667 1376.83 792.667 1370.5 792C1369.3 791.097 1368.47 789.931 1368 788.5C1367.67 785.833 1367.33 783.167 1367 780.5C1366.67 784.5 1366.33 788.5 1366 792.5C1365.17 793.333 1364.33 794.167 1363.5 795C1356.83 795.667 1350.17 795.667 1343.5 795C1342.33 794.5 1341.5 793.667 1341 792.5C1340.67 785.167 1340.33 777.833 1340 770.5C1339.67 778.5 1339.33 786.5 1339 794.5C1338.22 796.286 1337.05 797.786 1335.5 799C1328.83 799.667 1322.17 799.667 1315.5 799C1314.63 797.955 1313.63 797.122 1312.5 796.5C1311.7 788.245 1311.2 779.911 1311 771.5C1310.5 780.494 1310.33 789.494 1310.5 798.5C1310.14 800.371 1309.14 801.871 1307.5 803C1299.83 803.667 1292.17 803.667 1284.5 803C1283.67 802.167 1282.83 801.333 1282 800.5C1281.33 766.5 1281.33 732.5 1282 698.5C1282.83 697.667 1283.67 696.833 1284.5 696C1292.17 695.333 1299.83 695.333 1307.5 696C1308.33 696.833 1309.17 697.667 1310 698.5C1310.5 708.494 1310.67 718.494 1310.5 728.5Z" fill="#1e1e1e" fill-rule="evenodd" opacity="1" stroke="none"/>
<path d="M1371.5 709.5C1377.51 709.334 1383.51 709.501 1389.5 710C1390 710.5 1390.5 711 1391 711.5C1391.67 736.833 1391.67 762.167 1391 787.5C1390.5 788 1390 788.5 1389.5 789C1383.25 789.809 1377.08 789.642 1371 788.5C1370.18 762.095 1370.34 735.761 1371.5 709.5Z" fill="#f2f2f2" fill-rule="evenodd" opacity="1" stroke="none"/>
<path d="M1315.5 702.5C1322.42 702.188 1329.26 702.521 1336 703.5C1336.67 733.833 1336.67 764.167 1336 794.5C1335.5 795 1335 795.5 1334.5 796C1327.92 796.81 1321.42 796.643 1315 795.5C1314.18 764.458 1314.35 733.458 1315.5 702.5Z" fill="#f7f7f7" fill-rule="evenodd" opacity="1" stroke="none"/>
<path d="M1286.5 697.5C1292.84 697.334 1299.18 697.5 1305.5 698C1306.33 698.833 1307.17 699.667 1308 700.5C1308.67 733.167 1308.67 765.833 1308 798.5C1307.17 799.333 1306.33 800.167 1305.5 801C1299.17 801.667 1292.83 801.667 1286.5 801C1286 800.5 1285.5 800 1285 799.5C1284.33 766.167 1284.33 732.833 1285 699.5C1285.72 698.956 1286.22 698.289 1286.5 697.5Z" fill="#efefef" fill-rule="evenodd" opacity="1" stroke="none"/>
<path d="M1294.5 713.5C1300.64 714.026 1301.98 716.86 1298.5 722C1293.55 723.376 1291.38 721.542 1292 716.5C1293.04 715.627 1293.88 714.627 1294.5 713.5Z" fill="#252625" fill-rule="evenodd" opacity="1" stroke="none"/>
<path d="M1312.5 703.5C1312.83 712.192 1312.5 720.859 1311.5 729.5C1310.89 729.376 1310.56 729.043 1310.5 728.5C1311.17 720.167 1311.83 711.833 1312.5 703.5Z" fill="#737675" fill-rule="evenodd" opacity="1" stroke="none"/>
<path d="M1398.5 712.5C1404.21 712.171 1409.87 712.505 1415.5 713.5C1415.81 714.308 1416.31 714.975 1417 715.5C1417.67 738.5 1417.67 761.5 1417 784.5C1416.5 785 1416 785.5 1415.5 786C1409.83 786.667 1404.17 786.667 1398.5 786C1398 785.5 1397.5 785 1397 784.5C1396.33 761.167 1396.33 737.833 1397 714.5C1397.72 713.956 1398.22 713.289 1398.5 712.5Z" fill="#ececec" fill-rule="evenodd" opacity="1" stroke="none"/>
<path d="M1294.5 715.5C1297.91 715.384 1299.24 717.05 1298.5 720.5C1294.07 721.078 1292.73 719.411 1294.5 715.5Z" fill="#e8e8e7" fill-rule="evenodd" opacity="1" stroke="none"/>
<path d="M1323.5 716.5C1328.88 716.452 1330.55 718.952 1328.5 724C1321.74 724.756 1320.08 722.256 1323.5 716.5Z" fill="#232323" fill-rule="evenodd" opacity="1" stroke="none"/>
<path d="M1324.5 717.5C1330 720.171 1329.67 721.838 1323.5 722.5C1323.37 720.708 1323.7 719.042 1324.5 717.5Z" fill="#e7e7e6" fill-rule="evenodd" opacity="1" stroke="none"/>
<path d="M1338.5 703.5C1339.17 707.833 1339.83 712.167 1340.5 716.5C1340.83 721.214 1340.49 725.88 1339.5 730.5C1338.5 721.525 1338.17 712.525 1338.5 703.5Z" fill="#646263" fill-rule="evenodd" opacity="1" stroke="none"/>
<path d="M1450.5 718.5C1456.18 718.334 1461.84 718.501 1467.5 719C1468 719.5 1468.5 720 1469 720.5C1469.67 739.833 1469.67 759.167 1469 778.5C1468.5 779 1468 779.5 1467.5 780C1461.25 780.809 1455.08 780.642 1449 779.5C1448.33 759.833 1448.33 740.167 1449 720.5C1449.72 719.956 1450.22 719.289 1450.5 718.5Z" fill="#eeeeee" fill-rule="evenodd" opacity="1" stroke="none"/>
<path d="M1344.5 705.5C1350.18 705.334 1355.84 705.501 1361.5 706C1362.33 706.833 1363.17 707.667 1364 708.5C1364.67 735.833 1364.67 763.167 1364 790.5C1363.17 791.333 1362.33 792.167 1361.5 793C1355.83 793.667 1350.17 793.667 1344.5 793C1344 792.5 1343.5 792 1343 791.5C1342.33 763.833 1342.33 736.167 1343 708.5C1343.51 707.473 1344.01 706.473 1344.5 705.5Z" fill="#edeeee" fill-rule="evenodd" opacity="1" stroke="none"/>
<path d="M1351.5 718.5C1356.71 718.369 1358.37 720.702 1356.5 725.5C1349.37 727.27 1347.7 724.936 1351.5 718.5Z" fill="#262627" fill-rule="evenodd" opacity="1" stroke="none"/>
<path d="M1351.5 720.5C1352.83 720.5 1354.17 720.5 1355.5 720.5C1355.5 721.833 1355.5 723.167 1355.5 724.5C1354.17 724.5 1352.83 724.5 1351.5 724.5C1351.5 723.167 1351.5 721.833 1351.5 720.5Z" fill="#eaeaeb" fill-rule="evenodd" opacity="1" stroke="none"/>
<path d="M1378.5 720.5C1383.71 720.369 1385.37 722.702 1383.5 727.5C1381.39 730.044 1379.22 730.044 1377 727.5C1376.17 724.829 1376.67 722.496 1378.5 720.5Z" fill="#292929" fill-rule="evenodd" opacity="1" stroke="none"/>
<path d="M1378.5 722.5C1382.16 722.35 1383.16 723.85 1381.5 727C1380.55 727.617 1379.72 727.451 1379 726.5C1378.51 725.207 1378.34 723.873 1378.5 722.5Z" fill="#dfe0e0" fill-rule="evenodd" opacity="1" stroke="none"/>
<path d="M1404.5 723.5C1410.16 722.679 1411.82 724.846 1409.5 730C1403.74 731.139 1402.07 728.972 1404.5 723.5Z" fill="#161615" fill-rule="evenodd" opacity="1" stroke="none"/>
<path d="M1405.5 724.5C1409.16 724.35 1410.16 725.85 1408.5 729C1404.71 729.487 1403.71 727.987 1405.5 724.5Z" fill="#d3d4d3" fill-rule="evenodd" opacity="1" stroke="none"/>
<path d="M1424.5 716.5C1430.76 716.19 1436.92 716.524 1443 717.5C1443.67 738.5 1443.67 759.5 1443 780.5C1442.63 781.416 1442.13 782.25 1441.5 783C1435.58 783.807 1429.75 783.641 1424 782.5C1423.18 760.427 1423.35 738.427 1424.5 716.5Z" fill="#f0f0f0" fill-rule="evenodd" opacity="1" stroke="none"/>
<path d="M1430.5 725.5C1435.01 724.527 1437.17 726.194 1437 730.5C1430.64 734.201 1428.48 732.534 1430.5 725.5Z" fill="#222222" fill-rule="evenodd" opacity="1" stroke="none"/>
<path d="M1432.5 726.5C1434.91 726.694 1435.91 728.027 1435.5 730.5C1434.17 730.5 1432.83 730.5 1431.5 730.5C1431.43 729.041 1431.77 727.708 1432.5 726.5Z" fill="#e1e2e1" fill-rule="evenodd" opacity="1" stroke="none"/>
<path d="M1456.5 727.5C1462.55 726.942 1463.89 729.109 1460.5 734C1455.57 734.427 1454.24 732.26 1456.5 727.5Z" fill="#1b1b1b" fill-rule="evenodd" opacity="1" stroke="none"/>
<path d="M1457.5 728.5C1459.91 728.694 1460.91 730.027 1460.5 732.5C1459.17 732.5 1457.83 732.5 1456.5 732.5C1456.43 731.041 1456.77 729.708 1457.5 728.5Z" fill="#d6d6d6" fill-rule="evenodd" opacity="1" stroke="none"/>
<path d="M1338.5 732.5C1339.83 737.96 1340.5 743.793 1340.5 750C1340.17 755.833 1339.83 761.667 1339.5 767.5C1338.5 755.852 1338.17 744.186 1338.5 732.5Z" fill="#605f5e" fill-rule="evenodd" opacity="1" stroke="none"/>
<path d="M1430.5 766.5C1435.01 765.527 1437.17 767.194 1437 771.5C1430.64 775.201 1428.48 773.534 1430.5 766.5Z" fill="#232424" fill-rule="evenodd" opacity="1" stroke="none"/>
<path d="M1431.5 768.5C1432.83 768.5 1434.17 768.5 1435.5 768.5C1435.11 772.738 1433.45 773.404 1430.5 770.5C1430.86 769.817 1431.2 769.15 1431.5 768.5Z" fill="#dcdcdd" fill-rule="evenodd" opacity="1" stroke="none"/>
<path d="M1404.5 768.5C1410.7 768.314 1412.04 770.814 1408.5 776C1403.63 775.711 1402.3 773.211 1404.5 768.5Z" fill="#1c1c1c" fill-rule="evenodd" opacity="1" stroke="none"/>
<path d="M1404.5 770.5C1405.87 770.343 1407.21 770.51 1408.5 771C1409.67 773.829 1408.67 774.829 1405.5 774C1404.66 772.989 1404.33 771.822 1404.5 770.5Z" fill="#d7d7d7" fill-rule="evenodd" opacity="1" stroke="none"/>
<path d="M1457.5 764.5C1460.35 764.352 1462.02 765.686 1462.5 768.5C1460.17 773.833 1457.83 773.833 1455.5 768.5C1455.75 766.927 1456.42 765.594 1457.5 764.5Z" fill="#1b1a1a" fill-rule="evenodd" opacity="1" stroke="none"/>
<path d="M1457.5 766.5C1459.91 766.694 1460.91 768.027 1460.5 770.5C1457.05 770.733 1456.05 769.4 1457.5 766.5Z" fill="#dadbdc" fill-rule="evenodd" opacity="1" stroke="none"/>
<path d="M1351.5 772.5C1357.49 772.664 1358.82 775.164 1355.5 780C1349.4 780.147 1348.07 777.647 1351.5 772.5Z" fill="#101010" fill-rule="evenodd" opacity="1" stroke="none"/>
<path d="M1378.5 770.5C1384.49 770.664 1385.82 773.164 1382.5 778C1376.4 778.147 1375.07 775.647 1378.5 770.5Z" fill="#1c1c1b" fill-rule="evenodd" opacity="1" stroke="none"/>
<path d="M1379.5 771.5C1382.08 772.048 1383.08 773.715 1382.5 776.5C1381.17 776.5 1379.83 776.5 1378.5 776.5C1378.37 774.708 1378.7 773.042 1379.5 771.5Z" fill="#dcdbdc" fill-rule="evenodd" opacity="1" stroke="none"/>
<path d="M1352.5 773.5C1358 776.171 1357.67 777.838 1351.5 778.5C1351.37 776.708 1351.7 775.042 1352.5 773.5Z" fill="#d9dadb" fill-rule="evenodd" opacity="1" stroke="none"/>
<path d="M1323.5 774.5C1328.98 774.481 1330.65 776.981 1328.5 782C1321.37 783.211 1319.7 780.711 1323.5 774.5Z" fill="#1e1e1e" fill-rule="evenodd" opacity="1" stroke="none"/>
<path d="M1323.5 776.5C1324.87 776.343 1326.21 776.51 1327.5 777C1328.47 779.702 1327.47 781.035 1324.5 781C1323.62 779.644 1323.29 778.144 1323.5 776.5Z" fill="#e4e4e3" fill-rule="evenodd" opacity="1" stroke="none"/>
<path d="M1312.5 796.5C1311.83 797.167 1311.17 797.833 1310.5 798.5C1310.33 789.494 1310.5 780.494 1311 771.5C1311.2 779.911 1311.7 788.245 1312.5 796.5Z" fill="#cac9c9" fill-rule="evenodd" opacity="1" stroke="none"/>
<path d="M1294.5 776.5C1300.64 777.026 1301.98 779.86 1298.5 785C1291.4 784.752 1290.07 781.919 1294.5 776.5Z" fill="#1f1f1f" fill-rule="evenodd" opacity="1" stroke="none"/>
<path d="M1294.5 778.5C1298.16 778.35 1299.16 779.85 1297.5 783C1293.71 783.487 1292.71 781.987 1294.5 778.5Z" fill="#e5e5e6" fill-rule="evenodd" opacity="1" stroke="none"/>
<path d="M1333.5 820.5C1327.84 821.2 1322.17 821.366 1316.5 821C1313.81 818.368 1314.14 816.034 1317.5 814C1349.16 809.585 1380.82 805.251 1412.5 801C1414.74 800.95 1416.41 800.117 1417.5 798.5C1423.51 790 1430.34 789.334 1438 796.5C1441.98 809.067 1437.48 814.9 1424.5 814C1422.02 812.357 1419.69 810.524 1417.5 808.5C1389.36 812.424 1361.36 816.424 1333.5 820.5Z" fill="#1b1b1b" fill-rule="evenodd" opacity="1" stroke="none"/>
<path d="M1424.5 794.5C1431.85 793.191 1436.19 796.191 1437.5 803.5C1437.02 808.976 1434.02 811.642 1428.5 811.5C1421.54 810.616 1418.71 806.616 1420 799.5C1421.37 797.638 1422.87 795.972 1424.5 794.5Z" fill="#efefef" fill-rule="evenodd" opacity="1" stroke="none"/>
<path d="M1409.5 803.5C1412.17 803.5 1414.83 803.5 1417.5 803.5C1417.5 804.5 1417.5 805.5 1417.5 806.5C1384.16 810.834 1350.83 815.167 1317.5 819.5C1317.5 818.5 1317.5 817.5 1317.5 816.5C1348.35 812.447 1379.02 808.113 1409.5 803.5Z" fill="#e2e2e2" fill-rule="evenodd" opacity="1" stroke="none"/>
<path d="M1442.5 785.5C1441.05 786.302 1439.38 786.802 1437.5 787C1439.53 790.546 1442.19 794.213 1445.5 798C1444.04 801.17 1445.04 803.337 1448.5 804.5C1449.69 804.244 1450.86 803.911 1452 803.5C1454.96 805.646 1458.12 807.312 1461.5 808.5C1461.74 810.973 1463.07 812.64 1465.5 813.5C1464.66 814.735 1463.66 815.735 1462.5 816.5C1458.58 808.243 1452.24 805.743 1443.5 809C1441.26 810.739 1439.59 812.906 1438.5 815.5C1409.22 818.829 1379.89 821.496 1350.5 823.5C1344.14 822.889 1338.48 821.889 1333.5 820.5C1361.36 816.424 1389.36 812.424 1417.5 808.5C1419.69 810.524 1422.02 812.357 1424.5 814C1437.48 814.9 1441.98 809.067 1438 796.5C1430.34 789.334 1423.51 790 1417.5 798.5C1414.21 798.152 1413.88 796.485 1416.5 793.5C1416.29 792.914 1415.96 792.414 1415.5 792C1409.83 791.667 1404.17 791.333 1398.5 791C1403.5 790.667 1408.5 790.333 1413.5 790C1408.32 789.826 1403.32 789.326 1398.5 788.5C1404.51 788.666 1410.51 788.499 1416.5 788C1417.67 787.5 1418.5 786.667 1419 785.5C1419.33 783.167 1419.67 780.833 1420 778.5C1420.07 781.276 1421.23 783.442 1423.5 785C1429.82 785.5 1436.16 785.666 1442.5 785.5Z" fill="#eaeaea" fill-rule="evenodd" opacity="1" stroke="none"/>
<path d="M1462.5 816.5C1462.19 827.643 1456.52 832.476 1445.5 831C1442.55 828.36 1439.38 826.194 1436 824.5C1401.91 828.257 1367.74 830.757 1333.5 832C1332.17 830 1332.17 828 1333.5 826C1339.07 824.719 1344.74 823.886 1350.5 823.5C1379.89 821.496 1409.22 818.829 1438.5 815.5C1439.59 812.906 1441.26 810.739 1443.5 809C1452.24 805.743 1458.58 808.243 1462.5 816.5Z" fill="#1a1a1a" fill-rule="evenodd" opacity="1" stroke="none"/>
<path d="M1445.5 810.5C1455.25 808.923 1459.75 812.923 1459 822.5C1456.55 828.089 1452.38 829.922 1446.5 828C1438.87 822.666 1438.53 816.833 1445.5 810.5Z" fill="#f2f2f2" fill-rule="evenodd" opacity="1" stroke="none"/>
<path d="M1423.5 819.5C1428.5 819.5 1433.5 819.5 1438.5 819.5C1438.5 820.5 1438.5 821.5 1438.5 822.5C1404.16 825.089 1369.83 827.755 1335.5 830.5C1335.5 829.5 1335.5 828.5 1335.5 827.5C1365.01 825.181 1394.34 822.514 1423.5 819.5Z" fill="#dfe0e0" fill-rule="evenodd" opacity="1" stroke="none"/>
</g>
</svg>