<?xml version="1.0" encoding="UTF-8"?>
<svg xmlns="http://www.w3.org/2000/svg" version="1.1" viewBox="331.83 363.26 284.21 219.03" width="284.21" height="219.03" style="overflow:visible;" xml:space="preserve">
<g>
<path d="M371.5 400.5C374.287 401.477 377.287 401.81 380.5 401.5C380.5 400.5 380.5 399.5 380.5 398.5C384.262 392.106 389.928 388.439 397.5 387.5C402.206 381.854 408.206 380.021 415.5 382C417.615 382.557 419.615 383.391 421.5 384.5C430.604 379.81 438.938 380.81 446.5 387.5C455.357 388.367 460.69 393.034 462.5 401.5C475.331 403.704 485.498 399.704 493 389.5C494.186 383.915 494.852 378.249 495 372.5C496.726 371.424 498.559 371.257 500.5 372C508.473 379.689 510.64 388.856 507 399.5C505.61 403.947 503.444 407.947 500.5 411.5C514.136 412.122 527.803 412.289 541.5 412C543.491 412.374 545.158 413.207 546.5 414.5C548.635 416.369 551.302 417.036 554.5 416.5C557.923 417.363 561.256 418.53 564.5 420C565.944 421.763 566.944 423.763 567.5 426C572.579 428.294 577.079 431.461 581 435.5C582.655 437.747 582.988 440.08 582 442.5C588.87 448.241 592.537 455.574 593 464.5C597.767 472.105 599.767 480.438 599 489.5C606.37 496.542 608.037 504.542 604 513.5C603.857 517.619 603.19 521.619 602 525.5C601.586 525.957 601.086 526.291 600.5 526.5C599.376 525.086 598.376 523.586 597.5 522C593.908 521.356 591.741 519.19 591 515.5C590.851 521.325 589.851 526.992 588 532.5C586.556 534.155 584.722 534.822 582.5 534.5C582.02 539.126 580.187 543.126 577 546.5C576.667 553.167 576.333 559.833 576 566.5C574.2 568.317 572.034 569.484 569.5 570C565.5 570.667 561.5 570.667 557.5 570C555.671 569.727 554.171 568.893 553 567.5C553.754 559.88 554.087 552.213 554 544.5C551.295 542.293 549.129 539.626 547.5 536.5C546.914 536.709 546.414 537.043 546 537.5C544.178 545.407 542.845 553.407 542 561.5C540.829 562.893 539.329 563.727 537.5 564C533.167 564.667 528.833 564.667 524.5 564C522.671 563.727 521.171 562.893 520 561.5C521.135 555.602 521.968 549.602 522.5 543.5C519.386 542.909 516.886 541.242 515 538.5C512.333 541.5 509 543.167 505 543.5C502.103 542.537 499.27 541.703 496.5 541C495.072 545.028 492.572 548.194 489 550.5C488.667 556.833 488.333 563.167 488 569.5C484.601 572.95 480.434 574.283 475.5 573.5C472.833 573.333 470.167 573.167 467.5 573C466.069 572.535 464.903 571.701 464 570.5C464.161 565.508 464.661 560.508 465.5 555.5C465.607 552.443 464.44 550.109 462 548.5C460.589 546.35 459.755 544.016 459.5 541.5C457.08 541.708 454.747 541.374 452.5 540.5C450.477 543.362 448.644 546.362 447 549.5C446.667 554.5 446.333 559.5 446 564.5C445.626 565.416 445.126 566.25 444.5 567C438.235 568.484 431.902 568.818 425.5 568C424.069 567.535 422.903 566.701 422 565.5C423.158 558.583 423.492 551.583 423 544.5C420.429 542.024 418.929 539.024 418.5 535.5C417.127 535.657 415.793 535.49 414.5 535C413.214 532.978 412.214 530.811 411.5 528.5C407.461 526.936 405.294 523.936 405 519.5C404.5 513.175 404.334 506.842 404.5 500.5C391.107 497.601 384.607 489.268 385 475.5C378.951 463.462 376.951 450.795 379 437.5C376.913 438.794 374.746 439.961 372.5 441C363.356 442.919 355.023 441.252 347.5 436C343.817 432.974 343.65 429.808 347 426.5C349.925 424.286 352.759 421.953 355.5 419.5C344.327 410.476 339.827 398.809 342 384.5C343.72 379.554 346.554 375.387 350.5 372C352.167 371.333 353.833 371.333 355.5 372C355.764 376.741 355.931 381.575 356 386.5C358.172 394.507 363.339 399.173 371.5 400.5Z" fill="#171717" fill-rule="evenodd" opacity="1" stroke="none" />
<path d="M380.5 398.5C380.5 399.5 380.5 400.5 380.5 401.5C377.287 401.81 374.287 401.477 371.5 400.5C374.855 400.909 377.855 400.242 380.5 398.5Z" fill="#757878" fill-rule="evenodd" opacity="1" stroke="none" />
<path d="M497.5 374.5C499.371 374.859 500.871 375.859 502 377.5C508.706 399.415 501.04 414.082 479 421.5C477.073 420.139 474.906 419.306 472.5 419C467.798 418.828 463.132 418.328 458.5 417.5C462.075 413.632 462.408 409.465 459.5 405C472.968 406.733 484.468 402.9 494 393.5C496.985 387.517 498.151 381.184 497.5 374.5Z" fill="#f1f1f1" fill-rule="evenodd" opacity="1" stroke="none" />
<path d="M378.5 427.5C378.179 425.952 377.179 425.285 375.5 425.5C368.477 423.507 362.144 424.84 356.5 429.5C357 429.833 357.5 430.167 358 430.5C363.568 427.443 369.401 426.776 375.5 428.5C376.167 429.167 376.833 429.833 377.5 430.5C378.995 430.415 379.995 431.081 380.5 432.5C376.406 437.125 371.239 439.125 365 438.5C358.001 439.081 352.501 436.581 348.5 431C351.153 426.686 354.819 423.353 359.5 421C365.799 419.335 372.132 419.002 378.5 420C379.961 417.579 381.294 415.079 382.5 412.5C381.271 411.719 379.938 411.219 378.5 411C377.978 410.439 377.645 409.772 377.5 409C379.821 405.346 382.821 402.346 386.5 400C382.873 398.779 382.873 397.112 386.5 395C391.459 392.069 396.793 390.236 402.5 389.5C399.972 388.184 399.972 387.017 402.5 386C409.087 383.645 415.42 384.145 421.5 387.5C428.019 383.682 434.686 383.515 441.5 387C440.663 388.011 440.33 389.178 440.5 390.5C447.894 389.615 454.061 391.948 459 397.5C459.49 398.793 459.657 400.127 459.5 401.5C457.473 401.338 455.473 401.505 453.5 402C457.285 404.94 458.952 408.773 458.5 413.5C456.712 413.215 455.045 413.548 453.5 414.5C456.68 418.919 457.18 423.586 455 428.5C453.387 427.378 452.22 427.878 451.5 430C449.029 430.706 446.695 430.373 444.5 429C442.316 426.984 440.316 424.817 438.5 422.5C437.64 425.593 436.306 428.427 434.5 431C432.5 431.667 430.5 431.667 428.5 431C425.032 428.876 422.365 426.043 420.5 422.5C417.153 432.442 411.32 434.442 403 428.5C402.105 426.196 401.271 423.862 400.5 421.5C396.895 426.769 391.895 429.436 385.5 429.5C385.906 427.891 385.906 426.557 385.5 425.5C383.571 426.38 381.737 427.38 380 428.5C379.235 428.43 378.735 428.097 378.5 427.5Z" fill="#f4f4f4" fill-rule="evenodd" opacity="1" stroke="none" />
<path d="M351.5 374.5C352.497 374.47 353.164 374.97 353.5 376C351.33 393.188 358.997 402.854 376.5 405C375.049 408.511 375.382 411.844 377.5 415C377.37 416.059 376.87 416.892 376 417.5C360.385 420.853 350.052 414.853 345 399.5C342.762 389.899 344.929 381.566 351.5 374.5Z" fill="#f1f1f1" fill-rule="evenodd" opacity="1" stroke="none" />
<path d="M595.5 481.5C595.795 483.735 595.461 485.735 594.5 487.5C594.011 484.533 592.845 481.867 591 479.5C592.202 488.416 592.535 497.416 592 506.5C591.751 507.624 591.251 508.624 590.5 509.5C589.935 507.49 588.935 505.824 587.5 504.5C587.325 511.447 587.158 518.447 587 525.5C586.457 527.631 585.624 529.631 584.5 531.5C583.852 529.851 582.852 528.518 581.5 527.5C580.621 531.154 579.787 534.821 579 538.5C577.95 541.24 576.117 542.74 573.5 543C571.47 541.104 569.803 538.937 568.5 536.5C567.066 538.22 566.233 540.22 566 542.5C564.062 543.86 562.396 543.527 561 541.5C560.185 539.377 559.185 537.377 558 535.5C556.916 536.665 556.083 537.998 555.5 539.5C554.998 540.521 554.332 540.688 553.5 540C551.146 535.388 549.48 530.555 548.5 525.5C548.271 519.679 548.271 514.013 548.5 508.5C548.333 507.5 548.167 506.5 548 505.5C546.921 508.063 546.421 510.729 546.5 513.5C544.141 519.392 544.141 525.392 546.5 531.5C545.528 533.305 544.361 534.972 543 536.5C542.586 536.043 542.086 535.709 541.5 535.5C540.369 536.751 539.036 537.751 537.5 538.5C535.119 536.762 533.453 534.429 532.5 531.5C530.597 535.675 527.597 538.675 523.5 540.5C521.653 539.489 519.82 538.489 518 537.5C517.808 535.423 517.308 533.423 516.5 531.5C515.07 534.433 513.07 536.933 510.5 539C505.33 541.752 501.33 540.585 498.5 535.5C499.614 530.554 499.781 525.554 499 520.5C498.692 519.692 498.192 519.025 497.5 518.5C496.67 524.138 496.17 529.804 496 535.5C495.586 535.043 495.086 534.709 494.5 534.5C493.712 537.899 492.712 541.233 491.5 544.5C490.726 545.711 489.893 545.711 489 544.5C488.1 546.398 486.934 548.064 485.5 549.5C484.167 547.5 482.833 545.5 481.5 543.5C480.106 546.196 478.273 548.53 476 550.5C474.739 550.241 473.739 549.574 473 548.5C472.086 546.336 470.919 544.336 469.5 542.5C466.251 549.307 463.751 548.974 462 541.5C461.505 539.527 461.338 537.527 461.5 535.5C460.5 535.5 459.5 535.5 458.5 535.5C457.975 529.832 457.309 524.165 456.5 518.5C454.025 524.549 454.025 530.715 456.5 537C456.167 537.5 455.833 538 455.5 538.5C453.605 537.027 451.939 535.36 450.5 533.5C449.667 536.5 448.833 539.5 448 542.5C447.261 543.574 446.261 544.241 445 544.5C443.037 543.375 441.204 542.041 439.5 540.5C438.996 543.522 437.329 544.689 434.5 544C432.369 541.552 430.369 539.052 428.5 536.5C427.756 537.991 427.09 539.491 426.5 541C425.5 541.667 424.5 541.667 423.5 541C421.457 537.329 419.791 533.496 418.5 529.5C417.667 530.5 416.833 531.5 416 532.5C414.669 528.511 413.335 524.511 412 520.5C411.085 521.328 410.419 522.328 410 523.5C409.667 523.167 409.333 522.833 409 522.5C407.616 515.589 407.116 508.589 407.5 501.5C417.657 502.946 426.49 500.279 434 493.5C436.637 489.928 438.303 485.928 439 481.5C445.161 476.671 449.828 470.671 453 463.5C454.986 455.615 456.319 447.615 457 439.5C457.816 440.823 458.983 441.489 460.5 441.5C465.336 443.967 470.336 444.634 475.5 443.5C480.657 442.949 485.157 440.949 489 437.5C490.301 435.635 490.635 433.635 490 431.5C487.723 428.601 485.223 425.934 482.5 423.5C487.35 421.834 491.684 419.334 495.5 416C501.92 415.771 508.253 414.938 514.5 413.5C515.5 413.833 516.5 414.167 517.5 414.5C516.106 415.687 516.273 416.354 518 416.5C526.157 414.136 534.324 413.97 542.5 416C542.043 416.414 541.709 416.914 541.5 417.5C548.856 417.801 555.856 419.468 562.5 422.5C563.072 424.078 563.406 425.578 563.5 427C569.492 429.17 574.492 432.67 578.5 437.5C577.624 438.251 576.624 438.751 575.5 439C583.042 444.832 587.542 452.332 589 461.5C588.035 459.74 586.868 459.406 585.5 460.5C586.383 463.325 587.55 465.992 589 468.5C589.667 467.833 590.333 467.167 591 466.5C593.897 471.088 595.397 476.088 595.5 481.5Z" fill="#f7f7f7" fill-rule="evenodd" opacity="1" stroke="none" />
<path d="M546.5 414.5C549.28 415.078 551.947 415.745 554.5 416.5C551.302 417.036 548.635 416.369 546.5 414.5Z" fill="#5c5d5c" fill-rule="evenodd" opacity="1" stroke="none" />
<path d="M474.5 440.5C471.167 440.5 467.833 440.5 464.5 440.5C460.419 438.909 457.085 436.409 454.5 433C455.272 431.779 456.272 430.779 457.5 430C461.167 429.333 464.833 429.333 468.5 430C471.351 431.608 474.351 432.274 477.5 432C472.251 427.862 466.251 426.029 459.5 426.5C459.5 424.833 459.5 423.167 459.5 421.5C470.066 419.539 478.899 422.539 486 430.5C487.505 432.298 487.672 434.132 486.5 436C482.847 438.385 478.847 439.885 474.5 440.5Z" fill="#ededed" fill-rule="evenodd" opacity="1" stroke="none" />
<path d="M375.5 425.5C376.833 426.5 376.833 427.5 375.5 428.5C369.401 426.776 363.568 427.443 358 430.5C357.5 430.167 357 429.833 356.5 429.5C362.144 424.84 368.477 423.507 375.5 425.5Z" fill="#181818" fill-rule="evenodd" opacity="1" stroke="none" />
<path d="M375.5 425.5C377.179 425.285 378.179 425.952 378.5 427.5C377.596 428.209 377.263 429.209 377.5 430.5C376.833 429.833 376.167 429.167 375.5 428.5C376.833 427.5 376.833 426.5 375.5 425.5Z" fill="#676767" fill-rule="evenodd" opacity="1" stroke="none" />
<path d="M398.5 427.5C405.245 437.365 412.912 438.031 421.5 429.5C425.35 433.594 430.017 435.094 435.5 434C437.359 432.442 438.859 430.609 440 428.5C443.237 432.109 447.071 433.942 451.5 434C454.954 449.522 451.62 463.522 441.5 476C440.5 476.5 439.5 477 438.5 477.5C437.243 475.321 435.743 473.321 434 471.5C433.667 471.833 433.333 472.167 433 472.5C438.142 483.726 434.975 491.892 423.5 497C413.734 499.724 404.401 498.724 395.5 494C387.564 487.01 386.564 479.177 392.5 470.5C392.167 470.167 391.833 469.833 391.5 469.5C390.084 471.139 388.417 471.973 386.5 472C381.55 459.884 380.383 447.384 383 434.5C386.209 432.785 389.709 431.618 393.5 431C395.584 430.303 397.251 429.136 398.5 427.5Z" fill="#f3f3f3" fill-rule="evenodd" opacity="1" stroke="none" />
<path d="M464.5 440.5C467.833 440.5 471.167 440.5 474.5 440.5C472.708 441.309 470.708 441.809 468.5 442C470.594 443.352 472.927 443.852 475.5 443.5C470.336 444.634 465.336 443.967 460.5 441.5C462.099 441.768 463.432 441.434 464.5 440.5Z" fill="#383838" fill-rule="evenodd" opacity="1" stroke="none" />
<path d="M392.5 443.5C394.467 443.261 396.301 443.594 398 444.5C398.667 447.167 398.667 449.833 398 452.5C396 455.167 394 455.167 392 452.5C391.366 449.445 391.532 446.445 392.5 443.5Z" fill="#0e0e0e" fill-rule="evenodd" opacity="1" stroke="none" />
<path d="M430.5 443.5C432.766 443.141 434.599 443.808 436 445.5C436.667 447.833 436.667 450.167 436 452.5C433.23 455.28 430.896 454.946 429 451.5C428.282 448.593 428.782 445.926 430.5 443.5Z" fill="#111111" fill-rule="evenodd" opacity="1" stroke="none" />
<path d="M404.5 464.5C408.846 464.334 413.179 464.501 417.5 465C418.624 465.249 419.624 465.749 420.5 466.5C414.085 466.252 407.585 466.586 401 467.5C399.278 467.389 399.112 466.889 400.5 466C402.058 465.79 403.391 465.29 404.5 464.5Z" fill="#4d4e4e" fill-rule="evenodd" opacity="1" stroke="none" />
<path d="M397.5 477.5C401.265 478.391 402.598 480.557 401.5 484C396.791 484.082 395.458 481.915 397.5 477.5Z" fill="#111011" fill-rule="evenodd" opacity="1" stroke="none" />
<path d="M420.5 478.5C426.262 478.698 426.929 480.698 422.5 484.5C421.264 485.246 419.93 485.579 418.5 485.5C418.166 482.812 418.832 480.479 420.5 478.5Z" fill="#131213" fill-rule="evenodd" opacity="1" stroke="none" />
<path d="M595.5 481.5C596.797 483.693 596.797 486.027 595.5 488.5C594.893 488.376 594.56 488.043 594.5 487.5C595.461 485.735 595.795 483.735 595.5 481.5Z" fill="#6a6b6a" fill-rule="evenodd" opacity="1" stroke="none" />
<path d="M404.5 490.5C408.898 491.387 413.231 491.721 417.5 491.5C414.29 494.222 410.624 495.056 406.5 494C405.177 493.184 404.511 492.017 404.5 490.5Z" fill="#1a1b1b" fill-rule="evenodd" opacity="1" stroke="none" />
<path d="M594.5 491.5C596.39 491.297 597.89 491.963 599 493.5C600.608 496.382 601.941 499.382 603 502.5C601.322 507.469 600.322 513.469 600 520.5C599.027 518.608 598.36 516.608 598 514.5C597.586 514.043 597.086 513.709 596.5 513.5C595.719 514.729 595.219 516.062 595 517.5C594.167 515.833 593.333 514.167 592.5 512.5C595.806 505.807 596.472 498.807 594.5 491.5Z" fill="#e4e3e4" fill-rule="evenodd" opacity="1" stroke="none" />
<path d="M437.5 505.5C438.765 506.514 439.431 508.014 439.5 510C439.333 511.5 439.167 513 439 514.5C437.608 511.722 437.108 508.722 437.5 505.5Z" fill="#706f70" fill-rule="evenodd" opacity="1" stroke="none" />
<path d="M548.5 525.5C547.833 521.5 547.167 517.5 546.5 513.5C546.421 510.729 546.921 508.063 548 505.5C548.167 506.5 548.333 507.5 548.5 508.5C548.271 514.013 548.271 519.679 548.5 525.5Z" fill="#8d8d8d" fill-rule="evenodd" opacity="1" stroke="none" />
<path d="M530.5 538.5C533.028 539.023 535.361 540.023 537.5 541.5C539.055 541.278 540.389 540.611 541.5 539.5C541.833 540.167 542.167 540.833 542.5 541.5C541.535 547.937 540.201 554.27 538.5 560.5C535.579 561.407 532.579 561.74 529.5 561.5C530.057 559.051 530.057 556.718 529.5 554.5C527.804 556.546 526.471 558.879 525.5 561.5C523.976 560.473 523.309 558.973 523.5 557C523.609 549.786 525.943 543.619 530.5 538.5Z" fill="#eeefef" fill-rule="evenodd" opacity="1" stroke="none" />
<path d="M428.5 543.5C430.878 545.041 433.378 546.375 436 547.5C437.909 546.844 439.742 546.344 441.5 546C443.619 548.109 444.619 550.775 444.5 554C444.617 557.67 443.951 561.17 442.5 564.5C438.906 565.426 435.24 565.759 431.5 565.5C432.289 556.39 430.956 556.39 427.5 565.5C426.354 564.855 425.354 564.022 424.5 563C425.824 557.282 426.657 551.449 427 545.5C427.717 544.956 428.217 544.289 428.5 543.5Z" fill="#eeeeee" fill-rule="evenodd" opacity="1" stroke="none" />
<path d="M557.5 542.5C559.292 544.461 561.458 545.795 564 546.5C566.537 546.3 568.204 544.967 569 542.5C570.42 544.422 572.253 545.755 574.5 546.5C573.706 552.783 573.206 559.116 573 565.5C569.715 567.137 566.215 567.804 562.5 567.5C562.782 564.653 562.782 561.987 562.5 559.5C560.544 561.351 559.544 563.684 559.5 566.5C557.335 566.884 555.668 566.217 554.5 564.5C556.928 557.373 557.928 550.039 557.5 542.5Z" fill="#f1f1f1" fill-rule="evenodd" opacity="1" stroke="none" />
<path d="M468.5 548.5C470.134 549.207 471.468 550.373 472.5 552C475.956 553.123 478.79 552.29 481 549.5C482.019 550.687 483.186 551.687 484.5 552.5C485.663 557.802 485.829 563.136 485 568.5C484.5 569 484 569.5 483.5 570C480.183 570.498 476.85 570.665 473.5 570.5C473.227 561.483 472.227 561.316 470.5 570C468.175 570.492 466.842 569.492 466.5 567C467.925 560.912 468.592 554.746 468.5 548.5Z" fill="#ededed" fill-rule="evenodd" opacity="1" stroke="none" />
</g>

</svg>