<?xml version="1.0" encoding="UTF-8" standalone="no"?>
<svg xmlns="http://www.w3.org/2000/svg" fill-rule="nonzero" clip-rule="evenodd" stroke-miterlimit="10" style="fill-rule:nonzero;clip-rule:evenodd;stroke-linecap:round;stroke-linejoin:round;"
     viewBox="274.3 820.9 191.4 190.8" xml:space="preserve">
<g opacity="1">
<path d="M422.5 968.5C421.833 970.167 421.167 971.833 420.5 973.5C420.584 966.748 417.251 962.915 410.5 962C397.055 962.045 383.722 963.211 370.5 965.5C363.255 965.857 356.255 964.857 349.5 962.5C349.5 961.833 349.833 961.5 350.5 961.5C364.056 965.93 377.389 965.43 390.5 960C387.945 951.889 387.945 943.723 390.5 935.5C388.087 930.331 385.92 924.997 384 919.5C383.506 917.866 383.34 916.199 383.5 914.5C382.178 914.33 381.011 914.663 380 915.5C378.152 924.341 372.985 927.174 364.5 924C361.38 921.592 360.047 918.426 360.5 914.5C359.5 914.5 358.5 914.5 357.5 914.5C356.414 920.595 354.247 926.261 351 931.5C351.596 940.513 351.429 949.513 350.5 958.5C349.075 960.031 348.409 959.698 348.5 957.5C351.944 942.46 348.444 929.46 338 918.5C337.667 916.5 337.333 914.5 337 912.5C331.904 904.546 329.237 895.88 329 886.5C330.852 881.977 333.518 877.977 337 874.5C344 868.167 351 861.833 358 855.5C366.231 832.898 374.231 832.898 382 855.5C389 861.833 396 868.167 403 874.5C406.163 878.156 408.829 882.156 411 886.5C411.667 888.833 411.667 891.167 411 893.5C406.543 907.073 400.543 919.739 393 931.5C390.449 940.444 390.115 949.444 392 958.5C392.388 959.428 393.055 960.095 394 960.5C400.462 959.391 406.962 959.225 413.5 960C418.308 961.047 421.308 963.88 422.5 968.5Z" fill="#191919" fill-rule="evenodd" opacity="1" stroke="none"/>
<path d="M373.5 878.5C375.372 881.529 378.039 883.695 381.5 885C382.872 886.242 383.872 887.742 384.5 889.5C385.689 890.429 387.022 890.762 388.5 890.5C389.226 894.859 387.726 897.192 384 897.5C381.176 906.65 375.009 910.484 365.5 909C359.996 906.164 356.83 901.664 356 895.5C354.836 895.835 353.503 895.835 352 895.5C351.506 893.866 351.34 892.199 351.5 890.5C355.151 890.838 356.817 889.172 356.5 885.5C360.586 884.57 364.586 883.403 368.5 882C370.584 881.303 372.251 880.136 373.5 878.5Z" fill="#efefef" fill-rule="evenodd" opacity="1" stroke="none"/>
<path d="M368.5 840.5C369.651 845.65 369.817 850.984 369 856.5C358.932 866.237 349.932 876.904 342 888.5C342.987 894.498 345.153 900.165 348.5 905.5C346.167 908.5 343.5 911.167 340.5 913.5C336.965 909.091 334.465 904.091 333 898.5C331.469 894.596 330.802 890.596 331 886.5C339.631 875.535 349.297 865.535 360 856.5C362.067 850.695 364.901 845.362 368.5 840.5Z" fill="#efeff0" fill-rule="evenodd" opacity="1" stroke="none"/>
<path d="M367.5 868.5C380.362 868.526 386.528 874.859 386 887.5C385.106 883.565 382.94 881.731 379.5 882C377.251 880.255 375.584 878.088 374.5 875.5C372.796 877.041 370.963 878.375 369 879.5C368.5 879.167 368 878.833 367.5 878.5C368.326 877.549 368.492 876.549 368 875.5C365.197 879.646 361.364 882.146 356.5 883C353.849 888.946 353.016 888.446 354 881.5C355.793 874.205 360.293 869.871 367.5 868.5Z" fill="#e9e9e9" fill-rule="evenodd" opacity="1" stroke="none"/>
<path d="M371.5 840.5C375.083 845.327 377.916 850.661 380 856.5C390.703 865.535 400.369 875.535 409 886.5C409.307 890.62 408.64 894.62 407 898.5C405.535 904.091 403.035 909.091 399.5 913.5C396.5 911.167 393.833 908.5 391.5 905.5C394.847 900.165 397.013 894.498 398 888.5C391.719 879.218 385.052 870.218 378 861.5C376.255 860.044 374.422 858.711 372.5 857.5C371.505 851.872 371.171 846.206 371.5 840.5Z" fill="#efefef" fill-rule="evenodd" opacity="1" stroke="none"/>
<path d="M378.5 868.5C379.497 867.287 380.497 867.454 381.5 869C380.423 869.47 379.423 869.303 378.5 868.5Z" fill="#b1b0b1" fill-rule="evenodd" opacity="1" stroke="none"/>
<path d="M369.5 859.5C374.527 859.981 377.193 862.648 377.5 867.5C372.87 866.771 368.203 866.437 363.5 866.5C364.089 862.914 366.089 860.58 369.5 859.5Z" fill="#e2e2e3" fill-rule="evenodd" opacity="1" stroke="none"/>
<path d="M360.5 890.5C362.663 891.362 364.663 891.696 366.5 891.5C365.307 893.384 363.641 893.884 361.5 893C360.748 892.329 360.414 891.496 360.5 890.5Z" fill="#252525" fill-rule="evenodd" opacity="1" stroke="none"/>
<path d="M378.5 890.5C380.549 890.706 380.883 891.539 379.5 893C377.272 893.82 375.272 893.487 373.5 892C375.382 891.802 377.048 891.302 378.5 890.5Z" fill="#3a3a3a" fill-rule="evenodd" opacity="1" stroke="none"/>
<path d="M388.5 879.5C391.39 882.922 394.057 886.589 396.5 890.5C393.54 898.263 389.207 905.097 383.5 911C381.975 912.009 380.308 912.509 378.5 912.5C378.238 911.022 378.571 909.689 379.5 908.5C382.566 906.707 384.4 904.04 385 900.5C386.667 899.167 388.333 897.833 390 896.5C389.115 891.005 388.615 885.338 388.5 879.5Z" fill="#e5e5e6" fill-rule="evenodd" opacity="1" stroke="none"/>
<path d="M351.5 878.5C352.043 878.56 352.376 878.893 352.5 879.5C351.492 884.931 350.658 890.264 350 895.5C353.98 900.086 357.98 904.753 362 909.5C362.483 910.448 362.649 911.448 362.5 912.5C358.452 912.559 355.285 910.892 353 907.5C348.073 901.658 345.406 894.992 345 887.5C347.385 884.621 349.552 881.621 351.5 878.5Z" fill="#e7e7e8" fill-rule="evenodd" opacity="1" stroke="none"/>
<path d="M365.5 902.5C368.433 902.473 371.433 902.473 374.5 902.5C371.466 905.155 368.466 905.155 365.5 902.5Z" fill="#272726" fill-rule="evenodd" opacity="1" stroke="none"/>
<path d="M389.5 907.5C393.57 910.06 397.236 913.227 400.5 917C397.212 921.077 394.045 925.244 391 929.5C387.677 924.879 385.511 919.712 384.5 914C385.985 911.683 387.652 909.516 389.5 907.5Z" fill="#eceded" fill-rule="evenodd" opacity="1" stroke="none"/>
<path d="M348.5 907.5C351.563 909.051 354.229 911.218 356.5 914C354.808 918.074 353.308 922.24 352 926.5C351.167 927.5 350.333 928.5 349.5 929.5C346.324 925.486 343.324 921.319 340.5 917C343.681 914.315 346.347 911.148 348.5 907.5Z" fill="#f0f0f0" fill-rule="evenodd" opacity="1" stroke="none"/>
<path d="M364.5 910.5C368.169 911.751 371.836 911.751 375.5 910.5C379.881 919.521 376.881 923.688 366.5 923C361.903 919.508 361.236 915.342 364.5 910.5Z" fill="#e7e7e7" fill-rule="evenodd" opacity="1" stroke="none"/>
<path d="M350.5 961.5C350.5 960.5 350.5 959.5 350.5 958.5C351.429 949.513 351.596 940.513 351 931.5C354.247 926.261 356.414 920.595 357.5 914.5C358.5 914.5 359.5 914.5 360.5 914.5C360.047 918.426 361.38 921.592 364.5 924C372.985 927.174 378.152 924.341 380 915.5C381.011 914.663 382.178 914.33 383.5 914.5C383.34 916.199 383.506 917.866 384 919.5C385.92 924.997 388.087 930.331 390.5 935.5C387.945 943.723 387.945 951.889 390.5 960C377.389 965.43 364.056 965.93 350.5 961.5Z" fill="#f4f4f4" fill-rule="evenodd" opacity="1" stroke="none"/>
<path d="M348.5 957.5C348.409 959.698 349.075 960.031 350.5 958.5C350.5 959.5 350.5 960.5 350.5 961.5C349.833 961.5 349.5 961.833 349.5 962.5C346.287 962.81 343.287 962.477 340.5 961.5C342.199 961.66 343.866 961.494 345.5 961C343.292 960.809 341.292 960.309 339.5 959.5C342.855 959.909 345.855 959.242 348.5 957.5Z" fill="#414242" fill-rule="evenodd" opacity="1" stroke="none"/>
<path d="M340.5 961.5C343.287 962.477 346.287 962.81 349.5 962.5C356.255 964.857 363.255 965.857 370.5 965.5C383.722 963.211 397.055 962.045 410.5 962C417.251 962.915 420.584 966.748 420.5 973.5C420.5 973.833 420.5 974.167 420.5 974.5C418.29 978.469 414.957 981.302 410.5 983C404.55 984.49 398.55 985.657 392.5 986.5C392.607 984.097 391.607 982.264 389.5 981C386.623 979.873 383.623 979.206 380.5 979C379.833 978.333 379.167 977.667 378.5 977C384.919 973.124 391.586 969.791 398.5 967C391.527 968.138 384.86 970.472 378.5 974C375.821 974.434 373.154 974.268 370.5 973.5C368.519 973.437 366.852 974.104 365.5 975.5C358.506 972.086 351.339 969.086 344 966.5C343.5 966.833 343 967.167 342.5 967.5C350.287 970.708 357.954 974.208 365.5 978C366.423 980.041 366.756 982.208 366.5 984.5C364.5 984.5 362.5 984.5 360.5 984.5C358.082 983.134 355.416 982.134 352.5 981.5C349.686 981.981 348.352 983.648 348.5 986.5C340.468 986.128 332.801 984.294 325.5 981C316.766 973.071 317.766 966.738 328.5 962C332.486 961.501 336.486 961.334 340.5 961.5Z" fill="#f1f1f1" fill-rule="evenodd" opacity="1" stroke="none"/>
<path d="M432.5 977.5C435.614 978.091 438.114 979.758 440 982.5C443.752 987.018 447.252 991.684 450.5 996.5C396.664 996.832 342.997 996.499 289.5 995.5C294.261 989.564 299.261 983.731 304.5 978C312.851 976.02 319.851 978.02 325.5 984C338.353 988.956 351.519 990.123 365 987.5C372.629 988.739 380.295 989.739 388 990.5C395.789 988.762 403.622 986.929 411.5 985C415.533 983.651 418.866 981.318 421.5 978C425.152 977.501 428.818 977.335 432.5 977.5Z" fill="#f5f5f5" fill-rule="evenodd" opacity="1" stroke="none"/>
<path d="M339.5 959.5C341.292 960.309 343.292 960.809 345.5 961C343.866 961.494 342.199 961.66 340.5 961.5C336.486 961.334 332.486 961.501 328.5 962C317.766 966.738 316.766 973.071 325.5 981C332.801 984.294 340.468 986.128 348.5 986.5C348.352 983.648 349.686 981.981 352.5 981.5C355.416 982.134 358.082 983.134 360.5 984.5C362.5 984.5 364.5 984.5 366.5 984.5C366.756 982.208 366.423 980.041 365.5 978C357.954 974.208 350.287 970.708 342.5 967.5C343 967.167 343.5 966.833 344 966.5C351.339 969.086 358.506 972.086 365.5 975.5C366.852 974.104 368.519 973.437 370.5 973.5C373.154 974.268 375.821 974.434 378.5 974C384.86 970.472 391.527 968.138 398.5 967C391.586 969.791 384.919 973.124 378.5 977C379.167 977.667 379.833 978.333 380.5 979C383.623 979.206 386.623 979.873 389.5 981C391.607 982.264 392.607 984.097 392.5 986.5C398.55 985.657 404.55 984.49 410.5 983C414.957 981.302 418.29 978.469 420.5 974.5C424.232 976.131 428.232 977.131 432.5 977.5C428.818 977.335 425.152 977.501 421.5 978C418.866 981.318 415.533 983.651 411.5 985C403.622 986.929 395.789 988.762 388 990.5C380.295 989.739 372.629 988.739 365 987.5C351.519 990.123 338.353 988.956 325.5 984C319.851 978.02 312.851 976.02 304.5 978C299.261 983.731 294.261 989.564 289.5 995.5C288.957 995.56 288.624 995.893 288.5 996.5C296.138 997.497 303.804 997.831 311.5 997.5C311.167 998.167 310.833 998.833 310.5 999.5C302.826 999.666 295.159 999.5 287.5 999C286.446 997.612 286.28 996.112 287 994.5C292.048 988.241 297.214 982.074 302.5 976C307.489 975.501 312.489 975.334 317.5 975.5C316.195 967.31 319.528 962.144 327.5 960C331.486 959.501 335.486 959.334 339.5 959.5Z" fill="#1a1a1a" fill-rule="evenodd" opacity="1" stroke="none"/>
<path d="M372.5 976.5C373.552 976.351 374.552 976.517 375.5 977C376.257 978.512 377.257 979.846 378.5 981C381.956 981.18 385.289 981.847 388.5 983C389.38 984.356 389.714 985.856 389.5 987.5C382.73 987.714 376.063 987.047 369.5 985.5C369.049 981.896 370.049 978.896 372.5 976.5Z" fill="#e5e5e5" fill-rule="evenodd" opacity="1" stroke="none"/>
<path d="M367.5 975.5C370.797 975.329 371.131 975.995 368.5 977.5C367.702 977.043 367.369 976.376 367.5 975.5Z" fill="#a4a7a8" fill-rule="evenodd" opacity="1" stroke="none"/>
<path d="M360.5 984.5C358.012 986.388 355.012 987.055 351.5 986.5C351.5 985.5 351.5 984.5 351.5 983.5C354.518 983.704 357.518 984.037 360.5 984.5Z" fill="#dadada" fill-rule="evenodd" opacity="1" stroke="none"/>
<path d="M289.5 995.5C342.997 996.499 396.664 996.832 450.5 996.5C404.336 997.499 358.003 997.832 311.5 997.5C303.804 997.831 296.138 997.497 288.5 996.5C288.624 995.893 288.957 995.56 289.5 995.5Z" fill="#9c9e9e" fill-rule="evenodd" opacity="1" stroke="none"/>
<path d="M422.5 968.5C422.5 970.833 422.5 973.167 422.5 975.5C427.511 975.334 432.511 975.501 437.5 976C442.786 982.074 447.952 988.241 453 994.5C453.72 996.112 453.554 997.612 452.5 999C405.168 999.5 357.835 999.667 310.5 999.5C310.833 998.833 311.167 998.167 311.5 997.5C358.003 997.832 404.336 997.499 450.5 996.5C447.252 991.684 443.752 987.018 440 982.5C438.114 979.758 435.614 978.091 432.5 977.5C428.232 977.131 424.232 976.131 420.5 974.5C420.5 974.167 420.5 973.833 420.5 973.5C421.167 971.833 421.833 970.167 422.5 968.5Z" fill="#040404" fill-rule="evenodd" opacity="1" stroke="none"/>
</g>
</svg>