<?xml version="1.0" encoding="UTF-8"?>
<svg xmlns="http://www.w3.org/2000/svg" version="1.1" viewBox="932.07 374.67 284.40 189.29" width="284.40" height="189.29" style="overflow:visible;" xml:space="preserve">
<g>
<path d="M1064.5 407.5C1063.83 408.5 1063.17 409.5 1062.5 410.5C1062.77 408.62 1062.1 407.287 1060.5 406.5C1055.54 399.539 1050.21 392.873 1044.5 386.5C1039.06 393.714 1033.4 400.714 1027.5 407.5C1027.16 406.662 1026.49 406.328 1025.5 406.5C1030.48 400.01 1035.31 393.343 1040 386.5C1042.5 382.998 1045.33 382.665 1048.5 385.5C1054.27 392.59 1059.6 399.923 1064.5 407.5Z" fill="#181818" fill-rule="evenodd" opacity="1" stroke="none" />
<path d="M995.5 405.5C996.167 406.5 996.833 407.5 997.5 408.5C997.667 456.168 997.5 503.834 997 551.5C985.91 552.653 974.743 552.82 963.5 552C963 551.5 962.5 551 962 550.5C961.333 502.833 961.333 455.167 962 407.5C967.675 400.329 973.508 393.329 979.5 386.5C984.856 392.853 990.19 399.186 995.5 405.5Z" fill="#f7f7f7" fill-rule="evenodd" opacity="1" stroke="none" />
<path d="M1060.5 406.5C1061.49 454.458 1061.82 502.458 1061.5 550.5C1061.39 551.117 1061.06 551.617 1060.5 552C1049.83 552.667 1039.17 552.667 1028.5 552C1028 551.5 1027.5 551 1027 550.5C1026.17 502.763 1026.34 455.096 1027.5 407.5C1033.4 400.714 1039.06 393.714 1044.5 386.5C1050.21 392.873 1055.54 399.539 1060.5 406.5Z" fill="#f6f6f6" fill-rule="evenodd" opacity="1" stroke="none" />
<path d="M1129.5 425.5C1136.65 426.492 1143.98 426.825 1151.5 426.5C1151.5 420.5 1151.5 414.5 1151.5 408.5C1156.73 400.589 1162.4 392.922 1168.5 385.5C1170.19 383.744 1172.19 383.244 1174.5 384C1180.38 390.882 1185.88 398.048 1191 405.5C1191.5 412.158 1191.67 418.825 1191.5 425.5C1203.42 423.25 1208.08 428.084 1205.5 440C1208.47 451.517 1204.14 456.017 1192.5 453.5C1191.5 468.324 1191.17 483.324 1191.5 498.5C1195.17 498.5 1198.83 498.5 1202.5 498.5C1203.46 498.953 1204.29 499.619 1205 500.5C1205.67 508.167 1205.67 515.833 1205 523.5C1204.5 524 1204 524.5 1203.5 525C1199.58 525.203 1195.75 525.703 1192 526.5C1191.67 535.167 1191.33 543.833 1191 552.5C1190.1 553.701 1188.93 554.535 1187.5 555C1176.5 555.667 1165.5 555.667 1154.5 555C1152.86 553.871 1151.86 552.371 1151.5 550.5C1151.5 542.167 1151.5 533.833 1151.5 525.5C1143.98 525.175 1136.65 525.508 1129.5 526.5C1129.67 534.507 1129.5 542.507 1129 550.5C1128.22 552.286 1127.05 553.786 1125.5 555C1114.17 555.667 1102.83 555.667 1091.5 555C1089.86 553.871 1088.86 552.371 1088.5 550.5C1088.5 542.167 1088.5 533.833 1088.5 525.5C1080.65 525.175 1072.98 525.508 1065.5 526.5C1065.94 535.276 1065.44 543.942 1064 552.5C1063.17 553.333 1062.33 554.167 1061.5 555C1050.17 555.667 1038.83 555.667 1027.5 555C1026.58 554.626 1025.75 554.126 1025 553.5C1023.56 544.608 1023.06 535.608 1023.5 526.5C1016.02 525.508 1008.35 525.175 1000.5 525.5C1000.5 532.5 1000.5 539.5 1000.5 546.5C999.778 546.918 999.278 547.584 999 548.5C998.833 501.665 998.333 454.998 997.5 408.5C996.833 407.5 996.167 406.5 995.5 405.5C995.328 404.508 995.662 403.842 996.5 403.5C997.794 404.29 998.961 405.29 1000 406.5C1000.5 412.825 1000.67 419.158 1000.5 425.5C1008.17 425.5 1015.83 425.5 1023.5 425.5C1023.33 419.491 1023.5 413.491 1024 407.5C1024.38 406.944 1024.88 406.611 1025.5 406.5C1026.49 406.328 1027.16 406.662 1027.5 407.5C1026.34 455.096 1026.17 502.763 1027 550.5C1027.5 551 1028 551.5 1028.5 552C1039.17 552.667 1049.83 552.667 1060.5 552C1061.06 551.617 1061.39 551.117 1061.5 550.5C1062.5 504.003 1062.83 457.336 1062.5 410.5C1063.17 409.5 1063.83 408.5 1064.5 407.5C1065.49 413.31 1065.82 419.31 1065.5 425.5C1072.98 426.492 1080.65 426.825 1088.5 426.5C1088.5 420.5 1088.5 414.5 1088.5 408.5C1094.21 399.942 1100.55 391.775 1107.5 384C1108.83 383.333 1110.17 383.333 1111.5 384C1117.7 391.566 1123.53 399.399 1129 407.5C1129.5 413.491 1129.67 419.491 1129.5 425.5Z" fill="#141414" fill-rule="evenodd" opacity="1" stroke="none" />
<path d="M1000.5 428.5C1008.5 428.5 1016.5 428.5 1024.5 428.5C1024.5 435.833 1024.5 443.167 1024.5 450.5C1016.5 450.5 1008.5 450.5 1000.5 450.5C1000.5 443.167 1000.5 435.833 1000.5 428.5Z" fill="#929392" fill-rule="evenodd" opacity="1" stroke="none" />
<path d="M1129.5 429.5C1136.65 428.508 1143.98 428.175 1151.5 428.5C1151.5 435.833 1151.5 443.167 1151.5 450.5C1143.98 450.825 1136.65 450.492 1129.5 449.5C1136.5 449.5 1143.5 449.5 1150.5 449.5C1150.5 442.833 1150.5 436.167 1150.5 429.5C1143.5 429.5 1136.5 429.5 1129.5 429.5Z" fill="#a0a2a1" fill-rule="evenodd" opacity="1" stroke="none" />
<path d="M1202.5 429.5C1199.17 429.5 1195.83 429.5 1192.5 429.5C1192.5 436.167 1192.5 442.833 1192.5 449.5C1195.5 449.5 1198.5 449.5 1201.5 449.5C1198.38 450.479 1195.04 450.813 1191.5 450.5C1191.5 443.167 1191.5 435.833 1191.5 428.5C1195.37 428.185 1199.04 428.518 1202.5 429.5Z" fill="#8b8a8c" fill-rule="evenodd" opacity="1" stroke="none" />
<path d="M1041.5 433.5C1050.03 433.56 1051.69 437.06 1046.5 444C1040.69 444.171 1038.52 441.338 1040 435.5C1040.72 434.956 1041.22 434.289 1041.5 433.5Z" fill="#181819" fill-rule="evenodd" opacity="1" stroke="none" />
<path d="M1042.5 436.5C1043.83 436.5 1045.17 436.5 1046.5 436.5C1046.88 438.665 1046.22 440.332 1044.5 441.5C1042.78 440.332 1042.12 438.665 1042.5 436.5Z" fill="#d8dadb" fill-rule="evenodd" opacity="1" stroke="none" />
<path d="M1202.5 429.5C1202.82 436.354 1202.49 443.021 1201.5 449.5C1198.5 449.5 1195.5 449.5 1192.5 449.5C1192.5 442.833 1192.5 436.167 1192.5 429.5C1195.83 429.5 1199.17 429.5 1202.5 429.5Z" fill="#f5f5f5" fill-rule="evenodd" opacity="1" stroke="none" />
<path d="M1129.5 429.5C1136.5 429.5 1143.5 429.5 1150.5 429.5C1150.5 436.167 1150.5 442.833 1150.5 449.5C1143.5 449.5 1136.5 449.5 1129.5 449.5C1129.5 442.833 1129.5 436.167 1129.5 429.5Z" fill="#f8f8f8" fill-rule="evenodd" opacity="1" stroke="none" />
<path d="M1065.5 429.5C1072.83 429.5 1080.17 429.5 1087.5 429.5C1087.5 436.167 1087.5 442.833 1087.5 449.5C1080.17 449.5 1072.83 449.5 1065.5 449.5C1065.5 442.833 1065.5 436.167 1065.5 429.5Z" fill="#f8f8f8" fill-rule="evenodd" opacity="1" stroke="none" />
<path d="M1001.5 429.5C1008.83 429.5 1016.17 429.5 1023.5 429.5C1023.5 436.167 1023.5 442.833 1023.5 449.5C1016.17 449.5 1008.83 449.5 1001.5 449.5C1001.5 442.833 1001.5 436.167 1001.5 429.5Z" fill="#f8f8f8" fill-rule="evenodd" opacity="1" stroke="none" />
<path d="M1065.5 429.5C1072.98 428.508 1080.65 428.175 1088.5 428.5C1088.5 435.833 1088.5 443.167 1088.5 450.5C1080.65 450.825 1072.98 450.492 1065.5 449.5C1072.83 449.5 1080.17 449.5 1087.5 449.5C1087.5 442.833 1087.5 436.167 1087.5 429.5C1080.17 429.5 1072.83 429.5 1065.5 429.5Z" fill="#9a9c9a" fill-rule="evenodd" opacity="1" stroke="none" />
<path d="M1151.5 408.5C1151.5 414.5 1151.5 420.5 1151.5 426.5C1143.98 426.825 1136.65 426.492 1129.5 425.5C1136.5 425.5 1143.5 425.5 1150.5 425.5C1150.18 419.642 1150.51 413.975 1151.5 408.5Z" fill="#717372" fill-rule="evenodd" opacity="1" stroke="none" />
<path d="M1088.5 408.5C1088.5 414.5 1088.5 420.5 1088.5 426.5C1080.65 426.825 1072.98 426.492 1065.5 425.5C1072.83 425.5 1080.17 425.5 1087.5 425.5C1087.18 419.642 1087.51 413.975 1088.5 408.5Z" fill="#7b7e7d" fill-rule="evenodd" opacity="1" stroke="none" />
<path d="M1108.5 386.5C1109.5 386.414 1110.33 386.748 1111 387.5C1116 394.167 1121 400.833 1126 407.5C1126.67 455.167 1126.67 502.833 1126 550.5C1125.5 551 1125 551.5 1124.5 552C1113.59 552.82 1102.76 552.653 1092 551.5C1091.33 503.5 1091.33 455.5 1092 407.5C1097.71 400.625 1103.21 393.625 1108.5 386.5Z" fill="#f6f6f6" fill-rule="evenodd" opacity="1" stroke="none" />
<path d="M1106.5 433.5C1112.5 433.002 1114.67 435.669 1113 441.5C1109.48 445.701 1106.48 445.368 1104 440.5C1103.33 439.167 1103.33 437.833 1104 436.5C1105.04 435.627 1105.88 434.627 1106.5 433.5Z" fill="#181819" fill-rule="evenodd" opacity="1" stroke="none" />
<path d="M1107.5 436.5C1112.34 437.188 1112.67 438.855 1108.5 441.5C1106.3 440.218 1105.96 438.551 1107.5 436.5Z" fill="#d7d8d8" fill-rule="evenodd" opacity="1" stroke="none" />
<path d="M1171.5 386.5C1173.02 386.511 1174.18 387.177 1175 388.5C1179.42 395.011 1184.09 401.345 1189 407.5C1189.67 455.167 1189.67 502.833 1189 550.5C1188.5 551 1188 551.5 1187.5 552C1176.83 552.667 1166.17 552.667 1155.5 552C1155 551.5 1154.5 551 1154 550.5C1153.33 503.167 1153.33 455.833 1154 408.5C1160.05 401.292 1165.88 393.958 1171.5 386.5Z" fill="#f1f1f1" fill-rule="evenodd" opacity="1" stroke="none" />
<path d="M1169.5 433.5C1175.5 433.002 1177.67 435.669 1176 441.5C1172.48 445.701 1169.48 445.368 1167 440.5C1166.33 439.167 1166.33 437.833 1167 436.5C1168.04 435.627 1168.88 434.627 1169.5 433.5Z" fill="#181818" fill-rule="evenodd" opacity="1" stroke="none" />
<path d="M1170.5 436.5C1175.34 437.188 1175.67 438.855 1171.5 441.5C1169.3 440.218 1168.96 438.551 1170.5 436.5Z" fill="#d7d7d7" fill-rule="evenodd" opacity="1" stroke="none" />
<path d="M1150.5 453.5C1150.5 468.167 1150.5 482.833 1150.5 497.5C1143.5 497.5 1136.5 497.5 1129.5 497.5C1129.5 482.833 1129.5 468.167 1129.5 453.5C1136.5 453.5 1143.5 453.5 1150.5 453.5Z" fill="#f8f8f8" fill-rule="evenodd" opacity="1" stroke="none" />
<path d="M1001.5 453.5C1008.83 453.5 1016.17 453.5 1023.5 453.5C1023.5 468.167 1023.5 482.833 1023.5 497.5C1016.17 497.5 1008.83 497.5 1001.5 497.5C1001.5 482.833 1001.5 468.167 1001.5 453.5Z" fill="#f8f8f8" fill-rule="evenodd" opacity="1" stroke="none" />
<path d="M1087.5 453.5C1087.5 468.167 1087.5 482.833 1087.5 497.5C1080.17 497.5 1072.83 497.5 1065.5 497.5C1065.5 482.833 1065.5 468.167 1065.5 453.5C1072.83 453.5 1080.17 453.5 1087.5 453.5Z" fill="#f8f9f9" fill-rule="evenodd" opacity="1" stroke="none" />
<path d="M1087.5 453.5C1088.5 468.324 1088.83 483.324 1088.5 498.5C1080.65 498.825 1072.98 498.492 1065.5 497.5C1072.83 497.5 1080.17 497.5 1087.5 497.5C1087.5 482.833 1087.5 468.167 1087.5 453.5Z" fill="#969796" fill-rule="evenodd" opacity="1" stroke="none" />
<path d="M1001.5 453.5C1001.5 468.167 1001.5 482.833 1001.5 497.5C1008.83 497.5 1016.17 497.5 1023.5 497.5C1016.02 498.492 1008.35 498.825 1000.5 498.5C1000.17 483.324 1000.5 468.324 1001.5 453.5Z" fill="#a3a3a4" fill-rule="evenodd" opacity="1" stroke="none" />
<path d="M1060.5 406.5C1062.1 407.287 1062.77 408.62 1062.5 410.5C1062.83 457.336 1062.5 504.003 1061.5 550.5C1061.82 502.458 1061.49 454.458 1060.5 406.5Z" fill="#bcbebb" fill-rule="evenodd" opacity="1" stroke="none" />
<path d="M1150.5 453.5C1151.5 468.324 1151.83 483.324 1151.5 498.5C1143.98 498.825 1136.65 498.492 1129.5 497.5C1136.5 497.5 1143.5 497.5 1150.5 497.5C1150.5 482.833 1150.5 468.167 1150.5 453.5Z" fill="#979a99" fill-rule="evenodd" opacity="1" stroke="none" />
<path d="M1192.5 453.5C1192.5 468.167 1192.5 482.833 1192.5 497.5C1196.04 497.187 1199.38 497.521 1202.5 498.5C1198.83 498.5 1195.17 498.5 1191.5 498.5C1191.17 483.324 1191.5 468.324 1192.5 453.5Z" fill="#848484" fill-rule="evenodd" opacity="1" stroke="none" />
<path d="M1065.5 501.5C1072.98 500.508 1080.65 500.175 1088.5 500.5C1088.5 508.167 1088.5 515.833 1088.5 523.5C1080.65 523.825 1072.98 523.492 1065.5 522.5C1072.83 522.5 1080.17 522.5 1087.5 522.5C1087.5 515.5 1087.5 508.5 1087.5 501.5C1080.17 501.5 1072.83 501.5 1065.5 501.5Z" fill="#949695" fill-rule="evenodd" opacity="1" stroke="none" />
<path d="M1129.5 501.5C1136.5 501.5 1143.5 501.5 1150.5 501.5C1150.5 508.5 1150.5 515.5 1150.5 522.5C1143.5 522.5 1136.5 522.5 1129.5 522.5C1129.5 515.5 1129.5 508.5 1129.5 501.5Z" fill="#f7f7f7" fill-rule="evenodd" opacity="1" stroke="none" />
<path d="M1065.5 501.5C1072.83 501.5 1080.17 501.5 1087.5 501.5C1087.5 508.5 1087.5 515.5 1087.5 522.5C1080.17 522.5 1072.83 522.5 1065.5 522.5C1065.5 515.5 1065.5 508.5 1065.5 501.5Z" fill="#f8f8f8" fill-rule="evenodd" opacity="1" stroke="none" />
<path d="M1201.5 501.5C1198.5 501.5 1195.5 501.5 1192.5 501.5C1192.5 508.5 1192.5 515.5 1192.5 522.5C1195.83 522.5 1199.17 522.5 1202.5 522.5C1199.04 523.482 1195.37 523.815 1191.5 523.5C1191.5 515.833 1191.5 508.167 1191.5 500.5C1195.04 500.187 1198.38 500.521 1201.5 501.5Z" fill="#888889" fill-rule="evenodd" opacity="1" stroke="none" />
<path d="M1201.5 501.5C1202.49 508.313 1202.82 515.313 1202.5 522.5C1199.17 522.5 1195.83 522.5 1192.5 522.5C1192.5 515.5 1192.5 508.5 1192.5 501.5C1195.5 501.5 1198.5 501.5 1201.5 501.5Z" fill="#f4f4f4" fill-rule="evenodd" opacity="1" stroke="none" />
<path d="M1041.5 506.5C1049.44 505.937 1051.44 509.104 1047.5 516C1039.42 516.805 1037.42 513.638 1041.5 506.5Z" fill="#161616" fill-rule="evenodd" opacity="1" stroke="none" />
<path d="M1105.5 506.5C1112.67 504.839 1115.17 507.506 1113 514.5C1110.58 516.68 1107.92 517.013 1105 515.5C1103.03 512.384 1103.2 509.384 1105.5 506.5Z" fill="#191919" fill-rule="evenodd" opacity="1" stroke="none" />
<path d="M1168.5 506.5C1176.49 505.998 1178.49 509.165 1174.5 516C1166.89 516.634 1164.89 513.468 1168.5 506.5Z" fill="#161617" fill-rule="evenodd" opacity="1" stroke="none" />
<path d="M1043.5 508.5C1046.08 509.048 1047.08 510.715 1046.5 513.5C1045.17 513.5 1043.83 513.5 1042.5 513.5C1042.37 511.708 1042.7 510.042 1043.5 508.5Z" fill="#e3e4e4" fill-rule="evenodd" opacity="1" stroke="none" />
<path d="M1107.5 508.5C1110.69 508.722 1111.69 510.222 1110.5 513C1106.67 513.514 1105.67 512.014 1107.5 508.5Z" fill="#d1d2d2" fill-rule="evenodd" opacity="1" stroke="none" />
<path d="M1170.5 508.5C1173.08 509.048 1174.08 510.715 1173.5 513.5C1169.72 513.475 1168.72 511.808 1170.5 508.5Z" fill="#e0e1e1" fill-rule="evenodd" opacity="1" stroke="none" />
<path d="M1129.5 501.5C1136.65 500.508 1143.98 500.175 1151.5 500.5C1151.5 508.167 1151.5 515.833 1151.5 523.5C1143.98 523.825 1136.65 523.492 1129.5 522.5C1136.5 522.5 1143.5 522.5 1150.5 522.5C1150.5 515.5 1150.5 508.5 1150.5 501.5C1143.5 501.5 1136.5 501.5 1129.5 501.5Z" fill="#919392" fill-rule="evenodd" opacity="1" stroke="none" />
<path d="M1023.5 522.5C1016.02 523.492 1008.35 523.825 1000.5 523.5C1000.5 515.833 1000.5 508.167 1000.5 500.5C1008.5 500.5 1016.5 500.5 1024.5 500.5C1024.82 508.019 1024.49 515.352 1023.5 522.5Z" fill="#8d8e8e" fill-rule="evenodd" opacity="1" stroke="none" />
<path d="M1023.5 522.5C1016.17 522.5 1008.83 522.5 1001.5 522.5C1001.5 515.5 1001.5 508.5 1001.5 501.5C1008.83 501.5 1016.17 501.5 1023.5 501.5C1023.5 508.5 1023.5 515.5 1023.5 522.5Z" fill="#f8f8f8" fill-rule="evenodd" opacity="1" stroke="none" />
<path d="M1065.5 526.5C1072.98 525.508 1080.65 525.175 1088.5 525.5C1088.5 533.833 1088.5 542.167 1088.5 550.5C1087.51 542.684 1087.17 534.684 1087.5 526.5C1080.17 526.5 1072.83 526.5 1065.5 526.5Z" fill="#8f918f" fill-rule="evenodd" opacity="1" stroke="none" />
<path d="M1023.5 526.5C1016.17 526.5 1008.83 526.5 1001.5 526.5C1001.83 534.352 1001.49 542.018 1000.5 549.5C1000.5 548.5 1000.5 547.5 1000.5 546.5C1000.5 539.5 1000.5 532.5 1000.5 525.5C1008.35 525.175 1016.02 525.508 1023.5 526.5Z" fill="#99999a" fill-rule="evenodd" opacity="1" stroke="none" />
<path d="M1129.5 526.5C1136.65 525.508 1143.98 525.175 1151.5 525.5C1151.5 533.833 1151.5 542.167 1151.5 550.5C1150.51 542.684 1150.17 534.684 1150.5 526.5C1143.5 526.5 1136.5 526.5 1129.5 526.5Z" fill="#888a89" fill-rule="evenodd" opacity="1" stroke="none" />
<path d="M996.5 403.5C995.662 403.842 995.328 404.508 995.5 405.5C990.19 399.186 984.856 392.853 979.5 386.5C973.508 393.329 967.675 400.329 962 407.5C961.333 455.167 961.333 502.833 962 550.5C962.5 551 963 551.5 963.5 552C974.743 552.82 985.91 552.653 997 551.5C997.5 503.834 997.667 456.168 997.5 408.5C998.333 454.998 998.833 501.665 999 548.5C999.278 547.584 999.778 546.918 1000.5 546.5C1000.5 547.5 1000.5 548.5 1000.5 549.5C1000.26 552.148 998.928 553.982 996.5 555C984.404 555.958 972.404 555.625 960.5 554C959.874 553.25 959.374 552.416 959 551.5C958.5 543.173 958.334 534.84 958.5 526.5C945.403 529.736 940.069 524.736 942.5 511.5C942.667 507.833 942.833 504.167 943 500.5C943.5 500 944 499.5 944.5 499C949.036 497.621 953.703 497.121 958.5 497.5C958.5 482.833 958.5 468.167 958.5 453.5C946.113 456.932 940.779 452.432 942.5 440C940.373 427.204 945.707 422.371 958.5 425.5C958.334 419.491 958.501 413.491 959 407.5C964.805 399.394 970.972 391.561 977.5 384C981.165 383.613 983.998 385.113 986 388.5C989.745 393.398 993.245 398.398 996.5 403.5Z" fill="#202120" fill-rule="evenodd" opacity="1" stroke="none" />
<path d="M977.5 505.5C984.57 506.407 986.237 509.907 982.5 516C976 517.5 973.5 515 975 508.5C976.045 507.627 976.878 506.627 977.5 505.5Z" fill="#191919" fill-rule="evenodd" opacity="1" stroke="none" />
<path d="M978.5 508.5C981.084 509.048 982.084 510.715 981.5 513.5C980.167 513.5 978.833 513.5 977.5 513.5C977.366 511.708 977.699 510.042 978.5 508.5Z" fill="#e1e1e2" fill-rule="evenodd" opacity="1" stroke="none" />
<path d="M946.5 501.5C950.298 500.517 954.298 500.183 958.5 500.5C958.5 508.167 958.5 515.833 958.5 523.5C954.298 523.817 950.298 523.483 946.5 522.5C950.167 522.5 953.833 522.5 957.5 522.5C957.5 515.5 957.5 508.5 957.5 501.5C953.833 501.5 950.167 501.5 946.5 501.5Z" fill="#c0c1c1" fill-rule="evenodd" opacity="1" stroke="none" />
<path d="M946.5 501.5C950.167 501.5 953.833 501.5 957.5 501.5C957.5 508.5 957.5 515.5 957.5 522.5C953.833 522.5 950.167 522.5 946.5 522.5C945.167 515.5 945.167 508.5 946.5 501.5Z" fill="#f6f6f6" fill-rule="evenodd" opacity="1" stroke="none" />
<path d="M946.5 428.5C950.5 428.5 954.5 428.5 958.5 428.5C958.5 435.833 958.5 443.167 958.5 450.5C954.233 450.797 950.066 450.464 946 449.5C945.205 442.42 945.372 435.42 946.5 428.5Z" fill="#ececec" fill-rule="evenodd" opacity="1" stroke="none" />
<path d="M976.5 433.5C983 432.499 985.5 435.165 984 441.5C980.477 445.701 977.477 445.368 975 440.5C974.391 437.935 974.891 435.601 976.5 433.5Z" fill="#19191a" fill-rule="evenodd" opacity="1" stroke="none" />
<path d="M977.5 436.5C978.833 436.5 980.167 436.5 981.5 436.5C981.884 438.665 981.217 440.332 979.5 441.5C977.783 440.332 977.116 438.665 977.5 436.5Z" fill="#d9dadb" fill-rule="evenodd" opacity="1" stroke="none" />
</g>

</svg>