<?xml version="1.0" encoding="UTF-8"?>
<svg xmlns="http://www.w3.org/2000/svg" version="1.1" viewBox="635.52 339.15 269.70 250.73" width="269.70" height="250.73" style="overflow:visible;" xml:space="preserve">
<g>
<path d="M717.5 383.5C717.821 388.695 717.487 393.695 716.5 398.5C715.521 395.843 713.854 395.177 711.5 396.5C713.968 399.472 715.802 402.806 717 406.5C717.667 407.833 718.333 407.833 719 406.5C721.702 399.081 723.036 391.414 723 383.5C729.178 388.401 731.178 394.734 729 402.5C727.418 411.829 724.751 420.829 721 429.5C720.779 426.057 719.779 425.724 718 428.5C715.344 433.317 711.844 437.317 707.5 440.5C707.167 440.167 706.833 439.833 706.5 439.5C710.569 435.601 714.069 431.267 717 426.5C718.778 420.721 718.778 415.054 717 409.5C716.667 410.5 716.333 411.5 716 412.5C713.748 408.785 710.581 406.118 706.5 404.5C705.417 405.365 705.251 406.365 706 407.5C715.657 415.058 716.657 423.391 709 432.5C709.437 426.212 707.271 421.045 702.5 417C701.056 416.219 699.723 416.386 698.5 417.5C704.72 423.65 706.053 430.65 702.5 438.5C700.883 439.038 699.216 439.371 697.5 439.5C698.662 431.479 695.496 426.146 688 423.5C687.5 423.833 687 424.167 686.5 424.5C692.567 428.64 694.734 434.306 693 441.5C690.765 443.202 688.265 444.202 685.5 444.5C685.906 440.312 684.406 436.979 681 434.5C679.613 436.194 679.946 437.86 682 439.5C683.426 444.757 682.259 449.257 678.5 453C670.549 456.964 669.382 456.131 675 450.5C675.833 448.833 676.667 447.167 677.5 445.5C677 445.167 676.5 444.833 676 444.5C673.866 447.635 671.366 450.468 668.5 453C658.713 456.69 652.213 453.524 649 443.5C647.779 437.483 648.945 431.983 652.5 427C658.974 426.321 665.307 426.654 671.5 428C666.838 424.413 661.505 422.58 655.5 422.5C658.445 416.791 661.279 411.125 664 405.5C663.199 402.294 662.865 398.961 663 395.5C665.006 391.487 667.506 387.82 670.5 384.5C668.922 383.702 667.256 383.202 665.5 383C669.464 380.656 673.464 378.49 677.5 376.5C675.587 375.949 673.587 375.782 671.5 376C665.886 369.515 664.052 362.015 666 353.5C670.19 352.249 673.523 353.582 676 357.5C679.041 362.45 681.207 367.783 682.5 373.5C675.207 379.082 672.041 386.416 673 395.5C675.667 390.833 678.333 386.167 681 381.5C683.061 378.437 685.727 376.104 689 374.5C689.5 374.667 690 374.833 690.5 375C684.803 381.105 681.637 388.271 681 396.5C683.333 393.833 685.667 391.167 688 388.5C688.468 382.933 690.302 377.933 693.5 373.5C694.5 373.5 695.5 373.5 696.5 373.5C696.383 375.484 697.05 377.15 698.5 378.5C697.02 368.437 699.687 359.604 706.5 352C707.5 351.333 708.5 351.333 709.5 352C716.086 361.562 716.086 371.062 709.5 380.5C711.818 381.834 713.485 381.168 714.5 378.5C716.756 379.421 717.756 381.088 717.5 383.5Z" fill="#f1f1f1" fill-rule="evenodd" opacity="1" stroke="none" />
<path d="M689.5 371.5C687.833 371.5 686.167 371.5 684.5 371.5C682.937 367.339 682.271 363.005 682.5 358.5C682.176 355.306 683.342 354.306 686 355.5C686.635 360.991 687.802 366.324 689.5 371.5Z" fill="#e7e7e7" fill-rule="evenodd" opacity="1" stroke="none" />
<path d="M717.5 383.5C718.653 389.319 718.819 395.319 718 401.5C717.487 400.473 716.987 399.473 716.5 398.5C717.487 393.695 717.821 388.695 717.5 383.5Z" fill="#767876" fill-rule="evenodd" opacity="1" stroke="none" />
<path d="M688.5 401.5C693.66 402.68 694.827 405.68 692 410.5C688.21 412.426 686.377 411.26 686.5 407C686.395 404.822 687.061 402.988 688.5 401.5Z" fill="#0f0f0f" fill-rule="evenodd" opacity="1" stroke="none" />
<path d="M680.5 354.5C680.34 356.199 680.506 357.866 681 359.5C681.383 358.944 681.883 358.611 682.5 358.5C682.271 363.005 682.937 367.339 684.5 371.5C686.167 371.5 687.833 371.5 689.5 371.5C689.082 372.222 688.416 372.722 687.5 373C689.473 373.495 691.473 373.662 693.5 373.5C690.302 377.933 688.468 382.933 688 388.5C685.667 391.167 683.333 393.833 681 396.5C681.637 388.271 684.803 381.105 690.5 375C690 374.833 689.5 374.667 689 374.5C685.727 376.104 683.061 378.437 681 381.5C678.333 386.167 675.667 390.833 673 395.5C672.041 386.416 675.207 379.082 682.5 373.5C681.207 367.783 679.041 362.45 676 357.5C673.523 353.582 670.19 352.249 666 353.5C664.052 362.015 665.886 369.515 671.5 376C673.587 375.782 675.587 375.949 677.5 376.5C673.464 378.49 669.464 380.656 665.5 383C667.256 383.202 668.922 383.702 670.5 384.5C667.506 387.82 665.006 391.487 663 395.5C662.865 398.961 663.199 402.294 664 405.5C661.279 411.125 658.445 416.791 655.5 422.5C661.505 422.58 666.838 424.413 671.5 428C665.307 426.654 658.974 426.321 652.5 427C648.945 431.983 647.779 437.483 649 443.5C652.213 453.524 658.713 456.69 668.5 453C671.366 450.468 673.866 447.635 676 444.5C676.5 444.833 677 445.167 677.5 445.5C676.667 447.167 675.833 448.833 675 450.5C669.382 456.131 670.549 456.964 678.5 453C682.259 449.257 683.426 444.757 682 439.5C679.946 437.86 679.613 436.194 681 434.5C684.406 436.979 685.906 440.312 685.5 444.5C688.265 444.202 690.765 443.202 693 441.5C694.734 434.306 692.567 428.64 686.5 424.5C687 424.167 687.5 423.833 688 423.5C695.496 426.146 698.662 431.479 697.5 439.5C699.216 439.371 700.883 439.038 702.5 438.5C702.782 439.778 703.449 440.778 704.5 441.5C698.362 443.158 692.362 445.325 686.5 448C678.967 459.094 668.967 462.094 656.5 457C646.691 450.617 643.524 441.784 647 430.5C650.764 425.073 654.097 419.407 657 413.5C657.289 404.506 659.455 396.006 663.5 388C662.491 386.832 661.491 385.665 660.5 384.5C662.688 381.478 665.355 378.978 668.5 377C662.936 370.093 661.103 362.259 663 353.5C664.691 349.787 667.525 348.621 671.5 350C674.295 351.793 676.795 353.96 679 356.5C679.278 355.584 679.778 354.918 680.5 354.5Z" fill="#161717" fill-rule="evenodd" opacity="1" stroke="none" />
<path d="M651.5 435.5C653.293 435.884 654.293 437.05 654.5 439C652.852 442.354 651.519 442.187 650.5 438.5C650.685 437.416 651.018 436.416 651.5 435.5Z" fill="#1f2021" fill-rule="evenodd" opacity="1" stroke="none" />
<path d="M664.5 436.5C667.492 437.132 668.159 438.799 666.5 441.5C665.311 442.429 663.978 442.762 662.5 442.5C662.253 440.142 662.919 438.142 664.5 436.5Z" fill="#161616" fill-rule="evenodd" opacity="1" stroke="none" />
<path d="M809.5 438.5C808.34 440.203 809.007 440.869 811.5 440.5C808.608 441.947 806.942 444.281 806.5 447.5C806.167 445.5 805.833 443.5 805.5 441.5C798.012 440.978 790.678 440.311 783.5 439.5C792.185 439.536 800.851 439.203 809.5 438.5Z" fill="#272726" fill-rule="evenodd" opacity="1" stroke="none" />
<path d="M783.5 439.5C790.678 440.311 798.012 440.978 805.5 441.5C805.833 443.5 806.167 445.5 806.5 447.5C803.979 460.006 802.812 472.673 803 485.5C799.198 505.198 797.531 504.531 798 483.5C794.562 470.306 793.729 456.973 795.5 443.5C792.914 442.52 790.247 442.187 787.5 442.5C783.667 458.002 783.667 473.502 787.5 489C787.318 493.92 786.652 498.753 785.5 503.5C784.833 500.5 784.167 497.5 783.5 494.5C780.706 486.281 778.206 477.948 776 469.5C775.264 461.465 775.431 453.465 776.5 445.5C777.451 444.081 777.784 442.415 777.5 440.5C776.167 440.5 774.833 440.5 773.5 440.5C771.883 439.962 770.216 439.629 768.5 439.5C768.559 464.005 760.559 485.338 744.5 503.5C742.516 503.516 741.516 502.516 741.5 500.5C743.813 498.043 746.147 495.543 748.5 493C747.167 492 747.167 491 748.5 490C747.906 489.536 747.239 489.369 746.5 489.5C755.863 473.408 761.863 456.074 764.5 437.5C763.194 435.527 761.527 433.861 759.5 432.5C755.712 453.58 746.045 471.413 730.5 486C726.797 486.579 723.131 486.412 719.5 485.5C720.249 490.998 722.582 495.664 726.5 499.5C726.167 500.167 725.833 500.833 725.5 501.5C724.427 502.251 724.26 503.251 725 504.5C726.741 505.758 728.574 506.758 730.5 507.5C730.833 508.167 731.167 508.833 731.5 509.5C729.631 510.165 727.631 510.831 725.5 511.5C726.189 513.444 726.689 515.444 727 517.5C730.456 519.139 733.623 521.139 736.5 523.5C733.609 524.678 730.609 525.345 727.5 525.5C727.336 528.187 727.503 530.854 728 533.5C730.43 534.965 732.93 536.298 735.5 537.5C733.464 539.984 730.798 540.984 727.5 540.5C727.5 543.167 727.5 545.833 727.5 548.5C736.593 550.463 736.259 551.796 726.5 552.5C726.425 555.206 726.092 557.873 725.5 560.5C723.824 559.817 723.157 558.483 723.5 556.5C724.951 537.793 724.451 519.127 722 500.5C720.023 495.874 718.023 491.207 716 486.5C717.214 470.129 713.381 455.129 704.5 441.5C703.449 440.778 702.782 439.778 702.5 438.5C706.053 430.65 704.72 423.65 698.5 417.5C699.723 416.386 701.056 416.219 702.5 417C707.271 421.045 709.437 426.212 709 432.5C716.657 423.391 715.657 415.058 706 407.5C705.251 406.365 705.417 405.365 706.5 404.5C710.581 406.118 713.748 408.785 716 412.5C716.333 411.5 716.667 410.5 717 409.5C718.778 415.054 718.778 420.721 717 426.5C714.069 431.267 710.569 435.601 706.5 439.5C706.833 439.833 707.167 440.167 707.5 440.5C711.844 437.317 715.344 433.317 718 428.5C719.779 425.724 720.779 426.057 721 429.5C724.751 420.829 727.418 411.829 729 402.5C731.178 394.734 729.178 388.401 723 383.5C723.036 391.414 721.702 399.081 719 406.5C718.333 407.833 717.667 407.833 717 406.5C715.802 402.806 713.968 399.472 711.5 396.5C713.854 395.177 715.521 395.843 716.5 398.5C716.987 399.473 717.487 400.473 718 401.5C718.819 395.319 718.653 389.319 717.5 383.5C717.756 381.088 716.756 379.421 714.5 378.5C713.485 381.168 711.818 381.834 709.5 380.5C716.086 371.062 716.086 361.562 709.5 352C708.5 351.333 707.5 351.333 706.5 352C699.687 359.604 697.02 368.437 698.5 378.5C697.05 377.15 696.383 375.484 696.5 373.5C695.5 373.5 694.5 373.5 693.5 373.5C691.473 373.662 689.473 373.495 687.5 373C688.416 372.722 689.082 372.222 689.5 371.5C687.802 366.324 686.635 360.991 686 355.5C683.342 354.306 682.176 355.306 682.5 358.5C681.883 358.611 681.383 358.944 681 359.5C680.506 357.866 680.34 356.199 680.5 354.5C682.048 350.47 684.882 349.47 689 351.5C693.184 349.429 697.517 349.429 702 351.5C707.096 347.146 711.262 347.979 714.5 354C719.324 355.14 723.991 356.807 728.5 359C729.38 360.356 729.714 361.856 729.5 363.5C732.745 363.88 735.745 365.047 738.5 367C739.406 368.699 739.739 370.533 739.5 372.5C743.918 373.28 746.584 375.947 747.5 380.5C750.69 381.654 752.356 383.988 752.5 387.5C753.814 388.313 754.981 389.313 756 390.5C756.35 393.722 757.684 396.388 760 398.5C761.557 401.666 762.39 405 762.5 408.5C763.675 408.281 764.675 408.614 765.5 409.5C766.936 413.766 768.102 418.099 769 422.5C771.557 424.393 772.057 426.727 770.5 429.5C773.08 431.713 773.08 433.88 770.5 436C774.451 438.482 778.785 439.649 783.5 439.5Z" fill="#0c0c0c" fill-rule="evenodd" opacity="1" stroke="none" />
<path d="M746.5 415.5C749.234 417.957 751.234 420.957 752.5 424.5C749.779 439.935 744.279 454.268 736 467.5C732.667 470.833 729.333 474.167 726 477.5C723.2 476.872 720.533 475.872 718 474.5C717.768 470.445 717.268 466.445 716.5 462.5C733.293 451.265 743.293 435.598 746.5 415.5Z" fill="#f0f0f1" fill-rule="evenodd" opacity="1" stroke="none" />
<path d="M736.5 400.5C739.307 402.958 740.641 406.125 740.5 410C738.52 422.454 733.687 433.62 726 443.5C722.62 447.103 718.787 450.103 714.5 452.5C712.548 450.772 711.215 448.605 710.5 446C715.011 441.155 719.845 436.655 725 432.5C730.731 422.472 734.564 411.805 736.5 400.5Z" fill="#ebebeb" fill-rule="evenodd" opacity="1" stroke="none" />
<path d="M760.5 428.5C761.675 428.281 762.675 428.614 763.5 429.5C761.948 430.798 760.948 430.465 760.5 428.5Z" fill="#d3d3d4" fill-rule="evenodd" opacity="1" stroke="none" />
<path d="M759.5 417.5C764.818 420.668 764.485 423.668 758.5 426.5C756.457 425.421 755.124 423.754 754.5 421.5C756.419 420.388 758.086 419.054 759.5 417.5Z" fill="#eaeaea" fill-rule="evenodd" opacity="1" stroke="none" />
<path d="M751.5 403.5C754.068 404.574 755.735 406.574 756.5 409.5C755.149 412.196 753.316 414.53 751 416.5C748.92 414.007 747.086 411.341 745.5 408.5C747.544 406.781 749.544 405.114 751.5 403.5Z" fill="#e8e8e8" fill-rule="evenodd" opacity="1" stroke="none" />
<path d="M737.5 382.5C739.764 384.097 741.764 386.097 743.5 388.5C748.181 384.684 748.514 385.184 744.5 390C746.209 391.916 747.543 394.082 748.5 396.5C746.517 398.984 744.35 401.317 742 403.5C738.5 398.667 735 393.833 731.5 389C733.706 386.963 735.706 384.797 737.5 382.5Z" fill="#ebecec" fill-rule="evenodd" opacity="1" stroke="none" />
<path d="M729.5 366.5C731.605 368.1 733.605 369.933 735.5 372C733.044 376.41 730.21 380.576 727 384.5C724.982 382.65 723.149 380.65 721.5 378.5C724.177 374.471 726.844 370.471 729.5 366.5Z" fill="#eeeeee" fill-rule="evenodd" opacity="1" stroke="none" />
<path d="M873.5 497.5C871.525 490.293 870.192 482.96 869.5 475.5C869.44 474.957 869.107 474.624 868.5 474.5C867.516 477.428 867.183 480.428 867.5 483.5C866.37 488.888 865.037 494.222 863.5 499.5C860.557 504.504 858.89 510.004 858.5 516C859.73 521.19 861.063 526.356 862.5 531.5C858.496 545.869 856.329 560.536 856 575.5C855.06 578.773 852.893 580.606 849.5 581C844.713 581.879 840.047 581.545 835.5 580C834.106 579.044 833.439 577.711 833.5 576C834.498 571.512 836.165 567.345 838.5 563.5C839.5 564.167 840.5 564.833 841.5 565.5C845.837 567.081 850.003 566.748 854 564.5C854.499 559.845 854.666 555.179 854.5 550.5C853.022 550.762 851.689 550.429 850.5 549.5C851.991 547.988 853.824 546.988 856 546.5C856.567 543.832 857.067 541.166 857.5 538.5C856.167 538.5 854.833 538.5 853.5 538.5C853.343 537.127 853.51 535.793 854 534.5C855.632 532.067 857.132 529.567 858.5 527C857.632 524.765 856.632 522.598 855.5 520.5C850.912 522.325 846.245 522.658 841.5 521.5C845.666 518.583 849.999 515.916 854.5 513.5C856.026 510.256 857.36 506.923 858.5 503.5C855.81 502.398 853.143 502.564 850.5 504C846.084 506.958 841.584 509.792 837 512.5C842.167 500.847 851 493.18 863.5 489.5C864.984 484.251 865.484 478.918 865 473.5C851.219 479.281 840.553 488.614 833 501.5C833.188 496.098 834.854 491.098 838 486.5C844.096 475.738 852.262 466.905 862.5 460C861.533 456.557 859.7 453.724 857 451.5C842.215 462.04 832.048 476.04 826.5 493.5C825.794 473.461 833.127 456.961 848.5 444C842.83 441.066 836.83 440.066 830.5 441C827.323 446.187 824.823 451.687 823 457.5C821.063 470.915 817.73 483.915 813 496.5C813.395 491.383 813.895 486.216 814.5 481C811.299 467.512 812.299 454.346 817.5 441.5C815.604 440.534 813.604 440.201 811.5 440.5C809.007 440.869 808.34 440.203 809.5 438.5C828.8 434.326 846.8 437.492 863.5 448C869.232 453.073 873.399 459.24 876 466.5C877.919 476.857 879.919 487.19 882 497.5C892.558 501.621 897.225 509.287 896 520.5C895.111 519.112 894.611 519.278 894.5 521C896.088 526.185 895.755 531.185 893.5 536C892.833 536.667 892.167 536.667 891.5 536C889.038 531.574 886.204 527.407 883 523.5C882.316 524.784 882.483 525.951 883.5 527C879.48 525.648 876.646 522.814 875 518.5C872.844 512.734 873.011 507.068 875.5 501.5C874.82 500.14 874.153 498.807 873.5 497.5Z" fill="#101010" fill-rule="evenodd" opacity="1" stroke="none" />
<path d="M746.5 489.5C744.531 493.281 742.197 496.781 739.5 500C740.177 503.325 741.677 506.158 744 508.5C744.781 509.944 744.614 511.277 743.5 512.5C736.961 509.292 731.294 504.959 726.5 499.5C722.582 495.664 720.249 490.998 719.5 485.5C723.131 486.412 726.797 486.579 730.5 486C746.045 471.413 755.712 453.58 759.5 432.5C761.527 433.861 763.194 435.527 764.5 437.5C761.863 456.074 755.863 473.408 746.5 489.5Z" fill="#f0f0f0" fill-rule="evenodd" opacity="1" stroke="none" />
<path d="M869.5 475.5C868.833 478.167 868.167 480.833 867.5 483.5C867.183 480.428 867.516 477.428 868.5 474.5C869.107 474.624 869.44 474.957 869.5 475.5Z" fill="#565556" fill-rule="evenodd" opacity="1" stroke="none" />
<path d="M860.5 450.5C865.542 454.054 869.375 458.721 872 464.5C874.823 475.762 877.323 487.095 879.5 498.5C879.167 499.167 878.833 499.833 878.5 500.5C876.855 498.075 875.689 495.408 875 492.5C873.518 484.123 871.851 475.79 870 467.5C866.978 461.672 863.811 456.005 860.5 450.5Z" fill="#dddede" fill-rule="evenodd" opacity="1" stroke="none" />
<path d="M773.5 440.5C774.209 441.404 775.209 441.737 776.5 441.5C776.5 442.833 776.5 444.167 776.5 445.5C775.431 453.465 775.264 461.465 776 469.5C778.206 477.948 780.706 486.281 783.5 494.5C783.18 497.898 783.513 501.232 784.5 504.5C785.107 504.376 785.44 504.043 785.5 503.5C786.652 498.753 787.318 493.92 787.5 489C783.667 473.502 783.667 458.002 787.5 442.5C790.247 442.187 792.914 442.52 795.5 443.5C793.729 456.973 794.562 470.306 798 483.5C797.531 504.531 799.198 505.198 803 485.5C802.812 472.673 803.979 460.006 806.5 447.5C806.942 444.281 808.608 441.947 811.5 440.5C813.604 440.201 815.604 440.534 817.5 441.5C812.299 454.346 811.299 467.512 814.5 481C813.895 486.216 813.395 491.383 813 496.5C817.73 483.915 821.063 470.915 823 457.5C824.823 451.687 827.323 446.187 830.5 441C836.83 440.066 842.83 441.066 848.5 444C833.127 456.961 825.794 473.461 826.5 493.5C832.048 476.04 842.215 462.04 857 451.5C859.7 453.724 861.533 456.557 862.5 460C852.262 466.905 844.096 475.738 838 486.5C834.854 491.098 833.188 496.098 833 501.5C840.553 488.614 851.219 479.281 865 473.5C865.484 478.918 864.984 484.251 863.5 489.5C851 493.18 842.167 500.847 837 512.5C841.584 509.792 846.084 506.958 850.5 504C853.143 502.564 855.81 502.398 858.5 503.5C857.36 506.923 856.026 510.256 854.5 513.5C849.999 515.916 845.666 518.583 841.5 521.5C846.245 522.658 850.912 522.325 855.5 520.5C856.632 522.598 857.632 524.765 858.5 527C857.132 529.567 855.632 532.067 854 534.5C853.51 535.793 853.343 537.127 853.5 538.5C854.833 538.5 856.167 538.5 857.5 538.5C857.067 541.166 856.567 543.832 856 546.5C853.824 546.988 851.991 547.988 850.5 549.5C851.689 550.429 853.022 550.762 854.5 550.5C854.666 555.179 854.499 559.845 854 564.5C850.003 566.748 845.837 567.081 841.5 565.5C841.523 563.073 842.023 560.74 843 558.5C851.002 557.667 851.335 556.001 844 553.5C843.503 551.19 843.337 548.857 843.5 546.5C853.722 543.988 853.722 542.321 843.5 541.5C843.338 539.473 843.505 537.473 844 535.5C846.137 534.521 847.971 533.188 849.5 531.5C846.553 530.679 843.553 530.179 840.5 530C829.352 520.337 822.686 508.17 820.5 493.5C818.992 499.416 819.658 505.083 822.5 510.5C806.783 517.981 790.449 519.981 773.5 516.5C773.167 515.333 772.833 514.167 772.5 513C773.755 508.059 774.755 503.059 775.5 498C773.286 489.933 771.453 481.766 770 473.5C768.057 476.714 767.224 480.214 767.5 484C767.684 490.588 769.018 496.922 771.5 503C771 505.5 770.5 508 770 510.5C763.825 504.518 760.325 497.185 759.5 488.5C754.645 500.147 757.478 509.48 768 516.5C768.496 521.208 768.162 525.875 767 530.5C760.273 532.204 760.107 533.537 766.5 534.5C766.665 537.85 766.498 541.183 766 544.5C764.989 545.337 763.822 545.67 762.5 545.5C762.5 546.5 762.5 547.5 762.5 548.5C763.5 548.5 764.5 548.5 765.5 548.5C765.829 554.206 765.495 559.872 764.5 565.5C754.153 569.183 750.486 565.85 753.5 555.5C756.157 555.838 758.49 555.171 760.5 553.5C754.759 552.609 752.426 549.276 753.5 543.5C756.928 543.453 759.928 542.287 762.5 540C758.722 539.174 755.222 537.674 752 535.5C751.503 533.19 751.337 530.857 751.5 528.5C755.678 528.332 759.345 526.998 762.5 524.5C757.527 523.846 753.194 521.846 749.5 518.5C748.053 513.308 746.386 508.308 744.5 503.5C760.559 485.338 768.559 464.005 768.5 439.5C770.216 439.629 771.883 439.962 773.5 440.5Z" fill="#efefef" fill-rule="evenodd" opacity="1" stroke="none" />
<path d="M833.5 441.5C833.973 443.97 833.139 446.304 831 448.5C830.683 445.793 831.516 443.46 833.5 441.5Z" fill="#404041" fill-rule="evenodd" opacity="1" stroke="none" />
<path d="M773.5 440.5C774.833 440.5 776.167 440.5 777.5 440.5C777.784 442.415 777.451 444.081 776.5 445.5C776.5 444.167 776.5 442.833 776.5 441.5C775.209 441.737 774.209 441.404 773.5 440.5Z" fill="#5a5b5a" fill-rule="evenodd" opacity="1" stroke="none" />
<path d="M869.5 475.5C870.192 482.96 871.525 490.293 873.5 497.5C871.703 497.065 869.703 497.065 867.5 497.5C867.757 503.066 866.424 503.733 863.5 499.5C865.037 494.222 866.37 488.888 867.5 483.5C868.167 480.833 868.833 478.167 869.5 475.5Z" fill="#e2e2e2" fill-rule="evenodd" opacity="1" stroke="none" />
<path d="M841.5 565.5C840.5 564.833 839.5 564.167 838.5 563.5C840.749 553.523 840.916 543.523 839 533.5C838 532.5 837 531.5 836 530.5C831.073 544.21 827.406 558.21 825 572.5C819.159 575.879 812.992 576.379 806.5 574C805.409 571.936 805.242 569.769 806 567.5C811.495 556.853 814.161 545.52 814 533.5C810.605 528.947 807.438 524.28 804.5 519.5C793.505 522.134 782.505 522.134 771.5 519.5C769.379 538.773 767.879 558.107 767 577.5C766.626 578.416 766.126 579.25 765.5 580C759.585 581.527 753.585 581.861 747.5 581C745.522 578.503 745.022 575.669 746 572.5C749.67 565.818 751.17 558.652 750.5 551C750.355 541.032 749.189 531.198 747 521.5C743.676 539.102 741.01 556.768 739 574.5C735.826 576.993 732.159 577.993 728 577.5C724.431 577.714 721.098 577.047 718 575.5C717.333 573.5 717.333 571.5 718 569.5C720.451 565.283 722.285 560.95 723.5 556.5C723.157 558.483 723.824 559.817 725.5 560.5C726.23 562.045 727.563 562.878 729.5 563C731.833 563.667 734.167 563.667 736.5 563C737.126 562.25 737.626 561.416 738 560.5C738.351 555.802 738.851 551.136 739.5 546.5C734.238 545.341 734.238 543.675 739.5 541.5C740.549 538.92 741.216 536.254 741.5 533.5C738.939 533.553 736.939 532.553 735.5 530.5C737.51 528.829 739.843 528.162 742.5 528.5C743.153 524.111 743.653 519.777 744 515.5C739.94 513.272 735.773 511.272 731.5 509.5C731.167 508.833 730.833 508.167 730.5 507.5C728.833 505.5 727.167 503.5 725.5 501.5C725.833 500.833 726.167 500.167 726.5 499.5C731.294 504.959 736.961 509.292 743.5 512.5C744.614 511.277 744.781 509.944 744 508.5C741.677 506.158 740.177 503.325 739.5 500C742.197 496.781 744.531 493.281 746.5 489.5C747.239 489.369 747.906 489.536 748.5 490C747.167 491 747.167 492 748.5 493C746.147 495.543 743.813 498.043 741.5 500.5C741.516 502.516 742.516 503.516 744.5 503.5C746.386 508.308 748.053 513.308 749.5 518.5C753.194 521.846 757.527 523.846 762.5 524.5C759.345 526.998 755.678 528.332 751.5 528.5C751.337 530.857 751.503 533.19 752 535.5C755.222 537.674 758.722 539.174 762.5 540C759.928 542.287 756.928 543.453 753.5 543.5C752.426 549.276 754.759 552.609 760.5 553.5C758.49 555.171 756.157 555.838 753.5 555.5C750.486 565.85 754.153 569.183 764.5 565.5C765.495 559.872 765.829 554.206 765.5 548.5C764.5 548.5 763.5 548.5 762.5 548.5C762.5 547.5 762.5 546.5 762.5 545.5C763.822 545.67 764.989 545.337 766 544.5C766.498 541.183 766.665 537.85 766.5 534.5C760.107 533.537 760.273 532.204 767 530.5C768.162 525.875 768.496 521.208 768 516.5C757.478 509.48 754.645 500.147 759.5 488.5C760.325 497.185 763.825 504.518 770 510.5C770.5 508 771 505.5 771.5 503C769.018 496.922 767.684 490.588 767.5 484C767.224 480.214 768.057 476.714 770 473.5C771.453 481.766 773.286 489.933 775.5 498C774.755 503.059 773.755 508.059 772.5 513C772.833 514.167 773.167 515.333 773.5 516.5C790.449 519.981 806.783 517.981 822.5 510.5C819.658 505.083 818.992 499.416 820.5 493.5C822.686 508.17 829.352 520.337 840.5 530C843.553 530.179 846.553 530.679 849.5 531.5C847.971 533.188 846.137 534.521 844 535.5C843.505 537.473 843.338 539.473 843.5 541.5C853.722 542.321 853.722 543.988 843.5 546.5C843.337 548.857 843.503 551.19 844 553.5C851.335 556.001 851.002 557.667 843 558.5C842.023 560.74 841.523 563.073 841.5 565.5Z" fill="#161616" fill-rule="evenodd" opacity="1" stroke="none" />
<path d="M783.5 494.5C784.167 497.5 784.833 500.5 785.5 503.5C785.44 504.043 785.107 504.376 784.5 504.5C783.513 501.232 783.18 497.898 783.5 494.5Z" fill="#8d908c" fill-rule="evenodd" opacity="1" stroke="none" />
<path d="M725.5 501.5C727.167 503.5 728.833 505.5 730.5 507.5C728.574 506.758 726.741 505.758 725 504.5C724.26 503.251 724.427 502.251 725.5 501.5Z" fill="#90908e" fill-rule="evenodd" opacity="1" stroke="none" />
<path d="M884.5 504.5C884.897 503.475 885.563 503.308 886.5 504C889.528 506.26 891.362 509.094 892 512.5C890 509.334 887.5 506.668 884.5 504.5Z" fill="#c1c0c0" fill-rule="evenodd" opacity="1" stroke="none" />
<path d="M880.5 502.5C885.803 507.772 888.969 514.105 890 521.5C887.011 515.03 883.845 508.697 880.5 502.5Z" fill="#c0c0c1" fill-rule="evenodd" opacity="1" stroke="none" />
<path d="M879.5 505.5C881.848 509.193 883.348 513.193 884 517.5C881.636 513.781 880.136 509.781 879.5 505.5Z" fill="#979897" fill-rule="evenodd" opacity="1" stroke="none" />
<path d="M731.5 509.5C735.773 511.272 739.94 513.272 744 515.5C743.653 519.777 743.153 524.111 742.5 528.5C739.843 528.162 737.51 528.829 735.5 530.5C736.939 532.553 738.939 533.553 741.5 533.5C741.216 536.254 740.549 538.92 739.5 541.5C734.238 543.675 734.238 545.341 739.5 546.5C738.851 551.136 738.351 555.802 738 560.5C737.626 561.416 737.126 562.25 736.5 563C734.167 563.667 731.833 563.667 729.5 563C727.563 562.878 726.23 562.045 725.5 560.5C726.092 557.873 726.425 555.206 726.5 552.5C736.259 551.796 736.593 550.463 727.5 548.5C727.5 545.833 727.5 543.167 727.5 540.5C730.798 540.984 733.464 539.984 735.5 537.5C732.93 536.298 730.43 534.965 728 533.5C727.503 530.854 727.336 528.187 727.5 525.5C730.609 525.345 733.609 524.678 736.5 523.5C733.623 521.139 730.456 519.139 727 517.5C726.689 515.444 726.189 513.444 725.5 511.5C727.631 510.831 729.631 510.165 731.5 509.5Z" fill="#ededed" fill-rule="evenodd" opacity="1" stroke="none" />
<path d="M822.5 513.5C823.812 514.145 824.812 515.145 825.5 516.5C821.267 519.468 816.6 521.468 811.5 522.5C810.167 521.833 809.167 520.833 808.5 519.5C813.226 517.466 817.893 515.466 822.5 513.5Z" fill="#dfe0df" fill-rule="evenodd" opacity="1" stroke="none" />
<path d="M826.5 519.5C830.909 522.655 832.909 526.988 832.5 532.5C830.25 532.181 828.25 532.681 826.5 534C827.563 535.188 828.897 535.688 830.5 535.5C830.382 538.688 829.549 541.688 828 544.5C826.644 545.38 825.144 545.714 823.5 545.5C823.5 546.5 823.5 547.5 823.5 548.5C824.5 548.5 825.5 548.5 826.5 548.5C826.621 552.825 825.954 556.991 824.5 561C821.167 561.667 817.833 561.667 814.5 561C813.667 558.919 813.667 556.752 814.5 554.5C822.722 554.173 823.222 552.506 816 549.5C816.135 547.575 816.302 545.575 816.5 543.5C820.05 543.867 823.05 542.867 825.5 540.5C822.914 539.52 820.247 539.187 817.5 539.5C817.5 537.5 817.5 535.5 817.5 533.5C820.061 533.553 822.061 532.553 823.5 530.5C820.553 529.679 817.553 529.179 814.5 529C813.707 527.915 813.04 526.748 812.5 525.5C816.108 524.181 819.775 523.014 823.5 522C824.942 521.623 825.942 520.79 826.5 519.5Z" fill="#ebebeb" fill-rule="evenodd" opacity="1" stroke="none" />
<path d="M810.5 563.5C814.798 564.2 819.131 564.533 823.5 564.5C823.756 566.792 823.423 568.959 822.5 571C818.572 572.325 814.572 572.658 810.5 572C809.484 571.481 808.818 570.647 808.5 569.5C809.178 567.484 809.844 565.484 810.5 563.5Z" fill="#e9e9e9" fill-rule="evenodd" opacity="1" stroke="none" />
<path d="M723.5 564.5C727.768 565.373 732.102 565.706 736.5 565.5C736.777 568.448 736.444 571.281 735.5 574C730.511 574.499 725.511 574.666 720.5 574.5C720.5 570.846 721.5 567.513 723.5 564.5Z" fill="#efefef" fill-rule="evenodd" opacity="1" stroke="none" />
<path d="M755.5 568.5C758.833 568.5 762.167 568.5 765.5 568.5C765.806 571.385 765.473 574.052 764.5 576.5C764.5 574.167 764.5 571.833 764.5 569.5C761.287 569.81 758.287 569.477 755.5 568.5Z" fill="#686968" fill-rule="evenodd" opacity="1" stroke="none" />
<path d="M755.5 568.5C758.287 569.477 761.287 569.81 764.5 569.5C764.5 571.833 764.5 574.167 764.5 576.5C764.082 577.222 763.416 577.722 762.5 578C758.167 578.667 753.833 578.667 749.5 578C748.421 575.101 748.754 572.267 750.5 569.5C752.045 568.548 753.712 568.215 755.5 568.5Z" fill="#ededed" fill-rule="evenodd" opacity="1" stroke="none" />
<path d="M844.5 568.5C847.5 568.5 850.5 568.5 853.5 568.5C853.802 571.059 853.468 573.393 852.5 575.5C852.5 573.5 852.5 571.5 852.5 569.5C849.615 569.806 846.948 569.473 844.5 568.5Z" fill="#848986" fill-rule="evenodd" opacity="1" stroke="none" />
<path d="M844.5 568.5C846.948 569.473 849.615 569.806 852.5 569.5C852.5 571.5 852.5 573.5 852.5 575.5C851.653 576.966 850.32 577.8 848.5 578C844.775 578.76 841.108 578.593 837.5 577.5C836.577 574.282 837.243 571.282 839.5 568.5C841.095 567.566 842.761 567.566 844.5 568.5Z" fill="#ebebeb" fill-rule="evenodd" opacity="1" stroke="none" />
</g>

</svg>