<?xml version="1.0" encoding="UTF-8" standalone="no"?>
<svg xmlns="http://www.w3.org/2000/svg" fill-rule="nonzero" clip-rule="evenodd" stroke-miterlimit="10" style="fill-rule:nonzero;clip-rule:evenodd;stroke-linecap:round;stroke-linejoin:round;"
     viewBox="545.6 841.2 182.9 165.1" xml:space="preserve">
<g opacity="1">
<path d="M665.5 853.5C669.833 853.167 671.833 855.167 671.5 859.5C699.822 856.143 714.822 868.81 716.5 897.5C708.096 897.174 699.763 896.34 691.5 895C682.846 892.01 676.346 886.51 672 878.5C675.181 884.537 678.181 890.871 681 897.5C688.186 931.286 678.02 958.453 650.5 979C633.394 989.594 615.06 992.428 595.5 987.5C578.329 994.264 570.996 988.598 573.5 970.5C557.617 930.322 567.283 897.822 602.5 873C615.951 865.426 630.285 862.593 645.5 864.5C650.071 863.178 654.738 862.345 659.5 862C661.387 859.05 663.387 856.216 665.5 853.5Z" fill="#1a1a1a" fill-rule="evenodd" opacity="1" stroke="none"/>
<path d="M666.5 855.5C669.076 855.722 669.91 857.055 669 859.5C667.5 861.667 666 863.833 664.5 866C663.552 866.483 662.552 866.649 661.5 866.5C662.358 862.452 664.025 858.785 666.5 855.5Z" fill="#dbdbdc" fill-rule="evenodd" opacity="1" stroke="none"/>
<path d="M650.5 865.5C656.41 864.921 661.577 866.587 666 870.5C669.804 880.667 674.137 890.667 679 900.5C685.157 941.705 668.991 969.872 630.5 985C618.772 987.141 607.105 986.974 595.5 984.5C591.757 985.802 587.924 986.802 584 987.5C580.196 987.6 577.529 985.934 576 982.5C575.391 978.476 575.558 974.476 576.5 970.5C561.496 936.682 567.496 907.182 594.5 882C609.323 869.56 626.323 864.726 645.5 867.5C647.557 867.564 649.223 866.898 650.5 865.5Z" fill="#f7f7f7" fill-rule="evenodd" opacity="1" stroke="none"/>
<path d="M667.5 865.5C669.088 866.635 669.421 867.969 668.5 869.5C666.358 868.563 666.024 867.23 667.5 865.5Z" fill="#c6c8c9" fill-rule="evenodd" opacity="1" stroke="none"/>
<path d="M673.5 861.5C697.697 859.366 711.03 870.366 713.5 894.5C702.121 896.134 691.788 893.634 682.5 887C675.601 881.038 672.101 873.538 672 864.5C684.221 868.73 694.888 875.396 704 884.5C704.167 884.167 704.333 883.833 704.5 883.5C695.67 873.912 685.004 867.078 672.5 863C673.056 862.617 673.389 862.117 673.5 861.5Z" fill="#f1f1f1" fill-rule="evenodd" opacity="1" stroke="none"/>
<path d="M662.5 886.5C664.337 886.639 664.67 887.306 663.5 888.5C662.702 888.043 662.369 887.376 662.5 886.5Z" fill="#454141" fill-rule="evenodd" opacity="1" stroke="none"/>
<path d="M659.5 902.5C661.337 902.639 661.67 903.306 660.5 904.5C659.702 904.043 659.369 903.376 659.5 902.5Z" fill="#343131" fill-rule="evenodd" opacity="1" stroke="none"/>
<path d="M672.5 910.5C674.337 910.639 674.67 911.306 673.5 912.5C672.702 912.043 672.369 911.376 672.5 910.5Z" fill="#403d40" fill-rule="evenodd" opacity="1" stroke="none"/>
<path d="M664.5 914.5C667.012 915.216 667.012 916.216 664.5 917.5C663.438 916.575 663.438 915.575 664.5 914.5Z" fill="#5b5b5c" fill-rule="evenodd" opacity="1" stroke="none"/>
<path d="M654.5 919.5C656.337 919.639 656.67 920.306 655.5 921.5C654.702 921.043 654.369 920.376 654.5 919.5Z" fill="#5c5b5f" fill-rule="evenodd" opacity="1" stroke="none"/>
<path d="M671.5 926.5C674.012 927.216 674.012 928.216 671.5 929.5C670.438 928.575 670.438 927.575 671.5 926.5Z" fill="#2d2c2c" fill-rule="evenodd" opacity="1" stroke="none"/>
<path d="M659.5 933.5C661.337 933.639 661.67 934.306 660.5 935.5C659.702 935.043 659.369 934.376 659.5 933.5Z" fill="#252425" fill-rule="evenodd" opacity="1" stroke="none"/>
<path d="M645.5 938.5C647.337 938.639 647.67 939.306 646.5 940.5C645.702 940.043 645.369 939.376 645.5 938.5Z" fill="#282829" fill-rule="evenodd" opacity="1" stroke="none"/>
<path d="M665.5 943.5C666.713 944.497 666.546 945.497 665 946.5C664.53 945.423 664.697 944.423 665.5 943.5Z" fill="#282427" fill-rule="evenodd" opacity="1" stroke="none"/>
<path d="M657.5 956.5C660.012 957.216 660.012 958.216 657.5 959.5C656.438 958.575 656.438 957.575 657.5 956.5Z" fill="#3b3b3b" fill-rule="evenodd" opacity="1" stroke="none"/>
<path d="M640.5 962.5C642.337 962.639 642.67 963.306 641.5 964.5C640.702 964.043 640.369 963.376 640.5 962.5Z" fill="#565355" fill-rule="evenodd" opacity="1" stroke="none"/>
<path d="M615.5 968.5C617.337 968.639 617.67 969.306 616.5 970.5C615.702 970.043 615.369 969.376 615.5 968.5Z" fill="#585858" fill-rule="evenodd" opacity="1" stroke="none"/>
<path d="M602.5 973.5C604.337 973.639 604.67 974.306 603.5 975.5C602.702 975.043 602.369 974.376 602.5 973.5Z" fill="#3b3b3b" fill-rule="evenodd" opacity="1" stroke="none"/>
<path d="M623.5 977.5C625.337 977.639 625.67 978.306 624.5 979.5C623.702 979.043 623.369 978.376 623.5 977.5Z" fill="#434243" fill-rule="evenodd" opacity="1" stroke="none"/>
<path d="M610.5 979.5C613.797 979.329 614.131 979.995 611.5 981.5C610.702 981.043 610.369 980.376 610.5 979.5Z" fill="#6d6d6f" fill-rule="evenodd" opacity="1" stroke="none"/>
</g>
</svg>