<?xml version="1.0" encoding="UTF-8"?>
<svg xmlns="http://www.w3.org/2000/svg" version="1.1" style="shape-rendering:geometricPrecision;text-rendering:geometricPrecision;image-rendering:optimizeQuality;fill-rule:evenodd;clip-rule:evenodd"
     viewBox="1041.4 322.3 348.4 460.6">
<g><path style="opacity:1" fill="#7a7b7a" d="M 1201.5,363.5 C 1202.89,368.269 1203.56,373.269 1203.5,378.5C 1201.97,373.75 1201.3,368.75 1201.5,363.5 Z"/></g>
<g><path style="opacity:1" fill="#80817f" d="M 1205.5,400.5 C 1206.89,405.269 1207.56,410.269 1207.5,415.5C 1206.11,410.731 1205.44,405.731 1205.5,400.5 Z"/></g>
<g><path style="opacity:1" fill="#5a5a5b" d="M 1210.5,401.5 C 1211.97,405.919 1212.64,410.586 1212.5,415.5C 1211.03,411.081 1210.36,406.414 1210.5,401.5 Z"/></g>
<g><path style="opacity:1" fill="#a6a7a7" d="M 1315.5,392.5 C 1314.82,411.826 1314.49,431.159 1314.5,450.5C 1313.13,431.145 1313.47,411.811 1315.5,392.5 Z"/></g>
<g><path style="opacity:1" fill="#414040" d="M 1215.5,445.5 C 1217.03,450.25 1217.7,455.25 1217.5,460.5C 1216.11,455.731 1215.44,450.731 1215.5,445.5 Z"/></g>
<g><path style="opacity:1" fill="#a5a5a6" d="M 1320.5,492.5 C 1322.03,497.25 1322.7,502.25 1322.5,507.5C 1321.11,502.731 1320.44,497.731 1320.5,492.5 Z"/></g>
<g><path style="opacity:1" fill="#141414" d="M 1320.5,492.5 C 1320.44,497.731 1321.11,502.731 1322.5,507.5C 1323.58,516.747 1325.75,525.747 1329,534.5C 1334.18,547.201 1340.18,559.534 1347,571.5C 1348.81,575.756 1350.31,580.089 1351.5,584.5C 1352.13,587.493 1352.3,590.493 1352,593.5C 1351.67,593.167 1351.33,592.833 1351,592.5C 1350.67,593.5 1350.33,594.5 1350,595.5C 1349.77,594.263 1349.27,593.263 1348.5,592.5C 1348.59,589.848 1347.92,587.515 1346.5,585.5C 1340.36,570.292 1333.53,555.292 1326,540.5C 1316.61,511.287 1312.78,481.287 1314.5,450.5C 1314.49,431.159 1314.82,411.826 1315.5,392.5C 1315.83,380.682 1317.33,369.016 1320,357.5C 1322.17,356 1323.67,356.5 1324.5,359C 1322.44,369.419 1320.94,379.919 1320,390.5C 1319.25,424.51 1319.41,458.51 1320.5,492.5 Z"/></g>
<g><path style="opacity:1" fill="#161616" d="M 1310.5,551.5 C 1312.39,551.297 1313.89,551.963 1315,553.5C 1322.87,568.616 1322.21,583.283 1313,597.5C 1311.32,599.351 1309.48,601.018 1307.5,602.5C 1306.17,601.833 1305.17,600.833 1304.5,599.5C 1317.22,585.619 1318.89,570.452 1309.5,554C 1309.74,553.098 1310.08,552.265 1310.5,551.5 Z"/></g>
<g><path style="opacity:1" fill="#909392" d="M 1346.5,585.5 C 1347.92,587.515 1348.59,589.848 1348.5,592.5C 1347.08,590.485 1346.41,588.152 1346.5,585.5 Z"/></g>
<g><path style="opacity:1" fill="#383838" d="M 1351.5,584.5 C 1353.17,587.507 1353.84,590.84 1353.5,594.5C 1352.73,595.263 1352.23,596.263 1352,597.5C 1351.67,597.167 1351.33,596.833 1351,596.5C 1350.51,598.134 1350.34,599.801 1350.5,601.5C 1349.34,598.727 1348.68,595.727 1348.5,592.5C 1349.27,593.263 1349.77,594.263 1350,595.5C 1350.33,594.5 1350.67,593.5 1351,592.5C 1351.33,592.833 1351.67,593.167 1352,593.5C 1352.3,590.493 1352.13,587.493 1351.5,584.5 Z"/></g>
<g><path style="opacity:1" fill="#141414" d="M 1210.5,401.5 C 1210.36,406.414 1211.03,411.081 1212.5,415.5C 1214.29,425.375 1215.29,435.375 1215.5,445.5C 1215.44,450.731 1216.11,455.731 1217.5,460.5C 1221.59,488.827 1221.42,517.16 1217,545.5C 1208.86,565.983 1198.52,585.317 1186,603.5C 1165.73,632.441 1141.9,658.274 1114.5,681C 1107.09,683.805 1099.75,686.805 1092.5,690C 1084.6,694.727 1079.6,701.56 1077.5,710.5C 1078.31,720.973 1083.98,725.639 1094.5,724.5C 1095.85,710.83 1102.85,701.163 1115.5,695.5C 1117.28,696.348 1117.78,697.681 1117,699.5C 1109.2,703.967 1103.53,710.3 1100,718.5C 1097.64,732.656 1103.14,737.656 1116.5,733.5C 1118.06,721.205 1124.06,711.705 1134.5,705C 1136.13,704.506 1137.8,704.34 1139.5,704.5C 1139.65,705.552 1139.48,706.552 1139,707.5C 1133.67,711.5 1129,716.167 1125,721.5C 1119.55,738.38 1125.05,744.213 1141.5,739C 1142.34,725.826 1148.51,715.992 1160,709.5C 1161.5,709.667 1162.33,710.5 1162.5,712C 1156.89,716.609 1152.39,722.109 1149,728.5C 1148.33,732.5 1148.33,736.5 1149,740.5C 1155.13,747.009 1161.3,747.009 1167.5,740.5C 1168.52,737.026 1169.19,733.36 1169.5,729.5C 1171.72,724.258 1175.05,719.758 1179.5,716C 1181.04,714.813 1182.71,714.48 1184.5,715C 1185.73,716.183 1185.73,717.349 1184.5,718.5C 1176.41,723.721 1172.58,731.054 1173,740.5C 1176.89,747.812 1182.39,749.312 1189.5,745C 1192.98,741.701 1195.98,738.034 1198.5,734C 1216.61,730.565 1231.11,721.399 1242,706.5C 1249.65,694.17 1258.82,683.004 1269.5,673C 1273.84,669.828 1278.51,667.161 1283.5,665C 1294.08,661.688 1304.75,658.688 1315.5,656C 1340.68,646.634 1352.34,628.467 1350.5,601.5C 1350.34,599.801 1350.51,598.134 1351,596.5C 1351.33,596.833 1351.67,597.167 1352,597.5C 1352.23,596.263 1352.73,595.263 1353.5,594.5C 1359.82,628.7 1346.49,651.2 1313.5,662C 1291.86,663.904 1274.02,673.07 1260,689.5C 1252.68,700.633 1244.51,711.133 1235.5,721C 1225.75,729.876 1214.41,735.543 1201.5,738C 1196.33,748.518 1188,752.852 1176.5,751C 1174.02,749.357 1171.69,747.524 1169.5,745.5C 1164.16,749.373 1158.16,750.54 1151.5,749C 1148.99,747.152 1146.49,745.319 1144,743.5C 1133.56,749.152 1125.06,747.152 1118.5,737.5C 1109.4,742.762 1101.9,741.096 1096,732.5C 1095.52,731.552 1095.35,730.552 1095.5,729.5C 1078.92,730.081 1071.42,722.081 1073,705.5C 1076.19,697.6 1081.35,691.433 1088.5,687C 1096.01,683.212 1103.68,679.878 1111.5,677C 1154.23,641.309 1187.39,598.476 1211,548.5C 1214.08,534.34 1215.58,520.006 1215.5,505.5C 1214.81,475.268 1212.14,445.268 1207.5,415.5C 1207.56,410.269 1206.89,405.269 1205.5,400.5C 1205.1,393.138 1204.43,385.805 1203.5,378.5C 1203.56,373.269 1202.89,368.269 1201.5,363.5C 1201.5,359.833 1201.5,356.167 1201.5,352.5C 1203.14,352.286 1204.64,352.62 1206,353.5C 1207.34,369.524 1208.84,385.524 1210.5,401.5 Z"/></g>
<g><path style="opacity:1" fill="#7c7b7a" d="M 1169.5,729.5 C 1169.19,733.36 1168.52,737.026 1167.5,740.5C 1167.12,736.511 1167.78,732.845 1169.5,729.5 Z"/></g>
</svg>