<?xml version="1.0" encoding="UTF-8"?>
<svg xmlns="http://www.w3.org/2000/svg" version="1.1" viewBox="1267.33 318.50 170.17 273.63" width="170.17" height="273.63" style="overflow:visible;" xml:space="preserve">
<g>
<path d="M1396.5 368.5C1396.31 364.434 1396.64 360.434 1397.5 356.5C1401.85 346.982 1409.18 341.482 1419.5 340C1419.17 355.153 1411.83 364.986 1397.5 369.5C1396.89 369.376 1396.56 369.043 1396.5 368.5Z" fill="#f1f1f2" fill-rule="evenodd" opacity="1" stroke="none" />
<path d="M1390.5 413.5C1389.78 413.082 1389.28 412.416 1389 411.5C1387.99 413.742 1387.16 413.408 1386.5 410.5C1394.61 407.737 1400.61 402.404 1404.5 394.5C1403.97 393.808 1403.31 393.308 1402.5 393C1399.18 392.502 1395.85 392.335 1392.5 392.5C1393.6 391.395 1394.27 390.062 1394.5 388.5C1405.8 387.529 1412.8 381.529 1415.5 370.5C1408.84 369.828 1402.5 370.828 1396.5 373.5C1395.9 371.602 1395.9 369.935 1396.5 368.5C1396.56 369.043 1396.89 369.376 1397.5 369.5C1411.83 364.986 1419.17 355.153 1419.5 340C1409.18 341.482 1401.85 346.982 1397.5 356.5C1397.74 355.209 1397.4 354.209 1396.5 353.5C1398.92 346.576 1403.59 341.742 1410.5 339C1413.64 338.399 1416.64 337.399 1419.5 336C1421.54 332.747 1423.71 329.58 1426 326.5C1425.82 330.202 1424.49 333.535 1422 336.5C1422.54 347.885 1419.04 357.718 1411.5 366C1413.51 367.257 1415.68 368.091 1418 368.5C1422.16 367.016 1425.83 364.682 1429 361.5C1429.17 362 1429.33 362.5 1429.5 363C1426.63 366.372 1423.29 369.206 1419.5 371.5C1416.37 379.602 1411.04 385.769 1403.5 390C1404.97 390.635 1406.3 391.469 1407.5 392.5C1412.17 390.167 1416.83 387.833 1421.5 385.5C1421.83 385.833 1422.17 386.167 1422.5 386.5C1418.16 389.672 1413.49 392.339 1408.5 394.5C1403.78 402.216 1397.78 408.55 1390.5 413.5Z" fill="#1b1b1b" fill-rule="evenodd" opacity="1" stroke="none" />
<path d="M1394.5 388.5C1389.4 387.724 1388.23 385.057 1391 380.5C1392.67 378.004 1394.5 375.671 1396.5 373.5C1402.5 370.828 1408.84 369.828 1415.5 370.5C1412.8 381.529 1405.8 387.529 1394.5 388.5Z" fill="#f0f0f0" fill-rule="evenodd" opacity="1" stroke="none" />
<path d="M1392.5 392.5C1395.85 392.335 1399.18 392.502 1402.5 393C1403.31 393.308 1403.97 393.808 1404.5 394.5C1400.61 402.404 1394.61 407.737 1386.5 410.5C1374.27 411.301 1372.27 407.135 1380.5 398C1383.89 394.804 1387.89 392.971 1392.5 392.5Z" fill="#efefef" fill-rule="evenodd" opacity="1" stroke="none" />
<path d="M1330.5 431.5C1329.83 428.5 1329.17 425.5 1328.5 422.5C1328.28 421.325 1328.61 420.325 1329.5 419.5C1330.49 423.445 1330.82 427.445 1330.5 431.5Z" fill="#595658" fill-rule="evenodd" opacity="1" stroke="none" />
<path d="M1360.5 503.5C1359.4 502.603 1359.4 501.77 1360.5 501C1364.03 499.534 1367.7 498.534 1371.5 498C1360.04 496.63 1348.88 497.797 1338 501.5C1337.24 501.43 1336.74 501.097 1336.5 500.5C1337.06 499.21 1338.06 498.377 1339.5 498C1353.65 493.179 1367.65 493.345 1381.5 498.5C1381.29 499.086 1380.96 499.586 1380.5 500C1373.71 500.532 1367.04 501.699 1360.5 503.5Z" fill="#1c1c1c" fill-rule="evenodd" opacity="1" stroke="none" />
<path d="M1360.5 503.5C1357.72 504.195 1355.05 505.195 1352.5 506.5C1351.8 504.656 1350.46 504.156 1348.5 505C1330.39 513.445 1314.89 525.278 1302 540.5C1304.72 533.041 1308.06 525.708 1312 518.5C1315.75 514.082 1320.08 510.416 1325 507.5C1325.75 506.365 1325.58 505.365 1324.5 504.5C1315.15 512.808 1314.15 511.808 1321.5 501.5C1323.09 501.92 1324.59 502.586 1326 503.5C1329.31 501.785 1332.81 500.785 1336.5 500.5C1336.74 501.097 1337.24 501.43 1338 501.5C1348.88 497.797 1360.04 496.63 1371.5 498C1367.7 498.534 1364.03 499.534 1360.5 501C1359.4 501.77 1359.4 502.603 1360.5 503.5Z" fill="#ececec" fill-rule="evenodd" opacity="1" stroke="none" />
<path d="M1396.5 353.5C1397.4 354.209 1397.74 355.209 1397.5 356.5C1396.64 360.434 1396.31 364.434 1396.5 368.5C1395.9 369.935 1395.9 371.602 1396.5 373.5C1394.5 375.671 1392.67 378.004 1391 380.5C1388.23 385.057 1389.4 387.724 1394.5 388.5C1394.27 390.062 1393.6 391.395 1392.5 392.5C1387.89 392.971 1383.89 394.804 1380.5 398C1372.27 407.135 1374.27 411.301 1386.5 410.5C1387.16 413.408 1387.99 413.742 1389 411.5C1389.28 412.416 1389.78 413.082 1390.5 413.5C1396.19 414.516 1401.53 413.349 1406.5 410C1407.83 409.333 1409.17 409.333 1410.5 410C1405.89 413.137 1400.89 415.47 1395.5 417C1391.17 424 1385.5 429.667 1378.5 434C1379.67 435.084 1381 435.917 1382.5 436.5C1386.63 434.735 1390.79 433.069 1395 431.5C1395.5 431.833 1396 432.167 1396.5 432.5C1392.17 435.336 1387.5 437.503 1382.5 439C1378.69 445.31 1373.69 450.477 1367.5 454.5C1368.17 455.946 1369.34 456.612 1371 456.5C1374.13 455.9 1377.13 454.9 1380 453.5C1380.5 453.833 1381 454.167 1381.5 454.5C1377 456.949 1372.33 459.116 1367.5 461C1360.02 472.209 1349.69 476.709 1336.5 474.5C1330.71 483.071 1325.71 492.071 1321.5 501.5C1314.15 511.808 1315.15 512.808 1324.5 504.5C1325.58 505.365 1325.75 506.365 1325 507.5C1320.08 510.416 1315.75 514.082 1312 518.5C1308.06 525.708 1304.72 533.041 1302 540.5C1314.89 525.278 1330.39 513.445 1348.5 505C1350.46 504.156 1351.8 504.656 1352.5 506.5C1331.08 516.825 1312.58 531.158 1297 549.5C1293 560.167 1289 570.833 1285 581.5C1281.8 584.129 1278.8 583.796 1276 580.5C1275.33 579.167 1275.33 577.833 1276 576.5C1278.67 569.833 1281.33 563.167 1284 556.5C1284.33 544.5 1284.67 532.5 1285 520.5C1287.33 507.836 1289.67 495.169 1292 482.5C1292.94 469.103 1292.44 455.77 1290.5 442.5C1290.83 441.167 1291.17 439.833 1291.5 438.5C1292.09 438.709 1292.59 439.043 1293 439.5C1293.83 445.857 1294.67 452.191 1295.5 458.5C1295.67 466.174 1295.5 473.841 1295 481.5C1292.92 494.557 1290.59 507.557 1288 520.5C1287.33 529.167 1287.33 537.833 1288 546.5C1301.26 524.292 1306.59 500.292 1304 474.5C1303.04 468.12 1301.2 462.12 1298.5 456.5C1298.34 454.473 1298.5 452.473 1299 450.5C1305.29 462.33 1308.12 474.997 1307.5 488.5C1307.59 494.918 1306.92 501.252 1305.5 507.5C1305.48 509.373 1305.98 509.706 1307 508.5C1313.9 495.039 1321.06 481.706 1328.5 468.5C1324.52 463.57 1322.52 457.903 1322.5 451.5C1324.56 441.702 1326.56 432.035 1328.5 422.5C1329.17 425.5 1329.83 428.5 1330.5 431.5C1331.5 431.833 1332.17 432.5 1332.5 433.5C1332.78 434.289 1333.28 434.956 1334 435.5C1334.5 432.183 1334.67 428.85 1334.5 425.5C1334.9 420.807 1336.4 416.474 1339 412.5C1339.2 408.247 1339.7 404.08 1340.5 400C1340.83 399.833 1341.17 399.667 1341.5 399.5C1342.33 403.459 1342.83 407.459 1343 411.5C1344.33 412.833 1345.67 414.167 1347 415.5C1347.17 415.167 1347.33 414.833 1347.5 414.5C1346.41 410.892 1346.24 407.225 1347 403.5C1348.39 399.056 1350.06 394.723 1352 390.5C1353.33 375.999 1354.5 375.999 1355.5 390.5C1356.52 391.193 1357.52 391.859 1358.5 392.5C1358.56 393.043 1358.89 393.376 1359.5 393.5C1360.47 391.257 1360.81 388.924 1360.5 386.5C1364.25 376.243 1367.59 365.91 1370.5 355.5C1370.53 358.997 1370.69 362.664 1371 366.5C1372.75 368.351 1374.25 370.351 1375.5 372.5C1375.56 373.043 1375.89 373.376 1376.5 373.5C1377.48 370.914 1377.81 368.247 1377.5 365.5C1378.91 358.009 1382.41 351.676 1388 346.5C1389.97 341.221 1392.47 336.221 1395.5 331.5C1395.83 332 1396.17 332.5 1396.5 333C1394.42 337.003 1392.75 341.169 1391.5 345.5C1392.47 348.944 1393.63 352.278 1395 355.5C1395.28 354.584 1395.78 353.918 1396.5 353.5Z" fill="#161616" fill-rule="evenodd" opacity="1" stroke="none" />
<path d="M1298.5 456.5C1301.2 462.12 1303.04 468.12 1304 474.5C1306.59 500.292 1301.26 524.292 1288 546.5C1287.33 537.833 1287.33 529.167 1288 520.5C1290.59 507.557 1292.92 494.557 1295 481.5C1295.5 473.841 1295.67 466.174 1295.5 458.5C1296.27 459.263 1296.77 460.263 1297 461.5C1297.61 459.846 1298.11 458.179 1298.5 456.5Z" fill="#f0f1f0" fill-rule="evenodd" opacity="1" stroke="none" />
<path d="M1350.5 455.5C1355.6 455.175 1360.6 455.675 1365.5 457C1365.83 457.333 1366.17 457.667 1366.5 458C1363.17 462.667 1359.17 466.667 1354.5 470C1349.54 471.71 1344.54 471.876 1339.5 470.5C1338.28 468.102 1338.44 465.769 1340 463.5C1342.98 459.952 1346.48 457.286 1350.5 455.5Z" fill="#f1f1f1" fill-rule="evenodd" opacity="1" stroke="none" />
<path d="M1347.5 452.5C1350.8 452.329 1351.13 452.995 1348.5 454.5C1347.7 454.043 1347.37 453.376 1347.5 452.5Z" fill="#8c8b8e" fill-rule="evenodd" opacity="1" stroke="none" />
<path d="M1347.5 444.5C1348.38 444.369 1349.04 444.702 1349.5 445.5C1347.32 449.881 1344.65 453.881 1341.5 457.5C1341.17 457.167 1340.83 456.833 1340.5 456.5C1342.89 452.466 1345.22 448.466 1347.5 444.5Z" fill="#cbcccd" fill-rule="evenodd" opacity="1" stroke="none" />
<path d="M1339.5 446.5C1342.86 447.203 1343.19 448.537 1340.5 450.5C1339.57 449.311 1339.24 447.978 1339.5 446.5Z" fill="#717173" fill-rule="evenodd" opacity="1" stroke="none" />
<path d="M1329.5 434.5C1337.83 442.836 1339.66 452.503 1335 463.5C1332.37 466.192 1330.03 465.859 1328 462.5C1324.44 452.953 1324.94 443.62 1329.5 434.5Z" fill="#eeeeee" fill-rule="evenodd" opacity="1" stroke="none" />
<path d="M1364.5 435.5C1368.94 435.21 1373.27 435.71 1377.5 437C1378.52 438.049 1378.68 439.216 1378 440.5C1371.72 450.587 1363.05 453.921 1352 450.5C1351.33 448.5 1351.33 446.5 1352 444.5C1355.3 440.118 1359.47 437.118 1364.5 435.5Z" fill="#eeeeee" fill-rule="evenodd" opacity="1" stroke="none" />
<path d="M1334.5 425.5C1334.67 428.85 1334.5 432.183 1334 435.5C1333.28 434.956 1332.78 434.289 1332.5 433.5C1333.17 430.833 1333.83 428.167 1334.5 425.5Z" fill="#666a65" fill-rule="evenodd" opacity="1" stroke="none" />
<path d="M1359.5 431.5C1362.67 431.952 1363.01 432.952 1360.5 434.5C1359.61 433.675 1359.28 432.675 1359.5 431.5Z" fill="#c5c5c6" fill-rule="evenodd" opacity="1" stroke="none" />
<path d="M1357.5 427.5C1358.38 427.369 1359.04 427.702 1359.5 428.5C1357.79 432.152 1355.62 435.485 1353 438.5C1352.83 434.178 1354.33 430.512 1357.5 427.5Z" fill="#d4d5d6" fill-rule="evenodd" opacity="1" stroke="none" />
<path d="M1341.5 413.5C1349.53 421.302 1351.7 430.636 1348 441.5C1343.4 446.723 1340.07 445.723 1338 438.5C1335.48 429.646 1336.65 421.313 1341.5 413.5Z" fill="#efefef" fill-rule="evenodd" opacity="1" stroke="none" />
<path d="M1376.5 414.5C1380.85 414.334 1385.18 414.501 1389.5 415C1391.97 416.588 1392.13 418.422 1390 420.5C1386.42 424.752 1382.25 428.252 1377.5 431C1373.59 432.434 1369.59 432.767 1365.5 432C1362.21 429.668 1361.71 426.835 1364 423.5C1367.3 419.118 1371.47 416.118 1376.5 414.5Z" fill="#f0f0f0" fill-rule="evenodd" opacity="1" stroke="none" />
<path d="M1373.5 411.5C1378.02 411.326 1378.35 411.993 1374.5 413.5C1373.7 413.043 1373.37 412.376 1373.5 411.5Z" fill="#8d8c8b" fill-rule="evenodd" opacity="1" stroke="none" />
<path d="M1365.5 409.5C1366.17 411.5 1366.83 413.5 1367.5 415.5C1367.22 416.289 1366.72 416.956 1366 417.5C1365.5 414.854 1365.34 412.187 1365.5 409.5Z" fill="#67676b" fill-rule="evenodd" opacity="1" stroke="none" />
<path d="M1367.5 415.5C1366.83 413.5 1366.17 411.5 1365.5 409.5C1365.34 407.801 1365.51 406.134 1366 404.5C1368.01 406.8 1370.17 406.8 1372.5 404.5C1373.87 409.442 1372.2 413.109 1367.5 415.5Z" fill="#eaeaea" fill-rule="evenodd" opacity="1" stroke="none" />
<path d="M1353.5 393.5C1356.29 393.452 1358.13 394.785 1359 397.5C1362.75 404.54 1363.42 411.874 1361 419.5C1359.65 422.179 1357.65 424.179 1355 425.5C1352.97 424.48 1351.64 422.813 1351 420.5C1349.54 414.903 1349.21 409.237 1350 403.5C1351.47 400.242 1352.63 396.908 1353.5 393.5Z" fill="#ebebeb" fill-rule="evenodd" opacity="1" stroke="none" />
<path d="M1360.5 386.5C1360.81 388.924 1360.47 391.257 1359.5 393.5C1358.89 393.376 1358.56 393.043 1358.5 392.5C1359.17 390.5 1359.83 388.5 1360.5 386.5Z" fill="#808480" fill-rule="evenodd" opacity="1" stroke="none" />
<path d="M1387.5 388.5C1388.38 388.369 1389.04 388.702 1389.5 389.5C1385.75 392.303 1385.08 391.97 1387.5 388.5Z" fill="#aaaaa8" fill-rule="evenodd" opacity="1" stroke="none" />
<path d="M1369.5 370.5C1377.19 376.656 1379.69 384.656 1377 394.5C1375.41 398.403 1372.91 401.403 1369.5 403.5C1364.75 400.827 1362.75 396.66 1363.5 391C1364.06 383.693 1366.06 376.86 1369.5 370.5Z" fill="#f1f1f1" fill-rule="evenodd" opacity="1" stroke="none" />
<path d="M1377.5 365.5C1377.81 368.247 1377.48 370.914 1376.5 373.5C1375.89 373.376 1375.56 373.043 1375.5 372.5C1376.17 370.167 1376.83 367.833 1377.5 365.5Z" fill="#90928d" fill-rule="evenodd" opacity="1" stroke="none" />
<path d="M1388.5 349.5C1389.5 349.47 1390.16 349.97 1390.5 351C1394.62 359.925 1394.45 368.758 1390 377.5C1387.59 383.329 1384.42 388.662 1380.5 393.5C1380.17 393 1379.83 392.5 1379.5 392C1380.47 389.889 1381.31 387.722 1382 385.5C1384.13 384.859 1385.63 383.526 1386.5 381.5C1384.36 380.92 1382.53 379.92 1381 378.5C1377.88 367.369 1380.38 357.702 1388.5 349.5Z" fill="#ebebeb" fill-rule="evenodd" opacity="1" stroke="none" />
<path d="M1331.5 467.5C1332.83 467.5 1334.17 467.5 1335.5 467.5C1335.54 470.425 1334.71 473.091 1333 475.5C1312.34 507.812 1295.68 542.146 1283 578.5C1281.52 581.064 1280.02 581.064 1278.5 578.5C1282.7 567.059 1287.2 555.725 1292 544.5C1304.67 518.494 1317.84 492.827 1331.5 467.5Z" fill="#e5e5e6" fill-rule="evenodd" opacity="1" stroke="none" />
</g>

</svg>