<?xml version="1.0" encoding="UTF-8"?>
<svg xmlns="http://www.w3.org/2000/svg" version="1.1" style="shape-rendering:geometricPrecision;text-rendering:geometricPrecision;image-rendering:optimizeQuality;fill-rule:evenodd;clip-rule:evenodd"
     viewBox="78.0 247.5 313.0 530.6">
<g><path style="opacity:1" fill="#d5d5d5" d="M 309.5,283.5 C 300.316,281.197 290.982,280.197 281.5,280.5C 286.316,279.674 291.316,279.174 296.5,279C 290.378,278.272 290.211,277.772 296,277.5C 301.224,277.992 305.724,279.992 309.5,283.5 Z"/></g>
<g><path style="opacity:1" fill="#a3a4a5" d="M 309.5,459.5 C 308.653,460.966 307.32,461.8 305.5,462C 300.316,462.816 295.316,462.65 290.5,461.5C 296.986,461.919 303.319,461.252 309.5,459.5 Z"/></g>
<g><path style="opacity:1" fill="#9b9c9b" d="M 110.5,554.5 C 112.322,561.251 113.322,568.251 113.5,575.5C 111.625,568.755 110.625,561.755 110.5,554.5 Z"/></g>
<g><path style="opacity:1" fill="#cbcccb" d="M 116.5,594.5 C 118.375,599.206 119.375,604.206 119.5,609.5C 118.883,609.611 118.383,609.944 118,610.5C 116.729,605.246 116.229,599.913 116.5,594.5 Z"/></g>
<g><path style="opacity:1" fill="#121212" d="M 281.5,280.5 C 290.982,280.197 300.316,281.197 309.5,283.5C 324.953,288.974 339.787,295.974 354,304.5C 361.033,340.258 359.366,375.591 349,410.5C 343.073,427.741 333.239,442.241 319.5,454C 316.3,456.099 312.967,457.933 309.5,459.5C 303.319,461.252 296.986,461.919 290.5,461.5C 285.975,460.571 281.975,458.571 278.5,455.5C 260.414,481.764 240.247,506.431 218,529.5C 218.025,534.841 216.858,539.841 214.5,544.5C 218.134,561.304 222.3,577.971 227,594.5C 234.383,614.268 242.05,633.935 250,653.5C 251.427,663.355 250.26,672.855 246.5,682C 250.804,691.441 254.971,700.941 259,710.5C 259.814,712.902 259.647,715.235 258.5,717.5C 237.675,728.418 216.342,737.918 194.5,746C 190.928,747.48 187.262,748.146 183.5,748C 177.958,737.391 172.792,726.557 168,715.5C 153.192,711.029 143.192,701.362 138,686.5C 131.331,660.827 125.164,635.16 119.5,609.5C 119.375,604.206 118.375,599.206 116.5,594.5C 116.136,587.936 115.136,581.603 113.5,575.5C 113.322,568.251 112.322,561.251 110.5,554.5C 107.999,534.168 109.499,514.168 115,494.5C 133.524,460.785 151.524,426.785 169,392.5C 184.485,360.701 204.985,332.535 230.5,308C 245.219,294.64 262.219,285.473 281.5,280.5 Z"/></g>
<g><path style="opacity:1" fill="#ebebeb" d="M 240.5,684.5 C 241.496,684.414 242.329,684.748 243,685.5C 246.627,694.703 250.46,703.869 254.5,713C 252.448,715.542 249.781,717.375 246.5,718.5C 241.06,708.512 236.393,698.178 232.5,687.5C 235.542,687.267 238.208,686.267 240.5,684.5 Z"/></g>
<g><path style="opacity:1" fill="#f8f8f8" d="M 278.5,285.5 C 293.05,284.87 307.05,287.37 320.5,293C 330.477,297.322 340.143,302.155 349.5,307.5C 352.346,319.81 353.679,332.31 353.5,345C 354.437,373.985 348.603,401.485 336,427.5C 329.446,439.721 319.946,448.887 307.5,455C 297.953,459.331 289.286,458.164 281.5,451.5C 290.332,438.179 296.665,423.845 300.5,408.5C 298.856,408.286 297.356,408.62 296,409.5C 293.425,418.131 290.091,426.465 286,434.5C 265.473,467.188 241.806,497.521 215,525.5C 208.678,518.423 200.845,514.089 191.5,512.5C 191.286,514.144 191.62,515.644 192.5,517C 200.76,519.377 207.593,523.877 213,530.5C 213.847,533.588 213.347,536.421 211.5,539C 205.974,539.081 200.474,538.581 195,537.5C 193.167,537.667 191.333,537.833 189.5,538C 188.167,539.333 188.167,540.667 189.5,542C 196.529,542.255 203.362,543.421 210,545.5C 216.872,582.783 228.539,618.449 245,652.5C 247.96,662.313 246.794,671.479 241.5,680C 217.226,688.639 193.56,698.639 170.5,710C 162.072,709.285 155.238,705.452 150,698.5C 145.519,691.741 142.186,684.407 140,676.5C 128.838,632.69 120.505,588.357 115,543.5C 112.201,518.291 117.534,494.958 131,473.5C 148.842,441.819 166.175,409.819 183,377.5C 197.411,350.543 216.244,327.043 239.5,307C 251.258,297.369 264.258,290.202 278.5,285.5 Z"/></g>
<g><path style="opacity:1" fill="#f1f1f1" d="M 225.5,690.5 C 226.675,690.281 227.675,690.614 228.5,691.5C 232.638,700.942 236.638,710.442 240.5,720C 235.821,723.341 230.821,726.174 225.5,728.5C 220.165,718.663 215.499,708.496 211.5,698C 216.034,695.214 220.701,692.714 225.5,690.5 Z"/></g>
<g><path style="opacity:1" fill="#f3f2f3" d="M 204.5,699.5 C 205.5,699.5 206.5,699.5 207.5,699.5C 211.208,709.254 215.208,718.921 219.5,728.5C 219.471,730.029 218.804,731.196 217.5,732C 212.819,733.116 208.319,734.616 204,736.5C 198.669,727.171 193.835,717.504 189.5,707.5C 194.315,704.453 199.315,701.787 204.5,699.5 Z"/></g>
<g><path style="opacity:1" fill="#ededed" d="M 183.5,708.5 C 184.496,708.414 185.329,708.748 186,709.5C 189.68,719.372 193.847,729.039 198.5,738.5C 194.857,740.939 190.857,742.606 186.5,743.5C 181.498,734.329 177.165,724.829 173.5,715C 173.645,714.228 173.978,713.561 174.5,713C 177.592,711.454 180.592,709.954 183.5,708.5 Z"/></g>
</svg>