<?xml version="1.0" encoding="UTF-8"?>
<svg xmlns="http://www.w3.org/2000/svg" version="1.1" viewBox="95.33 598.44 133.44 243.63" width="133.44" height="243.63" style="overflow:visible;" xml:space="preserve">
<g>
<path d="M171.5 618.5C170.833 618.167 170.167 617.833 169.5 617.5C169.44 616.957 169.107 616.624 168.5 616.5C167.205 617.098 165.872 617.598 164.5 618C155.167 618.667 145.833 618.667 136.5 618C134.443 615.919 132.777 616.086 131.5 618.5C130.186 616.105 130.186 613.605 131.5 611C144.459 606.44 157.459 606.44 170.5 611C172.715 613.242 173.048 615.742 171.5 618.5Z" fill="#1a1b1b" fill-rule="evenodd" opacity="1" stroke="none" />
<path d="M139.5 610.5C145.842 610.334 152.175 610.5 158.5 611C162.037 611.145 165.371 611.978 168.5 613.5C166.453 615.015 164.119 615.849 161.5 616C154.833 616.667 148.167 616.667 141.5 616C132.281 615.396 131.614 613.563 139.5 610.5Z" fill="#dfe0e0" fill-rule="evenodd" opacity="1" stroke="none" />
<path d="M169.5 617.5C169.5 619.167 169.5 620.833 169.5 622.5C168.895 625.127 168.395 627.793 168 630.5C166.989 631.337 165.822 631.67 164.5 631.5C164.82 628.102 164.487 624.768 163.5 621.5C162.511 625.107 162.177 628.774 162.5 632.5C160.833 632.5 159.167 632.5 157.5 632.5C157.905 628.952 157.405 625.619 156 622.5C154.585 625.958 154.085 629.625 154.5 633.5C151.881 633.768 149.381 633.435 147 632.5C145.839 619.183 145.006 619.183 144.5 632.5C142.833 632.5 141.167 632.5 139.5 632.5C139.5 628.833 139.5 625.167 139.5 621.5C138.5 621.5 137.5 621.5 136.5 621.5C136.82 624.898 136.487 628.232 135.5 631.5C134.17 628.8 132.836 626.133 131.5 623.5C130.167 621.833 130.167 620.167 131.5 618.5C132.777 616.086 134.443 615.919 136.5 618C145.833 618.667 155.167 618.667 164.5 618C165.872 617.598 167.205 617.098 168.5 616.5C169.107 616.624 169.44 616.957 169.5 617.5Z" fill="#e7e7e7" fill-rule="evenodd" opacity="1" stroke="none" />
<path d="M169.5 617.5C170.167 617.833 170.833 618.167 171.5 618.5C171.5 619.833 171.5 621.167 171.5 622.5C170.833 622.5 170.167 622.5 169.5 622.5C169.5 620.833 169.5 619.167 169.5 617.5Z" fill="#8a8a88" fill-rule="evenodd" opacity="1" stroke="none" />
<path d="M169.5 622.5C170.167 622.5 170.833 622.5 171.5 622.5C171.338 624.527 171.505 626.527 172 628.5C177.474 631.724 178.974 636.39 176.5 642.5C172.663 645.236 171.663 648.903 173.5 653.5C194.178 645.332 209.011 651.332 218 671.5C220.771 687.106 218.771 702.106 212 716.5C207.734 725.089 203.067 733.422 198 741.5C197.667 765.5 197.333 789.5 197 813.5C194.69 821.1 189.523 825.6 181.5 827C157.298 834.066 133.631 832.733 110.5 823C107.131 820.635 104.964 817.468 104 813.5C103.333 784.167 103.333 754.833 104 725.5C105.286 717.976 107.953 710.976 112 704.5C116.333 698.833 120.667 693.167 125 687.5C126.197 684.911 127.197 682.244 128 679.5C129.55 668.217 129.883 656.883 129 645.5C121.518 639.677 121.685 634.011 129.5 628.5C130.322 626.861 130.989 625.195 131.5 623.5C132.836 626.133 134.17 628.8 135.5 631.5C136.487 628.232 136.82 624.898 136.5 621.5C137.5 621.5 138.5 621.5 139.5 621.5C139.5 625.167 139.5 628.833 139.5 632.5C141.167 632.5 142.833 632.5 144.5 632.5C145.006 619.183 145.839 619.183 147 632.5C149.381 633.435 151.881 633.768 154.5 633.5C154.085 629.625 154.585 625.958 156 622.5C157.405 625.619 157.905 628.952 157.5 632.5C159.167 632.5 160.833 632.5 162.5 632.5C162.177 628.774 162.511 625.107 163.5 621.5C164.487 624.768 164.82 628.102 164.5 631.5C165.822 631.67 166.989 631.337 168 630.5C168.395 627.793 168.895 625.127 169.5 622.5Z" fill="#191919" fill-rule="evenodd" opacity="1" stroke="none" />
<path d="M183.5 667.5C193.264 666.123 199.43 670.123 202 679.5C202.617 691.699 199.784 703.032 193.5 713.5C189.642 705.812 184.809 698.812 179 692.5C176.566 689.205 174.899 685.538 174 681.5C173.294 679.029 173.627 676.695 175 674.5C177.416 671.577 180.25 669.243 183.5 667.5Z" fill="#f3f3f3" fill-rule="evenodd" opacity="1" stroke="none" />
<path d="M182.5 702.5C179.652 703.539 176.985 704.872 174.5 706.5C172.977 701.121 170.644 696.121 167.5 691.5C167.167 692.167 166.833 692.833 166.5 693.5C167.843 696.85 169.177 700.183 170.5 703.5C170.119 704.931 169.119 705.764 167.5 706C163.853 706.774 160.186 707.441 156.5 708C158.5 708.333 160.5 708.667 162.5 709C156.319 709.172 150.319 709.672 144.5 710.5C142.167 710.5 139.833 710.5 137.5 710.5C132.886 711.55 128.22 711.717 123.5 711C124.167 710.667 124.833 710.333 125.5 710C121.699 708.618 119.032 706.118 117.5 702.5C122.23 696.591 126.397 690.257 130 683.5C130.667 680.833 131.333 678.167 132 675.5C132.168 665.816 132.668 656.149 133.5 646.5C145.488 649.107 157.488 649.107 169.5 646.5C169.5 650.167 169.5 653.833 169.5 657.5C174.717 655.707 180.05 654.207 185.5 653C201.78 652.069 211.947 659.569 216 675.5C216.882 697.523 210.882 717.523 198 735.5C197.845 729.389 196.678 723.556 194.5 718C200.672 707.652 204.338 696.485 205.5 684.5C204.68 669.843 197.014 663.343 182.5 665C169.012 671.656 166.846 681.156 176 693.5C178.385 696.379 180.552 699.379 182.5 702.5Z" fill="#f6f6f6" fill-rule="evenodd" opacity="1" stroke="none" />
<path d="M129.5 631.5C135.89 635.185 142.89 636.851 150.5 636.5C158.049 636.857 165.049 635.191 171.5 631.5C176.353 634.591 176.686 638.091 172.5 642C158.93 646.118 145.263 646.451 131.5 643C125.732 639.997 125.065 636.164 129.5 631.5Z" fill="#efefef" fill-rule="evenodd" opacity="1" stroke="none" />
<path d="M174.5 706.5C174.631 707.239 174.464 707.906 174 708.5C172.811 706.767 171.644 705.1 170.5 703.5C169.177 700.183 167.843 696.85 166.5 693.5C166.833 692.833 167.167 692.167 167.5 691.5C170.644 696.121 172.977 701.121 174.5 706.5Z" fill="#1e1d1e" fill-rule="evenodd" opacity="1" stroke="none" />
<path d="M117.5 702.5C119.032 706.118 121.699 708.618 125.5 710C124.833 710.333 124.167 710.667 123.5 711C128.22 711.717 132.886 711.55 137.5 710.5C137.389 711.117 137.056 711.617 136.5 712C146.517 712.832 156.517 712.666 166.5 711.5C159.197 710.503 151.863 710.169 144.5 710.5C150.319 709.672 156.319 709.172 162.5 709C160.5 708.667 158.5 708.333 156.5 708C160.186 707.441 163.853 706.774 167.5 706C169.119 705.764 170.119 704.931 170.5 703.5C171.644 705.1 172.811 706.767 174 708.5C174.464 707.906 174.631 707.239 174.5 706.5C176.985 704.872 179.652 703.539 182.5 702.5C185.639 706.09 188.306 710.09 190.5 714.5C190.167 714.833 189.833 715.167 189.5 715.5C185.942 713.518 182.275 712.851 178.5 713.5C179.624 714.859 180.958 715.859 182.5 716.5C182.611 717.117 182.944 717.617 183.5 718C181.485 718.424 179.651 719.258 178 720.5C175.536 719.237 174.37 717.237 174.5 714.5C172.533 714.739 170.699 714.406 169 713.5C167.53 715.152 165.697 716.152 163.5 716.5C153.388 715.378 143.388 715.378 133.5 716.5C132.252 715.96 131.085 715.293 130 714.5C125.091 717.282 119.924 719.448 114.5 721C115.5 721.833 116.5 722.667 117.5 723.5C116.757 724.182 116.091 724.849 115.5 725.5C106.784 723.336 106.45 720.503 114.5 717C118.806 716.412 122.806 715.079 126.5 713C123.833 712.333 121.167 712.333 118.5 713C115.495 714.354 112.495 715.354 109.5 716C111.802 711.222 114.468 706.722 117.5 702.5Z" fill="#e5e5e5" fill-rule="evenodd" opacity="1" stroke="none" />
<path d="M137.5 710.5C139.833 710.5 142.167 710.5 144.5 710.5C151.863 710.169 159.197 710.503 166.5 711.5C156.517 712.666 146.517 712.832 136.5 712C137.056 711.617 137.389 711.117 137.5 710.5Z" fill="#0c0d0d" fill-rule="evenodd" opacity="1" stroke="none" />
<path d="M182.5 716.5C186.31 716.379 189.477 717.712 192 720.5C192.749 721.635 192.583 722.635 191.5 723.5C184.153 726.754 176.486 728.92 168.5 730C156.833 730.667 145.167 730.667 133.5 730C127.23 729.052 121.23 727.552 115.5 725.5C116.091 724.849 116.757 724.182 117.5 723.5C116.5 722.667 115.5 721.833 114.5 721C119.924 719.448 125.091 717.282 130 714.5C131.085 715.293 132.252 715.96 133.5 716.5C143.388 715.378 153.388 715.378 163.5 716.5C165.697 716.152 167.53 715.152 169 713.5C170.699 714.406 172.533 714.739 174.5 714.5C174.37 717.237 175.536 719.237 178 720.5C179.651 719.258 181.485 718.424 183.5 718C182.944 717.617 182.611 717.117 182.5 716.5Z" fill="#f6f6f6" fill-rule="evenodd" opacity="1" stroke="none" />
<path d="M132.5 813.5C131.081 812.549 129.415 812.216 127.5 812.5C127.5 813.5 127.5 814.5 127.5 815.5C128.5 815.5 129.5 815.5 130.5 815.5C147.505 818.548 164.505 818.048 181.5 814C185.975 812.845 190.142 811.012 194 808.5C194.653 812.875 193.487 816.708 190.5 820C185.466 822.789 180.132 824.789 174.5 826C157.424 828.31 140.424 827.977 123.5 825C119.271 823.885 115.271 822.219 111.5 820C107.631 816.564 106.298 812.397 107.5 807.5C110.658 810.419 114.324 811.586 118.5 811C114.833 808.833 111.167 806.667 107.5 804.5C106.176 778.464 106.176 752.464 107.5 726.5C107.833 726.167 108.167 725.833 108.5 725.5C122.123 731.757 136.456 734.424 151.5 733.5C166.262 734.707 180.262 732.04 193.5 725.5C194.667 751.827 194.833 778.16 194 804.5C191.374 807.231 188.207 809.064 184.5 810C167.42 814.535 150.086 815.701 132.5 813.5Z" fill="#f5f5f5" fill-rule="evenodd" opacity="1" stroke="none" />
<path d="M147.5 752.5C147.938 753.506 148.604 753.506 149.5 752.5C148 756.173 146 759.506 143.5 762.5C143.5 761.833 143.167 761.5 142.5 761.5C144.977 758.873 146.644 755.873 147.5 752.5Z" fill="#8c8a8b" fill-rule="evenodd" opacity="1" stroke="none" />
<path d="M143.5 762.5C146 759.506 148 756.173 149.5 752.5C149.783 751.711 150.283 751.044 151 750.5C156 758.5 161 766.5 166 774.5C169.12 783.806 166.953 791.639 159.5 798C147.593 803.253 139.427 799.753 135 787.5C134.333 784.167 134.333 780.833 135 777.5C137.325 772.18 140.158 767.18 143.5 762.5Z" fill="#f2f2f2" fill-rule="evenodd" opacity="1" stroke="none" />
<path d="M142.5 761.5C143.167 761.5 143.5 761.833 143.5 762.5C140.158 767.18 137.325 772.18 135 777.5C134.333 780.833 134.333 784.167 135 787.5C139.427 799.753 147.593 803.253 159.5 798C166.953 791.639 169.12 783.806 166 774.5C161 766.5 156 758.5 151 750.5C150.283 751.044 149.783 751.711 149.5 752.5C148.604 753.506 147.938 753.506 147.5 752.5C147.586 750.323 148.253 748.323 149.5 746.5C150.5 745.167 151.5 745.167 152.5 746.5C157.748 755.998 163.248 765.331 169 774.5C172.893 790.732 166.727 800.399 150.5 803.5C136.285 800.781 130.119 792.114 132 777.5C133.772 770.935 137.272 765.602 142.5 761.5Z" fill="#171717" fill-rule="evenodd" opacity="1" stroke="none" />
<path d="M161.5 778.5C162.75 778.577 163.583 779.244 164 780.5C164.996 788.379 161.829 793.712 154.5 796.5C153.833 796.167 153.167 795.833 152.5 795.5C159.435 791.965 162.435 786.299 161.5 778.5Z" fill="#1f1f1f" fill-rule="evenodd" opacity="1" stroke="none" />
<path d="M132.5 813.5C131.167 813.5 130.5 814.167 130.5 815.5C129.5 815.5 128.5 815.5 127.5 815.5C127.5 814.5 127.5 813.5 127.5 812.5C129.415 812.216 131.081 812.549 132.5 813.5Z" fill="#575958" fill-rule="evenodd" opacity="1" stroke="none" />
</g>

</svg>